<svg width="250" height="250" viewBox="0 0 250 250" fill="none" xmlns="http://www.w3.org/2000/svg">
<path d="M250 125.02C250.038 154.425 239.674 182.895 220.742 205.389C217.751 208.937 214.571 212.321 211.215 215.525H39.3737C36.1098 212.682 33.0242 209.639 30.1343 206.416C29.8777 206.129 29.6005 205.8 29.2823 205.389C22.0961 196.835 -1.15625 166.509 0.0448669 125.02C1.71821 67.5423 50.0297 0 125.033 0C141.444 -5.53962e-08 157.696 3.23382 172.858 9.51682C188.02 15.7998 201.797 25.0089 213.401 36.6183C225.006 48.2276 234.211 62.0099 240.49 77.178C246.77 92.3461 250.001 108.603 250 125.02Z" fill="#84D0F7"/>
<path d="M220.742 205.389C217.754 208.936 214.573 212.317 211.215 215.515C187.986 237.696 157.094 250.05 124.981 250C84.3487 250 53.9205 228.434 39.3634 215.515C36.1116 212.665 33.0299 209.627 30.1343 206.416C29.8879 206.118 29.5902 205.8 29.3028 205.389C43.2337 191.33 61.9998 180.414 83.5993 174.232C89.6562 189.287 105.917 200.07 124.992 200.07C142.731 200.07 158.017 190.766 164.926 177.384C165.47 176.357 165.953 175.331 166.384 174.232C166.794 174.345 167.041 174.406 167.564 174.571C188.702 180.814 207.057 191.597 220.742 205.389Z" fill="#AA392D"/>
<path d="M166.394 174.222C165.963 175.248 165.48 176.337 164.936 177.374C158.027 190.725 142.741 200.06 125.002 200.06C105.928 200.06 89.6665 189.277 83.6096 174.222L86.3403 173.462L86.5662 173.4C86.5662 173.4 88.3935 172.917 90.0771 172.537C93.2593 179.097 98.2228 184.628 104.4 188.497C110.577 192.367 117.718 194.419 125.007 194.419C132.295 194.419 139.437 192.367 145.614 188.497C151.791 184.628 156.755 179.097 159.937 172.537C162.147 172.846 164.314 173.411 166.394 174.222Z" fill="#7C211A"/>
<path d="M159.937 172.527C156.749 179.073 151.786 184.59 145.615 188.45C139.443 192.31 132.311 194.356 125.033 194.356C117.754 194.356 110.622 192.31 104.451 188.45C98.2789 184.59 93.3161 179.073 90.1284 172.527C91.5143 172.178 92.9003 171.89 94.3067 171.592L95.3333 171.387C95.5048 171.337 95.6798 171.299 95.8568 171.274C96.1545 171.202 96.4523 171.161 96.7397 171.089L97.9716 170.884L98.9058 170.699H98.9982C99.3575 169.816 99.6963 168.861 100.025 167.813C100.138 167.474 100.261 167.084 100.374 166.725C100.774 165.225 101.072 163.808 101.277 162.555C103.466 164.367 105.836 165.947 108.35 167.269C108.537 167.358 108.719 167.458 108.895 167.567C109.1 167.659 109.326 167.772 109.531 167.885L110.311 168.245C110.465 168.316 110.63 168.378 110.763 168.45L111.153 168.635L111.625 168.84L112.077 169.025C112.142 169.06 112.211 169.087 112.282 169.107C112.463 169.187 112.648 169.255 112.837 169.313C113.032 169.405 113.268 169.497 113.514 169.59C113.771 169.682 113.997 169.775 114.264 169.857C114.317 169.877 114.372 169.894 114.428 169.908L114.951 170.093C115.229 170.155 115.475 170.247 115.742 170.319C116.009 170.391 115.978 170.381 116.112 170.411L116.84 170.617C118.368 170.986 119.918 171.257 121.481 171.428C121.635 171.428 121.799 171.428 121.953 171.479H122.292H122.928H123.503H124.16H124.725C128.116 171.47 131.482 170.908 134.693 169.816C134.703 169.82 134.713 169.823 134.724 169.823C134.734 169.823 134.745 169.82 134.754 169.816C134.881 169.792 135.005 169.754 135.124 169.703C135.945 169.426 136.664 169.128 137.3 168.881L138.173 168.522L138.399 168.429C142.071 166.858 145.484 164.739 148.521 162.145C148.839 163.562 149.219 165.061 149.702 166.632C150.133 168.039 150.585 169.364 151.036 170.607C151.426 170.678 151.796 170.73 152.176 170.812L153.295 171.017L154.403 171.223L155.225 171.387C155.41 171.387 155.594 171.479 155.769 171.5C157.186 171.901 158.571 172.188 159.937 172.527Z" fill="#E59973"/>
<path d="M75.3045 90.5869C74.3718 95.7517 74.0274 101.006 74.2779 106.248C74.2779 107.275 74.3908 108.363 74.514 109.401C74.514 109.791 74.5756 110.202 74.6269 110.592C72.4608 109.452 71.5471 104.43 69.8738 94.9104C68.8472 88.913 68.2826 85.904 68.4365 82.587C68.8328 77.4994 70.2578 72.5452 72.625 68.0249C73.6618 71.8169 75.9029 75.1689 79.0105 77.5755C77.3626 81.7843 76.1216 86.1413 75.3045 90.5869Z" fill="#70490E"/>
<path d="M180.079 94.9102C179.268 99.552 178.631 103.126 177.943 105.673C177.214 108.445 176.424 110.068 175.264 110.612C175.438 108.969 175.582 107.357 175.644 105.724C175.887 100.658 175.567 95.5815 174.689 90.5868C174.071 87.1588 173.189 83.7837 172.051 80.4919C172.051 80.4919 172.051 80.42 172.051 80.3995C174.821 78.5545 177.481 76.5485 180.017 74.3918C180.84 77.0636 181.36 79.8194 181.567 82.6074C181.701 85.9245 181.146 88.9334 180.079 94.9102Z" fill="#70490E"/>
<path opacity="0.2" d="M167.575 174.581C166.733 175.608 165.85 176.491 164.936 177.395C162.938 179.423 160.786 181.294 158.5 182.992C155.501 185.238 152.231 187.097 148.767 188.527C146.578 189.41 144.31 190.081 141.992 190.529C139.944 190.911 137.864 191.093 135.781 191.074C131.7 190.981 127.67 190.139 123.893 188.588C123.665 188.507 123.442 188.411 123.226 188.301C120.211 187.014 117.352 185.388 114.705 183.454C109.733 179.746 105.354 175.303 101.719 170.278C101.123 169.487 100.559 168.686 99.9838 167.844C100.097 167.505 100.22 167.115 100.333 166.755C100.733 165.256 101.031 163.839 101.236 162.586C101.832 163.065 102.448 163.538 103.084 164.003C104.754 165.213 106.499 166.314 108.309 167.3C108.496 167.389 108.678 167.488 108.854 167.598C109.059 167.69 109.285 167.803 109.49 167.916L110.27 168.275C110.424 168.347 110.588 168.409 110.722 168.481L111.112 168.666L111.584 168.871L112.036 169.056C112.101 169.091 112.17 169.118 112.241 169.138L112.796 169.343L113.473 169.621L114.223 169.888C114.276 169.908 114.331 169.925 114.387 169.939L114.91 170.124C115.188 170.185 115.434 170.278 115.701 170.35C115.968 170.422 115.937 170.411 116.07 170.442L116.799 170.648C118.324 171.032 119.875 171.303 121.44 171.459C121.594 171.459 121.758 171.459 121.912 171.51H122.251H122.887H123.462H124.119H124.684C128.073 171.478 131.436 170.917 134.652 169.847C134.661 169.851 134.672 169.854 134.683 169.854C134.693 169.854 134.704 169.851 134.713 169.847C134.84 169.823 134.964 169.785 135.083 169.734C135.761 169.508 136.428 169.251 137.085 168.984L137.29 168.912L138.132 168.553L138.358 168.46C141.344 167.088 144.179 165.408 146.817 163.449C147.382 163.048 147.926 162.607 148.48 162.175C148.798 163.592 149.178 165.092 149.661 166.663C150.092 168.07 150.543 169.395 150.995 170.637C151.385 170.709 151.755 170.761 152.135 170.843L153.254 171.048L154.362 171.253L155.184 171.418C155.368 171.418 155.553 171.51 155.728 171.531C157.144 171.829 158.53 172.116 159.896 172.465C162.072 172.958 164.238 173.492 166.353 174.149L167.575 174.581Z" fill="black"/>
<path d="M184.555 116.866C184.39 122.186 180.992 127.578 177.184 129.56C176.673 129.829 176.132 130.036 175.572 130.176C175.531 130.18 175.49 130.18 175.449 130.176C174.776 130.339 174.077 130.36 173.395 130.237C172.653 130.091 171.952 129.783 171.342 129.334L171.055 129.128C170.634 128.788 170.249 128.406 169.905 127.988C167.164 124.682 166.045 118.479 167.852 113.529C168.594 111.608 169.723 109.861 171.168 108.394C172.391 107.087 173.967 106.163 175.705 105.734C176.505 105.57 177.329 105.57 178.128 105.734C182.604 106.607 184.688 112.41 184.555 116.866Z" fill="#E59973"/>
<path opacity="0.3" d="M184.544 116.866C184.39 122.186 180.992 127.578 177.184 129.56C176.673 129.829 176.132 130.036 175.572 130.176C175.531 130.18 175.49 130.18 175.449 130.176C174.776 130.339 174.077 130.36 173.395 130.237C172.653 130.091 171.952 129.783 171.342 129.334L171.055 129.128C170.634 128.788 170.249 128.406 169.905 127.988C167.164 124.682 166.045 118.479 167.852 113.529C168.594 111.608 169.723 109.861 171.168 108.394C172.391 107.087 173.967 106.163 175.705 105.734C176.505 105.57 177.329 105.57 178.128 105.734C182.604 106.607 184.688 112.41 184.544 116.866Z" fill="black"/>
<path d="M80.1397 128.019C79.7205 128.531 79.2375 128.986 78.7025 129.375C78.0903 129.817 77.39 130.122 76.6493 130.268C75.968 130.391 75.2688 130.37 74.5961 130.206H74.4729C73.9124 130.068 73.3711 129.861 72.8612 129.59C69.0525 127.608 65.675 122.217 65.4902 116.897C65.3568 112.44 67.4407 106.628 71.9577 105.734C74.5345 105.221 76.9881 106.463 78.9283 108.404C80.3735 109.871 81.5021 111.618 82.2442 113.539C83.9997 118.51 82.8807 124.712 80.1397 128.019Z" fill="#E59973"/>
<path d="M175.644 105.775C175.582 107.408 175.438 109.02 175.264 110.664C174.555 116.97 173.119 123.173 170.983 129.149C166.209 142.571 158.181 154.473 148.521 162.247C147.967 162.678 147.423 163.12 146.858 163.521C144.22 165.48 141.385 167.16 138.399 168.532L138.173 168.624L137.331 168.984L137.126 169.056C136.469 169.323 135.802 169.58 135.124 169.805C135.005 169.857 134.881 169.895 134.754 169.918C134.745 169.923 134.734 169.925 134.724 169.925C134.713 169.925 134.703 169.923 134.693 169.918C131.477 170.988 128.114 171.55 124.725 171.582H124.16H123.503H122.928H122.292H121.953C121.799 171.582 121.635 171.582 121.481 171.531C119.916 171.375 118.365 171.103 116.84 170.719L116.112 170.514C115.978 170.514 115.865 170.442 115.742 170.422C115.619 170.401 115.229 170.257 114.951 170.196L114.428 170.011C114.372 169.997 114.317 169.98 114.264 169.959L113.514 169.692L112.837 169.415L112.282 169.21C112.211 169.19 112.142 169.162 112.077 169.128L111.625 168.943L111.153 168.737L110.763 168.553C110.63 168.481 110.465 168.419 110.311 168.347L109.531 167.988C109.326 167.875 109.1 167.762 108.895 167.669C108.719 167.56 108.537 167.461 108.351 167.372C106.54 166.386 104.795 165.284 103.125 164.075C102.489 163.61 101.873 163.137 101.277 162.658C98.0457 160.066 95.0967 157.14 92.4794 153.929C86.2906 146.297 81.5517 137.595 78.4972 128.255C76.5943 122.558 75.3206 116.669 74.6988 110.694C74.6474 110.304 74.6064 109.893 74.5858 109.503C74.4626 108.476 74.401 107.449 74.3497 106.35C74.0993 101.108 74.4437 95.8542 75.3763 90.6895C76.2001 86.2432 77.448 81.8862 79.1028 77.6781C79.7907 75.8809 80.5606 74.0838 81.4024 72.3174C85.4784 63.4654 91.434 55.6084 98.8545 49.2933C99.1728 49.016 99.491 48.7695 99.8092 48.5231C106.911 42.7649 115.738 39.5573 124.879 39.4141C134.878 39.4141 143.747 43.2138 151.159 49.2727C155.12 52.5294 158.646 56.281 161.651 60.4357C165.221 65.3556 168.189 70.6858 170.49 76.3122C171.034 77.7294 171.589 79.0953 172.061 80.5022C172.061 80.5022 172.061 80.5741 172.061 80.5946C173.199 83.8865 174.081 87.2615 174.699 90.6895C175.57 95.6678 175.887 100.727 175.644 105.775Z" fill="#E59973"/>
<path opacity="0.2" d="M181.516 82.587C180.444 83.7177 179.273 84.7488 178.015 85.6679C177.923 85.7603 177.44 86.0787 176.835 86.51C175.808 87.1672 174.781 87.8347 173.755 88.4715C169.404 91.1097 164.803 93.3112 160.019 95.0439C149.694 98.7579 138.707 100.27 127.763 99.483C116.819 98.696 106.16 95.6272 96.4728 90.474C94.1835 89.2211 91.9558 87.8553 89.8102 86.3662C89.0813 85.863 88.3833 85.3393 87.6749 84.8463C85.7949 83.4782 83.989 82.011 82.2648 80.451C81.4435 79.7219 80.6222 78.9722 79.8523 78.202C82.6225 80.2789 85.6398 82.0036 88.835 83.3367C95.4565 86.2532 103.341 88.4715 111.009 90.5253C117.635 92.4832 124.499 93.5198 131.408 93.6062C138.37 93.6449 145.296 92.6057 151.94 90.5253C154.962 89.549 157.898 88.3227 160.717 86.8591C162.062 86.2019 163.407 85.4728 164.823 84.7231C167.503 83.2648 169.843 81.8579 172.01 80.3791C174.736 78.5538 177.355 76.5719 179.853 74.4434C180.742 77.0785 181.301 79.814 181.516 82.587Z" fill="black"/>
<path d="M197.613 52.2099C197.551 57.9505 192.162 63.1777 190.591 64.6565C186.567 68.4767 183.241 71.6192 179.966 74.392L179.873 74.4638C177.376 76.5924 174.757 78.5743 172.03 80.3996C169.843 81.8784 167.503 83.2853 164.844 84.7436C163.458 85.4932 162.113 86.2224 160.738 86.8796C157.919 88.3432 154.983 89.5695 151.96 90.5458C145.316 92.6262 138.39 93.6654 131.428 93.6267C124.52 93.5403 117.656 92.5037 111.03 90.5458C103.361 88.3995 95.477 86.2224 88.8555 83.3572C85.6604 82.0241 82.6431 80.2993 79.8728 78.2225C79.5956 77.9863 79.3287 77.7911 79.0515 77.5549C75.944 75.1484 73.7029 71.7963 72.6661 68.0043C70.2228 58.31 77.2961 48.6875 78.3843 47.2395C81.7283 42.9599 86.135 39.6316 91.1653 37.5862C100.733 33.54 105.168 36.703 125.977 37.5862C144.456 38.3872 153.695 38.798 162.452 35.3783C165.983 33.9919 172.574 30.9418 173.745 32.585C174.679 33.8995 171.969 37.8121 171.332 38.7466C168.95 42.1766 166.948 43.1112 167.226 43.8814C167.749 45.1959 173.529 44.5592 178.344 43.1522C183.477 41.6529 185.396 39.8763 186.3 40.7389C187.532 41.8994 185.694 46.9006 182.594 50.1868C180.366 52.5693 178.303 53.2677 178.487 54.0687C178.785 55.1675 182.758 55.5475 186.443 54.613C192.264 53.165 195.221 48.9031 196.863 49.9814C197.315 50.2587 197.633 50.8543 197.613 52.2099Z" fill="#70490E"/>
</svg>
