<svg width="250" height="250" viewBox="0 0 250 250" fill="none" xmlns="http://www.w3.org/2000/svg">
<path d="M250 124.995C250.044 154.408 239.674 182.887 220.729 205.384C217.744 208.932 214.566 212.313 211.209 215.512H39.3909C36.1188 212.654 33.0284 209.594 30.1379 206.35C29.8911 206.063 29.6032 205.734 29.2948 205.322C22.098 196.777 -1.1579 166.454 0.0449906 124.964C1.70025 67.5256 50.0113 4.2305e-07 125.022 4.2305e-07C141.435 -0.0013501 157.687 3.23081 172.851 9.51191C188.014 15.793 201.792 25 213.398 36.6071C225.003 48.2142 234.209 61.9941 240.489 77.1598C246.769 92.3255 250.001 108.58 250 124.995Z" fill="#84D0F7"/>
<path d="M220.74 205.394C217.74 208.929 214.558 212.306 211.209 215.512C187.994 237.681 157.12 250.035 125.022 250C84.3811 250 53.9284 228.406 39.3909 215.512C36.1258 212.646 33.0359 209.587 30.1379 206.35C29.9117 206.052 29.6135 205.733 29.2948 205.322C43.236 191.297 61.9991 180.366 83.6101 174.197C89.6554 189.25 105.889 200.037 124.992 200.037C142.737 200.037 157.994 190.731 164.934 177.364C165.479 176.336 165.962 175.307 166.383 174.197L167.566 174.536C188.693 180.788 207.045 191.564 220.74 205.394Z" fill="#AA392D"/>
<path d="M166.383 174.197C165.952 175.225 165.479 176.315 164.934 177.364C157.994 190.731 142.737 200.037 124.992 200.037C105.889 200.037 89.6554 189.251 83.61 174.197C84.0624 174.063 84.5148 173.95 84.9672 173.806C85.1933 173.806 85.399 173.693 85.6251 173.631C85.8513 173.57 86.1084 173.518 86.3345 173.446L86.5607 173.374C86.5607 173.374 88.3599 172.901 90.0666 172.51C93.2475 179.07 98.2107 184.601 104.388 188.471C110.565 192.342 117.707 194.394 124.997 194.394C132.286 194.394 139.428 192.342 145.605 188.471C151.783 184.601 156.746 179.07 159.927 172.51C162.137 172.821 164.304 173.387 166.383 174.197Z" fill="#7C211A"/>
<path d="M159.927 172.5C156.746 179.06 151.783 184.591 145.605 188.461C139.428 192.331 132.286 194.384 124.997 194.384C117.707 194.384 110.565 192.331 104.388 188.461C98.2107 184.591 93.2475 179.06 90.0666 172.5C91.4545 172.161 92.8425 171.842 94.251 171.575L95.2791 171.348C95.4539 171.348 95.6184 171.276 95.7932 171.256L96.6876 171.071L97.9111 170.865C98.2092 170.793 98.528 170.752 98.8467 170.68H98.9392C99.2785 169.796 99.6383 168.839 99.9673 167.791C100.08 167.451 100.194 167.071 100.307 166.701C100.685 165.348 100.983 163.975 101.201 162.588C103.403 164.386 105.78 165.961 108.295 167.287C108.47 167.379 108.655 167.472 108.84 167.585C109.025 167.698 109.272 167.791 109.477 167.904C109.683 168.017 109.971 168.13 110.248 168.274L110.701 168.469C110.814 168.541 110.958 168.582 111.091 168.654C111.225 168.726 111.41 168.788 111.544 168.86C111.678 168.932 111.863 168.973 111.996 169.045L112.192 169.138C112.356 169.199 112.541 169.271 112.747 169.333C112.952 169.395 113.179 169.518 113.425 169.611L114.176 169.888H114.34C114.495 169.96 114.68 170.001 114.865 170.073C115.05 170.145 115.389 170.228 115.636 170.3C115.883 170.372 115.883 170.361 116.026 170.392L116.726 170.598C118.262 170.968 119.822 171.239 121.393 171.41C121.547 171.41 121.712 171.41 121.866 171.462H122.205H122.843H123.408C123.62 171.446 123.834 171.446 124.046 171.462H124.621C128.017 171.451 131.389 170.888 134.604 169.796C134.614 169.8 134.625 169.803 134.635 169.803C134.646 169.803 134.657 169.8 134.666 169.796C134.792 169.768 134.916 169.73 135.036 169.683C135.848 169.405 136.558 169.117 137.216 168.86L138.079 168.5C138.151 168.5 138.213 168.428 138.306 168.408C141.98 166.843 145.395 164.728 148.433 162.135C148.751 163.544 149.132 165.045 149.615 166.608C150.047 168.017 150.499 169.343 150.951 170.588C151.342 170.659 151.702 170.701 152.093 170.793C152.483 170.886 152.843 170.937 153.203 170.999L154.324 171.204L155.136 171.369C155.321 171.369 155.506 171.431 155.681 171.482C157.172 171.863 158.559 172.14 159.927 172.5Z" fill="#E59973"/>
<path d="M195.952 77.541C195.962 78.3807 195.84 79.2168 195.592 80.0191C193.947 85.7979 188.313 86.384 187.264 91.4327C187.059 92.3684 187.357 91.8954 187.264 94.754C187.192 96.8105 187.038 101.51 185.691 104.584C184.924 106.21 183.77 107.622 182.329 108.697C181.858 107.928 181.239 107.259 180.509 106.73C179.779 106.201 178.951 105.821 178.073 105.612C177.272 105.452 176.448 105.452 175.647 105.612C176.085 97.0513 174.863 88.4863 172.048 80.3892C171.575 78.9497 171.02 77.5204 170.455 76.1117C168.137 70.5153 165.159 65.2164 161.582 60.328C152.73 48.246 140.084 39.259 124.807 39.3104C115.668 39.4484 106.84 42.6532 99.7411 48.4105C91.948 54.4978 85.6766 63.0734 81.3276 72.194C78.5258 78.0332 76.5003 84.2142 75.3029 90.5793C74.4049 95.568 74.0601 100.641 74.2748 105.705C73.4784 105.535 72.6551 105.535 71.8587 105.705C70.8409 105.956 69.8903 106.427 69.0734 107.084C68.2565 107.741 67.593 108.569 67.1294 109.509C65.6942 108.544 64.5213 107.236 63.7161 105.705C61.372 100.769 64.8573 98.0238 62.4206 92.9237C60.2616 88.3994 56.1697 87.9675 55.0079 82.7337C54.7458 81.4554 54.6834 80.1442 54.8229 78.8469C55.3678 74.0038 58.3082 73.7056 59.2849 69.8599C60.6523 64.4307 55.6865 61.2637 57.8969 54.58C58.0216 54.0873 58.2118 53.6135 58.4624 53.1713C61.2897 48.2562 68.0239 47.9794 71.8587 44C75.4263 40.3394 72.599 38.313 77.6984 33.3157C78.3167 32.6457 79.0474 32.0889 79.8574 31.6705C85.584 28.8942 88.9314 31.8967 94 29.9327C98.0508 28.3595 98.713 27.4958 104.491 24.1848C106.546 22.9781 108.906 22.3924 111.287 22.4984C117.836 22.8583 120.53 23.064 124.807 22.4984C128.919 21.9329 127.593 22.0871 133.145 20.3082C134.678 19.8373 136.294 19.6919 137.887 19.8814C139.481 20.0708 141.017 20.591 142.398 21.4085C147.538 24.5652 146.929 28.4109 151 29.9327C154.269 31.1872 155.156 29.5728 161.479 29.9327C163.536 30.0458 166.414 30.2309 168.892 31.9892C174.598 36.02 171.031 43.3617 176.192 47.0737C179.811 49.6855 183.491 47.4542 188.704 51.5261C189.83 52.2646 190.779 53.2445 191.48 54.3949C194.071 59.0118 188.951 62.621 190.637 67.9062C191.994 72.0192 195.952 72.9035 195.952 77.541Z" fill="#2D2D2D"/>
<path opacity="0.2" d="M167.566 174.526C166.702 175.554 165.839 176.438 164.934 177.354C162.925 179.37 160.774 181.239 158.498 182.947C155.493 185.184 152.223 187.039 148.762 188.469C146.574 189.369 144.305 190.058 141.986 190.526C139.953 190.908 137.886 191.084 135.818 191.05C131.721 190.981 127.672 190.148 123.881 188.592C123.655 188.5 123.429 188.407 123.203 188.294C120.188 187.013 117.332 185.388 114.69 183.451C109.717 179.746 105.339 175.304 101.705 170.279C101.119 169.487 100.543 168.665 99.9776 167.842C100.091 167.503 100.204 167.122 100.317 166.752C100.695 165.4 100.994 164.026 101.211 162.639C101.818 163.112 102.435 163.585 103.072 164.048C104.741 165.26 106.49 166.359 108.305 167.338C108.48 167.431 108.665 167.523 108.85 167.637C109.035 167.75 109.282 167.842 109.488 167.955C109.693 168.068 109.981 168.181 110.259 168.325L110.711 168.521C110.838 168.589 110.968 168.651 111.102 168.706C111.256 168.778 111.42 168.84 111.554 168.912C111.688 168.984 111.873 169.025 112.007 169.097L112.202 169.189L112.757 169.385L113.436 169.662L114.186 169.94H114.351C114.505 170.012 114.69 170.053 114.875 170.125C115.06 170.197 115.399 170.279 115.646 170.351C115.893 170.423 115.893 170.413 116.037 170.444L116.736 170.649C118.27 171.031 119.83 171.303 121.403 171.462C121.558 171.462 121.722 171.462 121.876 171.513H122.216H122.853H123.419C123.631 171.498 123.844 171.498 124.056 171.513H124.632C128.025 171.476 131.393 170.914 134.615 169.847C134.624 169.852 134.635 169.854 134.646 169.854C134.656 169.854 134.667 169.852 134.676 169.847C134.802 169.819 134.926 169.781 135.047 169.734C135.725 169.508 136.383 169.251 137.041 168.984C137.106 168.97 137.169 168.945 137.226 168.912C137.524 168.798 137.792 168.665 138.09 168.552C138.162 168.552 138.223 168.48 138.316 168.459C141.306 167.095 144.143 165.417 146.777 163.452C147.343 163.05 147.898 162.619 148.443 162.187C148.762 163.595 149.142 165.097 149.625 166.66C150.057 168.068 150.509 169.395 150.962 170.639C151.352 170.711 151.712 170.752 152.103 170.845C152.494 170.937 152.853 170.989 153.213 171.05L154.334 171.256L155.146 171.421C155.331 171.421 155.516 171.482 155.691 171.534C157.1 171.822 158.488 172.12 159.804 172.459C161.983 172.963 164.152 173.487 166.26 174.145L167.566 174.526Z" fill="black"/>
<path d="M184.54 116.841C184.386 122.167 180.983 127.555 177.179 129.54C176.667 129.809 176.125 130.017 175.564 130.157H175.441C174.766 130.31 174.068 130.331 173.385 130.218C172.641 130.072 171.939 129.763 171.329 129.313C171.226 129.251 171.13 129.178 171.041 129.098C170.615 128.766 170.228 128.386 169.889 127.966C167.144 124.655 166.024 118.455 167.833 113.509C168.575 111.586 169.706 109.836 171.154 108.368C172.369 107.052 173.947 106.125 175.688 105.705C176.488 105.54 177.314 105.54 178.114 105.705C182.597 106.589 184.684 112.388 184.54 116.841Z" fill="#E59973"/>
<path opacity="0.3" d="M184.54 116.851C184.375 122.167 180.983 127.555 177.168 129.54C176.659 129.799 176.125 130.005 175.575 130.157C175.531 130.166 175.485 130.166 175.441 130.157C174.769 130.33 174.066 130.351 173.385 130.218C172.643 130.078 171.941 129.776 171.329 129.334C171.236 129.272 171.144 129.18 171.031 129.108C170.608 128.772 170.225 128.389 169.889 127.967C167.319 124.882 166.188 119.257 167.545 114.507C167.638 114.167 167.751 113.849 167.864 113.478C168.611 111.557 169.741 109.808 171.185 108.337C172.405 107.029 173.981 106.107 175.719 105.684C176.52 105.524 177.344 105.524 178.145 105.684C179.023 105.893 179.851 106.272 180.581 106.802C181.311 107.331 181.93 108 182.401 108.769C183.904 111.189 184.649 114.004 184.54 116.851Z" fill="black"/>
<path d="M80.1247 127.987C79.7526 128.456 79.3244 128.877 78.8499 129.241C78.8499 129.293 78.7368 129.313 78.6956 129.355C78.0811 129.792 77.38 130.094 76.6394 130.239C75.9571 130.36 75.2571 130.339 74.5832 130.177C74.5425 130.185 74.5005 130.185 74.4598 130.177C73.9026 130.026 73.3618 129.819 72.8457 129.56C69.052 127.576 65.6489 122.188 65.4844 116.872C65.4048 114.303 66.0079 111.759 67.2322 109.499C67.6958 108.559 68.3593 107.731 69.1762 107.074C69.9931 106.416 70.9437 105.946 71.9615 105.694C72.7579 105.524 73.5812 105.524 74.3776 105.694C76.0968 106.128 77.6471 107.067 78.8293 108.388C80.2817 109.853 81.4127 111.604 82.1501 113.53C82.338 114.025 82.4892 114.534 82.6025 115.052C83.7437 119.699 82.5819 125.036 80.1247 127.987Z" fill="#E59973"/>
<path d="M175.647 105.705C175.558 107.953 175.352 110.205 175.03 112.46C174.258 118.147 172.879 123.735 170.917 129.128C166.137 142.547 158.138 154.444 148.474 162.228C147.929 162.66 147.374 163.092 146.808 163.493C144.174 165.458 141.337 167.137 138.347 168.5C138.254 168.5 138.193 168.572 138.121 168.593C137.822 168.706 137.555 168.84 137.257 168.953C137.199 168.986 137.137 169.011 137.072 169.025C136.414 169.292 135.756 169.549 135.077 169.775C134.957 169.822 134.833 169.86 134.707 169.889C134.698 169.893 134.687 169.895 134.676 169.895C134.666 169.895 134.655 169.893 134.646 169.889C131.424 170.955 128.056 171.517 124.663 171.554H124.087C123.875 171.539 123.662 171.539 123.449 171.554H122.884H122.247H121.907C121.753 171.554 121.589 171.554 121.434 171.503C119.861 171.344 118.301 171.073 116.767 170.691L116.068 170.485C115.924 170.485 115.811 170.413 115.677 170.392C115.543 170.372 115.153 170.228 114.906 170.166C114.659 170.104 114.536 170.053 114.381 169.981H114.217L113.466 169.703L112.788 169.426L112.233 169.056L112.037 168.963C111.904 168.891 111.749 168.85 111.585 168.778C111.42 168.706 111.287 168.644 111.133 168.572C110.999 168.517 110.869 168.456 110.742 168.387L110.29 168.192C110.012 168.048 109.765 167.935 109.518 167.822C109.272 167.709 109.087 167.596 108.881 167.503C108.675 167.41 108.511 167.297 108.336 167.205C106.52 166.226 104.772 165.127 103.103 163.914C102.466 163.452 101.849 162.979 101.242 162.506C98.0229 159.902 95.0807 156.973 92.4621 153.765C86.4991 146.458 81.8988 138.137 78.8807 129.2C78.7265 128.841 78.6134 128.45 78.4695 128.059C76.824 123.183 75.6533 118.158 74.9739 113.057C74.7888 111.823 74.6551 110.599 74.5421 109.345C74.4495 108.317 74.3776 107.288 74.3364 106.188C74.3364 106.003 74.3364 105.838 74.3364 105.664C74.1217 100.599 74.4665 95.5267 75.3645 90.538C76.5458 84.1899 78.5504 78.0231 81.3276 72.1939C85.6765 63.0733 91.948 54.4976 99.772 48.4104C106.871 42.6531 115.699 39.4483 124.837 39.3103C140.115 39.3103 152.761 48.2459 161.613 60.3279C165.185 65.2468 168.154 70.5771 170.455 76.2041C171.03 77.6128 171.575 79.0421 172.048 80.4817C174.863 88.5787 176.085 97.1437 175.647 105.705Z" fill="#E59973"/>
<path opacity="0.2" d="M175.482 91.6045C172.801 91.4556 170.15 90.9579 167.597 90.1238L167.185 89.9696C159.043 87.1625 159.269 82.1651 152.586 80.4377C145.03 78.5045 142.212 84.2319 133.936 82.0726C127.634 80.4377 127.767 76.7462 122.719 76.3658C115.153 75.7899 112.15 84.3245 105.776 83.0289C101.664 82.1857 101.252 78.2475 96.225 77.137C92.9714 76.6027 89.6334 77.2209 86.7869 78.885C89.2132 76.5406 89.8712 73.7437 93.336 72.88C98.1064 71.6769 99.6794 76.5714 105.817 76.4994C113.775 76.4069 115.646 69.3017 122.761 69.8363C127.901 70.2271 127.675 73.9494 133.977 75.5432C142.202 77.7025 145.071 71.9546 152.627 73.9082C159.31 75.6357 159.084 80.6433 167.226 83.4402C169.618 84.2896 172.11 84.8253 174.639 85.034C174.639 85.034 174.773 86.1239 175.071 88.2627C175.441 91.3989 175.482 91.6045 175.482 91.6045Z" fill="black"/>
<path d="M181.116 88.4404C180.241 89.1968 179.174 89.6952 178.032 89.88L177.672 89.9519C176.651 90.098 175.617 90.1359 174.588 90.0651C172.058 89.8564 169.567 89.3207 167.175 88.4713C159.032 85.6744 159.259 80.6668 152.576 78.9393C145.019 76.9856 143.276 80.0704 135 77.9111C128.698 76.2761 127.757 75.2582 122.709 74.8674C115.595 74.3225 112.958 78.8468 105 78.9393C98.8313 79.0113 98.055 76.708 93.2846 77.9111C89.8301 78.7748 89.1721 81.5717 86.7355 83.9161C85.8911 84.7638 84.9068 85.4595 83.826 85.9726C81.3736 87.0722 78.6765 87.5117 76.002 87.2476C73.113 86.9803 70.4502 85.8903 69.1034 84.0395C65.3199 78.7748 72.2802 68.2866 75.2206 63.7623C90.7966 40.1946 117.877 35.3001 121.403 34.7346C122.319 34.5803 123.521 34.3953 125.156 34.2102C133.381 33.3259 151.383 32.9866 165.869 45.521C181.414 58.8678 187.377 82.7953 181.116 88.4404Z" fill="#2D2D2D"/>
</svg>
