<svg width="250" height="250" viewBox="0 0 250 250" fill="none" xmlns="http://www.w3.org/2000/svg">
<path d="M250 125C250.009 141.933 246.575 158.69 239.905 174.254C233.235 189.818 223.47 203.863 211.203 215.535H39.3883C36.1223 212.666 33.0303 209.605 30.1288 206.368L29.2852 205.339C22.0834 196.79 -1.1682 166.461 0.0458198 124.979C1.67137 67.5309 49.9852 0 125.007 0C141.423 -5.56062e-08 157.677 3.2333 172.842 9.51526C188.008 15.7972 201.787 25.0048 213.394 36.6123C225.001 48.2197 234.208 61.9997 240.488 77.1654C246.769 92.331 250.001 108.585 250 125Z" fill="#84D0F7"/>
<path d="M147.868 167.362C167.432 167.634 186.401 161.394 190 142.5C192.937 127.079 204.234 116.869 207.256 103.981C209.631 93.8534 203.851 83.9554 201.249 73.8834C198.009 61.3389 196.6 49.023 188 41.4999C172.444 27.9196 150.5 20 140.5 20.9999C130.5 21.9999 112 24.9998 106 24.9998C100 24.9998 77.4858 27.9196 61.9299 41.4999C49.8926 51.9937 45.2191 64 40.5 82.9999C30.7056 122.434 55.5 129.5 58 137C60.5 144.5 58 149.5 64.646 156.214C70.3919 162.018 88.5266 166.845 102.083 167.261C103.872 167.316 104.449 164.982 103.001 163.93C102.394 163.488 101.766 163.014 101.159 162.531C97.938 159.933 94.9936 157.009 92.373 153.807C86.1763 146.16 81.4339 137.443 78.3809 128.086C76.3469 122.016 75.0313 115.728 74.4611 109.352C74.3582 108.251 74.2965 107.222 74.245 106.193C74.0643 102.469 74.1778 98.7369 74.5845 95.0308C74.7491 93.5184 74.9652 92.0267 75.2327 90.5349C75.4561 89.2923 74.3015 88.2198 73.0744 88.5167C69.9567 89.2709 67.9561 89.2353 66.9815 87.7571C61.9505 80.072 88.7721 38.1687 124.915 38.2098C161.768 38.2098 187.818 80.2057 182.776 87.7983C182.571 88.1208 182.288 88.3863 181.953 88.5699C180.857 89.2246 179.163 89.1413 176.843 88.6118C175.63 88.3349 174.488 89.393 174.71 90.6172C174.967 92.0678 175.183 93.5287 175.348 94.9896C175.482 96.1728 175.585 97.3559 175.636 98.539C175.76 100.938 175.76 103.342 175.636 105.741C175.574 106.162 175.574 106.584 175.574 106.996V106.996C175.072 114.555 173.517 122.006 170.955 129.136C166.191 142.562 158.167 154.465 148.506 162.222C147.961 162.665 147.405 163.086 146.839 163.508C145.264 164.672 145.909 167.335 147.868 167.362Z" fill="#2D2D2D"/>
<path d="M220.719 205.381C217.744 208.944 214.566 212.335 211.203 215.535C187.962 237.664 157.099 250.005 125.007 250C98.3916 250 76.1586 240.741 59.8928 230.741C52.6066 226.278 45.7219 221.19 39.3162 215.535C36.042 212.668 32.9495 209.6 30.0568 206.348C29.8098 206.08 29.5218 205.741 29.2028 205.319C36.8875 197.636 45.6236 191.082 55.1499 185.854C64.139 180.887 73.6659 176.962 83.5456 174.156C97.2633 186.31 110.981 198.453 124.699 210.587C138.554 198.433 152.422 186.29 166.305 174.156C166.593 174.249 166.891 174.311 167.179 174.403C167.271 174.445 167.368 174.476 167.467 174.496C176.902 177.28 186.008 181.074 194.628 185.813C204.203 191.075 212.987 197.663 220.719 205.381Z" fill="#AA392D"/>
<path d="M166.387 174.197C152.532 186.351 138.663 198.494 124.781 210.627C111.063 198.474 97.3457 186.33 83.6279 174.197L85.2843 173.724L86.3132 173.436C86.3132 173.436 86.3852 173.436 86.4263 173.436C87.4552 173.169 88.6795 172.86 90.0478 172.541C101.612 182.459 113.186 192.404 124.771 202.376C136.493 192.431 148.214 182.486 159.936 172.541C162.992 173.23 165.399 173.868 166.387 174.197Z" fill="#7C211A"/>
<path d="M159.926 172.51C148.204 182.428 136.482 192.373 124.761 202.346C113.196 192.4 101.622 182.455 90.0375 172.51C91.5293 172.15 93.124 171.811 94.657 171.481C96.1899 171.152 97.5377 170.926 98.9266 170.7C99.6206 168.973 100.191 167.199 100.634 165.391C100.861 164.362 101.046 163.457 101.2 162.551C103.929 164.868 106.974 166.784 110.244 168.241C110.758 168.467 111.345 168.745 112.044 169.033C116.023 170.719 120.3 171.588 124.622 171.588C128.943 171.588 133.22 170.719 137.199 169.033C138.125 168.652 138.907 168.292 139.565 168.004C142.782 166.504 145.784 164.584 148.496 162.294C148.794 163.621 149.144 165.01 149.596 166.471C150.049 167.932 150.522 169.424 151.037 170.751C151.067 170.742 151.099 170.742 151.129 170.751C152.436 170.977 153.65 171.204 154.73 171.43C156.551 171.718 158.259 172.109 159.926 172.51Z" fill="#843F2C"/>
<path opacity="0.2" d="M167.55 174.537C166.696 175.504 165.821 176.45 164.926 177.345C162.922 179.372 160.769 181.246 158.486 182.952C155.484 185.195 152.21 187.048 148.743 188.467C146.559 189.358 144.291 190.027 141.973 190.463C139.939 190.853 137.871 191.036 135.8 191.008C131.712 190.931 127.675 190.09 123.896 188.529L123.228 188.261C120.214 186.972 117.359 185.339 114.719 183.395C109.748 179.687 105.364 175.251 101.715 170.236C101.128 169.455 100.562 168.642 100.007 167.808C100.12 167.448 100.233 167.088 100.316 166.708C100.704 165.355 101.013 163.981 101.241 162.592C101.849 163.086 102.476 163.559 103.083 164.012C104.69 165.181 106.375 166.239 108.124 167.181C108.186 167.23 108.255 167.269 108.33 167.294L108.865 167.592L109.524 167.922L110.285 168.282L110.738 168.487L111.118 168.673L111.592 168.868L112.044 169.053L112.271 169.146C112.445 169.228 112.631 169.3 112.806 169.362C112.98 169.424 113.279 169.527 113.505 169.609L114.246 169.856L114.431 169.918L114.946 170.082L115.738 170.329C115.86 170.347 115.98 170.374 116.098 170.411L116.818 170.617C118.345 171.007 119.9 171.279 121.468 171.43C121.633 171.44 121.798 171.44 121.962 171.43C122.068 171.44 122.175 171.44 122.281 171.43C122.496 171.462 122.712 171.479 122.929 171.481H123.495H124.709C128.105 171.461 131.476 170.905 134.699 169.835C134.829 169.798 134.956 169.754 135.08 169.701C135.748 169.496 136.407 169.228 137.076 168.981L137.261 168.889L138.115 168.529L138.341 168.446C139.37 167.994 140.316 167.52 141.284 166.985C143.205 165.93 145.054 164.748 146.819 163.446L148.465 162.191C148.784 163.58 149.164 165.072 149.638 166.646C150.059 168.066 150.533 169.393 151.006 170.627L152.138 170.833L153.259 171.029L154.36 171.234L155.193 171.409L155.728 171.522C157.128 171.821 158.527 172.109 159.895 172.448C162.076 172.963 164.216 173.477 166.356 174.136L167.55 174.537Z" fill="black"/>
<path d="M184.536 116.852C184.371 122.171 180.976 127.562 177.169 129.547C176.655 129.813 176.114 130.02 175.554 130.165H175.441C174.767 130.327 174.067 130.352 173.383 130.237C172.64 130.086 171.938 129.777 171.325 129.331L171.037 129.115C170.613 128.781 170.227 128.401 169.885 127.984C167.148 124.671 166.027 118.467 167.827 113.519C168.567 111.594 169.694 109.843 171.14 108.374C172.364 107.07 173.94 106.148 175.677 105.72C176.478 105.556 177.304 105.556 178.105 105.72C182.591 106.595 184.669 112.397 184.536 116.852Z" fill="#843F2C"/>
<path opacity="0.2" d="M184.546 116.842C184.361 122.181 180.965 127.551 177.159 129.558C176.649 129.814 176.115 130.017 175.564 130.165H175.43C174.714 130.344 173.967 130.362 173.243 130.218C172.519 130.074 171.836 129.771 171.243 129.331C171.15 129.27 171.068 129.198 170.955 129.105C170.529 128.777 170.142 128.401 169.803 127.984C167.056 124.681 165.934 118.467 167.745 113.518C168.487 111.596 169.614 109.845 171.058 108.374C171.977 107.423 173.07 106.658 174.278 106.121C174.707 105.946 175.151 105.812 175.605 105.72C176.405 105.545 177.233 105.545 178.033 105.72C178.155 105.738 178.276 105.765 178.393 105.802C182.694 106.903 184.68 112.521 184.546 116.842Z" fill="black"/>
<path d="M80.0991 128.004C79.6815 128.516 79.197 128.969 78.6587 129.352C78.0465 129.799 77.3444 130.108 76.6011 130.257C75.9176 130.37 75.2189 130.349 74.5434 130.196H74.42C73.859 130.05 73.317 129.839 72.8047 129.568C69.0083 127.593 65.6029 122.202 65.4383 116.883C65.3045 112.428 67.3931 106.595 71.9096 105.72C74.4817 105.206 76.9406 106.451 78.8748 108.395C80.3274 109.859 81.4561 111.611 82.1876 113.539C83.9675 118.488 82.8461 124.692 80.0991 128.004Z" fill="#843F2C"/>
<path d="M175.912 105.759C175.912 106.163 175.912 106.598 175.839 107.022C175.35 114.639 173.774 122.149 171.159 129.327C169.652 133.508 167.825 137.568 165.695 141.473C161.375 149.588 155.49 156.783 148.373 162.649L146.701 163.913C144.909 165.223 143.032 166.413 141.08 167.475C140.098 168.013 139.095 168.51 138.092 168.945L137.862 169.028L136.995 169.391L136.807 169.484C136.128 169.732 135.459 170.001 134.78 170.209C134.654 170.261 134.525 170.306 134.394 170.343C131.121 171.42 127.698 171.979 124.249 172H123.016H122.442C122.222 171.998 122.002 171.98 121.784 171.948C121.676 171.958 121.567 171.958 121.46 171.948C121.293 171.959 121.125 171.959 120.958 171.948C119.365 171.797 117.786 171.523 116.236 171.13L115.505 170.923C115.385 170.886 115.263 170.858 115.139 170.84L114.335 170.592L113.812 170.426L113.624 170.364L112.872 170.115C112.642 170.033 112.391 169.96 112.161 169.867C111.932 169.774 111.796 169.732 111.618 169.649L111.388 169.556L110.929 169.37L110.448 169.173L110.062 168.987L109.602 168.78L108.829 168.417L108.16 168.086L107.617 167.786C107.541 167.76 107.47 167.721 107.408 167.672C105.631 166.724 103.921 165.658 102.289 164.482C101.672 164.027 101.035 163.55 100.418 163.053C98.7921 161.771 97.2498 160.388 95.8007 158.911C94.2772 157.438 92.8367 155.882 91.4859 154.252C85.1918 146.56 80.3822 137.784 77.2982 128.364C75.2239 122.259 73.8809 115.934 73.2968 109.518C73.2027 108.482 73.14 107.447 73.0878 106.329C72.8992 102.58 73.0145 98.8233 73.4326 95.0935C73.5893 93.5816 73.8191 92.0802 74.1012 90.589C74.2579 89.6571 74.4669 88.7355 74.6654 87.7828C74.6654 87.7828 74.6654 87.6689 74.6654 87.6275C74.8639 86.7888 75.0937 85.9293 75.3236 85.0905C76.5351 80.6176 78.1578 76.2641 80.1712 72.0847C83.9594 64.0338 89.2806 56.7837 95.8425 50.7327C96.8872 49.8318 97.932 48.962 98.9767 48.1543C106.29 42.5522 114.784 39.0212 124.427 39.0005C137.11 38.9383 148.007 44.9753 156.469 53.8392C158.341 55.8095 160.086 57.895 161.693 60.0832C165.343 65.0276 168.368 70.3971 170.699 76.0714C171.284 77.49 171.817 78.919 172.318 80.3687C173.143 82.8062 173.841 85.2843 174.408 87.7932C174.617 88.7044 174.794 89.6053 174.961 90.5373C175.212 91.987 175.442 93.4574 175.599 94.9278C175.735 96.129 175.829 97.3094 175.891 98.5106C176.029 100.925 176.036 103.344 175.912 105.759Z" fill="#843F2C"/>
<path opacity="0.2" d="M175.605 98.508C167.148 95.4216 151.243 86.1623 125.542 83.4772C103.042 81.1829 86.8688 85.3907 77.2698 87.3661C86.6733 84.4442 102.332 78.5903 124.925 78.5903C148.866 78.5903 164.998 85.1438 174.196 87.8496C174.402 88.7549 174.576 89.65 174.741 90.5759C174.988 92.0163 175.214 93.4772 175.369 94.9381C175.451 96.1418 175.544 97.3146 175.605 98.508Z" fill="#020202"/>
<path d="M184.359 90.5639C184.153 90.9409 183.866 91.2531 183.525 91.4717C182.004 92.487 179.301 91.9376 175.531 90.6833C166.09 87.5298 149.532 79.9327 124.958 79.9327C101.726 79.9327 85.6952 86.7295 76.0432 90.1219C75.5574 90.3011 75.1244 90.4325 74.6809 90.5878C69.876 92.2123 66.898 92.7021 65.6308 90.5878C60.4351 81.6767 87.9657 33 125.011 33C162.785 32.9761 189.534 81.7603 184.359 90.5639Z" fill="#2D2D2D"/>
</svg>
