<svg width="250" height="250" viewBox="0 0 250 250" fill="none" xmlns="http://www.w3.org/2000/svg">
<path d="M250 125.021C250.007 141.951 246.571 158.706 239.902 174.267C233.233 189.828 223.469 203.871 211.205 215.541H39.3635C36.1011 212.678 33.0172 209.617 30.1291 206.377L29.2878 205.351C22.1055 196.802 -1.16519 166.479 0.0455407 124.99C1.69747 67.5334 49.9933 0 125.007 0C141.423 -5.53144e-08 157.677 3.23383 172.842 9.51682C188.008 15.7998 201.787 25.0089 213.394 36.6183C225.001 48.2276 234.208 62.0099 240.488 77.178C246.769 92.3461 250.001 108.603 250 125.021Z" fill="#84D0F7"/>
<path d="M124.792 58.7802C137.434 58.7802 147.683 48.5301 147.683 35.886C147.683 23.2418 137.434 12.9917 124.792 12.9917C112.15 12.9917 101.901 23.2418 101.901 35.886C101.901 48.5301 112.15 58.7802 124.792 58.7802Z" fill="#2D2D2D"/>
<path opacity="0.2" d="M124.792 58.7802C137.434 58.7802 147.683 48.5301 147.683 35.886C147.683 23.2418 137.434 12.9917 124.792 12.9917C112.15 12.9917 101.901 23.2418 101.901 35.886C101.901 48.5301 112.15 58.7802 124.792 58.7802Z" fill="#050505"/>
<path d="M220.717 205.371C217.742 208.932 214.566 212.321 211.205 215.52C187.969 237.656 157.108 250.002 125.018 250C98.4021 250 76.178 240.764 59.9049 230.738C52.6344 226.273 45.768 221.181 39.384 215.52C36.1146 212.661 33.0303 209.597 30.1496 206.346C29.9034 206.069 29.6058 205.74 29.298 205.32C36.9772 197.625 45.7106 191.06 55.2364 185.822C64.2227 180.849 73.7481 176.921 83.627 174.113C97.376 186.263 111.108 198.407 124.823 210.543C138.708 198.393 152.577 186.25 166.429 174.113C166.716 174.206 167.014 174.277 167.301 174.36C167.394 174.407 167.495 174.438 167.598 174.452C177.035 177.235 186.147 181.019 194.778 185.74C204.299 191.04 213.03 197.648 220.717 205.371Z" fill="#AA392D"/>
<path d="M166.388 174.216C152.529 186.366 138.674 198.509 124.823 210.645C111.108 198.495 97.376 186.352 83.627 174.216C85.6888 173.397 87.8421 172.832 90.0398 172.533C101.614 182.453 113.187 192.372 124.761 202.292C136.479 192.352 148.199 182.432 159.924 172.533C162.135 172.846 164.304 173.411 166.388 174.216Z" fill="#7C211A"/>
<path d="M159.924 172.533C148.206 182.453 136.485 192.373 124.761 202.293C113.174 192.373 101.6 182.453 90.0398 172.533C91.5276 172.174 93.118 171.836 94.657 171.507C96.1961 171.179 97.5402 170.943 98.9356 170.717C99.6291 168.991 100.198 167.218 100.639 165.412C100.865 164.385 101.049 163.472 101.203 162.569C102.618 163.724 104.105 164.786 105.656 165.75C107.142 166.671 108.676 167.51 110.253 168.264C114.625 170.252 119.337 171.384 124.135 171.6C129.462 171.479 134.705 170.245 139.526 167.977C141.26 167.103 142.949 166.141 144.584 165.094C146.164 164.067 147.467 163.041 148.452 162.261C148.75 163.585 149.109 164.981 149.561 166.448C150.012 167.916 150.484 169.393 150.997 170.717C152.218 170.922 153.449 171.148 154.732 171.415C156.531 171.75 158.261 172.123 159.924 172.533Z" fill="#EAB198"/>
<path opacity="0.2" d="M167.557 174.585C166.696 175.55 165.823 176.504 164.92 177.397C162.92 179.424 160.77 181.297 158.487 183C155.491 185.246 152.218 187.098 148.75 188.511C146.563 189.419 144.291 190.106 141.968 190.563C139.923 190.957 137.842 191.135 135.76 191.097C131.673 191.022 127.637 190.183 123.858 188.624L123.181 188.357C120.174 187.063 117.323 185.431 114.685 183.493C109.711 179.784 105.325 175.345 101.675 170.327C101.09 169.547 100.526 168.736 99.9719 167.895C100.075 167.535 100.187 167.176 100.28 166.796C100.669 165.427 100.977 164.036 101.203 162.63C101.809 163.133 102.424 163.605 103.05 164.057C104.718 165.274 106.47 166.371 108.293 167.34C108.468 167.422 108.652 167.535 108.827 167.628L109.483 167.966L110.253 168.326L110.694 168.531L111.084 168.705L111.556 168.91L112.007 169.095C112.078 169.133 112.154 169.161 112.233 169.177C112.405 169.265 112.584 169.341 112.767 169.403L113.464 169.66L114.213 169.906L114.367 169.967L114.911 170.132C115.157 170.224 115.424 170.306 115.691 170.378C115.817 170.398 115.94 170.429 116.06 170.47L116.779 170.665C118.307 171.06 119.865 171.331 121.437 171.476C121.599 171.51 121.764 171.527 121.929 171.527C122.035 171.537 122.142 171.537 122.247 171.527C122.473 171.527 122.668 171.527 122.894 171.527C123.119 171.527 123.253 171.527 123.458 171.579H124.669C128.059 171.56 131.425 171.006 134.642 169.937C134.662 169.941 134.683 169.941 134.704 169.937C134.836 169.902 134.967 169.857 135.093 169.803C135.76 169.608 136.417 169.331 137.094 169.085L137.269 168.993C137.566 168.88 137.833 168.746 138.13 168.633L138.356 168.541C141.348 167.192 144.183 165.519 146.811 163.554L148.473 162.271C148.791 163.667 149.171 165.175 149.643 166.745C150.074 168.161 150.546 169.495 151.018 170.727L152.146 170.932L153.265 171.137L154.373 171.332C154.64 171.404 154.917 171.445 155.204 171.517C155.387 171.545 155.569 171.582 155.748 171.63C157.143 171.917 158.538 172.215 159.903 172.553C162.089 173.067 164.223 173.631 166.367 174.236L167.557 174.585Z" fill="black"/>
<path d="M184.538 116.863C184.374 122.189 180.978 127.576 177.171 129.557C176.661 129.827 176.12 130.037 175.561 130.183H175.437C174.748 130.351 174.032 130.372 173.334 130.244C172.594 130.096 171.895 129.791 171.282 129.351L170.995 129.136C170.574 128.796 170.189 128.414 169.845 127.997C167.106 124.693 165.988 118.484 167.793 113.538C168.535 111.619 169.663 109.872 171.108 108.407C172.327 107.097 173.904 106.173 175.643 105.749C176.445 105.585 177.272 105.585 178.074 105.749C182.589 106.611 184.672 112.409 184.538 116.863Z" fill="#EAB198"/>
<path opacity="0.3" d="M184.538 116.862C184.364 122.188 180.968 127.576 177.161 129.577C176.65 129.833 176.113 130.036 175.561 130.182H175.427C174.754 130.334 174.058 130.359 173.375 130.254C172.635 130.1 171.936 129.793 171.323 129.351L171.036 129.125C170.613 128.792 170.228 128.413 169.887 127.997C167.137 124.692 166.018 118.484 167.834 113.527C168.57 111.607 169.695 109.86 171.138 108.396C172.057 107.447 173.151 106.684 174.36 106.149C174.786 105.966 175.229 105.829 175.684 105.739C176.486 105.574 177.313 105.574 178.115 105.739C178.237 105.76 178.357 105.791 178.474 105.831C182.692 106.919 184.672 112.542 184.538 116.862Z" fill="black"/>
<path d="M80.1077 128.017C79.6888 128.528 79.206 128.983 78.6712 129.371C78.0566 129.81 77.358 130.118 76.6192 130.274C75.9371 130.387 75.2396 130.362 74.5671 130.202H74.4439C73.8845 130.057 73.344 129.847 72.8331 129.576C69.0264 127.596 65.6508 122.208 65.4661 116.883C65.3327 112.429 67.4155 106.621 71.9404 105.718C74.5158 105.204 76.968 106.446 78.9072 108.396C80.3516 109.861 81.4796 111.608 82.2214 113.527C83.9759 118.504 82.8472 124.712 80.1077 128.017Z" fill="#EAB198"/>
<path d="M175.632 105.718C175.632 106.128 175.632 106.549 175.561 106.98C175.071 114.548 173.52 122.009 170.954 129.145C166.183 142.578 158.149 154.482 148.494 162.25L146.831 163.533C144.203 165.499 141.368 167.171 138.377 168.52L138.151 168.613C137.853 168.726 137.587 168.859 137.289 168.972L137.115 169.064C136.438 169.31 135.781 169.588 135.114 169.783C134.987 169.836 134.857 169.881 134.724 169.916C134.704 169.92 134.683 169.92 134.662 169.916C131.445 170.985 128.079 171.539 124.689 171.558H123.479C123.273 171.558 123.099 171.558 122.914 171.507C122.73 171.455 122.494 171.507 122.268 171.507C122.162 171.517 122.056 171.517 121.95 171.507C121.784 171.506 121.619 171.489 121.457 171.455C119.885 171.311 118.327 171.04 116.799 170.645L116.081 170.45C115.961 170.408 115.837 170.377 115.711 170.357C115.445 170.285 115.178 170.203 114.932 170.111L114.388 169.947L114.234 169.885L113.485 169.639L112.787 169.382C112.604 169.32 112.426 169.245 112.254 169.157C112.175 169.14 112.099 169.112 112.028 169.074L111.576 168.89L111.104 168.684L110.715 168.51L110.273 168.305L109.504 167.946L108.847 167.607C108.673 167.515 108.488 167.402 108.314 167.32C106.491 166.35 104.738 165.253 103.071 164.036C102.445 163.584 101.829 163.112 101.224 162.609C99.6209 161.342 98.1025 159.97 96.6783 158.505C95.1735 157.046 93.7551 155.501 92.4305 153.877C86.2329 146.236 81.4893 137.523 78.4353 128.171C76.4175 122.089 75.1125 115.794 74.5466 109.412C74.4542 108.386 74.3927 107.298 74.3516 106.241C74.1578 102.517 74.2677 98.7825 74.68 95.076C74.8441 93.5675 75.0698 92.0898 75.3366 90.6018C75.6641 88.7583 76.0853 86.9328 76.5987 85.1322C77.7708 80.6895 79.3507 76.3645 81.3185 72.2125C85.6586 63.0999 91.9893 54.521 99.7667 48.4255C106.949 42.8738 115.332 39.3642 124.833 39.3437C140.1 39.2719 152.752 48.251 161.596 60.3292C165.188 65.2415 168.155 70.5809 170.43 76.2249C171.015 77.641 171.559 79.0572 172.051 80.4938C173.176 83.7942 174.058 87.1725 174.688 90.6018C174.935 92.0385 175.16 93.5059 175.314 94.9631C175.687 98.535 175.794 102.13 175.632 105.718Z" fill="#EAB198"/>
<path opacity="0.2" d="M159.708 109.012C154.629 108.868 146.575 104.579 142.091 101.541C128.927 92.6239 118.728 75.661 111.371 75.3223C110.584 75.2828 109.796 75.3979 109.052 75.661C105.728 76.8924 104.599 81.2434 103.409 85.4508C101.942 90.6433 100.977 93.999 100.331 96.154C100.259 90.2431 100.146 83.8397 103.727 74.604C104.805 71.8846 106.138 69.0934 108.857 68.098C110.161 67.6054 114.429 66.569 125.274 76.6051C128.132 79.1868 130.752 82.0202 133.103 85.0711C141.937 96.6157 142.029 97.5085 146.513 101.49C152.957 107.247 156.866 106.96 159.708 109.012Z" fill="black"/>
<path d="M192.665 169.218C192.193 170.48 183.215 170.142 175.407 165.237C166.316 159.521 159.523 148.027 159.144 136.031C158.754 123.409 165.711 118.371 161.791 111.485C161.285 110.528 160.586 109.686 159.739 109.012C156.928 106.959 153.018 107.247 146.606 101.541C142.122 97.5492 142.029 96.6564 133.195 85.1221C130.845 82.0711 128.224 79.2377 125.366 76.656C114.49 66.6199 110.222 67.6563 108.95 68.1489C106.251 69.1751 104.917 71.9356 103.82 74.6549C100.239 83.8188 100.352 90.253 100.423 96.2049C100.423 101.254 100.485 105.913 98.1661 111.536C93.2411 123.46 84.4479 123.799 83.9554 134.369C83.6578 140.31 86.3768 141.614 86.2229 149.361C86.2229 151.968 85.9767 161.676 79.9025 168.171C69.7549 179.018 49.3469 174.585 49.1212 172.276C48.8955 169.967 67.9696 170.224 71.6941 160.331C74.7107 152.276 63.4858 146.201 65.0556 132.45C65.8662 125.431 69.0675 124.866 71.6941 116.205C75.5623 103.378 70.3911 98.5549 71.2735 86.7024C72.8023 65.9939 90.7683 48.3537 106.867 41.5501C111.817 39.4024 117.079 38.0584 122.453 37.5685C143.876 35.7419 159.985 48.8566 165.895 54.4903C170.215 58.5951 181.04 68.9391 182.815 84.0138C183.539 90.7747 183.193 97.6075 181.789 104.26C178.926 119.838 173.888 121.572 172.831 134.123C172.411 139.12 171.6 148.838 177.151 157.007C183.081 165.801 193.157 167.853 192.665 169.218Z" fill="#2D2D2D"/>
</svg>
