<svg width="250" height="250" viewBox="0 0 250 250" fill="none" xmlns="http://www.w3.org/2000/svg">
<path d="M250 125C250.047 154.412 239.68 182.891 220.736 205.386C217.756 208.94 214.577 212.323 211.215 215.518H39.4173C36.1369 212.658 33.0365 209.598 30.1337 206.356L29.2879 205.324C22.0673 196.77 -1.15196 166.446 0.0445931 124.959C1.73627 67.5299 50.0418 0 125.033 0C158.176 0 189.962 13.1696 213.398 36.6116C236.834 60.0537 250 91.8479 250 125Z" fill="#84D0F7"/>
<path d="M220.746 205.396C217.749 208.935 214.568 212.314 211.215 215.518C188.002 237.689 157.128 250.041 125.033 250C84.4014 250 53.9513 228.415 39.4173 215.518C36.1439 212.651 33.0439 209.591 30.1337 206.356C29.9068 206.057 29.6076 205.737 29.2879 205.324C43.2545 191.271 62.0176 180.345 83.6174 174.164C89.6621 189.218 105.898 199.959 125.002 199.959C142.744 199.959 158.01 190.673 164.931 177.26C165.478 176.228 165.963 175.196 166.386 174.103C166.778 174.216 167.046 174.278 167.572 174.443C188.708 180.788 207.058 191.571 220.746 205.396Z" fill="#AA392D"/>
<path d="M166.396 174.195C165.963 175.227 165.488 176.259 164.942 177.352C158.01 190.765 142.754 200.051 125.012 200.051C105.908 200.051 89.6724 189.269 83.6278 174.257C84.0816 174.123 84.5355 174.009 84.9894 173.865C85.2163 173.865 85.4226 173.751 85.6495 173.69C85.8765 173.628 86.124 173.576 86.351 173.504C86.4284 173.486 86.5043 173.462 86.5779 173.432C86.5779 173.432 88.383 172.957 90.085 172.575C93.2679 179.132 98.2314 184.661 104.408 188.529C110.584 192.398 117.725 194.449 125.012 194.449C132.299 194.449 139.439 192.398 145.616 188.529C151.792 184.661 156.756 179.132 159.939 172.575C162.147 172.86 164.314 173.404 166.396 174.195Z" fill="#7C211A"/>
<path d="M159.939 172.514C156.129 180.334 149.815 186.657 142.001 190.477C137.413 192.708 132.431 194.014 127.338 194.318C122.246 194.623 117.144 193.921 112.323 192.253C107.501 190.585 103.056 187.983 99.2405 184.596C95.4249 181.209 92.3139 177.104 90.085 172.514C91.4672 172.173 92.8598 171.853 94.2729 171.575C94.6133 171.513 94.9537 171.441 95.3045 171.348C95.4901 171.348 95.6449 171.286 95.8305 171.255L96.7176 171.079L97.9451 170.873C98.2339 170.801 98.5537 170.76 98.8735 170.687H98.9663C99.3067 169.8 99.6677 168.851 99.9978 167.798C100.111 167.458 100.225 167.076 100.338 166.767C100.719 165.411 101.016 164.032 101.225 162.639C103.43 164.439 105.807 166.015 108.322 167.344C108.508 167.437 108.683 167.53 108.869 167.644L109.508 167.963L110.282 168.325L110.736 168.531C110.849 168.603 110.983 168.644 111.117 168.717C111.273 168.775 111.425 168.844 111.571 168.923L112.025 169.098L112.221 169.191L112.768 169.398C112.974 169.49 113.201 169.573 113.449 169.666L114.202 169.944H114.356C114.511 170.017 114.697 170.058 114.882 170.13C115.068 170.202 115.398 170.285 115.656 170.357C115.914 170.429 115.904 170.419 116.038 170.45L116.739 170.646C118.275 171.015 119.832 171.29 121.402 171.471H121.886H122.227C122.433 171.471 122.629 171.471 122.856 171.523H123.434C123.63 171.523 123.857 171.523 124.063 171.523H124.63C128.027 171.516 131.399 170.955 134.615 169.862C134.639 169.871 134.664 169.871 134.687 169.862C134.812 169.838 134.933 169.8 135.049 169.748C135.863 169.48 136.575 169.181 137.235 168.933L138.091 168.562C138.164 168.562 138.236 168.5 138.329 168.479C142 166.908 145.411 164.79 148.448 162.196C148.757 163.613 149.149 165.109 149.624 166.684C150.057 168.087 150.511 169.408 150.965 170.656C151.357 170.729 151.718 170.77 152.099 170.863C152.481 170.956 152.852 170.997 153.213 171.069L154.338 171.275C154.606 171.275 154.874 171.389 155.153 171.43C155.431 171.471 155.514 171.502 155.699 171.544C157.185 171.874 158.577 172.173 159.939 172.514Z" fill="#843F2C"/>
<path d="M195.959 77.5279C195.969 78.3672 195.847 79.2028 195.598 80.0042C193.958 85.7822 188.316 86.3703 187.274 91.426C187.067 92.3546 187.367 91.88 187.274 94.738C187.202 96.8015 187.047 101.496 185.706 104.571C184.945 106.205 183.79 107.623 182.343 108.698C181.867 107.939 181.245 107.281 180.514 106.762C179.783 106.243 178.957 105.874 178.083 105.675C177.283 105.515 176.459 105.515 175.659 105.675C175.899 100.613 175.577 95.54 174.7 90.549C174.088 87.1296 173.212 83.7628 172.08 80.4788C171.605 79.0446 171.048 77.6105 170.491 76.2072C168.187 70.579 165.216 65.2479 161.641 60.3282C152.78 48.2461 140.103 39.2696 124.857 39.3109C115.718 39.447 106.89 42.6521 99.7915 48.4111C91.9727 54.5089 85.6908 63.083 81.3069 72.2246C78.5218 78.0562 76.5105 84.2269 75.3241 90.5799C74.4237 95.5684 74.0778 100.641 74.2926 105.706C73.4976 105.53 72.6739 105.53 71.8789 105.706C70.8634 105.958 69.9149 106.429 69.0992 107.084C68.2835 107.74 67.6199 108.565 67.1546 109.503C65.7305 108.527 64.5686 107.216 63.7712 105.685C61.4297 100.743 64.9059 97.9984 62.4715 92.9014C60.3157 88.3719 56.2206 87.9386 55.0653 82.7075C54.8022 81.4283 54.7396 80.116 54.8796 78.8176C55.4263 73.9786 58.3558 73.6588 59.3357 69.8412C60.7076 64.4037 55.7461 61.2361 57.9535 54.5502C58.0806 54.0564 58.2713 53.5813 58.5208 53.1367C61.3369 48.2254 69.0732 51.8676 72.962 47.8849C76.531 44.2221 72.7041 38.2894 77.7997 33.2853C78.4177 32.6131 79.1515 32.0574 79.9659 31.6447C85.6908 28.8693 91.1268 36.7005 96.2019 34.7401C100.245 33.1718 98.8116 27.5176 104.588 24.1643C106.646 22.9648 109.006 22.3811 111.386 22.4825C117.936 22.8437 119.524 28.7351 123.764 28.1676C127.828 27.6002 127.653 22.0698 133.202 20.2952C134.74 19.8192 136.361 19.6706 137.96 19.859C139.559 20.0473 141.1 20.5685 142.486 21.3889C147.581 24.5461 146.096 30.2312 150.17 31.7582C153.451 33.0067 155.245 29.5502 161.569 29.9217C163.632 30.0352 166.499 30.2106 168.975 31.9852C174.658 35.9885 171.048 43.3348 176.206 47.0492C179.816 49.6596 183.498 47.4309 188.708 51.5065C189.836 52.2376 190.785 53.2146 191.482 54.3645C194.082 58.9869 188.965 62.5568 190.647 67.8808C192.008 72.0182 195.959 72.9056 195.959 77.5279Z" fill="#2D2D2D"/>
<path opacity="0.2" d="M167.582 174.536C166.716 175.568 165.849 176.445 164.942 177.353C162.936 179.375 160.785 181.248 158.505 182.955C155.505 185.192 152.237 187.047 148.778 188.475C146.589 189.359 144.319 190.03 142.001 190.477C139.962 190.867 137.887 191.043 135.812 191.003C131.729 190.937 127.694 190.104 123.918 188.547C123.692 188.454 123.465 188.362 123.238 188.248C120.227 186.963 117.372 185.34 114.728 183.409C109.752 179.707 105.369 175.267 101.731 170.244C101.132 169.449 100.565 168.634 99.9978 167.809C100.111 167.468 100.225 167.086 100.338 166.777C100.719 165.421 101.016 164.043 101.225 162.65C101.844 163.124 102.453 163.609 103.092 164.063C104.758 165.28 106.505 166.38 108.322 167.355C108.508 167.447 108.683 167.54 108.869 167.654L109.508 167.974L110.282 168.335L110.736 168.541L111.117 168.727C111.273 168.785 111.425 168.854 111.571 168.933L112.025 169.109L112.221 169.202L112.768 169.408L113.449 169.676L114.202 169.955H114.356C114.511 170.027 114.697 170.068 114.882 170.14C115.068 170.213 115.398 170.295 115.656 170.367C115.914 170.44 115.904 170.429 116.038 170.46L116.739 170.656C118.272 171.043 119.83 171.319 121.402 171.482H121.886H122.227C122.433 171.482 122.629 171.482 122.856 171.533H123.434C123.63 171.533 123.857 171.533 124.063 171.533H124.63C128.025 171.507 131.395 170.946 134.615 169.872C134.639 169.881 134.664 169.881 134.687 169.872C134.812 169.849 134.933 169.81 135.048 169.759C135.729 169.532 136.389 169.284 137.05 169.005L137.235 168.944C137.524 168.83 137.803 168.696 138.091 168.572C138.164 168.572 138.236 168.51 138.329 168.49C141.315 167.121 144.15 165.444 146.787 163.485C147.354 163.073 147.901 162.639 148.448 162.206C148.757 163.623 149.149 165.119 149.624 166.694C150.057 168.097 150.511 169.418 150.965 170.667C151.357 170.739 151.718 170.78 152.099 170.873C152.481 170.966 152.852 171.007 153.213 171.079L154.338 171.286C154.606 171.286 154.874 171.399 155.153 171.44C155.431 171.482 155.514 171.513 155.699 171.554C157.102 171.853 158.495 172.152 159.825 172.493C162.012 172.988 164.168 173.525 166.283 174.175L167.582 174.536Z" fill="black"/>
<path d="M184.551 116.849C184.396 122.173 180.992 127.559 177.186 129.54C176.676 129.81 176.136 130.018 175.576 130.159H175.453C174.776 130.318 174.074 130.339 173.39 130.221C172.646 130.073 171.942 129.767 171.327 129.323L171.038 129.107C170.616 128.771 170.232 128.39 169.893 127.972C167.149 124.66 166.025 118.459 167.83 113.527C168.57 111.599 169.697 109.843 171.141 108.368C172.366 107.061 173.942 106.137 175.68 105.706C176.48 105.546 177.304 105.546 178.104 105.706C182.601 106.593 184.695 112.392 184.551 116.849Z" fill="#843F2C"/>
<path opacity="0.3" d="M184.54 116.849C184.386 122.173 181.002 127.569 177.175 129.54C176.673 129.81 176.139 130.018 175.587 130.159C175.542 130.168 175.497 130.168 175.453 130.159C174.779 130.337 174.074 130.362 173.39 130.231C172.646 130.086 171.943 129.784 171.327 129.344C171.233 129.26 171.133 129.184 171.027 129.117C170.606 128.78 170.226 128.396 169.893 127.972C167.324 124.876 166.19 119.263 167.551 114.507C167.644 114.166 167.758 113.846 167.871 113.537C168.609 111.606 169.74 109.849 171.193 108.378C172.407 107.064 173.982 106.138 175.721 105.716C176.521 105.556 177.345 105.556 178.145 105.716C179.019 105.915 179.845 106.285 180.576 106.803C181.307 107.322 181.928 107.98 182.405 108.739C183.915 111.167 184.659 113.993 184.54 116.849Z" fill="black"/>
<path d="M80.1516 127.992C79.7782 128.462 79.3486 128.885 78.8725 129.251C78.8725 129.251 78.759 129.313 78.7178 129.364C78.0995 129.801 77.3968 130.103 76.6548 130.252C75.9694 130.37 75.2671 130.345 74.5917 130.179C74.5543 130.187 74.5157 130.187 74.4783 130.179C73.9162 130.037 73.3727 129.829 72.8588 129.56C69.0629 127.59 65.6382 122.193 65.4938 116.869C65.4214 114.302 66.0262 111.761 67.2474 109.503C67.7128 108.565 68.3763 107.74 69.192 107.084C70.0078 106.429 70.9562 105.958 71.9717 105.706C72.7667 105.53 73.5905 105.53 74.3854 105.706C76.1024 106.119 77.6573 107.035 78.8519 108.337C80.3054 109.807 81.4366 111.564 82.1733 113.496C82.3557 113.995 82.5073 114.505 82.6272 115.023C83.7619 119.686 82.6066 125.041 80.1516 127.992Z" fill="#843F2C"/>
<path d="M175.659 105.706C175.566 107.955 175.36 110.215 175.04 112.464C174.265 118.153 172.881 123.743 170.914 129.138C166.138 142.551 158.134 154.447 148.479 162.227C147.932 162.66 147.385 163.093 146.818 163.506C144.181 165.465 141.346 167.142 138.36 168.51C138.267 168.51 138.195 168.572 138.122 168.593C137.834 168.717 137.555 168.851 137.266 168.964L137.081 169.026C136.42 169.305 135.76 169.552 135.079 169.779C134.964 169.831 134.843 169.869 134.718 169.893C134.695 169.901 134.67 169.901 134.646 169.893C131.426 170.967 128.056 171.527 124.661 171.554H124.094C123.888 171.554 123.661 171.554 123.465 171.554H122.887C122.66 171.554 122.464 171.554 122.258 171.502H121.917H121.433C119.861 171.339 118.303 171.063 116.77 170.677L116.069 170.481C115.935 170.481 115.821 170.409 115.687 170.388C115.553 170.367 115.161 170.223 114.913 170.161C114.666 170.099 114.542 170.048 114.387 169.975H114.233L113.48 169.697L112.799 169.428L112.252 169.222L112.056 169.129L111.602 168.954C111.456 168.875 111.304 168.806 111.148 168.748L110.767 168.562L110.313 168.355L109.539 167.994L108.9 167.674C108.714 167.561 108.539 167.468 108.353 167.375C106.536 166.4 104.789 165.3 103.123 164.084C102.484 163.63 101.875 163.145 101.256 162.67C98.0393 160.069 95.0979 157.144 92.4781 153.941C86.5244 146.628 81.9271 138.308 78.9035 129.375C78.7487 129.003 78.6353 128.622 78.4909 128.23C76.846 123.349 75.6749 118.322 74.994 113.217C74.8084 111.989 74.6743 110.762 74.5608 109.513C74.468 108.481 74.4061 107.45 74.3545 106.356C74.3545 106.17 74.3545 106.015 74.3545 105.83C74.1397 100.765 74.4856 95.6923 75.386 90.7038C76.5423 84.3113 78.5329 78.0985 81.3069 72.2246C85.6495 63.1037 91.9314 54.5296 99.7503 48.4318C106.849 42.6728 115.677 39.4677 124.816 39.3315C140.093 39.3315 152.739 48.2667 161.579 60.3489C165.154 65.2686 168.125 70.5997 170.429 76.2279C170.997 77.6312 171.543 79.0653 172.018 80.4995C173.158 83.793 174.041 87.1702 174.658 90.6006C175.548 95.5834 175.883 100.649 175.659 105.706Z" fill="#843F2C"/>
<path opacity="0.2" d="M175.494 96.6053C172.811 96.4557 170.159 95.9598 167.603 95.1299L167.19 94.9648C159.052 92.1687 159.279 87.1645 152.594 85.4415C145.044 83.5017 142.228 89.2384 133.945 87.082C127.653 85.4415 127.828 81.758 122.743 81.3659C115.171 80.7985 112.17 89.3313 105.795 88.0312C101.669 87.1955 101.277 83.2541 96.2431 82.1398C92.9921 81.603 89.6558 82.2237 86.8151 83.8938C89.2495 81.5517 89.9097 78.7349 93.3652 77.8888C98.1411 76.6817 99.709 81.5723 105.846 81.5001C113.81 81.4175 115.677 74.2776 122.794 74.8451C127.88 75.2269 127.704 78.9103 133.996 80.5508C142.248 82.7073 145.095 76.9603 152.646 78.9103C159.33 80.6437 159.103 85.6478 167.242 88.4439C169.636 89.2894 172.128 89.8234 174.658 90.0329C174.658 90.0329 174.793 91.1266 175.092 93.2623C175.453 96.399 175.494 96.6053 175.494 96.6053Z" fill="black"/>
<path d="M181.085 88.444C180.221 89.174 179.177 89.6587 178.062 89.8472L177.701 89.9194C176.678 90.0767 175.639 90.1148 174.607 90.0329C172.077 89.8235 169.584 89.2894 167.19 88.444C159.052 85.6479 159.279 80.6438 152.594 78.9104C145.044 76.9603 142.228 82.7073 133.945 80.5509C127.653 78.9104 127.828 75.2269 122.743 74.8452C115.625 74.2983 113.758 81.4176 105.795 81.5001C99.6574 81.5724 98.0895 76.6817 93.3136 77.8889C89.8581 78.7556 89.1876 81.5517 86.7635 83.8939C85.9211 84.7454 84.9367 85.4437 83.8547 85.9574C81.4029 87.0531 78.7089 87.494 76.0359 87.2368C73.1476 86.9582 70.4863 85.8646 69.1454 84.028C65.3391 78.7969 72.3018 68.2831 75.2622 63.7845C90.838 40.2393 117.915 35.3074 121.443 34.7399C122.351 34.5852 123.506 34.3994 125.198 34.2137C133.47 33.3264 151.449 33.0169 165.891 45.4704C181.425 58.8732 187.387 82.8002 181.085 88.444Z" fill="#2D2D2D"/>
</svg>
