<svg width="399" height="237" viewBox="0 0 399 237" fill="none" xmlns="http://www.w3.org/2000/svg">
<path fill-rule="evenodd" clip-rule="evenodd" d="M107.397 -0.347011C85.5251 16.059 80.4301 36.5329 79.5125 58.0188C88.1982 44.6972 96.3254 31.1518 111.498 20.431C107.669 56.0818 78.7317 87.9379 100.009 127.384C93.1869 86.2113 121.734 68.3752 132.598 38.8711C141.28 77.9047 123.004 116.329 158.647 155.973C140.34 109.946 159.333 71.5222 159.678 29.2957C181.991 60.678 178.837 101.634 226.616 123.443C194.969 91.9637 192.791 53.4534 175.878 18.459C206.72 41.3453 213.89 75.7128 268.405 87.1184C224.603 67.4635 221.227 35.3902 197.638 9.52633C222.824 11.6954 245.377 20.0185 265.601 34.2866C256.627 19.4012 235.61 8.48092 208.541 -0.444701L107.397 -0.347011Z" fill="#507619"/>
<path fill-rule="evenodd" clip-rule="evenodd" d="M92.5599 32.1396C86.559 38.3723 79.8947 44.4616 72.0414 49.9179C80.234 46.975 86.9198 40.7063 92.5599 32.1396ZM94.9222 46.0917C88.2551 53.0157 80.8514 59.7812 72.1269 65.8431C81.2281 62.5747 88.6537 55.6089 94.9222 46.0917M99.1239 60.3391C92.1179 67.6157 84.3374 74.7231 75.1673 81.0941C84.7325 77.6596 92.5357 70.3403 99.1239 60.3391M103.306 72.4369C95.7926 80.2418 87.4477 87.8652 77.6169 94.6972C87.873 91.0134 96.2424 83.1635 103.306 72.4369M109.687 85.2518C101.62 93.6307 92.6618 101.815 82.1038 109.15C93.1171 105.195 102.102 96.7674 109.687 85.2518M135.878 129.018C130.285 134.739 124.434 140.096 117.621 144.104C125.228 143.031 130.793 136.648 135.878 129.018M129.927 120.333C123.607 127.761 116.488 134.208 107.77 138.683C117.175 136.893 124.23 130.065 129.927 120.333ZM123.532 109.496C116.3 117.007 108.27 124.343 98.8061 130.919C108.678 127.374 116.734 119.819 123.532 109.496ZM116.143 97.9121C108.076 106.291 99.1172 114.476 88.5606 121.811C99.5732 117.857 108.559 109.429 116.143 97.9121ZM93.4009 39.229C87.397 45.4634 80.7342 51.5509 72.8818 57.0075C81.0726 54.0659 87.7574 47.7964 93.4009 39.229M97.425 53.0778C90.7571 60.0014 83.3532 66.7664 74.6294 72.8281C83.7301 69.5604 91.1561 62.5958 97.425 53.0778ZM100.895 66.7658C93.8881 74.0427 86.1086 81.1509 76.9404 87.5212C86.505 84.087 94.3088 76.7674 100.895 66.7658M105.928 79.6565C98.414 87.4616 90.069 95.0844 80.2381 101.916C90.4951 98.2329 98.8645 90.3831 105.928 79.6565M112.874 92.1539C104.805 100.533 95.8466 108.718 85.2896 116.054C96.3027 112.099 105.288 103.672 112.874 92.1539ZM119.495 103.451C111.425 111.831 102.468 120.016 91.911 127.349C102.924 123.395 111.91 114.967 119.495 103.451M127.191 113.95C119.958 121.462 111.926 128.8 102.463 135.374C112.336 131.829 120.39 124.275 127.191 113.95ZM134.627 123.397C128.306 130.826 121.188 137.272 112.471 141.747C121.875 139.958 128.93 133.131 134.627 123.397M140.526 133.798C134.934 139.518 129.083 144.874 122.27 148.884C129.877 147.81 135.44 141.428 140.526 133.798M142.161 135.89C137.948 141.923 133.371 147.172 128.064 150.852C134.088 149.517 138.464 143.643 142.161 135.89ZM144.146 139.771C142.322 145.058 139.864 149.519 136.63 152.967C141.78 151.243 143.891 146.444 144.146 139.771ZM100.536 38.2619C111.804 41.0322 122.121 41.1709 131.058 37.4988C120.429 38.8829 110.273 38.8759 100.536 38.2619ZM105.197 52.0991C117.038 55.0105 127.879 55.157 137.272 51.2977C126.103 52.7515 115.428 52.745 105.197 52.0991ZM108.705 65.0646C121.404 68.1874 133.03 68.344 143.103 64.2052C131.126 65.7649 119.677 65.756 108.705 65.0646ZM113.948 77.3318C127.582 80.6847 140.065 80.8521 150.879 76.4094C138.02 78.0832 125.728 78.0754 113.948 77.3318ZM138.868 121.745C147.944 123.926 156.494 124.878 162.796 120.6C155.008 122.209 146.972 122.195 138.868 121.745ZM132.755 112.406C143.758 115.714 153.705 115.999 161.824 111.047C152.317 113.583 142.592 113.618 132.755 112.406ZM126.698 101.044C138.921 104.049 150.11 104.199 159.805 100.216C148.278 101.716 137.259 101.71 126.698 101.044ZM120.864 89.5322C134.498 92.8851 146.98 93.0525 157.794 88.6092C144.935 90.2839 132.643 90.2749 120.864 89.5322ZM98.4897 30.5549C108.632 33.0485 117.918 33.173 125.963 29.8672C116.397 31.1127 107.252 31.107 98.4897 30.5549ZM103.48 44.7802C114.748 47.5505 125.064 47.689 134.001 44.0173C123.373 45.4018 113.217 45.3943 103.48 44.7802ZM107.25 58.369C119.091 61.2804 129.932 61.4263 139.325 57.5662C128.157 59.0211 117.48 59.0145 107.25 58.369ZM111.342 70.3718C124.041 73.4954 135.667 73.6514 145.741 69.5124C133.763 71.0718 122.312 71.0647 111.342 70.3718M117.439 83.0552C131.073 86.4075 143.556 86.576 154.37 82.132C141.511 83.8077 129.218 83.799 117.439 83.0552ZM124.245 95.3298C137.879 98.6827 150.36 98.8492 161.175 94.4063C148.315 96.0809 136.024 96.0725 124.245 95.3298ZM149.658 140.687C152.486 145.242 155.759 148.8 159.58 151.137C154.247 151.063 151.242 147.069 149.658 140.687ZM128.968 106.742C141.191 109.747 152.381 109.897 162.076 105.913C150.548 107.414 139.529 107.406 128.968 106.742ZM135.534 117.051C146.538 120.358 156.485 120.645 164.603 115.691C155.096 118.228 145.37 118.263 135.534 117.051ZM141.081 126.856C150.157 129.038 158.706 129.99 165.008 125.711C157.22 127.321 149.184 127.306 141.081 126.856ZM144.166 130.926C152.316 134.119 159.641 135.492 164.972 132.457C158.514 133.306 151.484 132.521 144.166 130.926ZM148.535 135.63C153.419 140.325 158.332 142.421 163.303 140.252C158.518 139.888 153.587 138.27 148.535 135.63ZM99.7814 1.85248C91.7519 46.6679 112.454 89.8653 148.005 138.541C108.243 93.3134 88.89 46.9804 92.912 -0.618842L99.7814 1.85248Z" fill="#264114"/>
<path fill-rule="evenodd" clip-rule="evenodd" d="M390.122 74.2539C392.081 85.5616 394.933 97.0911 399.688 108.558C392.494 99.9845 389.766 88.2206 390.122 74.2539ZM376.032 90.0206C378.21 102.584 381.377 115.392 386.659 128.132C378.668 118.607 375.637 105.538 376.032 90.0206ZM359.552 105.04C361.84 118.243 365.168 131.701 370.72 145.091C362.322 135.08 359.136 121.346 359.552 105.04ZM344.837 117.423C347.29 131.582 350.86 146.016 356.814 160.376C347.807 149.639 344.391 134.91 344.837 117.423ZM326.972 129.359C329.606 144.561 333.439 160.059 339.831 175.476C330.162 163.947 326.494 148.135 326.972 129.359ZM260.808 167.474C262.706 177.903 265.2 188.038 269.914 197.095C261.889 191.176 260.562 179.95 260.808 167.474ZM274.819 160.365C276.181 173.338 279.274 185.582 285.837 196.365C276.29 188.477 273.582 175.802 274.819 160.365ZM291.097 150.873C293.459 164.5 296.894 178.393 302.625 192.213C293.956 181.88 290.668 167.704 291.097 150.873ZM309.142 141.062C311.776 156.265 315.609 171.762 322.001 187.179C312.331 175.651 308.664 159.837 309.142 141.062ZM383.385 82.4847C385.344 93.7923 388.195 105.321 392.95 116.79C385.757 108.215 383.028 96.4506 383.385 82.4847ZM367.434 97.1183C369.611 109.681 372.778 122.49 378.061 135.231C370.07 125.704 367.039 112.635 367.434 97.1183ZM352.263 111.891C354.551 125.094 357.879 138.552 363.431 151.941C355.033 141.93 351.848 128.196 352.263 111.891ZM335.91 124.736C338.363 138.894 341.933 153.329 347.888 167.688C338.881 156.953 335.464 142.224 335.91 124.736ZM317.641 135.943C320.276 151.143 324.109 166.64 330.5 182.058C320.83 170.532 317.163 154.718 317.641 135.943ZM300.727 145.863C303.361 161.064 307.194 176.563 313.585 191.979C303.917 180.452 300.248 164.638 300.727 145.863ZM283.203 154.153C285.564 167.781 289 181.672 294.73 195.494C286.061 185.16 282.774 170.984 283.203 154.153ZM266.835 161.304C268.197 174.276 271.29 186.52 277.852 197.302C268.305 189.415 265.597 176.741 266.835 161.304ZM251.491 170.556C253.39 180.983 255.883 191.12 260.597 200.175C252.573 194.259 251.245 183.031 251.491 170.556ZM247.88 172.146C245.911 183.933 246.261 193.817 252.222 199.1C249.002 191.362 247.911 182.127 247.88 172.146ZM242.408 175.729C237.29 184.107 235.861 191.296 240.485 196.532C239.503 190.329 240.251 183.348 242.408 175.729ZM375.823 76.9809C360.395 73.5886 348.216 67.5262 340.745 57.6019C352.051 65.7283 363.938 71.8568 375.823 76.9809ZM359.138 91.2186C342.925 87.6525 330.127 81.2831 322.275 70.8539C334.157 79.3926 346.648 85.833 359.138 91.2186ZM344.51 105.077C327.122 101.253 313.397 94.4221 304.977 83.2368C317.719 92.3948 331.116 99.3015 344.51 105.077ZM328.418 117.027C309.75 112.922 295.014 105.588 285.974 93.5793C299.655 103.411 314.037 110.827 328.418 117.027ZM263.216 156.705C250.83 153.908 240.057 149.917 236.16 140.837C243.963 147.526 253.374 152.363 263.216 156.705ZM277.947 148.888C262.393 146.318 250.526 140.66 245.052 129.651C254.112 138.521 265.459 144.439 277.947 148.888ZM294.255 138.545C277.52 134.866 264.31 128.289 256.206 117.524C268.469 126.339 281.363 132.986 294.255 138.545ZM310.426 127.885C291.758 123.78 277.023 116.445 267.982 104.437C281.663 114.269 296.045 121.683 310.426 127.885ZM384.474 68.7191C370.586 65.6642 359.625 60.2092 352.899 51.2756C363.077 58.5909 373.776 64.1059 384.474 68.7191ZM367.088 83.2359C351.66 79.843 339.482 73.782 332.011 63.8569C343.317 71.9826 355.203 78.1112 367.088 83.2359ZM351.647 97.704C335.434 94.1387 322.637 87.7686 314.785 77.3393C326.666 85.8781 339.157 92.3184 351.647 97.704ZM337.118 110.025C319.729 106.201 306.004 99.3699 297.583 88.184C310.326 97.3426 323.723 104.25 337.118 110.025ZM319.689 121.971C301.021 117.865 286.285 110.531 277.244 98.5216C290.925 108.355 305.308 115.769 319.689 121.971ZM301.766 132.987C283.097 128.881 268.362 121.546 259.321 109.537C273.002 119.37 287.385 126.786 301.766 132.987ZM235.219 173.528C228.183 180.437 221.426 183.545 215.129 180.413C221.496 179.841 228.215 177.433 235.219 173.528ZM286.975 144.194C270.24 140.515 257.03 133.939 248.925 123.174C261.189 131.989 274.083 138.636 286.975 144.194ZM270.927 152.934C255.373 150.363 243.506 144.704 238.031 133.698C247.091 142.566 258.438 148.485 270.927 152.934ZM256.479 161.667C244.092 158.871 233.32 154.879 229.422 145.799C237.225 152.488 246.636 157.326 256.479 161.667ZM249.566 164.818C237.441 163.83 227.76 161.096 223.987 154.137C230.852 159.083 239.712 162.364 249.566 164.818ZM240.637 167.974C231.115 170.812 223.664 170.426 219.613 164.751C225.504 167.193 232.585 168.177 240.637 167.974ZM399.626 43.7153C372.45 103.301 319.586 133.566 238.894 171.881C314.173 143.196 364.424 110.111 399.639 57.545L399.626 43.7153Z" fill="#264114"/>
<path fill-rule="evenodd" clip-rule="evenodd" d="M260.715 -0.714355C253.636 68.9112 217.8 160.834 167.431 164.846L171.403 151.834L186.657 152.219L172.329 148.802L175.574 138.173L186.412 137.511L176.245 135.978L181.314 119.374L204.032 119.228L183.048 113.695L186.005 104.005L194.856 103.949L186.681 101.793L192.771 81.8442L206.745 81.7547L193.837 78.3505L199.309 60.4305L218.176 60.3104L200.748 55.7159L204.456 43.5709L210.83 43.5308L204.943 41.9779L208.388 30.6949L217.841 30.6335L209.11 28.3315L213.321 14.5357L228.819 14.4359L214.504 10.6608L217.964 -0.673064L260.715 -0.714355Z" fill="#264114"/>
<path fill-rule="evenodd" clip-rule="evenodd" d="M268.049 18.8228C271.097 21.1255 273.921 23.548 276.525 26.0705L276.271 26.2466C274.695 27.3334 273.024 27.8443 271.102 27.7226C269.292 27.6096 267.56 28.6944 266.959 30.4628C266.243 32.5681 267.401 34.8455 269.546 35.5476C270.976 36.0169 272.486 35.6664 273.543 34.7567C275.298 33.246 277.39 32.5981 279.71 32.8451C282.03 33.09 283.932 34.1626 285.318 36.0058C287.239 38.5615 288.972 41.1779 290.521 43.8372L284.195 45.825C282.361 46.402 280.611 46.3989 278.814 45.7195C277.121 45.08 275.137 45.6076 274.025 47.1184C272.701 48.918 273.114 51.4304 274.947 52.7305C276.693 53.9689 279.101 53.6596 280.468 52.0705C281.505 50.8667 282.707 50.092 284.245 49.6437L285.676 49.2274C289.69 48.0595 293.917 50.0846 295.449 53.9093C297.028 57.8556 298.234 61.8423 299.073 65.8137L288.059 67.1099C286.147 67.3338 284.428 67.0061 282.795 66.0039C281.257 65.0614 279.207 65.2101 277.823 66.4868C276.176 68.0083 276.096 70.5524 277.645 72.1699C279.121 73.7095 281.544 73.8538 283.193 72.5476C284.443 71.559 285.773 71.0212 287.37 70.8682L291.694 70.4531C294.004 70.2315 296.077 70.893 297.815 72.4051C299.551 73.9172 300.468 75.858 300.519 78.1371C300.649 83.8355 300.014 89.3778 298.649 94.588L282.422 88.8569C280.61 88.2162 279.224 87.167 278.22 85.553C277.275 84.0333 275.375 83.2657 273.555 83.7992C271.388 84.4329 270.156 86.6732 270.803 88.7996C271.418 90.8268 273.519 92.0208 275.59 91.5794C277.158 91.2444 278.593 91.349 280.091 91.9146L289.641 95.5204C291.889 96.3685 293.483 97.9622 294.31 100.182C295.135 102.403 294.961 104.63 293.799 106.701C291.857 110.164 289.505 113.35 286.758 116.178L266.8 102.555C265.255 101.501 264.218 100.166 263.687 98.3923C263.188 96.7235 261.593 95.5264 259.737 95.5764C257.528 95.6376 255.788 97.4444 255.849 99.6121C255.908 101.679 257.581 103.328 259.651 103.427C261.217 103.5 262.544 103.955 263.811 104.862L279.489 116.068C280.542 116.822 281.104 117.933 281.077 119.212C281.049 120.491 280.442 121.578 279.358 122.287C277.526 123.488 275.582 124.563 273.526 125.502L262.835 117.78C261.319 116.684 260.318 115.322 259.837 113.536C259.383 111.854 257.821 110.616 255.965 110.617C253.756 110.619 251.966 112.379 251.968 114.549C251.97 116.428 253.316 117.998 255.113 118.383C258.443 119.095 260.854 121.624 261.357 124.934C261.86 128.242 260.306 131.353 257.333 132.988C256.847 133.256 256.36 133.529 255.874 133.807C254.826 132.841 254.109 131.684 253.723 130.256C253.27 128.573 251.708 127.334 249.852 127.336C247.642 127.338 245.853 129.099 245.855 131.268C245.857 133.334 247.485 135.028 249.551 135.181C250.584 135.257 251.507 135.496 252.373 135.92C246.874 139.419 241.619 143.669 237.382 148.889C234.854 142.367 231.374 136.385 227.342 130.975C228.27 130.738 229.216 130.691 230.233 130.82C232.287 131.082 234.232 129.749 234.661 127.725C235.112 125.601 233.724 123.522 231.56 123.079C229.744 122.708 227.958 123.61 227.167 125.166C226.602 126.276 225.847 127.152 224.894 127.841C224.432 127.276 223.963 126.716 223.49 126.163C221.536 123.884 221.048 120.948 222.163 118.177C223.277 115.405 225.678 113.59 228.691 113.237C230.351 113.041 231.774 111.832 232.134 110.136C232.584 108.013 231.196 105.933 229.033 105.49C227.215 105.119 225.43 106.021 224.637 107.577C223.796 109.23 222.536 110.364 220.825 111.135L212.466 114.899C212.034 114.437 211.614 113.968 211.204 113.492C209.025 110.958 208.667 107.553 210.275 104.636C211.884 101.721 214.983 100.151 218.336 100.557C220.081 100.769 221.823 99.8243 222.524 98.1503C223.364 96.1447 222.388 93.8495 220.344 93.0256C218.628 92.3325 216.703 92.8974 215.634 94.2852C214.499 95.758 213.047 96.6456 211.221 97.0949L202.744 99.1792C202.328 98.0903 201.946 96.9851 201.6 95.8662C200.901 93.6101 201.197 91.4006 202.467 89.398C203.736 87.3961 205.623 86.1589 207.994 85.777L217.623 84.224C219.62 83.9022 221.419 84.1348 223.268 84.9412C225.712 86.0071 228.618 85.0603 229.908 82.7113C231.262 80.2475 230.324 77.1712 227.812 75.8426C225.704 74.7268 223.156 75.1972 221.592 76.8374C219.932 78.5789 217.947 79.5262 215.542 79.8613L199.138 82.1468C198.87 77.7246 199.068 73.2224 199.728 68.7463C200.078 66.3779 201.336 64.4737 203.399 63.1977C205.461 61.9203 207.753 61.6254 210.082 62.3362L212.427 63.0532C214.273 63.6171 215.708 64.5712 216.936 66.0377C218.559 67.975 221.454 68.3872 223.579 66.9229C225.81 65.386 226.35 62.3653 224.784 60.1753C223.47 58.3361 221.088 57.6681 219.039 58.4117C216.861 59.2016 214.751 59.1758 212.552 58.4526L203.135 55.3513C204.274 52.2452 205.649 49.2089 207.255 46.2823C209.353 42.4555 214.24 41.011 218.143 43.0663L218.149 43.0704C219.786 43.932 220.964 45.0888 221.85 46.692C223.02 48.8098 225.674 49.7159 227.952 48.7147C230.341 47.6631 231.411 44.9103 230.34 42.5642C229.442 40.5943 227.318 39.5382 225.247 39.8744C223.046 40.2296 221.061 39.8281 219.121 38.7529L214.226 36.0377C215.946 33.9749 217.808 32.0118 219.812 30.1674C222.323 27.8553 225.866 27.3554 228.939 28.8778C229.633 29.22 230.432 29.3748 231.261 29.2782C233.507 29.0173 235.111 27.0191 234.846 24.8149C234.651 23.1981 233.504 21.9198 232.021 21.4553C236.607 18.9788 241.654 17.0181 247.154 15.6946C250.431 14.9057 252.616 11.9949 252.414 8.68905L251.838 -0.708165L269.591 -0.718521L265.701 11.2983C264.793 14.1033 265.672 17.0295 268.049 18.8228Z" fill="#50852C"/>
<path fill-rule="evenodd" clip-rule="evenodd" d="M260.105 -0.712899C266.386 59.9163 297.75 139.918 341.625 143.327L338.145 132.001L324.859 132.361L337.333 129.362L334.489 120.11L325.048 119.551L333.901 118.198L329.458 103.745L309.672 103.657L327.939 98.8028L325.347 90.3685L317.638 90.3338L324.755 88.4431L319.417 71.0788L307.248 71.024L318.483 68.0379L313.688 52.4389L297.256 52.3658L312.426 48.3341L309.177 37.7632L303.625 37.738L308.751 36.3769L305.732 26.5548L297.498 26.5173L305.1 24.4984L301.408 12.4888L287.91 12.4285L300.372 9.11662L297.339 -0.748862L260.105 -0.712899Z" fill="#4D802A"/>
<path fill-rule="evenodd" clip-rule="evenodd" d="M312.951 -0.755462C323.007 10.9022 326.031 25.4741 327.304 40.7709C323.032 31.2951 318.99 21.6608 312.042 14.0436C315.144 39.4244 328.864 62.0736 321.348 90.1832C322.59 60.86 309.611 48.1918 303.743 27.1961C301.614 54.999 311.029 82.3363 297.358 110.604C303.329 77.8113 293.606 50.4742 291.731 20.4083C283.441 42.778 286.471 71.9361 266.862 87.5166C279.152 65.0677 278.511 37.6465 284.336 12.7101C272.039 29.04 270.369 53.5174 247.444 61.6993C265.434 47.6559 265.57 24.8146 274.634 6.37368C263.915 7.94535 254.579 13.8974 246.484 24.0786C249.727 13.4702 258.297 5.6723 269.548 -0.71354L312.951 -0.755462Z" fill="#80A831"/>
<path fill-rule="evenodd" clip-rule="evenodd" d="M361.518 -0.802758C374.819 14.6169 378.82 33.8908 380.503 54.1244C374.853 41.5905 369.507 28.8457 360.316 18.7709C364.419 52.341 382.566 82.3001 372.626 119.48C374.269 80.6939 357.102 63.9387 349.339 36.1678C346.524 72.9419 358.977 109.102 340.895 146.49C348.793 103.116 335.933 66.9568 333.452 27.1908C322.487 56.7774 326.494 95.344 300.557 115.953C316.815 86.2598 315.966 49.9898 323.67 17.0079C307.405 38.6077 305.197 70.9838 274.874 81.8038C298.67 63.2304 298.85 33.0193 310.838 8.62767C296.66 10.7059 284.311 18.5781 273.605 32.0446C277.893 18.0124 289.229 7.69912 304.111 -0.74731L361.518 -0.802758Z" fill="#4C7118"/>
<path fill-rule="evenodd" clip-rule="evenodd" d="M66.4992 -0.517913C76.554 11.1398 79.5794 25.7116 80.853 41.0084C76.5797 31.5326 72.5386 21.8983 65.5884 14.2812C68.6925 39.6619 82.4112 62.3112 74.8958 90.4207C76.1381 61.0975 63.158 48.4294 57.2895 27.4337C55.163 55.2365 64.5762 82.5739 50.9059 110.842C56.8762 78.0488 47.1544 50.7118 45.2787 20.6459C36.9886 43.0155 40.0181 72.1737 20.409 87.7542C32.6998 65.3053 32.0587 37.884 37.8849 12.9476C25.5862 29.2776 23.9153 53.755 0.990887 61.9368C18.9812 47.8934 19.1186 25.0522 28.1804 6.61123C17.4629 8.1829 8.12638 14.135 0.0328892 24.3161C3.27292 13.7077 11.8447 5.90985 23.0944 -0.475989L66.4992 -0.517913Z" fill="#80A831"/>
<path fill-rule="evenodd" clip-rule="evenodd" d="M63.0987 -0.515055C55.0384 8.86605 52.6296 20.5779 51.6299 32.8711C55.0485 25.2507 58.2808 17.5041 63.8517 11.373C61.3979 31.7689 50.4113 49.9876 56.4902 72.5601C55.4481 49.0035 65.8577 38.8051 70.5398 21.9277C72.2926 44.2612 64.7707 66.2396 75.7963 88.9288C70.95 62.5921 78.7182 40.6135 80.1798 16.4548C86.8756 34.4147 84.4856 57.8448 100.262 70.333C90.3538 52.3172 90.8275 30.2838 86.1089 10.2588C96.0136 23.3591 97.3938 43.0233 115.824 49.5605C101.349 38.3063 101.205 19.9558 93.8946 5.15308C102.509 6.39979 110.018 11.1668 116.537 19.3338C113.917 10.8153 107.018 4.56383 97.9715 -0.548737L63.0987 -0.515055Z" fill="#4C7118"/>
<path fill-rule="evenodd" clip-rule="evenodd" d="M399.745 188.937C359.198 237.61 365.683 232.177 327.262 216.914L336.82 206.992L350.196 214.034L339.047 204.68L346.855 196.576L356.791 200.738L348.469 194.9L360.665 182.239L380.916 192.082L364.837 177.908L371.953 170.52L379.844 174.355L373.579 168.832L388.232 153.62L396.1 156.984L390.798 150.956L403.962 137.292L397.38 144.124L399.294 137.564L399.745 188.937Z" fill="#264114"/>
<path fill-rule="evenodd" clip-rule="evenodd" d="M399.665 106.416L399.626 65.1558C368.082 103.315 346.102 127.497 304.637 155.936C339.565 143.558 362.144 122.048 393.231 96.3097C360.544 138.438 335.721 174.042 296.003 198.76C332.43 183.64 362.851 141.125 399.665 106.416Z" fill="#729E19"/>
<path fill-rule="evenodd" clip-rule="evenodd" d="M399.689 129.877L399.66 99.9431C368.116 138.102 346.123 148.781 304.659 177.218C339.587 164.841 365.779 142.27 396.865 116.531C364.178 158.659 335.742 195.324 296.025 220.043C332.451 204.923 362.874 164.587 399.689 129.877Z" fill="#729E19"/>
</svg>
