<svg width="55" height="49" viewBox="0 0 55 49" fill="none" xmlns="http://www.w3.org/2000/svg">
<path fill-rule="evenodd" clip-rule="evenodd" d="M0 24.0642C0 23.1526 0.362124 22.2783 1.00671 21.6337C1.65129 20.9892 2.52554 20.627 3.43712 20.627H43.2595L28.5006 5.87494C27.8552 5.22954 27.4926 4.35419 27.4926 3.44146C27.4926 2.52873 27.8552 1.65338 28.5006 1.00798C29.146 0.362582 30.0213 0 30.934 0C31.8468 0 32.7221 0.362582 33.3675 1.00798L53.9902 21.6307C54.3103 21.95 54.5643 22.3292 54.7375 22.7468C54.9108 23.1644 55 23.6121 55 24.0642C55 24.5163 54.9108 24.9639 54.7375 25.3815C54.5643 25.7991 54.3103 26.1784 53.9902 26.4976L33.3675 47.1203C32.7221 47.7657 31.8468 48.1283 30.934 48.1283C30.0213 48.1283 29.146 47.7657 28.5006 47.1203C27.8552 46.4749 27.4926 45.5996 27.4926 44.6869C27.4926 43.7741 27.8552 42.8988 28.5006 42.2534L43.2595 27.5013H3.43712C2.52554 27.5013 1.65129 27.1391 1.00671 26.4946C0.362124 25.85 0 24.9757 0 24.0642Z" fill="black"/>
</svg>
