<svg width="101" height="101" viewBox="0 0 101 101" fill="none" xmlns="http://www.w3.org/2000/svg">
<g filter="url(#filter0_d_588_199)">
<path d="M82 48.5C82 66.4493 67.4493 81 49.5 81C31.5507 81 17 66.4493 17 48.5C17 39.0854 21.0031 30.6058 27.4 24.6704C33.199 19.2898 40.9653 16 49.5 16C67.4493 16 82 30.5507 82 48.5Z" fill="url(#paint0_linear_588_199)"/>
<path d="M68.9528 48.5226C68.9528 59.2532 60.243 67.952 49.4989 67.952C38.7548 67.952 30.0449 59.2532 30.0449 48.5226C30.0449 43.4215 38.7992 43.4779 35.2326 35.313C31.6661 27.1481 43.8623 29.0932 49.4989 29.0932C60.243 29.0932 68.9528 37.792 68.9528 48.5226Z" fill="white"/>
<circle cx="49.5008" cy="48.496" r="13.0077" fill="#FF610D"/>
<circle cx="49.5008" cy="48.5008" r="9.70779" fill="white"/>
<path d="M55.3447 42.696C55.1653 41.9435 52.9295 41.1733 51.8341 40.8823C51.4202 40.7602 50.4319 40.4882 49.7896 40.3762C48.9867 40.2363 50.3851 36.6185 51.6171 35.3307C52.6026 34.3003 55.6631 34.8881 57.0511 35.3303L63.3541 40.786C63.8807 43.5323 64.8053 49.4531 64.2905 51.1665C63.6469 53.3082 58.9693 51.4414 58.1664 51.3015C57.3635 51.1616 56.8402 48.9668 57.9973 47.3654C59.1545 45.7639 55.569 43.6366 55.3447 42.696Z" fill="white"/>
<path d="M52.4381 35.8945C52.1161 35.4883 50.9881 35.4872 49.9006 35.4884L49.5381 38.7882H51.7131C52.8006 38.7882 52.6936 36.2169 52.4381 35.8945Z" fill="#FF610D"/>
<path d="M59.2489 50.7801C58.5989 51.4301 58.5711 52.1746 57.949 53.3795L61.1151 54.3547C61.8489 52.7301 62.1739 52.0801 61.8489 51.7551C61.1989 51.1051 59.5739 50.4551 59.2489 50.7801Z" fill="#FF610D"/>
<circle cx="60.857" cy="45.5054" r="1.64994" fill="#FF7A1D"/>
</g>
<defs>
<filter id="filter0_d_588_199" x="0" y="0" width="101" height="101" filterUnits="userSpaceOnUse" color-interpolation-filters="sRGB">
<feFlood flood-opacity="0" result="BackgroundImageFix"/>
<feColorMatrix in="SourceAlpha" type="matrix" values="0 0 0 0 0 0 0 0 0 0 0 0 0 0 0 0 0 0 127 0" result="hardAlpha"/>
<feOffset dx="1" dy="2"/>
<feGaussianBlur stdDeviation="9"/>
<feComposite in2="hardAlpha" operator="out"/>
<feColorMatrix type="matrix" values="0 0 0 0 0 0 0 0 0 0 0 0 0 0 0 0 0 0 0.1 0"/>
<feBlend mode="normal" in2="BackgroundImageFix" result="effect1_dropShadow_588_199"/>
<feBlend mode="normal" in="SourceGraphic" in2="effect1_dropShadow_588_199" result="shape"/>
</filter>
<linearGradient id="paint0_linear_588_199" x1="25.6045" y1="69.4385" x2="118.842" y2="-4.43237" gradientUnits="userSpaceOnUse">
<stop stop-color="#FF4D00"/>
<stop offset="1" stop-color="#FFF46B"/>
</linearGradient>
</defs>
</svg>
