<svg width="373" height="299" viewBox="0 0 373 299" fill="none" xmlns="http://www.w3.org/2000/svg">
<path d="M343.97 141.198C343.97 141.198 338.472 140.8 338.978 153.13C339.484 165.461 340.745 172.026 340.745 172.026C340.745 172.026 340.583 174.732 338.467 174.226C336.352 173.72 332.38 171.024 330.392 173.018C328.404 175.012 329.072 178.243 331.776 181.97C334.481 185.697 340.122 194.079 340.613 194.821C341.103 195.562 341.285 196.966 339.808 196.853C338.33 196.741 328.183 193.288 326.843 198.204C325.503 203.119 334.741 212.248 335.728 213.269C336.715 214.291 336.774 214.929 336.406 215.543C336.037 216.157 332.714 214.683 329.788 213.824C326.863 212.965 323.333 212.469 322.798 215.381C322.263 218.293 326.327 226.744 341.57 235.676L348.923 239.31L355.865 234.89C370.135 224.509 373.341 215.675 372.516 212.847C371.691 210.018 368.221 210.858 365.403 212.002C362.585 213.146 359.458 214.949 358.992 214.379C358.525 213.809 358.501 213.151 359.404 212.042C360.307 210.932 368.564 200.91 366.743 196.166C364.922 191.422 355.192 195.847 353.71 196.132C352.227 196.416 352.291 195.002 352.728 194.212C353.165 193.421 357.917 184.504 360.234 180.526C362.551 176.549 362.939 173.327 360.725 171.481C358.511 169.635 354.878 172.748 352.826 173.514C350.774 174.28 350.337 171.55 350.337 171.55C350.337 171.55 350.936 164.891 350.205 152.576C349.473 140.26 343.916 141.252 343.916 141.252" fill="#EBEBEB"/>
<path d="M344.402 152.261V152.517C344.402 152.689 344.437 152.949 344.466 153.273C344.51 153.951 344.574 154.933 344.662 156.185C344.829 158.714 345.045 162.372 345.296 166.9C345.787 175.945 346.386 188.452 346.989 202.255C347.593 216.059 348.148 228.575 348.595 237.611C348.825 242.123 349.017 245.782 349.144 248.325C349.203 249.589 349.251 250.561 349.287 251.242C349.277 251.495 349.289 251.748 349.321 251.998C349.326 252.085 349.326 252.172 349.321 252.259V251.998C349.326 251.745 349.304 251.491 349.257 251.242C349.213 250.565 349.144 249.587 349.061 248.335C348.894 245.801 348.678 242.143 348.428 237.62C347.937 228.575 347.338 216.068 346.739 202.265C346.14 188.462 345.576 175.955 345.119 166.909C344.898 162.397 344.707 158.738 344.579 156.195C344.52 154.943 344.466 153.965 344.437 153.278C344.446 153.025 344.434 152.772 344.402 152.522C344.397 152.435 344.397 152.348 344.402 152.261V152.261Z" fill="#E0E0E0"/>
<path d="M335.821 176.947C335.988 177.054 336.14 177.183 336.273 177.33C336.558 177.585 336.95 177.968 337.436 178.449C338.418 179.402 339.709 180.762 341.118 182.294L344.702 186.222L345.796 187.406C345.938 187.543 346.065 187.694 346.174 187.858C346.005 187.756 345.851 187.63 345.718 187.484C345.438 187.229 345.04 186.841 344.559 186.365C343.577 185.383 342.321 184.018 340.912 182.486L337.294 178.592L336.199 177.413C336.055 177.274 335.928 177.117 335.821 176.947V176.947Z" fill="#E0E0E0"/>
<path d="M346.906 187.627C346.852 187.573 349.532 184.759 352.89 181.346C356.248 177.934 359.026 175.218 359.085 175.262C359.144 175.306 356.454 178.12 353.096 181.533C349.738 184.946 346.96 187.681 346.906 187.627Z" fill="#E0E0E0"/>
<path d="M346.872 208.865C347.022 208.738 347.187 208.629 347.362 208.541L348.796 207.73C350.004 207.053 351.677 206.105 353.474 205.025C355.271 203.944 356.856 202.864 358.04 202.078L359.394 201.165C359.555 201.041 359.729 200.937 359.915 200.856C359.779 201.008 359.624 201.141 359.453 201.253C359.149 201.494 358.702 201.838 358.133 202.236C357.014 203.051 355.428 204.141 353.612 205.246C351.795 206.351 350.116 207.279 348.874 207.912C348.256 208.231 347.755 208.482 347.402 208.644C347.234 208.738 347.056 208.812 346.872 208.865V208.865Z" fill="#E0E0E0"/>
<path d="M334.727 201.44C334.899 201.499 335.063 201.578 335.217 201.676C335.537 201.848 335.988 202.103 336.572 202.412C337.687 203.051 339.213 203.944 340.897 204.946C342.581 205.948 344.098 206.866 345.193 207.549L346.493 208.374C346.654 208.468 346.804 208.58 346.94 208.707C346.767 208.651 346.602 208.572 346.449 208.472L345.094 207.73C343.98 207.097 342.443 206.203 340.76 205.201C339.076 204.2 337.559 203.281 336.474 202.604C335.924 202.265 335.492 201.98 335.188 201.784C335.021 201.688 334.866 201.572 334.727 201.44V201.44Z" fill="#E0E0E0"/>
<path d="M332.356 220.198C332.58 220.28 332.795 220.384 332.999 220.507L334.712 221.455C336.145 222.26 338.094 223.39 340.284 224.652C342.473 225.914 344.417 227.073 345.821 227.922L347.485 228.939C347.695 229.056 347.893 229.194 348.074 229.351C347.84 229.265 347.613 229.158 347.397 229.032L345.693 228.094C344.26 227.289 342.311 226.159 340.117 224.892C337.922 223.626 335.988 222.476 334.584 221.627L332.91 220.586C332.713 220.476 332.527 220.346 332.356 220.198V220.198Z" fill="#E0E0E0"/>
<path d="M347.716 229.027C347.917 228.864 348.132 228.72 348.359 228.595L350.141 227.51C351.648 226.592 353.715 225.32 355.968 223.852C358.221 222.383 360.229 221.008 361.667 220.002L363.385 218.813C363.596 218.652 363.823 218.514 364.063 218.401C363.875 218.575 363.679 218.739 363.474 218.892C363.091 219.196 362.521 219.628 361.81 220.154C360.396 221.205 358.427 222.609 356.149 224.082C353.872 225.555 351.8 226.788 350.259 227.677C349.493 228.114 348.865 228.462 348.433 228.683C348.203 228.817 347.964 228.932 347.716 229.027V229.027Z" fill="#E0E0E0"/>
<path d="M358.741 241.681H338.453L345.075 291.817H352.119L358.741 241.681Z" fill="#E0E0E0"/>
<path d="M339.508 247.844C339.508 247.844 339.508 247.913 339.616 248.021C339.75 248.175 339.918 248.296 340.107 248.374C340.461 248.497 340.838 248.537 341.21 248.491C341.582 248.445 341.939 248.314 342.252 248.109C343.072 247.657 343.789 246.759 344.883 246.376C346.102 245.991 347.413 246.019 348.614 246.454C349.836 246.871 351.001 247.437 352.085 248.139C352.993 248.704 353.938 249.21 354.912 249.651C355.576 249.945 356.276 250.148 356.994 250.255C357.189 250.28 357.386 250.294 357.583 250.294H357.794C356.829 250.149 355.89 249.866 355.006 249.455C354.057 248.988 353.135 248.467 352.247 247.893C351.146 247.165 349.956 246.581 348.707 246.155C347.441 245.696 346.056 245.682 344.78 246.116C344.24 246.332 343.742 246.641 343.308 247.029C342.941 247.355 342.552 247.655 342.144 247.928C341.861 248.123 341.539 248.255 341.2 248.314C340.861 248.374 340.513 248.359 340.181 248.271C339.93 248.175 339.702 248.03 339.508 247.844V247.844Z" fill="#F5F5F5"/>
<path d="M340.244 257.115C340.244 257.115 340.406 256.904 340.735 256.57C341.198 256.119 341.75 255.769 342.355 255.544C343.267 255.2 344.239 255.043 345.212 255.082C346.397 255.175 347.576 255.339 348.742 255.573C349.932 255.799 351.15 255.849 352.355 255.721C353.338 255.591 354.297 255.318 355.202 254.91C355.805 254.63 356.378 254.288 356.91 253.889C357.112 253.751 357.293 253.585 357.45 253.398C356.702 253.889 355.918 254.323 355.104 254.694C354.213 255.059 353.276 255.302 352.32 255.416C351.143 255.525 349.956 255.465 348.796 255.239C347.614 255.01 346.419 254.855 345.217 254.778C344.222 254.741 343.23 254.908 342.301 255.269C341.674 255.522 341.116 255.919 340.671 256.428C340.556 256.568 340.454 256.72 340.367 256.879C340.264 257.012 340.239 257.071 340.244 257.115Z" fill="#F5F5F5"/>
<path d="M356.439 262.016C356.273 261.886 356.083 261.791 355.879 261.736C355.341 261.53 354.775 261.406 354.201 261.367C353.35 261.318 352.496 261.369 351.658 261.52C350.715 261.667 349.694 261.932 348.639 262.153C347.648 262.39 346.633 262.505 345.615 262.497C344.789 262.477 343.974 262.3 343.214 261.976C342.524 261.652 341.904 261.193 341.393 260.626C341.476 260.821 341.594 260.999 341.742 261.151C342.119 261.584 342.578 261.937 343.092 262.192C343.872 262.555 344.716 262.762 345.576 262.801C346.619 262.831 347.663 262.722 348.678 262.477C349.753 262.256 350.759 261.986 351.687 261.8C352.496 261.644 353.319 261.575 354.142 261.593C354.922 261.641 355.693 261.783 356.439 262.016V262.016Z" fill="#F5F5F5"/>
<path d="M342.036 268.974C342.656 268.711 343.34 268.642 344 268.778C344.706 268.952 345.388 269.211 346.032 269.548C347.221 270.114 348.532 270.374 349.847 270.306C351.162 270.237 352.439 269.842 353.562 269.156C353.998 268.892 354.403 268.58 354.77 268.228C354.91 268.102 355.031 267.957 355.128 267.795C354.59 268.213 354.027 268.6 353.445 268.954C351.998 269.745 350.349 270.087 348.707 269.936C346.788 269.828 345.325 268.679 343.975 268.532C343.464 268.439 342.937 268.483 342.449 268.66C342.287 268.729 342.146 268.837 342.036 268.974Z" fill="#F5F5F5"/>
<path d="M343.155 278.594C343.736 278.607 344.313 278.491 344.844 278.255C345.86 277.916 347.122 277.13 348.599 276.546C349.284 276.265 350.015 276.114 350.754 276.099C351.354 276.096 351.947 276.23 352.487 276.492C352.98 276.754 353.408 277.123 353.739 277.572C353.718 277.414 353.652 277.266 353.548 277.145C353.303 276.787 352.977 276.492 352.595 276.286C352.031 275.975 351.399 275.806 350.754 275.795C349.975 275.795 349.203 275.947 348.482 276.242C346.955 276.85 345.728 277.656 344.756 278.039C343.784 278.422 343.155 278.545 343.155 278.594Z" fill="#F5F5F5"/>
<path d="M344.167 283.077C344.573 283.277 345.006 283.416 345.453 283.489C347.568 283.999 349.744 284.212 351.918 284.123C352.373 284.136 352.827 284.085 353.268 283.971C353.268 283.867 351.241 283.971 348.703 283.705C346.165 283.44 344.186 282.974 344.167 283.077Z" fill="#F5F5F5"/>
<path d="M370.906 0.915283V54.8275H301.291L298.783 1.29339L370.906 0.915283Z" fill="#E0E0E0"/>
<path d="M368.397 1.22949H298.783V54.8275H368.397V1.22949Z" fill="white"/>
<path d="M368.682 55.0926H298.518V0.974121H368.682V55.0926ZM299.068 54.5623H368.132V1.49463H299.043L299.068 54.5623Z" fill="#E0E0E0"/>
<path d="M360.857 6.73901H306.323V47.776H360.857V6.73901Z" fill="white"/>
<path d="M360.857 6.73914H356.851L345.669 6.82753L306.338 6.88645L306.466 6.76369V47.8006L306.323 47.6582H360.828L360.71 47.7761C360.71 35.3771 360.759 25.1289 360.774 17.9792V17.9105C360.774 25.0749 360.808 35.3427 360.833 47.7761V47.889H306.215V47.7565V6.58691H306.338L345.767 6.65075H360.872L360.857 6.73914Z" fill="#E0E0E0"/>
<path d="M298.773 1.10181C299.19 1.30219 299.585 1.54578 299.952 1.82856C300.663 2.31961 301.63 2.97761 302.656 3.74856C303.682 4.51951 304.62 5.25608 305.288 5.77659C305.66 6.05039 306 6.3668 306.299 6.71941C305.899 6.48988 305.52 6.22706 305.165 5.93373L302.46 3.96953L299.79 2.00534C299.422 1.7385 299.081 1.43584 298.773 1.10181V1.10181Z" fill="#E0E0E0"/>
<path d="M368.432 1.22461C367.251 2.26423 366.008 3.23171 364.711 4.1218C363.478 5.07584 362.191 5.95792 360.857 6.76364C362.028 5.73684 363.257 4.7793 364.539 3.89591C365.781 2.92767 367.081 2.0356 368.432 1.22461V1.22461Z" fill="#E0E0E0"/>
<path d="M360.577 47.7712C361.971 48.8473 363.308 49.9946 364.583 51.2086C365.927 52.3634 367.212 53.5861 368.432 54.8718C367.019 53.7983 365.664 52.6509 364.372 51.4345C363.045 50.2797 361.778 49.057 360.577 47.7712V47.7712Z" fill="#E0E0E0"/>
<path d="M298.773 54.8571C299.924 53.6365 301.138 52.4777 302.411 51.3854C303.626 50.2274 304.905 49.1372 306.24 48.1199C305.088 49.3376 303.874 50.4947 302.602 51.5867C301.386 52.7449 300.108 53.8366 298.773 54.8571V54.8571Z" fill="#E0E0E0"/>
<path d="M346.744 26.8821C346.472 28.156 345.829 29.3208 344.896 30.229C343.962 31.1372 342.781 31.7481 341.5 31.9845C340.22 32.2208 338.898 32.0719 337.702 31.5567C336.506 31.0414 335.49 30.1829 334.781 29.0898C334.073 27.9967 333.705 26.7181 333.724 25.4156C333.742 24.1132 334.146 22.8455 334.885 21.7729C335.624 20.7002 336.664 19.8708 337.874 19.3896C339.084 18.9084 340.41 18.797 341.683 19.0695C343.389 19.4347 344.881 20.4628 345.83 21.9278C346.779 23.3928 347.108 25.1748 346.744 26.8821V26.8821Z" fill="#F5F5F5"/>
<path d="M338.168 31.7679C338.303 31.145 338.494 30.5353 338.737 29.9461C339.238 28.5297 339.442 27.0253 339.336 25.5267C339.187 24.0413 338.503 22.6608 337.412 21.6425C336.92 21.2725 336.397 20.944 335.851 20.6604C336.517 20.6812 337.153 20.9409 337.643 21.3921C338.264 21.8957 338.779 22.5181 339.157 23.2229C339.536 23.9277 339.77 24.7009 339.847 25.4972C339.969 27.0725 339.705 28.6538 339.076 30.1033C338.874 30.7074 338.566 31.271 338.168 31.7679V31.7679Z" fill="#E0E0E0"/>
<path d="M346.66 24.7213C346.66 24.8735 344.888 24.2302 342.831 24.8539C340.775 25.4775 339.655 26.9212 339.547 26.8181C339.439 26.7149 339.695 26.3663 340.225 25.836C340.91 25.1415 341.758 24.6304 342.693 24.3498C343.627 24.0692 344.616 24.0281 345.571 24.2302C346.287 24.4119 346.69 24.6574 346.66 24.7213Z" fill="#E0E0E0"/>
<path d="M343.69 24.4119C343.612 24.4119 343.646 23.9552 343.406 23.3021C343.288 22.9324 343.098 22.5896 342.847 22.2935C342.596 21.9975 342.289 21.7539 341.944 21.5769C341.598 21.3998 341.221 21.2928 340.835 21.2619C340.448 21.231 340.059 21.2768 339.69 21.3968C339.496 21.4572 339.31 21.5396 339.135 21.6424C338.526 21.9517 338.242 22.3151 338.153 22.2611C338.065 22.2071 338.291 21.77 338.924 21.3281C339.342 21.0348 339.826 20.8494 340.334 20.7884C340.841 20.7273 341.355 20.7924 341.831 20.978C342.307 21.1636 342.73 21.4639 343.062 21.8522C343.394 22.2405 343.625 22.7048 343.735 23.2039C343.879 23.5967 343.864 24.0307 343.69 24.4119V24.4119Z" fill="#E0E0E0"/>
<path d="M341.594 25.0897C341.447 25.0897 341.555 24.1568 341.29 23.1256C341.025 22.0943 340.539 21.3136 340.662 21.2203C340.784 21.127 341.506 21.8194 341.791 23.0126C342.075 24.2059 341.717 25.0897 341.594 25.0897Z" fill="#E0E0E0"/>
<path d="M341.536 23.0124C341.536 23.1646 340.961 23.1941 340.416 23.5034C339.871 23.8128 339.434 24.1811 339.312 24.0681C339.189 23.9552 339.493 23.4347 340.181 23.0517C340.868 22.6686 341.56 22.8896 341.536 23.0124Z" fill="#E0E0E0"/>
<path d="M331.006 26.0962C331.762 26.7323 332.313 27.5784 332.589 28.5276C332.865 29.4767 332.853 30.4864 332.555 31.4289C332.257 32.3714 331.687 33.2045 330.916 33.8228C330.145 34.4411 329.208 34.8169 328.224 34.9027C327.239 34.9885 326.252 34.7804 325.385 34.3047C324.519 33.8291 323.813 33.1072 323.357 32.2304C322.901 31.3536 322.715 30.3611 322.822 29.3786C322.93 28.396 323.326 27.4673 323.961 26.71V26.71C324.815 25.6947 326.036 25.0598 327.357 24.9447C328.677 24.8296 329.99 25.2438 331.006 26.0962V26.0962Z" fill="#F5F5F5"/>
<path d="M331.237 33.5847C330.869 33.2709 330.529 32.9258 330.22 32.5535C329.448 31.7152 328.51 31.0463 327.466 30.5893C326.42 30.1567 325.251 30.1235 324.182 30.496C323.755 30.6881 323.343 30.913 322.95 31.1687C323.209 30.737 323.607 30.4063 324.079 30.2308C324.64 29.9952 325.241 29.8738 325.849 29.8738C326.457 29.8738 327.058 29.9952 327.619 30.2308C328.714 30.711 329.676 31.4509 330.422 32.3865C330.761 32.7357 331.036 33.1411 331.237 33.5847V33.5847Z" fill="#E0E0E0"/>
<path d="M329.523 25.3792C328.942 26.1645 328.509 27.05 328.247 27.9916C328.11 28.9592 328.158 29.9441 328.389 30.8937C328.34 30.8937 328.139 30.6285 327.962 30.0982C327.749 29.3896 327.717 28.6392 327.867 27.9147C328.017 27.1903 328.345 26.5146 328.821 25.9488C329.204 25.5216 329.489 25.3448 329.523 25.3792Z" fill="#E0E0E0"/>
<path d="M328.237 27.2503C328.208 27.3044 327.913 27.1178 327.403 27.0441C327.074 26.9859 326.737 27.0013 326.416 27.0891C326.094 27.177 325.796 27.3351 325.543 27.5521C325.29 27.7691 325.088 28.0396 324.952 28.3441C324.816 28.6485 324.749 28.9794 324.757 29.3127C324.757 29.8333 324.894 30.1524 324.83 30.177C324.767 30.2015 324.555 29.9118 324.487 29.3275C324.444 28.9436 324.493 28.555 324.632 28.1944C324.77 27.8337 324.993 27.5117 325.282 27.2552C325.58 27.0075 325.932 26.8338 326.31 26.7485C326.688 26.6631 327.081 26.6685 327.457 26.7642C328.021 26.9361 328.267 27.2209 328.237 27.2503Z" fill="#E0E0E0"/>
<path d="M327.938 28.905C327.859 28.9934 327.299 28.6006 326.504 28.414C325.709 28.2274 325.031 28.2617 325.002 28.1537C325.242 28.0163 325.51 27.9344 325.786 27.914C326.062 27.8936 326.339 27.9352 326.597 28.0359C327.515 28.247 328.031 28.8363 327.938 28.905Z" fill="#E0E0E0"/>
<path d="M326.553 28.2078C326.656 28.2717 326.475 28.6547 326.465 29.1212C326.455 29.5877 326.563 30.0345 326.465 30.0689C326.367 30.1033 326.116 29.7154 326.102 29.1163C326.087 28.5172 326.499 28.1587 326.553 28.2078Z" fill="#E0E0E0"/>
<path d="M331.236 24.4119C329.469 23.2628 328.389 21.2152 327.682 19.2264C326.982 17.2194 326.954 15.0387 327.604 13.0146C328.578 13.453 329.455 14.0795 330.187 14.8582C330.918 15.6368 331.488 16.5522 331.865 17.5519C332.601 19.5505 332.169 22.4919 331.251 24.4266" fill="#EBEBEB"/>
<path d="M329.165 16.241C329.946 18.8216 330.578 21.4448 331.06 24.0977Z" fill="white"/>
<path d="M331.06 24.0879C330.911 23.7194 330.804 23.3357 330.74 22.9438C330.554 22.1286 330.328 21.2006 330.063 20.1743C329.798 19.148 329.572 18.2101 329.39 17.4048C329.264 17.0279 329.183 16.6371 329.15 16.241C329.335 16.5929 329.479 16.9654 329.577 17.3507C329.803 18.0284 330.068 19.0154 330.343 20.1055C330.618 21.1956 330.804 22.1876 330.917 22.9045C331.011 23.292 331.059 23.6892 331.06 24.0879V24.0879Z" fill="#E0E0E0"/>
<path d="M335.684 33.3441C337.746 32.9119 339.96 33.5847 341.864 34.498C343.769 35.4244 345.32 36.9466 346.282 38.834C344.269 39.5907 342.037 39.5165 340.078 38.6277C338.143 37.734 336.371 35.3525 335.659 33.3441" fill="#EBEBEB"/>
<path d="M342.886 37.6458C340.517 36.3735 338.223 34.9685 336.013 33.4375Z" fill="white"/>
<path d="M336.003 33.4375C336.369 33.5935 336.716 33.7895 337.039 34.0218L339.459 35.495L341.913 36.9681C342.265 37.1542 342.595 37.3799 342.895 37.6409C342.516 37.5223 342.154 37.3574 341.815 37.1498C341.138 36.8159 340.279 36.3249 339.326 35.7405C338.374 35.1562 337.525 34.5915 336.931 34.1643C336.594 33.9587 336.283 33.7148 336.003 33.4375V33.4375Z" fill="#E0E0E0"/>
<path d="M333.691 34.3263C333.985 35.5753 333.868 36.886 333.357 38.0631C332.924 39.2572 332.112 40.2765 331.045 40.9652C330.76 40.3944 330.592 39.7724 330.551 39.1358C330.51 38.4992 330.596 37.8607 330.805 37.2578C331.38 35.9599 332.405 34.9136 333.691 34.3115" fill="#EBEBEB"/>
<path d="M331.546 38.8636C332.163 37.3781 332.865 35.9288 333.647 34.5227Z" fill="white"/>
<path d="M333.652 34.5422C333.386 35.2999 333.058 36.0341 332.67 36.7372C332.361 37.4831 331.988 38.201 331.556 38.8831C331.739 38.0896 332.03 37.3247 332.42 36.6096C332.725 35.8631 333.141 35.1663 333.652 34.5422V34.5422Z" fill="#E0E0E0"/>
<path d="M100.922 141.596H25.9419V283.371H100.922V141.596Z" fill="#E0E0E0"/>
<path d="M78.6644 141.596H3.68457V283.371H78.6644V141.596Z" fill="#F5F5F5"/>
<path d="M73.1615 170.779H8.79004V148.309H73.1615V170.779ZM9.57548 169.988H72.3466V149.099H9.58039L9.57548 169.988Z" fill="#E0E0E0"/>
<path d="M29.1914 148.706H53.6185V149.836C53.6185 150.724 53.2658 151.576 52.6379 152.204C52.0101 152.832 51.1585 153.185 50.2706 153.185H32.5344C31.6465 153.185 30.795 152.832 30.1671 152.204C29.5393 151.576 29.1865 150.724 29.1865 149.836V149.836V148.706H29.1914Z" fill="#EBEBEB"/>
<path d="M73.1615 199.323H8.79004V176.853H73.1615V199.323ZM9.57548 198.552H72.3466V177.644H9.58039L9.57548 198.552Z" fill="#E0E0E0"/>
<path d="M29.1914 177.251H53.6185V178.38C53.6185 179.269 53.2658 180.12 52.6379 180.748C52.0101 181.377 51.1585 181.729 50.2706 181.729H32.5344C31.6465 181.729 30.795 181.377 30.1671 180.748C29.5393 180.12 29.1865 179.269 29.1865 178.38V178.38V177.251H29.1914Z" fill="#EBEBEB"/>
<path d="M73.1615 227.873H8.79004V205.427H73.1615V227.873ZM9.57548 227.083H72.3466V206.193H9.58039L9.57548 227.083Z" fill="#E0E0E0"/>
<path d="M29.1914 205.801H53.6185V206.93C53.6185 207.818 53.2658 208.67 52.6379 209.298C52.0101 209.926 51.1585 210.279 50.2706 210.279H32.5344C31.6465 210.279 30.795 209.926 30.1671 209.298C29.5393 208.67 29.1865 207.818 29.1865 206.93V206.93V205.801H29.1914Z" fill="#EBEBEB"/>
<path d="M73.1615 256.432H8.79004V233.947H73.1615V256.432ZM9.57548 255.642H72.3466V234.738H9.58039L9.57548 255.642Z" fill="#E0E0E0"/>
<path d="M29.1914 234.345H53.6185V235.465C53.6185 236.353 53.2658 237.205 52.6379 237.833C52.0101 238.461 51.1585 238.814 50.2706 238.814H32.5393C31.6518 238.812 30.801 238.459 30.1734 237.831C29.5458 237.204 29.1927 236.353 29.1914 235.465V235.465V234.345Z" fill="#EBEBEB"/>
<path d="M81.8013 136.292H0.366211V143.354H81.8013V136.292Z" fill="#EBEBEB"/>
<path d="M106.287 136.292H81.8013V143.354H106.287V136.292Z" fill="#E0E0E0"/>
<path d="M7.62648 283.372H3.68457V290.615H7.62648V283.372Z" fill="#E0E0E0"/>
<path d="M31.9702 283.372H28.0283V290.615H31.9702V283.372Z" fill="#E0E0E0"/>
<path d="M76.4458 283.372H72.5039V290.615H76.4458V283.372Z" fill="#E0E0E0"/>
<path d="M98.6782 283.372H94.7363V290.615H98.6782V283.372Z" fill="#E0E0E0"/>
<path d="M60.29 117.559L67.8695 137.476L63.1569 137.456L59.377 125.21L60.29 117.559Z" fill="#E0E0E0"/>
<path d="M34.3806 99.1545L31.7739 137.319L58.6899 137.893L61.7236 99.1545H34.3806Z" fill="#EBEBEB"/>
<path d="M37.0706 102.223L34.9009 133.989L54.9197 134.962L57.7129 102.037L37.0706 102.223Z" fill="#FAFAFA"/>
<path d="M41.4691 106.717L39.8442 129.045H50.8796L52.8285 106.717H41.4691Z" fill="#E0E0E0"/>
<path d="M71.0507 2.41797H22.8003V82.3116H71.0507V2.41797Z" fill="#E0E0E0"/>
<path d="M69.4501 2.41797H21.1997V82.3116H69.4501V2.41797Z" fill="#EBEBEB"/>
<path d="M67.3984 4.03833H23.2568V80.6911H67.3984V4.03833Z" fill="#FAFAFA"/>
<path d="M58.8024 13.9968H31.6558V70.7277H58.8024V13.9968Z" fill="#EBEBEB"/>
<path d="M31.6559 50.6535C31.5921 45.3453 36.344 40.1893 41.6064 39.4527C44.1051 39.0992 46.7608 39.6 49.1024 38.6376C53.2751 36.8944 54.6005 31.3799 58.8026 29.7349L58.994 70.7375H31.6805L31.6559 50.6535Z" fill="#E0E0E0"/>
<path d="M271.072 207.392L265.775 271.861L264.896 282.522H259.85C259.418 279.031 257.396 275.824 255.191 274.209C253.712 273.129 252.049 272.327 250.282 271.842C248.902 271.462 247.477 271.271 246.046 271.272H232.576C231.886 271.27 231.197 271.314 230.514 271.405C229.786 271.506 229.064 271.652 228.354 271.842C225.971 272.463 223.794 273.704 222.045 275.438C220.296 277.172 219.036 279.338 218.394 281.717H213.976L213.558 271.861L210.721 207.392H271.072Z" fill="#E1E1E2"/>
<path d="M265.775 271.861L264.897 282.522H259.85C259.418 279.031 257.396 275.824 255.191 274.209C253.712 273.129 252.049 272.327 250.282 271.842L265.775 271.861Z" fill="#9EA0A3"/>
<path d="M272.987 204.593H208.154C206.98 204.593 206.028 205.544 206.028 206.719V208.094C206.028 209.268 206.98 210.22 208.154 210.22H272.987C274.161 210.22 275.112 209.268 275.112 208.094V206.719C275.112 205.544 274.161 204.593 272.987 204.593Z" fill="#9EA0A3"/>
<path d="M213.558 271.861H228.374C225.99 272.483 223.814 273.723 222.065 275.458C220.315 277.192 219.056 279.358 218.413 281.736H213.995L213.558 271.861Z" fill="#9EA0A3"/>
<path d="M218.418 247.643L219.223 267.732L260.768 268.188L262.417 247.643H218.418Z" fill="#9EA0A3"/>
<path d="M217.387 221.121L218.074 242.821L260.194 243.277L261.386 221.121H217.387Z" fill="#9EA0A3"/>
<path d="M241.373 234.782C242.449 234.782 243.322 233.909 243.322 232.833C243.322 231.756 242.449 230.883 241.373 230.883C240.296 230.883 239.424 231.756 239.424 232.833C239.424 233.909 240.296 234.782 241.373 234.782Z" fill="#E1E1E2"/>
<path d="M240.455 260.842C241.531 260.842 242.404 259.969 242.404 258.893C242.404 257.816 241.531 256.943 240.455 256.943C239.378 256.943 238.506 257.816 238.506 258.893C238.506 259.969 239.378 260.842 240.455 260.842Z" fill="#E1E1E2"/>
<path d="M264.44 287.152L256.046 293.816C255.927 293.912 255.84 294.041 255.797 294.187C255.753 294.334 255.755 294.49 255.803 294.635C255.85 294.78 255.941 294.907 256.062 294.999C256.184 295.091 256.33 295.145 256.482 295.152L269.624 295.643L270.753 292.696L271.784 295.682H274.803C274.803 295.682 275.785 285.463 273.963 286.038L272.982 284.201L267.498 285.576L264.44 287.152Z" fill="#F28500"/>
<path d="M318.169 298.236L312.906 295.672C312.593 295.521 312.334 295.275 312.166 294.97C311.998 294.665 311.929 294.315 311.969 293.968L312.867 285.969L318.449 285.169L323.461 292.922C323.676 293.257 323.766 293.657 323.715 294.051C323.664 294.446 323.475 294.81 323.181 295.078L320.044 297.961C319.794 298.188 319.483 298.336 319.148 298.385C318.814 298.434 318.473 298.382 318.169 298.236V298.236Z" fill="#F28500"/>
<path d="M68.4882 41.1223H182.411C184.322 41.1223 186.155 41.8818 187.507 43.2336C188.858 44.5855 189.617 46.4191 189.617 48.3309V286.941C189.617 288.143 189.14 289.296 188.29 290.146C187.441 290.996 186.288 291.474 185.086 291.474H65.7981C64.5964 291.474 63.4439 290.996 62.5942 290.146C61.7445 289.296 61.2671 288.143 61.2671 286.941V48.2916C61.2671 46.3798 62.0263 44.5462 63.3778 43.1944C64.7292 41.8425 66.5622 41.083 68.4735 41.083L68.4882 41.1223Z" fill="#2E3135"/>
<path d="M79.4056 41.1223H186.726C189.363 41.1223 191.893 42.1705 193.758 44.0362C195.623 45.9019 196.671 48.4324 196.671 51.071V285.041C196.671 286.752 195.992 288.393 194.782 289.604C193.572 290.814 191.932 291.493 190.221 291.493H75.9104C74.1996 291.493 72.5589 290.814 71.3492 289.604C70.1396 288.393 69.46 286.752 69.46 285.041V51.071C69.46 48.4324 70.5078 45.9019 72.373 44.0362C74.2381 42.1705 76.7678 41.1223 79.4056 41.1223V41.1223Z" fill="#3F4347"/>
<path d="M142.472 44.5647H118.786C118.165 44.5647 117.662 45.0682 117.662 45.6892V46.4258C117.662 47.0468 118.165 47.5503 118.786 47.5503H142.472C143.092 47.5503 143.596 47.0468 143.596 46.4258V45.6892C143.596 45.0682 143.092 44.5647 142.472 44.5647Z" fill="#2E3135"/>
<path d="M189.617 51.2234H76.9219V233.864H189.617V51.2234Z" fill="#EBEBEB"/>
<path opacity="0.2" d="M76.9219 233.864H189.617V256.59C189.617 259.893 188.967 263.164 187.703 266.215C186.439 269.267 184.586 272.039 182.251 274.375C179.916 276.71 177.143 278.562 174.092 279.825C171.041 281.088 167.771 281.738 164.469 281.736H96.6707C91.4317 281.736 86.4073 279.655 82.7027 275.949C78.9982 272.243 76.917 267.217 76.917 261.977V233.864H76.9219Z" fill="black"/>
<path d="M189.617 233.864H76.9219V239.835H189.617V233.864Z" fill="#2E3135"/>
<path d="M98.6683 268.881C103.708 268.881 107.794 264.794 107.794 259.752C107.794 254.711 103.708 250.624 98.6683 250.624C93.6282 250.624 89.5425 254.711 89.5425 259.752C89.5425 264.794 93.6282 268.881 98.6683 268.881Z" fill="#7435DC"/>
<path d="M168.327 268.881C173.367 268.881 177.453 264.794 177.453 259.752C177.453 254.711 173.367 250.624 168.327 250.624C163.287 250.624 159.201 254.711 159.201 259.752C159.201 264.794 163.287 268.881 168.327 268.881Z" fill="#7435DC"/>
<path d="M134.013 271.518C141.206 271.518 147.037 265.685 147.037 258.49C147.037 251.295 141.206 245.463 134.013 245.463C126.821 245.463 120.99 251.295 120.99 258.49C120.99 265.685 126.821 271.518 134.013 271.518Z" fill="#7435DC"/>
<path d="M98.6883 265.826C98.6219 265.826 98.5583 265.8 98.5113 265.753C98.4644 265.706 98.438 265.642 98.438 265.576V262.698C98.4494 262.642 98.4801 262.591 98.5248 262.554C98.5695 262.517 98.6256 262.497 98.6834 262.497C98.7413 262.497 98.7973 262.517 98.8421 262.554C98.8868 262.591 98.9175 262.642 98.9289 262.698V265.576C98.9289 265.641 98.9039 265.703 98.8591 265.75C98.8142 265.796 98.753 265.824 98.6883 265.826V265.826Z" fill="white"/>
<path d="M100.244 265.826H97.0927C97.0563 265.834 97.0188 265.833 96.9829 265.824C96.9469 265.815 96.9134 265.798 96.8847 265.774C96.856 265.751 96.8329 265.721 96.8171 265.688C96.8012 265.654 96.793 265.618 96.793 265.581C96.793 265.544 96.8012 265.507 96.8171 265.474C96.8329 265.44 96.856 265.411 96.8847 265.387C96.9134 265.364 96.9469 265.347 96.9829 265.338C97.0188 265.329 97.0563 265.328 97.0927 265.335H100.244C100.301 265.347 100.352 265.377 100.389 265.422C100.425 265.467 100.445 265.523 100.445 265.581C100.445 265.639 100.425 265.695 100.389 265.739C100.352 265.784 100.301 265.815 100.244 265.826Z" fill="white"/>
<path d="M100.696 255.755V259.934C100.722 260.206 100.693 260.48 100.611 260.741C100.529 261.001 100.395 261.242 100.217 261.45C100.039 261.657 99.8218 261.827 99.5772 261.948C99.3326 262.07 99.066 262.141 98.7934 262.157C98.5208 262.173 98.2477 262.134 97.9904 262.043C97.7332 261.951 97.4971 261.808 97.2962 261.623C97.0953 261.438 96.9338 261.214 96.8213 260.965C96.7087 260.716 96.6475 260.447 96.6413 260.174C96.6364 260.094 96.6364 260.014 96.6413 259.934V255.745C96.6229 255.472 96.66 255.198 96.7503 254.94C96.8406 254.681 96.9822 254.444 97.1666 254.242C97.351 254.04 97.5744 253.877 97.8233 253.764C98.0722 253.65 98.3415 253.588 98.615 253.582C98.8885 253.575 99.1604 253.624 99.4146 253.725C99.6687 253.826 99.8997 253.978 100.094 254.171C100.288 254.364 100.441 254.594 100.543 254.848C100.646 255.101 100.696 255.373 100.691 255.647C100.699 255.682 100.7 255.719 100.696 255.755Z" fill="white"/>
<path d="M98.6883 262.939C97.9071 262.939 97.1579 262.628 96.6056 262.076C96.0532 261.523 95.7429 260.774 95.7429 259.993V258.215C95.7365 258.183 95.7368 258.149 95.7435 258.117C95.7502 258.085 95.7634 258.054 95.7822 258.027C95.8009 258 95.825 257.977 95.8528 257.96C95.8806 257.942 95.9117 257.931 95.9442 257.925C96.0092 257.915 96.0755 257.931 96.1288 257.97C96.1821 258.009 96.218 258.067 96.2289 258.131C96.2339 258.159 96.2339 258.187 96.2289 258.215V259.978C96.2289 260.629 96.4875 261.254 96.9478 261.714C97.4081 262.174 98.0324 262.433 98.6834 262.433H98.7766C99.414 262.393 100.013 262.113 100.452 261.649C100.891 261.186 101.138 260.572 101.143 259.934V258.254C101.142 258.222 101.148 258.189 101.16 258.159C101.172 258.128 101.19 258.101 101.213 258.077C101.236 258.054 101.263 258.036 101.293 258.023C101.323 258.01 101.356 258.004 101.388 258.004C101.453 258.004 101.516 258.03 101.562 258.076C101.608 258.122 101.634 258.184 101.634 258.249V259.934C101.645 260.705 101.358 261.452 100.832 262.016C100.305 262.581 99.5814 262.92 98.811 262.963L98.6883 262.939Z" fill="white"/>
<path d="M139.29 257.169V259.816C139.281 260.01 139.196 260.193 139.052 260.325C138.909 260.457 138.719 260.526 138.524 260.518C138.476 260.515 138.428 260.507 138.382 260.493L137.199 260.199L136.625 260.061V256.904L138.195 256.501L138.406 256.447C138.597 256.408 138.796 256.446 138.958 256.553C139.121 256.659 139.235 256.826 139.275 257.017C139.285 257.067 139.29 257.118 139.29 257.169V257.169Z" fill="white"/>
<path d="M134.651 255.239H130.071C129.334 255.239 128.736 255.837 128.736 256.575V260.4C128.736 261.138 129.334 261.736 130.071 261.736H134.651C135.389 261.736 135.986 261.138 135.986 260.4V256.575C135.986 255.837 135.389 255.239 134.651 255.239Z" fill="white"/>
<path d="M168.214 255.848C163.305 255.888 162.323 259.521 162.156 261.358C162.144 261.473 162.161 261.589 162.206 261.696C162.251 261.803 162.321 261.896 162.412 261.968C162.503 262.04 162.61 262.088 162.724 262.108C162.838 262.127 162.955 262.117 163.064 262.08L165.784 261.176C165.883 261.143 165.973 261.089 166.047 261.016C166.122 260.944 166.179 260.855 166.215 260.758C166.251 260.66 166.264 260.556 166.254 260.452C166.244 260.349 166.211 260.249 166.157 260.16L165.912 259.757C165.794 259.554 165.752 259.316 165.794 259.086C165.837 258.855 165.96 258.647 166.142 258.5C166.537 258.185 166.996 257.959 167.487 257.838C167.977 257.718 168.489 257.706 168.985 257.803C169.342 257.812 169.694 257.896 170.018 258.049C170.342 258.202 170.63 258.421 170.865 258.691C170.965 258.804 171.024 258.947 171.034 259.097C171.044 259.247 171.003 259.397 170.919 259.521L170.609 259.983C170.564 260.05 170.533 260.127 170.52 260.207C170.507 260.288 170.512 260.37 170.535 260.448C170.557 260.526 170.597 260.599 170.651 260.66C170.704 260.721 170.77 260.77 170.845 260.803L173.746 262.089C173.828 262.126 173.917 262.142 174.006 262.137C174.095 262.132 174.181 262.105 174.258 262.06C174.335 262.014 174.399 261.95 174.446 261.874C174.493 261.798 174.52 261.712 174.527 261.623C174.659 259.885 174.311 255.804 168.214 255.848Z" fill="white"/>
<path opacity="0.2" d="M66.5245 100.245H65.5132C64.6511 100.245 63.9521 100.944 63.9521 101.806V125.318C63.9521 126.18 64.6511 126.879 65.5132 126.879H66.5245C67.3866 126.879 68.0855 126.18 68.0855 125.318V101.806C68.0855 100.944 67.3866 100.245 66.5245 100.245Z" fill="black"/>
<path opacity="0.2" d="M66.5245 131.466H65.5132C64.6511 131.466 63.9521 132.165 63.9521 133.027V156.539C63.9521 157.401 64.6511 158.1 65.5132 158.1H66.5245C67.3866 158.1 68.0855 157.401 68.0855 156.539V133.027C68.0855 132.165 67.3866 131.466 66.5245 131.466Z" fill="black"/>
<path d="M123.11 115.899L104.923 122.627C104.923 122.627 94.3635 125.038 89.2139 135.487C89.2139 135.487 77.6238 150.067 69.4749 190.647C69.4749 190.647 64.8408 206.105 74.4379 216.181C76.801 218.693 79.9203 220.362 83.3201 220.935C86.72 221.507 90.2138 220.952 93.2688 219.354L93.5731 219.187L92.1937 233.879H168.352C168.352 233.879 168.155 206.871 168.327 200.409C168.327 200.409 174.468 205.639 184.222 199.329L223.931 176.136L219.223 152.262L185.351 168.56L172.858 141.591C172.858 141.591 167.581 122.44 142.565 118.86L123.11 115.899Z" fill="#F28500"/>
<path opacity="0.2" d="M91.4917 184.386L100.868 158.1L99.7535 174.884L121.333 169.35L91.4917 184.386Z" fill="black"/>
<path opacity="0.2" d="M128.564 192.424L93.5581 219.177L92.1787 233.869H144.106C144.106 233.869 107.907 225.03 113.759 215.391C113.759 215.386 119.497 201.607 128.564 192.424Z" fill="black"/>
<path d="M132.977 186.571C135.227 185.732 137.357 184.6 139.31 183.203L141.99 181.287C145.961 178.464 145.451 175.773 145.004 174.683C144.937 174.515 144.91 174.335 144.924 174.155C144.939 173.975 144.995 173.801 145.088 173.647C145.745 172.527 145.775 171.683 145.603 171.059C145.513 170.767 145.349 170.503 145.126 170.294C144.903 170.084 144.629 169.937 144.332 169.866C143.35 169.615 144.106 168.614 144.106 168.614C145.883 165.923 144.106 164.145 144.106 164.145C143.345 163.821 143.389 163.06 143.615 162.412C143.802 161.865 144.113 161.369 144.523 160.963L151.946 153.548C152.209 153.287 152.364 152.937 152.381 152.566C152.397 152.196 152.273 151.833 152.034 151.55V151.55C151.8 151.267 151.469 151.081 151.106 151.029C150.743 150.978 150.374 151.063 150.07 151.27L138.451 159.087C137.642 159.631 136.69 159.921 135.716 159.922H131.087C130.352 159.922 129.631 160.122 129.001 160.5C128.371 160.878 127.855 161.42 127.509 162.068L122.595 171.3C122.595 171.3 128.564 173.711 128.677 188.177L132.977 186.571Z" fill="#F9B499"/>
<path d="M122.595 171.299L126.38 164.214C126.38 164.214 133.606 174.408 132.977 186.571L128.677 188.177C128.677 188.177 129.364 175.434 122.595 171.299Z" fill="#F7A48B"/>
<path d="M255.285 155.09C254.529 156.106 252.089 157.349 244.76 157.516C244.655 157.522 244.556 157.565 244.48 157.638C244.409 157.711 244.369 157.807 244.367 157.908C244.367 157.964 244.378 158.02 244.4 158.071C244.421 158.123 244.453 158.17 244.493 158.209C244.532 158.248 244.579 158.279 244.631 158.3C244.683 158.321 244.738 158.331 244.794 158.331H252.83C252.879 158.33 252.927 158.34 252.971 158.36C253.015 158.38 253.055 158.409 253.087 158.445C253.119 158.481 253.143 158.524 253.157 158.571C253.171 158.617 253.175 158.666 253.169 158.714C253.071 159.47 252.575 161.11 250.116 161.199H243.503C243.352 161.199 243.207 161.259 243.101 161.365C242.994 161.472 242.934 161.617 242.934 161.768C242.931 161.793 242.931 161.817 242.934 161.842C242.954 161.978 243.022 162.103 243.127 162.193C243.232 162.284 243.365 162.333 243.503 162.333H248.903C249.032 162.332 249.159 162.367 249.27 162.432C249.381 162.497 249.473 162.591 249.536 162.704C249.598 162.817 249.63 162.945 249.626 163.074C249.623 163.203 249.585 163.328 249.517 163.438C248.854 164.489 247.425 165.893 244.608 165.662H240.577C240.5 165.663 240.425 165.69 240.366 165.741C240.31 165.793 240.272 165.862 240.258 165.937C240.251 165.98 240.253 166.025 240.264 166.067C240.275 166.11 240.294 166.15 240.321 166.185C240.347 166.22 240.381 166.249 240.419 166.27C240.457 166.292 240.499 166.306 240.543 166.31L244.74 166.801C244.862 166.814 244.979 166.857 245.081 166.926C245.182 166.995 245.265 167.089 245.321 167.198C245.378 167.307 245.406 167.428 245.404 167.551C245.402 167.674 245.37 167.794 245.31 167.901C245.018 168.47 244.592 168.959 244.07 169.326C243.547 169.694 242.944 169.93 242.31 170.013L230.877 170.121C230.696 170.124 230.517 170.171 230.357 170.256C230.197 170.341 230.059 170.463 229.954 170.612C227.844 173.558 223.465 173.637 223.465 173.637L219.783 154.947L222.38 151.952C222.617 151.68 222.914 151.466 223.246 151.326C223.579 151.185 223.939 151.123 224.299 151.142L233.351 151.633C233.512 151.824 233.6 152.066 233.6 152.315C233.6 152.565 233.512 152.807 233.351 152.998L254.607 153.671C254.772 153.67 254.934 153.716 255.073 153.803C255.213 153.891 255.325 154.017 255.396 154.165C255.467 154.314 255.494 154.48 255.475 154.644C255.455 154.807 255.389 154.962 255.285 155.09Z" fill="#F9B499"/>
<path d="M224.285 151.161C221.997 152.031 221.138 161.748 221.138 161.748L219.768 154.967L222.365 151.972C222.603 151.7 222.899 151.486 223.232 151.345C223.564 151.205 223.924 151.142 224.285 151.161V151.161Z" fill="#F7A48B"/>
<path d="M222.026 166.468C222.026 166.468 226.567 161.557 226.567 158.788C226.567 158.788 226.798 155.458 229.095 155.458C229.095 155.458 233.111 155.09 233.337 153.037L235.968 153.121C235.968 153.121 229.895 157.182 229.665 160.855C229.665 160.855 229.189 166.797 222.026 166.468Z" fill="#F7A48B"/>
<path d="M265.196 143.796C265.196 143.796 257.538 161.542 258.23 190.647C258.23 190.647 257.204 241.902 263.63 279.094H275.593L280.271 184.273L309.19 277.945L320.211 278.176C320.211 278.176 303.687 164.67 297.605 149.836L280.713 142.543L265.196 143.796Z" fill="#2F2E41"/>
<path d="M267.488 145.131C267.488 145.131 257.67 163.84 262.948 224.568L265.701 271.292" stroke="white" stroke-width="0.614162" stroke-miterlimit="10"/>
<path d="M275.981 271.292H262.417" stroke="white" stroke-width="0.614162" stroke-miterlimit="10"/>
<path d="M290.718 151.171L313.957 271.292" stroke="white" stroke-width="0.614162" stroke-miterlimit="10"/>
<path d="M307.138 271.292H319.2" stroke="white" stroke-width="0.614162" stroke-miterlimit="10"/>
<path d="M264.44 279.085V287.143C265.48 287.474 266.4 288.106 267.081 288.96C267.516 289.153 267.994 289.231 268.468 289.184C268.942 289.138 269.396 288.969 269.786 288.695C270.194 288.444 270.556 288.125 270.856 287.752C271.347 287.162 272.55 285.886 273.963 285.974L274.803 279.099L264.44 279.085Z" fill="#F9B499"/>
<path d="M310.422 277.975L312.877 285.984C313.253 286.596 313.775 287.106 314.396 287.466C315.017 287.827 315.718 288.028 316.436 288.051C316.436 288.051 318.615 287.82 318.503 284.029V278.137L310.422 277.975Z" fill="#F9B499"/>
<path d="M275.829 45.7136H243.297C242.33 45.7136 241.402 46.098 240.718 46.7822C240.034 47.4665 239.65 48.3945 239.65 49.3621V63.6467C239.65 64.6144 240.034 65.5424 240.718 66.2266C241.402 66.9108 242.33 67.2952 243.297 67.2952H248.049L250.503 74.9212C250.551 75.0675 250.642 75.196 250.764 75.2896C250.886 75.3832 251.034 75.4376 251.187 75.4456C251.341 75.4536 251.494 75.4148 251.625 75.3343C251.756 75.2538 251.86 75.1355 251.922 74.9949L255.358 67.2952H275.824C276.303 67.2952 276.777 67.2008 277.219 67.0174C277.661 66.834 278.063 66.5652 278.401 66.2263C278.74 65.8874 279.008 65.4852 279.191 65.0426C279.373 64.5999 279.467 64.1256 279.466 63.6467V49.3621C279.466 48.3962 279.083 47.4697 278.402 46.7857C277.72 46.1018 276.794 45.7162 275.829 45.7136V45.7136Z" fill="#F28500"/>
<path d="M248.26 59.0309C249.653 59.0309 250.783 57.9009 250.783 56.5069C250.783 55.1129 249.653 53.9829 248.26 53.9829C246.866 53.9829 245.737 55.1129 245.737 56.5069C245.737 57.9009 246.866 59.0309 248.26 59.0309Z" fill="white"/>
<path d="M259.163 59.0309C260.556 59.0309 261.686 57.9009 261.686 56.5069C261.686 55.1129 260.556 53.9829 259.163 53.9829C257.769 53.9829 256.639 55.1129 256.639 56.5069C256.639 57.9009 257.769 59.0309 259.163 59.0309Z" fill="white"/>
<path d="M270.979 59.0309C272.372 59.0309 273.502 57.9009 273.502 56.5069C273.502 55.1129 272.372 53.9829 270.979 53.9829C269.585 53.9829 268.456 55.1129 268.456 56.5069C268.456 57.9009 269.585 59.0309 270.979 59.0309Z" fill="white"/>
<path d="M206.99 69.3625H170.079C169.601 69.3625 169.126 69.4569 168.684 69.6403C168.241 69.8236 167.839 70.0924 167.5 70.4312C167.162 70.77 166.893 71.1722 166.71 71.6148C166.526 72.0575 166.432 72.5319 166.432 73.011V99.4688C166.438 99.6677 166.504 99.8603 166.621 100.021C166.739 100.182 166.903 100.303 167.09 100.368C167.278 100.434 167.482 100.44 167.674 100.388C167.866 100.335 168.037 100.225 168.165 100.073L173.501 93.3208H206.99C207.469 93.3208 207.943 93.2265 208.386 93.0431C208.828 92.8597 209.231 92.591 209.569 92.2522C209.908 91.9134 210.177 91.5112 210.36 91.0685C210.543 90.6259 210.638 90.1515 210.638 89.6723V73.011C210.638 72.5319 210.543 72.0575 210.36 71.6148C210.177 71.1722 209.908 70.77 209.569 70.4312C209.231 70.0924 208.828 69.8236 208.386 69.6403C207.943 69.4569 207.469 69.3625 206.99 69.3625V69.3625Z" fill="#F28500"/>
<path d="M65.0323 100.245H64.021C63.1589 100.245 62.46 100.944 62.46 101.806V125.318C62.46 126.18 63.1589 126.879 64.021 126.879H65.0323C65.8944 126.879 66.5933 126.18 66.5933 125.318V101.806C66.5933 100.944 65.8944 100.245 65.0323 100.245Z" fill="#3F4347"/>
<path d="M65.0323 131.466H64.021C63.1589 131.466 62.46 132.165 62.46 133.027V156.539C62.46 157.401 63.1589 158.1 64.021 158.1H65.0323C65.8944 158.1 66.5933 157.401 66.5933 156.539V133.027C66.5933 132.165 65.8944 131.466 65.0323 131.466Z" fill="#3F4347"/>
<path d="M123.857 104.836L123.15 114.475C122.977 116.705 123.342 118.943 124.215 121.001C125.28 123.491 127.057 126.737 129.713 129.03C131.048 130.197 132.768 130.828 134.54 130.803C136.313 130.777 138.014 130.097 139.315 128.892C141.323 127.002 143.085 123.879 142.545 118.841L141.887 107.473L123.857 104.836Z" fill="#F9B499"/>
<path d="M141.887 107.473L142.579 118.841C142.579 118.841 130.066 119.297 123.871 104.836L141.887 107.473Z" fill="#F7A48B"/>
<path d="M136.191 112.263C144.526 110.823 149.432 98.9355 147.149 85.7124C144.866 72.4893 136.257 62.9374 127.922 64.3776C119.587 65.8178 114.681 77.7048 116.964 90.9279C119.247 104.151 127.855 113.703 136.191 112.263Z" fill="#F9B499"/>
<path d="M112.286 90.0013C112.286 90.0013 106.066 79.925 111.579 75.2158C111.579 75.2158 108.86 74.7248 109.301 71.9798C109.301 71.9798 110.313 69.9371 113.184 70.9683C113.184 70.9683 112.954 67.7568 113.872 66.8385C113.872 66.8385 114.446 69.7063 115.595 70.05C115.595 70.05 126.611 55.127 146.693 64.6485C146.693 64.6485 149.909 65.4538 147.611 72.2254C147.611 72.2254 146.03 76.4386 144.872 77.7791C144.872 77.7791 143.355 74.4744 142.56 73.2369C142.56 73.2369 137.4 78.8545 122.251 76.5171C122.251 76.5171 125.688 88.5527 121.495 90.6053L112.286 90.0013Z" fill="#2F2E41"/>
<path d="M116.684 98.9827C119.759 98.9827 122.251 96.4896 122.251 93.4142C122.251 90.3388 119.759 87.8457 116.684 87.8457C113.61 87.8457 111.118 90.3388 111.118 93.4142C111.118 96.4896 113.61 98.9827 116.684 98.9827Z" fill="#F9B499"/>
<path d="M272.702 100.441C272.702 100.441 261.568 101.963 259.938 109.884C259.938 109.884 255.461 122.858 254.539 128.829L237.612 121.949L234.152 132.143L260.999 144.537L272.702 145.578V148.279C272.702 148.279 291.636 152.807 301.851 150.509C301.851 150.509 305.41 149.477 305.18 142.932C305.18 142.932 308.223 106.702 293.045 103.982L282.849 100.834L272.702 100.441Z" fill="#F28500"/>
<path opacity="0.2" d="M290.718 139.617L277.92 138.787L287.164 135.831L290.261 123.319L290.718 139.617Z" fill="black"/>
<path opacity="0.2" d="M251.514 140.177C251.514 140.177 258.932 139.16 260.768 135.831C260.768 135.831 256.978 121.252 266.506 112.639C266.506 112.639 260.306 122.514 264.327 134.569L260.999 144.537L251.514 140.177Z" fill="black"/>
<path d="M255.02 128.023L259.438 146.163C259.482 146.347 259.597 146.507 259.757 146.608C259.918 146.709 260.111 146.743 260.297 146.703L268.382 145.028C268.478 145.007 268.57 144.967 268.651 144.909C268.732 144.852 268.8 144.779 268.852 144.695C268.904 144.611 268.939 144.517 268.955 144.419C268.97 144.321 268.965 144.221 268.941 144.125L264.16 125.868C264.113 125.683 263.994 125.524 263.831 125.426C263.667 125.328 263.472 125.298 263.286 125.342L255.564 127.164C255.38 127.209 255.22 127.323 255.118 127.483C255.016 127.644 254.981 127.837 255.02 128.023V128.023Z" fill="#2E3135"/>
<path d="M228.173 119.415C228.173 119.415 226.798 119.99 227.142 121.252C226.891 121.425 226.708 121.679 226.625 121.973C226.542 122.266 226.563 122.578 226.685 122.857C226.685 122.857 224.962 124.463 230.583 126.53L235.168 129.143L237.269 122.931C237.269 122.931 231.275 115.742 230.249 118.512L224.594 114.431C224.511 114.372 224.417 114.331 224.317 114.311C224.218 114.29 224.115 114.291 224.016 114.314C223.917 114.336 223.823 114.379 223.742 114.44C223.66 114.501 223.593 114.578 223.543 114.667V114.667C223.46 114.811 223.43 114.98 223.459 115.145C223.488 115.309 223.573 115.458 223.7 115.565L228.173 119.415Z" fill="#F9B499"/>
<path d="M226.685 122.857C226.685 122.857 230.46 124.051 228.859 125.804" stroke="#F7A48B" stroke-width="0.614162" stroke-miterlimit="10"/>
<path d="M227.141 121.252C227.141 121.252 231.559 121.905 229.056 124.331" stroke="#F7A48B" stroke-width="0.614162" stroke-miterlimit="10"/>
<path d="M230.249 118.512C230.249 118.512 227.191 120.476 228.491 121.63C228.491 121.63 228.982 122.067 230.362 121.266C230.362 121.266 231.196 120.466 231.294 121.728" stroke="#F7A48B" stroke-width="0.614162" stroke-miterlimit="10"/>
<path d="M261.981 141.596L259.85 140.653" stroke="#F7A48B" stroke-width="0.614162" stroke-miterlimit="10"/>
<path d="M255.825 127.797L260.243 145.932C260.288 146.116 260.404 146.276 260.565 146.377C260.726 146.478 260.921 146.512 261.107 146.472L269.177 144.773C269.274 144.752 269.366 144.712 269.447 144.655C269.528 144.598 269.596 144.525 269.648 144.44C269.7 144.356 269.734 144.261 269.748 144.163C269.763 144.065 269.757 143.965 269.732 143.869L264.955 125.612C264.905 125.429 264.787 125.272 264.624 125.174C264.461 125.076 264.267 125.045 264.081 125.087L256.36 126.908C256.266 126.931 256.178 126.973 256.1 127.03C256.023 127.087 255.957 127.159 255.907 127.242C255.858 127.324 255.825 127.416 255.81 127.511C255.796 127.607 255.801 127.704 255.825 127.797V127.797Z" fill="#3F4347"/>
<path d="M273.85 139.042L272.702 145.593C272.702 145.593 259.85 143.29 259.85 140.653C259.85 140.653 256.06 138.586 259.85 139.042C259.85 139.042 256.576 137.928 258.048 137.496C258.395 137.407 258.758 137.407 259.104 137.496L263.979 138.605C263.979 138.605 260.994 136.995 259.899 135.782C259.846 135.707 259.814 135.618 259.809 135.526C259.803 135.434 259.823 135.343 259.868 135.262C259.912 135.181 259.977 135.114 260.058 135.069C260.138 135.024 260.229 135.002 260.321 135.006C261.303 135.148 263.385 135.748 267.881 137.8C267.881 137.8 268.819 137.992 267.66 134.967C267.66 134.967 271.553 135.949 272.815 139.293L273.85 139.042Z" fill="#F9B499"/>
<path d="M175.985 84.1432C177.533 84.1432 178.788 82.8878 178.788 81.3393C178.788 79.7907 177.533 78.5354 175.985 78.5354C174.437 78.5354 173.182 79.7907 173.182 81.3393C173.182 82.8878 174.437 84.1432 175.985 84.1432Z" fill="white"/>
<path d="M188.09 84.1432C189.638 84.1432 190.893 82.8878 190.893 81.3393C190.893 79.7907 189.638 78.5354 188.09 78.5354C186.542 78.5354 185.287 79.7907 185.287 81.3393C185.287 82.8878 186.542 84.1432 188.09 84.1432Z" fill="white"/>
<path d="M201.212 84.1432C202.76 84.1432 204.015 82.8878 204.015 81.3393C204.015 79.7907 202.76 78.5354 201.212 78.5354C199.664 78.5354 198.409 79.7907 198.409 81.3393C198.409 82.8878 199.664 84.1432 201.212 84.1432Z" fill="white"/>
<path d="M272.702 95.786V101.679C272.7 102.042 272.799 102.399 272.988 102.709C273.177 103.019 273.448 103.271 273.772 103.437C275.186 104.154 277.994 104.738 282.117 101.772C282.401 101.566 282.633 101.296 282.794 100.984C282.956 100.671 283.041 100.326 283.045 99.9747L283.143 90.6055L272.702 95.786Z" fill="#F9B499"/>
<path d="M272.702 100.441V95.786L281.253 92.2651C281.253 92.2651 280.217 100.24 272.702 100.441Z" fill="#F7A48B"/>
<path d="M284.396 85.4711C284.928 78.9296 281.723 73.3309 277.237 72.966C272.751 72.601 268.684 77.608 268.152 84.1494C267.62 90.6908 270.825 96.2895 275.311 96.6545C279.797 97.0194 283.864 92.0125 284.396 85.4711Z" fill="#F9B499"/>
<path d="M258.721 92.0932C258.721 92.0932 264.121 91.9754 265.034 94.6172L266.811 92.8249C266.9 92.7358 267.008 92.6674 267.127 92.6247C267.245 92.5819 267.372 92.5658 267.498 92.5776C267.623 92.5893 267.745 92.6285 267.853 92.6925C267.962 92.7564 268.055 92.8436 268.127 92.9476V92.9476C268.211 93.0711 268.261 93.2147 268.273 93.3638C268.284 93.513 268.255 93.6625 268.19 93.7972L267.066 96.11L272.702 96.9055V95.7761C272.702 95.7761 267.704 93.4043 268.136 84.1333C268.136 84.1333 268.269 80.9562 269.511 78.7318H271.131C271.131 78.7318 271.897 75.1127 273.85 74.882V78.8103L284.159 80.9857C284.395 82.248 284.487 83.5329 284.434 84.8159L283.148 90.6004L283.04 99.7978H285.107V98.4719C285.107 98.3686 285.147 98.2694 285.22 98.1959C285.293 98.1224 285.391 98.0804 285.495 98.0791V98.0791C285.579 98.0787 285.662 98.1058 285.73 98.1562C285.798 98.2066 285.848 98.2778 285.873 98.359C286.093 99.0956 286.795 101.055 288.091 101.521C288.091 101.521 287.748 99.6848 289.235 100.716C289.235 100.716 290.04 101.747 291.42 100.485C291.42 100.485 292.892 102.666 294.287 100.485C294.287 100.485 295.205 99.1103 292.323 96.6993C292.323 96.6993 288.077 93.8266 289.451 91.0718C289.451 91.0718 292.887 87.3988 291.415 82.8075C291.415 82.8075 296.864 82.0218 295.013 76.3502C294.812 75.7049 294.467 75.1139 294.003 74.6221C293.539 74.1303 292.97 73.7506 292.338 73.5119C291.071 73.0503 289.368 73.0503 287.6 74.8869C287.6 74.8869 284.38 68.5032 277.051 70.7277C277.051 70.7277 268.706 68.2282 268.347 77.2979C268.347 77.2979 268.691 88.6608 263.527 89.0094C262.508 88.9765 261.503 89.2537 260.645 89.8043C259.787 90.3549 259.116 91.1531 258.721 92.0932V92.0932Z" fill="#2F2E41"/>
<path d="M285.328 91.4057C287.166 91.4057 288.656 89.9151 288.656 88.0764C288.656 86.2377 287.166 84.7471 285.328 84.7471C283.489 84.7471 281.999 86.2377 281.999 88.0764C281.999 89.9151 283.489 91.4057 285.328 91.4057Z" fill="#F9B499"/>
</svg>
