<svg width="192" height="70" viewBox="0 0 192 70" fill="none" xmlns="http://www.w3.org/2000/svg">
<g filter="url(#filter0_d_714_4832)">
<path d="M64 31.5C64 48.897 49.897 63 32.5 63C15.103 63 1 48.897 1 31.5C1 22.3751 4.87992 14.1564 11.08 8.40363C16.7006 3.18855 24.2279 0 32.5 0C49.897 0 64 14.103 64 31.5Z" fill="#FF6B00"/>
</g>
<g filter="url(#filter1_d_714_4832)">
<path d="M51.3554 31.5238C51.3554 41.9242 42.9136 50.3554 32.5 50.3554C22.0865 50.3554 13.6447 41.9242 13.6447 31.5238C13.6447 26.5796 22.1296 26.6343 18.6728 18.7206C15.2159 10.8069 27.0369 12.6922 32.5 12.6922C42.9136 12.6922 51.3554 21.1234 51.3554 31.5238Z" fill="white"/>
</g>
<circle cx="32.5" cy="31.5" r="12.6074" fill="#FF6B00"/>
<circle cx="32.5" cy="31.5" r="9.40909" fill="white"/>
<path d="M38.1646 25.8807C37.9907 25.1514 35.8237 24.4048 34.762 24.1227C34.3609 24.0045 33.403 23.7408 32.7804 23.6323C32.0022 23.4967 33.3576 19.9902 34.5516 18.742C35.5069 17.7433 38.4732 18.3131 39.8185 18.7416L45.9275 24.0294C46.438 26.6912 47.3341 32.4299 46.8351 34.0906C46.2114 36.1663 41.6777 34.3569 40.8995 34.2214C40.1213 34.0858 39.614 31.9585 40.7356 30.4064C41.8571 28.8542 38.382 26.7924 38.1646 25.8807Z" fill="white"/>
<path d="M35.348 19.2863C35.0359 18.8926 33.9426 18.8915 32.8886 18.8927L32.5372 22.0909H34.6453C35.6993 22.0909 35.5957 19.5988 35.348 19.2863Z" fill="#FF6B00"/>
<path d="M41.9499 33.7057C41.3199 34.3357 41.2929 35.0573 40.69 36.2251L43.7586 37.1703C44.4699 35.5957 44.7849 34.9657 44.4699 34.6507C43.8399 34.0207 42.2649 33.3907 41.9499 33.7057Z" fill="#FF6B00"/>
<circle cx="43.5082" cy="28.5992" r="1.59917" fill="#FF5C00"/>
<g filter="url(#filter2_d_714_4832)">
<path d="M92.32 25.36C92.32 25.7067 92.2 26.0267 91.96 26.32C91.7467 26.5867 91.4933 26.7867 91.2 26.92C90.5333 26.44 89.72 25.9867 88.76 25.56C87.8267 25.1333 86.6133 24.92 85.12 24.92C83.4933 24.92 82.0267 25.2933 80.72 26.04C79.44 26.7867 78.4133 27.9067 77.64 29.4C76.8933 30.8667 76.52 32.6933 76.52 34.88C76.52 38.16 77.32 40.6267 78.92 42.28C80.5467 43.9333 82.6533 44.76 85.24 44.76C86.6267 44.76 87.84 44.56 88.88 44.16C89.92 43.76 90.7733 43.3067 91.44 42.8C91.7067 42.9067 91.96 43.1067 92.2 43.4C92.44 43.6667 92.56 43.9867 92.56 44.36C92.56 44.6267 92.48 44.8933 92.32 45.16C92.1867 45.4 91.9467 45.64 91.6 45.88C90.9867 46.3067 90.1467 46.68 89.08 47C88.0133 47.3467 86.6533 47.52 85 47.52C82.7867 47.52 80.7733 47.0533 78.96 46.12C77.1733 45.16 75.76 43.7467 74.72 41.88C73.68 40.0133 73.16 37.68 73.16 34.88C73.16 32.08 73.6933 29.7333 74.76 27.84C75.8533 25.9467 77.28 24.5333 79.04 23.6C80.8267 22.64 82.7733 22.16 84.88 22.16C86.3467 22.16 87.64 22.32 88.76 22.64C89.88 22.96 90.7467 23.3733 91.36 23.88C92 24.36 92.32 24.8533 92.32 25.36ZM100.52 31.96V38.28H97.3203V32.2C97.3203 31.5867 97.427 31.1067 97.6403 30.76C97.8803 30.3867 98.267 30.0267 98.8003 29.68C99.4936 29.2267 100.44 28.84 101.64 28.52C102.84 28.1733 104.174 28 105.64 28C107.774 28 108.84 28.5333 108.84 29.6C108.84 29.8667 108.8 30.12 108.72 30.36C108.64 30.5733 108.534 30.76 108.4 30.92C108.134 30.8667 107.787 30.8133 107.36 30.76C106.934 30.7067 106.507 30.68 106.08 30.68C104.854 30.68 103.774 30.8133 102.84 31.08C101.907 31.32 101.134 31.6133 100.52 31.96ZM97.3203 36.44L100.52 36.92V46.92C100.387 46.9733 100.187 47.0267 99.9203 47.08C99.6536 47.16 99.3603 47.2 99.0403 47.2C98.4803 47.2 98.0536 47.0933 97.7603 46.88C97.467 46.64 97.3203 46.2667 97.3203 45.76V36.44ZM112.314 22.68C112.314 22.12 112.514 21.6533 112.914 21.28C113.314 20.88 113.807 20.68 114.394 20.68C115.007 20.68 115.5 20.88 115.874 21.28C116.247 21.6533 116.434 22.12 116.434 22.68C116.434 23.24 116.247 23.72 115.874 24.12C115.5 24.4933 115.007 24.68 114.394 24.68C113.807 24.68 113.314 24.4933 112.914 24.12C112.514 23.72 112.314 23.24 112.314 22.68ZM112.794 36.44H115.994V46.92C115.86 46.9733 115.66 47.0267 115.394 47.08C115.127 47.16 114.834 47.2 114.514 47.2C113.954 47.2 113.527 47.0933 113.234 46.88C112.94 46.64 112.794 46.2667 112.794 45.76V36.44ZM115.994 38H112.794V28.6C112.927 28.5467 113.127 28.4933 113.394 28.44C113.687 28.36 113.994 28.32 114.314 28.32C114.874 28.32 115.287 28.44 115.554 28.68C115.847 28.8933 115.994 29.2667 115.994 29.8V38ZM128.842 44.92C129.962 44.92 130.882 44.8133 131.602 44.6C132.349 44.36 132.882 44.1333 133.202 43.92V38.12L128.242 38.64C126.856 38.7467 125.829 39.0533 125.162 39.56C124.496 40.0667 124.162 40.8 124.162 41.76C124.162 42.7467 124.549 43.52 125.322 44.08C126.122 44.64 127.296 44.92 128.842 44.92ZM128.802 28C131.122 28 132.962 28.52 134.322 29.56C135.682 30.6 136.362 32.24 136.362 34.48V43.96C136.362 44.5467 136.242 45 136.002 45.32C135.789 45.6133 135.456 45.8933 135.002 46.16C134.362 46.5067 133.509 46.8267 132.442 47.12C131.376 47.4133 130.176 47.56 128.842 47.56C126.336 47.56 124.389 47.0667 123.002 46.08C121.642 45.0933 120.962 43.6667 120.962 41.8C120.962 40.0667 121.536 38.7467 122.682 37.84C123.856 36.9067 125.469 36.3467 127.522 36.16L133.202 35.6V34.48C133.202 33.1467 132.802 32.1733 132.002 31.56C131.202 30.9467 130.122 30.64 128.762 30.64C127.669 30.64 126.616 30.8 125.602 31.12C124.616 31.44 123.736 31.8 122.962 32.2C122.749 32.0133 122.549 31.8 122.362 31.56C122.202 31.2933 122.122 31.0267 122.122 30.76C122.122 30.0667 122.509 29.5333 123.282 29.16C124.002 28.7867 124.829 28.5067 125.762 28.32C126.722 28.1067 127.736 28 128.802 28ZM142.243 36.44H145.443V41.96C145.443 43.0267 145.75 43.7867 146.363 44.24C146.976 44.6667 147.816 44.88 148.883 44.88C149.336 44.88 149.843 44.8 150.403 44.64C150.963 44.48 151.43 44.2933 151.803 44.08C151.963 44.24 152.11 44.44 152.243 44.68C152.376 44.92 152.443 45.2 152.443 45.52C152.443 46.1067 152.096 46.5867 151.403 46.96C150.71 47.3333 149.75 47.52 148.523 47.52C146.656 47.52 145.136 47.1067 143.963 46.28C142.816 45.4533 142.243 44.08 142.243 42.16V36.44ZM143.883 31.56V28.92H152.003C152.083 29.0267 152.163 29.2 152.243 29.44C152.323 29.68 152.363 29.9333 152.363 30.2C152.363 30.6267 152.256 30.96 152.043 31.2C151.83 31.44 151.536 31.56 151.163 31.56H143.883ZM145.443 37.64H142.243V23.16C142.376 23.1067 142.576 23.0533 142.843 23C143.136 22.92 143.443 22.88 143.763 22.88C144.323 22.88 144.736 23 145.003 23.24C145.296 23.4533 145.443 23.8133 145.443 24.32V37.64ZM163.92 44.92C165.04 44.92 165.96 44.8133 166.68 44.6C167.427 44.36 167.96 44.1333 168.28 43.92V38.12L163.32 38.64C161.934 38.7467 160.907 39.0533 160.24 39.56C159.574 40.0667 159.24 40.8 159.24 41.76C159.24 42.7467 159.627 43.52 160.4 44.08C161.2 44.64 162.374 44.92 163.92 44.92ZM163.88 28C166.2 28 168.04 28.52 169.4 29.56C170.76 30.6 171.44 32.24 171.44 34.48V43.96C171.44 44.5467 171.32 45 171.08 45.32C170.867 45.6133 170.534 45.8933 170.08 46.16C169.44 46.5067 168.587 46.8267 167.52 47.12C166.454 47.4133 165.254 47.56 163.92 47.56C161.414 47.56 159.467 47.0667 158.08 46.08C156.72 45.0933 156.04 43.6667 156.04 41.8C156.04 40.0667 156.614 38.7467 157.76 37.84C158.934 36.9067 160.547 36.3467 162.6 36.16L168.28 35.6V34.48C168.28 33.1467 167.88 32.1733 167.08 31.56C166.28 30.9467 165.2 30.64 163.84 30.64C162.747 30.64 161.694 30.8 160.68 31.12C159.694 31.44 158.814 31.8 158.04 32.2C157.827 32.0133 157.627 31.8 157.44 31.56C157.28 31.2933 157.2 31.0267 157.2 30.76C157.2 30.0667 157.587 29.5333 158.36 29.16C159.08 28.7867 159.907 28.5067 160.84 28.32C161.8 28.1067 162.814 28 163.88 28Z" fill="#2D2D2D"/>
</g>
<defs>
<filter id="filter0_d_714_4832" x="0" y="0" width="67" height="67" filterUnits="userSpaceOnUse" color-interpolation-filters="sRGB">
<feFlood flood-opacity="0" result="BackgroundImageFix"/>
<feColorMatrix in="SourceAlpha" type="matrix" values="0 0 0 0 0 0 0 0 0 0 0 0 0 0 0 0 0 0 127 0" result="hardAlpha"/>
<feOffset dx="1" dy="2"/>
<feGaussianBlur stdDeviation="1"/>
<feComposite in2="hardAlpha" operator="out"/>
<feColorMatrix type="matrix" values="0 0 0 0 0 0 0 0 0 0 0 0 0 0 0 0 0 0 0.1 0"/>
<feBlend mode="normal" in2="BackgroundImageFix" result="effect1_dropShadow_714_4832"/>
<feBlend mode="normal" in="SourceGraphic" in2="effect1_dropShadow_714_4832" result="shape"/>
</filter>
<filter id="filter1_d_714_4832" x="10.6447" y="9.49585" width="47.7107" height="47.8595" filterUnits="userSpaceOnUse" color-interpolation-filters="sRGB">
<feFlood flood-opacity="0" result="BackgroundImageFix"/>
<feColorMatrix in="SourceAlpha" type="matrix" values="0 0 0 0 0 0 0 0 0 0 0 0 0 0 0 0 0 0 127 0" result="hardAlpha"/>
<feOffset dx="2" dy="2"/>
<feGaussianBlur stdDeviation="2.5"/>
<feComposite in2="hardAlpha" operator="out"/>
<feColorMatrix type="matrix" values="0 0 0 0 0 0 0 0 0 0 0 0 0 0 0 0 0 0 0.1 0"/>
<feBlend mode="normal" in2="BackgroundImageFix" result="effect1_dropShadow_714_4832"/>
<feBlend mode="normal" in="SourceGraphic" in2="effect1_dropShadow_714_4832" result="shape"/>
</filter>
<filter id="filter2_d_714_4832" x="69.16" y="20.6801" width="106.28" height="34.88" filterUnits="userSpaceOnUse" color-interpolation-filters="sRGB">
<feFlood flood-opacity="0" result="BackgroundImageFix"/>
<feColorMatrix in="SourceAlpha" type="matrix" values="0 0 0 0 0 0 0 0 0 0 0 0 0 0 0 0 0 0 127 0" result="hardAlpha"/>
<feOffset dy="4"/>
<feGaussianBlur stdDeviation="2"/>
<feComposite in2="hardAlpha" operator="out"/>
<feColorMatrix type="matrix" values="0 0 0 0 0 0 0 0 0 0 0 0 0 0 0 0 0 0 0.25 0"/>
<feBlend mode="normal" in2="BackgroundImageFix" result="effect1_dropShadow_714_4832"/>
<feBlend mode="normal" in="SourceGraphic" in2="effect1_dropShadow_714_4832" result="shape"/>
</filter>
</defs>
</svg>
