<svg width="25" height="24" viewBox="0 0 25 24" fill="none" xmlns="http://www.w3.org/2000/svg">
<path d="M9.51673 2.60423e-08C11.3373 -3.62208e-05 13.1197 0.483001 14.6524 1.3918C16.1851 2.3006 17.4038 3.59702 18.1639 5.12724C18.924 6.65746 19.1936 8.35725 18.9407 10.0249C18.6878 11.6926 17.9231 13.2582 16.7372 14.536L25 22.1791L23.965 23.1365L15.7007 15.492C14.5351 16.414 13.146 17.0617 11.6515 17.3801C10.157 17.6984 8.60151 17.678 7.11743 17.3204C5.63335 16.9628 4.26469 16.2788 3.128 15.3265C1.99131 14.3742 1.12027 13.1819 0.589076 11.8512C0.0578791 10.5204 -0.117741 9.09063 0.077173 7.68356C0.272087 6.27649 0.83176 4.93384 1.70853 3.76996C2.58529 2.60608 3.75317 1.65546 5.11271 0.999047C6.47224 0.342637 7.98314 -0.000109084 9.51673 2.60423e-08ZM9.51673 1.3542C7.38121 1.3542 5.33315 2.13891 3.82311 3.5357C2.31307 4.93249 1.46473 6.82694 1.46473 8.8023C1.46473 10.7777 2.31307 12.6721 3.82311 14.0689C5.33315 15.4657 7.38121 16.2504 9.51673 16.2504C11.6523 16.2504 13.7003 15.4657 15.2104 14.0689C16.7204 12.6721 17.5687 10.7777 17.5687 8.8023C17.5687 6.82694 16.7204 4.93249 15.2104 3.5357C13.7003 2.13891 11.6523 1.3542 9.51673 1.3542Z" fill="black" fill-opacity="0.75"/>
</svg>
