<svg width="32" height="32" viewBox="0 0 32 32" fill="none" xmlns="http://www.w3.org/2000/svg">
<path d="M28.6139 18.3613C27.8935 17.8067 27.5461 16.9091 27.5547 16V16V16C27.5461 15.0915 27.8955 14.1949 28.6179 13.6439L30.7046 12.0523C30.8516 11.9429 30.952 11.7845 30.9867 11.6075C31.0213 11.4305 30.9878 11.2472 30.8925 11.0928L27.8103 5.88528C27.721 5.72908 27.5762 5.61009 27.4031 5.55073C27.23 5.49136 27.0406 5.49573 26.8705 5.56301L24.4012 6.53286C23.5478 6.86805 22.5941 6.72071 21.796 6.26928V6.26928C20.9769 5.80596 20.3447 5.03515 20.2091 4.1039L19.849 1.62992C19.8235 1.45393 19.7332 1.293 19.5949 1.17711C19.4565 1.06122 19.2797 0.998286 19.0973 1.00004H12.9178C12.7353 0.998286 12.5585 1.06122 12.4202 1.17711C12.2819 1.293 12.1915 1.45393 12.166 1.62992L11.8061 4.10264C11.6705 5.03429 11.0365 5.80449 10.2171 6.26812V6.26812C9.41971 6.71928 8.46715 6.86881 7.61397 6.53502L5.12945 5.56301C4.95944 5.49573 4.77004 5.49136 4.59694 5.55073C4.42385 5.61009 4.27902 5.72908 4.18974 5.88528L1.1075 11.0928C1.01218 11.2472 0.978654 11.4305 1.01333 11.6075C1.048 11.7845 1.14844 11.9429 1.29544 12.0523L3.37562 13.6426C4.09756 14.1945 4.44685 15.0913 4.43783 16V16V16C4.44638 16.9086 4.09749 17.8055 3.37561 18.3574L1.29544 19.9477C1.14844 20.0571 1.048 20.2155 1.01333 20.3925C0.978654 20.5695 1.01218 20.7528 1.1075 20.9072L4.18974 26.1147C4.27902 26.2709 4.42385 26.3899 4.59694 26.4493C4.77004 26.5086 4.95944 26.5043 5.12945 26.437L7.59877 25.4671C8.45223 25.1319 9.40592 25.2793 10.204 25.7307V25.7307C11.0231 26.194 11.6553 26.9648 11.7909 27.8961L12.151 30.3701C12.1765 30.5461 12.2668 30.707 12.4051 30.8229C12.5435 30.9388 12.7203 31.0017 12.9027 31H19.0672C19.2496 31.0017 19.4265 30.9388 19.5648 30.8229C19.7031 30.707 19.7934 30.5461 19.819 30.3701L20.1791 27.8962C20.3145 26.9653 20.9481 26.1956 21.7669 25.7325V25.7325C22.5648 25.2811 23.5181 25.1321 24.3714 25.4672L26.8405 26.437C27.0105 26.5043 27.1999 26.5086 27.373 26.4493C27.5461 26.3899 27.6909 26.2709 27.7802 26.1147L30.8624 20.9072C30.9577 20.7528 30.9913 20.5695 30.9566 20.3925C30.9219 20.2155 30.8215 20.0571 30.6745 19.9477L28.6139 18.3613ZM16 21.2588C14.9321 21.2602 13.8878 20.953 12.9992 20.3761C12.1105 19.7991 11.4175 18.9783 11.0078 18.0175C10.5981 17.0567 10.4902 15.9991 10.6976 14.9786C10.905 13.958 11.4185 13.0203 12.1731 12.2841C12.9277 11.5479 13.8894 11.0463 14.9367 10.8428C15.9839 10.6393 17.0696 10.743 18.0563 11.1408C19.0431 11.5386 19.8865 12.2127 20.48 13.0776C21.0734 13.9426 21.3902 14.9596 21.3902 16C21.3912 16.6902 21.2525 17.3739 20.982 18.0119C20.7116 18.6499 20.3147 19.2297 19.8141 19.7181C19.3135 20.2065 18.7189 20.594 18.0645 20.8583C17.41 21.1227 16.7085 21.2588 16 21.2588Z" stroke="black" stroke-width="0.625" stroke-linecap="round" stroke-linejoin="round"/>
</svg>
