<svg width="419" height="209" viewBox="0 0 419 209" fill="none" xmlns="http://www.w3.org/2000/svg">
<path d="M225.5 43.5001C207.5 33 160.501 6.50007 126 43.5001C110.934 59.6579 89.5 43.5001 74.0804 49.7899C58.9967 55.9427 53.7858 67.712 29.0004 72.5001C-14.9996 81.0001 -1.54655 134.5 29.0005 134.5C74.0804 134.5 62.5 141.5 80.265 160.666C85.8514 166.692 98.1676 170.167 115.5 175.5C141.5 183.5 204 193.06 244.5 169C285.001 144.941 345.306 166.552 361.5 169C404.5 175.5 417 141.5 418.5 118.5C421.16 77.7149 378 20.5001 328.5 43.5001C302.654 55.5094 240.185 52.0659 225.5 43.5001Z" fill="#F0BD70"/>
<path d="M186.759 19.1682H180.767C180.307 19.1682 179.935 19.5409 179.935 20.0007V36.8117C179.935 37.2715 180.307 37.6442 180.767 37.6442H186.759C187.219 37.6442 187.591 37.2715 187.591 36.8117V20.0007C187.591 19.5409 187.219 19.1682 186.759 19.1682Z" fill="#2F2E41"/>
<path opacity="0.22" d="M186.759 19.1682H180.767C180.307 19.1682 179.935 19.5409 179.935 20.0007V36.8117C179.935 37.2715 180.307 37.6442 180.767 37.6442H186.759C187.219 37.6442 187.591 37.2715 187.591 36.8117V20.0007C187.591 19.5409 187.219 19.1682 186.759 19.1682Z" fill="black"/>
<path d="M292.577 108.672L292.723 183.381C292.723 183.721 292.796 184.056 292.937 184.364C293.077 184.673 293.282 184.948 293.537 185.171L300.179 190.965C300.501 191.254 300.879 191.474 301.29 191.612C301.7 191.75 302.135 191.802 302.566 191.767C303.527 191.673 304.487 191.127 304.167 189.215L304.472 108.956H306.107L305.951 190.279C305.895 190.911 305.662 191.514 305.281 192.021C304.899 192.527 304.384 192.917 303.792 193.145C303.017 193.44 302.175 193.512 301.361 193.353C300.547 193.195 299.793 192.812 299.185 192.249L291.537 185.367C291.537 185.367 290.646 184.772 290.951 182.098L291.201 108.044L292.577 108.672Z" fill="#4D4D4D"/>
<path d="M145.925 108.672L146.071 183.381C146.072 183.721 146.146 184.056 146.287 184.365C146.428 184.673 146.633 184.948 146.888 185.171L153.53 190.965C153.852 191.254 154.229 191.474 154.64 191.612C155.05 191.75 155.483 191.803 155.915 191.767C156.875 191.673 157.836 191.127 157.519 189.215L157.823 108.956H159.461L159.302 190.279C159.245 190.911 159.012 191.514 158.63 192.021C158.248 192.527 157.732 192.917 157.14 193.145C156.366 193.442 155.524 193.515 154.71 193.359C153.896 193.202 153.142 192.821 152.533 192.258L144.888 185.367C144.888 185.367 143.995 184.772 144.278 182.098L144.528 108.044L145.925 108.672Z" fill="#4D4D4D"/>
<path d="M211.193 176.252C212.248 178.76 212.897 181.42 213.114 184.132C213.131 184.635 213.26 185.128 213.493 185.575C213.725 186.021 214.056 186.41 214.459 186.711C215.347 187.343 216.694 187.599 218.527 186.101C218.527 186.101 219.902 183.924 220.933 183.808C220.933 183.808 221.36 181.174 219.796 179.417C219.087 178.601 218.578 177.631 218.307 176.584L217.158 172.364L211.193 176.252Z" fill="#9E7261"/>
<path d="M234.173 177.92L233.139 182.677L232.624 182.39C231.79 183.188 231.151 184.166 230.753 185.249C230.356 186.332 230.211 187.491 230.331 188.638L234.926 191.993C235.452 192.392 236.095 192.606 236.756 192.603C237.707 192.572 238.826 192.051 238.86 189.791L238.915 182.686C238.915 182.686 237.265 181.131 234.173 177.92Z" fill="#9E7261"/>
<path d="M191.366 135C191.366 135 190.415 141.56 195.87 150.348C197.949 153.724 199.39 157.453 200.121 161.35C200.816 164.985 201.53 170.08 202.067 177.145C202.091 177.457 202.184 177.759 202.339 178.03C202.494 178.301 202.707 178.534 202.963 178.713C204.768 179.972 209.062 182.418 210.849 178.667C211.135 177.898 211.628 177.224 212.274 176.718C212.92 176.212 213.693 175.895 214.508 175.801C214.508 175.801 217.6 175.227 217.6 170.071C217.6 170.071 214.246 162.817 213.102 156.614C212.824 155.057 212.169 153.591 211.193 152.345L207.632 147.829C207.632 147.829 203.122 147.372 200.716 144.966C200.725 144.972 191.708 139.242 191.366 135Z" fill="#2F2E41"/>
<path opacity="0.22" d="M191.366 135C191.366 135 190.415 141.56 195.87 150.348C197.949 153.724 199.39 157.453 200.121 161.35C200.816 164.985 201.53 170.08 202.067 177.145C202.091 177.457 202.184 177.759 202.339 178.03C202.494 178.301 202.707 178.534 202.963 178.713C204.768 179.972 209.062 182.418 210.849 178.667C211.135 177.898 211.628 177.224 212.274 176.718C212.92 176.212 213.693 175.895 214.508 175.801C214.508 175.801 217.6 175.227 217.6 170.071C217.6 170.071 214.246 162.817 213.102 156.614C212.824 155.057 212.169 153.591 211.193 152.345L207.632 147.829C207.632 147.829 203.122 147.372 200.716 144.966C200.725 144.972 191.708 139.242 191.366 135Z" fill="black"/>
<path d="M237.247 151.552L234.173 177.929C234.173 177.929 240.455 184.863 242.138 185.324C242.138 185.324 246.873 185.934 248.862 183.189C248.862 183.189 248.401 168.366 248.862 163.17C248.862 163.17 256.961 143.764 256.653 136.275L237.247 151.552Z" fill="#2F2E41"/>
<path opacity="0.22" d="M237.247 151.552L234.173 177.929C234.173 177.929 240.455 184.863 242.138 185.324C242.138 185.324 246.873 185.934 248.862 183.189C248.862 183.189 248.401 168.366 248.862 163.17C248.862 163.17 256.961 143.764 256.653 136.275L237.247 151.552Z" fill="black"/>
<path d="M139.613 106.349L147.273 99.7837H305.366L311.487 106.254C282.914 106.569 254.343 106.738 225.772 106.761C197.058 106.777 168.338 106.64 139.613 106.349Z" fill="#4D4D4D"/>
<path d="M311.599 106.349H139.601V109.154H311.599V106.349Z" fill="#4D4D4D"/>
<path opacity="0.2" d="M311.599 106.349H139.601V109.154H311.599V106.349Z" fill="black"/>
<path d="M199.502 127.435C199.502 127.435 189.875 126.176 191.479 135.918C191.479 135.918 192.168 138.663 198.7 143.709C198.7 143.709 203.856 148.283 207.641 147.835L199.502 127.435Z" fill="#2F2E41"/>
<path d="M219.216 178.692C220.326 177.646 221.735 177.563 222.781 177.7C223.311 177.768 223.802 178.015 224.173 178.4C224.544 178.785 224.772 179.284 224.821 179.817C224.939 181.363 224.287 183.845 220.475 186.83C220.275 186.475 220.166 186.076 220.157 185.668C220.149 185.261 220.241 184.858 220.426 184.494C220.853 183.58 221.1 182.573 220.856 181.601C220.564 180.508 220 179.507 219.216 178.692Z" fill="#A94802"/>
<path d="M214.136 186.428C214.136 186.428 212.395 188.581 214.688 189.212C214.688 189.212 217.783 190.489 220.482 186.842C220.242 186.353 220.157 185.801 220.238 185.262C220.32 184.722 220.565 184.22 220.939 183.824C220.939 183.824 219.844 184.022 218.768 185.72C218.442 186.225 217.957 186.606 217.39 186.803C216.63 187.096 215.511 187.288 214.136 186.428Z" fill="#A94802"/>
<path d="M230.791 190.7C230.791 190.7 228.901 185.943 232.621 182.39C232.621 182.39 229.071 180.171 226.306 182.39C225.752 182.833 225.37 183.455 225.225 184.149C225.081 184.843 225.182 185.566 225.513 186.193C226.174 187.388 227.647 188.947 230.791 190.7Z" fill="#A94802"/>
<path d="M230.791 190.7L235.707 193.466C236.152 193.716 236.662 193.831 237.172 193.794C237.682 193.758 238.17 193.573 238.576 193.261C238.901 193.013 239.162 192.691 239.34 192.323C239.517 191.955 239.606 191.55 239.599 191.142C239.592 190.733 239.489 190.332 239.299 189.97C239.108 189.609 238.836 189.297 238.503 189.059L238.479 189.041L229.94 187.608L230.791 190.7Z" fill="#A94802"/>
<path d="M248.871 128.621C248.871 128.621 256.189 127.944 257.007 133.863C257.126 134.828 257.049 135.807 256.781 136.741C256.513 137.675 256.059 138.546 255.445 139.3C251.667 144.024 246.278 147.186 240.312 148.18L248.871 128.621Z" fill="#2F2E41"/>
<path d="M254.796 98.2407L257.424 95.8836C257.738 95.5947 258.15 95.4356 258.577 95.4384H258.629C259.072 95.4559 259.492 95.6438 259.8 95.9629C261.068 97.2741 264.944 101.491 263.813 103.473L257.452 109.536L254.796 98.2407Z" fill="#0071F2"/>
<path opacity="0.22" d="M254.796 98.2407L257.424 95.8836C257.738 95.5947 258.15 95.4356 258.577 95.4384H258.629C259.072 95.4559 259.492 95.6438 259.8 95.9629C261.068 97.2741 264.944 101.491 263.813 103.473L257.452 109.536L254.796 98.2407Z" fill="black"/>
<path d="M259.8 95.9629C259.8 95.9629 269.363 100.805 263.813 103.473C263.813 103.473 264.163 103.007 263.813 101.744C263.663 101.111 263.388 100.514 263.005 99.988L259.8 95.9629Z" fill="#9E7261"/>
<path d="M262.364 46.408H187.298C186.084 46.408 185.1 47.3923 185.1 48.6065V87.6076C185.1 88.8219 186.084 89.8062 187.298 89.8062H262.364C263.578 89.8062 264.562 88.8219 264.562 87.6076V48.6065C264.562 47.3923 263.578 46.408 262.364 46.408Z" fill="#2F2E41"/>
<path d="M261.373 48.0881H188.213C187.443 48.0881 186.819 48.7121 186.819 49.4817V86.8849C186.819 87.6546 187.443 88.2785 188.213 88.2785H261.373C262.142 88.2785 262.766 87.6546 262.766 86.8849V49.4817C262.766 48.7121 262.142 48.0881 261.373 48.0881Z" fill="white"/>
<path d="M259.519 83.3508H192.473V52.8238C192.46 52.7116 192.407 52.6081 192.322 52.5329C192.238 52.4578 192.129 52.4163 192.016 52.4163C191.903 52.4163 191.794 52.4578 191.71 52.5329C191.625 52.6081 191.572 52.7116 191.559 52.8238V84.2656H259.519C259.641 84.2656 259.757 84.2174 259.843 84.1316C259.929 84.0458 259.977 83.9295 259.977 83.8082C259.977 83.6869 259.929 83.5705 259.843 83.4848C259.757 83.399 259.641 83.3508 259.519 83.3508Z" fill="#6561B5"/>
<path d="M199.953 55.9219H195.132V82.1096H199.953V55.9219Z" fill="#6561B5"/>
<path d="M207.247 61.2644H202.426V82.1097H207.247V61.2644Z" fill="#6561B5"/>
<path d="M214.676 64.7803H209.854V81.8475H214.676V64.7803Z" fill="#6561B5"/>
<path d="M222.1 68.5583H217.279V81.8474H222.1V68.5583Z" fill="#6561B5"/>
<path d="M236.432 67.1252H231.611V81.8475H236.432V67.1252Z" fill="#6561B5"/>
<path d="M243.861 61.9138H239.04V81.8474H243.861V61.9138Z" fill="#6561B5"/>
<path d="M251.286 57.3551H246.465V81.8505H251.286V57.3551Z" fill="#6561B5"/>
<path d="M258.711 50.8386H253.89V81.8474H258.711V50.8386Z" fill="#6561B5"/>
<path d="M163.029 50.9241H135.338C133.718 50.9241 132.404 52.2374 132.404 53.8575V85.1286C132.404 86.7487 133.718 88.062 135.338 88.062H163.029C164.649 88.062 165.962 86.7487 165.962 85.1286V53.8575C165.962 52.2374 164.649 50.9241 163.029 50.9241Z" fill="#2F2E41"/>
<path d="M162.934 51.9852H135.435C134.379 51.9852 133.523 52.8412 133.523 53.8972V85.0859C133.523 86.1418 134.379 86.9978 135.435 86.9978H162.934C163.99 86.9978 164.846 86.1418 164.846 85.0859V53.8972C164.846 52.8412 163.99 51.9852 162.934 51.9852Z" fill="#7435DC"/>
<path d="M183.853 92.8891H183.164V89.7574H173.192V100.674C173.2 101.433 173.506 102.157 174.045 102.692C174.583 103.227 175.309 103.528 176.068 103.531H180.306C180.951 103.531 181.577 103.313 182.082 102.912C182.586 102.511 182.941 101.951 183.087 101.324H183.853C184.971 101.324 186.044 100.879 186.835 100.088C187.626 99.2975 188.07 98.2248 188.07 97.1064C188.07 95.9879 187.626 94.9152 186.835 94.1243C186.044 93.3334 184.971 92.8891 183.853 92.8891ZM183.481 100.104H183.176V94.0326H183.481C184.236 94.1045 184.938 94.4554 185.448 95.0167C185.958 95.5781 186.241 96.3095 186.241 97.0683C186.241 97.827 185.958 98.5584 185.448 99.1198C184.938 99.6811 184.236 100.032 183.481 100.104Z" fill="#2F2E41"/>
<path d="M300.149 96.347H298.295V99.125H300.149V96.347Z" fill="#2F2E41"/>
<path d="M279.651 64.6156L286.021 63.6916L291.809 73.6508L292.504 98.7804H294.011V73.5349L286.134 61.8376L279.651 64.6156Z" fill="#2F2E41"/>
<path d="M267.911 66.9484C267.911 66.3385 268.027 65.692 268.445 65.2773C268.445 65.2773 274.239 61.3376 280.718 64.3625C280.718 64.3625 281.414 71.1931 278.279 75.95C278.279 75.95 273.687 76.7002 268.811 69.6836C268.242 68.8831 267.929 67.9299 267.911 66.9484Z" fill="#2F2E41"/>
<path opacity="0.22" d="M271.516 72.9006C271.516 72.9006 277.477 68.8663 279.444 66.5488C279.444 66.5488 278.98 71.9919 275.62 75.584C275.623 75.584 272.674 74.2911 271.516 72.9006Z" fill="black"/>
<path d="M272.717 38.3607C282.202 38.3607 289.891 30.6717 289.891 21.1868C289.891 11.702 282.202 4.01294 272.717 4.01294C263.232 4.01294 255.543 11.702 255.543 21.1868C255.543 30.6717 263.232 38.3607 272.717 38.3607Z" fill="#2F2E41"/>
<path d="M272.927 22.684C272.602 22.684 272.284 22.5876 272.014 22.407C271.743 22.2264 271.533 21.9698 271.408 21.6694C271.284 21.3691 271.251 21.0386 271.315 20.7198C271.378 20.401 271.535 20.1081 271.765 19.8783C271.994 19.6484 272.287 19.4919 272.606 19.4284C272.925 19.365 273.255 19.3976 273.556 19.522C273.856 19.6464 274.113 19.857 274.293 20.1273C274.474 20.3976 274.57 20.7154 274.57 21.0404C274.57 21.4764 274.397 21.8944 274.089 22.2026C273.781 22.5109 273.363 22.684 272.927 22.684ZM272.927 19.9396C272.708 19.9402 272.494 20.0058 272.312 20.1281C272.13 20.2504 271.989 20.4238 271.906 20.6265C271.823 20.8291 271.802 21.0519 271.845 21.2666C271.889 21.4813 271.995 21.6782 272.15 21.8325C272.306 21.9867 272.504 22.0914 272.719 22.1331C272.934 22.1749 273.156 22.1519 273.358 22.0671C273.56 21.9823 273.733 21.8395 273.853 21.6567C273.974 21.474 274.038 21.2595 274.037 21.0404C274.036 20.7466 273.919 20.4651 273.711 20.2576C273.503 20.0501 273.221 19.9335 272.927 19.9335V19.9396Z" fill="white"/>
<path d="M271.784 20.5434C271.749 20.5437 271.715 20.5371 271.683 20.5241C271.651 20.511 271.622 20.4916 271.598 20.4672L263.203 12.2919C263.152 12.2421 263.123 12.1742 263.122 12.103C263.121 12.0318 263.149 11.9632 263.198 11.9122C263.248 11.8613 263.316 11.8322 263.387 11.8313C263.458 11.8305 263.527 11.8579 263.578 11.9077L271.982 20.086C272.031 20.1366 272.059 20.2045 272.059 20.2751C272.059 20.3457 272.031 20.4135 271.982 20.4641C271.956 20.4898 271.925 20.51 271.891 20.5236C271.857 20.5372 271.82 20.5439 271.784 20.5434Z" fill="white"/>
<path d="M273.921 20.7721C273.88 20.7726 273.84 20.7634 273.804 20.7454C273.767 20.7274 273.735 20.701 273.711 20.6684C273.689 20.6407 273.673 20.6089 273.664 20.575C273.654 20.541 273.652 20.5056 273.657 20.4707C273.661 20.4358 273.673 20.4021 273.69 20.3717C273.708 20.3412 273.731 20.3146 273.759 20.2934L278.8 16.3963C278.856 16.3526 278.928 16.3331 278.998 16.3419C279.069 16.3508 279.133 16.3874 279.177 16.4436C279.22 16.4998 279.24 16.571 279.231 16.6416C279.222 16.7123 279.186 16.7765 279.129 16.8202L274.086 20.7172C274.038 20.7528 273.98 20.7721 273.921 20.7721Z" fill="white"/>
<path d="M272.927 10.5355C272.856 10.5347 272.789 10.5061 272.739 10.4558C272.69 10.4056 272.662 10.3378 272.662 10.2671V7.36417C272.658 7.32673 272.662 7.28887 272.673 7.25305C272.685 7.21723 272.704 7.18424 272.729 7.15624C272.754 7.12824 272.785 7.10584 272.819 7.09051C272.854 7.07518 272.891 7.06726 272.928 7.06726C272.966 7.06726 273.003 7.07518 273.038 7.09051C273.072 7.10584 273.103 7.12824 273.128 7.15624C273.153 7.18424 273.172 7.21723 273.184 7.25305C273.195 7.28887 273.199 7.32673 273.195 7.36417V10.2671C273.195 10.3383 273.167 10.4066 273.117 10.4569C273.066 10.5072 272.998 10.5355 272.927 10.5355Z" fill="white"/>
<path d="M287.14 22.0712H284.243C284.206 22.0752 284.168 22.0713 284.132 22.0597C284.096 22.0481 284.063 22.0291 284.035 22.0039C284.007 21.9788 283.985 21.948 283.97 21.9136C283.954 21.8792 283.946 21.842 283.946 21.8044C283.946 21.7667 283.954 21.7295 283.97 21.6951C283.985 21.6607 284.007 21.6299 284.035 21.6048C284.063 21.5796 284.096 21.5606 284.132 21.549C284.168 21.5374 284.206 21.5335 284.243 21.5375H287.146C287.184 21.5335 287.221 21.5374 287.257 21.549C287.293 21.5606 287.326 21.5796 287.354 21.6048C287.382 21.6299 287.405 21.6607 287.42 21.6951C287.435 21.7295 287.443 21.7667 287.443 21.8044C287.443 21.842 287.435 21.8792 287.42 21.9136C287.405 21.948 287.382 21.9788 287.354 22.0039C287.326 22.0291 287.293 22.0481 287.257 22.0597C287.221 22.0713 287.184 22.0752 287.146 22.0712H287.14Z" fill="white"/>
<path d="M272.927 36.1683C272.892 36.1683 272.858 36.1613 272.825 36.1478C272.793 36.1343 272.763 36.1145 272.739 36.0895C272.714 36.0646 272.695 36.035 272.681 36.0024C272.668 35.9699 272.662 35.9351 272.662 35.9V32.997C272.669 32.9311 272.7 32.8702 272.75 32.826C272.799 32.7817 272.863 32.7572 272.929 32.7572C272.995 32.7572 273.059 32.7817 273.108 32.826C273.158 32.8702 273.189 32.9311 273.196 32.997V35.9C273.196 35.9353 273.19 35.9704 273.176 36.0031C273.163 36.0359 273.143 36.0656 273.118 36.0906C273.093 36.1156 273.063 36.1354 273.031 36.1487C272.998 36.162 272.963 36.1687 272.927 36.1683Z" fill="white"/>
<path d="M261.544 21.8059H258.629C258.558 21.8059 258.489 21.7776 258.439 21.7273C258.389 21.6769 258.36 21.6087 258.36 21.5375C258.36 21.4663 258.389 21.3981 258.439 21.3478C258.489 21.2974 258.558 21.2692 258.629 21.2692H261.532C261.603 21.2692 261.671 21.2974 261.721 21.3478C261.772 21.3981 261.8 21.4663 261.8 21.5375C261.8 21.6087 261.772 21.6769 261.721 21.7273C261.671 21.7776 261.603 21.8059 261.532 21.8059H261.544Z" fill="white"/>
<path d="M201.273 37.6503H132.468V40.4465H201.273V37.6503Z" fill="#4D4D4D"/>
<path d="M159.272 34.485H134.783C134.362 34.485 134.021 34.8263 134.021 35.2473V36.8818C134.021 37.3028 134.362 37.6441 134.783 37.6441H159.272C159.693 37.6441 160.034 37.3028 160.034 36.8818V35.2473C160.034 34.8263 159.693 34.485 159.272 34.485Z" fill="#7435DC"/>
<path d="M157.107 30.5575H141.753C141.294 30.5575 140.921 30.9302 140.921 31.39V33.616C140.921 34.0757 141.294 34.4485 141.753 34.4485H157.107C157.567 34.4485 157.939 34.0757 157.939 33.616V31.39C157.939 30.9302 157.567 30.5575 157.107 30.5575Z" fill="#2F2E41"/>
<path opacity="0.22" d="M157.107 30.5575H141.753C141.294 30.5575 140.921 30.9302 140.921 31.39V33.616C140.921 34.0757 141.294 34.4485 141.753 34.4485H157.107C157.567 34.4485 157.939 34.0757 157.939 33.616V31.39C157.939 30.9302 157.567 30.5575 157.107 30.5575Z" fill="#FF6B00"/>
<path d="M159.781 27.8832H145.645C145.453 27.8832 145.297 28.0388 145.297 28.2308V30.2098C145.297 30.4018 145.453 30.5575 145.645 30.5575H159.781C159.973 30.5575 160.129 30.4018 160.129 30.2098V28.2308C160.129 28.0388 159.973 27.8832 159.781 27.8832Z" fill="#F27900"/>
<path d="M168.326 19.47L172.028 21.2569C172.1 21.2847 172.166 21.3271 172.221 21.3815C172.276 21.4359 172.319 21.5011 172.348 21.573C172.376 21.6448 172.39 21.7219 172.387 21.7992C172.384 21.8765 172.366 21.9525 172.333 22.0223L165.188 36.7598C165.139 36.8597 165.071 36.9489 164.988 37.0219C164.904 37.095 164.807 37.1505 164.701 37.1852C164.596 37.2199 164.484 37.2331 164.373 37.2239C164.263 37.2147 164.155 37.1834 164.057 37.1318L160.791 35.4151C160.599 35.3137 160.455 35.1414 160.389 34.9352C160.323 34.7289 160.34 34.5049 160.437 34.3112L167.618 19.7384C167.682 19.6135 167.789 19.5167 167.92 19.467C168.051 19.4174 168.196 19.4184 168.326 19.47Z" fill="#22923B"/>
<path d="M174.952 16.5244L166.09 35.1772C166.041 35.2861 166.034 35.41 166.073 35.5233C166.111 35.6367 166.192 35.731 166.298 35.7871L168.972 37.1684C169.029 37.1982 169.092 37.2157 169.157 37.2197C169.221 37.2237 169.286 37.2142 169.346 37.1918C169.407 37.1694 169.462 37.1346 169.508 37.0896C169.555 37.0447 169.591 36.9905 169.615 36.9306L177.342 18.0856C177.366 18.0138 177.366 17.9362 177.343 17.8643C177.319 17.7924 177.273 17.73 177.211 17.6862L175.47 16.4024C175.429 16.3735 175.382 16.3537 175.333 16.3442C175.283 16.3347 175.232 16.3357 175.183 16.3473C175.135 16.3588 175.089 16.3805 175.049 16.411C175.009 16.4416 174.976 16.4802 174.952 16.5244Z" fill="#2F2E41"/>
<path opacity="0.22" d="M174.952 16.5244L166.09 35.1772C166.041 35.2861 166.034 35.41 166.073 35.5233C166.111 35.6367 166.192 35.731 166.298 35.7871L168.972 37.1684C169.029 37.1982 169.092 37.2157 169.157 37.2197C169.221 37.2237 169.286 37.2142 169.346 37.1918C169.407 37.1694 169.462 37.1346 169.508 37.0896C169.555 37.0447 169.591 36.9905 169.615 36.9306L177.342 18.0856C177.366 18.0138 177.366 17.9362 177.343 17.8643C177.319 17.7924 177.273 17.73 177.211 17.6862L175.47 16.4024C175.429 16.3735 175.382 16.3537 175.333 16.3442C175.283 16.3347 175.232 16.3357 175.183 16.3473C175.135 16.3588 175.089 16.3805 175.049 16.411C175.009 16.4416 174.976 16.4802 174.952 16.5244Z" fill="#FF0000"/>
<path d="M178.169 13.4171H179.215C179.399 13.4171 179.575 13.49 179.705 13.6198C179.834 13.7496 179.907 13.9257 179.907 14.1093V37.5892H177.468V14.1093C177.468 14.0176 177.486 13.9268 177.521 13.8422C177.557 13.7576 177.608 13.6809 177.674 13.6165C177.739 13.5521 177.816 13.5013 177.901 13.4671C177.986 13.4329 178.077 13.4158 178.169 13.4171Z" fill="#2920CE"/>
<path opacity="0.2" d="M185.527 21.2325H181.88V36.0646H185.527V21.2325Z" fill="white"/>
<path d="M193.47 15.012H187.515V37.6228H193.47V15.012Z" fill="#FF6B00"/>
<path opacity="0.2" d="M193.468 17.2104H187.497V18.5095H193.468V17.2104Z" fill="white"/>
<path opacity="0.2" d="M193.452 35.3937H187.515V36.6927H193.452V35.3937Z" fill="white"/>
<path d="M189.604 104.653C189.604 104.653 187.305 111.737 195.346 112.789C196.471 112.877 197.601 112.687 198.636 112.236C199.67 111.785 200.578 111.087 201.28 110.203C201.28 110.203 204.436 96.9966 214.581 89.5318C214.581 89.5318 222.622 83.8844 229.13 86.4824C229.13 86.4824 241.763 89.6385 246.74 109.163C246.74 109.163 251.335 112.993 257.461 109.548C257.461 109.548 255.452 93.6606 249.899 83.0367C249.899 83.0367 247.218 75.4743 232.481 71.8364C230.189 73.0141 227.652 73.6365 225.075 73.6535C222.498 73.6704 219.953 73.0814 217.646 71.934C217.646 71.934 211.111 73.9435 205.936 76.6056C202.876 78.1797 200.35 80.6256 198.679 83.6343C196.148 88.1748 191.669 96.8563 189.604 104.653Z" fill="#DE9050"/>
<path opacity="0.22" d="M255.546 110.301C253.917 110.109 252.578 104.94 252.578 104.94C253.011 102.223 252.206 100.381 251.584 99.4177C251.299 99.0058 250.915 98.6715 250.468 98.445C250.044 98.1922 249.671 97.8611 249.371 97.4692C248.597 96.5001 248.097 95.3421 247.922 94.1149C245.669 79.4598 231.523 82.7225 231.523 82.7225C226.067 83.2989 222.716 83.3934 222.716 83.3934C202.825 81.7193 200.517 89.797 200.551 93.7612C200.553 94.3547 200.428 94.9419 200.185 95.4831C199.941 96.0244 199.585 96.5072 199.139 96.8989C195.544 100.095 189.506 109.166 189.506 109.166C190.007 110.138 190.742 110.97 191.644 111.588C192.546 112.206 193.587 112.591 194.674 112.707C198.504 113.185 199.938 111.56 201.279 110.218C201.279 110.218 206.448 88.7816 223.579 85.9091C223.579 85.9091 238.988 83.3263 246.739 109.166C246.736 109.166 250.569 112.502 255.546 110.301Z" fill="black"/>
<g opacity="0.22">
<path d="M224.945 75.8432C221.663 75.8029 218.49 74.659 215.938 72.5957L216.117 72.3975C216.197 72.4707 224.183 79.847 234.109 72.2542L234.432 72.3365C230.959 74.9894 227.738 75.8432 224.945 75.8432Z" fill="black"/>
</g>
<path d="M220.421 67.3905C220.421 67.3905 219.561 71.4095 217.933 72.0804C217.933 72.0804 226.09 76.4166 232.481 71.8242C232.481 71.8242 230.011 70.4155 229.917 67.4484L220.421 67.3905Z" fill="#9E7261"/>
<path d="M208.741 149.314C208.741 149.314 195.324 139.325 199.078 118.211C199.078 118.211 204.32 86.6014 225.772 85.7811C225.772 85.7811 245.754 86.2751 249.685 123.779C249.685 123.779 251.648 152.766 226.263 155.221C226.263 155.212 219.057 156.52 208.741 149.314Z" fill="#4D4D4D"/>
<path opacity="0.22" d="M202.14 140.73C202.14 140.73 222.308 156.547 246.376 141.304C246.376 141.304 242.193 153.062 227.861 155.071C225.078 155.456 222.246 155.262 219.542 154.501C214.392 153.077 205.71 149.418 202.14 140.73Z" fill="black"/>
<path d="M211.02 149.326L187.354 204.215L185.979 203.184L210.334 147.991C210.355 147.942 210.386 147.898 210.426 147.862C210.465 147.826 210.511 147.798 210.561 147.78C210.611 147.762 210.665 147.755 210.718 147.759C210.771 147.763 210.823 147.777 210.87 147.802C213.197 149.021 226.205 155.166 237.964 147.854C238.011 147.823 238.065 147.803 238.121 147.795C238.177 147.788 238.235 147.793 238.289 147.809C238.343 147.826 238.392 147.855 238.434 147.893C238.476 147.931 238.509 147.978 238.531 148.03L261.621 203.763H260.132L237.759 149.723C237.759 149.723 226.032 156.66 211.02 149.326Z" fill="#4D4D4D"/>
<path d="M212.453 151.732L201.838 194.301C201.818 194.381 201.816 194.463 201.831 194.544C201.846 194.624 201.878 194.7 201.926 194.767C201.973 194.834 202.034 194.89 202.104 194.931C202.175 194.972 202.254 194.997 202.335 195.006C202.472 195.02 202.609 194.985 202.721 194.906C202.833 194.827 202.913 194.709 202.945 194.576L213.499 152.193L212.453 151.732Z" fill="#4D4D4D"/>
<path d="M235.262 152.995L245.776 194.268C245.815 194.424 245.909 194.562 246.04 194.655C246.171 194.749 246.332 194.793 246.492 194.78C246.592 194.773 246.688 194.744 246.775 194.695C246.862 194.647 246.938 194.58 246.996 194.499C247.054 194.418 247.094 194.325 247.112 194.227C247.13 194.129 247.127 194.029 247.102 193.932L236.43 152.306L235.262 152.995Z" fill="#4D4D4D"/>
<path d="M303.042 98.5487H284.746V101.79H303.042V98.5487Z" fill="#2F2E41"/>
<path d="M233.929 56.4128C233.929 61.1273 232.374 64.9273 229.812 67.238C228.439 68.4767 226.209 68.3053 224.476 68.3053C219.597 69.2201 215.938 63.6545 215.938 56.4128C215.938 49.1712 219.965 43.3007 224.933 43.3007C229.901 43.3007 233.929 49.1712 233.929 56.4128Z" fill="#351604"/>
<path d="M234.471 49.0543C234.471 49.0543 237.926 48.0726 237.247 46.9135C237.247 46.9135 236.164 44.7945 233.865 44.8032C233.865 44.8032 235.116 41.6556 232.954 41.3653C232.954 41.3653 231.089 41.0586 230.109 42.1195C230.109 42.1195 230.011 37.2646 226.368 38.105C226.368 38.105 223.748 38.8655 222.775 40.7942C222.775 40.7942 221.361 38.8288 219.142 40.8186C219.142 40.8186 217.365 42.8044 217.072 44.8092C217.072 44.8092 214.82 44.1798 213.936 46.0882C213.64 46.8079 213.553 47.5763 213.683 48.3161C213.814 49.0559 214.158 49.741 214.681 50.3023C214.681 50.3023 215.633 51.534 215.328 53.3636C215.023 55.1932 215.938 57.0228 215.938 57.0228C215.938 57.0228 216.616 52.5271 217.52 49.9315C217.52 49.9315 218.871 49.5733 219.688 47.8985C219.688 47.8985 223.257 49.5588 225.589 46.3341C225.589 46.3341 227.107 49.5424 230.207 47.785C230.207 47.785 231.444 49.3688 232.338 49.0973C232.338 49.0973 233.496 51.9191 233.788 54.1197C233.783 54.1302 235.081 53.3075 234.471 49.0543Z" fill="#351604"/>
</svg>
