<svg width="32" height="32" viewBox="0 0 32 32" fill="none" xmlns="http://www.w3.org/2000/svg">
<path d="M16.1663 1.66667C14.3058 1.66678 12.4636 2.03334 10.7447 2.74542C9.0259 3.45751 7.46415 4.50117 6.14865 5.81682C4.83315 7.13247 3.78967 8.69435 3.07779 10.4133C2.36591 12.1322 1.99956 13.9745 1.99967 15.835C1.99978 17.6955 2.36635 19.5378 3.07843 21.2566C3.79051 22.9754 4.83418 24.5372 6.14983 25.8527C7.46548 27.1682 9.02735 28.2117 10.7463 28.9235C12.4652 29.6354 14.3075 30.0018 16.168 30.0017C19.9255 30.0014 23.5289 28.5086 26.1857 25.8515C28.8425 23.1944 30.3349 19.5908 30.3347 15.8333C30.3345 12.0759 28.8416 8.47241 26.1845 5.81564C23.5274 3.15888 19.9238 1.66645 16.1663 1.66667ZM16.1663 0C20.3656 0 24.3929 1.66815 27.3622 4.63748C30.3315 7.6068 31.9997 11.6341 31.9997 15.8333C31.9997 20.0326 30.3315 24.0599 27.3622 27.0292C24.3929 29.9985 20.3656 31.6667 16.1663 31.6667C11.9671 31.6667 7.93981 29.9985 4.97048 27.0292C2.00116 24.0599 0.333008 20.0326 0.333008 15.8333C0.333008 11.6341 2.00116 7.6068 4.97048 4.63748C7.93981 1.66815 11.9671 0 16.1663 0ZM15.333 23.3333H16.9997V26.6667H15.333V23.3333ZM16.1663 5C17.7134 5 19.1972 5.61458 20.2911 6.70854C21.3851 7.80251 21.9997 9.28624 21.9997 10.8333C21.9997 12.3283 20.8347 13.365 19.6013 14.46L18.043 15.965C17.063 17.0883 16.9563 19.2233 16.998 19.9517V20H15.333C15.3263 19.9133 15.163 16.7267 16.7897 14.8683L18.493 13.215C19.4797 12.3383 20.333 11.58 20.333 10.8333C20.333 9.72826 19.894 8.66846 19.1126 7.88705C18.3312 7.10565 17.2714 6.66667 16.1663 6.66667C15.0613 6.66667 14.0015 7.10565 13.2201 7.88705C12.4387 8.66846 11.9997 9.72826 11.9997 10.8333H10.333C10.333 9.28624 10.9476 7.80251 12.0416 6.70854C13.1355 5.61458 14.6192 5 16.1663 5Z" fill="black"/>
</svg>
