<svg width="506" height="514" viewBox="0 0 506 514" fill="none" xmlns="http://www.w3.org/2000/svg">
<path d="M392.048 111.379C389.752 104.778 387.196 98.2228 384.398 91.8507C378.822 79.1695 377.542 67.1518 369.709 56.5469" stroke="#E48900" stroke-opacity="0.62" stroke-width="7.24" stroke-miterlimit="10"/>
<path d="M351.555 44.394C344.815 37.2898 338.511 29.6536 327.057 23.9507C302.852 11.9387 271.901 10.7203 232.395 27.7087" stroke="#E48900" stroke-opacity="0.62" stroke-width="7.24" stroke-miterlimit="10"/>
<path d="M66.3035 509.956C28.0223 453.883 15.6409 390.489 22.0386 325.652" stroke="#E48900" stroke-opacity="0.62" stroke-width="7.24" stroke-miterlimit="10"/>
<path d="M413.588 233.914V234.606C413.213 247.19 424.435 299.357 456.263 315.927C488.092 332.498 510.784 405.234 439.024 433.771C367.264 462.308 371.172 509.956 371.172 509.956" stroke="#E48900" stroke-opacity="0.62" stroke-width="7.24" stroke-miterlimit="10"/>
<path d="M232.388 81.5681V19.9408C232.378 15.707 230.75 11.6495 227.861 8.65576C224.972 5.66197 221.056 3.97543 216.971 3.96484H20.017C15.9312 3.97543 12.0156 5.66197 9.12651 8.65576C6.23739 11.6495 4.60982 15.707 4.59961 19.9408V309.716C4.6069 313.948 6.23463 318.003 9.12535 320.992C12.016 323.981 15.9333 325.659 20.017 325.658H216.971C218.881 325.67 220.776 325.293 222.546 324.548" stroke="black" stroke-width="7.24" stroke-linecap="round" stroke-linejoin="round"/>
<path d="M211.7 13.7266H25.29C17.6837 13.7266 11.5176 20.1161 11.5176 27.998V301.648C11.5176 309.531 17.6837 315.92 25.29 315.92H211.7C219.307 315.92 225.473 309.531 225.473 301.648V27.998C225.473 20.1161 219.307 13.7266 211.7 13.7266Z" fill="#FFEDBF"/>
<path d="M208.328 37.1094H31.0032C27.1986 37.1094 24.1143 40.3057 24.1143 44.2479V86.5531C24.1143 90.4958 27.1986 93.6916 31.0032 93.6916H208.328C212.132 93.6916 215.217 90.4958 215.217 86.5531V44.2479C215.217 40.3057 212.132 37.1094 208.328 37.1094Z" fill="#E48900" fill-opacity="0.62"/>
<path d="M118.496 60.9414C121.614 60.9414 124.143 58.3216 124.143 55.0898C124.143 51.858 121.614 49.2383 118.496 49.2383C115.377 49.2383 112.849 51.858 112.849 55.0898C112.849 58.3216 115.377 60.9414 118.496 60.9414Z" fill="#FFEDBF"/>
<path d="M102.711 81.5683C102.711 77.2308 104.374 73.0713 107.333 70.0048C110.293 66.9377 114.307 65.2148 118.493 65.2148C122.678 65.2148 126.693 66.9377 129.652 70.0048C132.612 73.0713 134.274 77.2308 134.274 81.5683H102.711Z" fill="#FFEDBF"/>
<path d="M119.643 154.32C113.622 154.317 107.736 156.164 102.729 159.628C97.7221 163.091 93.8194 168.016 91.5137 173.779C89.2086 179.542 88.6047 185.884 89.7782 192.003C90.9518 198.121 93.8503 203.742 98.1074 208.153C102.364 212.564 107.788 215.568 113.693 216.784C119.598 218 125.718 217.374 131.279 214.985C136.841 212.597 141.593 208.552 144.936 203.364C148.279 198.175 150.061 192.076 150.058 185.838C150.053 177.48 146.847 169.466 141.145 163.556C135.441 157.647 127.708 154.325 119.643 154.32ZM119.643 209.753C118.465 209.753 117.335 209.268 116.502 208.405C115.67 207.542 115.202 206.372 115.202 205.151C115.202 203.931 115.67 202.76 116.502 201.898C117.335 201.034 118.465 200.549 119.643 200.549C120.821 200.549 121.95 201.034 122.783 201.898C123.615 202.76 124.083 203.931 124.083 205.151C124.083 206.372 123.615 207.542 122.783 208.405C121.95 209.268 120.821 209.753 119.643 209.753ZM125.278 174.289C124.323 181.119 123.518 188.32 121.58 194.961C121.105 196.54 118.213 196.54 117.716 194.961C116.327 189.963 115.262 184.874 114.525 179.729C113.929 175.988 111.815 169.936 113.841 166.287C115.602 163.043 120.609 162.643 123.501 164.342C127.095 166.481 125.692 170.914 125.278 174.312V174.289Z" fill="#E48900"/>
<path d="M43.2227 118.953H191.816" stroke="white" stroke-width="7.24" stroke-miterlimit="10"/>
<path d="M43.2227 134.105H191.816" stroke="white" stroke-width="7.24" stroke-miterlimit="10"/>
<path d="M43.2227 231.707H191.816" stroke="white" stroke-width="7.24" stroke-miterlimit="10"/>
<path d="M77.7402 246.039H157.3" stroke="white" stroke-width="7.24" stroke-miterlimit="10"/>
<path d="M59.0107 339.912C59.0107 339.912 85.4515 231.037 167.804 204.445L201.278 196.168C201.278 196.168 206.571 171.669 204.623 169.095C202.674 166.521 198.672 161.247 191.342 162.391C184.011 163.535 165.061 163.901 160.209 139.895C155.357 115.888 173.286 58.8251 219.88 50.2909C266.474 41.7566 267.562 77.2092 267.562 77.2092L233.338 159.388L238.648 225.683L239.316 324.439L59.0107 339.912Z" fill="white"/>
<path d="M343.595 255.803C343.043 255.969 335.999 258.091 333.228 263.147C332.701 261.99 331.867 261.011 330.823 260.327C329.779 259.642 328.568 259.279 327.333 259.281H244.616C243.144 259.278 241.715 259.793 240.563 260.742C239.411 261.69 238.603 263.016 238.273 264.503L221.984 336.878C220.88 336.655 219.776 336.518 218.628 336.403L180.186 326.462C178.537 326.033 176.793 326.257 175.295 327.089C173.796 327.922 172.651 329.303 172.083 330.964C171.827 331.708 171.7 332.495 171.708 333.286C171.708 335.082 172.365 336.812 173.547 338.126C174.729 339.44 176.348 340.241 178.078 340.367L196.255 341.58C178.746 350.12 157.444 366.388 139.664 381.334C122.364 353.266 138.599 325.204 150.809 310.091C149.236 293.435 141.265 254.762 101.493 255.814C115.194 237.607 132.278 222.003 153.447 211.559C225.958 294.842 308.913 226.751 310.674 225.287C323.079 233.672 334.18 243.966 343.595 255.814" fill="#2E2E2E"/>
<path d="M336.06 494.718V509.109H96.5967V488.723C105.925 489.295 115.74 487.007 124.666 482.837C135.965 477.506 145.725 469.224 154.071 459.774C162.655 449.993 167.369 436.431 172.839 424.636C181.053 406.876 191.933 394.223 209.199 388.863L208.095 393.782C207.874 394.773 207.87 395.802 208.086 396.794C208.301 397.785 208.729 398.714 209.339 399.51C209.948 400.307 210.723 400.951 211.606 401.394C212.489 401.837 213.457 402.069 214.438 402.071H297.569C295.913 416.943 288.93 498.167 336.06 494.735" fill="#2E2E2E"/>
<path d="M297.607 116.22C297.54 123.915 296.572 131.572 294.725 139.025C293.883 142.559 292.074 145.765 289.517 148.26C286.959 150.755 283.762 152.432 280.307 153.091C280.169 147.897 278.038 143.338 274.787 140.507C275.084 136.11 275.042 131.695 274.66 127.305C274.445 124.405 274.108 121.699 273.755 119.268C273.545 117.885 273.24 116.518 272.844 115.179C271.735 113.944 270.427 112.916 268.98 112.141C263.863 109.155 253.331 105.981 233.818 110.648C230.632 111.405 227.634 112.844 225.019 114.875C224.961 114.913 224.909 114.96 224.864 115.013C223.103 116.694 220.862 118.822 218.544 119.926C216.143 121.07 213.637 121.116 211.533 118.41C211.478 118.353 211.451 118.302 211.401 118.245C210.297 116.752 209.243 114.813 207.294 114.429C203.187 113.629 201.189 117.861 200.67 121.419C200.217 124.708 201.15 127.608 202.514 130.371C203.656 132.617 205.148 134.652 206.93 136.394C207.387 136.853 207.806 137.35 208.183 137.881C208.012 137.913 207.843 137.961 207.68 138.024C207.303 138.156 206.934 138.313 206.576 138.493C201.608 140.81 198.07 146.616 197.993 153.411C197.993 153.623 189.663 153.497 188.609 153.411C184.546 153.022 180.544 151.81 177.685 148.635C169.57 139.626 169.609 126.258 172.943 115.802C176.101 105.878 180.119 96.1882 185.385 87.2593C196.795 67.9371 214.498 53.6829 236.909 52.4016C242.284 52.1219 247.671 52.448 252.978 53.374C255.489 53.7841 257.972 54.3573 260.413 55.09C283.26 65.4203 297.761 88.838 297.629 116.22" fill="#2E2E2E"/>
<path d="M284.375 336.496C281.676 343.675 275.251 347.782 270.023 345.648C264.796 343.515 262.742 336.01 265.436 328.831C268.13 321.653 274.561 317.54 279.788 319.679C285.016 321.819 287.075 329.323 284.375 336.502" fill="#FFEDBF"/>
<path d="M298.265 400.604C298.265 400.604 283.604 506.51 342.248 494.773C400.572 483.087 422.647 237.213 253.823 201.852" stroke="black" stroke-width="7.24" stroke-miterlimit="10"/>
<path d="M160.96 298.645C160.96 298.645 113.643 339.994 139.14 381.35" stroke="black" stroke-width="7.24" stroke-miterlimit="10"/>
<path d="M299.33 371.187C298.518 371.238 297.359 370.678 296.57 370.455C295.569 370.18 294.577 369.886 293.595 369.574C287.83 367.715 282.406 364.868 277.548 361.154C276.444 360.336 274.479 359.81 273.132 360.347C272.382 360.632 271.72 361.121 271.215 361.762C270.71 362.402 270.381 363.172 270.262 363.991C269.848 366.942 271.857 369.831 274.048 371.724C276.648 373.978 279.347 376.054 282.499 377.404C285.541 378.67 288.68 379.671 291.883 380.396C293.335 380.745 294.809 380.968 296.25 381.351" stroke="black" stroke-width="7.24" stroke-miterlimit="10"/>
<path d="M317.49 342.535C318.086 345.796 318.523 349.182 318.224 352.494C317.976 355.296 317.005 358.568 313.996 359.249C313.424 359.406 312.831 359.462 312.241 359.415C300.914 358.723 291.579 354.667 280.92 346.682C270.261 338.697 266.508 357.087 276.245 360.347" stroke="black" stroke-width="7.24" stroke-miterlimit="10"/>
<path d="M276.654 373.946C276.393 373.723 276.144 373.484 275.909 373.231C270.604 367.482 269.644 379.031 275.214 382.429L275.931 382.869C276.307 383.035 276.71 383.229 277.107 383.441C277.295 383.493 277.504 383.578 277.698 383.636C282.732 385.924 288.092 387.388 293.369 388.881C288.147 387.113 282.942 385.374 277.698 383.636C277.245 383.441 276.814 383.247 276.362 383.023C276.223 382.963 276.079 382.918 275.931 382.886C275.837 382.842 275.734 382.824 275.631 382.834C275.528 382.844 275.43 382.882 275.346 382.943C275.22 383.05 275.128 383.194 275.081 383.355C274.226 385.483 274.921 388.166 276.014 390.071C277.162 392.084 279.133 393.634 281.076 394.738C286.303 397.775 292.38 399.571 298.248 400.647C299.337 400.88 300.452 400.956 301.56 400.87" stroke="black" stroke-width="7.24" stroke-miterlimit="10"/>
<path d="M348.895 413.972C348.895 413.972 330.906 382.203 328.902 354.581C327.676 337.484 322.83 333.863 319.363 333.617" stroke="black" stroke-width="7.24" stroke-miterlimit="10"/>
<path d="M310.686 360.968L314.186 344.26L316.052 335.337L329.885 269.18C330.09 268.195 330.08 267.175 329.855 266.194C329.63 265.213 329.196 264.298 328.586 263.513C327.974 262.729 327.202 262.096 326.325 261.661C325.447 261.227 324.487 261.001 323.515 261H240.792C239.32 260.999 237.892 261.514 236.74 262.463C235.588 263.412 234.78 264.737 234.45 266.222L218.16 338.604L206.27 391.416L205.166 396.364C204.946 397.355 204.945 398.383 205.161 399.374C205.377 400.365 205.807 401.293 206.416 402.088C207.026 402.884 207.801 403.527 208.683 403.97C209.566 404.413 210.533 404.644 211.514 404.646H294.64" stroke="black" stroke-width="7.24" stroke-miterlimit="10"/>
<path d="M211.434 116.506C211.434 116.506 215.811 97.2696 240.53 94.7185C265.248 92.1674 271.442 111.306 271.442 111.306L270.663 113.234C270.663 113.234 238.167 99.7235 220.221 119.006C220.221 119.006 213.758 122.043 211.434 116.517" fill="#FFEDBF"/>
<path d="M218.103 336.402L179.656 326.449C178.739 326.214 177.784 326.179 176.854 326.346C175.923 326.514 175.036 326.88 174.249 327.421C173.462 327.963 172.793 328.669 172.283 329.493C171.773 330.317 171.435 331.242 171.289 332.209C171.143 333.177 171.193 334.165 171.435 335.111C171.677 336.057 172.107 336.941 172.697 337.706C173.286 338.471 174.023 339.1 174.86 339.555C175.697 340.008 176.616 340.277 177.558 340.343L195.736 341.584" stroke="black" stroke-width="7.24" stroke-miterlimit="10"/>
<path d="M310.177 225.258C310.177 225.258 226.201 295.751 152.929 211.559" stroke="black" stroke-width="7.24" stroke-miterlimit="10"/>
<path d="M150.295 310.081C148.722 293.424 140.757 254.722 100.952 255.803" stroke="black" stroke-width="7.24" stroke-miterlimit="10"/>
<path d="M343.091 255.793C343.091 255.793 335.59 257.932 332.714 263.16" stroke="black" stroke-width="7.24" stroke-miterlimit="10"/>
<path d="M38.3389 509.965H394.881" stroke="black" stroke-width="7.24" stroke-miterlimit="10"/>
<path d="M274.788 140.527C278.149 143.456 280.308 148.238 280.308 153.649C280.308 162.629 274.285 169.894 266.844 169.894C266.002 169.889 265.163 169.787 264.344 169.591C273.01 162.727 274.766 140.527 274.766 140.527" fill="#FFEDBF"/>
<path d="M225.765 176.774C229.943 178.928 234.515 180.139 239.177 180.325C243.84 180.512 248.488 179.67 252.813 177.855C277.201 167.302 276.268 136.196 273.734 119.288C273.532 117.916 273.245 116.56 272.873 115.227V115.198C270.075 105.531 262.772 97.655 253.15 95.4185C234.515 91.0542 217.474 102.002 210.403 116.743" stroke="black" stroke-width="7.24" stroke-miterlimit="10"/>
<path d="M273.103 115.533C273.103 115.533 273.026 115.419 272.866 115.23V115.201C271.21 113.268 261.622 104.042 233.867 110.671C230.683 111.426 227.686 112.866 225.074 114.898C225.013 114.935 224.957 114.981 224.908 115.035" stroke="black" stroke-width="7.24" stroke-miterlimit="10"/>
<path d="M199.126 162.391H185.398C175.489 162.391 167.634 152.987 164.217 144.161C159.415 131.749 162.49 119.045 166.812 106.981C170.433 96.8855 175.037 87.0757 181.092 78.2955C194.649 58.6473 215.117 47.5162 238.644 49.5754C240.73 49.7584 242.807 50.025 244.876 50.3762C276.467 55.6844 297.768 83.0546 297.608 116.202C297.542 123.902 296.575 131.566 294.727 139.025C293.877 142.556 292.066 145.759 289.509 148.253C286.951 150.747 283.756 152.426 280.303 153.09" stroke="black" stroke-width="7.24" stroke-miterlimit="10"/>
<path d="M208.195 137.878C207.816 137.346 207.398 136.847 206.942 136.385C205.158 134.647 203.666 132.613 202.526 130.368C201.162 127.605 200.229 124.705 200.682 121.416C201.19 117.881 203.188 113.626 207.306 114.426C209.254 114.815 210.292 116.749 211.413 118.242C215.674 123.962 221.542 118.213 225.141 114.758" stroke="black" stroke-width="7.24" stroke-miterlimit="10"/>
<path d="M274.788 140.527C278.149 143.456 280.308 148.238 280.308 153.649C280.308 162.629 274.285 169.894 266.844 169.894C266.002 169.889 265.163 169.787 264.344 169.591" stroke="black" stroke-width="7.24" stroke-miterlimit="10"/>
<path d="M245.979 151.55C248.993 153.649 256.274 155.371 254.811 149.147C253.056 141.774 250.694 126.022 265.161 124.82C265.161 124.82 271.532 125.101 274.678 127.343" stroke="black" stroke-width="7.24" stroke-miterlimit="10"/>
<path d="M251.427 163.878C251.427 163.878 244.14 167.882 240.53 159.902" stroke="black" stroke-width="7.24" stroke-miterlimit="10"/>
<path d="M236.651 135.593C236.369 138.127 237.324 140.318 238.787 140.495C240.25 140.673 241.663 138.779 241.95 136.228C242.237 133.677 241.271 131.509 239.814 131.332C238.356 131.154 236.932 133.048 236.651 135.593Z" fill="black"/>
<path d="M260.376 137.085C260.095 139.613 261.05 141.809 262.513 141.987C263.975 142.164 265.389 140.271 265.67 137.72C265.952 135.169 264.997 132.995 263.539 132.823C262.082 132.652 260.658 134.539 260.376 137.085Z" fill="black"/>
<path d="M245.979 126.439C245.979 126.439 241.519 119.312 231.412 126.073" stroke="black" stroke-width="7.24" stroke-miterlimit="10"/>
<path d="M253.817 177.387V216.923" stroke="black" stroke-width="7.24" stroke-miterlimit="10"/>
<path d="M102.979 413.974C102.979 413.974 118.706 398.53 139.13 381.37C156.91 366.424 178.234 350.127 195.749 341.593C197.99 340.512 200.165 339.545 202.279 338.733C207.323 336.741 212.738 335.958 218.116 336.445C219.241 336.541 220.362 336.697 221.472 336.914" stroke="black" stroke-width="7.24" stroke-miterlimit="10"/>
<path d="M209.581 389.69C192.309 395.049 181.429 407.702 173.221 425.463C167.762 437.257 163.036 450.819 154.453 460.601C146.112 470.044 136.353 478.333 125.053 483.664C104.552 493.33 79.3091 492.587 65.9893 471.566C56.9807 457.312 53.4368 439.602 51.6373 422.946C48.5461 393.997 58.3055 312.395 100.953 255.796C114.654 237.589 131.744 221.985 152.907 211.54C167.762 204.23 184.553 199.448 203.586 198.093L208.919 169.59" stroke="black" stroke-width="7.24" stroke-miterlimit="10"/>
<path d="M336.44 495.676V509.964" stroke="black" stroke-width="7.24" stroke-miterlimit="10"/>
<path d="M96.9785 490.574V509.965" stroke="black" stroke-width="7.24" stroke-miterlimit="10"/>
<path d="M224.881 153.651C224.934 157.939 223.464 162.098 220.752 165.337C219.232 166.066 217.576 166.443 215.9 166.441C208.465 166.441 202.437 159.177 202.437 150.196C202.383 145.908 203.856 141.751 206.571 138.516C208.091 137.783 209.747 137.405 211.424 137.406C218.859 137.406 224.881 144.676 224.881 153.651Z" fill="#FFEDBF"/>
<path d="M211.434 169.896C218.861 169.896 224.881 162.623 224.881 153.651C224.881 144.679 218.861 137.406 211.434 137.406C204.007 137.406 197.987 144.679 197.987 153.651C197.987 162.623 204.007 169.896 211.434 169.896Z" stroke="black" stroke-width="7.24" stroke-miterlimit="10"/>
<path d="M371.304 11.6844C363.02 9.12535 354.19 9.16934 345.93 11.8108C337.669 14.4523 330.35 19.5726 324.899 26.5242C319.447 33.4759 316.107 41.9467 315.301 50.8653C314.495 59.7839 316.26 68.75 320.371 76.6299C324.483 84.5092 330.757 90.9487 338.4 95.1329C346.043 99.3177 354.712 101.059 363.311 100.139C371.91 99.2181 380.052 95.6758 386.708 89.9598C393.363 84.2438 398.234 76.611 400.704 68.0264C404.015 56.5149 402.778 44.1122 397.265 33.5457C391.752 22.9798 382.413 15.116 371.304 11.6844ZM349.346 88.0121C348.542 87.7633 347.793 87.3531 347.142 86.8046C346.491 86.2561 345.951 85.58 345.552 84.8152C345.153 84.0504 344.904 83.2119 344.818 82.347C344.732 81.4821 344.811 80.6081 345.051 79.7753C345.291 78.9425 345.687 78.1663 346.217 77.4919C346.746 76.8175 347.398 76.2575 348.136 75.8445C349.627 75.01 351.377 74.8229 353 75.3251C354.624 75.8274 355.988 76.9771 356.793 78.522C357.599 80.0664 357.779 81.8797 357.295 83.5619C356.81 85.2442 355.7 86.6582 354.21 87.4927C352.719 88.3273 350.969 88.5143 349.346 88.0121ZM371.426 41.7144C371.334 41.9432 371.245 42.1663 371.161 42.3837C367.579 51.5139 363.124 60.2501 357.863 68.4611C356.588 70.4631 352.592 69.2276 352.581 66.8252C352.655 59.3595 353.208 51.9069 354.237 44.5172C354.877 39.1175 354.38 29.874 358.592 25.7212C362.329 22.0032 369.378 23.5991 372.701 27.1684C376.372 31.1324 373.192 37.3615 371.409 41.7144H371.426Z" fill="#E48900"/>
<path d="M401.544 271.383C398.511 274.578 396.461 278.633 395.653 283.036C394.845 287.439 395.314 291.991 397.003 296.117C398.692 300.243 401.524 303.757 405.14 306.215C408.757 308.673 412.995 309.965 417.32 309.926C421.645 309.888 425.862 308.521 429.436 305.999C433.012 303.478 435.785 299.913 437.405 295.758C439.025 291.603 439.42 287.043 438.539 282.655C437.658 278.268 435.541 274.249 432.456 271.108C428.321 266.899 422.742 264.563 416.945 264.614C411.148 264.666 405.609 267.1 401.544 271.383ZM428.967 299.313C428.373 299.94 427.563 300.297 426.715 300.304C425.867 300.311 425.051 299.969 424.446 299.353C423.842 298.738 423.498 297.898 423.491 297.02C423.483 296.141 423.814 295.296 424.408 294.669C424.702 294.359 425.052 294.112 425.439 293.942C425.826 293.772 426.24 293.683 426.66 293.679C427.08 293.675 427.497 293.757 427.886 293.92C428.275 294.083 428.629 294.324 428.928 294.629C429.228 294.934 429.467 295.297 429.631 295.698C429.795 296.098 429.881 296.528 429.884 296.963C429.888 297.398 429.809 297.83 429.652 298.233C429.494 298.636 429.262 299.003 428.967 299.313ZM414.262 278.465C417.171 282.411 420.334 286.472 422.619 290.842C423.171 291.895 421.708 293.439 420.682 292.878C417.511 291.098 414.459 289.1 411.546 286.896C409.393 285.34 405.33 283.401 404.547 280.501C403.834 277.915 406.164 275.061 408.466 274.375C411.292 273.54 412.793 276.531 414.262 278.465Z" fill="#FFEDBF"/>
<path d="M487.269 89.9184C489.447 87.1419 490.782 83.758 491.104 80.1955C491.426 76.6331 490.722 73.0513 489.08 69.9035C487.438 66.7558 484.933 64.1835 481.88 62.511C478.827 60.8391 475.364 60.1424 471.929 60.5096C468.495 60.8768 465.242 62.2914 462.583 64.5737C459.924 66.8565 457.977 69.9047 456.99 73.3338C456.002 76.7624 456.018 80.4175 457.036 83.8369C458.053 87.2563 460.026 90.2862 462.705 92.5439C464.484 94.0431 466.531 95.1642 468.729 95.8437C470.926 96.5233 473.231 96.7475 475.512 96.5033C477.793 96.2596 480.005 95.5526 482.023 94.4229C484.04 93.2926 485.823 91.7625 487.269 89.9184ZM463.439 69.8469C463.651 69.5769 463.911 69.3533 464.206 69.188C464.501 69.0227 464.824 68.9191 465.158 68.8831C465.491 68.8471 465.828 68.8797 466.149 68.9792C466.47 69.0781 466.77 69.2417 467.03 69.4608C467.291 69.6799 467.507 69.9499 467.666 70.2553C467.826 70.5608 467.926 70.896 467.96 71.2415C467.995 71.5869 467.964 71.9359 467.868 72.2688C467.772 72.6017 467.614 72.9117 467.403 73.1817C466.976 73.7262 466.358 74.0729 465.684 74.1455C465.011 74.2176 464.338 74.0099 463.812 73.5678C463.287 73.1256 462.952 72.485 462.882 71.7871C462.812 71.0893 463.013 70.3915 463.439 69.8469ZM476.649 85.2909C474.049 82.3794 471.25 79.4165 469.103 76.0989C468.584 75.3038 469.655 73.9653 470.494 74.3314C473.152 75.5057 475.732 76.8625 478.216 78.3926C480.038 79.4622 483.411 80.6806 484.244 82.9343C484.995 84.9306 483.35 87.3844 481.567 88.0823C479.365 88.9632 477.951 86.7038 476.649 85.2566V85.2909Z" fill="#FFEDBF"/>
<path d="M313.72 209.203C319.881 220.071 319.599 227.81 317.998 240.354C317.358 245.13 322.32 248.362 326.344 245.96C361.899 224.796 395.085 241.532 437.479 231.156C453.045 227.37 472.453 219.522 485.756 206.903C490.171 200.111 492.529 192.109 492.53 183.92C492.53 149.6 447.266 121.738 391.441 121.738C355.667 121.738 324.236 133.178 306.268 150.413C306.268 150.413 306.268 150.413 306.218 150.464C301.658 157.54 299.152 165.273 299.152 173.344C299.125 185.659 307.963 199.01 313.72 209.203Z" fill="#E48900" fill-opacity="0.62"/>
<path d="M299.286 173.343C299.286 173.629 299.286 173.915 299.286 174.212C299.485 186.224 305.303 197.418 312.192 207.102C316.807 213.577 322.282 220.773 320.985 228.712C320.433 232.213 318.529 235.388 318.054 238.9C317.579 242.412 319.384 246.793 322.807 246.976C324.982 247.091 326.831 245.489 328.553 244.116C338.738 235.937 351.975 232.877 364.847 232.339C377.72 231.801 390.576 233.563 403.454 233.94C422.023 234.512 440.885 232.087 458.036 224.708C473.404 218.107 487.485 207.274 496.731 192.802C505.817 178.594 500.446 157.962 490.753 145.606C481.667 134.012 468.502 126.593 455 121.365C418.684 107.317 377.234 107.637 341.42 123.03C330.789 127.606 320.505 133.554 312.534 142.163C304.767 150.549 299.369 161.725 299.286 173.343Z" stroke="black" stroke-width="7.24" stroke-miterlimit="10"/>
<path d="M448.292 187.015C455.993 187.015 462.236 180.546 462.236 172.566C462.236 164.586 455.993 158.117 448.292 158.117C440.591 158.117 434.349 164.586 434.349 172.566C434.349 180.546 440.591 187.015 448.292 187.015Z" fill="white"/>
<path d="M403.193 187.015C410.894 187.015 417.136 180.546 417.136 172.566C417.136 164.586 410.894 158.117 403.193 158.117C395.492 158.117 389.249 164.586 389.249 172.566C389.249 180.546 395.492 187.015 403.193 187.015Z" fill="white"/>
<path d="M357.217 187.015C364.918 187.015 371.16 180.546 371.16 172.566C371.16 164.586 364.918 158.117 357.217 158.117C349.516 158.117 343.273 164.586 343.273 172.566C343.273 180.546 349.516 187.015 357.217 187.015Z" fill="white"/>
</svg>
