<svg width="737" height="535" viewBox="0 0 737 535" fill="none" xmlns="http://www.w3.org/2000/svg">
<path d="M161.893 37.8577H108.679V89.4005H126.934L136.135 99.6408L143.731 89.4005H161.893V37.8577Z" fill="white"/>
<path d="M136.172 100.37L126.731 89.8618H108.218V37.3964H162.354V89.8618H143.961L136.172 100.37ZM109.141 88.9392H127.137L136.098 98.912L143.481 88.9392H161.413V38.3189H109.141V88.9392Z" fill="#2F2E41"/>
<path d="M126.537 57.1758H131.271C131.269 56.6476 131.371 56.1241 131.571 55.6352C131.771 55.1462 132.065 54.7014 132.437 54.3262C132.809 53.951 133.251 53.6527 133.738 53.4483C134.226 53.2439 134.748 53.1375 135.277 53.1351H135.397C136.19 53.1089 136.971 53.3302 137.633 53.7683C138.295 54.2065 138.803 54.8396 139.088 55.5798C139.34 56.1988 139.441 56.8685 139.383 57.5341C139.325 58.1996 139.11 58.8419 138.756 59.4084C137.953 60.7277 136.19 61.927 133.007 61.3735V72.075H137.686V65.7832C139.604 65.2181 141.284 64.0393 142.468 62.4278C143.651 60.8163 144.273 58.8611 144.238 56.8622C144.238 49.9523 138.036 48.347 135.388 48.347C133.366 48.347 126.445 48.836 126.537 57.1758Z" fill="#FF6F00"/>
<path d="M137.75 74.2245H133.007V78.6527H137.75V74.2245Z" fill="#FF6F00"/>
<path d="M36.1586 194.728L26.7359 197.616C26.7359 197.616 29.1631 205.522 20.9863 208.179C19.4237 208.72 17.7312 208.76 16.1447 208.293C14.5582 207.827 13.1568 206.877 12.1358 205.577C11.2622 204.496 10.6558 203.224 10.3655 201.865C10.0753 200.506 10.1095 199.097 10.4654 197.754C11.259 194.636 14.0092 191.121 20.7094 190.374L14.1938 169.155L4.88188 172.006L8.74878 184.442C8.74878 184.442 -3.24877 191.822 1.13495 206.205C5.36178 219.96 18.6698 219.379 23.9764 217.755C27.9541 216.472 41.4283 211.288 36.1586 194.728Z" fill="#E0E0E0"/>
<path d="M10.1692 155.913L0.719482 158.81L3.42545 167.63L12.8752 164.733L10.1692 155.913Z" fill="#E0E0E0"/>
<path d="M225.646 354.135L220.33 355.759C220.516 356.347 220.585 356.966 220.532 357.581C220.479 358.196 220.305 358.794 220.02 359.341C219.736 359.889 219.346 360.375 218.873 360.772C218.401 361.169 217.855 361.468 217.266 361.654L217.091 361.71C216.209 362.017 215.253 362.043 214.356 361.781C213.46 361.52 212.667 360.985 212.089 360.252C211.596 359.639 211.256 358.918 211.096 358.149C210.935 357.379 210.959 356.582 211.166 355.824C211.618 354.052 213.178 352.133 216.943 351.645L213.252 339.651L207.927 341.321L210.142 348.342C208.179 349.631 206.695 351.53 205.92 353.746C205.144 355.962 205.12 358.371 205.85 360.602C208.222 368.352 215.743 368.038 218.715 367.125C220.995 366.387 228.599 363.472 225.646 354.135Z" fill="#E0E0E0"/>
<path d="M210.742 334.485L205.391 336.101L206.9 341.096L212.251 339.48L210.742 334.485Z" fill="#E0E0E0"/>
<path d="M660.243 28.4108L665.781 28.1248C665.746 27.5055 665.834 26.8854 666.039 26.3001C666.244 25.7147 666.563 25.1756 666.977 24.7137C667.391 24.2518 667.892 23.876 668.452 23.6081C669.012 23.3402 669.619 23.1852 670.238 23.1522H670.395C671.336 23.0607 672.281 23.2671 673.098 23.7423C673.914 24.2175 674.56 24.9373 674.945 25.7999C675.275 26.5122 675.431 27.2925 675.4 28.0767C675.37 28.8609 675.154 29.6267 674.77 30.3112C673.902 31.898 671.927 33.4202 668.134 32.9405L668.762 45.4503L674.299 45.1735L673.847 37.8577C676.065 37.0813 677.967 35.5985 679.261 33.6369C680.555 31.6753 681.169 29.3434 681.008 26.9993C680.602 18.89 673.265 17.3771 670.118 17.5339C667.728 17.6446 659.644 18.6317 660.243 28.4108Z" fill="#E0E0E0"/>
<path d="M525.52 48.6738L542.591 44.0042C542.057 42.0848 541.905 40.0794 542.144 38.103C542.383 36.1265 543.007 34.2179 543.982 32.4864C544.956 30.7549 546.261 29.2346 547.822 28.0126C549.384 26.7907 551.17 25.891 553.08 25.3654L553.569 25.2585C556.439 24.3307 559.528 24.3344 562.4 25.2691C565.272 26.2037 567.781 28.022 569.573 30.4665C571.089 32.4768 572.111 34.8187 572.554 37.3C572.996 39.7813 572.848 42.3313 572.12 44.7407C570.503 50.3105 565.389 56.4321 553.232 57.5109L563.77 96.3347L580.847 91.694L574.419 69.0476C580.804 65.1003 585.718 59.1519 588.407 52.1157C591.096 45.0795 591.41 37.3446 589.303 30.0989C582.474 4.93165 558.558 5.18274 548.852 7.81876C541.474 9.79449 516.942 18.3993 525.52 48.6738Z" fill="#E0E0E0"/>
<path d="M674.397 47.7476L668.83 48.0276L669.092 53.2242L674.659 52.9442L674.397 47.7476Z" fill="#E0E0E0"/>
<path d="M583.359 97.8749L566.374 102.761L570.454 116.933L587.438 112.047L583.359 97.8749Z" fill="#E0E0E0"/>
<path d="M197.636 32.2947L203.174 32.0179C203.139 31.3981 203.227 30.7776 203.432 30.1917C203.637 29.6058 203.956 29.0661 204.37 28.6034C204.784 28.1408 205.285 27.7642 205.844 27.4953C206.404 27.2263 207.011 27.0703 207.631 27.0361H207.77C208.7 26.9559 209.632 27.1667 210.438 27.6394C211.243 28.1121 211.881 28.8233 212.264 29.6746C212.591 30.3889 212.746 31.1697 212.717 31.9546C212.689 32.7395 212.476 33.5067 212.098 34.1951C211.231 35.8004 209.237 37.3041 205.453 36.8336L206.09 49.3342L211.627 49.0574L211.277 41.7324C213.494 40.9577 215.396 39.4766 216.69 37.5166C217.984 35.5565 218.598 33.226 218.438 30.8832C218.023 22.774 210.686 21.261 207.548 21.4178C205.112 21.5285 197.037 22.5156 197.636 32.2947Z" fill="#E0E0E0"/>
<path d="M211.776 51.6321L206.209 51.9121L206.47 57.1087L212.038 56.8287L211.776 51.6321Z" fill="#E0E0E0"/>
<path d="M733.336 120.407L724.956 125.629C724.956 125.629 729.303 132.659 722.077 137.299C720.701 138.218 719.074 138.687 717.42 138.639C715.766 138.591 714.168 138.029 712.848 137.032C711.722 136.201 710.809 135.116 710.182 133.866C709.555 132.615 709.232 131.235 709.24 129.836C709.24 126.616 711.012 122.566 717.278 120.066L705.603 101.228L697.297 106.357L704.136 117.428C704.136 117.428 694.372 127.576 702.29 140.399C709.858 152.65 722.594 148.702 727.31 145.796C730.928 143.517 742.63 135.076 733.336 120.407Z" fill="#EBEBEB"/>
<path d="M698.384 89.4667L689.976 94.6616L694.829 102.509L703.236 97.3142L698.384 89.4667Z" fill="#EBEBEB"/>
<path d="M222.573 195.254L228.599 199.682C228.599 199.682 232.291 194.626 237.634 198.4C238.673 199.105 239.466 200.118 239.901 201.295C240.336 202.473 240.392 203.757 240.062 204.968C239.801 205.99 239.303 206.936 238.606 207.728C237.91 208.52 237.036 209.136 236.056 209.526C233.841 210.448 230.436 210.347 226.901 206.657L216.943 220.236L222.896 224.6L228.738 216.657C228.738 216.657 238.705 220.642 245.442 211.435C251.902 202.588 245.516 194.829 242.12 192.32C239.526 190.401 230.279 184.561 222.573 195.254Z" fill="#FAFAFA"/>
<path d="M215.426 221.327L211.293 226.998L217.363 231.418L221.496 225.746L215.426 221.327Z" fill="#FAFAFA"/>
<path d="M534.769 68.5616L530.621 74.2034L536.659 78.6403L540.807 72.9985L534.769 68.5616Z" fill="#FAFAFA"/>
<path d="M252.105 273.744V305.046H181.089V438.622H146.684V129.993H269.308V161.286H181.089V273.744H252.105Z" fill="#FF6F00"/>
<path d="M302.929 376.452L291.023 438.622H259.276L318.341 129.993H368.177L427.242 438.622H392.91L380.996 376.452H302.929ZM307.359 346.93H376.142L341.302 168.786L307.359 346.93Z" fill="#FF6F00"/>
<path d="M583.736 204.553V364.154C583.736 383.113 579.768 399.866 571.822 412.21C575.356 419.71 581.051 421.915 590.796 421.915H595.217V452.359H589.486C570.105 452.359 557.286 445.311 550.226 432.524C540.517 438.253 527.735 441.75 512.729 441.75C465.542 441.75 442.165 410.881 442.165 364.145V204.553C442.165 157.374 465.542 126.948 512.729 126.948C560.359 126.902 583.736 157.328 583.736 204.553ZM476.118 202.708V365.87C476.118 394.091 488.023 410.402 512.72 410.402C537.859 410.402 549.34 394.091 549.34 365.87V202.708C549.34 174.93 537.859 158.186 512.72 158.186C488.023 158.186 476.118 174.93 476.118 202.708Z" fill="#FF6F00"/>
<g opacity="0.5">
<path d="M252.105 273.744V305.046H181.089V438.622H146.684V129.993H269.308V161.286H181.089V273.744H252.105Z" fill="white"/>
<path d="M302.929 376.452L291.023 438.622H259.276L318.341 129.993H368.177L427.242 438.622H392.91L380.996 376.452H302.929ZM307.359 346.93H376.142L341.302 168.786L307.359 346.93Z" fill="white"/>
<path d="M583.736 204.553V364.154C583.736 383.113 579.768 399.866 571.822 412.21C575.356 419.71 581.05 421.915 590.796 421.915H595.217V452.359H589.486C570.105 452.359 557.286 445.311 550.226 432.524C540.517 438.253 527.735 441.75 512.729 441.75C465.542 441.75 442.165 410.881 442.165 364.145V204.553C442.165 157.374 465.542 126.948 512.729 126.948C560.359 126.902 583.736 157.328 583.736 204.553ZM476.118 202.708V365.87C476.118 394.091 488.023 410.402 512.72 410.402C537.859 410.402 549.34 394.091 549.34 365.87V202.708C549.34 174.93 537.859 158.186 512.72 158.186C488.023 158.186 476.118 174.93 476.118 202.708Z" fill="white"/>
</g>
<path d="M281.564 376.452L269.649 438.622H237.893L296.958 129.993H346.794L405.859 438.622H371.536L359.631 376.452H281.564ZM285.985 346.93H354.767L319.91 168.786L285.985 346.93Z" fill="#FF6F00"/>
<path opacity="0.3" d="M281.564 376.452L269.649 438.622H237.893L296.958 129.993H346.794L405.859 438.622H371.536L359.631 376.452H281.564ZM285.985 346.93H354.767L319.91 168.786L285.985 346.93Z" fill="white"/>
<path d="M238.179 273.864V305.166H167.172V438.798H132.767V130.168H255.382V161.47H167.172V273.864H238.179Z" fill="#FF6F00"/>
<path opacity="0.3" d="M238.179 273.864V305.166H167.172V438.798H132.767V130.168H255.382V161.47H167.172V273.864H238.179Z" fill="white"/>
<path d="M562.362 204.175V363.776C562.362 382.734 558.394 399.497 550.457 411.841C553.982 419.332 559.686 421.537 569.422 421.537H573.852V451.926H568.121C548.74 451.926 535.912 444.868 528.87 432.082C519.162 437.811 506.37 441.307 491.373 441.307C444.177 441.307 420.809 410.439 420.809 363.702V204.101C420.809 156.922 444.177 126.496 491.373 126.496C538.985 126.607 562.362 157.023 562.362 204.175ZM454.716 202.45V365.584C454.716 393.805 466.622 410.106 491.318 410.106C516.458 410.106 527.929 393.805 527.929 365.584V202.45C527.929 174.672 516.458 157.909 491.318 157.909C466.649 157.909 454.716 174.672 454.716 202.45Z" fill="#FF6F00"/>
<path opacity="0.3" d="M562.362 204.175V363.776C562.362 382.734 558.394 399.497 550.457 411.841C553.982 419.332 559.686 421.537 569.422 421.537H573.852V451.926H568.121C548.74 451.926 535.912 444.868 528.87 432.082C519.162 437.811 506.37 441.307 491.373 441.307C444.177 441.307 420.809 410.439 420.809 363.702V204.101C420.809 156.922 444.177 126.496 491.373 126.496C538.985 126.607 562.362 157.023 562.362 204.175ZM454.716 202.45V365.584C454.716 393.805 466.622 410.106 491.318 410.106C516.458 410.106 527.929 393.805 527.929 365.584V202.45C527.929 174.672 516.458 157.909 491.318 157.909C466.649 157.909 454.716 174.672 454.716 202.45Z" fill="white"/>
<path d="M578.882 262.277C578.882 262.277 570.133 292.675 579.315 355.372C581.875 368.246 582.402 381.441 580.875 394.478C580.875 394.478 571.471 429.222 569.948 467.886L589.393 469.196C589.393 469.196 609.282 395.392 608.193 378.786L607.094 338.194C607.094 338.194 604.695 293.404 607.316 286.411C607.316 286.411 613.656 334.476 615.622 350.639L619.996 378.389C621.456 390.594 621.456 402.929 619.996 415.134C619.996 415.134 618.418 429.895 621.058 451.114L623.051 468.421H643.816L646.003 410.955L646.871 344.532C646.871 344.532 637.697 272.85 630.047 257.12C630.019 257.037 588.609 262.499 578.882 262.277Z" fill="#2F2E41"/>
<path d="M643.345 240.247C643.345 240.247 643.475 240.874 644.785 240.597C645.107 240.353 645.415 240.091 645.708 239.813C645.312 239.664 644.883 239.625 644.466 239.701C644.05 239.778 643.663 239.966 643.345 240.247V240.247Z" fill="#FF6F00"/>
<path opacity="0.3" d="M643.345 240.247C643.345 240.247 643.475 240.874 644.785 240.597C645.107 240.353 645.415 240.091 645.708 239.813C645.312 239.664 644.883 239.625 644.466 239.701C644.05 239.778 643.663 239.966 643.345 240.247V240.247Z" fill="black"/>
<path d="M598.327 177.061C598.327 177.061 593.085 177.984 584.345 182.679C584.345 182.679 578.882 184.967 580.404 220.144C580.404 220.144 577.848 251.216 576.242 261.53C576.199 261.808 576.219 262.093 576.3 262.362C576.381 262.632 576.521 262.88 576.71 263.089C576.9 263.298 577.133 263.462 577.394 263.568C577.655 263.675 577.936 263.723 578.217 263.707C587.649 263.163 622.294 261.004 634.781 257.923C635.394 257.773 635.928 257.399 636.278 256.875C636.629 256.35 636.77 255.714 636.673 255.09L629.788 210.31L623.199 180.428C620.173 178.878 616.95 177.745 613.619 177.061H598.327Z" fill="#FF6F00"/>
<path d="M613.628 173.389C610.992 173.038 608.499 171.983 606.411 170.336C606.411 170.336 608.599 175.991 613.628 178.842V173.389Z" fill="#F7A48B"/>
<path d="M623.208 180.428L629.788 210.31C629.788 210.31 635.815 218.853 642.912 223.678C643.307 223.944 643.628 224.308 643.841 224.735C644.055 225.162 644.154 225.637 644.13 226.113L643.336 240.247C643.336 240.247 650.775 236.75 650.987 249.638C650.987 249.638 663.224 235.652 655.795 219.268L643.327 201.158C642.266 199.61 641.101 198.137 639.838 196.748C636.248 192.8 628.561 184.534 623.208 180.428Z" fill="#FF6F00"/>
<path opacity="0.2" d="M623.208 180.428L629.788 210.31C629.788 210.31 635.815 218.853 642.912 223.678C643.307 223.944 643.628 224.308 643.841 224.735C644.055 225.162 644.154 225.637 644.13 226.113L643.336 240.247C643.336 240.247 650.775 236.75 650.987 249.638C650.987 249.638 663.224 235.652 655.795 219.268L643.327 201.158C642.266 199.61 641.101 198.137 639.838 196.748C636.248 192.8 628.561 184.534 623.208 180.428Z" fill="black"/>
<path d="M600.948 241.114C600.948 241.114 606.319 233.816 609.429 232.184C609.643 232.066 609.883 232.007 610.127 232.012C610.37 232.018 610.608 232.088 610.815 232.216C611.023 232.343 611.193 232.524 611.308 232.739C611.422 232.953 611.478 233.195 611.469 233.438C611.335 234.514 610.896 235.528 610.205 236.363C610.205 236.363 614.339 233.152 623.799 232.414C623.988 232.399 624.177 232.451 624.332 232.56C624.487 232.67 624.599 232.83 624.648 233.014C624.897 234.01 624.38 235.929 617.385 236.898C617.25 236.918 617.127 236.986 617.039 237.089C616.951 237.193 616.903 237.325 616.905 237.461C616.904 237.537 616.92 237.613 616.951 237.684C616.982 237.754 617.026 237.817 617.083 237.869C617.139 237.921 617.206 237.961 617.279 237.986C617.351 238.011 617.428 238.02 617.505 238.014L624.334 237.562C624.794 237.529 625.256 237.599 625.686 237.77C626.115 237.94 626.5 238.204 626.812 238.544C627.125 238.884 627.356 239.29 627.489 239.732C627.623 240.173 627.655 240.64 627.583 241.095C627.176 243.374 624.925 246.28 617.339 248.54C612.113 250.824 606.598 252.377 600.948 253.153V241.114Z" fill="#B26647"/>
<path d="M601.391 496.079C588.277 499.769 567.078 493.892 567.078 493.892L569.92 467.895L589.366 469.205L585.868 484.086C585 490.202 587.834 490.636 587.834 490.636L601.391 496.079Z" fill="#B26647"/>
<path d="M660.834 496.725C636.359 498.035 624.555 493.671 624.555 493.671C625.866 484.713 623.023 468.329 623.023 468.329H643.788L642.063 485.783C641.959 486.769 642.232 487.758 642.829 488.551C647.748 495.064 658.721 496.522 660.567 496.725H660.834Z" fill="#B26647"/>
<path d="M678.101 503.939L623.023 503.994C622.697 500.48 623.223 496.939 624.555 493.671C624.555 493.671 636.359 498.035 660.834 496.725C682.033 500.442 678.101 503.939 678.101 503.939Z" fill="#FF6F00"/>
<path d="M619.101 503.994H565.777C564.918 496.614 567.078 493.846 567.078 493.846C567.078 493.846 588.304 499.751 601.391 496.033C619.969 497.822 619.101 503.994 619.101 503.994Z" fill="#FF6F00"/>
<path d="M600.948 241.114V253.19C600.948 253.19 546.959 253.135 547.07 241.114C547.07 241.114 545.658 239.592 551.343 229.536C551.343 229.536 573.852 174.044 585.656 183.408C585.656 183.408 594.395 187.818 584.345 208.317L573.935 230.274C573.935 230.274 570.354 234.527 575.781 235.726C575.818 235.772 586.089 237.839 600.948 241.114Z" fill="#FF6F00"/>
<path opacity="0.2" d="M600.948 241.114V253.19C600.948 253.19 546.959 253.135 547.07 241.114C547.07 241.114 545.658 239.592 551.343 229.536C551.343 229.536 573.852 174.044 585.656 183.408C585.656 183.408 594.395 187.818 584.345 208.317L573.935 230.274C573.935 230.274 570.354 234.527 575.781 235.726C575.818 235.772 586.089 237.839 600.948 241.114Z" fill="black"/>
<path d="M626.438 238.198C623.861 239.512 621.024 240.237 618.132 240.32C620.711 239.011 623.547 238.286 626.438 238.198Z" fill="#734335"/>
<path d="M627.583 241.095C624.817 242.565 621.78 243.453 618.658 243.706C621.425 242.239 624.461 241.351 627.583 241.095Z" fill="#734335"/>
<path d="M626.097 227.322L624.251 227.405C624.063 227.414 623.883 227.483 623.739 227.603C623.594 227.723 623.492 227.886 623.448 228.069L616.6 256.391C616.579 256.48 616.579 256.572 616.599 256.661C616.619 256.75 616.659 256.833 616.715 256.904C616.772 256.975 616.845 257.033 616.927 257.072C617.009 257.111 617.1 257.13 617.191 257.129H619.572L626.097 227.322Z" fill="white"/>
<path d="M617.588 256.142L624.629 227.931C624.669 227.757 624.766 227.603 624.906 227.492C625.045 227.381 625.217 227.321 625.395 227.322H637.54C637.662 227.323 637.782 227.353 637.891 227.407C638 227.462 638.095 227.541 638.168 227.638C638.242 227.735 638.293 227.847 638.317 227.967C638.341 228.086 638.337 228.209 638.306 228.327L630.757 256.539C630.709 256.708 630.608 256.857 630.468 256.963C630.328 257.07 630.158 257.128 629.982 257.129H618.363C618.242 257.13 618.122 257.103 618.013 257.051C617.904 256.998 617.808 256.921 617.733 256.826C617.658 256.73 617.606 256.619 617.581 256.501C617.556 256.382 617.558 256.26 617.588 256.142Z" fill="#2F2E41"/>
<path d="M651.015 249.638C651.015 249.638 649.492 255.1 634.624 256.631C634.624 256.631 627.823 258.661 628.487 254.583C628.487 254.583 621.731 254.445 624.352 250.727C623.495 250.806 622.631 250.721 621.805 250.478C621.561 250.396 621.347 250.244 621.189 250.04C621.031 249.837 620.938 249.591 620.92 249.334C620.902 249.077 620.961 248.821 621.089 248.597C621.217 248.374 621.408 248.194 621.639 248.079C622.358 247.77 623.138 247.631 623.919 247.673H630.776C630.894 247.672 631.01 247.647 631.118 247.6C631.226 247.552 631.323 247.483 631.404 247.397C631.484 247.31 631.546 247.208 631.585 247.097C631.625 246.986 631.642 246.868 631.634 246.751V246.751C631.615 246.524 631.508 246.313 631.335 246.165C631.162 246.016 630.938 245.942 630.711 245.957L620.679 246.317C620.471 246.324 620.264 246.29 620.069 246.215C619.874 246.141 619.697 246.028 619.547 245.883C619.397 245.738 619.278 245.565 619.197 245.373C619.115 245.182 619.073 244.975 619.074 244.767V244.767C619.071 244.365 619.224 243.978 619.501 243.687C619.779 243.397 620.158 243.225 620.559 243.208L635.935 242.212C635.293 240.703 634.322 239.357 633.092 238.272C633.092 238.272 631.348 236.75 632.658 235.219C632.658 235.219 633.314 233.466 637.688 238.06C637.688 238.06 642.118 243.762 645.699 239.813C645.68 239.813 650.784 239.149 651.015 249.638Z" fill="#B26647"/>
<path d="M624.334 250.727C626.792 250.095 629.37 250.095 631.828 250.727C629.37 251.364 626.791 251.364 624.334 250.727V250.727Z" fill="#734335"/>
<path d="M628.469 254.583C630.325 253.862 632.366 253.764 634.283 254.306C632.426 255.028 630.385 255.126 628.469 254.583Z" fill="#734335"/>
<path d="M76.5165 462.369V471.816C77.8023 472.652 78.8772 473.774 79.6569 475.094C80.4366 476.415 80.9001 477.898 81.0109 479.427C81.0109 479.427 84.3887 476.798 91.8733 476.087V462.369H76.5165Z" fill="#B26647"/>
<path d="M87.5912 218.991C83.8445 228.484 77.4869 236.723 69.2534 242.756C67.0452 244.364 64.9598 246.134 63.0147 248.051L60.366 250.681C61.7034 252.58 63.457 254.149 65.4929 255.268C67.5289 256.387 69.7936 257.027 72.1143 257.138C72.1143 257.138 95.6757 243.3 100.521 232.912L87.5912 218.991Z" fill="#B26647"/>
<path d="M170.799 203.787L168.879 225.929L165.04 225.292L165.806 273.191L165.889 278.8C126.869 290.092 101.49 278.154 101.49 278.154C101.748 276.946 102.062 274.584 102.413 271.53C103.954 257.378 105.975 228.272 105.975 228.272L101.924 234.453L86.3545 217.616C90.1423 211.097 94.3471 204.829 98.9427 198.852C104.683 191.195 114.632 187.966 119.246 186.859C120.806 186.471 121.756 186.324 121.756 186.324L136.938 184.146H140.805C173.411 186.25 170.799 203.787 170.799 203.787Z" fill="#2F2E41"/>
<path d="M140.759 184.146C137.372 194.774 130.062 194.193 130.062 194.193C123.925 193.51 120.381 188.741 119.2 186.813C120.76 186.425 121.71 186.277 121.71 186.277L136.892 184.1L140.759 184.146Z" fill="#FF6F00"/>
<path d="M86.3453 217.644L89.1694 212.893L105.209 229.462L101.914 234.481L86.3453 217.644Z" fill="#FF6F00"/>
<path opacity="0.2" d="M146.213 221.27L144.137 220.836L139.282 233.918L120.372 225.956L121.96 227.875L142.217 238.319L146.213 221.27Z" fill="black"/>
<path opacity="0.2" d="M165.04 225.32C164.246 260.829 153.476 263.476 151.99 263.67L151.501 263.753C141.257 265.534 128.494 252.978 128.115 252.609C134.336 257.351 142.475 261.354 151.815 260.709C151.815 260.709 159.493 260.709 162.484 241.944L165.04 225.32Z" fill="black"/>
<path opacity="0.2" d="M165.889 278.828C126.869 290.12 101.49 278.182 101.49 278.182C101.748 276.973 102.062 274.612 102.413 271.558C111.466 274.778 138.11 282.453 165.815 273.218L165.889 278.828Z" fill="black"/>
<path d="M61.2612 238.318L72.9081 276.484H105.209L94.356 239.61L61.2612 238.318Z" fill="#FF6F00"/>
<path d="M95.7772 239.029L94.356 239.61L105.209 276.484L106.603 275.626L95.7772 239.029Z" fill="#FF6F00"/>
<path opacity="0.2" d="M95.7772 239.029L94.356 239.61L105.209 276.484L106.603 275.626L95.7772 239.029Z" fill="black"/>
<path d="M101.49 278.182L64.5744 337.022C64.5744 337.022 50.0758 357.484 54.1273 384.773C54.1273 384.773 57.9665 433.382 70.3332 462.369H87.7204L87.822 466.853C88.6527 467.535 89.5351 468.152 90.4614 468.698C94.4575 471.124 102.588 474.676 111.919 471.105C112.867 470.742 113.792 470.32 114.687 469.842C114.687 469.842 136.412 369.607 151.732 316.938C152.524 314.202 153.626 311.564 155.017 309.078C158.026 303.727 163.748 292.223 165.898 278.828C165.889 278.828 132.194 290.35 101.49 278.182ZM98.1491 375.4L92.9625 409.295L85.284 370.492L105.329 342.354L98.1491 375.4Z" fill="#FF6F00"/>
<path opacity="0.2" d="M85.2839 462.369C85.2839 462.369 87.1297 423.216 91.5503 402.182L92.9624 409.295L87.7388 462.369H85.2839Z" fill="black"/>
<path opacity="0.2" d="M97.9829 352.669C97.9829 352.669 108.891 299.806 117.364 282.499L105.366 342.354L97.9829 352.669Z" fill="black"/>
<path d="M96.5802 476.438C97.5466 479.937 98.2591 483.501 98.712 487.102L96.5802 502.232H46.615L40.7085 495.627L54.8287 485.396L71.5699 476.631C72.6065 476.095 73.4846 475.297 74.1171 474.316C74.7874 473.343 75.1535 472.194 75.1692 471.013C76.8104 471.765 78.2213 472.942 79.2562 474.421C80.2912 475.9 80.9129 477.628 81.0572 479.427C85.6908 476.564 91.2143 475.5 96.5802 476.438V476.438Z" fill="#FF6F00"/>
<path opacity="0.2" d="M96.5802 476.438C97.5466 479.937 98.2591 483.501 98.712 487.102L96.5802 502.232H46.615L40.7085 495.627L54.8287 485.396L71.5699 476.631C72.6065 476.095 73.4846 475.297 74.1171 474.316C74.7874 473.343 75.1535 472.194 75.1692 471.013C76.8104 471.765 78.2213 472.942 79.2562 474.421C80.2912 475.9 80.9129 477.628 81.0572 479.427C85.6908 476.564 91.2143 475.5 96.5802 476.438V476.438Z" fill="black"/>
<path d="M55.5023 485.008C55.5023 485.008 56.2775 490.544 65.2388 487.776C65.2388 487.776 80.3557 480.543 97.5399 480.322L96.617 476.475C96.617 476.475 90.4337 474.344 81.0479 479.464C80.9093 477.663 80.2899 475.932 79.2542 474.452C78.2185 472.973 76.8046 471.798 75.1598 471.05C75.1623 471.678 75.0594 472.301 74.8553 472.895C74.2915 474.538 73.1144 475.9 71.5698 476.696L55.5023 485.008Z" fill="#2F2E41"/>
<path d="M54.8286 485.396C54.8286 485.396 55.4747 488.163 46.9379 492.213C46.9379 492.213 43.5325 494.344 44.1693 496.051H62.424C62.424 496.051 70.3978 495.83 73.8125 501.162H87.7758C87.7758 501.162 87.6742 487.896 99.8656 487.324C100.084 487.32 100.297 487.394 100.466 487.533C100.635 487.671 100.749 487.865 100.788 488.08L102.819 502.002C102.843 502.136 102.838 502.274 102.803 502.406C102.767 502.538 102.703 502.66 102.615 502.764C102.527 502.868 102.417 502.952 102.292 503.008C102.168 503.064 102.032 503.092 101.896 503.09H39.278C38.5422 503.091 37.825 502.859 37.2285 502.428C36.632 501.998 36.1866 501.39 35.9556 500.692C35.1527 498.219 35.3372 494.326 42.2035 491.365L54.8286 485.396Z" fill="#2F2E41"/>
<g opacity="0.2">
<path d="M55.5023 485.008C55.5023 485.008 56.2775 490.544 65.2388 487.776C65.2388 487.776 80.3557 480.543 97.5399 480.322L96.617 476.475C96.617 476.475 90.4337 474.344 81.0479 479.464C80.9093 477.663 80.2899 475.932 79.2542 474.452C78.2185 472.973 76.8046 471.798 75.1598 471.05C75.1623 471.678 75.0594 472.301 74.8553 472.895C74.2915 474.538 73.1144 475.9 71.5698 476.696L55.5023 485.008Z" fill="black"/>
<path d="M54.8286 485.396C54.8286 485.396 55.4747 488.163 46.9379 492.213C46.9379 492.213 43.5325 494.344 44.1693 496.051H62.424C62.424 496.051 70.3978 495.83 73.8125 501.162H87.7758C87.7758 501.162 87.6742 487.896 99.8656 487.324C100.084 487.32 100.297 487.394 100.466 487.533C100.635 487.671 100.749 487.865 100.788 488.08L102.819 502.002C102.843 502.136 102.838 502.274 102.803 502.406C102.767 502.538 102.703 502.66 102.615 502.764C102.527 502.868 102.417 502.952 102.292 503.008C102.168 503.064 102.032 503.092 101.896 503.09H39.278C38.5422 503.09 37.825 502.859 37.2285 502.428C36.632 501.998 36.1866 501.39 35.9556 500.692C35.1527 498.219 35.3372 494.326 42.2035 491.365L54.8286 485.396Z" fill="black"/>
</g>
<path d="M112.971 140.796C112.971 140.796 118.868 132.179 125.245 130.334C126.022 130.107 126.836 130.036 127.641 130.125C128.445 130.214 129.224 130.46 129.933 130.851C132.48 132.253 136.495 135.925 137.769 145.224L127.405 149.366L114.152 145.455L112.971 140.796Z" fill="#FF6F00"/>
<path opacity="0.2" d="M112.971 140.796C112.971 140.796 118.868 132.179 125.245 130.334C126.022 130.107 126.836 130.036 127.641 130.125C128.445 130.214 129.224 130.46 129.933 130.851C132.48 132.253 136.495 135.925 137.769 145.224L127.405 149.366L114.152 145.455L112.971 140.796Z" fill="black"/>
<path opacity="0.2" d="M121.111 132.391C120.188 133.812 118.84 135.777 117.954 137.188C116.879 138.765 116.005 140.47 115.352 142.263C115.73 139.08 118.932 134.725 121.111 132.391V132.391Z" fill="black"/>
<path opacity="0.2" d="M126.094 130.094C123.519 133.92 121.429 138.051 119.874 142.392C119.634 143.01 119.486 143.646 119.274 144.237C120.277 138.996 122.628 134.106 126.094 130.048V130.094Z" fill="black"/>
<path opacity="0.2" d="M127.82 130.15C130.04 135.092 131.076 140.484 130.847 145.897C130.792 145.224 130.792 144.56 130.708 143.886C130.222 139.22 129.254 134.617 127.82 130.15V130.15Z" fill="black"/>
<path opacity="0.2" d="M129.906 130.851C132.695 134.844 134.44 139.471 134.982 144.311C134.982 144.633 135.055 144.956 135.083 145.279C134.094 140.236 132.349 135.372 129.906 130.851Z" fill="black"/>
<path d="M121.11 175.437L121.747 186.942C121.747 186.942 124.737 191.637 129.638 190.992C129.638 190.992 135.175 190.779 136.892 185.456L136.126 162.3H132.628L121.11 175.437Z" fill="#B26647"/>
<path d="M121.11 175.437L121.59 184.146C123.725 182.466 125.479 180.352 126.738 177.945C127.996 175.537 128.73 172.89 128.89 170.179L121.11 175.437Z" fill="#7C4534"/>
<path d="M136.126 162.3L133.689 160.907L133.274 151.534L122.827 147.696L111.752 151.746C111.752 151.746 106.575 191.13 127.82 172.716C131.003 169.596 133.793 166.098 136.126 162.3V162.3Z" fill="#B36647"/>
<path d="M111.171 145.455C111.171 145.455 107.036 145.344 107.886 150.067C107.886 150.067 108.891 153.933 113.727 151.045C113.727 151.045 115.352 152.623 120.474 151.128C120.474 151.101 113.81 149.2 111.171 145.455Z" fill="#2F2E41"/>
<path d="M133.274 151.534L133.699 160.907L136.2 164.293L136.375 169.699C136.375 169.699 142.023 169.653 141.802 163.684C141.58 157.715 141.802 158.241 141.802 158.241C141.802 158.241 146.49 157.319 142.54 151.534C142.54 151.534 140.694 148.767 138.793 148.767H136.126L133.274 151.534Z" fill="#2F2E41"/>
<path d="M136.892 150.446C139.19 149.412 139.255 147.743 138.858 146.516C138.671 145.963 138.281 145.503 137.766 145.229C137.252 144.954 136.652 144.887 136.089 145.04C123.888 148.019 116.358 143.194 113.764 141.137C113.598 141.004 113.406 140.906 113.2 140.85C112.995 140.794 112.78 140.781 112.568 140.811C112.357 140.841 112.155 140.915 111.973 141.026C111.792 141.138 111.635 141.285 111.512 141.46C111.137 142.005 110.879 142.621 110.753 143.27C110.628 143.92 110.638 144.588 110.783 145.233C110.933 145.976 111.359 146.635 111.974 147.078C114.983 149.2 125.374 155.658 136.892 150.446Z" fill="#FF6F00"/>
<path d="M135.083 164.533C136.556 164.533 137.75 162.984 137.75 161.073C137.75 159.163 136.556 157.614 135.083 157.614C133.61 157.614 132.416 159.163 132.416 161.073C132.416 162.984 133.61 164.533 135.083 164.533Z" fill="#B26647"/>
<path d="M144.137 220.836L144.995 213.594L169.479 219L168.879 225.956L144.137 220.836Z" fill="#FF6F00"/>
<path d="M165.04 225.32L162.484 241.926C159.493 260.69 151.815 260.69 151.815 260.69C142.475 261.336 134.335 257.332 128.115 252.59C123.119 248.737 118.746 244.138 115.149 238.955C106.843 236.187 99.5149 225.947 99.5149 225.947L101.231 229.443C101.348 229.679 101.408 229.938 101.407 230.2C101.404 230.571 101.281 230.931 101.057 231.227C100.833 231.523 100.519 231.738 100.163 231.842C99.8064 231.946 99.426 231.932 99.0782 231.802C98.7304 231.672 98.4337 231.434 98.2321 231.123L95.3619 226.731C92.6394 223.041 96.3771 222.718 96.3771 222.718C95.7403 219.526 98.6843 219.738 98.6843 219.738C97.1615 215.264 106.824 217.395 106.824 217.395L97.6599 209.719C94.0329 207.588 95.8141 206.214 95.8141 206.214C103.326 204.618 121.996 227.838 121.996 227.838C126.906 230.827 142.254 238.282 142.254 238.282L146.195 221.27L165.04 225.32Z" fill="#B26647"/>
<path d="M63.07 253.273C65.5246 255.582 68.7125 256.957 72.0774 257.157C87.1112 258.079 85.7084 260.063 85.7084 260.063C85.7084 261.77 73.9785 261.982 73.9785 261.982C89.9722 263.901 87.5911 266.447 87.5911 266.447C87.0651 267.369 80.7525 267.369 75.7043 267.222C75.5925 267.226 75.4859 267.27 75.4036 267.346C75.3214 267.422 75.2688 267.525 75.2555 267.636C75.2422 267.747 75.2689 267.859 75.3308 267.952C75.3928 268.046 75.486 268.114 75.5936 268.144C80.3095 269.141 85.7454 270.552 84.2687 271.549C81.7677 273.228 74.4215 271.549 74.4215 271.549C81.0386 274.934 79.036 276.475 79.036 276.475C69.078 278.182 53.5089 267.286 53.5089 267.286C48.1746 263.033 53.5089 255.293 53.5089 255.293C53.5089 255.293 56.6744 249.407 60.3659 250.681L63.07 253.273Z" fill="#B26647"/>
<path d="M111.937 471.096V476.871C104.471 474.952 96.3679 479.851 96.3679 479.851C96.1556 474.095 90.4799 471.438 90.4799 471.438V468.67C94.5129 471.115 102.607 474.666 111.937 471.096Z" fill="#B26647"/>
<path d="M111.937 476.871C112.904 480.367 113.617 483.928 114.069 487.527L111.937 502.666H61.9718L56.0653 496.079L70.1394 485.848L86.8806 477.084C87.9148 476.548 88.7924 475.753 89.4277 474.777C90.0943 473.799 90.46 472.648 90.4798 471.465C92.1211 472.217 93.5319 473.394 94.5669 474.873C95.6019 476.352 96.2236 478.08 96.3679 479.879C101.011 476.996 106.554 475.925 111.937 476.871V476.871Z" fill="#FF6F00"/>
<path d="M70.1393 485.82C70.1393 485.82 70.7761 488.588 62.2486 492.647C62.2486 492.647 58.8339 494.778 59.4799 496.485H77.7255C77.7255 496.485 85.7084 496.254 89.1231 501.586H103.086C103.086 501.586 102.985 488.329 115.176 487.748C115.395 487.745 115.607 487.819 115.777 487.957C115.946 488.096 116.06 488.29 116.099 488.505L118.166 502.417C118.191 502.551 118.186 502.689 118.15 502.821C118.115 502.953 118.051 503.075 117.963 503.179C117.874 503.284 117.764 503.367 117.64 503.423C117.515 503.479 117.38 503.508 117.244 503.505H54.6348C53.898 503.51 53.1788 503.28 52.5815 502.849C51.9842 502.417 51.5397 501.807 51.3124 501.107C50.5095 498.634 50.694 494.741 57.5603 491.78L70.1393 485.82Z" fill="#2F2E41"/>
<path d="M70.8593 485.442C70.8593 485.442 71.6345 490.977 80.5865 488.163C80.5865 488.163 95.7126 480.94 112.888 480.718L111.965 476.871C111.965 476.871 105.781 474.74 96.3956 479.851C96.257 478.05 95.6376 476.32 94.6019 474.84C93.5662 473.36 92.1523 472.185 90.5076 471.438C90.5085 472.066 90.4024 472.69 90.1938 473.283C89.6342 474.928 88.4604 476.293 86.9175 477.093L70.8593 485.442Z" fill="#2F2E41"/>
<path d="M460.577 478.237C458.306 492.748 451.477 502.73 442.479 509.539C422.554 524.623 391.978 524.134 376.852 522.759C372.755 522.415 368.7 521.676 364.744 520.554C353.669 517.307 340.749 520.379 340.749 520.379C303.999 527.095 285.837 520.379 285.837 520.379C253.942 510.231 244.159 486.992 241.631 469.039C240.481 461.147 240.552 453.126 241.843 445.256C248.571 382.965 281.795 371.572 281.795 371.572L336.245 355.999L383.903 381.406C416.601 395.724 436.342 416.463 436.342 416.463C472.02 436.602 460.577 478.237 460.577 478.237Z" fill="#BCBEC0"/>
<path opacity="0.2" d="M273.71 376.249C273.71 376.249 258.944 409.221 269.954 418.382C269.954 418.382 289.501 437.322 283.391 443.429C283.391 443.429 279.035 449.675 278.02 462.397C277.946 463.273 277.67 464.121 277.214 464.873C276.757 465.625 276.133 466.262 275.39 466.733C272.241 468.686 268.927 470.363 265.487 471.742C264.669 472.069 263.884 472.473 263.143 472.951C260.734 474.491 256.332 477.997 259.553 481.253C259.553 481.253 269.345 467.258 277.282 473.975C277.282 473.975 298.665 507.565 331.049 503.902C331.049 503.902 343.877 502.057 367.706 495.959C367.706 495.959 386.856 490.903 395.31 492.518C395.31 492.518 421.215 494.907 428.469 474.067C429.37 471.595 429.573 468.923 429.055 466.344C428.538 463.765 427.319 461.377 425.535 459.444C423.359 457.216 420.723 455.491 417.81 454.389L368.897 383.546L325.807 358.951L281.795 371.535C278.954 372.842 276.247 374.421 273.71 376.249V376.249Z" fill="black"/>
<path d="M321.054 327.852C321.054 327.852 310.266 325.629 312.748 312.169C312.748 312.169 314.594 300.646 325.881 301.218C325.881 301.218 331.077 290.793 342.078 295.683C342.078 295.683 345.132 296.291 348.796 300.572L354.334 304.262C354.334 304.262 364.716 310.37 358.025 320.757C358.025 320.757 354.629 325.37 351.75 327.326L353.134 315.259C353.134 315.259 354.98 309.152 346.415 305.48C346.415 305.48 344.569 315.259 329.314 318.922L323.205 329.918C322.333 329.411 321.596 328.702 321.054 327.852Z" fill="#2F2E41"/>
<path opacity="0.2" d="M346.314 306.034C346.314 306.034 357.638 308.414 357.038 317.344C356.102 321.1 354.192 324.543 351.5 327.326" fill="black"/>
<path d="M316.375 343.95L295.149 351.764C295.149 351.764 285.985 354.818 282.93 367.642L271.32 406.73C271.32 406.73 295.758 413.446 304.922 409.784L305.541 431.159L347.698 436.694C347.698 436.694 351.842 435.772 353.125 424.351L353.808 403.132L356.862 409.239C356.862 409.239 377.018 404.959 388.019 386.637L368.463 362.208C368.463 362.208 359.382 350.537 350.153 347.484L342.022 345.177L316.375 343.95Z" fill="#FF6F00"/>
<path opacity="0.2" d="M271.357 406.73C271.357 406.73 299.468 409.784 301.295 398.787L308.014 373.14L306.777 409.175C306.777 409.175 301.904 414.673 271.357 406.73Z" fill="black"/>
<path opacity="0.2" d="M353.844 403.067V394.054C353.844 394.054 357.536 390.853 355.063 371.913L375.071 400.623C375.071 400.623 369.164 405.512 356.945 409.175L353.844 403.067Z" fill="black"/>
<path d="M386.939 388.334L412.494 414.673L383.432 423.345L366.147 405.817C366.147 405.817 377.277 401.702 386.939 388.334Z" fill="#F9B499"/>
<path d="M296.201 434.406C296.201 434.406 279.303 469.639 292.131 481.244L355.063 477.554L388.056 453.457L394.166 439.074L357.444 436.113L355.063 433.622C355.063 433.622 320.436 438.881 296.201 434.406Z" fill="#2F2E41"/>
<path opacity="0.2" d="M296.201 434.406C296.201 434.406 279.303 469.639 292.131 481.244L355.063 477.554L388.056 453.457L394.166 439.074L357.444 436.113L355.063 433.622C355.063 433.622 320.436 438.881 296.201 434.406Z" fill="black"/>
<path d="M325.844 291.753C325.844 291.753 317.612 285.239 306.611 295.627C306.611 295.627 301.674 297.537 300.474 312.15C300.474 312.15 295.712 354.763 279.773 334.051C279.773 334.051 280.309 349.929 291.014 354.228C291.014 354.228 291.605 353.305 296.358 351.331L316.375 343.95L320.657 342.733L323.103 329.909C323.103 329.909 321.442 328.922 321.054 327.852C321.054 327.852 311.465 325.721 312.398 314.641C312.595 311.897 313.422 309.236 314.816 306.864L316.375 301.033L325.844 291.753Z" fill="#2F2E41"/>
<path opacity="0.2" d="M312.813 319.604C312.813 319.604 315.166 337.769 304.018 348.369L320.63 342.733L323.075 329.909C323.075 329.909 321.414 328.922 321.027 327.852C321.054 327.852 314.557 326.164 312.813 319.604Z" fill="black"/>
<path d="M335.941 465.413C335.941 465.413 364.495 486.493 389.32 497.324L405.148 465.413L351.823 438.539C351.823 438.539 326.776 423.88 316.994 430.596C316.994 430.596 288.2 451.64 287.323 471.354C287.323 471.354 287.055 480.681 300.502 487.398C301.896 487.922 303.345 488.29 304.821 488.495C308.022 488.945 311.285 488.571 314.302 487.408C317.319 486.246 319.989 484.334 322.06 481.853L335.941 465.413Z" fill="#2F2E41"/>
<path d="M405.148 468.024C408.042 466.826 411.06 465.95 414.146 465.413C414.146 465.413 423.919 462.36 423.919 472.738C423.919 483.117 414.967 484.944 395.31 485.257L403.182 469.38L405.148 468.024Z" fill="#F9B499"/>
<path d="M365.224 392.08L358.727 440.809H428.598L434.579 392.08H365.224Z" fill="#FF6F00"/>
<path opacity="0.3" d="M365.224 392.08L358.727 440.809H428.598L434.579 392.08H365.224Z" fill="white"/>
<path d="M365.224 392.08L362.206 392.126L357.324 437.931H350.734L353.392 439.37L358.727 440.809L365.224 392.08Z" fill="#FF6F00"/>
<path opacity="0.3" d="M365.224 392.08L358.727 440.809L353.392 439.37L350.734 437.931H357.324L357.831 433.143L359.197 420.374L362.206 392.117L365.224 392.08Z" fill="white"/>
<path d="M442.442 509.539C427.399 535.37 373.059 529.669 373.059 529.669C359.493 529.807 311.225 534.088 311.225 534.088C235.096 540.417 241.529 469.971 241.621 469.039C244.15 486.992 253.933 510.222 285.828 520.379C285.828 520.379 303.99 527.095 340.739 520.379C340.739 520.379 353.66 517.307 364.735 520.554C368.69 521.676 372.745 522.415 376.843 522.759C391.978 524.134 422.554 524.623 442.442 509.539Z" fill="#A7A9AC"/>
<path opacity="0.3" d="M358.727 440.809H385.906L409.615 392.08H365.224L358.727 440.809Z" fill="white"/>
<path opacity="0.2" d="M316.375 343.95L311.106 345.971C311.106 345.971 320.334 355.427 332.729 354.228C332.729 354.228 341.958 352.89 346.877 346.552L342.041 345.177L316.375 343.95Z" fill="black"/>
<path d="M325.844 301.246C317.593 300.757 314.769 306.864 314.769 306.864C314.769 306.864 311.438 302.519 316.329 297.242C316.329 297.242 325.364 286.346 332.157 295.258C330.115 296.105 328.353 297.508 327.072 299.308L325.844 301.246Z" fill="#FF6F00"/>
<path d="M329.213 318.949L323.103 329.946L320.621 342.733L316.338 343.95C316.732 344.419 317.157 344.86 317.612 345.27C319.91 347.344 322.687 348.817 325.693 349.558C328.7 350.298 331.843 350.283 334.842 349.513C340.232 348.12 342.004 345.177 342.004 345.177L339.558 343.886V339.679C341.404 341.524 348.113 336.625 348.113 336.625C351.805 333.572 351.168 331.09 351.168 331.09L353.014 315.213C354.241 308.497 346.295 305.434 346.295 305.434C346.295 305.434 344.486 315.259 329.213 318.949Z" fill="#F9B499"/>
<path d="M339.595 339.679C339.595 339.679 331.843 335.878 330.016 334.052C330.016 334.052 331.455 340.897 339.595 343.886V339.679Z" fill="#F7A48B"/>
<path d="M325.844 330.518C329.05 330.518 331.649 327.784 331.649 324.411C331.649 321.038 329.05 318.303 325.844 318.303C322.638 318.303 320.039 321.038 320.039 324.411C320.039 327.784 322.638 330.518 325.844 330.518Z" fill="#F9B499"/>
<path d="M349.378 472.093C349.378 472.093 345.686 475.146 347.532 478.809C347.532 478.809 349.959 497.103 359.742 498.339L349.378 472.093Z" fill="#2F2E41"/>
<path opacity="0.3" d="M349.378 472.093C349.378 472.093 345.686 475.146 347.532 478.809C347.532 478.809 349.959 497.103 359.742 498.339L349.378 472.093Z" fill="black"/>
<path d="M350.559 475.128C350.559 475.128 340.823 478.237 318.258 478.237C318.258 478.237 306.648 477.628 313.367 491.069C313.367 491.069 314.594 496.559 328.64 494.76C328.64 494.76 342.834 492.37 354.98 486.235L350.559 475.128Z" fill="#F9B499"/>
<path d="M359.197 420.374L357.841 433.143L357.444 436.095L355.063 433.604C343.453 436.657 314.123 436.049 314.123 436.049C297.631 435.44 289.685 433.069 289.685 433.069C279.303 431.316 282.164 409.175 282.164 409.175C298.462 412.865 304.959 409.784 304.959 409.784L305.162 416.749L350.254 423.345C351.413 422.191 352.824 421.323 354.376 420.807C355.928 420.292 357.578 420.143 359.197 420.374V420.374Z" fill="#F9B499"/>
<path d="M282.164 409.175C282.164 409.175 298.24 412.865 304.959 409.784L305.088 414.23C297.564 416.744 289.729 418.21 281.804 418.585C281.804 418.585 281.352 412.837 282.164 409.175Z" fill="#F7A48B"/>
<path d="M433.268 400.623C433.268 400.623 436.96 396.932 439.378 400.014C439.378 400.014 440.596 401.232 435.105 404.894L433.259 406.186C433.259 406.186 437.532 408.566 435.105 412.837C435.796 413.568 436.229 414.503 436.339 415.503C436.449 416.502 436.23 417.51 435.714 418.373C435.673 419.304 435.362 420.203 434.82 420.961C434.278 421.719 433.527 422.304 432.659 422.644C432.659 422.644 433.268 426.334 429.604 426.925C429.604 426.925 422.886 428.77 422.886 425.698C422.886 425.698 421.963 424.111 424.547 423.382C424.547 423.382 423.495 420.817 426.55 420.817C426.55 420.817 421.658 420.199 425.941 416.537C425.941 416.537 420.256 415.872 425.239 413.151L432.05 411.038L433.268 400.623Z" fill="#F9B499"/>
<path d="M425.941 416.5C429.125 415.623 432.401 414.793 435.105 412.809C432.927 415.448 429.235 416.5 425.941 416.5Z" fill="#F7A48B"/>
<path d="M426.55 420.78C429.41 419.361 432.526 418.529 435.714 418.336C432.715 419.347 429.654 420.164 426.55 420.78V420.78Z" fill="#F7A48B"/>
<path d="M432.659 422.607C430.278 423.889 427.03 424.784 424.547 423.345C427.316 423.926 429.937 423.077 432.659 422.607Z" fill="#F7A48B"/>
<path opacity="0.2" d="M380.645 493.228L372.229 488.781L403.182 469.38L380.645 493.228Z" fill="black"/>
<path d="M414.755 461.142C408.036 466.677 359.769 498.394 359.769 498.394L349.378 472.093L389.32 440.864C393.811 436.737 398.844 433.242 404.28 430.476C421.271 422.275 428.598 432.598 428.598 432.598C440.596 446.805 414.755 461.142 414.755 461.142Z" fill="#2F2E41"/>
<path opacity="0.2" d="M405.148 438.133L362.824 469.685C355.607 474.491 359.622 497.601 359.76 498.376L349.378 472.093L389.32 440.864C393.811 436.737 398.844 433.242 404.28 430.476L405.148 438.133Z" fill="black"/>
<path d="M292.011 49.5648H331.695V95.6923H292.011C285.892 95.6923 280.023 93.2624 275.696 88.9371C271.37 84.6118 268.939 78.7454 268.939 72.6286V72.6286C268.939 66.5117 271.37 60.6453 275.696 56.32C280.023 51.9947 285.892 49.5648 292.011 49.5648V49.5648Z" fill="#FF6F00"/>
<path d="M495.046 96.1536H292.011C285.769 96.1536 279.784 93.675 275.37 89.2632C270.957 84.8514 268.477 78.8678 268.477 72.6285C268.477 66.3893 270.957 60.4056 275.37 55.9938C279.784 51.582 285.769 49.1035 292.011 49.1035H495.046C501.288 49.1035 507.274 51.582 511.687 55.9938C516.101 60.4056 518.58 66.3893 518.58 72.6285C518.58 78.8678 516.101 84.8514 511.687 89.2632C507.274 93.675 501.288 96.1536 495.046 96.1536ZM292.011 50.0261C286.014 50.0261 280.263 52.4074 276.023 56.6462C271.782 60.885 269.4 66.634 269.4 72.6285C269.4 78.6231 271.782 84.3721 276.023 88.6109C280.263 92.8497 286.014 95.231 292.011 95.231H495.046C501.043 95.231 506.794 92.8497 511.035 88.6109C515.275 84.3721 517.657 78.6231 517.657 72.6285C517.657 66.634 515.275 60.885 511.035 56.6462C506.794 52.4074 501.043 50.0261 495.046 50.0261H292.011Z" fill="#2F2E41"/>
<path d="M297.355 81.1436C295.502 81.1455 293.69 80.5978 292.148 79.57C290.606 78.5422 289.404 77.0804 288.694 75.3696C287.983 73.6587 287.797 71.7757 288.157 69.9586C288.517 68.1416 289.409 66.4723 290.718 65.1618C292.028 63.8513 293.697 62.9586 295.514 62.5965C297.332 62.2344 299.216 62.4193 300.928 63.1278C302.64 63.8363 304.104 65.0364 305.133 66.5765C306.163 68.1166 306.713 69.9274 306.713 71.7798C306.713 74.2616 305.727 76.642 303.972 78.3978C302.218 80.1536 299.837 81.1412 297.355 81.1436V81.1436ZM297.355 63.403C295.698 63.4121 294.082 63.9116 292.71 64.8384C291.337 65.7652 290.27 67.0777 289.644 68.6102C289.017 70.1428 288.859 71.8265 289.189 73.4489C289.519 75.0713 290.323 76.5595 291.498 77.7257C292.674 78.8918 294.169 79.6836 295.794 80.001C297.42 80.3184 299.103 80.1472 300.631 79.509C302.159 78.8709 303.464 77.7943 304.38 76.4154C305.297 75.0364 305.784 73.4169 305.781 71.7613C305.779 70.6586 305.56 69.567 305.135 68.5492C304.711 67.5315 304.089 66.6076 303.306 65.8309C302.523 65.0542 301.594 64.4398 300.573 64.0231C299.551 63.6065 298.458 63.3957 297.355 63.403V63.403Z" fill="white"/>
<path d="M304.994 76.356L304.371 77.1453L311.578 82.8332L312.202 82.0439L304.994 76.356Z" fill="white"/>
<path d="M585.174 177.507C586.106 178.345 587.114 178.714 588.175 178.767C594.442 179.08 600.219 175.347 606.493 175.391C611.104 175.424 615.495 175.528 616.117 175.528C620 175.528 621.906 176.066 624 175.528C628 174.5 630.065 172.386 632 169C634 165.5 633.568 159.028 636.423 153.757C639 149 636.907 144.85 635.456 140.397C634.006 135.944 631.775 137.428 629.171 137.428C628.688 137.428 630.138 137.372 630.138 133.965C630.138 129.512 618.5 129 612.733 127.038C609.458 125.923 602.5 127.038 599 128.5C595.278 130.055 588.5 136 585.174 139.902C582.979 142.478 580 150 577.922 155.736C577.033 158.189 576.191 161.051 577.922 168.106C579 172.5 581.726 174.405 585.174 177.507Z" fill="#2F2F2F"/>
<path d="M598.549 162.983C600.429 162.983 601.954 160.881 601.954 158.287C601.954 155.694 600.429 153.591 598.549 153.591C596.668 153.591 595.143 155.694 595.143 158.287C595.143 160.881 596.668 162.983 598.549 162.983Z" fill="#B26647"/>
<path d="M622.59 147.171C622.59 147.171 626.743 176.692 613.628 173.389V182.274C613.335 183.353 612.791 184.349 612.04 185.179C611.29 186.009 610.354 186.651 609.309 187.052C607.94 187.617 606.453 187.835 604.979 187.685C603.506 187.535 602.092 187.023 600.865 186.194C600.311 185.815 599.803 185.372 599.351 184.875C598.694 184.139 598.329 183.187 598.327 182.2V162.005L599.859 155.916V154.163C602.975 153.432 605.889 152.013 608.386 150.012C608.386 150.012 620.836 137.779 622.59 147.171Z" fill="#B26647"/>
<path d="M350.36 80.18C349.227 80.18 348.213 80.0333 347.32 79.74C346.427 79.4467 345.647 79.0267 344.98 78.48L345.58 77.16C346.047 77.5067 346.513 77.8 346.98 78.04C347.46 78.2667 347.973 78.44 348.52 78.56C349.067 78.6667 349.68 78.72 350.36 78.72C351.547 78.72 352.427 78.5 353 78.06C353.573 77.62 353.86 77.0333 353.86 76.3C353.86 75.6733 353.66 75.1933 353.26 74.86C352.86 74.5267 352.16 74.26 351.16 74.06L349.06 73.64C347.767 73.3733 346.8 72.94 346.16 72.34C345.533 71.74 345.22 70.9267 345.22 69.9C345.22 69.06 345.433 68.3267 345.86 67.7C346.3 67.0733 346.913 66.5867 347.7 66.24C348.487 65.8933 349.4 65.72 350.44 65.72C351.44 65.72 352.353 65.8733 353.18 66.18C354.007 66.4733 354.713 66.9067 355.3 67.48L354.72 68.76C354.093 68.2 353.433 67.8 352.74 67.56C352.06 67.3067 351.287 67.18 350.42 67.18C349.327 67.18 348.46 67.42 347.82 67.9C347.193 68.3667 346.88 69.0067 346.88 69.82C346.88 70.4733 347.08 70.9867 347.48 71.36C347.88 71.72 348.54 71.9933 349.46 72.18L351.58 72.6C352.94 72.88 353.94 73.3 354.58 73.86C355.22 74.42 355.54 75.2067 355.54 76.22C355.54 76.9933 355.327 77.68 354.9 78.28C354.487 78.88 353.893 79.3467 353.12 79.68C352.347 80.0133 351.427 80.18 350.36 80.18ZM361.581 80.18C360.394 80.18 359.494 79.8533 358.881 79.2C358.281 78.5467 357.981 77.5467 357.981 76.2V69.96H359.601V76.16C359.601 77.08 359.788 77.76 360.161 78.2C360.534 78.6267 361.114 78.84 361.901 78.84C362.781 78.84 363.488 78.5533 364.021 77.98C364.554 77.4067 364.821 76.64 364.821 75.68V69.96H366.441V80H364.861V77.74H365.121C364.841 78.5133 364.388 79.1133 363.761 79.54C363.148 79.9667 362.421 80.18 361.581 80.18ZM369.584 84.32V72.28C369.584 71.9067 369.564 71.5267 369.524 71.14C369.497 70.74 369.464 70.3467 369.424 69.96H370.984L371.204 72.34H370.964C371.177 71.5533 371.611 70.9333 372.264 70.48C372.917 70.0133 373.697 69.78 374.604 69.78C375.511 69.78 376.291 69.9867 376.944 70.4C377.611 70.8133 378.131 71.4067 378.504 72.18C378.877 72.9533 379.064 73.8867 379.064 74.98C379.064 76.06 378.877 76.9867 378.504 77.76C378.144 78.5333 377.631 79.1333 376.964 79.56C376.297 79.9733 375.511 80.18 374.604 80.18C373.711 80.18 372.937 79.9533 372.284 79.5C371.631 79.0467 371.197 78.4267 370.984 77.64H371.204V84.32H369.584ZM374.284 78.86C375.244 78.86 376.004 78.5333 376.564 77.88C377.137 77.2133 377.424 76.2467 377.424 74.98C377.424 73.7 377.137 72.7333 376.564 72.08C376.004 71.4133 375.244 71.08 374.284 71.08C373.337 71.08 372.577 71.4133 372.004 72.08C371.444 72.7333 371.164 73.7 371.164 74.98C371.164 76.2467 371.444 77.2133 372.004 77.88C372.577 78.5333 373.337 78.86 374.284 78.86ZM385.696 80.18C384.736 80.18 383.896 79.9733 383.176 79.56C382.469 79.1333 381.923 78.5333 381.536 77.76C381.149 76.9733 380.956 76.0467 380.956 74.98C380.956 73.9 381.149 72.9733 381.536 72.2C381.923 71.4267 382.469 70.8333 383.176 70.42C383.896 69.9933 384.736 69.78 385.696 69.78C386.669 69.78 387.509 69.9933 388.216 70.42C388.936 70.8333 389.489 71.4267 389.876 72.2C390.276 72.9733 390.476 73.9 390.476 74.98C390.476 76.0467 390.276 76.9733 389.876 77.76C389.489 78.5333 388.936 79.1333 388.216 79.56C387.509 79.9733 386.669 80.18 385.696 80.18ZM385.696 78.86C386.656 78.86 387.416 78.5333 387.976 77.88C388.536 77.2133 388.816 76.2467 388.816 74.98C388.816 73.7 388.529 72.7333 387.956 72.08C387.396 71.4133 386.643 71.08 385.696 71.08C384.749 71.08 383.996 71.4133 383.436 72.08C382.876 72.7333 382.596 73.7 382.596 74.98C382.596 76.2467 382.876 77.2133 383.436 77.88C383.996 78.5333 384.749 78.86 385.696 78.86ZM392.962 80V72.38C392.962 71.98 392.949 71.5733 392.922 71.16C392.909 70.7467 392.882 70.3467 392.842 69.96H394.402L394.602 72.4L394.322 72.42C394.455 71.82 394.689 71.3267 395.022 70.94C395.355 70.5533 395.749 70.2667 396.202 70.08C396.655 69.88 397.129 69.78 397.622 69.78C397.822 69.78 397.995 69.7867 398.142 69.8C398.302 69.8133 398.449 69.8467 398.582 69.9L398.562 71.34C398.362 71.2733 398.175 71.2333 398.002 71.22C397.842 71.1933 397.655 71.18 397.442 71.18C396.855 71.18 396.342 71.32 395.902 71.6C395.475 71.88 395.149 72.24 394.922 72.68C394.709 73.12 394.602 73.5867 394.602 74.08V80H392.962ZM404.355 80.18C403.368 80.18 402.615 79.9 402.095 79.34C401.575 78.7667 401.315 77.9067 401.315 76.76V71.22H399.355V69.96H401.315V67.22L402.935 66.76V69.96H405.815V71.22H402.935V76.58C402.935 77.38 403.068 77.9533 403.335 78.3C403.615 78.6333 404.028 78.8 404.575 78.8C404.828 78.8 405.055 78.78 405.255 78.74C405.455 78.6867 405.635 78.6267 405.795 78.56V79.92C405.608 80 405.382 80.06 405.115 80.1C404.862 80.1533 404.608 80.18 404.355 80.18ZM412.149 80.18C410.576 80.18 409.336 79.7267 408.429 78.82C407.523 77.9 407.069 76.6267 407.069 75C407.069 73.9467 407.269 73.0333 407.669 72.26C408.069 71.4733 408.629 70.8667 409.349 70.44C410.069 70 410.896 69.78 411.829 69.78C412.749 69.78 413.523 69.9733 414.149 70.36C414.776 70.7467 415.256 71.3 415.589 72.02C415.923 72.7267 416.089 73.5667 416.089 74.54V75.14H408.309V74.12H415.029L414.689 74.38C414.689 73.3133 414.449 72.48 413.969 71.88C413.489 71.28 412.776 70.98 411.829 70.98C410.829 70.98 410.049 71.3333 409.489 72.04C408.929 72.7333 408.649 73.6733 408.649 74.86V75.04C408.649 76.2933 408.956 77.2467 409.569 77.9C410.196 78.54 411.069 78.86 412.189 78.86C412.789 78.86 413.349 78.7733 413.869 78.6C414.403 78.4133 414.909 78.1133 415.389 77.7L415.949 78.84C415.509 79.2667 414.949 79.6 414.269 79.84C413.603 80.0667 412.896 80.18 412.149 80.18Z" fill="#333333"/>
</svg>
