<svg width="622" height="457" viewBox="0 0 622 457" fill="none" xmlns="http://www.w3.org/2000/svg">
<path d="M579.088 434.63C603.534 434.63 623.036 410.045 621.957 380.598C620.545 342.096 604.218 287.729 539.86 233.399C461.379 167.144 501.056 -12.4757 334.304 0.685897C167.553 13.8475 204.477 140.831 111.209 217.85C26.5376 287.771 0.00457203 329.904 0 382.969C0 411.515 19.236 434.63 42.9092 434.63H579.088Z" fill="#FFE792"/>
<path d="M513.714 10.4843H98.9919V310.95H513.714V10.4843Z" fill="#F5F4DE"/>
<path d="M513.714 10.4843H98.9919V35.2348H513.714V10.4843Z" fill="#FFB800"/>
<path d="M499.823 29.0706C503.251 29.0706 506.03 26.2903 506.03 22.8607C506.03 19.431 503.251 16.6508 499.823 16.6508C496.395 16.6508 493.616 19.431 493.616 22.8607C493.616 26.2903 496.395 29.0706 499.823 29.0706Z" fill="white"/>
<path d="M290.148 151.678V128.494C290.148 128.057 289.974 127.638 289.665 127.329C289.356 127.019 288.937 126.846 288.5 126.845H271.484C271.111 126.844 270.749 126.716 270.458 126.482C270.166 126.249 269.963 125.924 269.88 125.559C268.314 118.865 265.665 112.471 262.038 106.631C261.84 106.314 261.754 105.94 261.796 105.569C261.837 105.197 262.003 104.851 262.267 104.586L274.298 92.5468C274.451 92.3938 274.573 92.2121 274.655 92.0121C274.738 91.8121 274.781 91.5977 274.781 91.3812C274.781 91.1647 274.738 90.9503 274.655 90.7503C274.573 90.5503 274.451 90.3686 274.298 90.2156L257.908 73.8171C257.599 73.5081 257.18 73.3345 256.742 73.3345C256.305 73.3345 255.886 73.5081 255.577 73.8171L243.542 85.8573C243.277 86.1211 242.931 86.2873 242.56 86.3288C242.189 86.3704 241.814 86.2848 241.498 86.086C235.662 82.4566 229.272 79.8054 222.581 78.2371C222.217 78.1545 221.892 77.9509 221.658 77.6595C221.425 77.368 221.297 77.006 221.295 76.6324V59.6096C221.295 59.1723 221.122 58.7529 220.812 58.4437C220.503 58.1344 220.084 57.9607 219.647 57.9607H196.471C196.033 57.9607 195.614 58.1344 195.305 58.4437C194.996 58.7529 194.822 59.1723 194.822 59.6096V76.6324C194.821 77.006 194.693 77.368 194.459 77.6595C194.226 77.9509 193.9 78.1545 193.536 78.2371C186.845 79.8046 180.454 82.4548 174.617 86.083C174.301 86.2819 173.926 86.3676 173.555 86.3261C173.184 86.2845 172.837 86.1182 172.573 85.8543L160.537 73.8095C160.384 73.6564 160.203 73.5349 160.003 73.452C159.803 73.3692 159.588 73.3265 159.372 73.3265C159.156 73.3265 158.941 73.3692 158.741 73.452C158.541 73.5349 158.36 73.6564 158.207 73.8095L141.823 90.2064C141.67 90.3594 141.549 90.5411 141.466 90.7411C141.383 90.9411 141.34 91.1555 141.34 91.372C141.34 91.5885 141.383 91.8029 141.466 92.0029C141.549 92.2029 141.67 92.3846 141.823 92.5376L153.858 104.577C154.121 104.842 154.286 105.189 154.327 105.56C154.367 105.931 154.281 106.306 154.083 106.622C150.456 112.462 147.808 118.856 146.242 125.551C146.159 125.915 145.956 126.24 145.665 126.473C145.375 126.707 145.014 126.835 144.641 126.837H127.626C127.189 126.837 126.77 127.011 126.461 127.32C126.151 127.629 125.978 128.049 125.978 128.486V151.67C125.978 152.107 126.151 152.527 126.46 152.836C126.769 153.145 127.189 153.319 127.626 153.319H144.641C145.014 153.321 145.375 153.449 145.666 153.683C145.956 153.917 146.159 154.242 146.242 154.606C147.808 161.3 150.457 167.694 154.083 173.534C154.282 173.85 154.368 174.224 154.328 174.595C154.287 174.966 154.121 175.313 153.859 175.578L141.823 187.618C141.515 187.927 141.341 188.347 141.341 188.784C141.341 189.221 141.515 189.64 141.823 189.95L158.207 206.34C158.36 206.493 158.541 206.614 158.741 206.697C158.941 206.78 159.156 206.823 159.372 206.823C159.588 206.823 159.803 206.78 160.003 206.697C160.203 206.614 160.384 206.493 160.537 206.34L172.572 194.3C172.836 194.036 173.183 193.87 173.554 193.829C173.925 193.787 174.299 193.873 174.616 194.071C180.453 197.7 186.844 200.35 193.536 201.917C193.9 202 194.225 202.203 194.458 202.493C194.692 202.784 194.82 203.145 194.822 203.518V220.541C194.822 220.758 194.865 220.972 194.948 221.172C195.03 221.372 195.152 221.554 195.305 221.707C195.458 221.86 195.64 221.982 195.84 222.065C196.04 222.147 196.254 222.19 196.471 222.19H219.644C219.86 222.19 220.075 222.147 220.275 222.065C220.475 221.982 220.657 221.86 220.81 221.707C220.963 221.554 221.084 221.372 221.167 221.172C221.25 220.972 221.292 220.758 221.292 220.541V203.534C221.294 203.161 221.422 202.799 221.655 202.507C221.889 202.216 222.214 202.012 222.578 201.929C229.27 200.362 235.662 197.713 241.5 194.084C241.816 193.886 242.19 193.8 242.562 193.842C242.933 193.883 243.279 194.049 243.543 194.313L255.576 206.349C255.885 206.659 256.305 206.832 256.742 206.832C257.179 206.832 257.598 206.659 257.907 206.349L274.297 189.959C274.45 189.806 274.572 189.625 274.654 189.424C274.737 189.224 274.78 189.01 274.78 188.793C274.78 188.577 274.737 188.362 274.654 188.162C274.572 187.962 274.45 187.781 274.297 187.627L262.262 175.587C261.998 175.323 261.832 174.976 261.791 174.605C261.749 174.234 261.835 173.859 262.033 173.543C265.661 167.703 268.31 161.309 269.876 154.615C269.959 154.251 270.162 153.925 270.454 153.692C270.745 153.458 271.107 153.33 271.48 153.329H288.496C288.713 153.329 288.928 153.287 289.128 153.204C289.329 153.121 289.511 153 289.665 152.847C289.818 152.693 289.94 152.511 290.023 152.311C290.105 152.11 290.148 151.895 290.148 151.678ZM209.251 176.844C201.882 177.083 194.611 175.1 188.382 171.152C182.154 167.205 177.256 161.474 174.325 154.706C171.394 147.937 170.565 140.444 171.946 133.198C173.327 125.952 176.854 119.289 182.069 114.075C187.284 108.86 193.946 105.335 201.189 103.956C208.432 102.578 215.922 103.411 222.687 106.347C229.451 109.282 235.176 114.185 239.12 120.418C243.063 126.65 245.041 133.925 244.798 141.298C244.492 150.631 240.648 159.497 234.047 166.099C227.445 172.7 218.58 176.542 209.251 176.844Z" fill="#7C7C7C"/>
<path d="M385.985 230.566L382.836 216.415C382.807 216.283 382.752 216.158 382.674 216.047C382.596 215.936 382.498 215.842 382.383 215.769C382.269 215.697 382.142 215.647 382.008 215.624C381.875 215.6 381.739 215.604 381.606 215.633L371.22 217.946C370.992 217.996 370.754 217.967 370.545 217.864C370.335 217.761 370.167 217.59 370.067 217.379C368.201 213.505 365.716 209.963 362.709 206.891C362.544 206.725 362.441 206.508 362.415 206.276C362.39 206.044 362.444 205.81 362.569 205.612L368.279 196.627C368.426 196.396 368.475 196.116 368.415 195.85C368.356 195.583 368.193 195.35 367.963 195.203L355.73 187.422C355.5 187.276 355.22 187.227 354.953 187.287C354.687 187.346 354.454 187.509 354.308 187.739L348.597 196.725C348.471 196.922 348.282 197.07 348.06 197.146C347.839 197.221 347.598 197.219 347.378 197.14C343.322 195.719 339.061 194.97 334.764 194.923C334.53 194.922 334.304 194.842 334.122 194.696C333.94 194.55 333.813 194.346 333.761 194.119L331.448 183.727C331.419 183.595 331.364 183.47 331.286 183.359C331.208 183.248 331.11 183.154 330.995 183.081C330.881 183.009 330.754 182.959 330.62 182.936C330.487 182.913 330.351 182.916 330.218 182.945L316.079 186.095C315.813 186.155 315.58 186.318 315.434 186.548C315.287 186.779 315.238 187.058 315.297 187.325L317.61 197.717C317.659 197.945 317.63 198.183 317.527 198.393C317.424 198.602 317.254 198.771 317.043 198.871C313.171 200.737 309.63 203.224 306.56 206.232C306.394 206.397 306.177 206.5 305.945 206.526C305.713 206.551 305.479 206.497 305.281 206.372L296.299 200.655C296.069 200.508 295.789 200.46 295.522 200.519C295.256 200.578 295.023 200.741 294.877 200.972L287.104 213.208C286.958 213.439 286.909 213.718 286.969 213.985C287.028 214.252 287.191 214.484 287.421 214.631L296.402 220.344C296.599 220.47 296.747 220.66 296.823 220.881C296.898 221.103 296.896 221.344 296.817 221.564C295.397 225.622 294.648 229.885 294.602 234.184C294.601 234.418 294.521 234.644 294.375 234.826C294.229 235.009 294.025 235.136 293.798 235.187L283.411 237.5C283.279 237.53 283.154 237.585 283.043 237.663C282.932 237.74 282.838 237.839 282.765 237.954C282.692 238.068 282.643 238.195 282.62 238.329C282.596 238.462 282.599 238.599 282.629 238.731L285.778 252.883C285.808 253.015 285.863 253.14 285.941 253.251C286.018 253.362 286.117 253.456 286.231 253.529C286.345 253.601 286.473 253.651 286.606 253.674C286.74 253.697 286.876 253.694 287.008 253.665L297.394 251.352C297.622 251.302 297.861 251.331 298.07 251.434C298.28 251.537 298.448 251.708 298.548 251.919C300.413 255.793 302.899 259.335 305.906 262.407C306.07 262.573 306.173 262.79 306.199 263.022C306.224 263.254 306.171 263.488 306.046 263.686L300.331 272.67C300.185 272.901 300.136 273.181 300.195 273.448C300.255 273.715 300.417 273.947 300.648 274.094L312.875 281.869C312.989 281.942 313.117 281.992 313.25 282.015C313.383 282.038 313.52 282.035 313.652 282.006C313.784 281.976 313.909 281.921 314.02 281.843C314.131 281.766 314.225 281.667 314.298 281.552L320.008 272.568C320.135 272.37 320.324 272.222 320.545 272.147C320.767 272.071 321.007 272.073 321.228 272.152C325.284 273.574 329.545 274.322 333.843 274.369C334.076 274.37 334.302 274.45 334.484 274.596C334.666 274.743 334.794 274.946 334.845 275.174L337.157 285.564C337.187 285.697 337.242 285.822 337.319 285.933C337.397 286.043 337.496 286.138 337.61 286.21C337.724 286.283 337.852 286.332 337.985 286.356C338.118 286.379 338.255 286.376 338.387 286.347L352.532 283.197C352.664 283.167 352.789 283.112 352.9 283.035C353.011 282.957 353.106 282.858 353.178 282.744C353.251 282.629 353.301 282.502 353.324 282.369C353.347 282.235 353.344 282.098 353.315 281.966L351.003 271.576C350.953 271.348 350.982 271.109 351.085 270.899C351.188 270.69 351.359 270.521 351.57 270.422C355.442 268.555 358.983 266.069 362.053 263.061C362.219 262.896 362.436 262.793 362.668 262.767C362.9 262.742 363.134 262.796 363.332 262.92L372.312 268.633C372.426 268.706 372.554 268.755 372.687 268.779C372.82 268.802 372.957 268.799 373.089 268.77C373.221 268.74 373.346 268.685 373.457 268.608C373.568 268.53 373.662 268.431 373.735 268.317L381.514 256.084C381.586 255.969 381.636 255.842 381.659 255.709C381.682 255.575 381.679 255.439 381.65 255.306C381.62 255.174 381.565 255.049 381.487 254.938C381.41 254.827 381.311 254.733 381.197 254.66L372.215 248.943C372.018 248.817 371.87 248.627 371.794 248.406C371.719 248.184 371.721 247.944 371.799 247.723C373.22 243.665 373.969 239.403 374.016 235.104C374.017 234.87 374.097 234.644 374.243 234.461C374.39 234.279 374.593 234.152 374.821 234.1L385.207 231.788C385.471 231.727 385.701 231.565 385.846 231.336C385.992 231.108 386.042 230.831 385.985 230.566ZM340.024 256.925C335.558 258.073 330.851 257.851 326.513 256.288C322.175 254.725 318.407 251.893 315.699 248.16C312.99 244.427 311.466 239.965 311.325 235.355C311.184 230.744 312.432 226.198 314.907 222.306C317.382 218.414 320.969 215.357 325.203 213.531C329.437 211.705 334.122 211.195 338.65 212.067C343.177 212.94 347.338 215.154 350.592 218.422C353.845 221.691 356.041 225.862 356.894 230.396C357.974 236.134 356.832 242.068 353.699 246.995C350.566 251.922 345.677 255.472 340.024 256.925Z" fill="#FFCF53"/>
<path d="M104.885 320.33C104.885 320.33 110.777 317.205 109.461 301.153L121.635 298.895C121.635 298.895 120.267 313.287 126.426 317.855L104.885 320.33Z" fill="#E98862"/>
<path opacity="0.15" d="M123.932 314.849L113.818 307.108L121.762 307.026C121.991 309.746 122.727 312.4 123.932 314.849Z" fill="black"/>
<path d="M102.554 294.93C103.396 299.801 106.053 304.413 110.347 305.984C115.445 307.852 119.22 307.978 125.098 307.978C133.118 307.978 132.853 299.61 133.078 291.177C133.307 282.716 132.631 273.63 129.461 270.68C123.136 264.792 104.564 268.52 102.305 278.37C101.137 283.465 101.751 290.295 102.554 294.93Z" fill="#E98862"/>
<path d="M137.377 275.576C137.377 275.576 140.661 274.842 139.762 271.566C139.166 269.392 136.383 269.875 136.383 269.875C136.383 269.875 139.018 269.392 139.018 267.091C139.018 265.642 137.904 263.184 134.544 264.588C130.602 266.236 126.105 266.024 122.687 265.449C120.753 265.026 118.789 264.748 116.814 264.619H116.803C114.532 264.58 112.268 264.883 110.087 265.518C103.976 267.348 94.7272 272.83 96.6931 285.257C98.8877 299.128 105.394 304.432 108.256 306.134C108.425 306.235 108.616 306.298 108.812 306.315C109.009 306.333 109.208 306.305 109.392 306.235C109.577 306.165 109.744 306.054 109.879 305.91C110.015 305.766 110.116 305.593 110.175 305.404C110.986 302.804 112.384 296.264 111.993 282.777C130.778 281.855 136.183 281.575 136.183 281.575C136.183 281.575 140.603 281.741 140.603 278.509C140.603 275.278 137.377 275.576 137.377 275.576Z" fill="#0F1011"/>
<path d="M121.618 291.18C122.227 291.18 122.722 290.685 122.722 290.075C122.722 289.465 122.227 288.97 121.618 288.97C121.008 288.97 120.513 289.465 120.513 290.075C120.513 290.685 121.008 291.18 121.618 291.18Z" fill="#0F1011"/>
<path d="M130.329 290.465C130.939 290.465 131.433 289.97 131.433 289.36C131.433 288.75 130.939 288.255 130.329 288.255C129.719 288.255 129.225 288.75 129.225 289.36C129.225 289.97 129.719 290.465 130.329 290.465Z" fill="#0F1011"/>
<path d="M129.317 286.451L132.242 286.488" stroke="#0F1011" stroke-width="1.362" stroke-miterlimit="10" stroke-linecap="round"/>
<path d="M119.236 287.554L122.119 286.86" stroke="#0F1011" stroke-width="1.362" stroke-miterlimit="10" stroke-linecap="round"/>
<path d="M115.874 292.778C115.967 294.011 115.569 295.231 114.766 296.172C113.962 297.112 112.82 297.697 111.588 297.797C110.355 297.898 109.133 297.507 108.188 296.709C107.243 295.911 106.652 294.772 106.544 293.54C106.483 292.925 106.546 292.304 106.73 291.714C106.914 291.124 107.215 290.578 107.615 290.106C108.014 289.635 108.505 289.249 109.057 288.972C109.608 288.694 110.21 288.53 110.827 288.49C114.163 288.384 115.663 290.2 115.874 292.778Z" fill="#E98862"/>
<g opacity="0.15">
<path d="M126.519 296.202C126.427 296.202 126.339 296.169 126.27 296.11C126.201 296.05 126.155 295.968 126.142 295.877C126.128 295.787 126.147 295.695 126.196 295.618C126.245 295.54 126.319 295.483 126.407 295.456L128.653 294.766L127.082 291.267C127.042 291.175 127.04 291.071 127.076 290.977C127.112 290.884 127.184 290.808 127.275 290.767C127.366 290.726 127.47 290.722 127.564 290.757C127.658 290.792 127.735 290.863 127.777 290.954L129.525 294.847C129.547 294.896 129.558 294.95 129.558 295.004C129.558 295.058 129.547 295.111 129.524 295.161C129.502 295.21 129.47 295.254 129.429 295.29C129.389 295.325 129.341 295.352 129.289 295.368L126.631 296.185C126.594 296.196 126.557 296.202 126.519 296.202Z" fill="black"/>
</g>
<path d="M122.129 298.774C122.129 298.774 126.204 299.204 129.063 298.205C129.063 298.205 129.041 300.891 125.815 301.156C122.59 301.42 122.129 298.774 122.129 298.774Z" fill="#F8FCFF"/>
<path d="M152.735 438.228C154.183 437.985 170.517 435.194 170.517 435.194L167.823 419.414C167.823 419.414 151.534 422.198 150.091 422.44L152.735 438.228Z" fill="#E98862"/>
<path d="M179.833 453.365C179.902 453.79 179.883 454.225 179.777 454.642C179.67 455.059 179.479 455.45 179.215 455.79C178.951 456.13 178.62 456.412 178.242 456.618C177.864 456.824 177.448 456.95 177.019 456.988C176.425 457.04 175.828 456.922 175.299 456.647C174.77 456.371 174.331 455.95 174.033 455.433L164.803 438.087C164.626 437.75 164.523 437.38 164.502 437C164.481 436.621 164.542 436.241 164.681 435.887C166.011 433.067 166.401 429.895 165.794 426.837C165.224 424.471 164 422.314 162.262 420.611C162.094 420.464 161.97 420.272 161.907 420.057C161.843 419.843 161.842 419.614 161.904 419.399C161.965 419.184 162.086 418.991 162.253 418.842C162.421 418.693 162.627 418.595 162.847 418.559L171.83 417.054C172.095 417.01 172.366 417.018 172.628 417.079C172.889 417.139 173.137 417.251 173.355 417.408C173.573 417.564 173.759 417.762 173.9 417.991C174.042 418.219 174.137 418.473 174.181 418.739L179.833 453.365Z" fill="#FF8A00"/>
<path d="M102.172 395.548C95.3938 395.83 88.4901 396.028 81.5863 396.199L71.2108 396.428L60.8476 396.614L59.8151 396.633C55.5348 396.713 51.4443 398.414 48.3682 401.393C45.2922 404.372 43.4594 408.407 43.2394 412.684C43.0194 416.961 44.4286 421.162 47.1828 424.441C49.937 427.72 53.8314 429.832 58.0807 430.352L160.494 442.793L164.667 412.513L62.7107 396.767L59.9431 430.505L70.4656 431.185L80.9813 431.822C88.0031 432.227 95.0273 432.607 102.178 432.901L102.172 395.548Z" fill="#262626"/>
<path d="M76.3374 431.597C90.4757 429.539 91.8823 429.158 92.3487 429.037L88.1904 413.577C88.2377 413.565 88.2986 413.548 88.3725 413.532C87.2135 413.786 80.0278 414.883 74.0347 415.755L76.3374 431.597Z" fill="#E98862"/>
<path d="M58.6743 445.358C58.5257 445.762 58.4621 446.193 58.4873 446.623C58.5125 447.052 58.6261 447.472 58.8209 447.856C59.0157 448.24 59.2876 448.58 59.6195 448.854C59.9514 449.128 60.3363 449.33 60.75 449.449C61.3233 449.613 61.9316 449.61 62.5033 449.44C63.075 449.27 63.5863 448.941 63.9771 448.49L76.3299 433.211C76.5672 432.915 76.7377 432.571 76.8297 432.202C76.9218 431.834 76.9333 431.45 76.8633 431.077C76.0932 428.056 76.3122 424.867 77.4882 421.98C78.4971 419.766 80.1078 417.88 82.1364 416.538C82.3296 416.425 82.4868 416.26 82.5896 416.061C82.6925 415.863 82.7368 415.639 82.7174 415.416C82.698 415.193 82.6157 414.981 82.48 414.803C82.3443 414.625 82.161 414.49 81.9512 414.412L73.4168 411.229C73.1651 411.135 72.8973 411.092 72.6289 411.102C72.3604 411.112 72.0966 411.175 71.8524 411.287C71.6083 411.399 71.3888 411.558 71.2064 411.756C71.0239 411.953 70.8822 412.184 70.7894 412.436L58.6743 445.358Z" fill="#FF8A00"/>
<path d="M124.912 430.157C129.203 429.792 133.492 429.528 137.782 429.281C142.071 429.052 146.36 428.823 150.647 428.671L157.078 428.423L163.509 428.238C167.796 428.095 172.081 428.036 176.367 427.954L174.88 397.148C166.857 398.27 158.823 399.301 150.791 400.358C142.76 401.415 134.72 402.388 126.682 403.377L114.618 404.796L102.544 406.15C94.4908 407.016 86.4372 407.876 78.3652 408.585L81.9078 438.949C89.9256 437.779 97.9602 436.761 105.996 435.747L118.057 434.283L130.126 432.888C138.177 431.999 146.226 431.096 154.281 430.272C162.337 429.448 170.396 428.603 178.461 427.847C182.329 427.483 185.917 425.672 188.508 422.775C191.098 419.879 192.5 416.11 192.433 412.224C192.365 408.338 190.834 404.621 188.144 401.816C185.455 399.011 181.806 397.325 177.928 397.096L176.974 397.042C172.695 396.791 168.414 396.562 164.136 396.251L157.719 395.811L151.302 395.309C147.024 394.987 142.748 394.586 138.471 394.19C134.195 393.774 129.919 393.34 125.645 392.806L124.912 430.157Z" fill="#262626"/>
<path d="M86.6003 390.871L84.3447 428.762L149.488 427.997L144.571 394.45L86.6003 390.871Z" fill="#262626"/>
<path d="M65.8249 389.43C66.5099 390.47 67.4196 391.342 68.4869 391.983C69.5542 392.623 70.7518 393.015 71.991 393.131L82.4152 394.1C82.4198 394.227 82.4206 394.353 82.429 394.481C83.2672 407.395 146.003 404.346 149.196 397.005C150.368 394.311 150.273 391.982 149.68 388.985L161.705 390.7C163.102 390.9 164.528 390.726 165.837 390.197C167.146 389.667 168.291 388.801 169.157 387.686C170.023 386.57 170.579 385.245 170.768 383.845C170.956 382.446 170.771 381.021 170.232 379.716L148.222 326.435C146.885 320.358 142.659 316.32 132.176 315.868C131.696 315.845 130.926 315.83 129.935 315.814C129.737 320.007 103.783 319.992 103.235 315.715C95.9042 315.723 89.892 317.972 86.4097 321.456C84.3222 323.436 82.8357 325.966 82.1211 328.754L64.8541 382.308C64.4726 383.492 64.3617 384.747 64.5298 385.979C64.6978 387.212 65.1404 388.391 65.8249 389.43ZM146.597 372.373C146.331 369.705 146.149 366.684 146.104 363.239L150.083 372.87L146.597 372.373ZM89.0698 361.333C89.1064 361.909 89.1315 362.488 89.1315 363.071C89.1424 368.074 88.3853 373.05 86.8867 377.823L83.844 377.54L89.0698 361.333Z" fill="#367CFF"/>
<path d="M108.272 341.336L105.579 381.495C105.547 381.968 105.613 382.443 105.772 382.89C105.931 383.337 106.181 383.746 106.505 384.093C106.829 384.439 107.22 384.716 107.655 384.904C108.09 385.093 108.559 385.191 109.034 385.191H165.1C165.957 385.191 166.783 384.873 167.419 384.299C168.056 383.725 168.457 382.936 168.545 382.083L172.694 341.924C172.744 341.442 172.692 340.954 172.541 340.493C172.391 340.032 172.145 339.608 171.821 339.248C171.496 338.887 171.099 338.599 170.656 338.402C170.213 338.205 169.734 338.104 169.249 338.104H111.727C110.848 338.103 110.003 338.437 109.361 339.037C108.72 339.638 108.33 340.459 108.272 341.336Z" fill="#9EBCEA"/>
<path d="M160.417 380.355H101.51C100.175 380.355 99.0925 381.437 99.0925 382.773C99.0925 384.108 100.175 385.191 101.51 385.191H160.417C161.752 385.191 162.834 384.108 162.834 382.773C162.834 381.437 161.752 380.355 160.417 380.355Z" fill="#9EBCEA"/>
<path d="M140.621 366.984C143.567 366.984 145.955 364.594 145.955 361.647C145.955 358.7 143.567 356.311 140.621 356.311C137.675 356.311 135.287 358.7 135.287 361.647C135.287 364.594 137.675 366.984 140.621 366.984Z" fill="white"/>
<path d="M132.936 390.291C129.515 392.403 124.219 393.401 119.601 393.767L119.342 385.351C121.514 385.29 124.851 385.061 128.12 385.191C129.597 383.987 130.447 383.628 131.964 382.111C133.578 380.497 137.813 379.527 138.613 382.111C139.413 384.695 135.942 388.431 132.936 390.291Z" fill="#E98862"/>
<path d="M129.932 315.814C129.734 320.007 127.456 326.174 120.423 326.64C111.05 327.257 103.78 319.992 103.232 315.715H103.255C112.482 315.715 124.553 315.731 129.932 315.814Z" fill="#E98862"/>
<path d="M154.639 304.161L164.415 297.98H210.754V260.249H154.639V304.161Z" fill="#0CBC8B"/>
<path d="M202.506 280.684L189.878 286.815V284.442L199.896 279.752V279.698L189.878 275.034V272.636L202.506 278.766V280.684Z" fill="white" stroke="white" stroke-width="0.811" stroke-miterlimit="10"/>
<path d="M184.681 287.88L178.18 268.557H180.472L186.972 287.88H184.681Z" fill="white" stroke="white" stroke-width="0.811" stroke-miterlimit="10"/>
<path d="M162.886 278.712L175.515 272.635V275.007L165.337 279.698V279.752L175.515 284.443V286.815L162.886 280.738V278.712Z" fill="white" stroke="white" stroke-width="0.811" stroke-miterlimit="10"/>
<path d="M501.516 426.828C499.829 412.635 499.829 411.175 499.829 410.695H515.831C515.831 410.646 515.831 410.583 515.831 410.508C515.887 411.693 516.694 418.92 517.41 424.937L501.516 426.828Z" fill="#E98862"/>
<path d="M565.278 428.744C565.278 428.744 565.224 412.165 565.224 410.697H581.226C581.226 412.161 581.28 428.692 581.28 428.692L565.278 428.744Z" fill="#E98862"/>
<path d="M523.802 421.775L495.608 421.295C496.78 391.592 496.979 357.618 497.294 326.877C497.381 319.257 497.957 311.651 499.016 304.104C503.552 271.535 506.51 239.15 512.617 206.771L512.821 206.831L513.416 202.768L571.387 199.185L574.409 237.084C574.409 237.084 581.96 368.164 585.404 420.87L557.309 423.245C552.247 371.57 544.414 296.274 539.596 241.988C534.063 268.418 530.299 295.784 525.488 321.988C524.526 354.788 523.713 389.073 523.802 421.775Z" fill="#262626"/>
<path d="M545.824 434.936C545.394 434.934 544.968 434.843 544.575 434.669C544.181 434.495 543.827 434.242 543.536 433.925C543.244 433.609 543.021 433.235 542.881 432.829C542.74 432.422 542.685 431.99 542.718 431.561C542.764 430.966 542.979 430.397 543.338 429.92C543.697 429.443 544.185 429.079 544.743 428.87L563.369 422.63C563.73 422.51 564.112 422.47 564.49 422.512C564.868 422.554 565.232 422.677 565.558 422.873C568.118 424.65 571.181 425.559 574.296 425.465C576.722 425.292 579.051 424.441 581.017 423.008C581.19 422.867 581.399 422.777 581.621 422.75C581.843 422.723 582.068 422.759 582.27 422.855C582.472 422.951 582.643 423.102 582.762 423.291C582.881 423.48 582.944 423.7 582.943 423.923V433.035C582.943 433.303 582.89 433.57 582.787 433.818C582.684 434.066 582.533 434.291 582.343 434.481C582.152 434.671 581.926 434.821 581.678 434.923C581.429 435.025 581.163 435.077 580.894 435.076L545.824 434.936Z" fill="#FFB800"/>
<path d="M482.019 434.936C481.589 434.934 481.163 434.843 480.77 434.669C480.376 434.495 480.022 434.242 479.731 433.925C479.44 433.609 479.216 433.235 479.076 432.829C478.935 432.422 478.88 431.99 478.913 431.561C478.959 430.966 479.174 430.396 479.533 429.92C479.892 429.443 480.38 429.079 480.939 428.87L499.564 422.63C499.925 422.51 500.307 422.47 500.685 422.512C501.063 422.554 501.427 422.677 501.753 422.873C504.313 424.65 507.376 425.559 510.491 425.465C512.918 425.292 515.247 424.441 517.213 423.009C517.386 422.867 517.595 422.777 517.817 422.75C518.039 422.722 518.264 422.759 518.466 422.855C518.668 422.951 518.838 423.102 518.957 423.291C519.076 423.48 519.139 423.7 519.138 423.923V433.035C519.138 433.303 519.085 433.57 518.982 433.818C518.879 434.066 518.728 434.292 518.538 434.481C518.347 434.671 518.121 434.821 517.873 434.923C517.624 435.025 517.358 435.077 517.089 435.076L482.019 434.936Z" fill="#FFB800"/>
<path d="M453.384 137.062C453.384 137.062 451.364 130.403 447.316 127.748C443.268 125.092 443.277 128.083 445.075 131.081C446.874 134.079 451.115 140.388 451.115 140.388" fill="#E98862"/>
<path d="M451.006 134.282C451.006 134.282 443.919 124.999 439.774 124.999C439.774 124.999 433.096 128.195 433.19 130.259C433.332 133.37 444.626 144.98 444.626 144.98L451.006 134.282Z" fill="#E98862"/>
<path d="M492.58 182.251C490.763 182.252 489 181.633 487.581 180.498L442.258 144.218L452.256 131.716L490.38 162.234L513.241 123.522L527.018 131.666L499.465 178.321C498.757 179.519 497.75 180.511 496.542 181.201C495.334 181.89 493.967 182.253 492.577 182.253L492.58 182.251Z" fill="#367CFF"/>
<path d="M509.657 205.32C512.85 212.662 575.585 215.711 576.424 202.797C576.957 194.579 569.718 187.406 569.718 171.389C569.718 155.373 584.448 134.919 572.446 122.913C568.964 119.429 562.951 117.18 555.621 117.172C555.072 121.449 529.118 121.464 528.92 117.271C527.93 117.287 527.16 117.302 526.68 117.325C501.397 118.415 512.507 147.2 512.75 168.347C513.048 193.093 506.365 197.758 509.657 205.32Z" fill="#367CFF"/>
<path d="M528.92 117.271C529.119 121.464 531.397 127.631 538.43 128.096C547.803 128.714 555.072 121.449 555.621 117.172H555.598C546.37 117.17 534.3 117.188 528.92 117.271Z" fill="#E98862"/>
<path d="M519.687 124.7L516.476 110.267C516.415 109.995 516.249 109.758 516.014 109.608C515.778 109.459 515.493 109.409 515.221 109.469L504.629 111.828C504.397 111.879 504.154 111.849 503.94 111.744C503.726 111.639 503.555 111.465 503.453 111.25C501.55 107.299 499.015 103.686 495.948 100.553C495.781 100.384 495.675 100.163 495.649 99.9261C495.623 99.6893 495.678 99.4507 495.805 99.2492L501.63 90.0853C501.779 89.8502 501.828 89.5658 501.767 89.2943C501.707 89.0228 501.541 88.7864 501.307 88.6369L488.832 80.701C488.597 80.5525 488.313 80.5031 488.041 80.5637C487.77 80.6243 487.534 80.7899 487.384 81.0243L481.554 90.1836C481.425 90.3842 481.233 90.5352 481.007 90.6121C480.782 90.6889 480.537 90.687 480.313 90.6067C476.176 89.1576 471.831 88.3942 467.448 88.3464C467.21 88.3454 466.979 88.2637 466.793 88.1146C466.607 87.9655 466.477 87.7578 466.424 87.5254L464.067 76.929C464.037 76.7942 463.981 76.6666 463.901 76.5535C463.822 76.4404 463.722 76.3441 463.605 76.27C463.489 76.1958 463.359 76.1454 463.223 76.1215C463.087 76.0977 462.947 76.1008 462.813 76.1309L448.386 79.3433C448.113 79.4042 447.877 79.5705 447.727 79.806C447.577 80.0414 447.527 80.3265 447.588 80.5989L449.95 91.1952C450.001 91.428 449.971 91.6711 449.866 91.8849C449.761 92.0987 449.587 92.2705 449.372 92.3723C445.423 94.2761 441.812 96.8119 438.68 99.8797C438.511 100.048 438.29 100.153 438.053 100.179C437.817 100.205 437.578 100.15 437.377 100.023L428.216 94.1958C427.981 94.0471 427.697 93.9976 427.425 94.0581C427.154 94.1187 426.918 94.2844 426.768 94.519L418.84 106.998C418.691 107.233 418.642 107.518 418.702 107.789C418.763 108.061 418.928 108.297 419.163 108.447L428.322 114.273C428.522 114.402 428.674 114.595 428.75 114.82C428.827 115.046 428.826 115.291 428.746 115.515C427.297 119.654 426.534 124.001 426.486 128.386C426.485 128.624 426.404 128.855 426.255 129.041C426.106 129.227 425.898 129.357 425.666 129.409L415.074 131.769C414.802 131.829 414.565 131.996 414.415 132.231C414.266 132.466 414.216 132.751 414.276 133.023L417.488 147.457C417.548 147.729 417.715 147.966 417.95 148.115C418.185 148.265 418.47 148.315 418.742 148.255L429.334 145.895C429.567 145.844 429.81 145.874 430.024 145.979C430.237 146.084 430.409 146.259 430.511 146.474C432.413 150.424 434.948 154.037 438.015 157.17C438.182 157.339 438.288 157.56 438.314 157.797C438.34 158.034 438.285 158.273 438.158 158.475L432.334 167.638C432.185 167.874 432.136 168.158 432.196 168.429C432.257 168.701 432.423 168.937 432.657 169.087L445.126 177.019C445.361 177.168 445.646 177.217 445.917 177.157C446.188 177.096 446.425 176.931 446.574 176.696L452.399 167.533C452.527 167.332 452.72 167.181 452.945 167.104C453.171 167.027 453.415 167.029 453.64 167.109C457.776 168.558 462.122 169.322 466.505 169.37C466.743 169.371 466.974 169.452 467.16 169.601C467.346 169.75 467.476 169.958 467.529 170.19L469.886 180.786C469.947 181.058 470.113 181.295 470.348 181.445C470.584 181.595 470.868 181.645 471.141 181.585L485.568 178.371C485.84 178.311 486.077 178.144 486.226 177.909C486.376 177.674 486.426 177.389 486.365 177.117L484.007 166.52C483.956 166.287 483.986 166.044 484.091 165.83C484.196 165.616 484.37 165.444 484.585 165.342C488.534 163.439 492.146 160.904 495.278 157.836C495.447 157.668 495.668 157.563 495.905 157.537C496.142 157.511 496.38 157.566 496.582 157.693L505.741 163.519C505.976 163.667 506.26 163.717 506.531 163.657C506.803 163.596 507.039 163.431 507.189 163.196L515.122 150.72C515.196 150.604 515.246 150.474 515.27 150.337C515.294 150.201 515.291 150.062 515.261 149.927C515.231 149.792 515.175 149.665 515.095 149.552C515.016 149.438 514.915 149.342 514.799 149.268L505.638 143.441C505.438 143.312 505.287 143.119 505.21 142.894C505.133 142.669 505.135 142.424 505.215 142.2C506.664 138.061 507.427 133.714 507.475 129.329C507.476 129.091 507.558 128.86 507.707 128.674C507.856 128.488 508.064 128.358 508.296 128.305L518.888 125.947C519.158 125.886 519.394 125.721 519.544 125.488C519.694 125.254 519.745 124.971 519.687 124.7ZM472.81 151.582C468.256 152.752 463.454 152.526 459.03 150.932C454.606 149.338 450.763 146.45 448.001 142.643C445.239 138.835 443.684 134.285 443.54 129.583C443.396 124.881 444.669 120.244 447.193 116.274C449.717 112.305 453.376 109.187 457.694 107.325C462.013 105.463 466.791 104.943 471.409 105.832C476.026 106.722 480.27 108.98 483.588 112.314C486.906 115.647 489.145 119.902 490.015 124.525C491.118 130.377 489.953 136.43 486.758 141.455C483.562 146.48 478.576 150.1 472.81 151.582Z" fill="#0CBC8B"/>
<path d="M515.232 160.717C515.232 160.717 516.996 150.677 509.741 149.847C505.163 149.324 493.656 142.957 491.473 148.278C489.579 152.894 500.568 158.389 504.503 159.408C508.028 160.318 515.232 160.717 515.232 160.717Z" fill="#E98862"/>
<path d="M512.214 150.646C512.214 150.646 502.865 145.518 500.307 145.638C498.043 145.744 501.895 150.126 501.895 150.126L512.214 150.646Z" fill="#E98862"/>
<path d="M545.303 192.393C543.48 192.393 541.707 191.793 540.259 190.685L501.804 161.291L511.892 148.083L542.001 171.098L560.997 128.548L576.168 135.326L552.888 187.47C552.234 188.935 551.169 190.18 549.823 191.053C548.477 191.927 546.907 192.392 545.303 192.391V192.393Z" fill="#367CFF"/>
<path d="M553.383 121.602C553.383 121.602 547.49 118.477 548.806 102.425L536.633 100.17C536.633 100.17 538 114.561 531.841 119.131L553.383 121.602Z" fill="#E98862"/>
<g opacity="0.15">
<path d="M534.336 116.119L544.452 108.378L536.509 108.296C536.278 111.016 535.541 113.669 534.336 116.119Z" fill="black"/>
</g>
<path d="M555.714 96.2006C554.871 101.071 552.215 105.682 547.92 107.254C543.24 109.112 538.176 109.797 533.17 109.248C519.843 108.155 522.479 77.8399 528.806 71.9501C535.133 66.0604 553.703 69.7905 555.962 79.6397C557.131 84.7352 556.516 91.5649 555.714 96.2006Z" fill="#E98862"/>
<path d="M520.83 83.0436C520.83 83.0436 523.441 61.4964 547.098 66.7885C550.923 67.8032 554.328 70.0051 556.824 73.0777C557.764 71.1617 559.257 69.5713 561.109 68.5117C562.961 67.4521 565.088 66.9718 567.215 67.1328C569.343 67.2937 571.373 68.0885 573.045 69.4147C574.717 70.7408 575.953 72.5376 576.595 74.5732C577.236 76.6089 577.253 78.7902 576.644 80.8358C576.035 82.8814 574.827 84.6975 573.177 86.0501C571.527 87.4027 569.509 88.2296 567.384 88.4244C565.26 88.6191 563.125 88.1727 561.257 87.1426C561.235 87.4476 561.213 87.7601 561.181 88.075C559.733 101.416 548.634 108.096 548.634 108.096C548.634 108.096 545.655 105.839 546.715 84.2847C541.578 84.723 529.822 85.3557 520.83 83.0436Z" fill="#0F1011"/>
<path d="M536.649 92.4492C537.259 92.4492 537.753 91.9547 537.753 91.3446C537.753 90.7345 537.259 90.24 536.649 90.24C536.04 90.24 535.545 90.7345 535.545 91.3446C535.545 91.9547 536.04 92.4492 536.649 92.4492Z" fill="#0F1011"/>
<path d="M527.939 91.7349C528.549 91.7349 529.043 91.2403 529.043 90.6303C529.043 90.0202 528.549 89.5256 527.939 89.5256C527.329 89.5256 526.835 90.0202 526.835 90.6303C526.835 91.2403 527.329 91.7349 527.939 91.7349Z" fill="#0F1011"/>
<path d="M526.025 88.2778C525.888 88.2786 525.755 88.2247 525.658 88.1279C525.56 88.0311 525.504 87.8994 525.503 87.7617C525.503 87.624 525.557 87.4916 525.653 87.3937C525.75 87.2958 525.882 87.2403 526.019 87.2395L528.944 87.2029H528.951C529.088 87.2021 529.221 87.256 529.319 87.3528C529.416 87.4496 529.472 87.5813 529.473 87.719C529.474 87.8567 529.42 87.989 529.323 88.087C529.226 88.1849 529.094 88.2404 528.957 88.2412L526.032 88.2778H526.025Z" fill="#0F1011"/>
<path d="M539.033 89.3451C538.992 89.3452 538.951 89.3403 538.911 89.3307L536.027 88.6369C535.96 88.6217 535.896 88.5933 535.84 88.5534C535.785 88.5135 535.737 88.4629 535.701 88.4045C535.665 88.346 535.64 88.281 535.629 88.2132C535.618 88.1453 535.621 88.0759 535.637 88.0091C535.653 87.9423 535.683 87.8793 535.723 87.8239C535.764 87.7684 535.815 87.7216 535.874 87.6861C535.933 87.6506 535.998 87.6272 536.066 87.6171C536.134 87.6071 536.203 87.6107 536.27 87.6276L539.153 88.3213C539.277 88.3511 539.385 88.4251 539.457 88.5293C539.53 88.6334 539.562 88.7606 539.547 88.8867C539.532 89.0127 539.472 89.129 539.377 89.2135C539.282 89.298 539.16 89.3448 539.033 89.3451Z" fill="#0F1011"/>
<path d="M536.139 100.044C536.139 100.044 532.063 100.474 529.205 99.4756C529.205 99.4756 529.227 102.161 532.452 102.426C535.677 102.69 536.139 100.044 536.139 100.044Z" fill="white"/>
<path d="M542.395 94.0478C542.312 95.2756 542.716 96.4866 543.518 97.4189C544.321 98.3513 545.458 98.9302 546.684 99.0304C547.91 99.1305 549.126 98.744 550.069 97.9542C551.013 97.1645 551.607 96.0351 551.725 94.8102C551.786 94.1953 551.722 93.5744 551.538 92.9845C551.354 92.3947 551.054 91.8479 550.654 91.3767C550.255 90.9055 549.764 90.5196 549.213 90.2419C548.661 89.9643 548.059 89.8006 547.442 89.7605C544.105 89.6545 542.604 91.4704 542.395 94.0478Z" fill="#E98862"/>
<g opacity="0.15">
<path d="M531.748 97.4713C531.839 97.4714 531.928 97.4387 531.997 97.3791C532.066 97.3196 532.112 97.2371 532.125 97.1468C532.139 97.0565 532.119 96.9644 532.071 96.8871C532.022 96.8098 531.947 96.7526 531.86 96.7258L529.614 96.0359L531.186 92.5368C531.227 92.4445 531.23 92.3395 531.194 92.2449C531.158 92.1504 531.086 92.074 530.994 92.0325C530.902 91.9911 530.797 91.988 530.702 92.0239C530.608 92.0599 530.531 92.1319 530.49 92.2242L528.743 96.1174C528.721 96.1667 528.709 96.2202 528.709 96.2742C528.709 96.3283 528.721 96.3817 528.743 96.4309C528.765 96.4801 528.798 96.5241 528.838 96.5598C528.879 96.5955 528.927 96.6222 528.978 96.6381L531.636 97.4546C531.672 97.4656 531.71 97.4713 531.748 97.4713Z" fill="black"/>
</g>
<path d="M260.721 402.558H230.942C225.768 395.743 216.684 382.006 222.552 376.128C225.219 373.46 228.16 375.999 230.888 380.55C229.943 371.638 230.888 363.131 237.083 360.645C242.722 358.381 245.237 365.204 246.212 374.352C248.993 369.153 252.643 365.494 257.414 365.776C264.226 366.188 262.58 375.282 258.595 385.352C261.62 383.05 264.782 381.922 267.868 382.928C274.322 385.04 268.287 394.104 260.721 402.558Z" fill="#8DDBE0"/>
<path d="M259.167 434.63H231.706L227.109 402.559H263.764L259.167 434.63Z" fill="#FFB800"/>
</svg>
