<svg width="599" height="391" viewBox="0 0 599 391" fill="none" xmlns="http://www.w3.org/2000/svg">
<path d="M300.557 198.7V189.973H303.506C304.19 189.973 304.75 190.096 305.185 190.343C305.622 190.588 305.946 190.919 306.156 191.336C306.366 191.754 306.472 192.22 306.472 192.734C306.472 193.248 306.366 193.716 306.156 194.136C305.949 194.556 305.628 194.892 305.193 195.142C304.759 195.389 304.202 195.512 303.523 195.512H301.409V194.575H303.489C303.957 194.575 304.334 194.494 304.618 194.332C304.902 194.17 305.108 193.951 305.236 193.676C305.366 193.397 305.432 193.083 305.432 192.734C305.432 192.385 305.366 192.072 305.236 191.797C305.108 191.521 304.901 191.305 304.614 191.149C304.327 190.99 303.946 190.91 303.472 190.91H301.614V198.7H300.557ZM310.626 198.836C310.036 198.836 309.517 198.696 309.071 198.414C308.628 198.133 308.281 197.74 308.031 197.234C307.784 196.728 307.661 196.137 307.661 195.461C307.661 194.779 307.784 194.184 308.031 193.676C308.281 193.167 308.628 192.772 309.071 192.491C309.517 192.21 310.036 192.069 310.626 192.069C311.217 192.069 311.734 192.21 312.178 192.491C312.624 192.772 312.97 193.167 313.217 193.676C313.467 194.184 313.592 194.779 313.592 195.461C313.592 196.137 313.467 196.728 313.217 197.234C312.97 197.74 312.624 198.133 312.178 198.414C311.734 198.696 311.217 198.836 310.626 198.836ZM310.626 197.933C311.075 197.933 311.445 197.818 311.734 197.588C312.024 197.358 312.239 197.055 312.378 196.68C312.517 196.305 312.587 195.899 312.587 195.461C312.587 195.024 312.517 194.616 312.378 194.238C312.239 193.86 312.024 193.555 311.734 193.322C311.445 193.089 311.075 192.973 310.626 192.973C310.178 192.973 309.808 193.089 309.518 193.322C309.229 193.555 309.014 193.86 308.875 194.238C308.736 194.616 308.666 195.024 308.666 195.461C308.666 195.899 308.736 196.305 308.875 196.68C309.014 197.055 309.229 197.358 309.518 197.588C309.808 197.818 310.178 197.933 310.626 197.933ZM315.127 198.7V192.154H316.099V193.177H316.184C316.321 192.828 316.541 192.556 316.845 192.363C317.149 192.167 317.514 192.069 317.94 192.069C318.372 192.069 318.731 192.167 319.018 192.363C319.308 192.556 319.534 192.828 319.696 193.177H319.764C319.931 192.839 320.183 192.571 320.518 192.372C320.853 192.17 321.255 192.069 321.724 192.069C322.309 192.069 322.788 192.253 323.16 192.619C323.532 192.983 323.718 193.549 323.718 194.319V198.7H322.713V194.319C322.713 193.836 322.581 193.491 322.316 193.284C322.052 193.076 321.741 192.973 321.383 192.973C320.923 192.973 320.566 193.112 320.314 193.39C320.061 193.666 319.934 194.015 319.934 194.439V198.7H318.912V194.217C318.912 193.845 318.791 193.545 318.549 193.318C318.308 193.088 317.997 192.973 317.616 192.973C317.355 192.973 317.11 193.042 316.883 193.181C316.659 193.321 316.477 193.514 316.338 193.761C316.201 194.005 316.133 194.288 316.133 194.609V198.7H315.127ZM328.216 198.836C327.625 198.836 327.107 198.696 326.661 198.414C326.218 198.133 325.871 197.74 325.621 197.234C325.374 196.728 325.25 196.137 325.25 195.461C325.25 194.779 325.374 194.184 325.621 193.676C325.871 193.167 326.218 192.772 326.661 192.491C327.107 192.21 327.625 192.069 328.216 192.069C328.807 192.069 329.324 192.21 329.767 192.491C330.213 192.772 330.56 193.167 330.807 193.676C331.057 194.184 331.182 194.779 331.182 195.461C331.182 196.137 331.057 196.728 330.807 197.234C330.56 197.74 330.213 198.133 329.767 198.414C329.324 198.696 328.807 198.836 328.216 198.836ZM328.216 197.933C328.665 197.933 329.034 197.818 329.324 197.588C329.614 197.358 329.828 197.055 329.968 196.68C330.107 196.305 330.176 195.899 330.176 195.461C330.176 195.024 330.107 194.616 329.968 194.238C329.828 193.86 329.614 193.555 329.324 193.322C329.034 193.089 328.665 192.973 328.216 192.973C327.767 192.973 327.398 193.089 327.108 193.322C326.819 193.555 326.604 193.86 326.465 194.238C326.326 194.616 326.256 195.024 326.256 195.461C326.256 195.899 326.326 196.305 326.465 196.68C326.604 197.055 326.819 197.358 327.108 197.588C327.398 197.818 327.767 197.933 328.216 197.933ZM335.189 198.836C334.643 198.836 334.162 198.699 333.744 198.423C333.327 198.145 333 197.753 332.764 197.247C332.528 196.738 332.411 196.137 332.411 195.444C332.411 194.757 332.528 194.16 332.764 193.654C333 193.149 333.328 192.758 333.749 192.483C334.169 192.207 334.655 192.069 335.206 192.069C335.632 192.069 335.969 192.14 336.216 192.282C336.466 192.422 336.656 192.581 336.787 192.76C336.92 192.936 337.024 193.081 337.098 193.194H337.183V189.973H338.189V198.7H337.217V197.694H337.098C337.024 197.814 336.919 197.964 336.783 198.146C336.646 198.325 336.452 198.485 336.199 198.628C335.946 198.767 335.609 198.836 335.189 198.836ZM335.325 197.933C335.729 197.933 336.07 197.828 336.348 197.618C336.626 197.404 336.838 197.11 336.983 196.735C337.128 196.358 337.2 195.922 337.2 195.427C337.2 194.939 337.129 194.511 336.987 194.145C336.845 193.775 336.635 193.488 336.357 193.284C336.078 193.076 335.734 192.973 335.325 192.973C334.899 192.973 334.544 193.082 334.26 193.301C333.979 193.517 333.767 193.811 333.625 194.183C333.486 194.552 333.416 194.967 333.416 195.427C333.416 195.893 333.487 196.316 333.629 196.697C333.774 197.075 333.987 197.376 334.268 197.601C334.553 197.822 334.905 197.933 335.325 197.933ZM342.83 198.836C342.239 198.836 341.72 198.696 341.274 198.414C340.831 198.133 340.484 197.74 340.234 197.234C339.987 196.728 339.864 196.137 339.864 195.461C339.864 194.779 339.987 194.184 340.234 193.676C340.484 193.167 340.831 192.772 341.274 192.491C341.72 192.21 342.239 192.069 342.83 192.069C343.42 192.069 343.938 192.21 344.381 192.491C344.827 192.772 345.173 193.167 345.42 193.676C345.67 194.184 345.795 194.779 345.795 195.461C345.795 196.137 345.67 196.728 345.42 197.234C345.173 197.74 344.827 198.133 344.381 198.414C343.938 198.696 343.42 198.836 342.83 198.836ZM342.83 197.933C343.278 197.933 343.648 197.818 343.938 197.588C344.227 197.358 344.442 197.055 344.581 196.68C344.72 196.305 344.79 195.899 344.79 195.461C344.79 195.024 344.72 194.616 344.581 194.238C344.442 193.86 344.227 193.555 343.938 193.322C343.648 193.089 343.278 192.973 342.83 192.973C342.381 192.973 342.011 193.089 341.722 193.322C341.432 193.555 341.217 193.86 341.078 194.238C340.939 194.616 340.869 195.024 340.869 195.461C340.869 195.899 340.939 196.305 341.078 196.68C341.217 197.055 341.432 197.358 341.722 197.588C342.011 197.818 342.381 197.933 342.83 197.933ZM347.331 198.7V192.154H348.302V193.143H348.37C348.49 192.819 348.706 192.556 349.018 192.355C349.331 192.153 349.683 192.052 350.075 192.052C350.149 192.052 350.241 192.054 350.352 192.056C350.463 192.059 350.547 192.064 350.603 192.069V193.092C350.569 193.083 350.491 193.071 350.369 193.054C350.25 193.034 350.123 193.024 349.99 193.024C349.672 193.024 349.387 193.091 349.137 193.224C348.89 193.355 348.694 193.537 348.549 193.77C348.407 194 348.336 194.262 348.336 194.558V198.7H347.331ZM354.255 198.836C353.664 198.836 353.146 198.696 352.7 198.414C352.257 198.133 351.91 197.74 351.66 197.234C351.413 196.728 351.289 196.137 351.289 195.461C351.289 194.779 351.413 194.184 351.66 193.676C351.91 193.167 352.257 192.772 352.7 192.491C353.146 192.21 353.664 192.069 354.255 192.069C354.846 192.069 355.363 192.21 355.806 192.491C356.252 192.772 356.599 193.167 356.846 193.676C357.096 194.184 357.221 194.779 357.221 195.461C357.221 196.137 357.096 196.728 356.846 197.234C356.599 197.74 356.252 198.133 355.806 198.414C355.363 198.696 354.846 198.836 354.255 198.836ZM354.255 197.933C354.704 197.933 355.074 197.818 355.363 197.588C355.653 197.358 355.868 197.055 356.007 196.68C356.146 196.305 356.216 195.899 356.216 195.461C356.216 195.024 356.146 194.616 356.007 194.238C355.868 193.86 355.653 193.555 355.363 193.322C355.074 193.089 354.704 192.973 354.255 192.973C353.806 192.973 353.437 193.089 353.147 193.322C352.858 193.555 352.643 193.86 352.504 194.238C352.365 194.616 352.295 195.024 352.295 195.461C352.295 195.899 352.365 196.305 352.504 196.68C352.643 197.055 352.858 197.358 353.147 197.588C353.437 197.818 353.806 197.933 354.255 197.933ZM303.267 207.154V208.007H299.875V207.154H303.267ZM300.864 205.586H301.869V211.825C301.869 212.109 301.911 212.322 301.993 212.464C302.078 212.603 302.186 212.697 302.317 212.745C302.45 212.791 302.591 212.814 302.739 212.814C302.849 212.814 302.94 212.808 303.011 212.797C303.082 212.782 303.139 212.771 303.182 212.762L303.386 213.666C303.318 213.691 303.223 213.717 303.101 213.743C302.979 213.771 302.824 213.785 302.636 213.785C302.352 213.785 302.074 213.724 301.801 213.602C301.531 213.48 301.307 213.294 301.128 213.044C300.952 212.794 300.864 212.478 300.864 212.098V205.586ZM307.454 213.836C306.823 213.836 306.279 213.697 305.822 213.419C305.367 213.137 305.016 212.745 304.769 212.243C304.525 211.737 304.403 211.149 304.403 210.478C304.403 209.808 304.525 209.217 304.769 208.706C305.016 208.191 305.36 207.791 305.8 207.504C306.244 207.214 306.761 207.069 307.352 207.069C307.692 207.069 308.029 207.126 308.362 207.24C308.694 207.353 308.996 207.538 309.269 207.794C309.542 208.047 309.759 208.382 309.921 208.799C310.083 209.217 310.164 209.731 310.164 210.342V210.768H305.119V209.899H309.141C309.141 209.529 309.067 209.2 308.92 208.91C308.775 208.62 308.567 208.392 308.298 208.224C308.031 208.056 307.715 207.973 307.352 207.973C306.951 207.973 306.604 208.072 306.312 208.271C306.022 208.467 305.799 208.723 305.643 209.038C305.487 209.353 305.408 209.691 305.408 210.052V210.632C305.408 211.126 305.494 211.545 305.664 211.889C305.837 212.23 306.077 212.49 306.384 212.669C306.691 212.845 307.048 212.933 307.454 212.933C307.718 212.933 307.957 212.896 308.17 212.822C308.386 212.745 308.572 212.632 308.728 212.481C308.884 212.328 309.005 212.137 309.09 211.91L310.062 212.183C309.96 212.512 309.788 212.802 309.546 213.052C309.305 213.299 309.006 213.493 308.651 213.632C308.296 213.768 307.897 213.836 307.454 213.836ZM314.353 213.836C313.739 213.836 313.211 213.691 312.768 213.402C312.325 213.112 311.984 212.713 311.745 212.204C311.506 211.696 311.387 211.115 311.387 210.461C311.387 209.797 311.509 209.21 311.754 208.701C312.001 208.19 312.344 207.791 312.785 207.504C313.228 207.214 313.745 207.069 314.336 207.069C314.796 207.069 315.211 207.154 315.58 207.325C315.95 207.495 316.252 207.734 316.488 208.041C316.724 208.348 316.87 208.706 316.927 209.115H315.921C315.844 208.816 315.674 208.552 315.41 208.322C315.148 208.089 314.796 207.973 314.353 207.973C313.961 207.973 313.617 208.075 313.322 208.279C313.029 208.481 312.8 208.767 312.636 209.136C312.474 209.503 312.393 209.933 312.393 210.427C312.393 210.933 312.472 211.373 312.631 211.748C312.793 212.123 313.021 212.414 313.313 212.622C313.609 212.829 313.955 212.933 314.353 212.933C314.614 212.933 314.852 212.887 315.065 212.797C315.278 212.706 315.458 212.575 315.606 212.404C315.754 212.234 315.859 212.029 315.921 211.791H316.927C316.87 212.177 316.729 212.525 316.505 212.835C316.283 213.142 315.989 213.386 315.623 213.568C315.259 213.747 314.836 213.836 314.353 213.836ZM319.403 209.762V213.7H318.397V204.973H319.403V208.177H319.488C319.641 207.839 319.871 207.571 320.178 207.372C320.488 207.17 320.9 207.069 321.414 207.069C321.86 207.069 322.251 207.159 322.586 207.338C322.921 207.514 323.181 207.785 323.366 208.152C323.553 208.515 323.647 208.978 323.647 209.541V213.7H322.641V209.609C322.641 209.089 322.506 208.687 322.237 208.403C321.969 208.116 321.599 207.973 321.124 207.973C320.795 207.973 320.499 208.042 320.238 208.181C319.979 208.321 319.775 208.524 319.624 208.791C319.477 209.058 319.403 209.382 319.403 209.762ZM326.493 209.762V213.7H325.487V207.154H326.458V208.177H326.544C326.697 207.845 326.93 207.578 327.243 207.376C327.555 207.172 327.958 207.069 328.453 207.069C328.896 207.069 329.284 207.16 329.616 207.342C329.949 207.521 330.207 207.794 330.392 208.16C330.576 208.524 330.669 208.984 330.669 209.541V213.7H329.663V209.609C329.663 209.095 329.529 208.694 329.262 208.407C328.995 208.118 328.629 207.973 328.163 207.973C327.842 207.973 327.555 208.042 327.302 208.181C327.052 208.321 326.855 208.524 326.71 208.791C326.565 209.058 326.493 209.382 326.493 209.762ZM332.506 213.7V207.154H333.512V213.7H332.506ZM333.018 206.064C332.822 206.064 332.653 205.997 332.511 205.863C332.371 205.73 332.302 205.569 332.302 205.382C332.302 205.194 332.371 205.034 332.511 204.9C332.653 204.767 332.822 204.7 333.018 204.7C333.214 204.7 333.381 204.767 333.521 204.9C333.663 205.034 333.734 205.194 333.734 205.382C333.734 205.569 333.663 205.73 333.521 205.863C333.381 205.997 333.214 206.064 333.018 206.064ZM339.82 216.154V212.694H339.735C339.661 212.814 339.556 212.964 339.419 213.146C339.283 213.325 339.088 213.485 338.836 213.628C338.583 213.767 338.246 213.836 337.826 213.836C337.28 213.836 336.799 213.699 336.381 213.423C335.963 213.145 335.637 212.753 335.401 212.247C335.165 211.738 335.047 211.137 335.047 210.444C335.047 209.757 335.165 209.16 335.401 208.654C335.637 208.149 335.965 207.758 336.385 207.483C336.806 207.207 337.292 207.069 337.843 207.069C338.269 207.069 338.605 207.14 338.853 207.282C339.103 207.422 339.293 207.581 339.424 207.76C339.557 207.936 339.661 208.081 339.735 208.194H339.854V207.154H340.826V216.154H339.82ZM337.962 212.933C338.365 212.933 338.706 212.828 338.985 212.618C339.263 212.404 339.475 212.11 339.62 211.735C339.765 211.358 339.837 210.922 339.837 210.427C339.837 209.939 339.766 209.511 339.624 209.145C339.482 208.775 339.272 208.488 338.993 208.284C338.715 208.076 338.371 207.973 337.962 207.973C337.536 207.973 337.181 208.082 336.897 208.301C336.615 208.517 336.404 208.811 336.262 209.183C336.123 209.552 336.053 209.967 336.053 210.427C336.053 210.893 336.124 211.316 336.266 211.697C336.411 212.075 336.624 212.376 336.905 212.601C337.189 212.822 337.542 212.933 337.962 212.933ZM346.792 211.024V207.154H347.797V213.7H346.792V212.592H346.723C346.57 212.924 346.331 213.207 346.007 213.44C345.684 213.67 345.275 213.785 344.78 213.785C344.371 213.785 344.007 213.696 343.689 213.517C343.371 213.335 343.121 213.062 342.939 212.699C342.757 212.332 342.667 211.87 342.667 211.314V207.154H343.672V211.245C343.672 211.723 343.806 212.103 344.073 212.387C344.343 212.672 344.686 212.814 345.104 212.814C345.354 212.814 345.608 212.75 345.867 212.622C346.128 212.494 346.347 212.298 346.523 212.034C346.702 211.77 346.792 211.433 346.792 211.024ZM352.384 213.836C351.753 213.836 351.209 213.697 350.751 213.419C350.297 213.137 349.946 212.745 349.699 212.243C349.455 211.737 349.332 211.149 349.332 210.478C349.332 209.808 349.455 209.217 349.699 208.706C349.946 208.191 350.29 207.791 350.73 207.504C351.173 207.214 351.69 207.069 352.281 207.069C352.622 207.069 352.959 207.126 353.291 207.24C353.624 207.353 353.926 207.538 354.199 207.794C354.472 208.047 354.689 208.382 354.851 208.799C355.013 209.217 355.094 209.731 355.094 210.342V210.768H350.048V209.899H354.071C354.071 209.529 353.997 209.2 353.849 208.91C353.705 208.62 353.497 208.392 353.227 208.224C352.96 208.056 352.645 207.973 352.281 207.973C351.881 207.973 351.534 208.072 351.241 208.271C350.952 208.467 350.729 208.723 350.572 209.038C350.416 209.353 350.338 209.691 350.338 210.052V210.632C350.338 211.126 350.423 211.545 350.594 211.889C350.767 212.23 351.007 212.49 351.314 212.669C351.621 212.845 351.977 212.933 352.384 212.933C352.648 212.933 352.886 212.896 353.099 212.822C353.315 212.745 353.501 212.632 353.658 212.481C353.814 212.328 353.935 212.137 354.02 211.91L354.991 212.183C354.889 212.512 354.717 212.802 354.476 213.052C354.234 213.299 353.936 213.493 353.581 213.632C353.226 213.768 352.827 213.836 352.384 213.836Z" fill="black"/>
<path d="M59.358 294.898C59.358 294.898 -9.58717 229.809 28.2887 143.393C38.8138 119.373 55.8301 98.787 77.0051 83.3217C124.416 48.7009 244.395 -19.785 424.87 6.6263C444.256 9.39482 462.805 16.3628 479.22 27.0437C505.69 44.4458 533.789 76.3741 521.826 131.082C517.609 150.414 518.562 170.582 525.494 189.114C532.388 207.455 545.444 229.963 569.758 254.283C569.758 254.283 621.57 304.34 571.166 347.662C560.411 356.829 547.689 363.394 533.987 366.847C471.152 382.921 217.059 436.338 59.358 294.898Z" fill="#F28500"/>
<path opacity="0.7" d="M59.358 294.898C59.358 294.898 -9.58717 229.809 28.2887 143.393C38.8138 119.373 55.8301 98.787 77.0051 83.3217C124.416 48.7009 244.395 -19.785 424.87 6.6263C444.256 9.39482 462.805 16.3628 479.22 27.0437C505.69 44.4458 533.789 76.3741 521.826 131.082C517.609 150.414 518.562 170.582 525.494 189.114C532.388 207.455 545.444 229.963 569.758 254.283C569.758 254.283 621.57 304.34 571.166 347.662C560.411 356.829 547.689 363.394 533.987 366.847C471.152 382.921 217.059 436.338 59.358 294.898Z" fill="white"/>
<path d="M184.215 370.963H587.001V379.957C587.005 381.317 586.741 382.664 586.223 383.922C585.706 385.18 584.945 386.323 583.985 387.286C583.025 388.249 581.884 389.013 580.629 389.534C579.373 390.055 578.027 390.324 576.667 390.324H184.215V370.963Z" fill="#909091"/>
<path d="M278.75 45.1134H513.597C525.908 45.1134 537.716 50.0054 546.421 58.7132C555.127 67.4209 560.018 79.2312 560.018 91.5459V378.585H232.323V91.5532C232.323 79.2386 237.213 67.4283 245.919 58.7205C254.624 50.0127 266.432 45.1207 278.743 45.1207L278.75 45.1134Z" fill="#CCCCCC"/>
<path d="M291.931 45.1134H519.003C532.345 45.1134 545.141 50.415 554.576 59.852C564.01 69.289 569.311 82.0883 569.311 95.4342V378.585H241.645V95.3975C241.654 82.0618 246.956 69.2753 256.385 59.8468C265.814 50.4184 278.598 45.1192 291.931 45.1134Z" fill="#E6E6E6"/>
<path d="M515.475 262.86L491.696 367.441H434.222L440.691 249.889H505.133C505.328 249.889 505.526 249.889 505.727 249.889C507.27 249.975 508.775 250.397 510.138 251.125C511.501 251.854 512.688 252.871 513.617 254.107C514.545 255.342 515.192 256.766 515.513 258.278C515.834 259.79 515.821 261.354 515.475 262.86Z" fill="#3F4347"/>
<path d="M515.474 262.86L491.696 367.441H470.711L496.456 258.128C496.971 255.877 498.195 253.85 499.947 252.347C501.574 250.959 503.596 250.117 505.727 249.94C507.264 250.027 508.764 250.448 510.123 251.174C511.481 251.899 512.665 252.912 513.593 254.141C514.52 255.371 515.169 256.787 515.494 258.293C515.819 259.799 515.812 261.357 515.474 262.86Z" fill="#2E3135"/>
<path d="M434.222 367.441H461.448C461.448 367.441 467.631 329.291 459.534 311.772L434.222 367.441Z" fill="#2E3135"/>
<path d="M367.873 101.355H389.774" stroke="#CCCCCC" stroke-width="4" stroke-miterlimit="10"/>
<path d="M367.734 116.174H389.635" stroke="#CCCCCC" stroke-width="4" stroke-miterlimit="10"/>
<path d="M368.196 143.972H390.097" stroke="#CCCCCC" stroke-width="4" stroke-miterlimit="10"/>
<path d="M298.363 177.456C298.363 177.456 289.012 193.706 282.719 225.48C282.719 225.48 276.323 260.607 274.717 292.176C274.717 292.176 270.624 350.714 270.433 358.439V367.83H324.526L329.66 364.514L332.33 331.382L332.887 260.461C332.887 260.461 332.359 220.44 341.96 188.739L324.526 186.135L310.59 182.173L298.363 177.456Z" fill="#E6E6E6"/>
<path d="M282.572 133.547C282.572 133.547 252.199 164.36 269.685 187.397C269.685 187.397 287.457 174.419 301.957 170.963C301.715 169.711 301.538 168.448 301.429 167.178V153.686C301.429 153.686 289.056 151.478 282.572 133.547Z" fill="#2F2E41"/>
<path d="M272.494 109.498L283.041 106.454C283.163 106.42 283.29 106.413 283.414 106.433C283.538 106.452 283.657 106.499 283.762 106.568C283.867 106.638 283.956 106.729 284.023 106.836C284.089 106.943 284.132 107.062 284.149 107.187C284.183 107.4 284.138 107.618 284.023 107.8C283.909 107.982 283.732 108.116 283.525 108.178L272.78 111.266L272.494 109.498Z" fill="#F28500"/>
<path d="M282.476 127.223C288.067 127.223 292.598 122.628 292.598 116.959C292.598 111.291 288.067 106.696 282.476 106.696C276.886 106.696 272.355 111.291 272.355 116.959C272.355 122.628 276.886 127.223 282.476 127.223Z" fill="#F29681"/>
<path d="M342.202 117.649V166.07C342.202 171.382 340.129 176.485 336.424 180.291C332.719 184.098 327.675 186.308 322.366 186.45C317.056 186.593 311.901 184.657 307.998 181.054C304.094 177.452 301.75 172.468 301.466 167.163C301.466 166.803 301.466 166.429 301.466 166.07V117.649H342.202Z" fill="#F9B499"/>
<path d="M333.547 142.586C324.878 167.933 304.392 167.412 301.466 167.2C301.466 166.84 301.466 166.466 301.466 166.106V149.167L333.547 142.586Z" fill="#F29681"/>
<g opacity="0.2">
<path d="M276.477 182.958C276.451 182.959 276.426 182.952 276.404 182.939C276.382 182.926 276.364 182.907 276.352 182.885C274.73 179.782 273.752 176.383 273.477 172.893C273.248 169.976 273.448 167.042 274.071 164.184C274.675 161.222 275.7 158.361 277.115 155.689C277.124 155.673 277.135 155.66 277.149 155.649C277.163 155.638 277.179 155.63 277.196 155.625C277.213 155.62 277.231 155.619 277.248 155.621C277.266 155.623 277.283 155.629 277.298 155.637C277.314 155.646 277.327 155.658 277.338 155.671C277.349 155.685 277.357 155.701 277.362 155.718C277.367 155.735 277.368 155.753 277.366 155.771C277.364 155.788 277.358 155.805 277.35 155.821C275.956 158.476 274.941 161.313 274.335 164.25C272.916 170.496 273.717 177.042 276.601 182.76C276.617 182.792 276.62 182.83 276.609 182.864C276.598 182.898 276.574 182.926 276.543 182.944C276.523 182.955 276.5 182.96 276.477 182.958Z" fill="black"/>
</g>
<path d="M259.747 189.488C259.718 189.489 259.69 189.482 259.666 189.466C259.642 189.45 259.624 189.427 259.614 189.4C259.614 189.319 256.776 181.366 258.148 170.325C258.97 163.802 261.058 157.502 264.294 151.778C268.387 144.442 274.386 137.773 282.124 131.86C282.151 131.835 282.187 131.821 282.223 131.821C282.26 131.821 282.295 131.835 282.322 131.86C282.347 131.886 282.36 131.92 282.36 131.955C282.36 131.991 282.347 132.025 282.322 132.051C264.873 145.381 259.71 160.223 258.448 170.332C257.084 181.278 259.879 189.165 259.915 189.246C259.927 189.28 259.925 189.317 259.91 189.35C259.895 189.383 259.868 189.409 259.835 189.422L259.747 189.488Z" fill="#2F2E41"/>
<path d="M301.994 170.963C301.994 170.963 273.689 177.133 247.784 208.379C247.784 208.379 225.237 234.607 213.274 277.503L241.432 358.41H270.418C270.418 358.41 273.733 300.239 275.941 278.054C275.941 278.076 281.376 204.63 301.994 170.963Z" fill="#F28500"/>
<g opacity="0.2">
<path d="M215.468 283.453H215.423C215.406 283.448 215.391 283.44 215.377 283.428C215.363 283.417 215.352 283.403 215.344 283.388C215.335 283.372 215.33 283.355 215.329 283.337C215.328 283.319 215.33 283.301 215.335 283.284C219.133 271.447 223.592 259.832 228.692 248.495C233.047 238.617 238.112 229.067 243.845 219.919C250.3 209.846 256.849 202.187 263.326 197.176C263.339 197.163 263.354 197.153 263.371 197.146C263.388 197.139 263.406 197.135 263.425 197.135C263.443 197.135 263.461 197.139 263.478 197.146C263.495 197.153 263.511 197.163 263.524 197.176C263.537 197.189 263.547 197.203 263.554 197.22C263.561 197.236 263.564 197.254 263.564 197.272C263.564 197.289 263.561 197.307 263.554 197.324C263.547 197.34 263.537 197.355 263.524 197.367C248.906 208.717 236.664 231.482 228.963 248.59C223.864 259.917 219.407 271.522 215.614 283.35C215.606 283.382 215.586 283.41 215.56 283.428C215.533 283.447 215.5 283.456 215.468 283.453Z" fill="black"/>
</g>
<g opacity="0.2">
<path d="M271.805 191.146C271.783 191.147 271.762 191.143 271.743 191.134C271.724 191.125 271.707 191.112 271.695 191.094C271.682 191.081 271.671 191.066 271.664 191.049C271.657 191.032 271.653 191.014 271.653 190.995C271.653 190.977 271.657 190.959 271.664 190.942C271.671 190.925 271.682 190.909 271.695 190.896C271.739 190.896 275.589 188.02 280.812 184.858C285.638 181.924 292.65 178.168 298.679 176.722C298.696 176.718 298.714 176.717 298.732 176.72C298.749 176.723 298.766 176.729 298.781 176.739C298.796 176.749 298.809 176.761 298.819 176.776C298.83 176.791 298.837 176.807 298.84 176.825C298.846 176.842 298.847 176.861 298.846 176.879C298.844 176.897 298.838 176.914 298.829 176.93C298.82 176.946 298.808 176.96 298.794 176.971C298.779 176.982 298.762 176.99 298.745 176.994C287.273 179.745 272.017 191.006 271.863 191.116C271.847 191.132 271.827 191.142 271.805 191.146Z" fill="black"/>
</g>
<path opacity="0.2" d="M272.714 186.59C272.677 186.627 269.296 190.258 265.379 197.551C262.96 202.051 260.91 206.739 259.248 211.571C257.015 218.081 255.349 224.772 254.268 231.57L246.779 264.393C245.043 269.896 242.883 275.255 240.317 280.423C235.916 289.594 229.689 299.615 222.171 303.027L236.07 343.069C237.127 331.17 238.506 318.835 240.207 306.064C241.992 292.859 244.006 280.162 246.251 267.973L254.517 231.621C257.077 215.767 261.94 204.417 265.563 197.69C269.487 190.397 272.853 186.81 272.897 186.781L272.714 186.59Z" fill="black"/>
<path d="M415.577 208.856C442.305 241.936 455.756 285.353 455.756 285.353C473.704 345.006 437.537 367.742 437.537 367.742L324.526 367.925C333.723 347.765 317.345 336.811 317.345 336.811L332.344 331.382L332.902 264.276C331.801 228.012 340.662 193.215 340.662 193.215C345.495 180.009 342.231 166.613 341.674 166.341C341.644 166.341 387.082 173.597 415.577 208.856Z" fill="#F28500"/>
<g opacity="0.2">
<path d="M345.238 354.529C345.203 354.529 345.168 354.515 345.142 354.491C345.116 354.466 345.101 354.433 345.099 354.397C345.098 354.379 345.101 354.361 345.107 354.344C345.113 354.327 345.123 354.312 345.135 354.299C345.147 354.286 345.162 354.275 345.179 354.268C345.195 354.261 345.213 354.257 345.231 354.257L408.14 352.548C409.086 352.548 410.04 352.548 410.986 352.599C412.453 352.697 413.9 352.746 415.328 352.746C426.733 352.746 435.557 349.592 441.6 343.341C446.969 337.78 449.082 330.751 449.903 325.836C450.442 322.719 450.61 319.55 450.402 316.394C449.595 284.04 438.314 257.005 428.992 240.021C418.863 221.585 408.822 210.727 408.727 210.617C408.714 210.604 408.703 210.588 408.696 210.571C408.689 210.554 408.685 210.536 408.685 210.518C408.685 210.499 408.689 210.481 408.696 210.464C408.703 210.447 408.714 210.432 408.727 210.419C408.753 210.394 408.787 210.381 408.822 210.381C408.857 210.381 408.892 210.394 408.917 210.419C409.02 210.529 419.076 221.423 429.198 239.867C435.062 250.52 439.842 261.735 443.463 273.344C447.835 287.286 450.263 301.766 450.681 316.372C450.884 319.548 450.714 322.736 450.175 325.873C449.681 328.9 448.822 331.857 447.615 334.676C446.221 337.937 444.251 340.919 441.798 343.48C435.703 349.782 426.814 352.966 415.328 352.966C413.915 352.966 412.462 352.92 410.971 352.827C410.032 352.761 409.086 352.746 408.147 352.768L345.268 354.478L345.238 354.529Z" fill="black"/>
</g>
<g opacity="0.2">
<path d="M382.418 258.707C382.385 258.708 382.354 258.697 382.328 258.677C382.303 258.657 382.285 258.629 382.278 258.597C381.138 251.371 381.387 243.993 383.012 236.859C384.446 230.477 387.371 224.526 391.549 219.494C396.632 213.5 403.593 209.135 412.247 206.523C412.282 206.514 412.32 206.519 412.351 206.537C412.383 206.554 412.406 206.584 412.416 206.618C412.422 206.635 412.424 206.653 412.423 206.671C412.421 206.688 412.416 206.706 412.408 206.722C412.4 206.737 412.389 206.751 412.375 206.762C412.361 206.774 412.345 206.782 412.328 206.787C392.855 212.656 385.784 226.42 383.283 236.918C381.663 244.015 381.414 251.356 382.55 258.546C382.556 258.582 382.548 258.619 382.528 258.649C382.507 258.679 382.476 258.7 382.44 258.707H382.418Z" fill="black"/>
</g>
<g opacity="0.2">
<path d="M404.473 206.332C404.439 206.342 404.403 206.342 404.37 206.332C390.75 192.224 374.856 183.883 363.92 179.371C357.256 176.545 350.334 174.373 343.251 172.885C343.231 172.885 343.211 172.881 343.192 172.873C343.174 172.864 343.157 172.852 343.144 172.837C343.131 172.821 343.121 172.803 343.116 172.784C343.111 172.764 343.109 172.744 343.113 172.724C343.116 172.704 343.123 172.685 343.135 172.668C343.146 172.651 343.161 172.637 343.178 172.627C343.196 172.616 343.215 172.61 343.235 172.607C343.255 172.605 343.276 172.607 343.295 172.614C350.398 174.105 357.34 176.282 364.022 179.114C370.905 181.95 377.531 185.374 383.826 189.348C391.374 194.104 398.332 199.739 404.553 206.134C404.566 206.147 404.577 206.163 404.584 206.18C404.591 206.197 404.595 206.215 404.595 206.233C404.595 206.252 404.591 206.27 404.584 206.287C404.577 206.304 404.566 206.319 404.553 206.332C404.527 206.341 404.499 206.341 404.473 206.332Z" fill="black"/>
</g>
<path d="M367.044 218.533H349.559C347.881 218.533 346.522 219.893 346.522 221.57C346.522 223.248 347.881 224.607 349.559 224.607H367.044C368.721 224.607 370.081 223.248 370.081 221.57C370.081 219.893 368.721 218.533 367.044 218.533Z" fill="white"/>
<path d="M327.232 358.131C319.626 361.601 310.45 358.072 310.45 358.072L299.353 353.883L289.011 349.973C288.387 349.54 287.663 349.27 286.907 349.189C286.151 349.109 285.386 349.219 284.684 349.511C281.376 350.34 277.694 350.978 277.694 350.978C275.695 351.362 273.748 351.98 271.893 352.82L262.783 357.515C261.192 358.227 259.456 358.557 257.715 358.476C255.974 358.396 254.275 357.908 252.757 357.053C247.784 360.369 243.735 356.319 243.735 356.319C242.173 358.161 241.256 357.926 241.256 357.926L239.562 353.076L249.991 342.145L245.664 344.815C243.321 346.611 240.361 347.402 237.435 347.016L235.872 342.35L254.319 332.079L270.455 329.966C280.21 328.125 286.591 329.871 286.591 329.871L310.883 336.408C315.761 338.521 317.418 336.775 317.418 336.775C329.41 345.835 327.232 358.131 327.232 358.131Z" fill="#F9B499"/>
<path d="M327.232 358.131C319.626 361.601 310.451 358.072 310.451 358.072L299.353 353.883L299.309 353.795C318.541 353.377 317.352 336.811 317.352 336.811C329.411 345.835 327.232 358.131 327.232 358.131Z" fill="#F29681"/>
<path d="M251.004 341.272C250.977 341.279 250.949 341.279 250.923 341.272C250.899 341.246 250.885 341.212 250.885 341.177C250.885 341.141 250.899 341.107 250.923 341.081C250.967 341.015 255.324 334.948 260.495 334.398L273.066 332.366C273.085 332.359 273.106 332.357 273.126 332.359C273.146 332.361 273.165 332.368 273.183 332.378C273.2 332.389 273.215 332.403 273.226 332.419C273.237 332.436 273.245 332.455 273.248 332.475C273.252 332.495 273.25 332.516 273.245 332.535C273.239 332.555 273.23 332.573 273.217 332.588C273.204 332.604 273.187 332.616 273.169 332.624C273.15 332.633 273.13 332.637 273.11 332.637L260.502 334.662C255.463 335.205 251.158 341.169 251.121 341.265C251.103 341.274 251.083 341.279 251.063 341.281C251.043 341.282 251.023 341.279 251.004 341.272Z" fill="#F29681"/>
<path d="M243.735 356.466C243.717 356.466 243.699 356.463 243.682 356.455C243.666 356.447 243.651 356.436 243.64 356.422C243.626 356.409 243.614 356.394 243.607 356.377C243.599 356.36 243.595 356.341 243.595 356.323C243.595 356.304 243.599 356.285 243.607 356.268C243.614 356.251 243.626 356.236 243.64 356.224L257.854 342.343C258.925 341.284 260.255 340.525 261.712 340.142L277.379 336.1C277.397 336.095 277.415 336.095 277.433 336.097C277.451 336.1 277.469 336.106 277.484 336.116C277.5 336.126 277.514 336.138 277.525 336.153C277.535 336.168 277.543 336.185 277.548 336.202C277.557 336.237 277.552 336.275 277.534 336.306C277.516 336.338 277.487 336.361 277.452 336.371L261.785 340.436C260.376 340.802 259.086 341.53 258.045 342.548L243.845 356.422C243.832 356.438 243.815 356.451 243.796 356.459C243.777 356.466 243.756 356.469 243.735 356.466Z" fill="#F29681"/>
<path d="M252.647 357.016C252.625 357.016 252.603 357.011 252.584 357C252.565 356.99 252.549 356.975 252.537 356.957C252.411 356.759 252.33 356.535 252.298 356.302C252.267 356.069 252.285 355.832 252.353 355.607C252.603 354.72 253.483 353.927 254.979 353.252L279.543 339.915C279.704 339.805 282.366 338.147 287.611 338.447C287.628 338.447 287.646 338.451 287.662 338.458C287.678 338.465 287.693 338.476 287.704 338.489C287.716 338.502 287.725 338.518 287.73 338.535C287.736 338.551 287.737 338.569 287.735 338.587C287.735 338.605 287.732 338.623 287.725 338.639C287.717 338.656 287.707 338.671 287.694 338.683C287.681 338.695 287.666 338.705 287.649 338.711C287.632 338.717 287.614 338.72 287.596 338.719C282.374 338.447 279.697 340.186 279.667 340.186L255.096 353.531C253.695 354.155 252.845 354.903 252.625 355.695C252.568 355.882 252.551 356.077 252.574 356.27C252.596 356.464 252.659 356.65 252.757 356.818C252.781 356.845 252.795 356.88 252.795 356.917C252.795 356.954 252.781 356.989 252.757 357.016C252.721 357.028 252.682 357.028 252.647 357.016Z" fill="#F29681"/>
<path d="M340.068 172.093C336.18 182.078 328.758 184.404 328.758 184.404C314.03 190.126 306.021 179.114 306.021 179.114C306.021 179.114 323.345 191.586 336.136 176.099C338.77 172.36 340.822 168.244 342.224 163.891C342.224 163.891 341.329 169.195 340.068 172.093Z" fill="#F29681"/>
<path opacity="0.2" d="M300.967 198.68C301.425 200.53 302.043 202.337 302.815 204.08C302.815 204.08 310.817 192.393 315.878 188.615C321.421 194.493 325.574 201.54 328.031 209.237C328.031 209.237 337.075 203.119 339.767 193.471C336.875 198.004 333.354 202.102 329.308 205.643C329.308 205.643 328.574 197.69 316.34 185.739L315.783 185.577C315.783 185.577 306.482 187.764 300.967 198.68Z" fill="black"/>
<path opacity="0.2" d="M274.166 302.286C274.166 302.286 284.787 227.278 297.85 196.274C297.85 196.274 294.74 188.519 298.363 177.493C291.916 191.969 287.159 207.141 284.185 222.707C284.185 222.707 276.191 262.244 275.435 284.246L274.166 302.286Z" fill="black"/>
<path d="M122.611 356.048L92.3929 279.932C91.739 278.286 91.4867 276.507 91.6572 274.744C91.8277 272.981 92.4159 271.283 93.3732 269.793C94.3304 268.303 95.6291 267.062 97.1615 266.174C98.6939 265.286 100.416 264.776 102.185 264.687L176.998 260.886C183.344 260.563 189.622 262.317 194.882 265.884C200.142 269.45 204.096 274.634 206.145 280.651L232.498 357.94C233.574 361.15 235.691 363.908 238.513 365.776C240.007 366.754 241.653 367.481 243.383 367.925H140.105C136.335 367.926 132.652 366.793 129.533 364.676C126.414 362.558 124.003 359.552 122.611 356.048Z" fill="#2F2E41"/>
<path d="M179.132 260.872L194.534 260.395C198.173 260.319 201.743 261.395 204.733 263.471C207.724 265.546 209.981 268.514 211.184 271.95L241.461 358.439H318.988C319.605 358.439 320.216 358.561 320.786 358.797C321.356 359.034 321.874 359.38 322.31 359.817C322.746 360.254 323.091 360.772 323.327 361.343C323.562 361.913 323.683 362.525 323.682 363.142C323.682 364.386 323.189 365.579 322.31 366.459C321.431 367.34 320.239 367.835 318.995 367.837L243.368 367.925C240.869 367.293 238.566 366.049 236.667 364.306C234.767 362.564 233.329 360.376 232.484 357.94L206.13 280.651C206.13 280.651 200.85 261.979 179.132 260.872Z" fill="#2F2E41"/>
<path opacity="0.2" d="M179.132 260.872L194.534 260.395C198.173 260.319 201.743 261.395 204.733 263.471C207.724 265.546 209.981 268.514 211.184 271.95L241.461 358.439H318.988C319.605 358.439 320.216 358.561 320.786 358.797C321.356 359.034 321.874 359.38 322.31 359.817C322.746 360.254 323.091 360.772 323.327 361.343C323.562 361.913 323.683 362.525 323.682 363.142C323.682 364.386 323.189 365.579 322.31 366.459C321.431 367.34 320.239 367.835 318.995 367.837L243.368 367.925C240.869 367.293 238.566 366.049 236.667 364.306C234.767 362.564 233.329 360.376 232.484 357.94L206.13 280.651C206.13 280.651 200.85 261.979 179.132 260.872Z" fill="black"/>
<path opacity="0.2" d="M163.172 325.858C167.567 325.858 171.13 322.294 171.13 317.898C171.13 313.502 167.567 309.938 163.172 309.938C158.777 309.938 155.214 313.502 155.214 317.898C155.214 322.294 158.777 325.858 163.172 325.858Z" fill="black"/>
<path d="M180.328 147.288H25.6409C20.2007 147.288 15.7905 151.7 15.7905 157.141V280.658C15.7905 286.1 20.2007 290.511 25.6409 290.511H180.328C185.768 290.511 190.178 286.1 190.178 280.658V157.141C190.178 151.7 185.768 147.288 180.328 147.288Z" fill="#E6E6E6"/>
<path d="M169.516 173.428C167.904 173.428 166.328 172.95 164.988 172.054C163.648 171.158 162.604 169.885 161.987 168.395C161.37 166.905 161.21 165.266 161.525 163.685C161.84 162.103 162.616 160.651 163.757 159.511C164.897 158.372 166.35 157.596 167.931 157.282C169.512 156.969 171.151 157.131 172.64 157.749C174.129 158.367 175.401 159.413 176.295 160.754C177.19 162.096 177.666 163.672 177.665 165.285C177.663 167.445 176.804 169.517 175.276 171.043C173.748 172.57 171.676 173.428 169.516 173.428ZM169.516 157.501C167.977 157.499 166.471 157.955 165.191 158.809C163.91 159.663 162.911 160.879 162.321 162.301C161.731 163.723 161.576 165.288 161.875 166.799C162.175 168.309 162.915 169.697 164.004 170.786C165.092 171.876 166.478 172.618 167.988 172.919C169.498 173.22 171.063 173.066 172.485 172.477C173.908 171.888 175.123 170.89 175.979 169.61C176.834 168.33 177.291 166.825 177.291 165.285C177.289 163.222 176.469 161.244 175.012 159.785C173.555 158.326 171.578 157.505 169.516 157.501Z" fill="#F28500"/>
<path d="M94.2926 190.361H71.2839V213.463H94.2926V190.361Z" fill="#F28500"/>
<path d="M159.351 190.361H102.111V198.556H159.351V190.361Z" fill="#CCCCCC"/>
<path opacity="0.25" d="M177.108 205.276H102.111V213.471H177.108V205.276Z" fill="#F28500"/>
<path d="M94.1092 232.34H71.1006V255.443H94.1092V232.34Z" fill="#F28500"/>
<path d="M159.167 232.34H101.928V240.535H159.167V232.34Z" fill="#CCCCCC"/>
<path opacity="0.25" d="M176.924 247.248H101.928V255.443H176.924V247.248Z" fill="#F28500"/>
<path opacity="0.25" d="M177.115 266.213H71.1006V281.582H177.115V266.213Z" fill="#F28500"/>
<path d="M184.01 181.968H69.5899C69.5412 181.968 69.4946 181.949 69.4602 181.914C69.4258 181.88 69.4065 181.833 69.4065 181.784C69.4065 181.736 69.4258 181.689 69.4602 181.655C69.4946 181.62 69.5412 181.601 69.5899 181.601H184.01C184.058 181.601 184.105 181.62 184.139 181.655C184.174 181.689 184.193 181.736 184.193 181.784C184.193 181.833 184.174 181.88 184.139 181.914C184.105 181.949 184.058 181.968 184.01 181.968Z" fill="#CCCCCC"/>
<path d="M183.701 222.399H69.2817C69.2384 222.39 69.1994 222.367 69.1715 222.333C69.1435 222.299 69.1282 222.256 69.1282 222.212C69.1282 222.168 69.1435 222.125 69.1715 222.091C69.1994 222.057 69.2384 222.034 69.2817 222.025H183.701C183.729 222.019 183.758 222.02 183.785 222.027C183.812 222.034 183.838 222.047 183.86 222.065C183.881 222.082 183.899 222.105 183.911 222.13C183.923 222.156 183.929 222.184 183.929 222.212C183.929 222.24 183.923 222.268 183.911 222.294C183.899 222.319 183.881 222.342 183.86 222.359C183.838 222.377 183.812 222.39 183.785 222.397C183.758 222.404 183.729 222.405 183.701 222.399Z" fill="#CCCCCC"/>
<path d="M90.332 332.945V351.631C90.378 353.799 89.9907 355.955 89.1929 357.972C88.3951 359.989 87.2028 361.826 85.6859 363.376C84.169 364.926 82.3581 366.157 80.3592 366.997C78.3604 367.838 76.2139 368.271 74.0455 368.271C71.8772 368.271 69.7306 367.838 67.7318 366.997C65.7329 366.157 63.922 364.926 62.4051 363.376C60.8882 361.826 59.6959 359.989 58.8981 357.972C58.1003 355.955 57.713 353.799 57.759 351.631V332.945H90.332Z" fill="#2F2E41"/>
<path opacity="0.2" d="M90.332 339.702V351.646C90.3266 355.142 89.1971 358.544 87.1104 361.348C85.0237 364.153 82.0904 366.212 78.7439 367.221C75.3975 368.23 71.8152 368.136 68.5264 366.952C65.2376 365.769 62.4166 363.558 60.4802 360.648C65.1597 361.22 82.7847 361.792 90.332 339.687V339.702Z" fill="black"/>
<path d="M58.7785 356.649H57.4583C55.1034 356.582 52.8675 355.599 51.2255 353.909C49.5836 352.22 48.665 349.956 48.665 347.6C48.665 345.243 49.5836 342.98 51.2255 341.29C52.8675 339.6 55.1034 338.617 57.4583 338.55H57.7443H57.9864V351.646C57.9938 353.246 58.241 354.836 58.7199 356.363L58.7785 356.649ZM57.4583 339.042C55.2248 339.107 53.1047 340.04 51.548 341.644C49.9912 343.247 49.1205 345.394 49.1205 347.629C49.1205 349.864 49.9912 352.011 51.548 353.614C53.1047 355.218 55.2248 356.151 57.4583 356.216H58.1918C57.7665 354.735 57.5516 353.201 57.5537 351.66V339.042H57.4583Z" fill="#2F2E41"/>
<path d="M15.519 370.963H418.306V379.957C418.31 381.317 418.045 382.664 417.527 383.922C417.01 385.18 416.249 386.323 415.289 387.286C414.329 388.249 413.189 389.013 411.933 389.534C410.677 390.055 409.331 390.324 407.971 390.324H15.519V370.963Z" fill="#9EA0A3"/>
<path d="M592.18 367.463H417.983C414.755 367.463 412.137 370.079 412.137 373.307C412.137 376.534 414.755 379.15 417.983 379.15H592.18C595.408 379.15 598.025 376.534 598.025 373.307C598.025 370.079 595.408 367.463 592.18 367.463Z" fill="#9EA0A3"/>
<path d="M595.084 326.019V331.779C595.084 341.243 591.326 350.319 584.635 357.011C577.945 363.704 568.871 367.463 559.409 367.463H547.38C537.918 367.463 528.844 363.704 522.154 357.011C515.463 350.319 511.705 341.243 511.705 331.779V326.019C511.705 325.488 511.916 324.979 512.291 324.603C512.667 324.228 513.176 324.017 513.707 324.017H593.082C593.486 324.018 593.881 324.142 594.215 324.371C594.548 324.6 594.805 324.924 594.952 325.3C595.037 325.531 595.082 325.774 595.084 326.019Z" fill="#2F2E41"/>
<path opacity="0.2" d="M595.084 326.019V331.779C595.084 341.243 591.326 350.319 584.635 357.011C577.945 363.704 568.87 367.463 559.409 367.463H547.38C539.559 367.468 531.955 364.889 525.75 360.127C537.486 362.584 577.826 367.544 594.952 325.271C595.04 325.511 595.085 325.764 595.084 326.019Z" fill="black"/>
<g opacity="0.2">
<path d="M592.693 330.187H514.47V330.553H592.693V330.187Z" fill="black"/>
</g>
<g opacity="0.2">
<path d="M590.339 334.508H516.354V334.875H590.339V334.508Z" fill="black"/>
</g>
<path d="M520.631 324.017V294.407C520.623 293.551 520.819 292.706 521.201 291.941C521.584 291.176 522.142 290.512 522.831 290.005C524.128 289.109 525.721 288.752 527.276 289.007C527.276 289.007 530.943 288.919 532.799 294.26V250.652C532.808 247.805 533.945 245.078 535.96 243.068C537.976 241.058 540.705 239.928 543.551 239.926C546.405 239.926 549.142 241.06 551.16 243.078C553.177 245.097 554.311 247.834 554.311 250.689V323.995L520.631 324.017Z" fill="#F28500"/>
<path d="M564.668 258.113C567.412 258.113 570.045 259.204 571.986 261.145C573.927 263.086 575.017 265.719 575.017 268.465V323.921H554.311V268.465C554.311 267.105 554.579 265.758 555.1 264.502C555.62 263.245 556.383 262.104 557.345 261.142C558.307 260.181 559.449 259.419 560.705 258.899C561.962 258.379 563.308 258.112 564.668 258.113Z" fill="#F28500"/>
<path opacity="0.2" d="M564.668 258.113C567.412 258.113 570.045 259.204 571.986 261.145C573.927 263.086 575.017 265.719 575.017 268.465V323.921H554.311V268.465C554.311 267.105 554.579 265.758 555.1 264.502C555.62 263.245 556.383 262.104 557.345 261.142C558.307 260.181 559.449 259.419 560.705 258.899C561.962 258.379 563.308 258.112 564.668 258.113Z" fill="black"/>
<path d="M580.774 282.133C581.53 282.133 582.277 282.281 582.975 282.571C583.673 282.86 584.307 283.283 584.841 283.817C585.375 284.351 585.798 284.986 586.087 285.683C586.376 286.381 586.525 287.129 586.525 287.884V323.921H575.017V287.892C575.016 287.135 575.164 286.386 575.453 285.687C575.742 284.988 576.166 284.352 576.701 283.817C577.236 283.282 577.871 282.858 578.57 282.569C579.269 282.28 580.018 282.132 580.774 282.133Z" fill="#F28500"/>
<g opacity="0.2">
<path d="M526.799 295.111H526.432V323.642H526.799V295.111Z" fill="black"/>
</g>
<g opacity="0.2">
<path d="M543.727 251.899H543.361V324.061H543.727V251.899Z" fill="black"/>
</g>
<g opacity="0.2">
<path d="M580.818 289.176H580.452V324.061H580.818V289.176Z" fill="black"/>
</g>
<path d="M477.335 71.8108C465.899 71.8311 454.726 75.2417 445.227 81.6116C435.729 87.9815 428.331 97.0248 423.969 107.599C419.608 118.173 418.477 129.802 420.721 141.019C422.965 152.235 428.483 162.534 436.577 170.615C444.671 178.696 454.978 184.195 466.195 186.418C477.413 188.641 489.038 187.489 499.601 183.106C510.164 178.723 519.19 171.306 525.541 161.793C531.891 152.28 535.279 141.098 535.278 129.659C535.272 122.055 533.769 114.526 530.853 107.503C527.938 100.48 523.668 94.1001 518.287 88.7281C512.906 83.3561 506.52 79.0971 499.493 76.1944C492.467 73.2917 484.937 71.8022 477.335 71.8108ZM476.645 182.261C447.116 182.261 423.183 158.653 423.183 129.519C423.183 100.386 447.116 76.7776 476.645 76.7776C506.174 76.7776 530.114 100.394 530.114 129.519C530.114 158.645 506.174 182.261 476.645 182.261Z" fill="#2F2E41"/>
<path d="M525.662 167.845C535.022 155.85 539.597 140.807 538.499 125.63C537.401 110.454 530.709 96.2259 519.72 85.704C508.731 75.1822 494.228 69.116 479.022 68.6813C463.816 68.2467 448.99 73.4746 437.418 83.3516C425.847 93.2286 418.353 107.051 416.391 122.14C414.428 137.229 418.136 152.509 426.796 165.019C435.456 177.529 448.451 186.377 463.261 189.849C478.072 193.321 493.644 191.168 506.959 183.809L501.194 172.592C490.636 178.533 478.254 180.358 466.431 177.716C454.608 175.074 444.18 168.151 437.154 158.28C430.127 148.409 427 136.287 428.372 124.247C429.745 112.208 435.52 101.102 444.588 93.0663C453.656 85.0308 465.374 80.634 477.488 80.722C489.602 80.8101 501.256 85.3768 510.206 93.5432C519.156 101.71 524.77 112.899 525.967 124.957C527.165 137.015 523.861 149.09 516.692 158.858L525.662 167.845Z" fill="#F28500"/>
<path d="M491.366 161.096H464.037C463.478 161.096 463.025 161.549 463.025 162.108C463.025 162.667 463.478 163.121 464.037 163.121H491.366C491.925 163.121 492.378 162.667 492.378 162.108C492.378 161.549 491.925 161.096 491.366 161.096Z" fill="#2F2E41"/>
<path d="M471.951 150.142H482.901L477.474 140.568L471.951 150.142Z" fill="#F28500"/>
<path d="M479.043 124.641H475.912V135.499H479.043V124.641Z" fill="#2F2E41"/>
<path d="M499.47 124.736H496.338V135.594H499.47V124.736Z" fill="#2F2E41"/>
<path d="M519.714 124.736H516.582V135.594H519.714V124.736Z" fill="#2F2E41"/>
<path d="M483.738 127.04H482.447V133.21H483.738V127.04Z" fill="#2F2E41"/>
<path d="M488.058 127.04H486.767V133.21H488.058V127.04Z" fill="#2F2E41"/>
<path d="M492.29 127.04H490.999V133.21H492.29V127.04Z" fill="#2F2E41"/>
<path d="M504.26 126.944H502.969V133.114H504.26V126.944Z" fill="#2F2E41"/>
<path d="M508.58 126.944H507.289V133.114H508.58V126.944Z" fill="#2F2E41"/>
<path d="M512.812 126.944H511.521V133.114H512.812V126.944Z" fill="#2F2E41"/>
<path d="M524.408 127.04H523.117V133.21H524.408V127.04Z" fill="#2F2E41"/>
<path d="M478.67 57.358H474.621V69.874H478.67V57.358Z" fill="#2F2E41"/>
<path d="M510.788 204.63H445.818C441.905 204.63 438.733 207.803 438.733 211.717C438.733 215.631 441.905 218.804 445.818 218.804H510.788C514.701 218.804 517.873 215.631 517.873 211.717C517.873 207.803 514.701 204.63 510.788 204.63Z" fill="#CCCCCC"/>
<path d="M436.342 222.443H436.298C436.263 222.431 436.234 222.406 436.217 222.373C436.201 222.34 436.198 222.302 436.21 222.267C444.366 198.328 434.097 180.809 424.056 170.325C419.228 165.375 413.808 161.038 407.92 157.413C405.385 155.824 402.754 154.393 400.043 153.128C386.642 146.562 372.721 132.887 372.582 132.748C372.558 132.722 372.544 132.688 372.544 132.652C372.544 132.617 372.558 132.583 372.582 132.557C372.594 132.543 372.61 132.531 372.627 132.524C372.644 132.516 372.662 132.512 372.681 132.512C372.7 132.512 372.718 132.516 372.735 132.524C372.752 132.531 372.768 132.543 372.78 132.557C372.919 132.689 386.804 146.335 400.16 152.879C402.882 154.142 405.52 155.578 408.059 157.178C413.978 160.806 419.425 165.153 424.276 170.12C430.701 176.825 435.153 184.125 437.478 191.821C440.412 201.446 440.082 211.717 436.466 222.348C436.457 222.374 436.441 222.398 436.419 222.415C436.396 222.432 436.37 222.442 436.342 222.443Z" fill="#2F2E41"/>
<path d="M401.224 70.4243H268.995C264.852 70.4243 261.492 73.7828 261.492 77.9258C261.492 82.0688 264.852 85.4273 268.995 85.4273H401.224C405.368 85.4273 408.727 82.0688 408.727 77.9258C408.727 73.7828 405.368 70.4243 401.224 70.4243Z" fill="#CCCCCC"/>
<path d="M342.569 107.246L342.202 117.649V121.317C336.855 151.932 315.724 154.463 315.724 154.463C296.353 157.581 287.537 145.396 283.797 136.856C282.127 133.082 281.26 129.002 281.251 124.875V95.7057L288.432 95.3756C288.432 95.3756 291.366 79.7269 301.128 72.1777C301.128 72.1777 296.896 83.131 296.163 94.1871H311.895C311.895 94.1871 313.186 76.0586 310.7 69.7053C310.795 69.8153 316.876 76.7409 318.247 93.358H331.868C331.868 93.358 332.322 83.3291 327.54 76.2421C327.54 76.2421 331.772 79.9103 334.347 89.6825C334.376 89.6678 338.887 103.013 342.569 107.246Z" fill="#F9B499"/>
<path d="M342.569 107.246V108.053L342.517 108.156C336.004 105.573 331.647 97.5838 331.647 97.5838L318.122 97.9506L314.895 90.4968L314.529 98.1341L294.102 98.4128C293.591 96.2463 293.543 93.9962 293.962 91.81C291.903 93.7619 290.548 96.3422 290.112 99.1465H281.251V95.6763L288.432 95.3462C288.432 95.3462 291.366 79.6975 301.128 72.1483C301.128 72.1483 296.896 83.1016 296.163 94.1577H311.895C311.895 94.1577 313.186 76.0293 310.7 69.6759C310.795 69.786 316.876 76.7116 318.247 93.3287H331.868C331.868 93.3287 332.322 83.2997 327.54 76.2127C327.54 76.2127 331.772 79.8809 334.347 89.6531C334.376 89.6678 338.887 103.013 342.569 107.246Z" fill="#F29681"/>
<path d="M425.853 223.228C396.859 174.624 342.239 166.62 342.239 166.62V117.649L342.605 107.246C338.938 103.013 334.413 89.6384 334.413 89.6384C331.838 79.8809 327.606 76.198 327.606 76.198C332.388 83.2851 331.934 93.314 331.934 93.314H318.277C316.905 76.6969 310.825 69.7713 310.729 69.6612C313.216 76.0146 311.925 94.143 311.925 94.143H296.192C296.926 83.1016 301.158 72.1336 301.158 72.1336C291.403 79.7269 288.461 95.3976 288.461 95.3976L281.281 95.7277L272.538 96.1312C274.658 77.0564 282.11 68.6048 282.11 68.6048C271.687 77.5039 270.059 92.2869 269.817 95.7497C269.805 95.9578 269.716 96.154 269.568 96.2999C269.424 96.4519 269.232 96.5481 269.025 96.5714C268.899 96.5851 268.771 96.5716 268.65 96.5317C268.53 96.4919 268.419 96.4266 268.326 96.3404C268.233 96.2542 268.16 96.149 268.11 96.0319C268.061 95.9148 268.038 95.7886 268.042 95.6617C268.511 75.0169 286.063 62.897 286.063 62.897C298.026 52.5819 307.964 56.727 307.964 56.727C299.412 47.5198 308.61 41.4452 308.61 41.4452C306.409 52.3105 313.949 55.6192 313.949 55.6192C355.448 40.4328 362.262 97.5031 362.262 97.5031L363.641 112.506C364.925 125.947 379.682 141.434 388.579 149.621C391.607 152.399 394.809 154.982 398.165 157.354C410.032 165.784 419.245 178.784 419.245 178.784C439.099 203.068 425.853 223.228 425.853 223.228Z" fill="#2F2E41"/>
<path d="M333.599 108.765L344.601 105.713C344.722 105.68 344.849 105.674 344.973 105.694C345.096 105.715 345.215 105.761 345.319 105.83C345.424 105.9 345.513 105.99 345.58 106.097C345.647 106.203 345.691 106.322 345.708 106.446C345.741 106.659 345.695 106.876 345.579 107.058C345.463 107.239 345.284 107.371 345.077 107.429L334.332 110.525L333.599 108.765Z" fill="#F28500"/>
<path d="M347.725 126.578C353.315 126.578 357.847 121.982 357.847 116.314C357.847 110.645 353.315 106.05 347.725 106.05C342.135 106.05 337.603 110.645 337.603 116.314C337.603 121.982 342.135 126.578 347.725 126.578Z" fill="#F9B499"/>
<path d="M315.79 185.577C311.999 186.869 308.564 189.033 305.761 191.895C302.959 194.757 300.867 198.237 299.654 202.055C291.586 182.636 301.964 170.985 301.964 170.985C302.819 174.402 304.541 177.54 306.963 180.096C309.385 182.652 312.425 184.54 315.79 185.577Z" fill="#F28500"/>
<path opacity="0.4" d="M315.79 185.577C311.999 186.869 308.564 189.033 305.761 191.895C302.959 194.757 300.867 198.237 299.654 202.055C291.586 182.636 301.964 170.985 301.964 170.985C302.819 174.402 304.541 177.54 306.963 180.096C309.385 182.652 312.425 184.54 315.79 185.577Z" fill="white"/>
<path d="M316.348 185.739C316.348 185.739 328.032 196.898 329.315 205.643C329.315 205.643 339.466 196.78 341.982 188.769C341.982 188.769 345.327 176.297 341.645 166.371C341.645 166.341 338.902 188.666 316.348 185.739Z" fill="#F28500"/>
<path opacity="0.4" d="M316.348 185.739C316.348 185.739 328.032 196.898 329.315 205.643C329.315 205.643 339.466 196.78 341.982 188.769C341.982 188.769 345.327 176.297 341.645 166.371C341.645 166.341 338.902 188.666 316.348 185.739Z" fill="white"/>
<path d="M429.484 367.463H6.82028C3.59181 367.463 0.974609 370.079 0.974609 373.307C0.974609 376.534 3.59181 379.15 6.82028 379.15H429.484C432.712 379.15 435.329 376.534 435.329 373.307C435.329 370.079 432.712 367.463 429.484 367.463Z" fill="#E1E1E2"/>
<path d="M57.8911 147.332V290.548H24.7681C22.1556 290.548 19.6501 289.509 17.8028 287.662C15.9555 285.814 14.9177 283.308 14.9177 280.695V157.185C14.9177 154.572 15.9555 152.066 17.8028 150.218C19.6501 148.37 22.1556 147.332 24.7681 147.332H57.8911Z" fill="#F28500"/>
<path d="M39.8552 176.561H21.5407C20.0419 176.561 18.8269 177.776 18.8269 179.275C18.8269 180.775 20.0419 181.99 21.5407 181.99H39.8552C41.354 181.99 42.569 180.775 42.569 179.275C42.569 177.776 41.354 176.561 39.8552 176.561Z" fill="white"/>
<path d="M22.9271 159.716C24.1221 159.716 25.0908 158.747 25.0908 157.552C25.0908 156.357 24.1221 155.388 22.9271 155.388C21.7322 155.388 20.7634 156.357 20.7634 157.552C20.7634 158.747 21.7322 159.716 22.9271 159.716Z" fill="white"/>
<path d="M29.6456 159.804C30.8406 159.804 31.8093 158.835 31.8093 157.64C31.8093 156.445 30.8406 155.476 29.6456 155.476C28.4507 155.476 27.4819 156.445 27.4819 157.64C27.4819 158.835 28.4507 159.804 29.6456 159.804Z" fill="white"/>
<path d="M36.3566 159.9C37.5516 159.9 38.5203 158.931 38.5203 157.736C38.5203 156.54 37.5516 155.571 36.3566 155.571C35.1616 155.571 34.1929 156.54 34.1929 157.736C34.1929 158.931 35.1616 159.9 36.3566 159.9Z" fill="white"/>
<path d="M39.9946 189.348H24.812C24.7634 189.348 24.7168 189.329 24.6824 189.295C24.648 189.26 24.6287 189.214 24.6287 189.165C24.6287 189.116 24.648 189.07 24.6824 189.035C24.7168 189.001 24.7634 188.982 24.812 188.982H39.9946C40.0433 188.982 40.0899 189.001 40.1243 189.035C40.1587 189.07 40.178 189.116 40.178 189.165C40.178 189.214 40.1587 189.26 40.1243 189.295C40.0899 189.329 40.0433 189.348 39.9946 189.348Z" fill="white"/>
<path d="M39.9434 197.176H24.7681C24.7195 197.176 24.6728 197.157 24.6384 197.123C24.604 197.088 24.5847 197.042 24.5847 196.993C24.5847 196.944 24.604 196.898 24.6384 196.863C24.6728 196.829 24.7195 196.81 24.7681 196.81H39.9434C39.992 196.81 40.0386 196.829 40.073 196.863C40.1074 196.898 40.1267 196.944 40.1267 196.993C40.1267 197.042 40.1074 197.088 40.073 197.123C40.0386 197.157 39.992 197.176 39.9434 197.176Z" fill="white"/>
<path d="M39.9434 204.711H24.7681C24.7195 204.711 24.6728 204.692 24.6384 204.657C24.604 204.623 24.5847 204.576 24.5847 204.528C24.5847 204.479 24.604 204.432 24.6384 204.398C24.6728 204.363 24.7195 204.344 24.7681 204.344H39.9434C39.992 204.344 40.0386 204.363 40.073 204.398C40.1074 204.432 40.1267 204.479 40.1267 204.528C40.1267 204.576 40.1074 204.623 40.073 204.657C40.0386 204.692 39.992 204.711 39.9434 204.711Z" fill="white"/>
<g opacity="0.2">
<path d="M564.946 268.098H564.851V323.789H564.946V268.098Z" fill="black"/>
</g>
<path d="M455.573 67.6657L464.778 75.303L462.753 89.7558L477.246 80.7393L490.727 89.7558L487.874 75.4937L497.717 67.6657H455.573Z" fill="#F28500"/>
<path opacity="0.2" d="M455.573 67.6657L464.778 75.303L462.753 89.7558L477.246 80.7393L490.727 89.7558L487.874 75.4937L497.717 67.6657H455.573Z" fill="black"/>
<path opacity="0.32" d="M298.699 112.308C298.744 105.246 293.033 99.4851 285.944 99.4405C278.856 99.396 273.073 105.085 273.029 112.147C272.984 119.209 278.695 124.97 285.784 125.015C292.873 125.059 298.655 119.371 298.699 112.308Z" fill="white"/>
<path opacity="0.32" d="M333.258 112.3C333.302 105.356 327.689 99.6904 320.722 99.6467C313.755 99.6029 308.072 105.197 308.028 112.142C307.984 119.087 313.597 124.752 320.564 124.796C327.531 124.839 333.215 119.245 333.258 112.3Z" fill="white"/>
<path d="M320.668 98.2294C317.288 98.2247 314.02 99.4456 311.472 101.666C308.923 103.886 307.265 106.956 306.805 110.305C303.871 107.914 300.204 109.814 299.735 110.093C299.176 106.535 297.263 103.331 294.395 101.154C291.528 98.9757 287.929 97.9925 284.353 98.4098C280.777 98.8272 277.501 100.613 275.212 103.392C272.922 106.172 271.798 109.73 272.073 113.321C272.348 116.912 274.002 120.256 276.688 122.654C279.374 125.053 282.884 126.318 286.482 126.185C290.08 126.052 293.487 124.532 295.989 121.942C298.491 119.352 299.894 115.895 299.903 112.293C303.314 109.484 306.717 112.198 306.717 112.198C306.707 114.967 307.519 117.677 309.05 119.985C310.58 122.292 312.761 124.094 315.316 125.16C317.871 126.227 320.685 126.511 323.401 125.977C326.118 125.443 328.615 124.115 330.576 122.16C332.538 120.206 333.875 117.713 334.419 114.998C334.963 112.282 334.689 109.467 333.632 106.907C332.574 104.348 330.782 102.16 328.48 100.62C326.179 99.0807 323.473 98.2588 320.704 98.2588L320.668 98.2294ZM285.88 124.457C283.469 124.449 281.114 123.725 279.114 122.379C277.113 121.032 275.557 119.123 274.641 116.892C273.725 114.661 273.49 112.208 273.967 109.844C274.444 107.48 275.611 105.31 277.32 103.609C279.029 101.908 281.203 100.751 283.569 100.286C285.935 99.8202 288.386 100.066 290.612 100.993C292.838 101.92 294.739 103.486 296.076 105.494C297.412 107.501 298.124 109.86 298.121 112.271C298.117 113.876 297.798 115.463 297.18 116.944C296.563 118.424 295.66 119.769 294.524 120.9C293.387 122.032 292.038 122.928 290.555 123.539C289.072 124.149 287.483 124.461 285.88 124.457ZM320.668 124.369C318.257 124.361 315.903 123.638 313.903 122.292C311.903 120.946 310.347 119.037 309.43 116.807C308.514 114.577 308.278 112.125 308.754 109.762C309.23 107.398 310.395 105.228 312.102 103.526C313.81 101.824 315.983 100.667 318.348 100.199C320.713 99.7323 323.163 99.9765 325.39 100.901C327.616 101.826 329.518 103.39 330.856 105.395C332.195 107.4 332.909 109.758 332.909 112.169C332.906 113.774 332.587 115.363 331.971 116.844C331.354 118.326 330.451 119.672 329.315 120.805C328.178 121.938 326.829 122.836 325.346 123.447C323.862 124.059 322.272 124.372 320.668 124.369Z" fill="#F28500"/>
<path opacity="0.2" d="M407.157 302.367C405.27 301.971 403.446 301.316 401.737 300.422C396.7 297.678 392.732 293.319 390.471 288.046L383.797 263.637L384.625 292.074C384.897 313.892 363.641 320.796 363.641 320.796L317.353 336.811C334.376 349.973 324.526 367.925 324.526 367.925H339.767C350.131 345.644 333.723 333.048 333.723 333.048C358.206 322.461 397.41 313.437 397.41 313.437C418.57 307.568 427.775 312.058 427.775 312.058C421.689 307.366 414.653 304.058 407.157 302.367Z" fill="black"/>
<path d="M335.623 362.951C336.866 362.951 337.875 361.943 337.875 360.699C337.875 359.455 336.866 358.447 335.623 358.447C334.379 358.447 333.371 359.455 333.371 360.699C333.371 361.943 334.379 362.951 335.623 362.951Z" fill="#2F2E41"/>
</svg>
