<svg width="598" height="330" viewBox="0 0 598 330" fill="none" xmlns="http://www.w3.org/2000/svg">
<path d="M36.4575 326.52C3.41955 291.603 -12.4909 231.875 23.1661 191.733C31.9899 181.809 42.669 174.414 54.0919 169.143C54.5459 168.955 54.9933 168.744 55.4473 168.556" stroke="#D4A373" stroke-width="4.23" stroke-miterlimit="10"/>
<path d="M247.676 30.2899C280.878 33.5278 293.552 50.7338 309.442 73.3539C310.758 75.2289 312.028 77.1189 313.278 79.009C327.491 100.462 338.131 134.257 366.866 130.055C389.317 126.764 408.537 110.53 428.652 100.018C461.809 82.6986 501.69 65.5905 537.334 83.9411C575.537 103.602 594.363 157.208 595.1 202.426C595.817 247.884 578.959 306.008 540.302 326.52" stroke="#D4A373" stroke-width="4.23" stroke-miterlimit="10"/>
<path d="M270.477 119.114C270.029 139.369 264.072 158.961 253.435 175.159C253.41 175.185 253.39 175.215 253.375 175.25C252.369 176.492 251.342 177.735 250.296 178.932C241.945 188.527 232.018 196.137 221.087 201.326C210.156 206.514 198.436 209.178 186.602 209.165H186.358C172.698 209.165 159.044 209.218 145.404 209.218C134.639 209.218 123.749 209.971 113.09 208.186C109.662 207.621 106.424 206.379 102.917 206.56C89.5465 207.267 80.3608 221.748 74.0243 233.457C73.9414 233.609 73.8289 233.738 73.6953 233.833C73.6479 233.699 73.6255 233.555 73.6295 233.412C74.4717 215.761 71.1291 197.508 63.4371 182.132C63.2989 181.831 63.1541 181.545 63.0094 181.266C58.7258 172.983 53.0209 165.867 49.3493 157.17C42.9956 142.051 40.1432 125.316 41.0677 108.572C41.9915 91.8287 46.6607 75.6377 54.6264 61.5529C62.5922 47.4687 73.5874 35.9636 86.5572 28.1415C99.527 20.3201 114.036 16.4444 128.691 16.8864L187.319 18.6936C209.982 19.3931 231.474 30.3651 247.069 49.1969C262.664 68.0287 271.083 93.1781 270.477 119.114Z" fill="#FAEDCD"/>
<path d="M276.668 106.072C276.7 131.606 268.417 156.238 253.434 175.16C253.41 175.185 253.389 175.216 253.375 175.25C252.368 176.492 251.342 177.735 250.295 178.932C241.944 188.527 232.017 196.137 221.086 201.326C210.155 206.514 198.435 209.179 186.601 209.165H186.357C172.697 209.165 159.044 209.218 145.404 209.218C134.639 209.218 123.749 209.971 113.089 208.186C109.661 207.621 106.424 206.379 102.916 206.56C89.5459 207.267 80.3602 221.748 74.0237 233.457C73.9401 233.609 73.8276 233.738 73.6947 233.833C73.544 233.941 73.3703 234 73.1926 234.004C73.015 234.008 72.8399 233.956 72.686 233.855C72.532 233.753 72.405 233.607 72.3181 233.429C72.2313 233.251 72.1885 233.05 72.1944 232.847C72.6485 214.21 68.6676 195.114 60.1794 179.15C60.0346 178.849 59.8701 178.54 59.7056 178.262C54.9877 169.693 48.8157 162.374 44.7361 153.338C37.6514 137.622 34.2185 120.086 34.7667 102.414C35.3149 84.7423 39.8261 67.5287 47.8662 52.428C55.9063 37.3274 67.2061 24.8471 80.678 16.1876C94.1506 7.52738 109.342 2.97852 124.795 2.97852H186.601C198.43 2.97927 210.143 5.64639 221.072 10.8285C232 16.0099 241.929 23.6039 250.293 33.1768C258.657 42.7505 265.29 54.1148 269.816 66.6221C274.341 79.1294 276.67 92.5343 276.668 106.072Z" stroke="black" stroke-width="4.23" stroke-miterlimit="10"/>
<path d="M222.514 51.2081H171.347C162.705 51.2081 155.7 59.2253 155.7 69.1145V148.21C155.7 158.1 162.705 166.117 171.347 166.117H222.514C231.155 166.117 238.161 158.1 238.161 148.21V69.1145C238.161 59.2253 231.155 51.2081 222.514 51.2081Z" fill="#D4A373"/>
<path d="M197.392 83.0903C200.895 83.0903 203.735 79.8403 203.735 75.8313C203.735 71.8223 200.895 68.5724 197.392 68.5724C193.889 68.5724 191.049 71.8223 191.049 75.8313C191.049 79.8403 193.889 83.0903 197.392 83.0903Z" fill="white"/>
<path d="M179.67 108.662C179.67 103.283 181.537 98.1261 184.86 94.3227C188.183 90.5201 192.69 88.3838 197.39 88.3838C202.09 88.3838 206.597 90.5201 209.92 94.3227C213.243 98.1261 215.11 103.283 215.11 108.662H179.67Z" fill="white"/>
<path d="M212.584 125.974H181.269C176.818 125.974 173.209 130.103 173.209 135.198V139.723C173.209 144.817 176.818 148.948 181.269 148.948H212.584C217.036 148.948 220.644 144.817 220.644 139.723V135.198C220.644 130.103 217.036 125.974 212.584 125.974Z" fill="#FAEDCD"/>
<path d="M129.986 87.8567H80.1816" stroke="white" stroke-width="4.23" stroke-linecap="round" stroke-linejoin="round"/>
<path d="M129.986 101.185H80.1816" stroke="white" stroke-width="4.23" stroke-linecap="round" stroke-linejoin="round"/>
<path d="M129.986 113.082H80.1816" stroke="white" stroke-width="4.23" stroke-linecap="round" stroke-linejoin="round"/>
<path d="M129.986 126.41H80.1816" stroke="white" stroke-width="4.23" stroke-linecap="round" stroke-linejoin="round"/>
<path d="M129.986 75.9593H80.1816" stroke="white" stroke-width="4.23" stroke-linecap="round" stroke-linejoin="round"/>
<path d="M129.986 138.315H80.1816" stroke="white" stroke-width="4.23" stroke-linecap="round" stroke-linejoin="round"/>
<path d="M143.902 224.812C143.902 224.812 120.839 222.26 123.333 195.445C125.827 168.631 130.361 169.843 151.074 158.691C151.074 158.691 167.992 158.601 172.709 164.407C177.427 170.212 180.165 158.714 180.165 158.714C180.165 158.714 202.208 126.983 229.725 133.654C257.243 140.326 208.248 165.581 208.248 165.581C208.248 165.581 176.631 166.078 184.81 179.504C184.81 179.504 189.567 189.602 186.83 198.013C184.093 206.424 184.126 219.918 182.316 220.309C180.507 220.701 153.509 227.433 153.509 227.433L143.902 224.812Z" fill="#FAEDCD"/>
<path d="M359.397 326.528H295.334C284.724 326.546 274.215 324.17 264.408 319.537C254.601 314.904 245.688 308.103 238.18 299.525C238.175 301.314 238.009 303.098 237.686 304.849V256.009C216.63 227.87 192.1 242.184 188.804 244.3C187.343 228.314 186.053 215.686 186.053 215.686C186.053 215.686 182.506 181.394 210.274 168.842C210.498 168.729 210.722 168.631 210.932 168.541C223.928 162.931 235.699 165.702 245.523 171.214C245.688 171.327 245.852 171.402 246.017 171.515C256.393 177.479 264.533 186.447 269.56 191.68C270.093 192.215 270.586 192.735 271.054 193.186C276.225 198.352 289.714 213.608 304.868 225.904L305.118 226.115C316.252 235.098 328.267 242.493 338.525 243.125C338.545 243.17 364.522 273.072 359.397 326.528Z" fill="#2E2E2E"/>
<path d="M354.147 238.758C348.179 241.461 343.053 242.982 338.072 243.17C335.467 243.268 332.861 242.975 330.321 242.297C322.853 240.422 315.022 235.256 304.659 226.13L304.416 225.919C295.473 218.08 284.676 207.305 270.594 193.201C270.127 192.735 269.634 192.215 269.101 191.695C267.725 190.332 266.311 188.924 264.876 187.471C258.942 181.388 252.462 176.039 245.544 171.515C245.38 171.402 245.215 171.327 245.051 171.214C244.393 170.769 243.702 170.37 243.024 169.971C241.501 169.072 239.924 168.294 238.306 167.645C234.342 166.023 230.172 165.16 225.962 165.092L223.376 165.167C190.035 166.289 182.692 175.16 182.692 175.16C186.084 180.455 188.166 186.698 188.719 193.232C185.969 192.719 183.225 193.698 182.751 197.177C182.179 201.447 181.317 205.362 177.849 207.877C175.736 209.291 173.237 209.75 170.842 209.165C170.842 209.165 170.795 209.165 170.776 209.165C170.078 208.932 169.401 208.743 168.802 208.6C168.536 208.529 168.274 208.435 168.019 208.322C161.031 205.408 156.951 206.537 158.28 215.099C159.84 225.166 148.358 226.484 140.791 224.933C127.44 218.058 123.788 191.236 134.369 174.715C134.638 174.294 134.941 173.849 135.25 173.397C135.56 172.946 135.908 172.532 136.218 172.11C137.008 171.129 137.849 170.203 138.738 169.339C139.047 169.038 139.356 168.729 139.679 168.45C140.001 168.172 140.462 167.765 140.85 167.441C141.228 167.097 141.626 166.783 142.041 166.5C145.622 163.805 149.644 161.971 153.864 161.112C158.083 160.252 162.411 160.384 166.584 161.5C169.951 162.869 173.111 164.825 175.954 167.298C175.954 167.298 176.217 166.831 176.75 165.988C177.989 166.826 179.18 167.751 180.317 168.759C180.317 168.759 200.353 133.79 229.41 134.189C231.752 134.212 234.084 134.528 236.365 135.13C259.027 144.302 274.404 177.343 288.268 182.411C289.32 182.794 290.387 183.116 291.466 183.375C302.191 186.003 314.187 183.141 324.833 182.366C331.848 181.854 339.046 182.042 345.83 184.196C346.672 184.459 347.534 184.783 348.376 185.137H348.416C357.891 189.03 367.222 197.667 369.538 209.142C372.137 221.861 363.682 233.758 354.147 238.758Z" fill="#FAEDCD"/>
<path d="M553.027 135.371C552.74 136.708 552.191 137.955 551.424 139.015C550.656 140.075 549.688 140.922 548.592 141.493L530.135 151.56L489.023 168.812L492.971 153.112C494.197 151.055 495.945 149.478 497.979 148.594L533.688 132.939L542.46 129.023C544.202 128.297 546.11 128.281 547.861 128.978C549.613 129.675 551.1 131.042 552.073 132.848C552.503 133.629 552.824 134.479 553.027 135.371Z" fill="#FAEDCD"/>
<path d="M533.709 128.459L542.493 124.505C544.445 123.687 546.598 123.765 548.5 124.724C550.403 125.683 551.907 127.448 552.697 129.649C553.487 131.849 553.502 134.315 552.738 136.527C551.973 138.74 550.49 140.528 548.599 141.516L530.142 151.576L502.704 303.682C501.161 310.236 497.775 316.027 493.067 320.157C488.359 324.287 482.592 326.526 476.66 326.528H294.841C284.232 326.546 273.723 324.17 263.916 319.537C254.109 314.904 245.197 308.103 237.688 299.525" stroke="black" stroke-width="4.23" stroke-miterlimit="10"/>
<path d="M470.318 224.421L469.746 226.228C459.33 258.072 458.139 276.679 458.139 276.679" stroke="black" stroke-width="4.23" stroke-miterlimit="10"/>
<path d="M193.662 305.685L185.563 211.115C185.556 202.137 187.846 193.353 192.15 185.847C196.454 178.34 202.584 172.439 209.783 168.872C215.044 166.2 220.763 164.914 226.516 165.11C232.27 165.305 237.912 166.977 243.026 170.001C243.684 170.401 244.375 170.8 245.052 171.244C245.217 171.364 245.381 171.432 245.546 171.545C252.458 176.065 258.933 181.408 264.865 187.486C266.299 188.939 267.714 190.348 269.089 191.71C269.622 192.245 270.116 192.765 270.583 193.216C284.651 207.32 295.462 218.065 304.404 225.934L304.647 226.145C318.63 238.442 327.987 243.532 338.054 243.155C344.41 242.922 351.036 240.482 359.275 236.303C390.036 220.671 441.735 230.882 459.494 270" stroke="black" stroke-width="4.23" stroke-miterlimit="10"/>
<path d="M214.046 326.482C214.48 326.482 214.888 326.528 215.296 326.528C221.229 326.528 226.92 323.83 231.115 319.029C235.31 314.227 237.668 307.715 237.668 300.926V227.99" stroke="black" stroke-width="4.23" stroke-miterlimit="10"/>
<path d="M188.7 193.232C186.298 165.468 157.82 149.746 137.678 164.979C137.349 165.19 137.02 165.446 136.718 165.732L136.468 165.943C136.079 166.274 135.691 166.605 135.303 166.952C134.065 168.069 132.906 169.295 131.835 170.619C131.506 171.041 131.177 171.485 130.868 171.907C130.559 172.328 130.256 172.803 129.986 173.224" stroke="black" stroke-width="4.23" stroke-miterlimit="10"/>
<path d="M140.836 224.865C144.554 229.108 148.936 232.516 153.752 234.91C173.071 243.826 182.448 226.981 182.448 226.981" stroke="black" stroke-width="4.23" stroke-miterlimit="10"/>
<path d="M348.798 241.04C349.39 240.799 349.989 240.565 350.561 240.354L350.745 240.287C350.9 240.234 351.051 240.171 351.199 240.098C351.706 239.91 352.199 239.699 352.713 239.466L353.68 239.021C363.399 234.15 372.183 222.079 369.564 209.135C367.024 196.635 356.174 187.494 345.876 184.196C339.092 182.042 331.894 181.854 324.879 182.366C313.147 183.209 299.796 186.613 288.294 182.411C272.239 176.545 254.131 133.135 225.074 132.713C196.017 132.291 175.954 167.291 175.954 167.291" stroke="black" stroke-width="4.23" stroke-miterlimit="10"/>
<path d="M182.686 175.175C182.686 175.175 188.7 165.852 224.251 165.099" stroke="black" stroke-width="4.23" stroke-miterlimit="10"/>
<path d="M469.743 226.228L487.378 169.505L488.753 165.069L493.161 150.875C493.498 149.796 493.975 148.78 494.576 147.863C495.805 145.809 497.552 144.233 499.583 143.345L533.707 128.443" stroke="black" stroke-width="4.23" stroke-miterlimit="10"/>
<path d="M452.972 132.713L443.661 150.431L419.361 187.84L416.124 170.822C416.174 168.351 416.876 165.954 418.138 163.947L439.424 129.964L441.72 126.681C442.82 124.969 444.405 123.745 446.204 123.218C448.003 122.691 449.906 122.893 451.59 123.79C452.489 124.263 453.298 124.934 453.972 125.763C454.213 126.94 454.249 128.16 454.077 129.352C453.905 130.544 453.53 131.687 452.972 132.713Z" fill="#FAEDCD"/>
<path d="M473.191 215.189L443.673 150.431L452.971 132.705C453.787 131.205 454.21 129.467 454.188 127.699C454.166 125.932 453.7 124.208 452.846 122.736C452.034 121.326 450.895 120.204 449.556 119.498C447.873 118.604 445.974 118.401 444.176 118.922C442.378 119.443 440.793 120.657 439.686 122.359L437.383 125.672" stroke="black" stroke-width="4.23" stroke-miterlimit="10"/>
<path d="M437.364 125.672L416.078 159.625C414.828 161.648 414.141 164.054 414.104 166.53C414.054 167.682 414.149 168.836 414.387 169.956L417.545 184.572L418.532 189.15L429.218 238.622" stroke="black" stroke-width="4.23" stroke-miterlimit="10"/>
<path d="M137.671 164.964C118.299 178.714 120.517 215.415 136.532 223.487C142.652 226.574 160.22 227.327 158.246 215.023C156.93 206.492 161.003 205.362 167.998 208.246C180.098 213.261 182.658 199.858 182.658 198.932" stroke="black" stroke-width="4.23" stroke-miterlimit="10"/>
<path d="M178.855 231.446L186.771 234.142" stroke="black" stroke-width="4.23" stroke-miterlimit="10"/>
<path d="M116.419 273.456L108.839 291.355C108.309 292.603 107.381 293.57 106.246 294.058C105.111 294.546 103.856 294.516 102.739 293.975C102.123 293.677 101.569 293.233 101.115 292.672C100.66 292.111 100.315 291.445 100.101 290.72C99.8882 289.995 99.8119 289.226 99.877 288.464C99.9428 287.703 100.149 286.966 100.482 286.302L101.956 283.358C102.003 283.206 102.058 283.058 102.121 282.914L103.141 280.557L111.813 260.557C112.863 258.105 114.434 255.993 116.381 254.415C118.328 252.837 120.59 251.841 122.96 251.521H123.157" stroke="black" stroke-width="4.23" stroke-miterlimit="10"/>
<path d="M133.183 272.056L121.997 275.76C121.366 275.97 120.704 276.035 120.052 275.952C119.398 275.869 118.766 275.64 118.19 275.277C117.614 274.914 117.106 274.424 116.696 273.837C116.286 273.249 115.981 272.575 115.799 271.852C115.615 271.13 115.559 270.373 115.631 269.626C115.703 268.878 115.904 268.154 116.221 267.495C116.538 266.836 116.966 266.256 117.479 265.786C117.993 265.317 118.582 264.968 119.214 264.759L135.085 259.488" stroke="black" stroke-width="4.23" stroke-miterlimit="10"/>
<path d="M124.559 274.894C124.98 276.838 124.718 278.893 123.829 280.617C121.737 284.54 116.44 285.888 112.301 285.09" stroke="black" stroke-width="4.23" stroke-miterlimit="10"/>
<path d="M103.127 280.557C98.7972 277.176 97.9155 270.934 99.2512 265.444C104.686 242.726 127.368 248.125 142.416 252.116C151.385 254.554 160.183 257.754 168.736 261.687C175.816 264.925 182.745 269.269 190.371 270.467" stroke="black" stroke-width="4.23" stroke-miterlimit="10"/>
<path d="M123.833 280.625C123.833 280.625 125.392 281.257 128.057 282.454C139.586 287.638 150.554 294.324 160.747 302.379C165.754 306.325 172.209 308.998 179.473 310.782" stroke="black" stroke-width="4.23" stroke-miterlimit="10"/>
<path d="M192.22 293.757C189.856 293.297 187.424 293.753 185.311 295.054C183.199 296.356 181.527 298.428 180.561 300.941C176.395 310.73 182.212 322.318 191.622 323.975C199.459 325.432 207.373 326.285 215.31 326.528" stroke="black" stroke-width="4.23" stroke-miterlimit="10"/>
<path d="M188.825 244.646L188.456 244.556C188.456 244.556 188.574 244.466 188.825 244.3C188.805 244.413 188.825 244.556 188.825 244.646Z" fill="#2E2E2E"/>
<path d="M159.783 315.004L66.5738 294.734C64.2175 294.222 61.9441 295.992 61.4966 298.688L61.0985 301.085C60.6511 303.782 62.1981 306.383 64.5543 306.895L157.763 327.166C160.12 327.679 162.392 325.908 162.84 323.211L163.239 320.815C163.686 318.118 162.139 315.517 159.783 315.004Z" stroke="black" stroke-width="4.23" stroke-miterlimit="10"/>
<path d="M75.958 309.382V326.528" stroke="black" stroke-width="4.23" stroke-miterlimit="10"/>
<path d="M6.53906 326.528H565.721" stroke="black" stroke-width="4.23" stroke-miterlimit="10"/>
</svg>
