<svg width="36" height="35" viewBox="0 0 36 35" fill="none" xmlns="http://www.w3.org/2000/svg">
<path fill-rule="evenodd" clip-rule="evenodd" d="M18.2844 0C8.61567 0 0.784424 7.83125 0.784424 17.5C0.784424 25.2438 5.7938 31.7844 12.75 34.1031C13.625 34.2563 13.9532 33.7313 13.9532 33.2719C13.9532 32.8563 13.9313 31.4781 13.9313 30.0125C9.53442 30.8219 8.39692 28.9406 8.04692 27.9563C7.85005 27.4531 6.99692 25.9 6.25317 25.4844C5.64067 25.1563 4.76567 24.3469 6.2313 24.325C7.60942 24.3031 8.5938 25.5938 8.92192 26.1187C10.4969 28.7656 13.0125 28.0219 14.0188 27.5625C14.1719 26.425 14.6313 25.6594 15.1344 25.2219C11.2407 24.7844 7.17192 23.275 7.17192 16.5813C7.17192 14.6781 7.85005 13.1031 8.96567 11.8781C8.79067 11.4406 8.17817 9.64688 9.14067 7.24063C9.14067 7.24063 10.6063 6.78125 13.9532 9.03438C15.3532 8.64062 16.8407 8.44375 18.3282 8.44375C19.8157 8.44375 21.3032 8.64062 22.7032 9.03438C26.05 6.75938 27.5157 7.24063 27.5157 7.24063C28.4782 9.64688 27.8657 11.4406 27.6907 11.8781C28.8063 13.1031 29.4844 14.6562 29.4844 16.5813C29.4844 23.2969 25.3938 24.7844 21.5 25.2219C22.1344 25.7688 22.6813 26.8188 22.6813 28.4594C22.6813 30.8 22.6594 32.6813 22.6594 33.2719C22.6594 33.7313 22.9875 34.2781 23.8625 34.1031C27.3366 32.9302 30.3553 30.6975 32.4939 27.7191C34.6326 24.7407 35.7834 21.1667 35.7844 17.5C35.7844 7.83125 27.9532 0 18.2844 0Z" fill="black"/>
</svg>
