<svg width="30" height="30" viewBox="0 0 30 30" fill="none" xmlns="http://www.w3.org/2000/svg">
<path d="M28.883 11.7272H27.7083V11.6667H14.5833V17.5H22.8251C21.6227 20.8957 18.3918 23.3333 14.5833 23.3333C9.75115 23.3333 5.83333 19.4155 5.83333 14.5833C5.83333 9.75115 9.75115 5.83333 14.5833 5.83333C16.8139 5.83333 18.8431 6.67479 20.3882 8.04927L24.5131 3.92437C21.9085 1.49698 18.4246 0 14.5833 0C6.52969 0 0 6.52969 0 14.5833C0 22.637 6.52969 29.1667 14.5833 29.1667C22.637 29.1667 29.1667 22.637 29.1667 14.5833C29.1667 13.6055 29.066 12.651 28.883 11.7272Z" fill="#FFC107"/>
<path d="M1.6814 7.79552L6.47275 11.3094C7.76921 8.09958 10.909 5.83333 14.5833 5.83333C16.8138 5.83333 18.8431 6.67479 20.3882 8.04927L24.5131 3.92438C21.9085 1.49698 18.4245 0 14.5833 0C8.98181 0 4.1241 3.1624 1.6814 7.79552Z" fill="#FF3D00"/>
<path d="M14.5832 29.1667C18.35 29.1667 21.7727 27.7251 24.3606 25.3808L19.847 21.5615C18.3337 22.7124 16.4844 23.3348 14.5832 23.3333C10.79 23.3333 7.5693 20.9147 6.35597 17.5394L1.60034 21.2034C4.01388 25.9262 8.91534 29.1667 14.5832 29.1667Z" fill="#4CAF50"/>
<path d="M28.8829 11.7271H27.7083V11.6666H14.5833V17.5H22.825C22.2499 19.1161 21.2138 20.5283 19.8449 21.5621L19.8471 21.5607L24.3606 25.3801C24.0413 25.6703 29.1666 21.875 29.1666 14.5833C29.1666 13.6055 29.066 12.651 28.8829 11.7271Z" fill="#1976D2"/>
</svg>
