<svg width="36" height="35" viewBox="0 0 36 35" fill="none" xmlns="http://www.w3.org/2000/svg">
<path d="M18.2844 0C8.61932 0 0.784424 7.8349 0.784424 17.5C0.784424 27.1651 8.61932 35 18.2844 35C27.9495 35 35.7844 27.1651 35.7844 17.5C35.7844 7.8349 27.9495 0 18.2844 0ZM14.0006 24.7534H10.4568V13.3492H14.0006V24.7534ZM12.2068 11.9492C11.0875 11.9492 10.3639 11.1562 10.3639 10.1755C10.3639 9.17474 11.1094 8.40547 12.2524 8.40547C13.3954 8.40547 14.0954 9.17474 14.1172 10.1755C14.1172 11.1562 13.3954 11.9492 12.2068 11.9492ZM26.9433 24.7534H23.3995V18.4333C23.3995 16.9622 22.8855 15.9633 21.604 15.9633C20.625 15.9633 20.0435 16.6396 19.7865 17.2904C19.6917 17.5219 19.668 17.85 19.668 18.1763V24.7516H16.1224V16.9859C16.1224 15.5622 16.0769 14.3719 16.0295 13.3474H19.1084L19.2706 14.9315H19.3417C19.8084 14.1878 20.9514 13.0904 22.8636 13.0904C25.1951 13.0904 26.9433 14.6526 26.9433 18.0104V24.7534Z" fill="#005AFF"/>
</svg>
