<svg width="548" height="605" viewBox="0 0 548 605" fill="none" xmlns="http://www.w3.org/2000/svg">
<path d="M139.356 235.618L129.399 533.94C128.975 546.488 132.541 558.845 139.587 569.238C146.633 579.631 156.795 587.526 168.615 591.789C199.029 602.739 247.279 611.321 315.613 598.906C388.047 585.746 431.515 554.884 455.826 530.102C464.416 521.338 470.082 510.135 472.046 498.03C474.011 485.925 472.178 473.511 466.799 462.492L335.712 193.724" fill="#FEFFD7"/>
<path d="M240.341 227.83C333.682 207.914 403.912 166.285 397.205 134.848C390.497 103.41 309.392 94.0696 216.051 113.985C122.709 133.9 52.4788 175.529 59.1863 206.967C65.8938 238.404 146.999 247.745 240.341 227.83Z" fill="#262626"/>
<path d="M240.542 228.774C195.297 238.428 151.481 241.568 117.164 237.613C82.5032 233.621 61.5764 222.808 58.2391 207.167C54.9018 191.525 69.5916 173.113 99.6064 155.322C129.322 137.709 170.603 122.689 215.848 113.035C261.093 103.382 304.909 100.243 339.226 104.197C373.886 108.189 394.813 119.002 398.15 134.643C401.488 150.285 386.798 168.697 356.784 186.488C327.068 204.105 285.786 219.121 240.542 228.774ZM216.252 114.93C171.208 124.54 130.133 139.476 100.592 156.986C71.3504 174.319 56.9807 191.998 60.1315 206.765C63.2822 221.533 83.6159 231.807 117.386 235.696C151.5 239.625 195.095 236.496 240.139 226.885C285.183 217.275 326.258 202.339 355.798 184.829C385.04 167.495 399.41 149.817 396.259 135.049C393.108 120.282 372.775 110.008 339.004 106.118C304.89 102.19 261.296 105.319 216.252 114.93Z" fill="#262626"/>
<path d="M235.714 206.145C358.352 179.979 451.942 131.452 444.753 97.7563C437.563 64.0607 332.317 57.9566 209.679 84.1226C87.0412 110.289 -6.54865 158.816 0.640619 192.512C7.82989 226.207 113.076 232.311 235.714 206.145Z" fill="#FFAB36"/>
<path d="M235.916 207.09C176.519 219.763 119.31 225.321 74.8269 222.741C29.9528 220.138 3.27002 209.475 -0.306637 192.711C-3.88329 175.948 16.1243 155.325 56.028 134.632C95.5846 114.121 150.081 95.8465 209.477 83.1738C268.873 70.5011 326.081 64.9423 370.564 67.5225C415.439 70.1251 442.122 80.7893 445.698 97.552C449.274 114.315 429.267 134.938 389.363 155.631C349.807 176.142 295.311 194.418 235.916 207.09ZM209.881 85.0673C150.65 97.7048 96.3268 115.918 56.9193 136.351C37.8095 146.259 23.2718 156.141 13.7078 165.722C3.97927 175.468 -0.0990367 184.414 1.58572 192.31C3.27048 200.206 10.6447 206.709 23.5037 211.635C36.1452 216.478 53.4501 219.566 74.9399 220.813C119.256 223.384 176.278 217.839 235.512 205.201C294.747 192.562 349.066 174.351 388.473 153.918C407.583 144.009 422.121 134.127 431.685 124.546C441.413 114.8 445.491 105.854 443.807 97.9581C442.122 90.0617 434.748 83.5601 421.889 78.633C409.247 73.79 391.942 70.702 370.453 69.4561C326.137 66.8862 269.112 72.4332 209.882 85.0706L209.881 85.0673Z" fill="#262626"/>
<path d="M317.28 87.7754C323.035 114.747 277.585 131.087 229.022 142.656C176.112 155.259 118.608 157.932 112.941 131.373C107.254 104.343 112.531 76.1588 127.613 52.9982C142.696 29.8375 166.355 13.5908 193.402 7.81999C220.45 2.04915 248.679 7.22506 271.901 22.213C295.124 37.2009 311.444 60.7778 317.284 87.7747L317.28 87.7754Z" fill="white"/>
<path d="M302.88 85.2652C302.634 85.3175 302.378 85.2723 302.165 85.1391C301.952 85.0059 301.8 84.7952 301.74 84.5515C299.387 74.9309 295.431 65.775 290.037 57.4669C289.897 57.252 289.849 56.9905 289.902 56.7399C289.955 56.4893 290.106 56.2701 290.322 56.1305C290.537 55.991 290.799 55.9425 291.049 55.9957C291.3 56.0489 291.52 56.1996 291.659 56.4144C297.171 64.9042 301.213 74.2598 303.618 84.0901C303.68 84.3388 303.639 84.6016 303.507 84.8207C303.374 85.0398 303.159 85.1974 302.91 85.2588L302.88 85.2652Z" fill="#262626"/>
<path d="M279.141 43.2339C278.984 43.2678 278.82 43.2618 278.666 43.2164C278.511 43.171 278.37 43.0877 278.256 42.974C261.714 26.6074 239.425 17.3412 216.136 17.1486C215.884 17.1406 215.646 17.0348 215.471 16.8537C215.296 16.6727 215.199 16.4307 215.2 16.1791C215.202 15.9276 215.301 15.6863 215.477 15.5067C215.654 15.3271 215.893 15.2233 216.145 15.2173C239.942 15.4134 262.717 24.881 279.62 41.6041C279.744 41.7266 279.832 41.8803 279.875 42.0487C279.918 42.2172 279.915 42.3942 279.866 42.5611C279.817 42.728 279.724 42.8787 279.596 42.9971C279.469 43.1155 279.311 43.1973 279.141 43.2339Z" fill="#262626"/>
<path d="M219.341 145.83C174.169 155.468 138.16 155.218 121.884 144.958C116.489 141.556 113.162 137.053 111.993 131.575C109.064 118.034 108.839 104.048 111.331 90.4177C113.823 76.7874 118.983 63.7807 126.515 52.1431C134.047 40.5054 143.803 30.4655 155.225 22.5985C166.646 14.7315 179.508 9.19211 193.074 6.2977C206.64 3.40329 220.643 3.21076 234.281 5.73114C247.919 8.25152 260.923 13.4353 272.549 20.9854C284.175 28.5355 294.194 38.3036 302.032 49.7299C309.87 61.1562 315.373 74.0162 318.225 87.5731C320.94 100.296 312.781 111.826 293.975 121.843C279.504 129.551 258.331 136.666 229.245 143.594C225.899 144.39 222.598 145.135 219.341 145.83ZM193.537 8.47581C166.706 14.232 143.251 30.3826 128.318 53.3842C113.385 76.3859 108.193 104.36 113.881 131.17C114.937 136.121 117.976 140.209 122.914 143.323C139.93 154.056 179.507 153.453 228.795 141.716C269.242 132.082 322.324 116.028 316.339 87.9765C310.59 61.179 294.432 37.7591 271.41 22.8553C248.389 7.95143 220.384 2.78077 193.54 8.47773L193.537 8.47581Z" fill="#262626"/>
<path d="M59.1013 188.576C66.4287 187.013 71.103 179.813 69.5416 172.495C67.9802 165.177 60.7744 160.512 53.4471 162.075C46.1197 163.639 41.4454 170.839 43.0068 178.157C44.5682 185.475 51.774 190.14 59.1013 188.576Z" fill="white"/>
<path d="M59.3029 189.521C56.4918 190.121 53.5662 189.875 50.896 188.814C48.2259 187.753 45.9311 185.924 44.3019 183.56C42.6727 181.196 41.7823 178.401 41.7432 175.531C41.7041 172.66 42.5181 169.842 44.0823 167.433C45.6465 165.023 47.8906 163.131 50.5309 161.995C53.1711 160.859 56.0889 160.53 58.9153 161.051C61.7417 161.571 64.3497 162.917 66.4095 164.918C68.4694 166.919 69.8885 169.486 70.4876 172.293C71.2862 176.058 70.5572 179.986 68.4604 183.215C66.3636 186.445 63.0703 188.713 59.3029 189.521ZM53.6485 163.019C51.2114 163.539 48.983 164.769 47.2451 166.554C45.5073 168.338 44.338 170.598 43.8851 173.045C43.4323 175.493 43.7162 178.02 44.701 180.305C45.6858 182.591 47.3272 184.534 49.4178 185.887C51.5083 187.241 53.954 187.944 56.4456 187.909C58.9372 187.874 61.3628 187.102 63.4157 185.69C65.4685 184.278 67.0565 182.29 67.9786 179.977C68.9008 177.664 69.1159 175.131 68.5965 172.697C67.8971 169.435 65.9304 166.583 63.1279 164.769C60.3255 162.955 56.9163 162.325 53.6485 163.019Z" fill="#262626"/>
<path d="M232.535 191.248C239.863 189.685 244.537 182.485 242.976 175.167C241.414 167.849 234.209 163.184 226.881 164.747C219.554 166.311 214.88 173.51 216.441 180.828C218.002 188.147 225.208 192.812 232.535 191.248Z" fill="white"/>
<path d="M232.737 192.193C229.926 192.793 227 192.547 224.33 191.486C221.66 190.424 219.365 188.596 217.736 186.232C216.107 183.867 215.216 181.073 215.177 178.203C215.138 175.332 215.952 172.514 217.516 170.104C219.081 167.695 221.325 165.803 223.965 164.667C226.605 163.531 229.523 163.202 232.349 163.722C235.176 164.243 237.784 165.589 239.844 167.59C241.903 169.591 243.323 172.158 243.922 174.965C244.72 178.73 243.991 182.658 241.894 185.887C239.798 189.117 236.504 191.385 232.737 192.193ZM227.083 165.692C224.646 166.212 222.418 167.442 220.68 169.226C218.942 171.011 217.773 173.27 217.32 175.717C216.867 178.165 217.151 180.691 218.136 182.977C219.121 185.263 220.762 187.205 222.852 188.558C224.943 189.912 227.388 190.615 229.88 190.58C232.371 190.545 234.797 189.773 236.849 188.361C238.902 186.949 240.49 184.961 241.412 182.649C242.334 180.336 242.549 177.803 242.03 175.369C241.33 172.107 239.364 169.256 236.561 167.442C233.759 165.628 230.35 164.998 227.083 165.692Z" fill="#262626"/>
<path d="M389.747 118.03C397.074 116.467 401.749 109.267 400.187 101.949C398.626 94.6309 391.42 89.9658 384.093 91.5291C376.765 93.0925 372.091 100.292 373.653 107.61C375.214 114.929 382.42 119.594 389.747 118.03Z" fill="white"/>
<path d="M389.949 118.975C387.138 119.575 384.212 119.329 381.542 118.268C378.872 117.206 376.577 115.378 374.948 113.014C373.318 110.649 372.428 107.855 372.389 104.985C372.35 102.114 373.164 99.2958 374.728 96.8865C376.292 94.4771 378.536 92.5848 381.177 91.4488C383.817 90.3128 386.735 89.9842 389.561 90.5045C392.387 91.0248 394.995 92.3706 397.055 94.3718C399.115 96.373 400.534 98.9396 401.133 101.747C401.932 105.512 401.203 109.44 399.106 112.669C397.009 115.899 393.716 118.167 389.949 118.975ZM384.294 92.473C381.857 92.993 379.629 94.2231 377.891 96.0077C376.153 97.7923 374.984 100.051 374.531 102.499C374.078 104.947 374.362 107.473 375.347 109.759C376.332 112.045 377.973 113.987 380.064 115.341C382.154 116.694 384.6 117.398 387.091 117.363C389.583 117.328 392.009 116.555 394.061 115.144C396.114 113.732 397.702 111.744 398.624 109.431C399.547 107.118 399.762 104.585 399.242 102.151C398.543 98.8884 396.576 96.0373 393.774 94.2229C390.971 92.4085 387.562 91.7792 384.294 92.473Z" fill="#262626"/>
<path d="M324.508 157.771C331.835 156.208 336.509 149.008 334.948 141.69C333.387 134.372 326.181 129.707 318.854 131.27C311.526 132.833 306.852 140.033 308.413 147.351C309.975 154.67 317.18 159.335 324.508 157.771Z" fill="white"/>
<path d="M324.709 158.716C321.898 159.316 318.973 159.07 316.303 158.008C313.632 156.947 311.338 155.119 309.708 152.755C308.079 150.39 307.189 147.596 307.15 144.726C307.111 141.855 307.925 139.037 309.489 136.627C311.053 134.218 313.297 132.326 315.937 131.19C318.578 130.054 321.495 129.725 324.322 130.245C327.148 130.766 329.756 132.112 331.816 134.113C333.876 136.114 335.295 138.681 335.894 141.488C336.693 145.253 335.964 149.181 333.867 152.41C331.77 155.64 328.477 157.908 324.709 158.716ZM319.055 132.214C316.618 132.734 314.389 133.964 312.651 135.748C310.913 137.533 309.744 139.792 309.291 142.24C308.838 144.687 309.122 147.214 310.106 149.5C311.091 151.786 312.733 153.728 314.823 155.082C316.914 156.435 319.359 157.139 321.851 157.104C324.343 157.069 326.768 156.297 328.821 154.885C330.874 153.473 332.462 151.485 333.384 149.172C334.307 146.859 334.522 144.326 334.002 141.892C333.303 138.63 331.336 135.779 328.534 133.964C325.732 132.15 322.323 131.52 319.055 132.214Z" fill="#262626"/>
<path d="M135.293 200.028C142.62 198.465 147.294 191.265 145.733 183.947C144.172 176.628 136.966 171.963 129.638 173.527C122.311 175.09 117.637 182.29 119.198 189.608C120.76 196.926 127.965 201.591 135.293 200.028Z" fill="white"/>
<path d="M135.495 200.973C132.683 201.573 129.758 201.327 127.088 200.266C124.418 199.205 122.123 197.376 120.494 195.012C118.864 192.648 117.974 189.854 117.935 186.983C117.896 184.112 118.71 181.294 120.274 178.885C121.838 176.475 124.082 174.583 126.723 173.447C129.363 172.311 132.281 171.982 135.107 172.503C137.933 173.023 140.541 174.369 142.601 176.37C144.661 178.371 146.08 180.938 146.679 183.745C147.478 187.51 146.749 191.438 144.652 194.668C142.555 197.897 139.262 200.165 135.495 200.973ZM129.84 174.471C127.403 174.991 125.174 176.22 123.435 178.004C121.697 179.789 120.527 182.048 120.073 184.495C119.62 186.943 119.903 189.47 120.888 191.756C121.872 194.042 123.513 195.985 125.604 197.339C127.694 198.693 130.14 199.397 132.632 199.362C135.124 199.327 137.55 198.555 139.603 197.143C141.656 195.731 143.244 193.743 144.166 191.43C145.089 189.117 145.303 186.583 144.784 184.149C144.084 180.888 142.118 178.037 139.317 176.223C136.515 174.409 133.107 173.779 129.84 174.471Z" fill="#262626"/>
<path d="M353.308 67.912C352.957 71.1139 351.477 74.0871 349.131 76.2985C346.785 78.5099 343.728 79.815 340.508 79.9798C337.288 80.1447 334.114 79.1585 331.557 77.1981C328.999 75.2377 327.225 72.4312 326.552 69.2816C326.489 68.9855 326.439 68.6933 326.396 68.3996C335.78 67.978 344.77 67.8111 353.308 67.912Z" fill="white"/>
<path d="M342.847 80.6447C339.077 81.445 335.145 80.7192 331.912 78.6264C328.68 76.5335 326.411 73.2448 325.605 69.4819C325.537 69.1653 325.484 68.8517 325.438 68.5373L325.284 67.4809L326.352 67.4331C335.788 67.009 344.861 66.8447 353.321 66.9436L354.386 66.9568L354.27 68.0145C353.942 71.0531 352.66 73.9108 350.608 76.1791C348.557 78.4475 345.84 80.0104 342.847 80.6447ZM327.55 69.3149C328.206 72.1182 329.803 74.6118 332.077 76.38C334.351 78.1482 337.163 79.084 340.045 79.0314C342.927 78.9788 345.704 77.9409 347.913 76.0909C350.123 74.2409 351.631 71.6905 352.186 68.8652C344.417 68.7955 336.14 68.9467 327.55 69.3149Z" fill="#262626"/>
<path d="M95.5006 118.578C96.1661 121.702 95.7059 124.96 94.201 127.779C92.6962 130.597 90.2434 132.795 87.2754 133.984C84.3074 135.173 81.0149 135.277 77.9786 134.278C74.9424 133.279 72.3575 131.241 70.6799 128.523C78.3994 124.94 86.6373 121.404 95.3461 117.946C95.4027 118.151 95.4548 118.364 95.5006 118.578Z" fill="white"/>
<path d="M85.2623 135.603C82.3283 136.224 79.2742 135.927 76.5166 134.751C73.7591 133.574 71.4323 131.577 69.8539 129.031L69.2824 128.105L70.2701 127.647C78.0278 124.046 86.3438 120.481 94.9865 117.05L95.9879 116.652L96.2757 117.688C96.3379 117.912 96.3942 118.144 96.444 118.377C97.2425 122.141 96.5138 126.068 94.4176 129.297C92.3214 132.526 89.0289 134.794 85.2623 135.603ZM72.1185 128.921C73.8088 131.191 76.216 132.826 78.9515 133.561C81.6869 134.296 84.5911 134.089 87.195 132.972C89.799 131.856 91.9508 129.896 93.3031 127.409C94.6555 124.921 95.1294 122.052 94.6484 119.263C86.7977 122.4 79.2296 125.644 72.1185 128.921Z" fill="#262626"/>
<path d="M331.073 551.946L195.067 508.821L253.815 324.242L347.86 354.062L376.479 409.287L331.073 551.946Z" fill="white"/>
<path opacity="0.3" d="M333.259 465.784C337.249 464.933 339.794 461.012 338.944 457.028C338.094 453.043 334.17 450.503 330.18 451.354C326.19 452.205 323.645 456.126 324.495 460.11C325.345 464.095 329.269 466.635 333.259 465.784Z" fill="#FFAB36"/>
<path opacity="0.3" d="M248.911 444.049C252.901 443.198 255.446 439.277 254.596 435.292C253.746 431.308 249.822 428.767 245.832 429.619C241.843 430.47 239.297 434.39 240.148 438.375C240.998 442.36 244.921 444.9 248.911 444.049Z" fill="#FFAB36"/>
<path d="M331.701 553.159L193.852 509.449L253.186 323.029L348.535 353.267L377.522 409.201L331.701 553.159ZM196.281 508.192L330.443 550.733L375.439 409.375L347.188 354.861L254.444 325.456L196.281 508.192Z" fill="#262626"/>
<path opacity="0.3" d="M347.86 354.062L334.518 395.982L376.479 409.287L347.86 354.062Z" fill="#FFAB36"/>
<path d="M376.68 410.231C376.516 410.266 376.345 410.258 376.185 410.208L334.224 396.903C333.98 396.825 333.776 396.654 333.658 396.426C333.541 396.198 333.518 395.933 333.596 395.689L346.938 353.768C346.996 353.585 347.106 353.424 347.256 353.305C347.405 353.186 347.587 353.113 347.777 353.097C347.968 353.081 348.159 353.121 348.326 353.214C348.494 353.306 348.63 353.446 348.718 353.616L377.336 408.837C377.405 408.969 377.441 409.115 377.444 409.264C377.447 409.412 377.415 409.56 377.351 409.694C377.287 409.828 377.194 409.946 377.077 410.038C376.96 410.13 376.824 410.195 376.679 410.226L376.68 410.231ZM335.732 395.354L374.546 407.661L348.074 356.577L335.732 395.354Z" fill="#292A2E"/>
<path d="M269.627 422.16C272.776 421.488 274.785 418.394 274.114 415.249C273.443 412.104 270.346 410.099 267.198 410.771C264.049 411.443 262.04 414.537 262.711 417.682C263.382 420.827 266.479 422.832 269.627 422.16Z" fill="#292A2E"/>
<path d="M328.29 435.036C331.438 434.364 333.447 431.27 332.776 428.125C332.105 424.98 329.009 422.975 325.86 423.647C322.711 424.319 320.702 427.413 321.373 430.558C322.044 433.703 325.141 435.708 328.29 435.036Z" fill="#292A2E"/>
<path d="M311.509 475.132C311.262 475.185 311.005 475.139 310.792 475.005C310.579 474.871 310.427 474.66 310.368 474.415C309.277 469.887 307.047 465.712 303.889 462.287C300.73 458.861 296.748 456.298 292.32 454.84C287.892 453.382 283.163 453.078 278.583 453.956C274.003 454.834 269.722 456.865 266.146 459.857C266.049 459.942 265.936 460.007 265.814 460.048C265.692 460.088 265.562 460.104 265.434 460.094C265.305 460.084 265.18 460.049 265.066 459.99C264.951 459.931 264.849 459.85 264.767 459.751C264.684 459.652 264.622 459.538 264.584 459.415C264.546 459.292 264.534 459.162 264.547 459.034C264.56 458.906 264.598 458.782 264.66 458.669C264.722 458.556 264.805 458.456 264.906 458.376C268.735 455.174 273.317 453.001 278.22 452.062C283.123 451.122 288.184 451.449 292.925 453.009C297.665 454.57 301.928 457.313 305.309 460.979C308.69 464.645 311.079 469.114 312.248 473.96C312.308 474.209 312.266 474.472 312.133 474.691C311.999 474.909 311.784 475.066 311.535 475.127L311.509 475.132Z" fill="#292A2E"/>
<path d="M272.13 409.581C269.051 410.197 265.86 409.925 262.93 408.795C262.697 408.693 262.513 408.502 262.42 408.265C262.326 408.028 262.33 407.764 262.431 407.53C262.531 407.296 262.721 407.111 262.957 407.015C263.193 406.92 263.458 406.921 263.693 407.019C263.78 407.056 270.14 409.676 275.836 405.988C276.051 405.856 276.309 405.813 276.555 405.868C276.802 405.924 277.016 406.074 277.154 406.285C277.291 406.497 277.34 406.754 277.29 407.001C277.24 407.248 277.095 407.466 276.887 407.609C275.436 408.552 273.823 409.22 272.13 409.581Z" fill="#292A2E"/>
<path d="M336.324 424.269C336.218 424.292 336.109 424.296 336.001 424.283C327.435 423.211 325.219 417.262 325.128 417.009C325.042 416.767 325.055 416.501 325.164 416.269C325.274 416.037 325.472 415.858 325.714 415.771C325.956 415.684 326.222 415.697 326.455 415.807C326.687 415.916 326.866 416.114 326.953 416.355C327.033 416.572 328.917 421.446 336.247 422.365C336.474 422.394 336.683 422.502 336.837 422.67C336.992 422.838 337.082 423.055 337.091 423.282C337.101 423.51 337.03 423.734 336.89 423.915C336.75 424.095 336.551 424.22 336.328 424.268L336.324 424.269Z" fill="#292A2E"/>
<path d="M461.224 323.132C460.973 323.185 460.712 323.137 460.496 322.998C460.281 322.858 460.13 322.639 460.077 322.389L451.427 281.847C451.373 281.597 451.422 281.335 451.561 281.12C451.701 280.905 451.92 280.754 452.171 280.701C452.422 280.647 452.684 280.695 452.899 280.835C453.114 280.974 453.265 281.193 453.319 281.443L461.969 321.985C462.022 322.235 461.973 322.497 461.834 322.712C461.694 322.927 461.475 323.078 461.224 323.132Z" fill="#262626"/>
<path d="M470.147 300.034L443.656 305.686C443.406 305.74 443.144 305.692 442.928 305.552C442.713 305.413 442.562 305.194 442.509 304.943C442.455 304.693 442.504 304.431 442.643 304.216C442.783 304.001 443.002 303.85 443.253 303.797L469.744 298.145C469.995 298.091 470.257 298.139 470.472 298.279C470.687 298.418 470.838 298.637 470.891 298.888C470.945 299.138 470.896 299.4 470.757 299.615C470.617 299.83 470.398 299.981 470.147 300.034Z" fill="#262626"/>
<path d="M498.354 181.204C498.23 181.231 498.102 181.233 497.977 181.21C497.852 181.187 497.733 181.14 497.626 181.071C497.519 181.002 497.428 180.912 497.356 180.808C497.284 180.703 497.233 180.585 497.207 180.461L492.882 160.191C492.828 159.94 492.877 159.678 493.016 159.463C493.156 159.248 493.375 159.098 493.626 159.044C493.877 158.991 494.139 159.039 494.354 159.178C494.569 159.317 494.72 159.536 494.774 159.787L499.099 180.058C499.125 180.182 499.127 180.31 499.104 180.435C499.081 180.559 499.033 180.679 498.964 180.785C498.895 180.892 498.806 180.983 498.701 181.055C498.596 181.127 498.478 181.178 498.354 181.204Z" fill="#262626"/>
<path d="M502.815 169.656L489.569 172.482C489.445 172.509 489.317 172.51 489.192 172.487C489.067 172.464 488.948 172.417 488.842 172.348C488.735 172.279 488.643 172.19 488.571 172.085C488.499 171.981 488.448 171.863 488.422 171.739C488.396 171.615 488.394 171.487 488.417 171.362C488.44 171.237 488.487 171.118 488.557 171.012C488.626 170.906 488.715 170.814 488.82 170.742C488.924 170.67 489.042 170.619 489.166 170.593L502.412 167.767C502.663 167.713 502.924 167.761 503.14 167.901C503.355 168.04 503.506 168.259 503.559 168.509C503.613 168.76 503.564 169.022 503.425 169.237C503.285 169.452 503.066 169.603 502.815 169.656Z" fill="#262626"/>
<path d="M80.2962 507.775C80.1719 507.802 80.0437 507.804 79.9188 507.781C79.7938 507.758 79.6747 507.711 79.5681 507.642C79.4615 507.573 79.3696 507.483 79.2977 507.379C79.2257 507.274 79.1751 507.157 79.1487 507.032L74.8238 486.762C74.7703 486.511 74.8187 486.25 74.9583 486.034C75.0979 485.819 75.3172 485.669 75.5681 485.615C75.819 485.562 76.0808 485.61 76.296 485.749C76.5112 485.888 76.6621 486.107 76.7156 486.358L81.0405 506.629C81.0671 506.753 81.0689 506.881 81.0459 507.006C81.0229 507.131 80.9754 507.25 80.9063 507.356C80.8372 507.463 80.7477 507.554 80.643 507.626C80.5383 507.698 80.4204 507.749 80.2962 507.775Z" fill="#262626"/>
<path d="M84.757 496.227L71.5116 499.053C71.3874 499.08 71.2592 499.081 71.1343 499.058C71.0094 499.035 70.8903 498.988 70.7837 498.919C70.6772 498.85 70.5853 498.761 70.5133 498.656C70.4413 498.552 70.3906 498.434 70.3642 498.31C70.3377 498.186 70.3359 498.058 70.359 497.933C70.3821 497.809 70.4296 497.69 70.4987 497.583C70.5678 497.477 70.6572 497.385 70.7619 497.313C70.8665 497.241 70.9843 497.19 71.1085 497.164L84.3538 494.338C84.6047 494.284 84.8666 494.332 85.0818 494.472C85.297 494.611 85.4479 494.83 85.5013 495.081C85.5548 495.331 85.5064 495.593 85.3668 495.808C85.2272 496.023 85.0078 496.174 84.757 496.227Z" fill="#262626"/>
</svg>
