<svg width="454" height="430" viewBox="0 0 454 430" fill="none" xmlns="http://www.w3.org/2000/svg">
<path d="M66.251 194.746C82.6402 172.85 107.202 162.926 107.202 162.926C108.003 162.607 104.587 132.609 104.517 130.481C103.481 95.4383 109.562 58.9767 137.121 33.6725C171.573 2.06125 234.082 -4.48851 273.603 22.1437C273.105 21.7914 286.606 11.6193 287.746 10.9672C295.123 6.71225 303.446 4.18264 312.039 3.58445C346.62 1.20445 378.333 27.1752 391.306 58.5912C404.278 90.0072 401.3 161.588 377.501 182.232" stroke="#D4A373" stroke-width="5.05" stroke-miterlimit="10"/>
<path d="M51.4746 232.731C52.3267 224.107 54.6464 215.674 58.342 207.765C58.6941 207.013 59.0626 206.276 59.4476 205.556" stroke="#D4A373" stroke-width="5.05" stroke-miterlimit="10"/>
<path d="M94.2128 323.856C90.2288 320.396 86.5386 316.874 83.1572 313.332" stroke="#CCDDE2" stroke-width="5.05" stroke-miterlimit="10"/>
<path d="M426.2 220.94C426.23 223.32 426.2 225.748 426.08 228.18C425.373 243.227 422.002 258.778 413.576 271.449C412.042 273.787 410.331 276.014 408.456 278.113C390.528 275.852 387.854 258.373 367.122 248.491C342.287 236.625 301.62 240.875 301.62 240.875L321.655 223.211C320.584 170.013 279.723 173.279 279.723 173.279L277.646 178.139C279.224 173.737 280.819 169.632 282.432 165.824L282.522 165.625C301.446 120.7 321.052 115.13 336.306 108.643C339.95 107.815 343.681 107.39 347.426 107.376C386.425 107.176 409.313 145.137 419.323 175.697C421.813 183.313 425.642 199.601 426.155 217.918C426.165 218.898 426.2 219.922 426.2 220.94Z" fill="#2E2E2E"/>
<path d="M448.112 420.327C445.084 424.311 440.089 426.482 434.94 426.482H375.777C373.504 426.513 371.249 426.089 369.157 425.237C367.065 424.385 365.183 423.125 363.631 421.536C363.601 421.536 363.631 421.536 363.631 421.536C363.421 421.333 363.224 421.117 363.044 420.889C361.19 418.694 360.03 416.038 359.702 413.235C359.403 410.66 361.405 408.37 364.114 408.475C365.141 408.513 366.118 408.905 366.865 409.579C367.612 410.253 368.079 411.162 368.178 412.14C368.178 412.345 368.223 412.545 368.253 412.745C368.472 413.906 369.006 414.993 369.801 415.896C370.505 416.691 371.389 417.322 372.385 417.744C373.381 418.165 374.465 418.365 375.553 418.328H435.194C436.262 418.345 437.32 418.142 438.298 417.731C439.275 417.32 440.148 416.712 440.856 415.948C441.654 415.065 442.199 413.998 442.437 412.854C442.674 411.709 442.596 410.525 442.211 409.417L415.573 333.71C415.355 333.129 415.098 332.562 414.801 332.015C413.237 328.858 410.758 326.196 407.659 324.344C404.56 322.493 400.97 321.531 397.316 321.572C386.101 321.7 371.863 321.729 370.524 321.729C340.678 321.624 327.098 321.624 319.628 321.814C320.14 320.06 321.067 318.441 322.337 317.083C322.337 317.083 322.367 317.054 322.367 317.04C324.189 315.184 326.682 314.062 329.339 313.903C340.404 313.037 351.361 311.457 362.003 308.696C380.782 303.831 398.695 295.487 411.14 282.068C417.198 275.573 421.777 267.945 424.586 259.668C426.767 253.096 428.14 246.304 428.68 239.428C428.873 237.258 428.992 235.071 429.039 232.869V232.769C429.039 232.265 429.068 231.746 429.068 231.241C429.136 228.104 428.986 224.967 428.62 221.85C431.872 221.874 434.987 223.106 437.305 225.286C437.509 225.799 437.659 226.33 437.754 226.871C437.844 227.384 437.888 227.903 437.888 228.423V289.994C437.893 294.199 437.025 298.364 435.333 302.246C433.641 306.128 431.16 309.65 428.033 312.609C422.853 317.511 421.379 324.951 423.834 331.496L450.308 406.79C451.108 409.049 451.326 411.459 450.944 413.815C450.562 416.172 449.59 418.406 448.112 420.327Z" fill="#FAEDCD"/>
<path d="M83.1641 418.428V245.816H94.2147V418.5L83.1641 418.428Z" fill="#2E2E2E"/>
<path d="M301.626 240.852C309.539 240.047 318.692 239.095 327.482 239.286" stroke="black" stroke-width="5.05" stroke-miterlimit="10"/>
<path d="M258.519 248.477C244.505 251.857 230.87 256.736 219.236 264.847C199.715 278.441 190.791 303.803 198.769 325.775C198.769 325.803 230.143 412.307 230.143 412.307H221.886C220.106 412.306 218.344 412.642 216.701 413.296C215.059 413.949 213.567 414.908 212.314 416.115C209.859 418.447 208.649 422.336 208.649 425.906H282.965L254.724 337.608C254.019 335.432 253.861 333.127 254.261 330.881C254.662 328.635 255.61 326.511 257.029 324.68C258.447 322.85 260.297 321.364 262.428 320.344C264.559 319.323 266.911 318.796 269.295 318.806C285.386 319.239 300.331 319.829 316.605 319.154" stroke="black" stroke-width="5.05" stroke-miterlimit="10"/>
<path d="M426.315 228.899V228.804C425.593 210.24 424.617 191.924 419.303 175.682C409.293 145.123 386.405 107.162 347.407 107.362C343.661 107.376 339.93 107.801 336.286 108.628C310.58 114.469 292.726 139.644 282.502 165.61L282.413 165.81C281.437 168.301 280.533 170.786 279.704 173.264C279.141 174.932 278.447 176.557 277.627 178.124C274.495 184.157 269.53 189.145 263.383 192.436C257.236 195.727 250.193 197.168 243.175 196.569C195.965 192.466 133.745 190.124 114.148 221.831" stroke="black" stroke-width="5.05" stroke-miterlimit="10"/>
<path d="M349.06 194.37C342.187 202.3 334.951 209.959 327.472 217.366C312.158 232.541 298.946 248.658 275.182 249.734C256.223 250.605 238.175 243.65 220.247 238.829C201.069 233.673 191.363 229.551 173.49 224.344C168.342 222.85 163.002 222.049 157.624 221.964L139.631 222.097" stroke="black" stroke-width="5.05" stroke-miterlimit="10"/>
<path d="M278.881 413.421C280.594 412.686 282.451 412.31 284.329 412.316H292.606C292.606 412.316 275.305 380.172 261.471 358.776" stroke="black" stroke-width="5.05" stroke-miterlimit="10"/>
<path d="M290.247 319.225L348.115 426.482H282.657H270.785" stroke="black" stroke-width="5.05" stroke-miterlimit="10"/>
<path d="M448.112 420.327C445.084 424.311 440.09 426.482 434.94 426.482H375.778C370.872 426.482 366.087 424.54 363.029 420.875C361.175 418.679 360.016 416.024 359.687 413.221C359.389 410.646 361.391 408.356 364.1 408.461C365.126 408.498 366.104 408.891 366.851 409.565C367.598 410.239 368.064 411.148 368.163 412.126C368.284 413.508 368.852 414.821 369.787 415.882C370.501 416.664 371.386 417.288 372.38 417.708C373.374 418.128 374.452 418.335 375.539 418.314H435.194C436.262 418.331 437.321 418.128 438.298 417.717C439.275 417.306 440.148 416.698 440.856 415.934C441.655 415.05 442.2 413.984 442.437 412.839C442.674 411.695 442.596 410.51 442.211 409.403L415.573 333.71C414.224 330.125 411.742 327.031 408.47 324.857C405.199 322.682 401.301 321.534 397.316 321.572C386.101 321.7 371.864 321.729 370.524 321.729C337.292 321.629 324.21 321.629 317.278 321.872C317.17 321.871 317.063 321.85 316.964 321.81C316.864 321.77 316.774 321.711 316.698 321.638C316.622 321.564 316.562 321.478 316.522 321.382C316.481 321.287 316.46 321.184 316.461 321.081C316.451 318.143 317.579 315.304 319.628 313.113C319.636 313.107 319.643 313.1 319.648 313.092C319.653 313.084 319.657 313.075 319.658 313.066C321.482 311.214 323.974 310.094 326.63 309.933C337.696 309.067 348.652 307.487 359.294 304.726C378.074 299.861 395.987 291.517 408.432 278.099C414.489 271.603 419.068 263.975 421.878 255.698C424.052 249.128 425.42 242.34 425.956 235.468C426.152 233.291 426.272 231.104 426.315 228.909V228.804C426.315 228.304 426.345 227.785 426.345 227.281C426.412 224.144 426.263 221.007 425.897 217.889C431.315 217.861 436.778 221.626 437.724 226.881C437.814 227.394 437.859 227.912 437.858 228.433V289.994C437.863 294.199 436.995 298.364 435.303 302.246C433.612 306.128 431.13 309.65 428.003 312.609C422.824 317.511 421.35 324.951 423.805 331.496L450.279 406.79C451.082 409.047 451.305 411.455 450.928 413.812C450.551 416.169 449.585 418.403 448.112 420.327Z" stroke="black" stroke-width="5.05" stroke-miterlimit="10"/>
<path d="M163.874 232.736H9.73793C5.96165 232.736 2.90039 235.662 2.90039 239.271V239.276C2.90039 242.886 5.96165 245.811 9.73793 245.811H163.874C167.65 245.811 170.711 242.886 170.711 239.276V239.271C170.711 235.662 167.65 232.736 163.874 232.736Z" stroke="black" stroke-width="5.05" stroke-miterlimit="10"/>
<path d="M120.224 419.247H57.899C55.784 419.247 54.0693 420.886 54.0693 422.907C54.0693 424.929 55.784 426.568 57.899 426.568H120.224C122.339 426.568 124.053 424.929 124.053 422.907C124.053 420.886 122.339 419.247 120.224 419.247Z" stroke="black" stroke-width="5.05" stroke-miterlimit="10"/>
<path d="M74.542 226.867V227.524C74.6416 232.041 79.0887 232.731 82.9233 232.76L157.056 232.712C160.303 232.712 162.982 230.332 162.987 227.409V227.286C162.927 224.43 160.318 222.102 157.11 222.097C157.11 222.097 115.637 221.954 83.516 221.864C82.9383 223.473 81.4742 224.72 79.6465 225.739C78.0743 226.526 76.3169 226.915 74.542 226.867Z" stroke="black" stroke-width="5.05" stroke-miterlimit="10"/>
<path d="M33.7762 163.225C33.7916 163.978 34.0167 164.712 34.4286 165.353L68.7906 220.517C69.2353 221.18 69.8184 221.748 70.5042 222.186C71.1899 222.623 71.9628 222.92 72.7746 223.059C74.1476 223.317 75.5703 223.17 76.8532 222.635C78.9597 221.74 80.1748 219.936 80.135 218.108C80.1275 217.878 80.1021 217.649 80.0603 217.423C79.9542 216.919 79.759 216.436 79.4826 215.995L45.1206 160.831C43.6266 158.418 39.9713 157.471 37.0331 158.713C34.9365 159.589 33.7214 161.393 33.7762 163.225Z" stroke="black" stroke-width="5.05" stroke-miterlimit="10"/>
<path d="M126.691 222.097C126.691 222.097 130.83 218.332 140.347 212.353" stroke="black" stroke-width="5.05" stroke-miterlimit="10"/>
<path d="M160.437 160.217L145.353 176.206C144.302 177.32 142.844 178.006 141.28 178.122C139.715 178.238 138.164 177.775 136.946 176.83C136.274 176.307 135.725 175.655 135.335 174.916C134.946 174.176 134.725 173.366 134.687 172.538C134.65 171.711 134.796 170.885 135.117 170.116C135.437 169.347 135.926 168.651 136.548 168.076L139.307 165.525C139.412 165.382 139.531 165.253 139.651 165.12L141.643 163.021L158.774 145.228C160.853 143.044 163.471 141.392 166.39 140.425C169.308 139.456 172.434 139.203 175.482 139.687L175.736 139.73" stroke="black" stroke-width="5.05" stroke-miterlimit="10"/>
<path d="M181.682 164.544H166.592C164.875 164.544 163.229 163.892 162.015 162.731C160.8 161.571 160.118 159.997 160.118 158.356C160.118 156.715 160.8 155.141 162.015 153.981C163.229 152.82 164.875 152.168 166.592 152.168H188.006" stroke="black" stroke-width="5.05" stroke-miterlimit="10"/>
<path d="M170.114 164.544C169.905 167.072 168.894 168.942 167.405 170.256C163.571 173.588 156.539 173.221 151.648 170.932" stroke="black" stroke-width="5.05" stroke-miterlimit="10"/>
<path d="M141.668 163.011C137.33 158.018 138.222 151.23 141.593 145.98C155.512 124.255 182.046 137.636 199.491 146.999C209.875 152.599 219.802 158.941 229.186 165.972C237.493 172.16 245.182 179.567 255.162 183.289C261.138 185.521 268.195 186.054 274.141 183.479" stroke="black" stroke-width="5.05" stroke-miterlimit="10"/>
<path d="M167.403 170.218C177.93 177.644 187.981 185.667 197.502 194.242" stroke="black" stroke-width="5.05" stroke-miterlimit="10"/>
<path d="M295.481 53.4361C298 55.6352 301.87 55.7542 305.072 55.4591C309.166 55.1021 313.219 54.1549 317.228 53.3552L319.663 53.2362H319.698C320.165 53.2409 320.627 53.3328 321.056 53.508C321.486 53.6827 321.875 53.9368 322.202 54.2553C322.529 54.5742 322.787 54.9512 322.962 55.3653C323.136 55.779 323.224 56.2221 323.219 56.6681C323.274 61.6918 322.75 66.706 321.655 71.6193L326.322 74.0326C326.924 72.4237 326.247 70.1056 327.676 69.9295C328.593 68.2968 329.957 67.2353 332.098 68.4491C336.292 70.8291 337.945 77.8216 333.906 81.0251L336.496 85.6518C337.398 87.274 338.862 88.5459 340.637 89.2508C342.412 89.9558 344.387 90.05 346.227 89.5169L343.582 83.9287C349.787 84.9806 354.13 77.5788 352.238 73.0616C350.948 69.9581 351.012 67.5447 352.736 64.5269C352.85 64.3222 351.68 64.0509 351.779 63.8415C351.839 61.6281 351.197 59.2576 350.081 58.1295C348.119 56.1112 344.17 55.7495 344.977 52.684C345.335 51.3503 345.468 49.9699 345.37 48.5952C345.159 46.7983 344.548 45.0652 343.579 43.5129C342.609 41.9602 341.302 40.6241 339.748 39.594C336.481 37.5425 332.826 39.4036 329.335 39.3513C325.097 39.3084 322.059 35.8717 317.617 35.8193C315.405 35.786 313.633 36.6095 311.74 37.6329C310.157 38.504 308.598 39.4131 307.084 40.3985C305.57 41.3838 304.225 42.2358 302.418 42.2406C300.062 42.2691 297.786 40.8411 295.416 41.5075C294.217 41.816 293.163 42.5038 292.428 43.4591C291.676 46.972 293.035 51.3179 295.481 53.4361Z" fill="#FAEDCD"/>
<path d="M326.341 73.509C326.645 72.2691 327.093 71.0652 327.675 69.92C328.592 68.2873 329.961 67.2258 332.098 68.4396C336.291 70.8196 337.944 77.8121 333.905 81.0156L336.495 85.6423C337.398 87.264 338.862 88.5363 340.636 89.2413C342.411 89.9463 344.387 90.04 346.226 89.5074" stroke="black" stroke-width="5.05" stroke-linecap="round" stroke-linejoin="round"/>
<path d="M343.583 83.9191L346.217 89.5169C346.88 90.8545 348.777 94.9671 350.764 99.2416C352.178 102.302 353.653 105.453 354.748 107.771" stroke="black" stroke-width="5.05" stroke-linecap="round" stroke-linejoin="round"/>
<path d="M300.908 63.8176C300.908 63.8176 308.672 61.9707 312.063 67.5971" stroke="black" stroke-width="5.05" stroke-miterlimit="10"/>
<path d="M303.194 80.6157C301.102 81.1631 298.288 81.6534 296.675 79.9112L300.191 72.8378C301.044 71.1033 301.255 69.1426 300.788 67.2782C300.021 64.1413 298.104 59.3766 300.161 55.2401" stroke="black" stroke-width="5.05" stroke-miterlimit="10"/>
<path d="M308.418 71.1357C309.007 70.2013 308.553 68.907 307.404 68.2449C306.254 67.5828 304.844 67.8032 304.255 68.7376C303.666 69.6719 304.12 70.9662 305.27 71.6283C306.419 72.2909 307.828 72.07 308.418 71.1357Z" fill="black"/>
<path d="M319.747 115.668L317.904 96.1237" stroke="black" stroke-width="5.05" stroke-miterlimit="10"/>
<path d="M326.321 74.0231C326.321 73.8517 326.321 73.6756 326.321 73.5042C326.332 73.3205 326.332 73.1358 326.321 72.9521" stroke="black" stroke-width="5.05" stroke-linecap="round" stroke-linejoin="round"/>
<path d="M326.327 74.0278L324.723 73.2043L321.655 71.6097" stroke="black" stroke-width="5.05" stroke-linecap="round" stroke-linejoin="round"/>
<path d="M313.487 81.1202C313.487 81.1202 313.332 86.0706 307.411 88.1079" stroke="black" stroke-width="5.05" stroke-miterlimit="10"/>
<path d="M343.581 83.9191C349.786 84.9711 354.129 77.5693 352.236 73.0521C350.947 69.9485 351.011 67.5352 352.734 64.5174C352.849 64.3127 352.944 64.1128 353.043 63.9129C354.323 61.2139 353.87 58.5388 351.858 56.2445C349.951 54.0739 347.077 53.3123 347.904 50.1469C348.275 48.7727 348.413 47.3505 348.312 45.9344C348.098 44.086 347.471 42.3034 346.475 40.7064C345.478 39.1095 344.134 37.7352 342.535 36.6761C339.179 34.5484 335.399 36.4762 331.784 36.4239C327.431 36.362 324.289 32.8205 319.722 32.7682C317.436 32.7682 315.594 33.5821 313.651 34.6389C312.018 35.5385 310.399 36.4857 308.856 37.4949C307.312 38.504 305.868 39.3989 304.035 39.3989C301.605 39.3989 299.259 37.9709 296.829 38.6373C294.399 39.3037 292.955 41.2267 292.476 43.4544C291.7 46.9482 293.059 51.3131 295.504 53.4504C298.024 55.6495 301.894 55.7685 305.096 55.4734C309.189 55.1164 313.243 54.1691 317.252 53.3695L319.687 53.2505H319.722C320.189 53.2548 320.651 53.3471 321.08 53.5218C321.51 53.697 321.899 53.9507 322.226 54.2696C322.553 54.588 322.811 54.9655 322.986 55.3791C323.16 55.7933 323.247 56.2359 323.243 56.6824C323.299 61.7061 322.774 66.7198 321.679 71.6336" stroke="black" stroke-width="5.05" stroke-miterlimit="10"/>
<path d="M327.263 89.336C327.263 89.336 318.01 101.084 309.788 98.4514C301.566 95.8191 301.147 81.2773 301.147 81.2773" stroke="black" stroke-width="5.05" stroke-linecap="round" stroke-linejoin="round"/>
<path d="M83.1641 418.428V245.816H94.2147V418.5" stroke="black" stroke-width="5.05" stroke-miterlimit="10"/>
<path d="M93.3315 145.375C103.183 145.375 111.17 137.742 111.17 128.325C111.17 118.908 103.183 111.275 93.3315 111.275C83.4796 111.275 75.4932 118.908 75.4932 128.325C75.4932 137.742 83.4796 145.375 93.3315 145.375Z" fill="#FAEDCD"/>
<path d="M86.3541 132.723C85.8322 132.383 85.3686 131.967 84.9796 131.491C84.2909 130.676 83.9388 129.648 83.9891 128.602C84.0394 127.555 84.4891 126.563 85.2535 125.812C85.752 125.322 86.3626 124.948 87.0374 124.721C87.7122 124.494 88.4328 124.419 89.1429 124.503C88.9855 123.559 89.1539 122.591 89.623 121.747C90.0916 120.902 90.8351 120.227 91.7415 119.822C92.6473 119.417 93.6667 119.305 94.6453 119.503C95.6239 119.701 96.5088 120.198 97.1657 120.919C98.5551 122.423 99.2075 124.66 99.4515 126.631C99.5775 127.659 99.5944 128.698 99.5013 129.729C99.4565 130.248 99.2623 133.242 98.7543 133.433C95.3978 134.661 89.6758 134.927 86.3541 132.723Z" fill="white"/>
<path d="M219.191 141.353C224.472 141.353 228.753 137.262 228.753 132.214C228.753 127.167 224.472 123.075 219.191 123.075C213.911 123.075 209.63 127.167 209.63 132.214C209.63 137.262 213.911 141.353 219.191 141.353Z" fill="#FAEDCD"/>
<path d="M218.535 127.978C218.826 127.81 219.144 127.689 219.476 127.621C220.047 127.489 220.649 127.562 221.168 127.825C221.687 128.088 222.088 128.523 222.295 129.049C222.429 129.392 222.48 129.761 222.441 130.126C222.402 130.491 222.275 130.842 222.071 131.153C222.574 131.305 223.014 131.608 223.326 132.016C223.638 132.424 223.806 132.915 223.806 133.421C223.806 133.926 223.638 134.418 223.326 134.826C223.014 135.233 222.574 135.536 222.071 135.689C220.93 135.927 219.742 135.845 218.65 135.451C218.099 135.273 217.568 135.044 217.066 134.765C216.812 134.627 215.333 133.856 215.358 133.575C215.502 131.729 216.672 129.015 218.535 127.978Z" fill="white"/>
<path d="M145.055 121.79C146.126 122.645 147.322 123.345 148.606 123.87C150.968 124.812 153.546 125.152 156.087 124.856C158.629 124.56 161.046 123.638 163.102 122.18C164.696 121.019 166.09 119.414 167.739 118.248C168.889 117.387 170.27 116.853 171.723 116.706C172.206 116.719 172.685 116.623 173.122 116.425C174.228 115.768 172.923 114.678 172.808 113.907C172.654 112.674 172.979 111.43 173.72 110.409C175.611 107.712 176.469 104.474 176.147 101.242C175.825 98.0102 174.344 94.9842 171.954 92.6775C169.564 90.3708 166.413 88.9252 163.035 88.5858C159.657 88.2469 156.26 89.0347 153.421 90.8164C150.617 92.5728 148.536 95.1765 146.424 97.666C144.562 99.8604 142.615 102.021 141.25 104.53C138.043 110.428 139.915 117.691 145.055 121.79Z" fill="#FAEDCD"/>
<path d="M164.073 102.35C165.836 102.35 167.265 100.984 167.265 99.2987C167.265 97.6132 165.836 96.2475 164.073 96.2475C162.31 96.2475 160.881 97.6132 160.881 99.2987C160.881 100.984 162.31 102.35 164.073 102.35Z" fill="white"/>
<path d="M157.896 109.566C159.659 109.566 161.088 108.2 161.088 106.515C161.088 104.83 159.659 103.464 157.896 103.464C156.133 103.464 154.704 104.83 154.704 106.515C154.704 108.2 156.133 109.566 157.896 109.566Z" fill="white"/>
<path d="M152.105 116.34C153.868 116.34 155.297 114.973 155.297 113.288C155.297 111.603 153.868 110.237 152.105 110.237C150.342 110.237 148.913 111.603 148.913 113.288C148.913 114.973 150.342 116.34 152.105 116.34Z" fill="white"/>
<g opacity="0.46">
<path opacity="0.46" d="M244.431 84.714C244.181 85.9093 243.656 87.0355 242.893 88.0118C242.129 88.9876 241.147 89.7882 240.019 90.3546L213.396 103.873C212.392 104.385 211.292 104.703 210.159 104.808C209.026 104.913 207.883 104.803 206.795 104.484C205.706 104.166 204.695 103.646 203.817 102.952C202.94 102.259 202.215 101.407 201.683 100.446L180.463 62.2564C179.388 60.3195 179.161 58.0542 179.832 55.9575C180.504 53.8611 182.018 52.1047 184.043 51.0751L210.686 37.5615C214.695 35.5242 220.228 37.0855 222.38 40.9839L243.604 79.1591C244.559 80.8589 244.852 82.8272 244.431 84.714Z" fill="#FAEDCD"/>
</g>
<path d="M236.527 81.8199L210.566 72.3618C210.236 72.239 209.961 72.0077 209.792 71.7097C209.623 71.4112 209.571 71.0652 209.645 70.7339L215.666 44.2635C215.734 43.9817 215.89 43.7266 216.113 43.5319C216.337 43.3368 216.616 43.2111 216.916 43.1716C217.215 43.1316 217.52 43.1797 217.791 43.3092C218.061 43.4386 218.284 43.6438 218.43 43.897L238.37 79.816C238.51 80.0716 238.567 80.3624 238.531 80.6495C238.496 80.9365 238.37 81.2068 238.17 81.4239C237.97 81.6414 237.706 81.7952 237.413 81.8661C237.12 81.9366 236.811 81.9204 236.527 81.8199Z" fill="white"/>
<g opacity="0.46">
<path opacity="0.46" d="M275.306 111.289C275.851 111.662 276.301 112.148 276.624 112.71C276.946 113.272 277.133 113.896 277.169 114.535L278.165 129.667C278.203 130.239 278.122 130.811 277.928 131.352C277.734 131.894 277.43 132.394 277.033 132.822C276.637 133.251 276.156 133.601 275.618 133.852C275.079 134.103 274.495 134.25 273.897 134.285L250.138 135.684C248.933 135.753 247.75 135.363 246.846 134.599C245.942 133.835 245.393 132.76 245.317 131.61L244.346 116.468C244.303 115.325 244.721 114.209 245.513 113.352C246.305 112.495 247.411 111.961 248.604 111.86L272.358 110.432C273.416 110.376 274.461 110.679 275.306 111.289Z" fill="#FAEDCD"/>
</g>
<path d="M272.149 114.278L261.751 124.117C261.619 124.237 261.447 124.309 261.265 124.321C261.084 124.333 260.903 124.285 260.755 124.184L248.803 115.664C248.675 115.572 248.58 115.445 248.531 115.299C248.481 115.154 248.479 114.998 248.526 114.852C248.572 114.705 248.663 114.576 248.789 114.481C248.914 114.386 249.067 114.331 249.226 114.321L271.576 113.003C271.733 112.999 271.887 113.04 272.019 113.121C272.15 113.201 272.253 113.318 272.315 113.455C272.377 113.592 272.394 113.744 272.364 113.891C272.335 114.038 272.26 114.173 272.149 114.278Z" fill="white"/>
<g opacity="0.46">
<path opacity="0.46" d="M113.953 194.442C112.393 194.687 110.817 194.814 109.237 194.822C94.1073 194.822 94.6153 181.413 94.6153 181.413L107.15 184.003C106.676 182.894 106.495 181.69 106.622 180.499C106.749 179.307 107.18 178.163 107.877 177.168C110.746 173.16 117.409 175.221 117.409 175.221L121.552 172.669L120.656 177.429L126.208 176.534L123.355 179.69C127.189 183.213 132.075 193.937 120.292 199.511C108.509 205.085 103.425 198.407 103.425 198.407L109.237 194.827L113.953 194.442Z" fill="#FAEDCD"/>
</g>
<path d="M113.704 181.328C114.706 181.328 115.517 180.552 115.517 179.595C115.517 178.638 114.706 177.862 113.704 177.862C112.703 177.862 111.892 178.638 111.892 179.595C111.892 180.552 112.703 181.328 113.704 181.328Z" fill="white"/>
<path d="M145.303 426.482H352.605" stroke="black" stroke-width="3.15" stroke-miterlimit="10"/>
</svg>
