<svg width="508" height="465" viewBox="0 0 508 465" fill="none" xmlns="http://www.w3.org/2000/svg">
<path d="M328.419 60.074H286.758C278.128 60.074 271.133 67.0652 271.133 75.6894C271.133 84.3136 278.128 91.3049 286.758 91.3049H328.419C337.048 91.3049 344.043 84.3136 344.043 75.6894C344.043 67.0652 337.048 60.074 328.419 60.074Z" fill="#FF7B00"/>
<path d="M389.484 227.503L446.265 234.431L442.895 145.188L417.875 88.192H397.885L385.982 100.183L389.484 227.503Z" fill="#E6E6E6"/>
<path d="M392.343 412.404V423.928C392.345 425.033 392.088 426.123 391.593 427.112C391.098 428.1 390.378 428.959 389.492 429.62C386.253 432.031 380.798 436.153 375.965 440.084C374.523 441.254 372.807 442.041 370.979 442.371C367.17 443.102 360.487 445.425 360.487 453.332H396.993L402.967 449.678V453.332H421.245V412.258L392.343 412.404Z" fill="#2F2E41"/>
<path d="M473.895 414.231V423.891C473.899 424.873 473.706 425.846 473.33 426.753C472.953 427.66 472.4 428.483 471.702 429.174L459.777 440.866L450.798 446.397C449.8 447.013 448.975 447.873 448.402 448.895C447.829 449.918 447.526 451.071 447.523 452.243V455.071L484.08 449.62L489.198 445.133L490.222 448.195L507.989 444.541L500.604 412.273L473.895 414.231Z" fill="#2F2E41"/>
<path d="M133.428 107.322H277.509C280.735 107.321 283.93 107.956 286.911 109.189C289.892 110.423 292.601 112.231 294.882 114.511C297.163 116.791 298.973 119.498 300.207 122.477C301.441 125.457 302.076 128.65 302.075 131.874V444.768C302.075 446.534 301.727 448.283 301.05 449.915C300.373 451.547 299.38 453.029 298.129 454.277C296.878 455.526 295.394 456.515 293.76 457.189C292.126 457.863 290.375 458.209 288.607 458.206H122.315C118.749 458.206 115.329 456.79 112.807 454.27C110.286 451.75 108.869 448.332 108.869 444.768V131.874C108.869 125.365 111.457 119.122 116.062 114.518C120.668 109.915 126.915 107.329 133.428 107.329V107.322Z" fill="#2E3135"/>
<path d="M141.069 107.527H288.257C291.279 107.526 294.273 108.12 297.066 109.276C299.859 110.432 302.396 112.126 304.534 114.262C306.671 116.398 308.367 118.935 309.523 121.726C310.679 124.517 311.274 127.509 311.273 130.53V446.521C311.273 449.675 310.02 452.699 307.789 454.928C305.558 457.158 302.532 458.41 299.377 458.41H129.948C126.793 458.41 123.767 457.158 121.536 454.928C119.306 452.699 118.052 449.675 118.052 446.521V130.53C118.052 124.431 120.476 118.582 124.792 114.269C129.107 109.957 134.959 107.534 141.062 107.534L141.069 107.527Z" fill="#3F4347"/>
<path d="M309.423 173.664C311.32 173.664 313.139 174.417 314.48 175.757C315.821 177.097 316.574 178.915 316.574 180.81V217.96C316.574 219.856 315.821 221.673 314.48 223.013C313.139 224.354 311.32 225.107 309.423 225.107V173.664Z" fill="#3F4347"/>
<path d="M121.73 173.459V191.83C120.268 191.83 118.866 191.249 117.832 190.216C116.798 189.183 116.217 187.781 116.217 186.32V178.969C116.217 177.508 116.798 176.106 117.832 175.073C118.866 174.04 120.268 173.459 121.73 173.459Z" fill="#3F4347"/>
<path d="M121.73 193.868V212.253C120.268 212.253 118.866 211.673 117.832 210.64C116.798 209.606 116.217 208.205 116.217 206.744V199.385C116.216 198.661 116.358 197.944 116.635 197.275C116.911 196.605 117.317 195.997 117.829 195.485C118.341 194.972 118.949 194.566 119.619 194.289C120.288 194.011 121.005 193.868 121.73 193.868Z" fill="#3F4347"/>
<path d="M282.597 113.044H257.738C257.557 115.539 256.438 117.873 254.606 119.576C252.773 121.28 250.363 122.228 247.86 122.229H186.78C184.277 122.228 181.868 121.28 180.035 119.576C178.203 117.873 177.083 115.539 176.902 113.044H146.516C140.918 113.044 135.549 115.266 131.59 119.223C127.631 123.179 125.408 128.545 125.408 134.14V433.113C125.415 438.301 127.483 443.274 131.158 446.939C134.832 450.604 139.811 452.661 145.002 452.659H286.195C290.836 452.65 295.284 450.803 298.566 447.523C301.848 444.243 303.696 439.797 303.706 435.159V134.103C303.698 128.514 301.47 123.156 297.512 119.207C293.555 115.259 288.19 113.042 282.597 113.044Z" fill="white"/>
<path d="M228.551 144.07H143.993C143.018 144.07 142.083 143.683 141.393 142.993C140.703 142.304 140.316 141.369 140.316 140.395C140.316 139.42 140.703 138.485 141.393 137.796C142.083 137.106 143.018 136.719 143.993 136.719H228.551C229.526 136.719 230.462 137.106 231.151 137.796C231.841 138.485 232.229 139.42 232.229 140.395C232.229 141.369 231.841 142.304 231.151 142.993C230.462 143.683 229.526 144.07 228.551 144.07Z" fill="#7435DC"/>
<path d="M292.885 155.294H142.158V208.57H292.885V155.294Z" fill="#7435DC"/>
<path d="M292.68 219.59H141.954V245.311H292.68V219.59Z" fill="#7435DC"/>
<path d="M292.885 256.33H142.158V282.051H292.885V256.33Z" fill="#7435DC"/>
<path d="M292.475 318.792H141.749V344.513H292.475V318.792Z" fill="#7435DC"/>
<path d="M292.68 355.532H141.954V381.254H292.68V355.532Z" fill="#7435DC"/>
<path d="M311.778 190.098H196.578C177.631 190.098 162.272 205.448 162.272 224.383V400.143C162.272 419.078 177.631 434.428 196.578 434.428H311.778C330.724 434.428 346.083 419.078 346.083 400.143V224.383C346.083 205.448 330.724 190.098 311.778 190.098Z" fill="#E6E6E6"/>
<path d="M32.2957 110.925L29.9414 113.044C29.9414 113.044 46.1729 120.351 68.2171 120.577C76.8983 120.723 85.3995 118.097 92.4839 113.08C95.2527 111.177 97.6407 108.773 99.5249 105.992L90.6853 87.527L69.131 84.1584L52.7021 89.3611L32.2957 110.925Z" fill="#F9B499"/>
<path opacity="0.2" d="M42.1077 130.822L39.8339 152.013L32.4712 147.556C32.4712 147.556 39.6803 131.896 36.7923 114.498C38.7371 116.127 41.3108 119.328 42.0712 125.159C42.3038 127.039 42.3161 128.939 42.1077 130.822Z" fill="black"/>
<path d="M145.222 161.834L126.629 159.751L123.368 159.386L124.384 134.688C116.422 146.489 95.0723 184.705 95.0723 184.705C99.6566 173.693 102.939 157.537 102.939 157.537C103.268 138.012 97.9822 117.56 95.8985 110.289C95.394 108.513 95.0723 107.527 95.0723 107.527L96.1032 107.424C98.1181 107.04 99.9545 106.015 101.338 104.502C102.712 102.938 104.543 101.847 106.572 101.383C108.601 100.918 110.725 101.105 112.642 101.915L142.158 97.9982C167.076 96.2153 145.222 161.834 145.222 161.834Z" fill="#FF7B00"/>
<path opacity="0.2" d="M127.499 124.976L126.629 159.744L123.368 159.379L124.384 134.68C116.422 146.489 95.0723 184.705 95.0723 184.705C99.6566 173.693 102.939 157.537 102.939 157.537C103.268 138.012 97.9822 117.56 95.8985 110.289C96.0593 110.691 106.222 136.156 108.05 142.44C108.05 142.433 122.637 131.604 127.499 124.976Z" fill="black"/>
<path d="M107.436 305.135C107.436 305.135 105.842 312.04 96.4687 329.548C89.4424 342.701 78.0291 361.919 59.6115 388.736L57.8055 407.355C57.8055 407.355 44.2939 408.816 33.3486 410L25.942 410.826L16.8173 297.747L12.7375 244.778C12.7375 244.778 7.4805 206.093 28.7643 191.808C29.5486 190.412 30.2517 188.973 30.87 187.497C34.2333 179.78 38.2984 162.521 41.7056 131.699L56.4456 133.248L66.572 140.373L86.9711 141.198C87.5853 141.223 88.1979 141.119 88.7691 140.892C89.3404 140.665 89.8575 140.32 90.2869 139.881C90.7164 139.441 91.0487 138.916 91.2622 138.34C91.4756 137.764 91.5656 137.149 91.5261 136.536C90.85 127.503 89.5183 118.53 87.5414 109.69C87.5414 109.69 92.133 107.125 95.1014 107.498C95.1014 107.498 104.197 138.319 102.969 157.508C102.969 157.508 100.307 172.035 95.1014 184.676C95.1014 184.676 92.1769 188.052 91.4969 197.098C91.0143 203.741 91.9874 210.409 94.3484 216.638C97.2218 224.317 102.486 240.342 107.465 265.925C107.436 265.925 114.989 288.248 107.436 305.135Z" fill="#FF7B00"/>
<path opacity="0.3" d="M107.436 305.135C107.436 305.135 105.842 312.04 96.4687 329.548C89.4424 342.701 78.0291 361.919 59.6115 388.736L57.8055 407.355C57.8055 407.355 44.2939 408.816 33.3486 410L25.942 410.826L16.8173 297.747L12.7375 244.778C12.7375 244.778 7.4805 206.093 28.7643 191.808C29.5486 190.412 30.2517 188.973 30.87 187.497C34.2333 179.78 37.2821 162.111 41.7056 131.699L56.4456 133.248L66.572 140.373L86.9711 141.198C87.5853 141.223 88.1979 141.119 88.7691 140.892C89.3404 140.665 89.8575 140.32 90.2869 139.881C90.7164 139.441 91.0487 138.916 91.2622 138.34C91.4756 137.764 91.5656 137.149 91.5261 136.536C90.85 127.503 89.5183 118.53 87.5414 109.69C87.5414 109.69 92.133 107.125 95.1014 107.498C95.1014 107.498 104.197 138.319 102.969 157.508C102.969 157.508 100.307 172.035 95.1014 184.676C95.1014 184.676 92.1769 188.052 91.4969 197.098C91.0143 203.741 91.9874 210.409 94.3484 216.638C97.2218 224.317 102.486 240.342 107.465 265.925C107.436 265.925 114.989 288.248 107.436 305.135Z" fill="white"/>
<path d="M127.499 159.839V163.178C127.499 163.178 114.382 177.281 118.052 180.715C120.696 180.226 123.042 178.717 124.581 176.514C124.581 176.514 125.408 185.684 121.73 189.287C121.73 189.287 116.831 199.824 128.471 196.36C128.471 196.36 151.956 188.191 139.497 163.902L139.658 161.235L127.499 159.839Z" fill="#F9B499"/>
<path opacity="0.3" d="M85.7866 181.622L80.961 187.409L68.4364 188.352C67.5432 188.417 66.6921 188.757 65.9997 189.325C65.3073 189.892 64.8075 190.66 64.5686 191.523L63.6255 194.921C60.3865 196.66 45.5222 198.012 38.8395 198.538C37.6845 198.63 36.5694 199.002 35.5899 199.62C34.6105 200.239 33.7961 201.086 33.217 202.089C23.2733 219.305 27.1411 260.02 27.1411 260.02L33.3705 410.037L25.964 410.862L16.8173 297.747L12.7375 244.778C12.7375 244.778 7.4805 206.093 28.7643 191.808C29.5486 190.412 30.2517 188.973 30.87 187.497L47.3866 187.314L78.4312 178.947L85.7866 181.622Z" fill="white"/>
<path opacity="0.3" d="M75.163 244.288C75.163 244.288 67.8003 313.092 67.6102 316.139L73.942 298.602L85.7866 301.942L78.4166 294.934L88.6527 286.56L74.154 290.849L75.163 244.288Z" fill="white"/>
<path opacity="0.3" d="M96.5053 329.548C89.479 342.701 78.0657 361.919 59.6481 388.736L64.1446 348.795C64.1446 348.795 81.4948 342.321 96.5053 329.548Z" fill="white"/>
<path d="M57.8056 407.355C57.8056 407.355 62.7701 417.285 65.1171 425.667C65.6102 427.447 66.645 429.031 68.0782 430.197C72.4651 433.756 81.6703 441.553 81.5095 444.505V450.789H66.8865L45.1348 436.306L53.2725 407.859L57.8056 407.355Z" fill="#2F2E41"/>
<path opacity="0.2" d="M57.8056 407.355C57.8056 407.355 62.7701 417.285 65.1171 425.667C65.6102 427.447 66.645 429.031 68.0782 430.197C72.4651 433.756 81.6703 441.553 81.5095 444.505V450.789H66.8865L45.1348 436.306L53.2725 407.859L57.8056 407.355Z" fill="#512A93"/>
<path d="M494.675 241.329C494.794 242.027 494.697 242.745 494.396 243.386C494.096 244.027 493.606 244.561 492.993 244.916C491.531 245.757 490.068 246.553 488.606 247.291C477.883 252.693 466.293 256.168 454.366 257.558C451.031 257.966 447.674 258.178 444.313 258.194C443.721 258.194 443.147 257.985 442.694 257.604C442.24 257.223 441.936 256.694 441.834 256.111L437.031 228.629L427.255 172.436L417.451 115.901C415.615 102.836 406.834 93.0367 406.834 93.0367L425.581 73.9795L456.45 86.336C461.606 88.3988 466.466 91.1334 470.905 94.4689C480.076 101.335 487.162 110.608 491.377 121.257C494.762 129.85 495.077 136.193 495.077 136.193C499.369 162.404 483.642 177.544 483.642 177.544L494.675 241.329Z" fill="#2F2E41"/>
<path opacity="0.2" d="M494.675 241.329C494.794 242.027 494.697 242.745 494.396 243.386C494.096 244.027 493.606 244.561 492.993 244.916C481.101 251.687 467.962 255.986 454.366 257.558C475.131 232.889 474.049 184.866 474.049 184.866C469.552 190.178 441.147 195.893 441.147 195.893C437.879 195.893 436.446 187.314 436.446 187.314C469.348 181.804 479.949 162.616 479.949 162.616C505.481 125.137 471.446 94.9146 470.912 94.4469C480.083 101.313 487.17 110.586 491.385 121.235C494.77 129.828 495.084 136.171 495.084 136.171C499.376 162.382 483.649 177.522 483.649 177.522L494.675 241.329Z" fill="black"/>
<path opacity="0.2" d="M458.519 96.5076C454.639 104.784 453.121 113.971 454.132 123.055C454.77 128.487 456.25 133.787 458.519 138.765C458.11 137.947 457.679 137.135 457.306 136.302C456.545 134.639 455.885 132.931 455.332 131.187C451.727 119.912 452.751 106.898 458.519 96.5149V96.5076Z" fill="black"/>
<path d="M333.939 178.765V182.367C333.939 182.367 365.378 196.726 383.979 196.324C383.979 196.324 381.12 232.86 382.348 253.678C382.348 253.678 386.223 255.716 389.491 255.716C389.491 255.716 390.31 230.814 392.35 221.628C393.908 210.337 394.456 198.929 393.988 187.54L394.156 179.948V96.5076L390.31 91.6118L377.237 101.403C377.237 101.403 371.315 105.283 369.685 118.758L333.939 178.765Z" fill="#2F2E41"/>
<path d="M360.487 179.992C360.487 179.992 383.152 200.81 401.738 184.274L435.283 185.326C435.283 185.326 433.602 180.021 431.869 176.024L360.487 179.992Z" fill="#F9B499"/>
<path d="M503.046 412.075L494.002 412.74L469.933 414.523L437.689 297.565L423.797 411.871L401.131 412.258L392.358 412.404L389.506 255.716C389.506 255.716 390.12 226.941 392.365 221.628C392.365 221.628 406.988 230.872 437.067 228.629L441.849 256.133C441.951 256.719 442.258 257.249 442.714 257.631C443.171 258.012 443.747 258.219 444.342 258.215C447.134 258.204 449.923 258.053 452.699 257.762C453.248 257.711 453.811 257.653 454.396 257.58C466.317 256.192 477.901 252.722 488.621 247.328L492.218 291.682L503.046 412.075Z" fill="#FF7B00"/>
<path opacity="0.2" d="M437.689 297.565L423.797 411.871L401.131 412.258C425.691 383.241 429.719 266.948 429.719 266.948L437.689 297.565Z" fill="black"/>
<path opacity="0.2" d="M503.046 412.075L494.002 412.74L493.49 412.258C490.902 323.322 459.55 268.723 452.663 257.762C453.211 257.711 453.774 257.653 454.359 257.58C466.293 256.197 477.89 252.726 488.621 247.328L492.218 291.682L503.046 412.075Z" fill="black"/>
<path d="M326.064 173.664L309.423 119.065H406.849L420.558 173.664H326.064Z" fill="#FF7B00"/>
<path d="M406.849 119.065H409.635L422.781 172.846L420.558 173.664L406.849 119.065Z" fill="#FF7B00"/>
<path opacity="0.1" d="M406.849 119.065H409.635L422.781 172.846L420.558 173.664L406.849 119.065Z" fill="black"/>
<path d="M420.558 173.664H326.064V179.977H420.558V173.664Z" fill="#FF7B00"/>
<path opacity="0.2" d="M420.558 173.664H326.064V179.977H420.558V173.664Z" fill="black"/>
<path d="M429.924 170.602C427.716 171.216 425.435 171.93 423.081 172.743C422.228 173.041 421.387 173.347 420.558 173.664V179.977L432.205 176.821L429.924 170.602Z" fill="#FF7B00"/>
<path opacity="0.3" d="M429.924 170.602C427.716 171.216 425.435 171.93 423.081 172.743C422.228 173.041 421.387 173.347 420.558 173.664V179.977L432.205 176.821L429.924 170.602Z" fill="black"/>
<path d="M429.924 170.602H422.225L422.781 172.846L429.924 170.602Z" fill="#FF7B00"/>
<path opacity="0.2" d="M309.423 119.065L315.521 139.065L352.393 173.664H370.716L316.574 119.065H309.423Z" fill="white"/>
<path opacity="0.2" d="M324.032 119.065L376.367 173.664H390.552L340.073 119.065H324.032Z" fill="white"/>
<path opacity="0.2" d="M374.401 119.065L418.014 163.536L416.625 157.99L380.177 119.065H374.401Z" fill="white"/>
<path d="M319.382 151.735C319.382 151.735 295.743 140.19 297.783 124.472C297.783 124.472 299.012 117.333 309.423 119.065L319.382 151.735Z" fill="#F9B499"/>
<path d="M315.031 119.065C315.031 119.065 313.781 113.446 315.828 113C316.014 112.966 316.205 112.977 316.385 113.031C316.566 113.086 316.731 113.183 316.867 113.314L322.913 119.065H315.031Z" fill="#F9B499"/>
<path d="M256.327 8.18566V76.6466C256.327 78.7784 255.48 80.8229 253.972 82.3303C252.463 83.8377 250.418 84.6845 248.285 84.6845H241.383C239.343 92.3278 243.649 100.198 243.649 100.198C227.191 95.3384 219.828 88.645 216.721 84.6699H135.476C133.342 84.6699 131.297 83.8231 129.789 82.3157C128.28 80.8083 127.433 78.7638 127.433 76.632V8.18566C127.433 6.05388 128.28 4.00941 129.789 2.50201C131.297 0.994614 133.342 0.147766 135.476 0.147766H248.299C250.43 0.151637 252.472 1.00019 253.977 2.50717C255.482 4.01415 256.327 6.05641 256.327 8.18566Z" fill="#FF7B00"/>
<path d="M220.94 50.4504L223.952 50.3335L223.762 45.3427L220.684 45.4596C220.226 43.6516 219.369 41.9689 218.176 40.5346L220.369 38.0428L216.619 34.7473L214.286 37.3925C212.995 36.7212 211.597 36.2786 210.155 36.0845L210.016 32.3359L205.022 32.5186L205.169 36.4133C203.629 36.8287 202.182 37.533 200.906 38.4886L198.544 36.2964L195.123 39.95L197.579 42.2591C196.831 43.532 196.313 44.9273 196.051 46.3803L192.966 46.4973L193.156 51.4881L196.176 51.3711C196.53 52.9421 197.183 54.4305 198.098 55.7555L195.539 58.6783L199.283 61.9739L201.71 59.2264C203.049 60.0807 204.538 60.6734 206.097 60.9728L206.229 64.3925L211.223 64.2025L211.098 60.9216C212.665 60.5885 214.153 59.9611 215.485 59.0729L217.679 61.1481L221.1 57.4946L218.987 55.507C219.998 53.983 220.664 52.2576 220.94 50.4504ZM208.795 57.2461C207.023 57.2766 205.282 56.7793 203.794 55.8176C202.306 54.856 201.138 53.4734 200.439 51.846C199.739 50.2187 199.541 48.4201 199.868 46.6794C200.194 44.9387 201.032 43.3346 202.275 42.0715C203.517 40.8083 205.107 39.9432 206.843 39.5863C208.579 39.2294 210.381 39.3969 212.022 40.0675C213.662 40.738 215.065 41.8813 216.053 43.3516C217.041 44.822 217.569 46.553 217.569 48.324C217.581 49.486 217.363 50.6389 216.928 51.7166C216.493 52.7943 215.849 53.7756 215.034 54.6044C214.219 55.4332 213.249 56.0931 212.178 56.5464C211.107 56.9998 209.958 57.2375 208.795 57.2461Z" fill="white"/>
<path d="M288.768 80.4683V70.9105C288.767 70.8508 288.778 70.7914 288.801 70.736C288.823 70.6806 288.857 70.6302 288.899 70.588C288.941 70.5457 288.992 70.5124 289.047 70.4899C289.102 70.4675 289.162 70.4565 289.222 70.4575H289.697C289.757 70.4565 289.816 70.4675 289.872 70.4899C289.927 70.5124 289.977 70.5457 290.02 70.588C290.062 70.6302 290.095 70.6806 290.118 70.736C290.14 70.7914 290.151 70.8508 290.15 70.9105V74.8783H295.919V70.8959C295.918 70.8361 295.929 70.7768 295.951 70.7214C295.974 70.666 296.007 70.6156 296.05 70.5734C296.092 70.5311 296.142 70.4978 296.198 70.4753C296.253 70.4529 296.313 70.4419 296.372 70.4429H296.84C296.901 70.4412 296.962 70.4519 297.018 70.4746C297.075 70.4972 297.126 70.5312 297.169 70.5744C297.212 70.6162 297.246 70.6663 297.268 70.7216C297.291 70.7769 297.302 70.8362 297.301 70.8959V80.4537C297.302 80.5134 297.291 80.5728 297.268 80.628C297.246 80.6833 297.212 80.7334 297.169 80.7752C297.126 80.8184 297.075 80.8524 297.018 80.875C296.962 80.8977 296.901 80.9085 296.84 80.9067H296.372C296.313 80.9077 296.253 80.8967 296.198 80.8743C296.142 80.8519 296.092 80.8185 296.05 80.7762C296.007 80.734 295.974 80.6836 295.951 80.6282C295.929 80.5728 295.918 80.5135 295.919 80.4537V76.0694H290.15V80.4537C290.151 80.5135 290.14 80.5728 290.118 80.6282C290.095 80.6836 290.062 80.734 290.02 80.7762C289.977 80.8185 289.927 80.8519 289.872 80.8743C289.816 80.8967 289.757 80.9077 289.697 80.9067H289.222C289.162 80.9077 289.102 80.8967 289.047 80.8743C288.992 80.8519 288.941 80.8185 288.899 80.7762C288.857 80.734 288.823 80.6836 288.801 80.6282C288.778 80.5728 288.767 80.5135 288.768 80.4537V80.4683Z" fill="#2F2E41"/>
<path d="M301.768 80.4683V71.6631H299.078C299.017 71.6629 298.958 71.6505 298.903 71.6266C298.847 71.6028 298.797 71.568 298.756 71.5243C298.713 71.4828 298.679 71.4327 298.656 71.3774C298.634 71.322 298.623 71.2626 298.624 71.2028V70.9105C298.623 70.8507 298.634 70.7914 298.657 70.736C298.679 70.6806 298.713 70.6302 298.755 70.588C298.797 70.5457 298.848 70.5124 298.903 70.4899C298.958 70.4675 299.018 70.4565 299.078 70.4575H305.848C305.908 70.4565 305.967 70.4675 306.023 70.4899C306.078 70.5124 306.128 70.5457 306.171 70.588C306.213 70.6302 306.246 70.6806 306.269 70.736C306.291 70.7914 306.302 70.8507 306.301 70.9105V71.2028C306.303 71.2626 306.292 71.322 306.269 71.3774C306.247 71.4327 306.213 71.4828 306.17 71.5243C306.128 71.568 306.078 71.6028 306.023 71.6266C305.968 71.6505 305.908 71.6629 305.848 71.6631H303.15V80.4683C303.151 80.5281 303.14 80.5874 303.118 80.6428C303.095 80.6982 303.062 80.7486 303.02 80.7908C302.977 80.8331 302.927 80.8664 302.871 80.8889C302.816 80.9113 302.757 80.9223 302.697 80.9213H302.229C302.168 80.9231 302.107 80.9123 302.051 80.8896C301.994 80.867 301.943 80.833 301.9 80.7898C301.857 80.748 301.823 80.6979 301.801 80.6426C301.778 80.5873 301.767 80.528 301.768 80.4683Z" fill="#2F2E41"/>
<path d="M307.617 80.4683V70.9105C307.616 70.8507 307.627 70.7914 307.65 70.736C307.672 70.6806 307.706 70.6302 307.748 70.588C307.79 70.5457 307.841 70.5124 307.896 70.4899C307.951 70.4675 308.011 70.4565 308.071 70.4575H308.985C309.12 70.4558 309.253 70.4967 309.365 70.5744C309.479 70.6446 309.565 70.7535 309.606 70.8813L312.648 78.9192L315.689 70.8813C315.728 70.7522 315.814 70.6425 315.931 70.5744C316.042 70.4967 316.175 70.4558 316.311 70.4575H317.225C317.284 70.4565 317.344 70.4675 317.399 70.4899C317.455 70.5124 317.505 70.5457 317.547 70.588C317.59 70.6302 317.623 70.6806 317.646 70.736C317.668 70.7914 317.679 70.8507 317.678 70.9105V80.4683C317.679 80.5281 317.668 80.5874 317.646 80.6428C317.623 80.6982 317.59 80.7486 317.547 80.7908C317.505 80.8331 317.455 80.8664 317.399 80.8889C317.344 80.9113 317.284 80.9223 317.225 80.9213H316.749C316.69 80.9223 316.63 80.9113 316.575 80.8889C316.519 80.8664 316.469 80.8331 316.427 80.7908C316.384 80.7486 316.351 80.6982 316.329 80.6428C316.306 80.5874 316.295 80.5281 316.296 80.4683V72.4962L313.372 80.5341C313.327 80.6599 313.242 80.7676 313.13 80.841C313.019 80.9186 312.886 80.9595 312.75 80.9579H312.545C312.409 80.9595 312.277 80.9186 312.165 80.841C312.051 80.7698 311.966 80.6613 311.924 80.5341L308.999 72.4962V80.4683C309 80.5281 308.989 80.5874 308.967 80.6428C308.944 80.6982 308.911 80.7486 308.869 80.7908C308.826 80.8331 308.776 80.8664 308.721 80.8889C308.665 80.9113 308.606 80.9223 308.546 80.9213H308.071C308.011 80.9223 307.951 80.9113 307.896 80.8889C307.841 80.8664 307.79 80.8331 307.748 80.7908C307.706 80.7486 307.672 80.6982 307.65 80.6428C307.627 80.5874 307.616 80.5281 307.617 80.4683Z" fill="#2F2E41"/>
<path d="M319.806 80.4683V70.9105C319.805 70.8507 319.816 70.7914 319.838 70.736C319.861 70.6806 319.894 70.6302 319.936 70.5879C319.979 70.5457 320.029 70.5123 320.084 70.4899C320.14 70.4675 320.199 70.4565 320.259 70.4575H320.727C320.788 70.4557 320.849 70.4665 320.905 70.4892C320.962 70.5118 321.013 70.5458 321.056 70.589C321.099 70.6308 321.132 70.6809 321.155 70.7362C321.178 70.7914 321.189 70.8508 321.188 70.9105V79.7156H325.955C326.015 79.7147 326.074 79.7257 326.129 79.7481C326.185 79.7705 326.235 79.8039 326.277 79.8461C326.32 79.8884 326.353 79.9387 326.376 79.9942C326.398 80.0496 326.409 80.1089 326.408 80.1687V80.4683C326.409 80.5281 326.398 80.5874 326.376 80.6428C326.353 80.6982 326.32 80.7486 326.277 80.7908C326.235 80.8331 326.185 80.8664 326.129 80.8889C326.074 80.9113 326.015 80.9223 325.955 80.9213H320.259C320.199 80.9223 320.14 80.9113 320.084 80.8889C320.029 80.8664 319.979 80.8331 319.936 80.7908C319.894 80.7486 319.861 80.6982 319.838 80.6428C319.816 80.5874 319.805 80.5281 319.806 80.4683Z" fill="#2F2E41"/>
<path d="M93.939 93.9866L96.5784 99.8323C96.5784 99.8323 74.6439 113.321 68.0636 91.4875L93.939 93.9866Z" fill="#F7A48B"/>
<path d="M85.0701 98.2613V111.122C85.0701 111.122 90.4806 107.344 96.1031 107.468C96.1031 107.468 98.6402 107.403 101.704 104.136C102.728 103.03 104.008 102.19 105.431 101.689C106.854 101.189 108.378 101.043 109.871 101.265C110.814 101.411 111.741 101.643 112.642 101.959C112.642 101.959 118.052 88.9958 107.129 74.4034L96.1031 59.7086H88.7477L85.0701 98.2613Z" fill="#2F2E41"/>
<path opacity="0.2" d="M85.0701 98.2613V111.122C85.0701 111.122 90.4806 107.344 96.1031 107.468C96.1031 107.468 98.6402 107.403 101.704 104.136C102.728 103.03 104.008 102.19 105.431 101.689C106.854 101.189 108.378 101.043 109.871 101.265C110.814 101.411 111.741 101.643 112.642 101.959C112.642 101.959 118.052 88.9958 107.129 74.4034L96.1031 59.7086H88.7477L85.0701 98.2613Z" fill="black"/>
<path d="M64.7368 170.325L79.7912 173.459C79.7912 173.459 95.5913 165.904 99.269 168.344C99.269 168.344 99.4664 170.588 94.363 174.468C94.363 174.468 100.49 176.097 106.003 175.279C106.003 175.279 120.304 172.831 111.925 183.858C109.764 186.57 106.974 188.715 103.797 190.106C100.619 191.498 97.1504 192.094 93.6904 191.844C88.7821 191.548 84.0732 189.798 80.1641 186.817L77.3419 184.691L62.7189 185.261L64.7368 170.325Z" fill="#F9B499"/>
<path d="M64.7369 168.038L63.6036 177.822L61.8927 192.648C61.8927 192.648 -0.605954 197.339 0.212933 176.112C1.30273 166.965 4.43078 158.178 9.36693 150.398L11.4141 146.174L15.8888 136.843C16.6199 135.323 17.2828 133.777 17.8775 132.203C20.1368 126.211 27.1923 109.507 34.46 113.044C35.2984 113.409 36.0753 113.902 36.7631 114.505C38.708 116.135 41.2816 119.335 42.042 125.166C42.2735 127.041 42.2858 128.937 42.0786 130.815L39.8047 152.006L64.7369 168.038Z" fill="#FF7B00"/>
<path opacity="0.2" d="M63.6036 177.822L61.8927 192.648C61.8927 192.648 -0.605954 197.339 0.212933 176.112C1.30273 166.965 4.43078 158.178 9.36693 150.398L11.4141 146.174C11.2021 146.701 -1.79042 179.787 23.5147 181.928C23.5147 181.928 43.6213 183.207 63.6036 177.822Z" fill="black"/>
<path d="M87.5465 100.032C97.714 97.1242 102.473 82.6009 98.1753 67.5935C93.8779 52.5861 82.1519 42.7776 71.9845 45.6855C61.817 48.5935 57.0584 63.1168 61.3557 78.1243C65.6531 93.1317 77.3791 102.94 87.5465 100.032Z" fill="#F9B499"/>
<path d="M63.0113 79.8691C73.7373 71.6997 74.6585 62.6534 74.388 58.4226C74.3169 57.3884 74.5943 56.3602 75.1761 55.502C75.7578 54.6438 76.6104 54.005 77.5977 53.6875C79.06 53.2564 80.5223 53.5633 81.3924 56.0185C82.6107 58.9276 83.237 62.05 83.2349 65.2036C83.2349 65.2036 101.514 63.2672 97.9383 52.343C97.9383 52.343 90.4806 33.8704 75.8795 43.1579C75.8795 43.1579 68.4291 35.7118 59.3336 46.8114C59.3336 46.8114 42.1516 50.1362 44.3085 75.1706C44.5949 78.2562 44.5704 81.3627 44.2354 84.4434C43.687 89.3538 42.3709 95.9888 39.2197 100.19L32.0837 110.647C32.0629 110.679 32.0526 110.717 32.054 110.756C32.0553 110.794 32.0684 110.832 32.0914 110.863C32.1144 110.893 32.1462 110.917 32.1827 110.929C32.2192 110.941 32.2586 110.942 32.2957 110.932C35.6904 109.847 39.2311 109.288 42.795 109.273C42.795 109.273 32.7929 122.382 39.6657 130.099C40.2555 130.746 40.944 131.296 41.7056 131.728C45.4402 133.91 48.6165 136.929 50.9839 140.548C51.5612 141.489 51.9949 142.511 52.2707 143.58C53.0019 146.343 55.3269 152.488 61.1834 149.682C61.1834 149.682 68.9848 146.438 65.8262 135.798C65.4636 134.576 64.9734 133.396 64.3639 132.276C63.3111 130.347 61.1834 125.166 63.2891 117.406C63.8492 115.391 64.6857 113.463 65.775 111.677C67.1423 109.397 69.343 103.888 66.7255 94.5492L64.8757 87.2201L63.0113 79.8691Z" fill="#2F2E41"/>
<path d="M63.0645 91.3117C66.1419 89.536 66.7855 84.8922 64.502 80.9393C62.2185 76.9865 57.8726 75.2216 54.7952 76.9973C51.7179 78.773 51.0743 83.4168 53.3578 87.3697C55.6413 91.3225 59.9872 93.0874 63.0645 91.3117Z" fill="#F9B499"/>
<path d="M54.3326 464.731C43.241 465.023 39.7096 460.347 38.7079 454.289C37.5893 447.544 39.6292 439.214 37.8232 434.392C37.6185 433.843 37.4065 433.274 37.1944 432.682C33.9116 423.555 30.4459 410.314 30.4459 410.314L35.9661 409.715L53.3163 407.83L54.2814 415.919L66.1991 448.582C66.9299 450.395 67.3763 452.31 67.5225 454.26C68.1001 465.199 54.3326 464.731 54.3326 464.731Z" fill="#7435DC"/>
<path opacity="0.2" d="M37.1725 432.711C33.8896 423.584 30.424 410.344 30.424 410.344L35.9368 409.613V409.73L37.1725 432.711Z" fill="black"/>
<path opacity="0.2" d="M54.3325 464.731C43.241 465.023 39.7096 460.347 38.7079 454.289C38.7079 454.289 56.1531 468.341 67.5005 454.289C68.1001 465.199 54.3325 464.731 54.3325 464.731Z" fill="black"/>
<path d="M194.75 216.119H186.576C185.279 216.119 184.229 217.169 184.229 218.464C184.229 219.76 185.279 220.81 186.576 220.81H194.75C196.046 220.81 197.097 219.76 197.097 218.464C197.097 217.169 196.046 216.119 194.75 216.119Z" fill="#FF7B00"/>
<path d="M262.761 215.71H203.122C201.825 215.71 200.775 216.76 200.775 218.055C200.775 219.351 201.825 220.401 203.122 220.401H262.761C264.058 220.401 265.108 219.351 265.108 218.055C265.108 216.76 264.058 215.71 262.761 215.71Z" fill="#FF7B00"/>
<path d="M220.486 224.895H203.122C201.825 224.895 200.775 225.945 200.775 227.24C200.775 228.536 201.825 229.586 203.122 229.586H220.486C221.783 229.586 222.833 228.536 222.833 227.24C222.833 225.945 221.783 224.895 220.486 224.895Z" fill="#2F2E41"/>
<path d="M279.307 233.269H203.122C201.825 233.269 200.775 234.319 200.775 235.614C200.775 236.91 201.825 237.96 203.122 237.96H279.307C280.604 237.96 281.654 236.91 281.654 235.614C281.654 234.319 280.604 233.269 279.307 233.269Z" fill="#2F2E41"/>
<path d="M224.164 242.454H203.122C201.825 242.454 200.775 243.504 200.775 244.799C200.775 246.095 201.825 247.145 203.122 247.145H224.164C225.46 247.145 226.511 246.095 226.511 244.799C226.511 243.504 225.46 242.454 224.164 242.454Z" fill="#7435DC"/>
<path d="M240.703 242.454H230.898C229.602 242.454 228.551 243.504 228.551 244.799C228.551 246.095 229.602 247.145 230.898 247.145H240.703C241.999 247.145 243.05 246.095 243.05 244.799C243.05 243.504 241.999 242.454 240.703 242.454Z" fill="#FF7B00"/>
<path d="M264.597 242.454H248.051C246.754 242.454 245.704 243.504 245.704 244.799C245.704 246.095 246.754 247.145 248.051 247.145H264.597C265.893 247.145 266.943 246.095 266.943 244.799C266.943 243.504 265.893 242.454 264.597 242.454Z" fill="#FF7B00"/>
<path d="M194.743 259.801H185.347C184.051 259.801 183 260.851 183 262.147C183 263.442 184.051 264.492 185.347 264.492H194.743C196.039 264.492 197.089 263.442 197.089 262.147C197.089 260.851 196.039 259.801 194.743 259.801Z" fill="#FF7B00"/>
<path d="M225.999 259.801H202.507C201.211 259.801 200.16 260.851 200.16 262.147C200.16 263.442 201.211 264.492 202.507 264.492H225.999C227.295 264.492 228.346 263.442 228.346 262.147C228.346 260.851 227.295 259.801 225.999 259.801Z" fill="#FF7B00"/>
<path d="M262.761 267.357H202.507C201.211 267.357 200.16 268.407 200.16 269.702C200.16 270.998 201.211 272.048 202.507 272.048H262.761C264.058 272.048 265.108 270.998 265.108 269.702C265.108 268.407 264.058 267.357 262.761 267.357Z" fill="#7435DC"/>
<path d="M240.703 259.801H232.733C231.437 259.801 230.386 260.851 230.386 262.147C230.386 263.442 231.437 264.492 232.733 264.492H240.703C241.999 264.492 243.05 263.442 243.05 262.147C243.05 260.851 241.999 259.801 240.703 259.801Z" fill="#2F2E41"/>
<path d="M194.743 276.337H185.347C184.051 276.337 183 277.387 183 278.683C183 279.978 184.051 281.028 185.347 281.028H194.743C196.039 281.028 197.089 279.978 197.089 278.683C197.089 277.387 196.039 276.337 194.743 276.337Z" fill="#FF7B00"/>
<path d="M194.743 284.704H185.347C184.051 284.704 183 285.754 183 287.05C183 288.345 184.051 289.395 185.347 289.395H194.743C196.039 289.395 197.089 288.345 197.089 287.05C197.089 285.754 196.039 284.704 194.743 284.704Z" fill="#7435DC"/>
<path d="M194.743 293.071H185.347C184.051 293.071 183 294.121 183 295.416C183 296.712 184.051 297.762 185.347 297.762H194.743C196.039 297.762 197.089 296.712 197.089 295.416C197.089 294.121 196.039 293.071 194.743 293.071Z" fill="#FF7B00"/>
<path d="M213.131 293.071H202.098C200.802 293.071 199.751 294.121 199.751 295.416C199.751 296.712 200.802 297.762 202.098 297.762H213.131C214.427 297.762 215.478 296.712 215.478 295.416C215.478 294.121 214.427 293.071 213.131 293.071Z" fill="#2F2E41"/>
<path d="M194.743 250.821H185.347C184.051 250.821 183 251.871 183 253.166C183 254.462 184.051 255.512 185.347 255.512H194.743C196.039 255.512 197.089 254.462 197.089 253.166C197.089 251.871 196.039 250.821 194.743 250.821Z" fill="#7435DC"/>
<path d="M278.079 250.821H203.122C201.825 250.821 200.775 251.871 200.775 253.166C200.775 254.462 201.825 255.512 203.122 255.512H278.079C279.375 255.512 280.426 254.462 280.426 253.166C280.426 251.871 279.375 250.821 278.079 250.821Z" fill="#7435DC"/>
<path d="M226.409 284.704H202.507C201.211 284.704 200.16 285.754 200.16 287.05C200.16 288.345 201.211 289.395 202.507 289.395H226.409C227.705 289.395 228.756 288.345 228.756 287.05C228.756 285.754 227.705 284.704 226.409 284.704Z" fill="#7435DC"/>
<path d="M240.703 284.704H232.528C231.232 284.704 230.181 285.754 230.181 287.05C230.181 288.345 231.232 289.395 232.528 289.395H240.703C241.999 289.395 243.05 288.345 243.05 287.05C243.05 285.754 241.999 284.704 240.703 284.704Z" fill="#7435DC"/>
<path d="M270.109 284.704H247.436C246.14 284.704 245.089 285.754 245.089 287.05C245.089 288.345 246.14 289.395 247.436 289.395H270.109C271.406 289.395 272.456 288.345 272.456 287.05C272.456 285.754 271.406 284.704 270.109 284.704Z" fill="#FF7B00"/>
<path d="M220.486 276.337H202.507C201.211 276.337 200.16 277.387 200.16 278.683C200.16 279.978 201.211 281.028 202.507 281.028H220.486C221.783 281.028 222.833 279.978 222.833 278.683C222.833 277.387 221.783 276.337 220.486 276.337Z" fill="#FF7B00"/>
<path d="M253.571 276.337H227.425C226.129 276.337 225.078 277.387 225.078 278.683C225.078 279.978 226.129 281.028 227.425 281.028H253.571C254.867 281.028 255.918 279.978 255.918 278.683C255.918 277.387 254.867 276.337 253.571 276.337Z" fill="#2F2E41"/>
<path d="M271.952 259.801H247.436C246.14 259.801 245.089 260.851 245.089 262.147C245.089 263.442 246.14 264.492 247.436 264.492H271.952C273.248 264.492 274.299 263.442 274.299 262.147C274.299 260.851 273.248 259.801 271.952 259.801Z" fill="#2F2E41"/>
<path d="M253.776 225.099H227.015C225.719 225.099 224.668 226.149 224.668 227.445C224.668 228.74 225.719 229.791 227.015 229.791H253.776C255.072 229.791 256.123 228.74 256.123 227.445C256.123 226.149 255.072 225.099 253.776 225.099Z" fill="#7435DC"/>
<path d="M332.359 316.746H179.673C178.24 316.746 177.078 317.907 177.078 319.34V413.354C177.078 414.787 178.24 415.948 179.673 415.948H332.359C333.793 415.948 334.955 414.787 334.955 413.354V319.34C334.955 317.907 333.793 316.746 332.359 316.746Z" fill="#FF7B00"/>
<path opacity="0.2" d="M334.955 319.347V326.136H177.078V319.347C177.077 319.007 177.143 318.669 177.273 318.354C177.402 318.039 177.593 317.752 177.833 317.511C178.073 317.269 178.359 317.077 178.673 316.946C178.988 316.815 179.325 316.747 179.666 316.746H332.359C332.701 316.746 333.039 316.813 333.354 316.944C333.67 317.075 333.956 317.267 334.197 317.508C334.438 317.75 334.63 318.037 334.76 318.352C334.89 318.668 334.956 319.006 334.955 319.347Z" fill="black"/>
<path d="M315.858 324.302C317.38 324.302 318.614 323.068 318.614 321.547C318.614 320.025 317.38 318.792 315.858 318.792C314.335 318.792 313.101 320.025 313.101 321.547C313.101 323.068 314.335 324.302 315.858 324.302Z" fill="white"/>
<path d="M322.189 324.302C323.712 324.302 324.946 323.068 324.946 321.547C324.946 320.025 323.712 318.792 322.189 318.792C320.667 318.792 319.433 320.025 319.433 321.547C319.433 323.068 320.667 324.302 322.189 324.302Z" fill="white"/>
<path d="M328.521 324.302C330.043 324.302 331.277 323.068 331.277 321.547C331.277 320.025 330.043 318.792 328.521 318.792C326.999 318.792 325.765 320.025 325.765 321.547C325.765 323.068 326.999 324.302 328.521 324.302Z" fill="white"/>
<path d="M189.946 337.469C189.838 337.469 189.733 337.426 189.657 337.349C189.58 337.273 189.537 337.168 189.537 337.06V329.709C189.537 329.6 189.58 329.496 189.657 329.42C189.733 329.343 189.838 329.3 189.946 329.3C190.055 329.3 190.159 329.343 190.236 329.42C190.313 329.496 190.356 329.6 190.356 329.709V337.06C190.356 337.168 190.313 337.273 190.236 337.349C190.159 337.426 190.055 337.469 189.946 337.469Z" fill="white"/>
<path d="M221.093 333.589H193.558C193.45 333.589 193.345 333.546 193.269 333.469C193.192 333.392 193.149 333.288 193.149 333.18C193.149 333.071 193.192 332.967 193.269 332.89C193.345 332.814 193.45 332.771 193.558 332.771H221.13C221.238 332.771 221.343 332.814 221.419 332.89C221.496 332.967 221.539 333.071 221.539 333.18C221.539 333.288 221.496 333.392 221.419 333.469C221.343 333.546 221.238 333.589 221.13 333.589H221.093Z" fill="white"/>
<path d="M270.724 338.331H193.558C193.5 338.339 193.441 338.334 193.385 338.318C193.33 338.301 193.278 338.272 193.234 338.234C193.19 338.195 193.155 338.148 193.131 338.095C193.106 338.042 193.094 337.984 193.094 337.926C193.094 337.867 193.106 337.81 193.131 337.757C193.155 337.704 193.19 337.656 193.234 337.618C193.278 337.579 193.33 337.551 193.385 337.534C193.441 337.517 193.5 337.512 193.558 337.52H270.724C270.781 337.512 270.84 337.517 270.896 337.534C270.952 337.551 271.004 337.579 271.048 337.618C271.092 337.656 271.127 337.704 271.151 337.757C271.175 337.81 271.188 337.867 271.188 337.926C271.188 337.984 271.175 338.042 271.151 338.095C271.127 338.148 271.092 338.195 271.048 338.234C271.004 338.272 270.952 338.301 270.896 338.318C270.84 338.334 270.781 338.339 270.724 338.331Z" fill="white"/>
<path d="M290.94 343.052H193.558C193.45 343.052 193.345 343.009 193.269 342.932C193.192 342.855 193.149 342.751 193.149 342.643C193.149 342.534 193.192 342.43 193.269 342.353C193.345 342.276 193.45 342.233 193.558 342.233H290.94C291.049 342.233 291.153 342.276 291.229 342.353C291.306 342.43 291.349 342.534 291.349 342.643C291.349 342.751 291.306 342.855 291.229 342.932C291.153 343.009 291.049 343.052 290.94 343.052Z" fill="white"/>
<path d="M320.354 342.979H294.618C294.509 342.979 294.405 342.936 294.328 342.859C294.251 342.782 294.208 342.678 294.208 342.57C294.208 342.461 294.251 342.357 294.328 342.28C294.405 342.203 294.509 342.16 294.618 342.16H320.354C320.463 342.16 320.567 342.203 320.644 342.28C320.72 342.357 320.763 342.461 320.763 342.57C320.763 342.678 320.72 342.782 320.644 342.859C320.567 342.936 320.463 342.979 320.354 342.979Z" fill="white"/>
<path d="M278.079 394.516H193.558C193.5 394.524 193.441 394.519 193.385 394.503C193.33 394.486 193.278 394.457 193.234 394.419C193.19 394.38 193.155 394.333 193.131 394.28C193.106 394.227 193.094 394.169 193.094 394.111C193.094 394.052 193.106 393.995 193.131 393.942C193.155 393.888 193.19 393.841 193.234 393.803C193.278 393.764 193.33 393.736 193.385 393.719C193.441 393.702 193.5 393.697 193.558 393.705H278.079C278.177 393.718 278.267 393.767 278.333 393.841C278.398 393.916 278.434 394.012 278.434 394.111C278.434 394.21 278.398 394.306 278.333 394.38C278.267 394.455 278.177 394.503 278.079 394.516Z" fill="white"/>
<path d="M276.236 399.924H193.558C193.5 399.931 193.441 399.927 193.385 399.91C193.33 399.893 193.278 399.864 193.234 399.826C193.19 399.788 193.155 399.74 193.131 399.687C193.106 399.634 193.094 399.576 193.094 399.518C193.094 399.46 193.106 399.402 193.131 399.349C193.155 399.296 193.19 399.248 193.234 399.21C193.278 399.172 193.33 399.143 193.385 399.126C193.441 399.109 193.5 399.105 193.558 399.112H276.236C276.294 399.105 276.353 399.109 276.409 399.126C276.465 399.143 276.517 399.172 276.561 399.21C276.604 399.248 276.64 399.296 276.664 399.349C276.688 399.402 276.7 399.46 276.7 399.518C276.7 399.576 276.688 399.634 276.664 399.687C276.64 399.74 276.604 399.788 276.561 399.826C276.517 399.864 276.465 399.893 276.409 399.91C276.353 399.927 276.294 399.931 276.236 399.924Z" fill="white"/>
<path d="M290.94 389.087H193.558C193.45 389.087 193.345 389.044 193.269 388.967C193.192 388.89 193.149 388.786 193.149 388.678C193.149 388.569 193.192 388.465 193.269 388.388C193.345 388.312 193.45 388.269 193.558 388.269H290.94C291.049 388.269 291.153 388.312 291.229 388.388C291.306 388.465 291.349 388.569 291.349 388.678C291.349 388.786 291.306 388.89 291.229 388.967C291.153 389.044 291.049 389.087 290.94 389.087Z" fill="white"/>
<path d="M209.351 380.143V356.124C209.348 355.973 209.376 355.822 209.432 355.682C209.489 355.541 209.573 355.413 209.68 355.306C209.786 355.199 209.912 355.114 210.052 355.058C210.191 355.001 210.341 354.974 210.491 354.977H211.676C211.827 354.975 211.977 355.003 212.118 355.06C212.258 355.117 212.385 355.202 212.492 355.309C212.599 355.416 212.683 355.543 212.74 355.683C212.797 355.823 212.826 355.973 212.824 356.124V366.135H227.323V356.124C227.32 355.973 227.347 355.822 227.404 355.682C227.46 355.541 227.545 355.414 227.652 355.306C227.759 355.199 227.887 355.115 228.028 355.058C228.168 355.002 228.319 354.974 228.47 354.977H229.648C229.799 354.974 229.95 355.002 230.09 355.058C230.231 355.115 230.359 355.199 230.466 355.306C230.573 355.414 230.658 355.541 230.714 355.682C230.771 355.822 230.798 355.973 230.795 356.124V380.143C230.798 380.295 230.771 380.445 230.714 380.586C230.658 380.726 230.573 380.854 230.466 380.961C230.359 381.068 230.231 381.152 230.09 381.209C229.95 381.266 229.799 381.293 229.648 381.29H228.47C228.319 381.293 228.168 381.266 228.028 381.209C227.887 381.152 227.759 381.068 227.652 380.961C227.545 380.854 227.46 380.726 227.404 380.586C227.347 380.445 227.32 380.295 227.323 380.143V369.182H212.824V380.143C212.826 380.294 212.797 380.444 212.74 380.584C212.683 380.724 212.599 380.852 212.492 380.959C212.385 381.066 212.258 381.15 212.118 381.207C211.977 381.264 211.827 381.292 211.676 381.29H210.491C210.341 381.294 210.191 381.266 210.052 381.21C209.912 381.153 209.786 381.069 209.68 380.961C209.573 380.854 209.489 380.726 209.432 380.586C209.376 380.445 209.348 380.295 209.351 380.143Z" fill="white"/>
<path d="M241.967 380.143V358.01H235.234C234.929 358.01 234.637 357.889 234.422 357.674C234.207 357.458 234.086 357.167 234.086 356.862V356.132C234.084 355.98 234.112 355.83 234.169 355.69C234.226 355.55 234.311 355.423 234.418 355.316C234.524 355.209 234.652 355.125 234.792 355.068C234.932 355.011 235.082 354.982 235.234 354.984H252.247C252.398 354.981 252.547 355.009 252.687 355.066C252.826 355.122 252.953 355.206 253.059 355.313C253.166 355.421 253.25 355.549 253.307 355.689C253.363 355.83 253.391 355.98 253.388 356.132V356.862C253.39 357.013 253.362 357.162 253.305 357.302C253.249 357.442 253.165 357.568 253.059 357.675C252.953 357.782 252.826 357.867 252.687 357.924C252.547 357.982 252.398 358.011 252.247 358.01H245.47V380.143C245.473 380.295 245.445 380.445 245.388 380.586C245.332 380.726 245.247 380.854 245.14 380.961C245.033 381.068 244.905 381.152 244.765 381.209C244.624 381.266 244.473 381.293 244.322 381.29H243.137C242.986 381.292 242.837 381.264 242.697 381.207C242.557 381.15 242.43 381.065 242.324 380.958C242.217 380.851 242.134 380.724 242.077 380.584C242.021 380.444 241.994 380.294 241.997 380.143H241.967Z" fill="white"/>
<path d="M256.722 380.143V356.124C256.719 355.973 256.747 355.822 256.803 355.682C256.86 355.541 256.945 355.414 257.052 355.306C257.159 355.199 257.287 355.115 257.427 355.058C257.568 355.002 257.718 354.974 257.87 354.977H260.159C260.502 354.976 260.838 355.078 261.124 355.269C261.405 355.454 261.614 355.73 261.716 356.051L269.371 376.336L277.026 356.051C277.122 355.727 277.332 355.449 277.618 355.269C277.901 355.077 278.235 354.975 278.576 354.977H280.872C281.023 354.974 281.172 355.002 281.312 355.058C281.451 355.115 281.578 355.199 281.684 355.306C281.79 355.413 281.875 355.541 281.931 355.682C281.988 355.822 282.015 355.973 282.013 356.124V380.143C282.015 380.295 281.988 380.445 281.931 380.586C281.875 380.726 281.79 380.854 281.684 380.961C281.578 381.068 281.451 381.153 281.312 381.209C281.172 381.266 281.023 381.293 280.872 381.29H279.688C279.536 381.292 279.386 381.264 279.246 381.207C279.106 381.15 278.978 381.066 278.871 380.959C278.764 380.852 278.68 380.724 278.623 380.584C278.566 380.444 278.538 380.294 278.54 380.143V360.114H278.467L271.155 380.223C271.057 380.542 270.85 380.817 270.57 380.998C270.285 381.19 269.949 381.292 269.605 381.29H269.086C268.744 381.292 268.41 381.19 268.128 380.998C267.844 380.819 267.634 380.544 267.536 380.223L260.224 360.114H260.151V380.143C260.154 380.295 260.127 380.445 260.07 380.586C260.013 380.726 259.929 380.854 259.822 380.961C259.714 381.068 259.587 381.152 259.446 381.209C259.305 381.266 259.155 381.293 259.003 381.29H257.899C257.748 381.293 257.597 381.266 257.457 381.209C257.316 381.152 257.188 381.068 257.081 380.961C256.974 380.854 256.889 380.726 256.833 380.586C256.776 380.445 256.748 380.295 256.751 380.143H256.722Z" fill="white"/>
<path d="M287.379 380.143V356.124C287.376 355.973 287.404 355.822 287.46 355.682C287.517 355.541 287.601 355.414 287.709 355.306C287.816 355.199 287.944 355.115 288.084 355.058C288.225 355.002 288.375 354.974 288.527 354.977H289.704C289.856 354.974 290.006 355.002 290.147 355.058C290.288 355.115 290.415 355.199 290.523 355.306C290.63 355.414 290.714 355.541 290.771 355.682C290.827 355.822 290.855 355.973 290.852 356.124V378.265H302.836C302.986 378.263 303.136 378.291 303.276 378.348C303.415 378.404 303.542 378.488 303.649 378.594C303.756 378.7 303.841 378.827 303.898 378.966C303.955 379.105 303.985 379.254 303.984 379.405V380.136C303.985 380.287 303.957 380.437 303.9 380.577C303.843 380.717 303.759 380.844 303.652 380.951C303.545 381.058 303.417 381.143 303.277 381.2C303.137 381.257 302.987 381.285 302.836 381.283H288.527C288.375 381.286 288.225 381.258 288.084 381.202C287.944 381.145 287.816 381.061 287.709 380.954C287.601 380.846 287.517 380.719 287.46 380.578C287.404 380.438 287.376 380.287 287.379 380.136V380.143Z" fill="white"/>
<path d="M420.847 50.9817C426.787 33.3713 422.344 15.9757 410.922 12.1274C399.5 8.27908 385.425 19.4354 379.485 37.0458C373.544 54.6561 377.988 72.0518 389.41 75.9001C400.832 79.7484 414.907 68.592 420.847 50.9817Z" fill="#F9B499"/>
<path d="M380.25 34.9592C380.25 34.9592 373.355 27.3086 381.113 23.4358C381.113 23.4358 375.6 13.2057 385.609 11.7954C385.609 11.7954 383.152 2.81492 392.957 0.77622C392.957 0.77622 400.108 -2.28549 407.054 6.28583C407.054 6.28583 412.172 12.8185 417.465 12.2046C417.465 12.2046 432.988 13.4323 429.895 28.127C429.895 28.127 437.864 28.7408 434.187 42.0106C434.187 42.0106 436.227 50.7792 429.069 52.6207L420.807 50.9839C420.807 50.9839 424.367 36.2964 419.673 34.455C419.673 34.455 391.89 33.3151 384.841 25.8252C384.885 25.8252 381.639 30.7722 380.25 34.9592Z" fill="#2F2E41"/>
<path d="M428.47 54.7628C429.676 50.4777 428.366 46.3609 425.544 45.5676C422.722 44.7743 419.457 47.6049 418.251 51.8899C417.045 56.175 418.355 60.2918 421.177 61.0851C423.999 61.8784 427.264 59.0478 428.47 54.7628Z" fill="#F9B499"/>
<path d="M406.527 91.5241L406.849 93.0366C406.849 93.0366 400.722 96.5076 399.084 89.3831L398.667 84.6992L397.936 76.2301C397.936 76.2301 409.854 74.038 418.16 57.553C418.091 57.7539 418.035 57.9589 417.992 58.1668C417.396 61.1347 417.794 64.2162 419.125 66.9354L406.827 89.4927C406.493 90.114 406.387 90.8327 406.527 91.5241Z" fill="#F9B499"/>
<path opacity="0.2" d="M395.209 12.6138C397.181 16.3436 400.241 19.3863 403.983 21.3386C406.484 22.5558 409.245 23.1428 412.026 23.0485C416.186 22.6977 420.953 23.7792 423.322 27.5351C422.406 26.3636 421.255 25.3963 419.943 24.6954C418.631 23.9945 417.187 23.5754 415.703 23.465C414.837 23.3687 413.964 23.3345 413.093 23.3627C411.324 23.5155 409.543 23.422 407.8 23.085C402.228 21.9159 397.505 17.7069 395.143 12.6138H395.209Z" fill="black"/>
<path opacity="0.2" d="M399.084 9.84442C399.037 10.3692 399.133 10.8969 399.362 11.3716C399.573 11.8512 399.854 12.2968 400.196 12.6942C400.364 12.9281 400.715 13.2276 400.927 13.4249C404.107 16.2017 408.238 17.495 412.267 18.6788C413.619 19.088 415.009 19.2853 416.369 19.7018C420.412 20.9075 424.221 23.5892 425.947 27.5351C423.994 23.7281 420.258 21.229 416.244 20.0745C414.899 19.6799 413.488 19.4899 412.143 19.0953C411.411 18.8688 409.788 18.3646 409.108 18.1381C407.77 17.6805 406.459 17.1462 405.182 16.5378C403.149 15.5075 401.051 14.2799 399.764 12.3508C399.238 11.6267 398.996 10.7349 399.084 9.84442Z" fill="black"/>
<path opacity="0.2" d="M429.31 31.3933C432.118 33.5855 432.176 37.0783 429.953 39.7235C429.292 40.5158 428.527 41.2162 427.679 41.806C428.421 41.1036 429.103 40.341 429.719 39.5262C431.723 36.8445 431.664 33.8704 429.332 31.3933H429.31Z" fill="black"/>
<path d="M418.138 57.5164C418.087 57.7284 418.028 57.9403 417.97 58.1449C413.78 72.6569 398.667 84.6699 398.667 84.6699L397.936 76.2009C397.936 76.2009 409.854 74.0088 418.16 57.5238L418.138 57.5164Z" fill="#F7A48B"/>
<path d="M425.903 75.1048L419.915 101.608C419.915 101.608 418.898 103.859 415.835 101.001L406.849 93.0367L406.527 91.5241C406.387 90.8327 406.493 90.114 406.827 89.4927L419.103 66.9135L425.596 73.9795C425.735 74.128 425.835 74.3081 425.889 74.5042C425.942 74.7003 425.947 74.9064 425.903 75.1048Z" fill="#FF7B00"/>
<path d="M399.084 89.3611L391.736 100.183C391.736 100.183 384.191 91.4144 389.192 84.6772L394.149 76.6393C395.412 76.5675 396.67 76.4162 397.914 76.1863L399.084 89.3611Z" fill="#FF7B00"/>
<path d="M190.078 27.8201C190.738 30.3441 191.072 32.9422 191.072 35.5511C191.072 51.8826 178.175 65.1305 162.272 65.1305C160.168 65.1229 158.07 64.8778 156.021 64.3998L162.316 35.9749L190.078 27.8201Z" fill="#B3B3B3"/>
<path d="M179.483 11.832C174.551 8.03522 168.498 5.97946 162.272 5.98622C149.748 5.98622 139.087 14.1995 135.125 25.6718L162.316 36.0041L179.483 11.832Z" fill="#2F2E41"/>
<path d="M156.05 64.4363C143.138 61.5135 133.472 49.6904 133.472 35.551C133.469 32.1866 134.027 28.8452 135.125 25.6644L162.316 36.0041L156.05 64.4363Z" fill="#FF7B00"/>
<path opacity="0.3" d="M156.05 64.4363C143.138 61.5135 133.472 49.6904 133.472 35.551C133.469 32.1866 134.027 28.8452 135.125 25.6644L162.316 36.0041L156.05 64.4363Z" fill="white"/>
<path d="M190.07 27.7982C188.407 21.4515 184.684 15.8359 179.483 11.832L162.316 36.0041L190.07 27.7982Z" fill="#7435DC"/>
</svg>
