<svg width="524" height="581" viewBox="0 0 524 581" fill="none" xmlns="http://www.w3.org/2000/svg">
<path d="M128.51 177.39C127.439 174.807 125.915 172.436 124.01 170.39L120.31 172.62C117.861 168.172 114.589 164.229 110.67 161L113.19 158.19C111.76 156.76 109.27 153.72 105.41 152.19C102.808 151.156 100.04 150.604 97.24 150.56L96.56 153.51C91.532 152.03 86.2611 151.557 81.05 152.12C81.05 150.88 81.05 149.65 81.05 148.42C75.0348 148.001 69.0935 149.946 64.49 153.84L66.05 156.84C61.4006 159.396 57.3048 162.849 54 167L51.49 164.83C50.09 166.29 47.1 168.83 45.65 172.72C44.6617 175.368 44.1603 178.173 44.17 181L46.74 181.53C45.3713 186.625 45.0313 191.942 45.74 197.17L42.35 197.11C42.2 199.11 41.54 203 42.91 206.91C43.8375 209.553 45.2368 212.006 47.04 214.15L50.91 212.09C53.4031 216.315 56.6541 220.044 60.5 223.09L57.37 227.09C58.88 228.42 61.56 231.31 65.5 232.59C68.1627 233.461 70.9615 233.84 73.76 233.71L74.33 230.24C77.8882 231.254 81.5701 231.769 85.27 231.77C86.7468 231.768 88.2224 231.684 89.69 231.52C89.69 232.76 89.69 234 89.69 235.24C91.69 235.37 95.58 236.01 99.49 234.61C102.126 233.663 104.569 232.247 106.7 230.43L104.7 226.74C109.097 224.291 112.991 221.034 116.18 217.14L119.27 220.14C120.75 218.78 123.9 216.43 125.6 212.64C126.752 210.087 127.43 207.346 127.6 204.55L123.52 203.42C124.656 199.665 125.232 195.763 125.23 191.84C125.228 190.353 125.144 188.868 124.98 187.39L129.62 187.22C129.63 185.13 130.09 181.22 128.51 177.39Z" fill="#7435DC"/>
<path d="M487.48 400.54C486.263 397.585 484.522 394.875 482.34 392.54L478.11 395.08C475.32 389.989 471.587 385.476 467.11 381.78L469.98 378.57C468.36 376.94 465.51 373.46 461.1 371.72C458.123 370.545 454.96 369.915 451.76 369.86L450.99 373.23C445.242 371.542 439.217 371.001 433.26 371.64L433.32 367.41C426.444 366.938 419.655 369.162 414.39 373.61L416.18 377C410.835 379.946 406.133 383.931 402.35 388.72L399.47 386.24C397.88 387.9 394.47 390.82 392.8 395.24C391.685 398.241 391.119 401.418 391.13 404.62L394.06 405.23C393.034 409.069 392.516 413.026 392.52 417C392.523 419.054 392.663 421.105 392.94 423.14L389.06 423.07C388.9 425.37 388.14 429.8 389.71 434.27C390.769 437.29 392.369 440.092 394.43 442.54L398.85 440.19C401.719 445.007 405.448 449.258 409.85 452.73L406.27 457.25C408 458.78 411.06 462.07 415.56 463.54C418.603 464.535 421.802 464.969 425 464.82L425.65 460.82C429.716 461.979 433.922 462.568 438.15 462.57C439.837 462.57 441.524 462.473 443.2 462.28C443.2 463.7 443.2 465.12 443.2 466.53C445.49 466.68 449.93 467.41 454.39 465.81C457.402 464.731 460.194 463.115 462.63 461.04L460.35 456.82C465.377 454.012 469.828 450.28 473.47 445.82L476.99 449.27C478.69 447.72 482.29 445.02 484.23 440.7C485.532 437.777 486.298 434.644 486.49 431.45L481.83 430.16C483.145 425.873 483.819 421.414 483.83 416.93C483.825 415.233 483.728 413.537 483.54 411.85L488.84 411.65C488.76 409.38 489.28 404.92 487.48 400.54Z" fill="#7435DC"/>
<path d="M513.46 0.540039H355.01C349.482 0.540039 345 5.02167 345 10.55V97.02C345 102.548 349.482 107.03 355.01 107.03H513.46C518.988 107.03 523.47 102.548 523.47 97.02V10.55C523.47 5.02167 518.988 0.540039 513.46 0.540039Z" fill="#FF7B00"/>
<path d="M513.46 0.540039H355.01C349.482 0.540039 345 5.02167 345 10.55V97.02C345 102.548 349.482 107.03 355.01 107.03H513.46C518.988 107.03 523.47 102.548 523.47 97.02V10.55C523.47 5.02167 518.988 0.540039 513.46 0.540039Z" fill="#7435DC"/>
<path d="M523.47 20.25H345V38.49H523.47V20.25Z" fill="#2F2E41"/>
<path d="M497.88 5.65004H484.75C482.331 5.65004 480.37 7.61103 480.37 10.03C480.37 12.449 482.331 14.41 484.75 14.41H497.88C500.299 14.41 502.26 12.449 502.26 10.03C502.26 7.61103 500.299 5.65004 497.88 5.65004Z" fill="white"/>
<path d="M510.47 13.31C512.585 13.31 514.3 11.5953 514.3 9.48004C514.3 7.36479 512.585 5.65004 510.47 5.65004C508.355 5.65004 506.64 7.36479 506.64 9.48004C506.64 11.5953 508.355 13.31 510.47 13.31Z" fill="white"/>
<path d="M500.75 49.43H488.99C484.732 49.43 481.28 52.8819 481.28 57.14V66.89C481.28 71.1482 484.732 74.6 488.99 74.6H500.75C505.008 74.6 508.46 71.1482 508.46 66.89V57.14C508.46 52.8819 505.008 49.43 500.75 49.43Z" fill="white"/>
<path d="M468.6 86.28H441.61C440.047 86.28 438.78 87.5448 438.78 89.105C438.78 90.6652 440.047 91.93 441.61 91.93H468.6C470.163 91.93 471.43 90.6652 471.43 89.105C471.43 87.5448 470.163 86.28 468.6 86.28Z" fill="white"/>
<path d="M508.37 86.28H481.38C479.817 86.28 478.55 87.5448 478.55 89.105C478.55 90.6652 479.817 91.93 481.38 91.93H508.37C509.933 91.93 511.2 90.6652 511.2 89.105C511.2 87.5448 509.933 86.28 508.37 86.28Z" fill="white"/>
<path d="M438.78 438.47C450.593 438.47 460.17 428.893 460.17 417.08C460.17 405.267 450.593 395.69 438.78 395.69C426.967 395.69 417.39 405.267 417.39 417.08C417.39 428.893 426.967 438.47 438.78 438.47Z" fill="#2D2C2C"/>
<path d="M379.32 41.49H194.89C175.599 41.49 159.96 57.1287 159.96 76.42V545.42C159.96 564.711 175.599 580.35 194.89 580.35H379.32C398.611 580.35 414.25 564.711 414.25 545.42V76.42C414.25 57.1287 398.611 41.49 379.32 41.49Z" fill="#FF7B00"/>
<path d="M379.32 41.49H194.89C175.599 41.49 159.96 57.1287 159.96 76.42V545.42C159.96 564.711 175.599 580.35 194.89 580.35H379.32C398.611 580.35 414.25 564.711 414.25 545.42V76.42C414.25 57.1287 398.611 41.49 379.32 41.49Z" fill="white"/>
<path d="M416.81 41.49H191.5C184.403 41.49 178.65 47.2432 178.65 54.34V567.5C178.65 574.597 184.403 580.35 191.5 580.35H416.81C423.907 580.35 429.66 574.597 429.66 567.5V54.34C429.66 47.2432 423.907 41.49 416.81 41.49Z" fill="#2F2E41"/>
<path d="M422.36 555.9L184.31 558.28L188.14 67.75H422.36V555.9Z" fill="#FF7B00"/>
<path d="M301.72 207.82C321.094 207.82 336.8 192.114 336.8 172.74C336.8 153.366 321.094 137.66 301.72 137.66C282.346 137.66 266.64 153.366 266.64 172.74C266.64 192.114 282.346 207.82 301.72 207.82Z" fill="white"/>
<path d="M301.54 170.37C307.764 170.37 312.81 165.324 312.81 159.1C312.81 152.876 307.764 147.83 301.54 147.83C295.316 147.83 290.27 152.876 290.27 159.1C290.27 165.324 295.316 170.37 301.54 170.37Z" fill="#FF7B00"/>
<path d="M282.45 190.73C282.45 190.73 301.54 201.28 321.17 190.73V183C321.171 182.15 321.001 181.309 320.672 180.526C320.342 179.742 319.858 179.033 319.25 178.44C316.82 176.121 313.609 174.797 310.25 174.73C310.25 174.73 300.33 172.9 290.86 175.39C290.434 175.5 290.021 175.658 289.63 175.86C288.054 176.657 286.536 177.566 285.09 178.58C284.267 179.17 283.596 179.947 283.133 180.848C282.671 181.749 282.43 182.747 282.43 183.76L282.45 190.73Z" fill="#FF7B00"/>
<path d="M378.3 232.48H223.98C218.993 232.48 214.95 236.523 214.95 241.51C214.95 246.497 218.993 250.54 223.98 250.54H378.3C383.287 250.54 387.33 246.497 387.33 241.51C387.33 236.523 383.287 232.48 378.3 232.48Z" fill="white"/>
<path d="M311.45 244H274.3C273.637 244 273.001 243.737 272.532 243.268C272.063 242.799 271.8 242.163 271.8 241.5C271.8 240.837 272.063 240.201 272.532 239.732C273.001 239.263 273.637 239 274.3 239H311.45C312.113 239 312.749 239.263 313.218 239.732C313.687 240.201 313.95 240.837 313.95 241.5C313.95 242.163 313.687 242.799 313.218 243.268C312.749 243.737 312.113 244 311.45 244Z" fill="#FF7B00"/>
<path d="M355.38 243.9H318.23C317.567 243.9 316.931 243.637 316.462 243.168C315.993 242.699 315.73 242.063 315.73 241.4C315.73 240.737 315.993 240.101 316.462 239.632C316.931 239.163 317.567 238.9 318.23 238.9H355.38C356.043 238.9 356.679 239.163 357.148 239.632C357.617 240.101 357.88 240.737 357.88 241.4C357.88 242.063 357.617 242.699 357.148 243.168C356.679 243.637 356.043 243.9 355.38 243.9Z" fill="#FF7B00"/>
<path d="M311.45 244H274.3C273.637 244 273.001 243.737 272.532 243.268C272.063 242.799 271.8 242.163 271.8 241.5C271.8 240.837 272.063 240.201 272.532 239.732C273.001 239.263 273.637 239 274.3 239H311.45C312.113 239 312.749 239.263 313.218 239.732C313.687 240.201 313.95 240.837 313.95 241.5C313.95 242.163 313.687 242.799 313.218 243.268C312.749 243.737 312.113 244 311.45 244Z" fill="white"/>
<path d="M355.38 243.9H318.23C317.567 243.9 316.931 243.637 316.462 243.168C315.993 242.699 315.73 242.063 315.73 241.4C315.73 240.737 315.993 240.101 316.462 239.632C316.931 239.163 317.567 238.9 318.23 238.9H355.38C356.043 238.9 356.679 239.163 357.148 239.632C357.617 240.101 357.88 240.737 357.88 241.4C357.88 242.063 357.617 242.699 357.148 243.168C356.679 243.637 356.043 243.9 355.38 243.9Z" fill="white"/>
<path d="M378.3 262.67H223.98C218.993 262.67 214.95 266.713 214.95 271.7C214.95 276.687 218.993 280.73 223.98 280.73H378.3C383.287 280.73 387.33 276.687 387.33 271.7C387.33 266.713 383.287 262.67 378.3 262.67Z" fill="white"/>
<path d="M266.54 274.94C268.329 274.94 269.78 273.489 269.78 271.7C269.78 269.911 268.329 268.46 266.54 268.46C264.751 268.46 263.3 269.911 263.3 271.7C263.3 273.489 264.751 274.94 266.54 274.94Z" fill="#FF7B00"/>
<path d="M277.24 274.94C279.029 274.94 280.48 273.489 280.48 271.7C280.48 269.911 279.029 268.46 277.24 268.46C275.451 268.46 274 269.911 274 271.7C274 273.489 275.451 274.94 277.24 274.94Z" fill="#FF7B00"/>
<path d="M288.61 274.94C290.399 274.94 291.85 273.489 291.85 271.7C291.85 269.911 290.399 268.46 288.61 268.46C286.821 268.46 285.37 269.911 285.37 271.7C285.37 273.489 286.821 274.94 288.61 274.94Z" fill="#FF7B00"/>
<path d="M299.98 274.94C301.769 274.94 303.22 273.489 303.22 271.7C303.22 269.911 301.769 268.46 299.98 268.46C298.191 268.46 296.74 269.911 296.74 271.7C296.74 273.489 298.191 274.94 299.98 274.94Z" fill="#FF7B00"/>
<path d="M310.26 274.94C312.049 274.94 313.5 273.489 313.5 271.7C313.5 269.911 312.049 268.46 310.26 268.46C308.471 268.46 307.02 269.911 307.02 271.7C307.02 273.489 308.471 274.94 310.26 274.94Z" fill="#FF7B00"/>
<path d="M321.19 274.94C322.979 274.94 324.43 273.489 324.43 271.7C324.43 269.911 322.979 268.46 321.19 268.46C319.401 268.46 317.95 269.911 317.95 271.7C317.95 273.489 319.401 274.94 321.19 274.94Z" fill="#FF7B00"/>
<path d="M331.9 274.94C333.689 274.94 335.14 273.489 335.14 271.7C335.14 269.911 333.689 268.46 331.9 268.46C330.111 268.46 328.66 269.911 328.66 271.7C328.66 273.489 330.111 274.94 331.9 274.94Z" fill="#FF7B00"/>
<path d="M343.26 274.94C345.049 274.94 346.5 273.489 346.5 271.7C346.5 269.911 345.049 268.46 343.26 268.46C341.471 268.46 340.02 269.911 340.02 271.7C340.02 273.489 341.471 274.94 343.26 274.94Z" fill="#FF7B00"/>
<path d="M354.64 274.94C356.429 274.94 357.88 273.489 357.88 271.7C357.88 269.911 356.429 268.46 354.64 268.46C352.851 268.46 351.4 269.911 351.4 271.7C351.4 273.489 352.851 274.94 354.64 274.94Z" fill="#FF7B00"/>
<path d="M266.54 274.94C268.329 274.94 269.78 273.489 269.78 271.7C269.78 269.911 268.329 268.46 266.54 268.46C264.751 268.46 263.3 269.911 263.3 271.7C263.3 273.489 264.751 274.94 266.54 274.94Z" fill="white"/>
<path d="M277.24 274.94C279.029 274.94 280.48 273.489 280.48 271.7C280.48 269.911 279.029 268.46 277.24 268.46C275.451 268.46 274 269.911 274 271.7C274 273.489 275.451 274.94 277.24 274.94Z" fill="white"/>
<path d="M288.61 274.94C290.399 274.94 291.85 273.489 291.85 271.7C291.85 269.911 290.399 268.46 288.61 268.46C286.821 268.46 285.37 269.911 285.37 271.7C285.37 273.489 286.821 274.94 288.61 274.94Z" fill="white"/>
<path d="M299.98 274.94C301.769 274.94 303.22 273.489 303.22 271.7C303.22 269.911 301.769 268.46 299.98 268.46C298.191 268.46 296.74 269.911 296.74 271.7C296.74 273.489 298.191 274.94 299.98 274.94Z" fill="white"/>
<path d="M310.26 274.94C312.049 274.94 313.5 273.489 313.5 271.7C313.5 269.911 312.049 268.46 310.26 268.46C308.471 268.46 307.02 269.911 307.02 271.7C307.02 273.489 308.471 274.94 310.26 274.94Z" fill="white"/>
<path d="M321.19 274.94C322.979 274.94 324.43 273.489 324.43 271.7C324.43 269.911 322.979 268.46 321.19 268.46C319.401 268.46 317.95 269.911 317.95 271.7C317.95 273.489 319.401 274.94 321.19 274.94Z" fill="white"/>
<path d="M331.9 274.94C333.689 274.94 335.14 273.489 335.14 271.7C335.14 269.911 333.689 268.46 331.9 268.46C330.111 268.46 328.66 269.911 328.66 271.7C328.66 273.489 330.111 274.94 331.9 274.94Z" fill="white"/>
<path d="M343.26 274.94C345.049 274.94 346.5 273.489 346.5 271.7C346.5 269.911 345.049 268.46 343.26 268.46C341.471 268.46 340.02 269.911 340.02 271.7C340.02 273.489 341.471 274.94 343.26 274.94Z" fill="white"/>
<path d="M354.64 274.94C356.429 274.94 357.88 273.489 357.88 271.7C357.88 269.911 356.429 268.46 354.64 268.46C352.851 268.46 351.4 269.911 351.4 271.7C351.4 273.489 352.851 274.94 354.64 274.94Z" fill="white"/>
<path d="M329.08 299.52H271.23C266.016 299.52 261.79 303.746 261.79 308.96C261.79 314.174 266.016 318.4 271.23 318.4H329.08C334.294 318.4 338.52 314.174 338.52 308.96C338.52 303.746 334.294 299.52 329.08 299.52Z" fill="#2F2E41"/>
<path d="M338.39 412.43C338.46 411.43 338.5 410.43 338.5 409.43C338.332 398.7 333.952 388.466 326.305 380.938C318.657 373.409 308.356 369.189 297.625 369.189C286.894 369.189 276.593 373.409 268.945 380.938C261.298 388.466 256.918 398.7 256.75 409.43C256.75 410.37 256.75 411.3 256.85 412.23L267.14 412.18C267.06 411.27 267.01 410.36 267.01 409.43C267.01 401.312 270.235 393.526 275.975 387.785C281.716 382.045 289.502 378.82 297.62 378.82C305.738 378.82 313.524 382.045 319.265 387.785C325.005 393.526 328.23 401.312 328.23 409.43C328.23 410.43 328.23 411.33 328.1 412.27L338.39 412.43Z" fill="white"/>
<path d="M340.75 488.67C326.92 489.93 311.75 490.67 295.41 490.67C280.98 490.59 267.49 489.86 255.06 488.67C253.338 488.651 251.689 487.967 250.46 486.76C249.854 486.157 249.373 485.44 249.045 484.651C248.718 483.861 248.549 483.015 248.55 482.16V417.08H347.26V482.16C347.257 483.886 346.571 485.54 345.35 486.76C344.13 487.981 342.476 488.667 340.75 488.67Z" fill="white"/>
<path d="M308.76 442.36C309.003 444.721 308.493 447.099 307.302 449.152C306.111 451.205 304.3 452.829 302.13 453.79V472.79C302.13 473.998 301.651 475.156 300.798 476.011C299.945 476.866 298.788 477.347 297.58 477.35C296.371 477.35 295.211 476.87 294.356 476.014C293.5 475.159 293.02 473.999 293.02 472.79V453.79C291.211 452.991 289.645 451.728 288.48 450.131C287.314 448.533 286.59 446.657 286.381 444.69C286.172 442.724 286.485 440.737 287.288 438.93C288.092 437.123 289.357 435.559 290.958 434.397C292.558 433.235 294.436 432.516 296.403 432.311C298.37 432.106 300.356 432.423 302.161 433.231C303.967 434.038 305.527 435.307 306.686 436.91C307.844 438.513 308.56 440.393 308.76 442.36Z" fill="#FF7B00"/>
<path d="M0 334.24C0 334.24 73.83 318.84 109.14 274.95C109.14 274.95 154.08 322.77 216.45 334.24V430.54C216.45 430.54 226.54 516.92 108.22 580.35C108.22 580.35 2.28 534.16 0 427.65V334.24Z" fill="#E6E7E8"/>
<path d="M7.14 340.41C7.14 340.41 76.09 326 109.07 285C109.07 285 151.07 329.66 209.28 340.37V430.31C209.28 430.31 218.7 511 108.21 570.25C108.21 570.25 9.27 527.12 7.14 427.65V340.41Z" fill="#FF7B00"/>
<path d="M37.64 432.27C37.64 432.27 72.12 449.74 73.76 481.48L98.94 485.31C98.94 485.31 136.15 409.24 194.71 384.61L189.23 374.22C189.23 374.22 147.64 374.76 91.82 439.34C91.82 439.34 91.82 421.83 62.82 406.5L37.64 432.27Z" fill="#2F2E41"/>
<path d="M85.3 213.15C97.1134 213.15 106.69 203.573 106.69 191.76C106.69 179.947 97.1134 170.37 85.3 170.37C73.4866 170.37 63.91 179.947 63.91 191.76C63.91 203.573 73.4866 213.15 85.3 213.15Z" fill="#2D2C2C"/>
<path d="M374.38 240.6C375.717 240.6 376.8 239.517 376.8 238.18C376.8 236.843 375.717 235.76 374.38 235.76C373.043 235.76 371.96 236.843 371.96 238.18C371.96 239.517 373.043 240.6 374.38 240.6Z" fill="#2F2E41"/>
<path d="M370.28 245C371.57 245.647 372.992 245.983 374.435 245.983C375.878 245.983 377.3 245.647 378.59 245V243.34C378.592 243.154 378.557 242.97 378.486 242.799C378.416 242.627 378.312 242.471 378.18 242.34C377.658 241.844 376.97 241.562 376.25 241.55C374.868 241.324 373.454 241.372 372.09 241.69C371.997 241.715 371.907 241.748 371.82 241.79C371.473 241.958 371.138 242.152 370.82 242.37C370.643 242.498 370.499 242.667 370.4 242.861C370.301 243.056 370.25 243.272 370.25 243.49L370.28 245Z" fill="#2F2E41"/>
</svg>
