<svg width="485" height="509" viewBox="0 0 485 509" fill="none" xmlns="http://www.w3.org/2000/svg">
<path d="M332.691 356.061C327.447 360.823 322.253 366.122 316.718 370.935C315.195 372.273 313.638 373.566 312.045 374.815C310.276 376.201 308.452 377.52 306.584 378.727C306.449 378.375 306.282 378.034 306.087 377.704C302.954 372.115 294.452 368.576 293.397 362.238C292.435 356.318 298.361 350.879 297.393 345.077C296.301 338.515 287.34 334.619 285.683 328.207C284.628 324.227 285.571 319.638 285.187 315.535C284.747 310.948 283.885 306.4 282.611 301.941C283.232 301.902 283.852 301.885 284.473 301.868C297.071 301.678 309.469 308.05 313.547 317.005C316.829 324.272 315.16 332.606 319.523 339.398C319.785 339.837 320.082 340.259 320.41 340.661C320.988 341.374 321.61 342.057 322.272 342.707L323.656 344.004C323.885 344.211 324.14 344.401 324.369 344.624C324.599 344.848 324.847 345.043 325.077 345.267C327.249 347.14 329.464 349.023 330.904 351.259C331.034 351.454 331.151 351.655 331.251 351.863C331.382 352.07 331.498 352.286 331.599 352.506C331.729 352.746 331.828 352.975 331.922 353.199C332.015 353.423 332.132 353.758 332.232 353.993C332.368 354.412 332.499 354.809 332.598 355.222C332.598 355.329 332.598 355.418 332.635 355.502C332.672 355.586 332.635 355.569 332.635 355.608C332.644 355.641 332.644 355.676 332.635 355.709C332.635 355.781 332.635 355.832 332.672 355.882V355.916C332.664 355.965 332.67 356.015 332.691 356.061Z" fill="#D8995C"/>
<path d="M332.772 356.407H332.791L332.772 356.424V356.407Z" fill="#D8995C"/>
<path d="M332.811 356.374C332.966 356.251 333.096 356.167 333.251 356.044C333.121 356.15 332.966 356.268 332.829 356.391C332.829 356.391 332.829 356.391 332.792 356.391L332.811 356.374Z" fill="#D8995C"/>
<path d="M376.913 328.855C376.779 330.805 376.779 332.759 376.913 334.708C373.127 335.541 369.398 336.458 365.743 337.564C363.471 338.241 361.243 338.984 359.016 339.834C352.835 342.092 347.014 345.081 341.708 348.721C342.864 346.946 343.678 345.007 344.116 342.986C344.116 342.903 344.153 342.813 344.172 342.712C345.134 338.526 345.208 334.127 347.399 330.124C351.476 322.746 363.397 317.396 375.876 317.05H376.106C377.242 317.05 378.396 317.05 379.55 317.1C378.257 320.934 377.374 324.871 376.913 328.855Z" fill="#D8995C"/>
<path d="M371.242 323.467L365.706 337.542C363.435 338.218 361.207 338.962 358.979 339.811C362.535 333.584 366.606 327.956 371.242 323.467Z" fill="#D8995C"/>
<path d="M332.833 356.43C332.833 356.318 332.815 356.207 332.777 356.1C332.815 356.307 332.833 356.43 332.833 356.43Z" fill="#D8995C"/>
<path d="M290.741 309.319C303.153 323.814 311.394 348.448 316.718 370.935C315.196 372.273 313.638 373.566 312.045 374.814L290.741 309.319Z" fill="#D8995C"/>
<path d="M334.567 333.758C332.084 340.583 331.991 347.476 332.283 351.841C332.357 353.251 332.523 354.657 332.779 356.05L334.567 333.758Z" fill="#D8995C"/>
<path d="M332.691 356.061C327.447 360.823 322.253 366.122 316.718 370.935C315.195 372.273 313.638 373.566 312.045 374.815C310.276 376.201 308.452 377.52 306.584 378.727C306.449 378.375 306.282 378.034 306.087 377.704C302.954 372.115 294.452 368.576 293.397 362.238C292.435 356.318 298.361 350.879 297.393 345.077C296.301 338.515 287.34 334.619 285.683 328.207C284.628 324.227 285.571 319.638 285.187 315.535C284.747 310.948 283.885 306.4 282.611 301.941C283.232 301.902 283.852 301.885 284.473 301.868C297.071 301.678 309.469 308.05 313.547 317.005C316.829 324.272 315.16 332.606 319.523 339.398C319.785 339.837 320.082 340.259 320.41 340.661C320.988 341.374 321.61 342.057 322.272 342.707L323.656 344.004C323.885 344.211 324.14 344.401 324.369 344.624C324.599 344.848 324.847 345.043 325.077 345.267C327.249 347.14 329.464 349.023 330.904 351.259C331.034 351.454 331.151 351.655 331.251 351.863C331.382 352.07 331.498 352.286 331.599 352.506C331.729 352.746 331.828 352.975 331.922 353.199C332.015 353.423 332.132 353.758 332.232 353.993C332.368 354.412 332.499 354.809 332.598 355.222C332.598 355.329 332.598 355.418 332.635 355.502C332.672 355.586 332.635 355.569 332.635 355.608C332.644 355.641 332.644 355.676 332.635 355.709C332.635 355.781 332.635 355.832 332.672 355.882V355.916C332.664 355.965 332.67 356.015 332.691 356.061Z" stroke="#1F1F1F" stroke-width="4.65" stroke-miterlimit="10"/>
<path d="M344.116 343.003C343.676 345.018 342.862 346.951 341.708 348.722" stroke="#1F1F1F" stroke-width="4.65" stroke-miterlimit="10"/>
<path d="M376.895 334.708C376.762 332.759 376.762 330.805 376.895 328.855C377.358 324.876 378.242 320.945 379.533 317.117C378.379 317.05 377.224 317.05 376.089 317.067H375.859C363.379 317.413 351.458 322.763 347.381 330.141C345.191 334.143 345.116 338.526 344.154 342.729" stroke="#1F1F1F" stroke-width="4.65" stroke-miterlimit="10"/>
<path d="M344.122 343.009C344.122 342.919 344.159 342.836 344.177 342.729" stroke="#1F1F1F" stroke-width="4.65" stroke-miterlimit="10"/>
<path d="M344.172 342.707C344.172 342.808 344.134 342.897 344.116 342.981C343.679 345.003 342.865 346.945 341.708 348.721" stroke="#1F1F1F" stroke-width="4.65" stroke-miterlimit="10"/>
<path d="M344.122 343.009C344.122 342.919 344.159 342.836 344.177 342.729" stroke="#1F1F1F" stroke-width="4.65" stroke-miterlimit="10"/>
<path d="M332.772 356.324V356.407" stroke="#1F1F1F" stroke-width="4.65" stroke-miterlimit="10"/>
<path d="M371.242 323.467C366.606 327.939 362.554 333.584 358.979 339.834" stroke="#1F1F1F" stroke-width="4.65" stroke-miterlimit="10"/>
<path d="M332.833 356.43C332.833 356.318 332.815 356.207 332.777 356.1C332.815 356.307 332.833 356.43 332.833 356.43Z" stroke="#1F1F1F" stroke-width="4.65" stroke-miterlimit="10"/>
<path d="M290.741 309.319C303.153 323.814 311.394 348.448 316.718 370.935" stroke="#1F1F1F" stroke-width="4.65" stroke-miterlimit="10"/>
<path d="M334.567 333.758C332.084 340.583 331.991 347.476 332.283 351.841C332.357 353.251 332.523 354.657 332.779 356.05" stroke="#1F1F1F" stroke-width="4.65" stroke-miterlimit="10"/>
<path d="M466.566 172.857C474.466 199.509 482.614 228.223 481.944 255.619C481.23 284.49 464.909 308.721 435.668 321.019C416.635 329.018 396.175 330.488 376.894 334.697C373.109 335.53 369.379 336.446 365.724 337.553C363.453 338.23 361.225 338.973 358.997 339.823C352.822 342.086 347.008 345.078 341.708 348.722" stroke="#1F1F1F" stroke-width="4.65" stroke-miterlimit="10"/>
<path d="M150.816 21.1615C150.816 21.1615 113.979 13.5874 83.3166 22.9223C79.497 24.0559 75.796 25.4925 72.2581 27.2153C54.8823 35.6839 41.7697 51.5979 42.7316 80.5026C43.2466 95.5949 42.2662 110.48 38.9647 124.924C37.885 129.612 36.5507 134.251 34.9621 138.843C31.0705 150.068 25.4538 160.747 18.2751 170.57C-4.58661 201.795 -1.12384 234.249 24.2325 264.344C25.5605 265.92 26.9258 267.48 28.3282 269.006" stroke="#1F1F1F" stroke-width="4.65" stroke-miterlimit="10"/>
<path d="M419.224 7.33257H192.494C166.344 7.33257 145.145 26.4275 145.145 49.9825V242.46C145.145 266.015 166.344 285.11 192.494 285.11H419.224C445.374 285.11 466.573 266.015 466.573 242.46V49.9825C466.573 26.4275 445.374 7.33257 419.224 7.33257Z" fill="#FAEDCD"/>
<path d="M416.078 3.27454H190.949C163.061 3.27454 140.453 23.6384 140.453 48.7584V239.626C140.453 264.746 163.061 285.11 190.949 285.11H416.078C443.966 285.11 466.573 264.746 466.573 239.626V48.7584C466.573 23.6384 443.966 3.27454 416.078 3.27454Z" stroke="black" stroke-width="4.65" stroke-miterlimit="10"/>
<path d="M412.9 12.7941H198.817C172.667 12.7941 151.468 31.8891 151.468 55.4437V236.993C151.468 260.549 172.667 279.643 198.817 279.643H412.9C439.051 279.643 460.249 260.549 460.249 236.993V55.4437C460.249 31.8891 439.051 12.7941 412.9 12.7941Z" fill="#FAEDCD"/>
<path d="M423.765 26.8017H359.108C350.321 26.8017 343.191 33.7107 343.191 42.2128V177.015C343.191 185.534 350.321 192.46 359.108 192.46H423.765C432.571 192.46 439.727 185.534 439.727 177.015V42.2128C439.727 33.7107 432.571 26.8017 423.765 26.8017ZM435.147 177.602C435.135 180.436 433.88 183.151 431.655 185.154C429.43 187.157 426.415 188.287 423.269 188.295H359.648C356.498 188.287 353.479 187.156 351.249 185.151C349.02 183.146 347.761 180.429 347.746 177.591V41.6594C347.761 38.8214 349.02 36.1037 351.249 34.0987C353.479 32.0936 356.498 30.9637 359.648 30.9549H423.269C426.417 30.9638 429.433 32.0947 431.659 34.1003C433.885 36.1059 435.138 38.8237 435.147 41.6594V177.602Z" fill="#5A5D5F"/>
<path d="M422.915 208.279H358.258C349.477 208.279 342.341 215.188 342.341 223.69V244.193C342.341 252.717 349.477 259.643 358.258 259.643H422.915C431.721 259.643 438.876 252.717 438.876 244.193V223.69C438.876 215.188 431.721 208.279 422.915 208.279ZM434.296 244.786C434.288 247.621 433.034 250.338 430.809 252.342C428.583 254.347 425.567 255.477 422.419 255.484H358.798C355.649 255.477 352.63 254.348 350.4 252.344C348.17 250.34 346.911 247.623 346.896 244.786V223.136C346.911 220.298 348.17 217.581 350.399 215.576C352.629 213.571 355.648 212.441 358.798 212.432H422.419C425.567 212.441 428.583 213.572 430.809 215.577C433.035 217.583 434.288 220.301 434.296 223.136V244.786Z" fill="#5A5D5F"/>
<path d="M278.02 223.181L183.272 221.929C182.253 221.915 181.282 221.536 180.572 220.876C179.862 220.217 179.472 219.331 179.487 218.413C179.485 218.095 179.536 217.779 179.636 217.474C179.88 216.751 180.379 216.12 181.056 215.675C181.733 215.229 182.552 214.993 183.39 215.003L278.138 216.244C277.43 217.235 277.034 218.381 276.99 219.559C276.939 220.831 277.297 222.088 278.02 223.181Z" fill="#FAEDCD"/>
<path d="M300.993 220.945C300.752 221.666 300.26 222.299 299.589 222.747C298.919 223.197 298.105 223.439 297.27 223.438L290.443 223.349C291.175 222.319 291.574 221.125 291.594 219.901C291.616 218.678 291.258 217.473 290.561 216.423L297.387 216.513C298.405 216.532 299.373 216.912 300.082 217.57C300.791 218.228 301.183 219.112 301.173 220.029C301.161 220.34 301.1 220.649 300.993 220.945Z" fill="#5A5D5F"/>
<path d="M300.77 234.69C300.53 235.41 300.037 236.041 299.367 236.487C298.695 236.934 297.882 237.172 297.047 237.167L202.876 235.926C203.755 234.981 204.319 233.831 204.503 232.609C204.686 231.387 204.481 230.144 203.912 229.022L297.134 230.219C298.152 230.237 299.121 230.616 299.831 231.275C300.539 231.933 300.931 232.817 300.919 233.735C300.923 234.058 300.873 234.38 300.77 234.69Z" fill="#5A5D5F"/>
<path d="M191.544 235.769L183.055 235.658C182.037 235.644 181.068 235.269 180.356 234.613C179.646 233.957 179.253 233.074 179.263 232.158C179.267 231.835 179.319 231.513 179.418 231.202C179.656 230.483 180.148 229.853 180.821 229.409C181.493 228.965 182.308 228.731 183.141 228.743L190.706 228.849C190.264 229.676 190.014 230.576 189.974 231.493C189.911 233.042 190.468 234.56 191.544 235.769Z" fill="#FAEDCD"/>
<path d="M271.318 250.722L183.403 249.57C182.386 249.55 181.418 249.17 180.71 248.512C180.001 247.854 179.609 246.971 179.617 246.054C179.619 245.744 179.674 245.435 179.779 245.138C180.017 244.416 180.509 243.783 181.18 243.333C181.851 242.884 182.666 242.642 183.502 242.645L271.287 243.807C270.571 244.845 270.191 246.043 270.191 247.265C270.191 248.487 270.571 249.684 271.287 250.722H271.318Z" fill="#FAEDCD"/>
<path d="M301.135 248.592C300.897 249.313 300.404 249.943 299.732 250.389C299.06 250.835 298.246 251.071 297.411 251.063L283.598 250.901L271.317 250.75C270.6 249.712 270.221 248.515 270.221 247.293C270.221 246.071 270.6 244.873 271.317 243.835L283.827 244.003L297.48 244.182C298.496 244.197 299.464 244.573 300.174 245.229C300.883 245.884 301.275 246.766 301.265 247.681C301.27 247.989 301.226 248.296 301.135 248.592Z" fill="#5A5D5F"/>
<path d="M290.406 223.349C289.452 224.692 287.989 225.678 286.289 226.123C284.589 226.568 282.768 226.442 281.163 225.769C279.558 225.096 278.279 223.921 277.563 222.463C276.847 221.004 276.743 219.361 277.27 217.839C277.797 216.316 278.92 215.018 280.43 214.185C281.939 213.352 283.733 213.041 285.478 213.309C287.223 213.577 288.801 214.407 289.919 215.643C291.036 216.88 291.617 218.44 291.554 220.034C291.509 221.212 291.112 222.357 290.406 223.349Z" fill="#D8995C"/>
<g opacity="0.72">
<path opacity="0.72" d="M287.656 219.324C287.492 220.111 287.081 220.839 286.471 221.42C286.175 221.717 285.851 221.989 285.503 222.237C285.31 222.359 284.311 223.081 284.119 222.991C282.803 222.393 281.146 220.889 280.942 219.419C280.907 219.189 280.907 218.956 280.942 218.726C281.014 218.33 281.243 217.971 281.584 217.714C281.925 217.456 282.358 217.318 282.803 217.323C283.095 217.333 283.38 217.404 283.635 217.531C283.891 217.658 284.11 217.838 284.274 218.055C284.461 217.853 284.695 217.691 284.96 217.582C285.226 217.472 285.515 217.419 285.807 217.424C286.07 217.432 286.328 217.488 286.566 217.59C286.803 217.691 287.015 217.835 287.188 218.013C287.362 218.191 287.493 218.4 287.573 218.625C287.654 218.851 287.682 219.088 287.656 219.324Z" fill="#FAEDCD"/>
</g>
<path d="M202.864 235.926C202.169 236.676 201.296 237.277 200.309 237.685C199.323 238.092 198.248 238.296 197.163 238.281C196.078 238.266 195.01 238.033 194.038 237.598C193.066 237.163 192.214 236.538 191.544 235.769C190.473 234.558 189.92 233.04 189.987 231.493C190.028 230.576 190.277 229.676 190.719 228.849C191.342 227.709 192.318 226.755 193.53 226.103C194.741 225.452 196.135 225.13 197.545 225.177C198.904 225.215 200.222 225.598 201.349 226.281C202.477 226.965 203.367 227.92 203.919 229.039C204.488 230.161 204.693 231.404 204.509 232.626C204.326 233.848 203.762 234.997 202.882 235.943L202.864 235.926Z" fill="#D8995C"/>
<g opacity="0.72">
<path opacity="0.72" d="M200.659 231.247C200.491 232.032 200.078 232.757 199.468 233.338C199.176 233.638 198.852 233.911 198.5 234.154C198.314 234.277 197.308 235.003 197.122 234.908C195.807 234.316 194.15 232.812 193.939 231.337C193.905 231.106 193.905 230.873 193.939 230.643C194.003 230.316 194.173 230.013 194.428 229.773C194.684 229.533 195.012 229.367 195.373 229.296C195.733 229.225 196.109 229.252 196.453 229.373C196.796 229.494 197.092 229.705 197.302 229.978C197.549 229.67 197.903 229.446 198.309 229.343C198.715 229.24 199.147 229.265 199.536 229.412C199.924 229.56 200.245 229.821 200.448 230.155C200.649 230.488 200.72 230.873 200.647 231.247H200.659Z" fill="#FAEDCD"/>
</g>
<path d="M283.6 250.901C282.723 252.092 281.439 252.995 279.943 253.47C278.446 253.946 276.817 253.969 275.305 253.536C273.792 253.104 272.477 252.238 271.56 251.071C270.642 249.905 270.172 248.5 270.22 247.072C270.266 245.926 270.64 244.811 271.306 243.835C271.817 243.1 272.485 242.462 273.27 241.96C274.055 241.459 274.944 241.102 275.883 240.911C276.822 240.72 277.795 240.699 278.743 240.848C279.692 240.997 280.599 241.315 281.41 241.781C282.222 242.248 282.923 242.855 283.474 243.567C284.023 244.279 284.411 245.082 284.615 245.93C284.818 246.778 284.834 247.654 284.659 248.507C284.485 249.36 284.125 250.173 283.6 250.901Z" fill="#D8995C"/>
<g opacity="0.72">
<path opacity="0.72" d="M280.9 246.798C280.733 247.585 280.319 248.312 279.708 248.894C279.416 249.194 279.092 249.468 278.74 249.71C278.554 249.833 277.549 250.554 277.362 250.465C276.047 249.867 274.39 248.369 274.179 246.893C274.145 246.663 274.145 246.429 274.179 246.2C274.243 245.872 274.413 245.569 274.669 245.329C274.924 245.09 275.253 244.924 275.613 244.852C275.974 244.781 276.35 244.808 276.693 244.929C277.037 245.05 277.332 245.261 277.542 245.535C277.788 245.227 278.143 245.004 278.548 244.902C278.952 244.799 279.384 244.823 279.772 244.969C280.16 245.116 280.481 245.376 280.684 245.708C280.886 246.04 280.958 246.424 280.887 246.798H280.9Z" fill="#FAEDCD"/>
</g>
<path d="M178.76 43.163L178.921 63.3924C178.962 66.9206 180.516 70.2985 183.259 72.8184C186.001 75.3382 189.719 76.8061 193.635 76.914L215.863 77.2606C217.775 77.2868 219.672 76.9671 221.444 76.3204C223.216 75.6731 224.825 74.7122 226.177 73.4942C227.528 72.2767 228.594 70.8267 229.312 69.2303C230.03 67.6344 230.383 65.9245 230.354 64.2029L230.186 43.9735C230.147 40.4453 228.595 37.068 225.853 34.5481C223.111 32.0288 219.394 30.5627 215.479 30.4574L193.25 30.1053C191.338 30.0788 189.44 30.3985 187.668 31.0455C185.897 31.6923 184.288 32.6532 182.936 33.8712C181.584 35.0892 180.518 36.5392 179.801 38.135C179.084 39.7315 178.729 41.4414 178.76 43.163Z" fill="#D8995C"/>
<path d="M182.179 48.2385L182.297 62.8837C182.333 65.9474 183.684 68.8798 186.065 71.0671C188.446 73.2549 191.674 74.5288 195.074 74.6222L214.38 74.924C216.04 74.9469 217.688 74.6691 219.227 74.1073C220.766 73.5461 222.164 72.7121 223.339 71.6551C224.514 70.5981 225.441 69.3393 226.066 67.9536C226.691 66.5679 227 65.0838 226.977 63.588V62.5986C224.266 57.6014 218.985 50.1223 213.325 54.5941C205.202 61.0223 201.485 56.1313 196.75 49.8204C192.797 44.5381 186.783 40.6812 182.179 48.2385Z" fill="#FAEDCD"/>
<path d="M218.501 46.2161C220.953 44.7488 221.585 41.7203 219.912 39.4525C218.239 37.1848 214.895 36.5358 212.443 38.0031C209.991 39.471 209.359 42.499 211.032 44.7667C212.705 47.0345 216.049 47.6835 218.501 46.2161Z" fill="#FAEDCD"/>
<path d="M307.887 51.3464C304.413 51.3453 301.024 52.3129 298.185 54.1167C295.346 55.92 293.197 58.4712 292.032 61.4192C290.867 64.3672 290.744 67.5679 291.679 70.5814C292.615 73.5948 294.564 76.274 297.257 78.25L253.197 159.139C252.926 159.101 252.652 159.077 252.378 159.067C251.675 159.075 250.977 159.173 250.305 159.357L221.641 127.278C222.921 125.687 223.645 123.789 223.723 121.825C223.8 119.862 223.226 117.923 222.074 116.254C220.923 114.586 219.246 113.264 217.256 112.458C215.267 111.652 213.057 111.398 210.907 111.728C208.757 112.058 206.765 112.958 205.185 114.312C203.604 115.666 202.508 117.413 202.035 119.331C201.562 121.249 201.734 123.251 202.529 125.08C203.324 126.909 204.706 128.484 206.499 129.603L186.411 181.096C184.66 181.19 182.999 181.828 181.71 182.9C180.422 183.973 179.585 185.415 179.343 186.98C179.1 188.545 179.466 190.138 180.38 191.487C181.293 192.837 182.697 193.86 184.352 194.382C186.009 194.905 187.814 194.895 189.463 194.355C191.112 193.814 192.502 192.776 193.397 191.417C194.293 190.058 194.638 188.462 194.375 186.899C194.111 185.336 193.256 183.904 191.953 182.845L212.041 131.347C212.289 131.347 212.531 131.381 212.779 131.381C214.273 131.381 215.751 131.107 217.123 130.576L245.781 162.644C245.177 163.631 244.857 164.737 244.85 165.864C244.821 166.777 244.996 167.686 245.364 168.537C245.731 169.389 246.286 170.165 246.992 170.82C247.699 171.475 248.544 171.995 249.478 172.351C250.412 172.707 251.416 172.89 252.43 172.89C253.444 172.89 254.448 172.707 255.382 172.351C256.316 171.995 257.162 171.475 257.869 170.82C258.576 170.165 259.129 169.389 259.497 168.537C259.865 167.686 260.04 166.777 260.011 165.864C260.006 164.345 259.433 162.872 258.385 161.683L302.445 80.7933C304.761 81.5278 307.227 81.7966 309.671 81.5814C312.115 81.3662 314.476 80.6714 316.59 79.5468C318.704 78.4216 320.519 76.8933 321.908 75.0694C323.296 73.2454 324.224 71.17 324.628 68.9883C325.031 66.8066 324.899 64.5718 324.242 62.441C323.584 60.3102 322.417 58.3348 320.821 56.6539C319.226 54.9725 317.242 53.6265 315.007 52.7092C312.772 51.7925 310.343 51.3274 307.887 51.3464Z" fill="#5A5D5F"/>
<path d="M361.133 80.497H420.087" stroke="#D8995C" stroke-width="4.65" stroke-miterlimit="10"/>
<path d="M361.133 88.6972H420.087" stroke="#D8995C" stroke-width="4.65" stroke-miterlimit="10"/>
<path d="M361.133 96.8918H420.087" stroke="#D8995C" stroke-width="4.65" stroke-miterlimit="10"/>
<path d="M361.133 105.086H420.087" stroke="#D8995C" stroke-width="4.65" stroke-miterlimit="10"/>
<path d="M361.133 113.287H420.087" stroke="#D8995C" stroke-width="4.65" stroke-miterlimit="10"/>
<path d="M361.133 161.157H420.087" stroke="#D8995C" stroke-width="4.65" stroke-miterlimit="10"/>
<path d="M361.133 168.39H420.087" stroke="#D8995C" stroke-width="4.65" stroke-miterlimit="10"/>
<path d="M407.7 223.779C408.293 224.222 408.768 224.779 409.09 225.409C409.412 226.038 409.574 226.725 409.562 227.418L409.425 243.813C409.421 244.432 409.28 245.044 409.013 245.613C408.745 246.184 408.354 246.7 407.864 247.133C407.374 247.567 406.794 247.909 406.157 248.141C405.52 248.371 404.838 248.487 404.151 248.48L376.846 248.268C375.461 248.256 374.138 247.75 373.168 246.86C372.198 245.97 371.659 244.77 371.67 243.522L371.831 227.116C371.884 225.88 372.458 224.709 373.438 223.843C374.417 222.976 375.727 222.48 377.1 222.454L404.405 222.667C405.615 222.676 406.782 223.07 407.7 223.779Z" fill="#D8995C"/>
<path d="M403.839 226.775L391.105 236.63C390.942 236.755 390.736 236.824 390.522 236.824C390.308 236.824 390.101 236.755 389.938 236.63L376.975 226.569C376.831 226.46 376.729 226.314 376.684 226.15C376.638 225.987 376.65 225.815 376.718 225.657C376.787 225.501 376.909 225.367 377.066 225.276C377.223 225.185 377.408 225.14 377.595 225.149L403.293 225.356C403.473 225.361 403.648 225.415 403.794 225.512C403.939 225.609 404.048 225.742 404.108 225.896C404.167 226.05 404.173 226.216 404.124 226.373C404.077 226.53 403.977 226.67 403.839 226.775Z" fill="#FAEDCD"/>
<path d="M391.466 126.462C388.745 126.459 386.085 127.184 383.822 128.544C381.559 129.903 379.795 131.837 378.752 134.101C377.709 136.364 377.435 138.855 377.964 141.258C378.493 143.662 379.802 145.87 381.725 147.603C383.648 149.337 386.098 150.518 388.766 150.997C391.434 151.475 394.199 151.231 396.713 150.294C399.226 149.356 401.375 147.769 402.886 145.731C404.398 143.694 405.205 141.299 405.205 138.849C405.206 137.222 404.851 135.613 404.161 134.11C403.471 132.608 402.459 131.242 401.183 130.092C399.908 128.942 398.392 128.029 396.725 127.406C395.058 126.783 393.271 126.462 391.466 126.462ZM391.466 148.262C390.933 148.262 390.421 148.071 390.044 147.731C389.667 147.391 389.455 146.931 389.455 146.451C389.455 145.97 389.667 145.509 390.044 145.17C390.421 144.83 390.933 144.639 391.466 144.639C391.999 144.639 392.51 144.83 392.887 145.17C393.265 145.509 393.476 145.97 393.476 146.451C393.476 146.931 393.265 147.391 392.887 147.731C392.51 148.071 391.999 148.262 391.466 148.262ZM393.991 134.332C393.569 137.021 393.209 139.843 392.322 142.448C392.239 142.59 392.115 142.709 391.963 142.792C391.811 142.874 391.637 142.918 391.459 142.918C391.282 142.918 391.108 142.874 390.955 142.792C390.803 142.709 390.679 142.59 390.597 142.448C389.968 140.486 389.487 138.488 389.157 136.467C388.878 135.003 387.916 132.616 388.841 131.196C389.641 129.916 391.906 129.765 393.185 130.43C394.817 131.218 394.184 132.957 393.991 134.31V134.332Z" fill="#D8995C"/>
<path d="M308.131 77.9146C314.951 77.9146 320.48 72.9346 320.48 66.7909C320.48 60.6478 314.951 55.6673 308.131 55.6673C301.311 55.6673 295.781 60.6478 295.781 66.7909C295.781 72.9346 301.311 77.9146 308.131 77.9146Z" fill="#D8995C"/>
<path d="M391.366 50.8545C393.645 50.8545 395.493 49.1905 395.493 47.1373C395.493 45.0848 393.645 43.4202 391.366 43.4202C389.087 43.4202 387.239 45.0848 387.239 47.1373C387.239 49.1905 389.087 50.8545 391.366 50.8545Z" fill="#D8995C"/>
<path d="M379.841 63.9457C379.841 61.1928 381.055 58.5522 383.216 56.6058C385.378 54.6589 388.308 53.5656 391.365 53.5656C394.421 53.5656 397.353 54.6589 399.513 56.6058C401.675 58.5522 402.889 61.1928 402.889 63.9457H379.841Z" fill="#D8995C"/>
<path d="M311.994 419.259C311.992 420.103 311.704 420.927 311.168 421.62C310.633 422.313 309.876 422.842 308.997 423.138L265.775 437.671C265.775 437.671 263.714 434.228 260.121 428.476L235.435 391.276C228.764 422.188 221.323 453.138 216.713 472.428L212.269 491.635L230.08 496.911C231.151 497.144 232.103 497.694 232.787 498.472C233.469 499.25 233.843 500.212 233.846 501.204C233.845 501.877 233.674 502.541 233.346 503.146C233.017 503.75 232.54 504.279 231.952 504.694C231.363 505.107 230.677 505.396 229.946 505.536C229.216 505.676 228.459 505.665 227.734 505.503L186.454 496.079V486.99L185.473 486.816L186.324 380.796L145.987 372.204C140.929 373.624 135.586 374.926 130.125 375.983C130.067 375.99 130.008 376.001 129.951 376.016C116.697 379.146 102.852 379.684 89.3476 377.593C89.2297 377.593 89.0932 377.542 88.9815 377.52C88.001 377.352 87.0205 377.157 86.0586 376.961C85.767 376.911 85.4815 376.86 85.1898 376.788C84.3459 376.614 83.5019 376.391 82.6579 376.184C82.1925 376.061 81.7333 375.96 81.2927 375.837C80.8521 375.714 80.5232 375.614 80.1384 375.491C72.8703 373.435 66.1577 370.037 60.4292 365.513C56.0375 362.191 52.3135 358.213 49.4204 353.752C48.1793 351.986 47.0188 350.13 45.939 348.224C39.3858 336.569 38.0206 332.606 39.9257 332.5C35.7307 331.169 31.666 329.523 27.775 327.581C27.775 327.581 19.1988 282.5 37.9027 237.128C37.5452 234.321 37.6098 231.484 38.0951 228.693C42.0357 203.237 63.7244 177.071 89.6021 166.473C103.466 160.794 126.073 152.079 118.769 134.729C116.46 129.24 113.184 124.511 112.563 118.815C112.507 118.256 112.433 117.758 112.389 117.205C111.353 103.79 120.022 91.0505 134.059 86.4613C138.653 84.9034 143.562 84.2472 148.46 84.5367C153.357 84.8257 158.129 86.0538 162.457 88.1382C163.952 88.8487 165.293 89.7956 166.416 90.9331C170.685 91.0337 176.047 91.7101 178.566 92.7665C182.836 94.5664 186.255 97.7191 188.812 101.269C193.528 107.885 195.422 115.816 194.143 123.594C193.408 127.898 191.706 132.022 189.141 135.713C187.876 137.562 186.409 139.292 184.76 140.878C183.314 142.241 181.26 144.231 179.28 144.964C179.302 144.979 179.33 144.988 179.358 144.988C179.386 144.988 179.414 144.979 179.435 144.964L178.858 153.276C190.711 150.844 222.378 140.827 245.594 99.4686C247.269 96.2657 248.995 93.0796 250.807 89.9269C256.168 80.5417 261.915 71.2068 269.529 63.1352C271.391 61.1788 274.146 59.4124 277.106 60.2621C279.7 61.0055 281.45 63.6159 279.644 65.8071L267.183 81.1454L271.161 80.6815C271.595 80.7759 272.001 80.9543 272.35 81.2041C272.699 81.4545 272.983 81.7698 273.183 82.1292C273.383 82.4886 273.493 82.8827 273.506 83.2841C273.519 83.686 273.435 84.0851 273.259 84.4546L270.739 89.8431L271.931 88.5798C272.75 87.7078 273.913 87.155 275.174 87.037C276.436 86.9191 277.699 87.245 278.7 87.9465C279.701 88.6486 280.362 89.6715 280.545 90.8023C280.728 91.9325 280.419 93.0829 279.681 94.013L273.116 101.654C272.237 102.663 271.12 103.484 269.846 104.058L256.851 109.703C260.694 113.959 264.268 118.406 267.556 123.024C260.42 135.343 252.056 147.051 242.565 158.005C226.567 176.568 203.532 197.317 175.408 205.993C174.787 221.337 171.777 236.541 167.105 251.415C181.694 251.415 195.613 251.415 209.688 251.415L220.3 225.333C220.787 224.13 221.674 223.091 222.84 222.357C224.006 221.623 225.394 221.229 226.815 221.23H269.231C269.97 221.233 270.701 221.362 271.385 221.61C272.425 221.997 273.314 222.653 273.94 223.494C274.566 224.336 274.901 225.326 274.903 226.339C274.896 226.96 274.765 227.576 274.518 228.156L271.707 234.741H271.614H259.656L254.791 247.295L256.174 244.126H262.157C263.094 244.126 264.016 244.334 264.842 244.732C265.668 245.131 266.372 245.707 266.89 246.41C267.41 247.113 267.728 247.92 267.817 248.76C267.906 249.6 267.763 250.447 267.401 251.225L262.306 262.203C260.77 265.509 258.334 268.413 255.224 270.647C252.113 272.881 248.428 274.374 244.508 274.987L243.968 275.071L242.969 277.732L243.484 276.815C243.316 277.178 243.124 277.575 242.95 278.011H256.367C256.367 278.011 253.388 285.837 247.909 286.306C247.466 286.338 247.02 286.324 246.581 286.267H218.779C220.337 287.827 222.087 289.716 223.955 291.935C232.022 291.829 243.757 292.606 246.661 297.681C247.161 298.186 247.617 298.724 248.026 299.291C249.137 300.968 249.503 304.881 249.237 310.532C249.315 316.36 248.773 322.182 247.617 327.916C249.024 330.294 250.377 332.684 251.675 335.088C254.5 339.843 257.048 344.728 259.308 349.722C259.387 349.855 259.451 349.993 259.501 350.136C266.275 364.129 272.219 378.436 277.305 392.998L277.59 393.898C281.438 404.116 284.572 413.401 285.763 419.052L305.931 415.329C306.623 415.122 307.36 415.066 308.08 415.165C308.801 415.265 309.485 415.516 310.077 415.9C310.668 416.283 311.151 416.787 311.484 417.372C311.818 417.955 311.993 418.602 311.994 419.259Z" fill="#D8995C"/>
<path d="M242.399 278.682H255.815C255.265 280.045 254.564 281.356 253.724 282.595C252.067 284.931 249.51 287.374 246.128 286.96H205.425C203.843 286.97 202.302 286.506 201.044 285.641C200.765 284.479 200.845 283.271 201.274 282.148C217.712 279.878 234.555 277.435 242.088 276.032L243.509 275.809L242.399 278.682Z" fill="#FAEDCD"/>
<path d="M274.354 227.077C274.346 227.698 274.216 228.314 273.969 228.894L271.164 235.473H259.199L254.285 248.106L252.497 252.142H213.501L222.536 229.973C223.027 228.77 223.915 227.731 225.081 226.997C226.248 226.264 227.636 225.87 229.059 225.87H271.468C272.207 225.871 272.938 226 273.621 226.25C273.859 226.337 274.091 226.436 274.316 226.546C274.335 226.714 274.354 226.904 274.354 227.077Z" fill="#FAEDCD"/>
<path d="M274.358 227.072C274.35 227.693 274.22 228.308 273.974 228.888L271.162 235.468H259.204L263.362 225.305C263.821 224.178 264.706 223.233 265.862 222.635C267.018 222.038 268.37 221.826 269.682 222.036C270.994 222.247 272.181 222.867 273.037 223.788C273.892 224.708 274.36 225.871 274.358 227.072Z" fill="#FAEDCD"/>
<path d="M255.81 278.682C255.81 278.682 251.962 288.866 244.975 286.675C240.631 285.328 241.282 281.432 242.418 278.659L255.81 278.682Z" fill="#FAEDCD"/>
<path d="M245.981 235.467H226.477" stroke="#D8995C" stroke-width="4.65" stroke-linecap="round" stroke-linejoin="round"/>
<path d="M243.579 242.086H224.074" stroke="#D8995C" stroke-width="4.65" stroke-linecap="round" stroke-linejoin="round"/>
<path d="M258.858 350.398C255.48 343.042 251.54 335.905 247.067 329.04C248.879 320.393 250.114 305.244 246.186 298.369C243.282 293.288 231.559 292.517 223.467 292.623C217.218 285.183 212.167 281.348 212.167 281.348C212.167 281.348 174.548 286.837 165.959 286.882C157.371 286.927 157.377 291.214 157.377 291.214C157.377 291.214 151.395 307.475 144.63 315.552C137.866 323.629 119.671 333.439 93.4523 337.218C67.2334 340.996 46.612 336.34 41.8833 333.97C37.1545 331.6 36.9994 333.886 45.4639 348.906C53.9284 363.926 66.9603 374.725 88.8477 378.286C102.348 380.38 116.189 379.842 129.439 376.709C129.439 376.709 164.073 368.845 174.231 362.847C184.39 356.849 185.979 365.004 185.979 365.004L184.986 487.521L211.794 492.339L234.954 391.986L259.652 429.214L285.313 419.711C282.291 405.418 266.77 367.727 258.858 350.398Z" fill="#2E2E2E"/>
<path d="M188.795 186.579C188.245 189.982 186.638 193.176 184.159 195.791C182.255 197.983 179.831 199.765 177.066 201.007C176.417 201.289 175.742 201.521 175.049 201.7C175.049 199.76 175.012 197.787 174.894 195.864C174.453 188.659 172.84 181.157 167.745 175.618C165.294 172.971 162.2 170.868 158.703 169.469C158.803 168.139 158.921 166.82 159.014 165.489C159.281 163.214 159.268 160.92 158.976 158.647C158.648 157.268 158.461 155.865 158.418 154.455C158.474 153.141 158.263 148.1 159.417 147.01C161.343 147.732 163.406 148.112 165.492 148.127C170.165 148.094 173.876 145.511 176.377 142.208C177.297 141.937 178.253 141.779 179.219 141.738C182.049 142.118 173.603 148.977 176.359 148.2C174.565 148.698 173.256 151.124 172.412 152.51C171.171 154.656 170.451 157.183 171.667 159.452C172.859 161.621 175.353 163.488 177.122 165.271C179.506 167.526 181.736 169.91 183.799 172.409C187.063 176.501 189.446 181.526 188.795 186.579Z" fill="#FAEDCD"/>
<path d="M145.846 166.618C150.289 166.867 154.648 167.829 158.716 169.458C162.21 170.858 165.302 172.961 167.752 175.607C172.846 181.152 174.46 188.648 174.9 195.853C175.018 197.792 175.074 199.766 175.056 201.689C174.962 218.748 171.81 235.63 166.635 252.136C182.707 252.136 197.954 252.136 213.487 252.136H252.496L254.283 248.106L255.711 244.864H261.73C262.668 244.864 263.591 245.072 264.417 245.471C265.244 245.869 265.948 246.446 266.467 247.149C266.987 247.852 267.306 248.66 267.395 249.501C267.485 250.342 267.342 251.189 266.98 251.968L261.885 262.947C260.345 266.25 257.907 269.152 254.796 271.386C251.685 273.619 248 275.111 244.081 275.725L243.541 275.814L242.12 276.038C234.587 277.441 217.744 279.884 201.306 282.153C186.269 284.249 171.562 286.189 164.605 287.089C161.968 287.435 159.275 287.693 156.538 287.849C140.298 288.749 123.53 285.496 119.186 268.844C116.356 258.179 116.977 246.68 117.107 235.579" stroke="black" stroke-width="4.65" stroke-miterlimit="10"/>
<path d="M223.597 293.103C234.109 292.667 243.529 294.07 247.569 299.996C249.605 302.992 249.108 313.556 247.011 328.291" stroke="black" stroke-width="4.65" stroke-miterlimit="10"/>
<path d="M47.4873 352.036C47.5096 352.061 47.5289 352.09 47.5432 352.12C52.0423 360.382 59.9545 367.514 70.0759 372.506C105.74 390.08 159.382 369.487 178.675 360.918C179.445 360.577 180.298 360.418 181.155 360.457C182.012 360.496 182.845 360.731 183.573 361.14C184.301 361.549 184.901 362.119 185.317 362.795C185.732 363.471 185.949 364.231 185.948 365.004V496.794L227.222 506.213C227.861 506.361 228.526 506.391 229.179 506.301C229.831 506.211 230.456 506.003 231.017 505.689C231.578 505.376 232.062 504.964 232.441 504.477C232.82 503.991 233.086 503.44 233.223 502.859C233.495 501.729 233.264 500.549 232.581 499.571C231.897 498.592 230.816 497.895 229.568 497.627L211.764 492.345C212.589 487.135 224.665 439.494 234.929 391.992" stroke="black" stroke-width="4.65" stroke-miterlimit="10"/>
<path d="M211.372 280.728C221.922 288.777 229.499 301.153 236.592 311.667C253.875 337.285 266.801 365.167 276.842 393.697C279.876 402.316 282.669 411.025 285.306 419.734L305.462 416.005C306.606 415.671 307.85 415.752 308.928 416.233C310.006 416.714 310.832 417.555 311.23 418.577C311.628 419.6 311.567 420.722 311.058 421.704C310.55 422.686 309.634 423.449 308.509 423.831L265.287 438.364C265.287 438.364 252.64 417.084 234.966 391.969C209.063 355.122 161.199 298.33 148.564 310.443" stroke="black" stroke-width="4.65" stroke-miterlimit="10"/>
<path d="M173.665 154.634C173.665 154.634 216.05 151.99 245.105 100.179C245.105 100.179 254.289 105.886 267.091 123.739C267.091 123.739 231.173 189.402 174.9 206.731" stroke="black" stroke-width="4.65" stroke-miterlimit="10"/>
<path d="M169.831 94.0522L172.313 97.4508L173.809 99.519C175.326 102.703 176.66 105.955 177.805 109.262L177.88 109.497L180.722 119.279C180.727 119.29 180.727 119.302 180.722 119.312C181.677 120.729 182.995 121.919 184.563 122.784C184.934 122.964 185.28 123.184 185.593 123.438C187.3 124.98 182.801 125.428 181.87 125.936C181.459 126.191 181.123 126.53 180.888 126.926C180.654 127.322 180.529 127.763 180.523 128.211C175.18 148.239 178.618 142.979 176.322 147.434C178.314 145.914 183.266 141.079 183.266 141.079C183.887 140.716 184.47 139.626 184.874 139.083C186.155 137.312 187.258 135.442 188.169 133.494C191 127.675 191.654 121.185 190.03 115.003C187.468 105.394 181.491 95.7795 169.831 94.0522Z" fill="#FAEDCD"/>
<path d="M169.322 100.095C168.868 102.173 167.773 104.095 166.164 105.64C164.416 107.361 162.381 108.826 160.132 109.983C155.899 112.252 151.189 113.968 147.633 117.032C144.073 120.116 141.942 124.299 141.67 128.742C141.422 133.292 143.227 138.004 144.326 142.264C147.807 156.031 146.69 169.262 144.766 183.119C142.942 196.194 139.057 208.989 131.524 220.37C122.637 233.785 108.048 244.523 91.6274 250.034C77.9749 254.624 51.4457 258.693 41.4111 245.926C39.6797 241.896 39.6611 237.284 40.3313 232.941C44.2719 207.463 65.9607 181.314 91.8383 170.716C105.702 165.036 128.309 156.311 121.005 138.955C118.678 133.482 115.42 128.759 114.799 123.041C114.743 122.521 114.688 122.001 114.632 121.448C113.589 108.032 122.258 95.2987 136.296 90.7039C140.888 89.1416 145.798 88.4831 150.696 88.7726C155.594 89.0616 160.367 90.2919 164.693 92.3808C166.229 93.117 167.604 94.098 168.751 95.2763C168.83 95.3563 168.901 95.4423 168.962 95.5335C169.05 95.7313 169.12 95.9348 169.173 96.1427C169.516 97.4379 169.567 98.7817 169.322 100.095Z" fill="#FAEDCD"/>
<path d="M175.088 201.113C182.584 199.553 189.162 194.718 191.043 187.653C192.793 181.107 190.025 174.388 185.737 169.123C181.759 164.26 173.475 160.179 174.126 153.281C174.337 151.045 175.566 149.089 177.167 147.356C177.744 146.752 178.34 146.193 178.991 145.623" stroke="black" stroke-width="4.65" stroke-miterlimit="10"/>
<path d="M159.628 146.853L159.28 169.676" stroke="black" stroke-width="4.65" stroke-miterlimit="10"/>
<path d="M118.298 135.411C115.984 129.933 112.713 125.209 112.093 119.497C112.031 118.971 111.975 118.446 111.931 117.887C110.883 104.471 119.558 91.7436 133.589 87.1432C138.183 85.5826 143.093 84.9246 147.993 85.2142C152.891 85.5032 157.665 86.7329 161.993 88.8201C163.525 89.5591 164.896 90.5423 166.039 91.7212L166.33 92.0398C167.344 93.1556 168.08 94.4535 168.49 95.8465C168.9 97.24 168.974 98.6961 168.707 100.117C168.255 102.19 167.167 104.107 165.567 105.651C163.813 107.375 161.774 108.846 159.523 110.011C155.29 112.28 150.587 113.985 147.018 117.048C143.456 120.141 141.331 124.337 141.073 128.787C140.819 133.337 142.631 138.044 143.711 142.314C147.192 156.082 146.081 169.307 144.157 183.158C142.333 196.233 138.454 209.033 130.908 220.414C122.022 233.83 107.439 244.573 91.0122 250.079C77.0929 254.752 49.8003 258.889 40.2126 245.21C36.9919 240.621 36.7809 234.813 37.6124 229.436C41.553 203.964 63.2542 177.803 89.1194 167.211C103.008 161.465 125.615 152.761 118.298 135.411Z" stroke="black" stroke-width="4.65" stroke-miterlimit="10"/>
<path d="M171.587 119.922C172.92 119.922 174.001 118.948 174.001 117.747C174.001 116.546 172.92 115.573 171.587 115.573C170.253 115.573 169.173 116.546 169.173 117.747C169.173 118.948 170.253 119.922 171.587 119.922Z" fill="black"/>
<path d="M171.023 110.738C171.023 110.738 162.85 114.058 165.438 120.514" stroke="black" stroke-width="4.65" stroke-miterlimit="10"/>
<path d="M178.575 145.729C180.623 145.059 182.807 142.935 184.297 141.543C185.944 139.959 187.416 138.235 188.69 136.395C192.281 131.219 194.157 125.227 194.096 119.124C194.036 113.022 192.042 107.062 188.349 101.945C185.792 98.3898 182.385 95.2372 178.116 93.4485C174.557 91.9381 170.575 91.4317 166.691 91.9952C168.862 93.591 170.808 95.4194 172.487 97.4396C175.017 100.43 176.788 103.883 177.675 107.557C177.812 108.2 177.93 108.837 178.054 109.486C178.674 112.94 179.022 116.439 180.902 119.268C181.861 120.695 183.185 121.897 184.762 122.772C185.133 122.952 185.479 123.172 185.792 123.426C187.499 124.969 183 125.411 182.069 125.919C179.68 127.177 180.567 130.788 180.25 132.879C179.869 135.319 179.058 137.689 177.849 139.899C177.421 140.685 176.934 141.443 176.391 142.169C173.908 145.484 170.185 148.077 165.506 148.1C163.424 148.083 161.365 147.703 159.443 146.982C156.146 145.775 153.198 143.907 150.823 141.52" stroke="black" stroke-width="4.65" stroke-miterlimit="10"/>
<path d="M174.083 134.164C174.083 134.164 168.454 137.054 166.016 130.402" stroke="black" stroke-width="4.65" stroke-miterlimit="10"/>
<path d="M255.351 110.877L269.376 104.773C270.658 104.217 271.778 103.397 272.646 102.381L279.193 94.7285C279.947 93.7995 280.27 92.643 280.094 91.5032C279.917 90.3635 279.254 89.3305 278.246 88.6234C277.238 87.9157 275.964 87.5899 274.694 87.7145C273.424 87.8392 272.258 88.4037 271.442 89.2897L270.245 90.5474L272.77 85.1645C272.942 84.7944 273.023 84.3959 273.009 83.9951C272.994 83.5943 272.883 83.2008 272.685 82.8419C272.487 82.4831 272.205 82.1667 271.859 81.9146C271.512 81.6619 271.11 81.4802 270.679 81.3802L266.689 81.8553L279.162 66.5114C280.931 64.337 279.212 61.7098 276.624 60.9664C273.645 60.1112 270.89 61.8775 269.041 63.8339C261.433 71.9056 255.668 81.2405 250.312 90.6312C248.512 93.7878 246.777 96.97 245.105 100.179" stroke="black" stroke-width="4.65" stroke-linejoin="round"/>
<path d="M266.696 81.8553C266.696 81.8553 258.559 90.9722 270.251 90.5474" stroke="black" stroke-width="4.65" stroke-miterlimit="10"/>
<path d="M244.042 275.719C244.042 275.719 238.01 284.534 245.035 286.698C252.06 288.861 255.901 278.687 255.901 278.687H242.342" stroke="black" stroke-width="4.65" stroke-miterlimit="10"/>
<path d="M274.444 227.072C274.436 227.693 274.306 228.308 274.059 228.888L271.254 235.468H259.296L263.447 225.305C263.907 224.178 264.792 223.233 265.948 222.635C267.103 222.038 268.456 221.826 269.768 222.036C271.08 222.247 272.268 222.867 273.123 223.788C273.978 224.708 274.445 225.871 274.444 227.072Z" stroke="black" stroke-width="4.65" stroke-miterlimit="10"/>
<path d="M216.056 235.467L209.229 252.131L219.823 226.065C220.313 224.86 221.203 223.821 222.372 223.087C223.541 222.352 224.932 221.96 226.357 221.963H268.767" stroke="black" stroke-width="4.65" stroke-miterlimit="10"/>
<path d="M252.509 252.13L259.298 235.467" stroke="black" stroke-width="4.65" stroke-miterlimit="10"/>
<path d="M37.4502 237.826C18.7401 283.198 27.3163 328.291 27.3163 328.291C55.5769 342.455 95.6469 341.226 124.348 328.777C134.501 324.361 145.447 317.71 149.878 307.961C153.13 300.823 156.512 293.741 159.298 286.502" stroke="black" stroke-width="4.65" stroke-miterlimit="10"/>
<path d="M21.3164 379.393H185.971" stroke="black" stroke-width="4.65" stroke-miterlimit="10"/>
<path d="M166.648 252.147L164.873 257.553" stroke="black" stroke-width="4.65" stroke-miterlimit="10"/>
<path d="M47.5419 352.12C47.5419 352.12 40.2937 340.471 37.9355 332.718" stroke="black" stroke-width="4.65" stroke-miterlimit="10"/>
<path d="M83.3164 22.9227V138.843H34.9619C36.5549 134.256 37.8891 129.616 38.9646 124.924C42.266 110.48 43.2465 95.567 42.7314 80.5026C41.7695 51.598 54.8635 35.6839 72.2579 27.2157C75.7958 25.493 79.4969 24.0563 83.3164 22.9227Z" stroke="#1F1F1F" stroke-width="4.65" stroke-miterlimit="10"/>
<path d="M72.2583 27.2155V124.924H38.9463C42.2477 110.48 43.2282 95.567 42.7131 80.5026C41.7699 51.598 54.8638 35.6951 72.2583 27.2155Z" stroke="#1F1F1F" stroke-width="4.65" stroke-miterlimit="10"/>
</svg>
