<svg width="600" height="491" viewBox="0 0 600 491" fill="none" xmlns="http://www.w3.org/2000/svg">
<g opacity="0.6">
<g opacity="0.5">
<path d="M320.028 168.32C299.43 164.23 279.902 152.936 263.028 135.812C237.862 110.234 185.204 66.7055 134.974 88.388C65.6844 118.289 65.3721 204.793 83.4402 251.787C101.508 298.781 229.484 436.377 395.4 414.523C543.872 394.932 572.802 170.661 493.619 130.075C424.938 94.8428 401.506 184.523 320.028 168.32Z" fill="#F27900"/>
</g>
<g opacity="0.5">
<path d="M533.769 144.467C537.326 144.467 540.21 140.288 540.21 135.133C540.21 129.977 537.326 125.798 533.769 125.798C530.211 125.798 527.327 129.977 527.327 135.133C527.327 140.288 530.211 144.467 533.769 144.467Z" fill="#F27900"/>
</g>
<path d="M113.478 73.6598C115.461 73.1681 117.453 74.6433 118.163 77.1799C119.35 81.5117 116.25 86.3586 112.065 84.2044C108.418 80.5829 109.988 74.5184 113.478 73.6598Z" fill="#F27900"/>
<path d="M516.193 63.0137C520.824 63.0137 524.579 57.9572 524.579 51.7198C524.579 45.4823 520.824 40.4259 516.193 40.4259C511.561 40.4259 507.807 45.4823 507.807 51.7198C507.807 57.9572 511.561 63.0137 516.193 63.0137Z" fill="#F27900"/>
<g opacity="0.8">
<path d="M138.878 64.7543C140.143 70.8188 137.512 77.1175 133.006 78.8034C128.501 80.4893 123.824 76.9614 122.567 70.8968C121.31 64.8323 123.933 58.5336 128.439 56.8477C132.944 55.1618 137.613 58.6819 138.878 64.7543Z" fill="#F27900"/>
</g>
<path d="M474.075 404.649C475.949 403.673 478.112 404.649 479.15 406.944C480.907 410.901 478.526 416.443 474.122 415.35C470.077 412.72 470.788 406.366 474.075 404.649Z" fill="#F27900"/>
<path d="M497.82 389.546C499.897 395.197 498.187 402.034 493.994 404.836C489.801 407.638 484.718 405.336 482.641 399.685C480.564 394.034 482.274 387.197 486.467 384.395C490.66 381.593 495.743 383.888 497.82 389.546Z" fill="#F27900"/>
<path d="M505.55 34.416C505.55 38.2561 503.208 41.3625 500.397 41.3625C497.586 41.3625 495.235 38.2404 495.235 34.416C495.235 30.5915 497.578 27.4695 500.397 27.4695C503.215 27.4695 505.55 30.5993 505.55 34.416Z" fill="#F27900"/>
</g>
<g opacity="0.4">
<path d="M519.292 160.304C519.292 98.238 480.915 30.2246 433.153 26.1114C432.317 26.0411 431.466 25.9787 430.615 25.9241C362.145 21.6313 356.929 134.087 294.979 146.809C233.029 159.531 185.72 95.4672 111.597 137.24C45.0243 174.759 26.9874 385.597 222.598 394.026C379.097 400.778 519.316 345.479 519.292 160.304Z" fill="#F27900"/>
</g>
<path d="M123.324 77.6794H0.564453V163.84H123.324V77.6794Z" fill="white"/>
<path d="M123.715 164.23H0.174316V77.2814H123.715V164.23ZM0.955133 163.449H122.934V78.0619H0.955133V163.449Z" fill="#2F2E41"/>
<path d="M72.9697 123.3C72.9681 120.657 72.3576 118.049 71.1855 115.679C70.0134 113.31 68.3112 111.241 66.2107 109.635C64.1103 108.029 61.6681 106.928 59.0734 106.417C56.4787 105.906 53.8012 105.999 51.2483 106.689C48.6954 107.38 46.3358 108.648 44.3523 110.396C42.3688 112.145 40.8147 114.326 39.8104 116.772C38.8061 119.217 38.3786 121.861 38.5611 124.498C38.7435 127.135 39.531 129.695 40.8625 131.979V131.979L40.9171 132.05C41.573 133.158 42.4007 133.962 43.2596 135.172L53.2618 148.44C53.7607 149.093 54.4971 149.524 55.3113 149.638C56.1255 149.752 56.9518 149.54 57.611 149.049C57.844 148.878 58.0494 148.673 58.22 148.44L68.0583 135.437C68.9529 134.379 69.7871 133.272 70.5569 132.12V131.979C72.1195 129.352 72.9524 126.356 72.9697 123.3V123.3ZM55.7448 130.793C54.2453 130.793 52.7795 130.348 51.5327 129.516C50.2858 128.683 49.3141 127.499 48.7402 126.114C48.1664 124.73 48.0162 123.206 48.3088 121.736C48.6013 120.266 49.3234 118.915 50.3837 117.855C51.4441 116.795 52.795 116.074 54.2657 115.781C55.7364 115.489 57.2609 115.639 58.6462 116.212C60.0316 116.786 61.2157 117.757 62.0488 119.004C62.8819 120.25 63.3266 121.715 63.3266 123.214V123.214C63.3266 125.222 62.5286 127.148 61.1082 128.568C59.6878 129.987 57.7614 130.785 55.7526 130.785L55.7448 130.793Z" fill="#E0E0E0"/>
<path d="M122.247 94.632H0.564453V95.4125H122.247V94.632Z" fill="#2F2E41"/>
<path d="M485.436 1.18198H350.167V71.5602H485.436V1.18198Z" fill="white"/>
<path d="M485.827 71.9505H349.777V0.791748H485.827V71.9505ZM350.558 71.17H485.046V1.57225H350.558V71.17Z" fill="#2F2E41"/>
<path d="M514.249 197.269H356.672V307.874H514.249V197.269Z" fill="white" stroke="#2F2E41" stroke-miterlimit="10"/>
<path d="M372.218 205.097C370.877 206.625 369.426 208.052 367.876 209.366C366.439 210.782 364.896 212.086 363.262 213.269C364.606 211.748 366.057 210.324 367.603 209.007C369.042 207.592 370.585 206.285 372.218 205.097Z" fill="#263238"/>
<path d="M371.843 213.628C370.314 212.295 368.889 210.846 367.58 209.296C366.166 207.86 364.861 206.321 363.676 204.691C366.625 207.455 369.355 210.443 371.843 213.628V213.628Z" fill="#263238"/>
<path d="M387.865 213.449C387.834 213.229 387.818 213.007 387.818 212.785L387.771 211.052C387.771 209.554 387.693 207.439 387.662 204.918L387.865 205.113H379.276C379.276 205.167 379.713 204.691 379.503 204.894V213.441L379.307 213.246C381.829 213.246 383.945 213.308 385.445 213.339L387.178 213.394C387.4 213.394 387.622 213.41 387.842 213.441C387.651 213.473 387.457 213.486 387.264 213.48L385.53 213.534C384.039 213.534 381.876 213.612 379.284 213.636H379.097V204.894C378.894 205.097 379.37 204.621 379.323 204.66H388.084V204.855C388.084 207.454 388.013 209.632 387.974 211.099C387.974 211.786 387.974 212.348 387.928 212.832C387.926 213.039 387.906 213.245 387.865 213.449Z" fill="#263238"/>
<path d="M403.825 212.684C400.769 212.98 397.691 212.98 394.635 212.684C397.691 212.379 400.769 212.379 403.825 212.684V212.684Z" fill="#263238"/>
<path d="M495.954 232.54H439.61V288.861H495.954V232.54Z" fill="#E0E0E0"/>
<path d="M417.404 32.9408H91.3032V283.554H417.404V32.9408Z" fill="white"/>
<path d="M417.794 283.944H90.9131V32.5505H417.794V283.944ZM91.6939 283.163H417.013V33.331H91.6939V283.163Z" fill="#2F2E41"/>
<path d="M324.377 262.464C324.377 262.464 324.65 262.074 325.244 261.34L325.72 260.716C325.876 260.482 326.025 260.193 326.196 259.889C326.619 259.214 326.977 258.5 327.266 257.758C327.43 257.336 327.625 256.891 327.797 256.423C327.969 255.955 328.078 255.416 328.227 254.862C328.39 254.295 328.507 253.715 328.578 253.129C328.701 252.505 328.79 251.875 328.843 251.241C329.094 248.191 328.952 245.122 328.422 242.109C327.368 235.287 324.518 227.279 320.044 218.522C314.899 208.663 308.872 199.29 302.038 190.517C293.81 179.856 284.842 169.786 275.201 160.382C264.182 149.557 252.409 139.526 239.971 130.364C233.389 125.532 226.463 120.826 219.154 116.432C211.718 111.886 203.992 107.832 196.026 104.295C187.898 100.767 179.333 97.6838 170.259 96.2321C165.728 95.4235 161.099 95.3077 156.533 95.8886C154.247 96.2292 152.017 96.875 149.904 97.8087C147.783 98.7591 145.887 100.146 144.338 101.878C142.79 103.61 141.624 105.649 140.916 107.862C140.222 110.067 139.831 112.357 139.753 114.668C139.69 119.27 140.33 123.855 141.65 128.264C144.126 137.092 148.162 145.248 152.582 152.92C157.01 160.43 161.919 167.647 167.277 174.525C172.485 181.292 177.943 187.645 183.494 193.6C194.034 204.909 205.358 215.462 217.382 225.18C227.822 233.701 238.851 241.476 250.387 248.446C259.863 254.245 269.843 259.177 280.206 263.182C289.389 266.593 297.704 268.552 304.599 268.818C307.653 269.005 310.719 268.795 313.719 268.193C314.344 268.069 314.962 267.91 315.569 267.717C316.139 267.586 316.696 267.403 317.233 267.171L318.724 266.578C319.177 266.351 319.591 266.109 319.989 265.891C320.694 265.514 321.365 265.078 321.996 264.587C322.261 264.384 322.527 264.205 322.776 264.018L323.354 263.479C324.018 262.831 324.377 262.511 324.377 262.511L323.385 263.518L322.831 264.072C322.605 264.259 322.347 264.439 322.05 264.65C321.432 265.159 320.765 265.606 320.059 265.984C319.661 266.203 319.278 266.453 318.794 266.687L317.295 267.296C316.755 267.532 316.196 267.723 315.624 267.865C315.014 268.061 314.394 268.223 313.766 268.349C310.755 268.973 307.676 269.201 304.607 269.028C297.673 268.794 289.326 266.851 280.113 263.471C269.707 259.507 259.684 254.603 250.168 248.821C238.61 241.884 227.557 234.137 217.093 225.64C205.036 215.93 193.683 205.377 183.12 194.061C177.552 188.066 172.087 181.705 166.847 174.931C161.469 168.032 156.545 160.792 152.105 153.256C147.655 145.56 143.602 137.365 141.096 128.475C139.77 124.013 139.128 119.376 139.191 114.722C139.272 112.366 139.671 110.032 140.378 107.784C141.102 105.496 142.301 103.386 143.897 101.594C145.493 99.8007 147.449 98.3647 149.638 97.3794C151.8 96.4184 154.083 95.7567 156.423 95.4125C161.039 94.8292 165.716 94.9423 170.299 95.7481C179.418 97.2233 188.023 100.322 196.175 103.865C204.157 107.396 211.901 111.443 219.357 115.979C226.689 120.404 233.631 125.111 240.174 129.95C252.622 139.145 264.4 149.213 275.42 160.077C285.091 169.521 294.082 179.635 302.327 190.346C309.151 199.149 315.162 208.554 320.286 218.444C324.705 227.224 327.578 235.287 328.609 242.148C329.125 245.174 329.249 248.253 328.976 251.311C328.928 251.954 328.836 252.592 328.703 253.223C328.617 253.808 328.492 254.387 328.328 254.956L327.891 256.517C327.711 256.993 327.508 257.43 327.344 257.859C327.042 258.603 326.671 259.316 326.235 259.99C326.056 260.294 325.908 260.575 325.744 260.817L325.259 261.434L324.377 262.464Z" fill="#E0E0E0"/>
<path d="M357.679 182.111C357.679 182.111 357.624 181.635 357.546 180.706C357.555 180.445 357.537 180.183 357.491 179.926C357.429 179.645 357.366 179.333 357.296 178.997C357.17 178.197 356.96 177.412 356.671 176.655C356.515 176.226 356.383 175.789 356.187 175.305C355.992 174.821 355.719 174.376 355.477 173.869C355.226 173.343 354.936 172.837 354.61 172.355C354.284 171.814 353.927 171.293 353.54 170.794C351.703 168.351 349.559 166.156 347.161 164.261C341.828 159.867 334.317 155.8 325.189 152.226C314.78 148.306 304.039 145.328 293.097 143.328C279.863 140.844 266.47 139.295 253.018 138.692C237.574 137.94 222.096 138.28 206.7 139.706C198.579 140.487 190.303 141.603 181.878 143.18C173.3 144.742 164.834 146.862 156.532 149.525C148.123 152.296 139.675 155.707 131.952 160.632C128.038 163.059 124.513 166.064 121.497 169.545C120.015 171.316 118.781 173.28 117.827 175.383C116.881 177.506 116.392 179.803 116.392 182.127C116.392 184.45 116.881 186.748 117.827 188.87C118.779 190.977 120.014 192.944 121.497 194.716C124.512 198.198 128.043 201.196 131.968 203.606C139.682 208.539 148.131 211.95 156.548 214.721C164.85 217.373 173.317 219.483 181.893 221.035C190.303 222.596 198.603 223.728 206.731 224.5C222.125 225.921 237.6 226.257 253.041 225.507C266.501 224.907 279.902 223.36 293.144 220.879C304.087 218.881 314.828 215.9 325.236 211.973C334.348 208.399 341.859 204.332 347.192 199.946C349.589 198.05 351.735 195.857 353.579 193.421C354.001 192.906 354.298 192.336 354.641 191.86C354.968 191.361 355.258 190.839 355.508 190.299C355.766 189.807 356 189.323 356.226 188.87C356.411 188.429 356.572 187.978 356.71 187.52C356.992 186.761 357.201 185.977 357.335 185.179C357.405 184.843 357.491 184.539 357.522 184.25C357.554 183.961 357.569 183.703 357.585 183.469C357.663 182.54 357.718 182.064 357.718 182.064C357.718 182.064 357.718 182.54 357.647 183.469C357.656 183.731 357.638 183.992 357.593 184.25L357.421 185.186C357.289 185.984 357.085 186.767 356.812 187.528C356.664 187.957 356.515 188.394 356.336 188.894C356.156 189.393 355.875 189.83 355.633 190.345C355.383 190.886 355.093 191.408 354.766 191.907C354.446 192.449 354.091 192.97 353.704 193.468C351.875 195.935 349.73 198.152 347.325 200.063C341.992 204.504 334.473 208.648 325.337 212.2C314.936 216.166 304.194 219.176 293.246 221.191C279.966 223.722 266.523 225.303 253.018 225.921C237.563 226.701 222.072 226.39 206.661 224.992C198.525 224.212 190.178 223.111 181.792 221.527C173.189 219.959 164.696 217.834 156.368 215.166C147.936 212.395 139.44 208.976 131.663 204.004C127.697 201.56 124.124 198.528 121.068 195.013C119.558 193.195 118.299 191.181 117.328 189.026C116.343 186.839 115.834 184.467 115.834 182.068C115.834 179.669 116.343 177.298 117.328 175.11C118.304 172.963 119.562 170.955 121.068 169.139C124.129 165.625 127.704 162.593 131.671 160.148C139.479 155.184 147.936 151.765 156.376 148.994C164.699 146.315 173.189 144.188 181.792 142.625C190.209 141.064 198.525 139.94 206.661 139.16C222.071 137.748 237.563 137.435 253.018 138.223C266.495 138.834 279.912 140.399 293.168 142.906C304.115 144.928 314.857 147.94 325.259 151.906C334.395 155.504 341.914 159.609 347.247 164.042C349.65 165.955 351.795 168.172 353.626 170.638C354.011 171.153 354.365 171.69 354.688 172.246C355.015 172.744 355.304 173.266 355.555 173.807L356.258 175.258C356.437 175.727 356.586 176.195 356.734 176.616C357.007 177.377 357.211 178.161 357.343 178.958C357.405 179.294 357.483 179.606 357.515 179.895C357.546 180.183 357.515 180.417 357.569 180.675C357.663 181.635 357.679 182.111 357.679 182.111Z" fill="#E0E0E0"/>
<path d="M313.547 82.0815L312.36 81.301L311.712 80.8717C311.462 80.7234 311.166 80.5985 310.845 80.4502C310.14 80.0755 309.4 79.7697 308.636 79.537C308.198 79.3965 307.761 79.2248 307.262 79.0921L305.7 78.7721C305.131 78.6396 304.55 78.5612 303.966 78.538C303.334 78.4599 302.694 78.4209 302.053 78.4053C299 78.3598 295.953 78.7088 292.988 79.4434C286.242 81.0044 278.418 84.4074 270.017 89.4338C260.534 95.2501 251.598 101.914 243.32 109.345C233.253 118.298 223.829 127.948 215.117 138.223C205.059 149.962 195.841 162.395 187.531 175.43C183.198 182.322 178.942 189.565 175.038 197.159C171.017 204.892 167.504 212.878 164.52 221.066C161.553 229.41 159.055 238.175 158.274 247.299C157.785 251.872 157.99 256.493 158.883 261.005C159.367 263.262 160.155 265.444 161.225 267.491C162.316 269.542 163.829 271.339 165.665 272.764C167.501 274.188 169.617 275.208 171.876 275.756C174.128 276.289 176.441 276.52 178.755 276.443C183.35 276.194 187.881 275.249 192.193 273.641C200.828 270.566 208.676 265.977 216.046 261.028C223.245 256.109 230.11 250.719 236.598 244.895C242.985 239.221 248.958 233.351 254.556 227.404C265.116 216.115 274.866 204.097 283.735 191.438C291.498 180.445 298.482 168.922 304.638 156.955C309.768 147.063 313.996 136.729 317.272 126.079C320.036 116.713 321.426 108.252 321.215 101.36C321.183 98.3039 320.763 95.2643 319.965 92.3139C319.801 91.6954 319.598 91.088 319.356 90.4953C319.184 89.9392 318.964 89.3987 318.7 88.8797L317.998 87.4357C317.748 87.0065 317.467 86.5694 317.217 86.226C316.797 85.5463 316.316 84.9062 315.78 84.3137C315.554 84.0561 315.359 83.7986 315.156 83.5956C314.953 83.3927 314.75 83.221 314.578 83.0649C313.891 82.4405 313.539 82.1049 313.539 82.1049C313.539 82.1049 313.914 82.4093 314.617 83.0259L315.21 83.5488C315.413 83.7517 315.608 84.0015 315.843 84.2591C316.379 84.8463 316.858 85.4841 317.272 86.1635C317.521 86.546 317.803 86.944 318.052 87.3733L318.763 88.8172C319.03 89.3422 319.255 89.8877 319.434 90.4485C319.674 91.0434 319.883 91.6505 320.059 92.2671C320.887 95.226 321.325 98.2801 321.363 101.352C321.605 108.291 320.246 116.744 317.506 126.164C314.261 136.815 310.056 147.15 304.942 157.041C298.812 169.052 291.835 180.612 284.063 191.633C275.199 204.306 265.451 216.338 254.892 227.638C249.294 233.601 243.32 239.494 236.933 245.176C230.43 251.014 223.552 256.422 216.343 261.364C208.972 266.336 201.07 270.948 192.372 274.047C188.01 275.684 183.423 276.648 178.77 276.904C176.407 276.991 174.042 276.754 171.743 276.201C169.414 275.63 167.232 274.575 165.338 273.106C163.443 271.636 161.88 269.784 160.749 267.67C159.645 265.581 158.831 263.352 158.329 261.044C157.423 256.478 157.212 251.802 157.704 247.174C158.571 237.98 161.046 229.223 164.021 220.816C167.011 212.609 170.532 204.605 174.562 196.855C178.466 189.237 182.698 182.025 187.055 175.094C195.379 162.043 204.624 149.601 214.719 137.864C223.482 127.591 232.964 117.953 243.094 109.025C251.399 101.611 260.364 94.9698 269.876 89.1841C278.317 84.1732 286.179 80.7468 292.949 79.2482C295.938 78.5225 299.009 78.1867 302.085 78.2492C302.725 78.2595 303.364 78.309 303.998 78.3975C304.582 78.4297 305.162 78.5133 305.731 78.6472L307.293 78.9751C307.777 79.1155 308.238 79.2872 308.659 79.4355C309.424 79.679 310.164 79.9952 310.869 80.38C311.181 80.5361 311.47 80.6687 311.736 80.817L312.391 81.2541L313.547 82.0815Z" fill="#E0E0E0"/>
<path d="M111.628 239.595C114.103 239.595 116.11 237.59 116.11 235.115C116.11 232.641 114.103 230.635 111.628 230.635C109.153 230.635 107.146 232.641 107.146 235.115C107.146 237.59 109.153 239.595 111.628 239.595Z" fill="#E0E0E0"/>
<path d="M367.892 92.993C367.894 93.8806 367.632 94.7487 367.14 95.4876C366.648 96.2265 365.947 96.803 365.128 97.1441C364.308 97.4852 363.405 97.5756 362.534 97.4039C361.663 97.2323 360.862 96.8063 360.233 96.1797C359.604 95.5531 359.175 94.7542 359 93.884C358.826 93.0137 358.913 92.1112 359.251 91.2905C359.59 90.4699 360.164 89.768 360.901 89.2735C361.639 88.7791 362.507 88.5144 363.394 88.5128V88.5128C364.585 88.5128 365.726 88.9844 366.569 89.8241C367.412 90.6638 367.888 91.8033 367.892 92.993V92.993Z" fill="#E0E0E0"/>
<path d="M141.994 247.83C142.624 247.83 143.134 247.32 143.134 246.69C143.134 246.061 142.624 245.551 141.994 245.551C141.364 245.551 140.854 246.061 140.854 246.69C140.854 247.32 141.364 247.83 141.994 247.83Z" fill="#E0E0E0"/>
<path d="M167.456 121.052C167.456 121.279 167.389 121.501 167.263 121.69C167.137 121.878 166.957 122.025 166.748 122.112C166.538 122.199 166.307 122.222 166.085 122.177C165.862 122.133 165.657 122.024 165.497 121.863C165.336 121.703 165.227 121.499 165.183 121.276C165.138 121.053 165.161 120.823 165.248 120.613C165.335 120.403 165.482 120.224 165.671 120.098C165.86 119.972 166.081 119.905 166.308 119.905V119.905C166.611 119.905 166.901 120.025 167.115 120.239C167.328 120.452 167.448 120.742 167.448 121.044L167.456 121.052Z" fill="#E0E0E0"/>
<path d="M345.381 182.111C345.383 182.338 345.317 182.56 345.192 182.75C345.067 182.939 344.889 183.088 344.68 183.176C344.471 183.264 344.24 183.289 344.017 183.246C343.794 183.203 343.589 183.095 343.427 182.936C343.266 182.776 343.155 182.573 343.109 182.35C343.063 182.128 343.084 181.897 343.17 181.687C343.255 181.477 343.401 181.297 343.589 181.169C343.777 181.042 343.998 180.973 344.225 180.972V180.972C344.376 180.971 344.526 180.999 344.665 181.056C344.805 181.113 344.932 181.196 345.039 181.302C345.147 181.408 345.232 181.534 345.291 181.673C345.349 181.812 345.38 181.961 345.381 182.111V182.111Z" fill="#E0E0E0"/>
<path d="M361.193 128.982C361.194 129.207 361.129 129.428 361.005 129.616C360.881 129.805 360.704 129.952 360.496 130.04C360.288 130.127 360.059 130.151 359.838 130.109C359.616 130.067 359.413 129.959 359.252 129.801C359.092 129.643 358.982 129.441 358.936 129.22C358.891 128.999 358.912 128.77 358.996 128.561C359.081 128.352 359.226 128.173 359.413 128.047C359.599 127.92 359.819 127.852 360.045 127.85V127.85C360.193 127.849 360.341 127.878 360.479 127.934C360.616 127.989 360.742 128.072 360.848 128.176C360.953 128.281 361.038 128.405 361.096 128.542C361.153 128.679 361.184 128.826 361.185 128.974L361.193 128.982Z" fill="#E0E0E0"/>
<path d="M242.446 240.165C281.925 240.165 313.929 207.957 313.929 168.226C313.929 128.495 281.925 96.2867 242.446 96.2867C202.966 96.2867 170.962 128.495 170.962 168.226C170.962 207.957 202.966 240.165 242.446 240.165Z" fill="#F27900"/>
<g opacity="0.3">
<path d="M215.976 200.289C216.351 197.167 218.787 193.983 217.39 191.157C215.828 187.996 211.229 188.511 208.02 187.099C203.522 185.124 202.133 179.535 199.181 175.586C196.581 172.066 190.397 168.179 185.72 169.248C182.323 170.029 181.16 172.043 180.816 174.525L180.379 174.454C179.122 174.322 177.654 174.259 176.959 173.221C176.178 172.004 176.959 170.208 176.092 169.022C175.574 168.482 174.97 168.031 174.304 167.687C173.695 167.25 173.172 166.446 173.523 165.791C173.875 165.135 174.624 165.12 175.023 164.612C175.178 164.408 175.263 164.159 175.263 163.902C175.263 163.645 175.178 163.396 175.023 163.192C173.727 161.631 172.298 164.753 171.548 165.533C171.365 165.723 171.172 165.902 170.97 166.072V166.072V171.137C171.741 171.42 172.479 171.783 173.172 172.222C174.57 173.003 176.116 174.08 176.209 175.688C176.18 175.957 176.232 176.228 176.358 176.468C176.538 176.647 176.77 176.765 177.022 176.804C178.214 177.083 179.429 177.25 180.652 177.303C180.652 178.747 180.777 180.246 180.754 181.643C180.754 183.703 180.043 185.748 180.27 187.801C180.598 190.697 182.612 193.069 184.361 195.395C191.029 204.301 194.629 214.518 198.533 224.992C199.251 225.562 200.266 226.335 201.032 226.865C201.625 227.287 202.172 227.646 202.765 228.06L204.498 229.199C204.936 229.472 205.029 229.543 205.475 229.8C205.412 229.683 205.475 229.902 205.475 229.8C203.913 226.335 203.913 221.574 207.278 219.864C207.96 219.629 208.602 219.292 209.183 218.865C210.698 217.437 209.464 214.526 210.964 213.082C211.83 212.301 213.134 212.301 214.188 211.864C216.07 210.998 216.687 208.578 216.531 206.502C216.375 204.426 215.766 202.357 215.976 200.289Z" fill="black"/>
</g>
<g opacity="0.3">
<path d="M175.397 147.636C176.74 146.489 179.044 146.356 180.082 147.777C180.863 148.791 180.652 150.188 180.465 151.429C180.207 153.108 179.942 154.778 179.684 156.448C179.559 156.949 179.583 157.475 179.754 157.962C180.246 159.016 181.988 158.829 182.659 157.861C183.229 156.824 183.377 155.608 183.073 154.466C182.76 153.332 182.76 152.134 183.073 151C184.213 148.307 188.226 148.713 190.553 146.965C191.998 145.88 192.638 144.061 193.505 142.469C194.371 140.877 195.8 139.277 197.612 139.347C198.221 139.347 198.814 139.597 199.431 139.574C200.068 139.483 200.644 139.144 201.033 138.631C201.422 138.118 201.593 137.472 201.508 136.834C201.445 136.397 201.267 135.985 200.993 135.64C200.702 135.412 200.44 135.15 200.212 134.859C200.101 134.548 200.098 134.209 200.201 133.896C200.304 133.582 200.508 133.312 200.782 133.127C201.356 132.774 202.007 132.565 202.679 132.518L207.263 131.792C208.941 131.527 211.104 130.66 210.87 128.982C210.659 127.515 208.684 126.867 208.387 125.415C208.364 125.056 208.301 124.7 208.2 124.354C207.739 123.425 206.341 123.8 205.451 124.299C205.355 124.024 205.205 123.772 205.011 123.555C204.816 123.338 204.581 123.162 204.319 123.037C204.056 122.911 203.771 122.839 203.48 122.824C203.19 122.809 202.899 122.851 202.625 122.949C202.436 123.016 202.258 123.108 202.094 123.222C201.227 124.002 201.078 125.283 200.758 126.399C199.978 129.115 197.854 131.175 195.792 133.08C195.171 133.796 194.322 134.276 193.387 134.438C192.45 134.485 191.459 133.478 191.896 132.65C192.185 132.089 193.005 131.784 192.919 131.089C192.833 130.395 191.428 130.364 191.178 129.599C191.724 127.366 194.301 126.477 196.253 125.267C198.676 123.806 200.517 121.549 201.461 118.882C201.563 118.682 201.622 118.462 201.634 118.238C201.646 118.014 201.611 117.789 201.531 117.579C201.235 117.009 200.469 116.923 199.79 116.923C198.275 116.923 196.394 117.095 195.839 118.484C195.543 119.265 195.761 120.1 195.582 120.888C195.051 123.23 191.826 123.495 189.858 124.908C189.164 125.544 188.42 126.123 187.633 126.641C186.671 126.984 185.655 127.148 184.634 127.124H183.752C183.128 127.991 182.643 128.779 182.066 129.677C181.488 130.574 180.902 131.573 180.371 132.494C177.855 136.886 175.821 141.536 174.304 146.364C173.742 148.05 173.266 149.829 172.844 151.617C172.423 153.404 172.126 155.012 171.829 156.815C172.433 155.372 172.865 153.863 173.117 152.319C173.531 150.563 174.093 148.745 175.397 147.636Z" fill="black"/>
</g>
<g opacity="0.3">
<path d="M235.473 115.315C236.137 114.441 235.949 113.153 236.387 112.131C237.113 110.398 239.377 109.789 240.158 108.143C240.463 107.503 240.541 106.714 241.025 106.23C241.509 105.746 242.118 105.746 242.586 105.364C243.641 104.583 243.203 102.726 242.079 102.016C239.284 100.22 234.122 102.289 231.671 104.037C228.547 106.293 225.518 109.001 221.372 108.72C220.232 108.65 219.029 108.33 217.967 108.72C216.905 109.11 216.234 110.726 217.186 111.405C217.702 111.788 218.428 111.67 219.006 111.944C220.075 112.435 220.177 113.989 219.662 115.066C219.146 116.143 218.201 116.915 217.585 117.922C216.976 118.899 216.702 120.047 216.804 121.193C216.819 121.59 216.913 121.98 217.08 122.341C217.248 122.701 217.486 123.025 217.78 123.292C219.06 124.322 221.02 123.44 222.113 122.199C223.207 120.958 223.964 119.366 225.377 118.531C226.114 118.154 226.904 117.891 227.72 117.751L233.123 116.471C234.016 116.368 234.846 115.959 235.473 115.315Z" fill="black"/>
</g>
<g opacity="0.3">
<path d="M313.914 167.68C313.914 166.649 313.914 165.635 313.821 164.62C313.727 163.605 313.727 162.575 313.625 161.568C313.547 160.788 313.469 159.937 313.36 159.133C313.251 158.329 313.141 157.307 313.001 156.464C312.618 154.045 312.096 151.65 311.439 149.291C311.174 148.354 310.721 147.363 310.424 146.442C310.127 145.521 309.799 144.616 309.464 143.718C309.097 143.039 308.683 142.368 308.3 141.72C304.326 135.476 298.563 130.504 294.199 124.486C292.77 122.535 291.669 120.912 289.139 120.529C285.414 119.959 283.525 122.09 280.878 118.547C280.167 117.595 278.918 116.705 277.864 117.282C278.137 118.063 278.418 118.789 278.692 119.561C278.763 119.715 278.792 119.885 278.777 120.053C278.723 120.592 277.911 120.74 277.474 120.443C277.075 120.076 276.742 119.643 276.49 119.163C275.89 118.397 275.011 117.899 274.045 117.779C273.079 117.659 272.105 117.927 271.336 118.523C271.257 118.584 271.182 118.649 271.11 118.718C271.077 118.361 270.95 118.019 270.742 117.726C270.533 117.434 270.251 117.203 269.923 117.056C269.821 117.696 269.47 118.27 268.946 118.651C268.422 119.033 267.768 119.192 267.128 119.093L266.854 119.031C266.636 118.336 267.869 118.25 268.299 117.626C268.728 117.001 268.221 116.299 267.713 115.838C266.344 114.652 264.605 113.979 262.794 113.934C261.646 113.934 260.452 114.121 259.421 113.536C258.843 113.192 258.437 112.67 257.859 112.303C256.594 111.592 255.025 112.24 253.76 112.943C252.027 113.911 250.239 115.12 249.637 117.001C249.036 118.882 250.379 121.427 252.347 121.193C252.83 121.036 253.339 120.975 253.846 121.013C254.18 121.161 254.462 121.406 254.654 121.717C254.847 122.027 254.94 122.389 254.924 122.754C254.888 123.474 254.999 124.193 255.251 124.869C255.595 125.501 256.626 125.813 256.985 125.212C257.914 124.346 257.766 122.871 257.57 121.599C257.375 120.326 257.086 118.929 257.828 117.899C258.57 116.869 260.733 117.196 260.584 118.461C260.499 119.241 259.647 119.749 259.718 120.506C259.788 121.263 260.694 121.684 261.459 121.653C262.213 121.509 262.982 121.47 263.747 121.536C264.528 121.716 265.105 122.699 264.528 123.269C263.591 124.338 261.147 122.488 260.663 123.846C260.616 124.204 260.616 124.566 260.663 124.923C260.577 126.04 259.179 126.438 258.062 126.57C256.961 126.794 255.819 126.713 254.76 126.336C253.76 125.86 253.073 124.533 253.643 123.589C253.346 123.438 253.001 123.411 252.683 123.514C252.366 123.616 252.102 123.839 251.949 124.135C251.952 124.164 251.952 124.192 251.949 124.221C251.706 124.881 251.66 125.596 251.816 126.282C250.645 126.016 249.591 127.015 248.919 128.014C248.248 129.013 247.599 130.161 246.459 130.52C245.319 130.879 243.727 130.387 243.125 131.425C242.345 132.791 244.601 134.547 243.812 135.851C243.36 136.631 242.251 136.584 241.415 136.818C239.143 137.466 238.347 140.791 239.901 142.563C241.454 144.335 244.546 144.233 246.186 142.563C247.334 141.4 247.795 139.761 248.615 138.356C249.434 136.951 251.004 135.694 252.565 136.155C253.172 136.375 253.726 136.72 254.19 137.17L256.462 139.074C256.946 139.48 257.477 139.995 257.43 140.635C257.383 141.275 256.985 141.501 256.821 142.017C256.345 143.382 258.32 144.686 259.562 143.937C260.803 143.187 260.951 141.275 260.1 140.104C258.921 138.473 256.267 137.661 256.337 135.648C257.688 134.539 259.804 135.702 260.623 137.279C261.443 138.856 261.404 140.69 262.107 142.305C262.81 143.921 264.637 145.373 266.199 144.577C265.792 143.18 265.418 141.79 264.988 140.401C265.98 139.62 267.12 141.821 268.307 141.462C269.033 141.236 269.088 140.19 268.806 139.488C268.379 138.85 268.031 138.164 267.768 137.443C267.542 136.069 269.072 134.844 270.462 135.062C271.142 135.233 271.756 135.602 272.227 136.121C272.698 136.641 273.005 137.288 273.109 137.981C273.161 138.533 273.282 139.075 273.468 139.597C273.991 140.682 275.334 141.01 276.443 141.462C277.552 141.915 278.715 143.023 278.262 144.14C278.044 144.623 277.528 145.092 277.716 145.583C277.903 146.075 278.496 146.216 278.496 146.7C278.496 147.004 278.161 147.223 277.864 147.347C277.122 147.66 276.302 147.753 275.584 148.128C275.226 148.279 274.917 148.529 274.695 148.848C274.472 149.167 274.345 149.542 274.327 149.931C274.421 151.055 275.764 151.601 276.396 152.53C277.028 153.459 276.919 154.614 277.27 155.652C277.733 156.549 278.316 157.379 279.004 158.118C280.886 160.725 281.346 163.964 282.236 167.001C282.643 168.359 283.392 169.888 284.798 170.123C285.577 170.185 286.359 170.037 287.062 169.693C289.076 168.913 291.177 168.023 292.59 166.384C294.003 164.745 294.503 162.052 293.035 160.437C292.869 160.21 292.624 160.054 292.348 159.999C291.967 160.021 291.6 160.148 291.286 160.366C290.749 160.564 290.168 160.606 289.608 160.488C289.048 160.369 288.534 160.094 288.124 159.695C287.329 158.881 286.693 157.925 286.25 156.877L284.579 153.498C284.95 153.262 285.389 153.156 285.826 153.195C286.264 153.235 286.677 153.418 286.999 153.716C287.617 154.34 288.169 155.026 288.647 155.761C290.341 157.861 293.105 158.79 295.784 159.102C296.473 159.14 297.152 159.283 297.798 159.523C299.797 160.437 300.398 163.426 302.483 164.019C303.092 164.115 303.695 164.251 304.287 164.425C304.677 164.675 305.012 165.003 305.27 165.389C305.528 165.774 305.704 166.209 305.786 166.665C306.107 168.362 306.551 170.035 307.113 171.668C307.8 173.229 309.214 174.681 310.932 174.704C311.461 174.696 311.983 174.583 312.469 174.371C312.954 174.159 313.392 173.853 313.758 173.471C313.852 171.91 313.953 170.294 313.953 168.71C313.938 168.335 313.938 168.007 313.914 167.68Z" fill="black"/>
</g>
<g opacity="0.3">
<path d="M284.985 197.292C283.923 197.503 283.712 198.158 283.134 198.915C282.353 199.946 281.299 200.968 280.62 201.983C279.456 203.716 280.503 206.377 278.972 207.821C278.629 208.063 278.301 208.328 277.981 208.602C277.703 208.983 277.585 209.458 277.654 209.925C277.723 210.392 277.972 210.814 278.348 211.099C278.74 211.363 279.2 211.507 279.672 211.515C280.144 211.524 280.609 211.395 281.01 211.146C281.806 210.625 282.383 209.831 282.634 208.914C282.757 208.24 283.059 207.612 283.509 207.095C284.376 206.315 285.742 206.892 286.898 206.728C291.754 206.127 289.646 196.426 284.985 197.292Z" fill="black"/>
</g>
<g opacity="0.3">
<path d="M286.648 183.836C289.474 181.401 290.607 175.891 287.109 174.61C285.781 174.127 284.251 174.517 282.931 174.01C281.198 173.346 280.417 171.403 279.808 169.67C278.184 165.122 276.557 160.574 274.928 156.027C273.944 153.287 272.453 150.11 269.571 149.705C267.947 149.478 266.355 150.259 264.738 150.571C259.148 151.586 249.754 138.083 245.507 147.176C244.913 144.694 240.892 145.615 239.612 147.824C238.331 150.032 238.05 152.92 236.02 154.45C234.458 155.613 232.194 155.675 230.921 157.143C230.047 158.173 229.875 159.64 229.765 160.998C229.547 163.598 229.336 166.204 229.125 168.804C228.946 170.903 228.797 173.143 229.844 174.97C230.89 176.796 233.591 177.811 235.137 176.398C235.864 175.75 236.153 174.759 236.746 173.986C237.229 173.371 237.879 172.908 238.619 172.653C239.358 172.398 240.156 172.362 240.915 172.55C242.164 172.983 243.266 173.759 244.093 174.79C251.363 182.595 253.963 193.749 254.283 204.449C254.209 206.405 254.473 208.359 255.064 210.225C255.931 212.364 257.664 214.073 258.187 216.297C258.593 218.03 258.187 219.888 258.968 221.496C260.319 224.438 264.84 224.571 267.299 222.448C269.759 220.325 270.618 216.945 271.11 213.784C271.602 210.623 271.976 207.204 273.71 204.504C274.819 202.834 276.458 201.491 277.231 199.641C278.324 197.042 277.52 193.983 278.527 191.352C279.909 187.817 283.829 186.287 286.648 183.836Z" fill="black"/>
</g>
<path d="M313.844 168.296C313.844 168.296 313.844 167.898 313.789 167.133C313.735 166.368 313.789 165.213 313.649 163.722C313.355 159.361 312.678 155.033 311.626 150.789C310.845 147.733 309.861 144.732 308.683 141.806C307.316 138.294 305.663 134.901 303.74 131.659C299.078 123.76 292.951 116.822 285.688 111.218C277.544 104.951 268.136 100.527 258.114 98.2524C248.091 95.9776 237.694 95.9061 227.642 98.0429C224.407 98.7697 221.222 99.7056 218.108 100.845C204.833 105.761 193.32 114.512 185.033 125.985C182.86 128.965 180.928 132.112 179.255 135.398C178.388 137.037 177.638 138.754 176.912 140.463C176.157 142.19 175.505 143.959 174.96 145.763C173.766 149.371 172.866 153.07 172.266 156.823C171.681 160.63 171.376 164.475 171.353 168.327C171.372 172.18 171.677 176.025 172.266 179.832C172.867 183.59 173.767 187.294 174.96 190.908C175.522 192.71 176.225 194.451 176.912 196.192C177.599 197.924 178.381 199.618 179.255 201.265C180.928 204.55 182.86 207.698 185.033 210.678C193.323 222.149 204.835 230.902 218.108 235.826C221.225 236.951 224.413 237.871 227.65 238.581C230.795 239.255 233.983 239.709 237.191 239.939C243.368 240.417 249.58 240.07 255.665 238.909C266.606 236.838 276.903 232.214 285.719 225.414C292.981 219.801 299.107 212.859 303.771 204.957C305.698 201.73 307.354 198.349 308.722 194.849C309.884 191.91 310.854 188.899 311.626 185.834C312.678 181.591 313.355 177.263 313.649 172.901C313.774 171.41 313.75 170.294 313.789 169.49C313.828 168.686 313.844 168.327 313.844 168.327V169.49C313.844 170.271 313.844 171.41 313.735 172.909C313.306 180.452 311.68 187.879 308.917 194.912C307.559 198.424 305.911 201.818 303.99 205.058C299.327 213.004 293.193 219.989 285.914 225.64C272.052 236.396 254.69 241.624 237.191 240.314C233.95 240.072 230.731 239.602 227.556 238.909C224.294 238.204 221.083 237.28 217.944 236.146C204.58 231.212 192.986 222.418 184.634 210.881C182.447 207.896 180.505 204.741 178.825 201.444C177.958 199.797 177.193 198.073 176.436 196.348C175.678 194.614 175.023 192.836 174.476 191.025C173.273 187.389 172.367 183.661 171.767 179.879C170.525 172.212 170.525 164.396 171.767 156.729C172.368 152.95 173.274 149.225 174.476 145.591C175.046 143.781 175.749 142.024 176.444 140.276C177.14 138.533 177.935 136.832 178.825 135.179C187.044 119.106 201.007 106.708 217.944 100.447C221.082 99.2967 224.293 98.358 227.556 97.637C237.665 95.4789 248.123 95.5516 258.201 97.8501C268.279 100.148 277.734 104.617 285.906 110.945C293.195 116.589 299.336 123.575 303.998 131.527C305.919 134.767 307.567 138.16 308.925 141.673C311.688 148.714 313.314 156.148 313.743 163.699C313.86 165.198 313.821 166.298 313.852 167.118C313.877 167.51 313.874 167.904 313.844 168.296Z" fill="#2F2E41"/>
<path d="M245.21 240.298C245.085 240.298 244.983 208.367 244.983 168.975C244.983 129.583 245.085 97.6526 245.21 97.6526C245.335 97.6526 245.436 129.583 245.436 168.975C245.436 208.367 245.311 240.298 245.21 240.298Z" fill="#2F2E41"/>
<path d="M249.271 239.915C249.271 239.915 249.388 239.822 249.63 239.658L250.684 238.932C251.629 238.323 252.979 237.371 254.666 236.029C259.396 232.268 263.673 227.97 267.409 223.22C272.966 216.187 277.358 208.308 280.417 199.883C284.063 189.524 286.009 178.644 286.18 167.664C286.406 156.019 285.235 144.842 282.525 135.101C280.183 126.439 276.1 118.344 270.524 111.311C268.374 108.632 265.901 106.228 263.161 104.154C261.093 102.585 258.872 101.228 256.532 100.103C255.049 99.401 253.529 98.7783 251.98 98.238L250.762 97.8243L250.348 97.6682L250.77 97.7775L252.003 98.1521C253.573 98.6575 255.111 99.2543 256.61 99.9395C258.973 101.048 261.22 102.39 263.317 103.943C266.09 106.017 268.595 108.426 270.774 111.116C276.411 118.156 280.544 126.277 282.916 134.976C285.664 144.764 286.82 155.964 286.617 167.672C286.444 178.699 284.472 189.624 280.776 200.016C277.683 208.477 273.242 216.384 267.628 223.431C263.858 228.176 259.535 232.455 254.752 236.177C253.018 237.472 251.675 238.425 250.715 239.01L249.63 239.697L249.271 239.915Z" fill="#2F2E41"/>
<path d="M242.711 240.157L242.321 239.939L241.22 239.236C240.244 238.643 238.877 237.675 237.089 236.38C228.752 230.059 221.601 222.311 215.968 213.495C213.305 209.381 211.103 204.986 209.402 200.391C207.528 195.319 206.091 190.097 205.107 184.78C204.081 179.056 203.501 173.26 203.374 167.445C203.139 155.535 204.342 144.101 207.231 134.157C208.574 129.444 210.425 124.89 212.751 120.576C214.758 116.8 217.281 113.322 220.247 110.242C224.572 105.801 229.727 102.25 235.418 99.7912C236.944 99.1203 238.508 98.5417 240.103 98.0584L241.36 97.6838L241.798 97.5745L241.376 97.7306L240.142 98.1443C239.049 98.5111 237.464 99.0965 235.457 99.9707C229.826 102.476 224.731 106.043 220.45 110.476C217.522 113.549 215.031 117.011 213.048 120.763C210.747 125.064 208.915 129.598 207.582 134.29C204.74 144.179 203.545 155.574 203.78 167.453C203.911 173.234 204.491 178.996 205.513 184.687C206.481 189.984 207.903 195.188 209.761 200.242C211.448 204.817 213.626 209.195 216.257 213.3C221.849 222.095 228.92 229.856 237.16 236.239C238.893 237.551 240.283 238.542 241.236 239.166L242.321 239.9C242.456 239.978 242.586 240.064 242.711 240.157V240.157Z" fill="#2F2E41"/>
<path d="M313.938 167.024C313.938 167.157 282.127 167.25 242.883 167.25C203.64 167.25 171.829 167.157 171.829 167.024C171.829 166.891 203.624 166.805 242.883 166.805C282.143 166.805 313.938 166.946 313.938 167.024Z" fill="#263238"/>
<path d="M303.006 130.418C303.006 130.551 275.865 130.645 242.399 130.645C208.933 130.645 181.792 130.551 181.792 130.418C181.792 130.286 208.925 130.192 242.399 130.192C275.873 130.192 303.006 130.262 303.006 130.418Z" fill="#2F2E41"/>
<path d="M303.787 204.371C303.787 204.496 276.029 204.598 241.805 204.598C207.582 204.598 179.816 204.496 179.816 204.371C179.816 204.246 207.567 204.145 241.805 204.145C276.044 204.145 303.787 204.231 303.787 204.371Z" fill="#2F2E41"/>
<path d="M286.492 193.827H197.151C191.076 193.827 185.249 191.415 180.952 187.123C176.654 182.83 174.238 177.007 174.234 170.934V170.934C174.234 164.858 176.648 159.031 180.946 154.733C185.243 150.436 191.072 148.021 197.151 148.019H286.492C289.501 148.02 292.48 148.613 295.26 149.766C298.04 150.918 300.565 152.606 302.692 154.734C304.818 156.862 306.505 159.388 307.655 162.168C308.805 164.948 309.395 167.926 309.393 170.934V170.934C309.391 177.005 306.978 182.827 302.683 187.119C298.389 191.412 292.565 193.824 286.492 193.827V193.827Z" fill="white"/>
<path d="M286.492 193.827L287.359 193.764C288.172 193.734 288.983 193.653 289.787 193.522C292.895 193.078 295.875 191.985 298.532 190.314C299.44 189.745 300.311 189.119 301.14 188.441L302.413 187.27C302.866 186.88 303.194 186.404 303.654 185.951C305.42 183.929 306.816 181.612 307.777 179.106C308.887 176.227 309.392 173.151 309.261 170.068C309.13 166.611 308.22 163.228 306.598 160.171C304.771 156.831 302.155 153.988 298.977 151.89C297.268 150.805 295.432 149.932 293.512 149.291C291.52 148.651 289.449 148.291 287.359 148.222C278.77 148.151 269.603 148.222 259.96 148.222H197.151C191.724 148.202 186.472 150.138 182.356 153.674C178.241 157.211 175.537 162.11 174.742 167.477C174.338 170.027 174.38 172.629 174.866 175.165C175.341 177.648 176.22 180.037 177.467 182.236C179.944 186.492 183.728 189.837 188.257 191.774C190.445 192.676 192.751 193.26 195.105 193.507C197.448 193.678 199.79 193.585 202.047 193.608H239.229L273.812 193.678H283.181L273.812 193.725L239.229 193.788H202.047C199.759 193.788 197.448 193.866 195.105 193.694C192.723 193.451 190.388 192.867 188.172 191.961C184.676 190.469 181.6 188.143 179.211 185.188C176.823 182.233 175.194 178.738 174.468 175.009C173.74 171.094 174.042 167.058 175.344 163.296C176.646 159.533 178.903 156.173 181.894 153.545C186.121 149.859 191.534 147.817 197.143 147.792H259.952C269.603 147.792 278.77 147.792 287.367 147.847C290.534 147.937 293.645 148.709 296.486 150.11C297.405 150.542 298.292 151.037 299.141 151.593C301.903 153.402 304.243 155.782 306.005 158.573C307.766 161.364 308.908 164.501 309.352 167.771C309.796 171.041 309.533 174.368 308.579 177.527C307.626 180.687 306.005 183.605 303.826 186.084C303.433 186.55 303.014 186.993 302.569 187.411L301.265 188.582C300.429 189.269 299.544 189.895 298.618 190.455C295.942 192.112 292.941 193.176 289.818 193.577C289.012 193.703 288.198 193.771 287.382 193.78L286.492 193.827Z" fill="#263238"/>
<path d="M227.813 159.804L220.786 179.645H214.016L210.3 168.85L206.396 179.645H199.665L192.599 159.804H199.189L203.272 171.785L207.489 159.781H213.423L217.514 171.918L221.731 159.781L227.813 159.804Z" fill="#2F2E41"/>
<path d="M262.185 159.804L255.158 179.645H248.419L244.656 168.85L240.752 179.645H234.021L226.994 159.804H233.584L237.628 171.785L241.837 159.781H247.779L251.87 171.918L256.087 159.781L262.185 159.804Z" fill="#2F2E41"/>
<path d="M296.564 159.804L289.498 179.645H282.76L279.012 168.85L275.108 179.645H268.369L261.303 159.804H267.893L271.984 171.785L276.185 159.781H282.135L286.234 171.918L290.443 159.781L296.564 159.804Z" fill="#2F2E41"/>
<path d="M205.061 215.056L174.094 224.079C173.671 224.204 173.316 224.491 173.105 224.877C172.895 225.263 172.846 225.717 172.969 226.14C173.049 226.413 173.2 226.661 173.406 226.858L194.543 247.276C194.861 247.578 195.285 247.743 195.724 247.735C196.163 247.726 196.58 247.544 196.886 247.229C197.053 247.049 197.18 246.836 197.26 246.604L207.106 217.172C207.245 216.752 207.212 216.295 207.014 215.9C206.817 215.506 206.471 215.205 206.052 215.064C205.73 214.964 205.385 214.961 205.061 215.056Z" fill="#2F2E41"/>
<path d="M162.131 248.618L183.963 228.341L192.661 236.786L170.931 257.61L162.131 248.618Z" fill="#2F2E41"/>
<path d="M380.705 120.123C380.705 120.123 383.641 94.0544 360.506 97.3638C345.381 99.518 336.027 119.998 349.855 129.302C363.684 138.606 380.705 120.123 380.705 120.123Z" fill="#2F2E41"/>
<g opacity="0.22">
<path d="M320.723 490.208C427.561 490.208 514.17 485.113 514.17 478.829C514.17 472.544 427.561 467.449 320.723 467.449C213.885 467.449 127.275 472.544 127.275 478.829C127.275 485.113 213.885 490.208 320.723 490.208Z" fill="#F27900"/>
</g>
<path d="M396.556 484.152C336.12 482.029 273.608 473.786 241.251 362.463C231.632 329.369 237.886 304.307 248.443 285.419C250.963 280.939 253.783 276.634 256.883 272.533V272.533C258 271.05 259.132 269.614 260.264 268.224C283.876 239.283 323.51 228.903 358.585 241.687C378.277 248.86 403.528 259.467 426.047 273.259C471.335 300.974 481.907 332.577 496.688 386.791C497.96 391.474 499.225 396.665 500.194 402.206C500.709 405.172 501.138 408.224 501.427 411.33C504.707 445.993 491.331 487.476 396.556 484.152Z" fill="#BCBEC0"/>
<path d="M501.427 411.33C499.298 417.301 496.381 422.96 492.752 428.158C481.321 444.549 457.53 464.303 409.057 465.583C406.917 465.638 404.817 465.669 402.74 465.669C384.219 465.669 367.884 463.429 352.955 458.879C337.766 454.335 323.612 446.866 311.291 436.892C290.529 420.15 273.413 395.65 255.853 357.46C248.896 342.373 245.296 327.082 245.132 312.019C245.037 303.041 246.164 294.093 248.482 285.419C251.002 280.939 253.822 276.634 256.922 272.533C256.173 274.26 255.449 276.069 254.752 277.957C248.427 295.316 244.062 322.93 259.257 355.883C290.146 422.913 325.978 464.007 408.994 461.837C455.898 460.604 478.784 441.676 489.715 426.012C494.767 418.853 498.343 410.761 500.233 402.206C500.709 405.156 501.138 408.224 501.427 411.33Z" fill="#A7A9AC"/>
<path d="M414.975 205.885C414.975 205.885 452.915 257.352 461.575 282.984C470.234 308.616 449.23 326.825 449.23 326.825L429.709 334.13C429.709 334.13 409.658 243.631 414.975 205.885Z" fill="#F27900"/>
<g opacity="0.2">
<path d="M414.975 205.885C414.975 205.885 452.915 257.352 461.575 282.984C470.234 308.616 449.23 326.825 449.23 326.825L429.709 334.13C429.709 334.13 409.658 243.631 414.975 205.885Z" fill="black"/>
</g>
<path d="M411.626 350.037C395.041 355.54 354.524 369.94 336.917 364.086C336.2 363.847 335.498 363.562 334.817 363.235C332.981 362.399 331.411 361.073 330.28 359.403C323.378 348.96 316.53 304.869 319.614 278.964C319.997 275.733 320.184 272.221 320.247 268.529C320.34 263.065 320.161 257.29 319.926 251.436C319.06 229.441 315.593 214.252 325.01 208.906C333.197 204.441 341.918 201.031 350.964 198.759C355.188 197.753 362.098 195.637 366.939 195.739L387.928 199.548C387.928 199.548 406.035 202.568 410.22 205.651C414.405 208.734 416.529 222.307 424.08 234.741C431.63 247.174 433.27 259.647 426.063 273.29C419.816 285.161 420.894 280.666 420.074 300.139C419.051 323.984 444.006 339.313 411.626 350.037Z" fill="white"/>
<g opacity="0.2">
<path d="M355.922 238.206C355.922 238.206 378.659 232.329 407.674 237.746L408.377 257.797C408.377 257.797 376.465 254.246 356.367 259.358L355.922 238.206Z" fill="#F27900"/>
</g>
<g opacity="0.2">
<g opacity="0.8">
<path d="M382.079 221.269H381.142C368.712 220.629 357.328 209.663 356.851 209.195C356.767 209.121 356.699 209.03 356.65 208.929C356.601 208.828 356.573 208.719 356.568 208.607C356.562 208.495 356.578 208.383 356.616 208.278C356.654 208.172 356.713 208.075 356.789 207.993C356.862 207.909 356.952 207.841 357.052 207.792C357.153 207.744 357.262 207.716 357.373 207.71C357.484 207.704 357.596 207.721 357.7 207.758C357.805 207.796 357.902 207.855 357.983 207.93L358.038 207.977C358.147 208.086 369.454 218.959 381.228 219.568C392.519 220.161 393.878 208.976 393.932 208.5C393.935 208.382 393.962 208.266 394.011 208.16C394.061 208.053 394.132 207.958 394.221 207.88C394.309 207.802 394.413 207.743 394.525 207.708C394.638 207.672 394.756 207.66 394.873 207.672C394.99 207.685 395.104 207.722 395.206 207.78C395.308 207.839 395.397 207.918 395.467 208.012C395.537 208.107 395.587 208.215 395.613 208.33C395.639 208.445 395.641 208.564 395.619 208.68C395.572 208.789 394.088 221.269 382.079 221.269Z" fill="#F27900"/>
</g>
</g>
<g opacity="0.8">
<path d="M346.825 321.642C346.734 321.575 346.657 321.49 346.599 321.392C346.48 321.191 346.444 320.951 346.5 320.723C346.555 320.496 346.697 320.299 346.896 320.175C359.65 312.451 373.909 307.544 388.716 305.782C399.749 304.51 406.855 305.54 407.151 305.579C407.373 305.627 407.568 305.757 407.696 305.944C407.825 306.13 407.878 306.358 407.844 306.582C407.81 306.806 407.692 307.008 407.514 307.148C407.336 307.288 407.112 307.355 406.886 307.336C400.886 306.699 394.832 306.77 388.849 307.546C374.32 309.284 360.33 314.106 347.817 321.689C347.666 321.782 347.491 321.827 347.314 321.818C347.137 321.81 346.967 321.749 346.825 321.642V321.642Z" fill="#CCD3E6"/>
</g>
<path d="M367.946 358.014C353.017 353.292 339.517 343.77 330.288 335.286C329.561 334.607 328.859 333.943 328.187 333.287C323.409 328.651 320.043 331.04 318.575 328.362C313 318.153 316.163 278.098 318.575 263.393C320.988 248.688 310.83 221.737 316.295 212.098C321.761 202.459 340.587 199.103 340.587 199.103C340.587 199.103 337.924 195.981 342.976 192.445C348.028 188.909 361.489 190.361 361.489 190.361C362.122 254.027 371.148 313.158 367.946 358.014Z" fill="#F27900"/>
<path d="M353.268 339.766C353.069 339.766 352.878 339.695 352.727 339.566C352.577 339.438 352.478 339.259 352.448 339.063C345.655 294.902 352.37 211.841 352.448 211.013C352.476 210.801 352.585 210.607 352.752 210.472C352.92 210.338 353.132 210.273 353.346 210.291C353.56 210.309 353.759 210.409 353.901 210.569C354.044 210.73 354.119 210.939 354.111 211.154C354.041 211.981 347.341 294.848 354.111 338.806C354.145 339.024 354.09 339.247 353.96 339.425C353.83 339.604 353.634 339.723 353.416 339.758L353.268 339.766Z" fill="white"/>
<g opacity="0.2">
<path d="M366.932 346.392C366.737 346.39 366.548 346.321 366.399 346.195C366.249 346.07 366.148 345.897 366.112 345.705C357.226 294.972 356.523 207.478 356.516 206.603C356.516 206.383 356.602 206.171 356.757 206.013C356.912 205.855 357.122 205.765 357.343 205.761V205.761C357.562 205.765 357.77 205.853 357.924 206.007C358.078 206.162 358.167 206.37 358.171 206.588C358.171 207.47 358.889 294.832 367.744 345.417C367.764 345.523 367.763 345.632 367.741 345.738C367.719 345.843 367.677 345.944 367.616 346.033C367.555 346.122 367.477 346.198 367.386 346.257C367.295 346.316 367.194 346.357 367.088 346.377C367.037 346.391 366.984 346.397 366.932 346.392V346.392Z" fill="black"/>
</g>
<g opacity="0.2">
<path d="M352.19 206.127H351.971C347.69 204.987 343.74 202.847 340.447 199.883C340.289 199.729 340.2 199.519 340.197 199.298C340.195 199.078 340.281 198.866 340.435 198.709C340.589 198.551 340.8 198.462 341.02 198.46C341.24 198.457 341.453 198.543 341.61 198.697V198.697C344.717 201.423 348.413 203.394 352.409 204.457C352.607 204.505 352.78 204.624 352.896 204.792C353.011 204.96 353.061 205.165 353.035 205.367C353.008 205.569 352.909 205.755 352.754 205.888C352.6 206.021 352.402 206.092 352.198 206.088L352.19 206.127Z" fill="black"/>
</g>
<path d="M432.622 330.228C432.622 330.228 427.296 348.141 407.495 356.671C405.035 308.116 399.46 252.661 392.269 193.663C392.269 193.663 399.835 192.336 402.997 196.66C404.356 198.525 404.653 201.678 404.653 201.678C407.446 202.287 410.164 203.2 412.758 204.402C416.998 206.377 416.513 209.085 417.521 215.97C418.528 222.854 429.163 233.492 432.622 247.923C436.081 262.355 426.914 271.542 424.033 283.647C421.151 295.753 432.622 330.228 432.622 330.228Z" fill="#F27900"/>
<path d="M415.655 337.736C415.441 337.741 415.234 337.662 415.078 337.516C414.922 337.37 414.829 337.169 414.819 336.956C412.906 270.894 400.835 211.864 400.718 211.294C400.672 211.079 400.714 210.854 400.834 210.67C400.954 210.486 401.143 210.356 401.358 210.311C401.573 210.265 401.798 210.307 401.982 210.427C402.167 210.547 402.296 210.736 402.342 210.951C402.467 211.544 414.569 270.706 416.482 336.925C416.492 337.033 416.479 337.142 416.444 337.245C416.41 337.348 416.354 337.442 416.28 337.523C416.207 337.603 416.117 337.666 416.018 337.71C415.918 337.754 415.81 337.776 415.702 337.775L415.655 337.736Z" fill="white"/>
<g opacity="0.2">
<path d="M397.391 207.922C397.282 207.92 397.173 207.897 397.073 207.853C396.972 207.809 396.881 207.746 396.805 207.667C396.729 207.588 396.669 207.495 396.629 207.393C396.589 207.29 396.569 207.181 396.571 207.072C396.583 206.885 396.656 206.708 396.779 206.566C396.902 206.425 397.067 206.329 397.251 206.291C397.305 206.291 402.631 205.316 403.856 201.452C403.95 201.281 404.1 201.149 404.281 201.077C404.462 201.005 404.662 200.998 404.848 201.059C405.033 201.119 405.191 201.242 405.295 201.406C405.4 201.571 405.443 201.766 405.418 201.959C403.856 206.799 397.766 207.891 397.508 207.93L397.391 207.922Z" fill="black"/>
</g>
<g opacity="0.2">
<path d="M413.679 337.736C413.476 337.737 413.279 337.663 413.128 337.527C412.976 337.392 412.88 337.205 412.859 337.003C406.995 288.307 397.735 210.467 397.649 209.686C397.623 209.468 397.685 209.248 397.821 209.076C397.957 208.903 398.157 208.791 398.375 208.765C398.593 208.74 398.813 208.802 398.986 208.938C399.159 209.074 399.27 209.273 399.296 209.491C399.39 210.272 408.666 288.104 414.507 336.808C414.533 337.027 414.472 337.248 414.336 337.422C414.199 337.596 414 337.709 413.78 337.736H413.679Z" fill="black"/>
</g>
<path d="M364.472 372.711C367.002 374.522 371 376.41 376.965 378.315C410.954 389.125 442.117 371.673 442.117 371.673C443.998 362.369 442.835 351.801 439.696 347.93C439.981 347.486 440.16 346.983 440.218 346.459C440.276 345.935 440.213 345.404 440.032 344.909L471.311 312.456C453.524 327.192 431.49 331.968 414.39 342.357C409.455 345.338 405.02 347.961 401.772 349.787C396.806 352.574 390.473 352.847 384.266 351.988C372.171 350.318 360.568 344.363 360.568 344.363C360.568 344.363 321.613 326.716 314.312 327.301C308.683 327.761 339.197 359.653 364.472 372.711Z" fill="#2F2E41"/>
<g opacity="0.4">
<path d="M364.472 372.711C367.002 374.522 371 376.41 376.965 378.315C410.954 389.125 442.117 371.673 442.117 371.673C443.998 362.369 442.835 351.801 439.696 347.93C439.981 347.486 440.16 346.983 440.218 346.459C440.276 345.935 440.213 345.404 440.032 344.909L471.311 312.456C453.524 327.192 431.49 331.968 414.39 342.357C409.455 345.338 405.02 347.961 401.772 349.787C396.806 352.574 390.473 352.847 384.266 351.988C372.171 350.318 360.568 344.363 360.568 344.363C360.568 344.363 321.613 326.716 314.312 327.301C308.683 327.761 339.197 359.653 364.472 372.711Z" fill="black"/>
</g>
<path d="M424.673 399.911C424.673 399.911 414.647 397.031 411.571 393.777L404.606 410.167L428.319 417.567C428.319 417.567 428.647 403.166 424.673 399.911Z" fill="#C08771"/>
<path d="M481.907 447.304L451.252 379.275C449.818 379.243 448.393 379.509 447.067 380.055C441.117 382.217 432.762 388.188 427.375 391.7C426.75 392.114 426.157 392.481 425.618 392.824C424.885 393.288 424.126 393.71 423.346 394.089C418.614 396.22 421.105 398.772 421.105 398.772C429.92 403.182 424.556 416.24 429.928 419.291C429.928 419.291 432.216 420.618 439.509 423.834C446.802 427.05 454.149 434.816 460.942 441.146C469.711 449.341 475.215 450.301 478.378 449.552C479.793 449.267 481.051 448.466 481.907 447.304V447.304Z" fill="#F27900"/>
<path opacity="0.2" d="M451.252 379.267C449.818 379.236 448.393 379.501 447.067 380.048L450.791 388.305C448.986 390.284 446.738 391.808 444.232 392.754C437.361 395.455 431.013 393.464 427.39 391.724C426.765 392.138 426.172 392.504 425.633 392.848C429.303 394.823 436.651 397.64 444.88 394.409C447.4 393.448 449.683 391.954 451.572 390.03L478.401 449.552C479.814 449.264 481.07 448.459 481.922 447.296L451.252 379.267Z" fill="black"/>
<path d="M442.983 420.891C442.862 420.613 442.642 420.389 442.366 420.263C442.09 420.136 441.777 420.116 441.487 420.206C441.196 420.296 440.95 420.49 440.794 420.75C440.638 421.01 440.583 421.319 440.64 421.617L441.499 426.3C441.578 426.6 441.768 426.86 442.029 427.026C442.291 427.193 442.606 427.255 442.912 427.2C443.217 427.145 443.491 426.976 443.677 426.729C443.864 426.481 443.951 426.172 443.92 425.863L443.061 421.133C443.047 421.049 443.021 420.968 442.983 420.891V420.891Z" fill="white"/>
<path d="M437.564 418.261C437.443 417.983 437.223 417.759 436.947 417.633C436.671 417.506 436.358 417.486 436.068 417.576C435.778 417.666 435.531 417.859 435.375 418.12C435.219 418.38 435.165 418.689 435.222 418.987L436.081 423.67C436.16 423.97 436.349 424.229 436.611 424.396C436.873 424.563 437.188 424.625 437.493 424.569C437.799 424.514 438.072 424.346 438.259 424.098C438.446 423.851 438.532 423.542 438.501 423.233L437.643 418.503C437.625 418.42 437.599 418.339 437.564 418.261V418.261Z" fill="white"/>
<path d="M447.387 424.021C447.29 423.711 447.073 423.452 446.784 423.301C446.496 423.15 446.159 423.12 445.849 423.217C445.538 423.315 445.279 423.531 445.128 423.82C444.977 424.108 444.947 424.444 445.044 424.755L445.903 429.438C445.918 429.601 445.966 429.76 446.043 429.904C446.12 430.049 446.225 430.177 446.352 430.28C446.48 430.384 446.626 430.461 446.783 430.507C446.941 430.554 447.105 430.568 447.268 430.55C447.431 430.532 447.589 430.481 447.732 430.402C447.876 430.322 448.001 430.214 448.103 430.085C448.204 429.956 448.278 429.809 448.322 429.651C448.365 429.492 448.376 429.327 448.355 429.165C448.359 429.108 448.359 429.05 448.355 428.993L447.496 424.31C447.471 424.21 447.434 424.113 447.387 424.021V424.021Z" fill="white"/>
<path d="M451.682 427.206C451.57 426.954 451.377 426.748 451.133 426.62C450.889 426.493 450.609 426.451 450.339 426.503C450.018 426.562 449.734 426.745 449.548 427.013C449.362 427.281 449.29 427.611 449.347 427.932L450.214 432.654C450.272 432.974 450.454 433.257 450.722 433.442C450.989 433.628 451.319 433.699 451.639 433.641C451.959 433.583 452.243 433.4 452.428 433.133C452.613 432.866 452.684 432.536 452.626 432.217L451.768 427.487C451.751 427.39 451.722 427.295 451.682 427.206Z" fill="white"/>
<path d="M455.968 430.851C455.847 430.572 455.627 430.349 455.351 430.222C455.075 430.096 454.762 430.075 454.472 430.165C454.182 430.255 453.935 430.449 453.779 430.709C453.623 430.97 453.568 431.278 453.626 431.577L454.485 436.26C454.533 436.571 454.699 436.853 454.948 437.046C455.197 437.239 455.511 437.33 455.825 437.299C456.139 437.268 456.429 437.118 456.636 436.879C456.843 436.641 456.95 436.333 456.936 436.018C456.945 435.953 456.945 435.887 456.936 435.823L456.078 431.093C456.054 431.007 456.017 430.925 455.968 430.851V430.851Z" fill="white"/>
<path d="M460.106 435.026C459.985 434.748 459.765 434.524 459.489 434.398C459.213 434.271 458.9 434.251 458.61 434.341C458.32 434.431 458.073 434.625 457.917 434.885C457.761 435.145 457.707 435.454 457.764 435.752L458.623 440.482C458.664 440.639 458.735 440.786 458.833 440.916C458.931 441.045 459.053 441.154 459.193 441.236C459.333 441.317 459.488 441.371 459.649 441.393C459.81 441.415 459.973 441.405 460.13 441.364C460.417 441.291 460.667 441.116 460.835 440.872C461.003 440.628 461.077 440.331 461.043 440.037L460.185 435.315C460.171 435.216 460.144 435.119 460.106 435.026Z" fill="white"/>
<path d="M314.32 327.301C314.32 327.301 289.67 314.032 275.388 324.288C249.278 343.083 293.582 379.244 344.264 396.875C394.947 414.507 411.415 412.126 411.415 412.126C411.415 412.126 422.424 409.09 418.52 391.256C418.52 391.256 389.302 380.149 374.099 368.519C358.897 356.89 348.504 342.669 314.32 327.301Z" fill="#2F2E41"/>
<g opacity="0.2">
<path d="M416.545 396.469C405.91 393.917 384.25 383.981 358.593 369.932C339.408 359.395 317.28 345.939 314.031 341.272C312.282 338.751 311.837 336.683 312.72 335.137C314.039 332.796 317.842 332.585 319.575 332.601C319.782 332.601 319.981 332.683 320.127 332.829C320.274 332.976 320.356 333.174 320.356 333.381V333.428C320.34 333.624 320.251 333.807 320.106 333.94C319.961 334.073 319.772 334.147 319.575 334.146C317.873 334.146 314.89 334.427 314.07 335.902C313.368 337.128 314.359 339.024 315.312 340.39C317.928 344.152 336.449 356 359.342 368.582C379.066 379.4 404.544 391.997 416.912 395.002L416.545 396.469Z" fill="black"/>
</g>
<path d="M414.538 388.914C413.343 398.28 410.915 406.819 405.613 413.352C405.613 413.352 410.15 416.622 414.296 414.273C417.419 412.485 423.564 397.882 421.237 390.022C418.59 388.578 416.303 388.071 414.538 388.914Z" fill="#2F2E41"/>
<g opacity="0.3">
<path d="M414.538 388.914C413.343 398.28 410.915 406.819 405.613 413.352C405.613 413.352 410.15 416.622 414.296 414.273C417.419 412.485 423.564 397.882 421.237 390.022C418.59 388.578 416.303 388.071 414.538 388.914Z" fill="black"/>
</g>
<path d="M350.222 398.054C350.222 398.054 360.295 396.11 363.153 392.661L371.195 408.552L348.028 417.52C348.028 417.52 346.474 401.574 350.222 398.054Z" fill="#C08771"/>
<path d="M296.541 450.754L322.589 380.836C324.018 380.72 325.456 380.898 326.813 381.359C332.896 383.123 341.649 388.524 347.239 391.662C347.895 392.036 348.512 392.372 349.067 392.668C349.824 393.085 350.607 393.455 351.409 393.777C356.266 395.587 354.243 396.953 354.243 396.953C344.671 401.449 351.682 415.951 346.521 419.362C346.521 419.362 344.327 420.837 337.268 424.529C330.21 428.22 323.385 436.431 317.03 443.222C308.839 451.987 303.412 453.306 300.211 452.767C298.781 452.57 297.475 451.853 296.541 450.754V450.754Z" fill="#F27900"/>
<path opacity="0.2" d="M347.239 391.662C343.741 393.644 337.542 396.056 330.507 393.816C327.944 393.04 325.601 391.671 323.667 389.819L326.79 381.359C325.432 380.898 323.995 380.72 322.566 380.836L320.676 385.894L320.247 387.057L296.518 450.754C297.449 451.857 298.756 452.578 300.187 452.775L322.979 391.591C324.994 393.377 327.369 394.708 329.944 395.494C338.369 398.171 345.514 394.869 349.043 392.653C348.504 392.372 347.895 392.036 347.239 391.662Z" fill="black"/>
<path d="M333.599 421.812C333.716 421.551 333.921 421.339 334.178 421.213C334.435 421.088 334.729 421.056 335.007 421.123C335.285 421.191 335.531 421.354 335.702 421.584C335.872 421.814 335.957 422.096 335.941 422.382L335.395 427.151C335.382 427.478 335.24 427.787 335 428.009C334.76 428.232 334.441 428.35 334.114 428.337C333.787 428.325 333.478 428.183 333.255 427.943C333.033 427.703 332.915 427.384 332.927 427.057C332.923 426.995 332.923 426.932 332.927 426.87L333.474 422.101C333.498 421.998 333.54 421.901 333.599 421.812V421.812Z" fill="white"/>
<path d="M338.853 418.823C338.977 418.57 339.183 418.367 339.438 418.247C339.693 418.127 339.981 418.098 340.254 418.165C340.528 418.232 340.77 418.39 340.942 418.613C341.113 418.836 341.203 419.112 341.196 419.393L340.649 424.162C340.613 424.486 340.45 424.782 340.195 424.986C339.94 425.189 339.615 425.283 339.291 425.247C338.967 425.211 338.67 425.047 338.467 424.792C338.263 424.538 338.169 424.213 338.205 423.889L338.752 419.112C338.771 419.011 338.805 418.914 338.853 418.823V418.823Z" fill="white"/>
<path d="M329.429 425.231C329.552 424.978 329.759 424.775 330.013 424.655C330.268 424.535 330.556 424.506 330.83 424.573C331.104 424.639 331.346 424.798 331.517 425.021C331.689 425.244 331.778 425.52 331.772 425.801L331.233 430.57C331.197 430.894 331.033 431.19 330.778 431.393C330.524 431.597 330.198 431.691 329.874 431.655C329.55 431.618 329.254 431.455 329.05 431.2C328.847 430.946 328.753 430.621 328.789 430.297V430.297L329.328 425.52C329.353 425.421 329.387 425.324 329.429 425.231V425.231Z" fill="white"/>
<path d="M325.361 428.689C325.484 428.436 325.69 428.232 325.945 428.113C326.2 427.993 326.488 427.964 326.762 428.031C327.035 428.097 327.278 428.255 327.449 428.479C327.62 428.702 327.71 428.977 327.703 429.259L327.164 434.027C327.128 434.351 326.965 434.648 326.71 434.851C326.455 435.055 326.13 435.149 325.806 435.112C325.482 435.076 325.185 434.913 324.982 434.658C324.778 434.403 324.684 434.078 324.721 433.754L325.259 428.985C325.281 428.883 325.315 428.783 325.361 428.689V428.689Z" fill="white"/>
<path d="M321.332 432.615C321.449 432.353 321.654 432.142 321.912 432.016C322.169 431.89 322.462 431.858 322.74 431.926C323.019 431.993 323.264 432.156 323.435 432.386C323.606 432.616 323.69 432.899 323.674 433.184L323.128 437.953C323.115 438.28 322.974 438.589 322.733 438.812C322.493 439.034 322.175 439.152 321.847 439.14C321.52 439.127 321.211 438.985 320.989 438.745C320.766 438.505 320.648 438.187 320.661 437.86C320.657 437.797 320.657 437.735 320.661 437.672L321.207 432.903C321.233 432.801 321.275 432.704 321.332 432.615V432.615Z" fill="white"/>
<path d="M317.482 437.064C317.6 436.802 317.805 436.59 318.062 436.465C318.319 436.339 318.612 436.307 318.891 436.375C319.169 436.442 319.415 436.605 319.585 436.835C319.756 437.065 319.841 437.348 319.825 437.633L319.278 442.402C319.272 442.564 319.234 442.723 319.166 442.871C319.099 443.018 319.003 443.15 318.884 443.261C318.765 443.371 318.625 443.456 318.473 443.513C318.321 443.569 318.16 443.595 317.998 443.589C317.836 443.582 317.677 443.544 317.529 443.477C317.382 443.409 317.249 443.313 317.139 443.194C317.029 443.075 316.943 442.936 316.887 442.784C316.831 442.632 316.805 442.471 316.811 442.309C316.807 442.246 316.807 442.184 316.811 442.121L317.357 437.352C317.382 437.25 317.424 437.152 317.482 437.064V437.064Z" fill="white"/>
<path d="M461.293 316.499C461.293 316.499 484.616 300.998 499.78 309.927C527.507 326.247 486.701 366.318 437.853 388.555C389.005 410.792 372.397 409.894 372.397 409.894C372.397 409.894 361.154 407.888 363.41 389.765C363.41 389.765 391.481 376.028 405.574 363.056C419.668 350.084 428.632 334.911 461.293 316.499Z" fill="#2F2E41"/>
<g opacity="0.2">
<path d="M461.293 316.499C461.293 316.499 484.616 300.998 499.78 309.927C527.507 326.247 486.701 366.318 437.853 388.555C389.005 410.792 372.397 409.894 372.397 409.894C372.397 409.894 361.154 407.888 363.41 389.765C363.41 389.765 391.481 376.028 405.574 363.056C419.668 350.084 428.632 334.911 461.293 316.499Z" fill="black"/>
</g>
<g opacity="0.2">
<path d="M365.846 394.752C376.2 391.232 396.853 379.4 421.12 363.009C439.259 350.763 460.052 335.325 462.863 330.384C464.378 327.707 464.628 325.615 463.605 324.14C462.082 321.955 458.272 322.072 456.577 322.243C456.475 322.254 456.376 322.285 456.286 322.334C456.196 322.383 456.116 322.449 456.052 322.529C455.987 322.608 455.939 322.7 455.91 322.798C455.881 322.897 455.872 323 455.882 323.102V323.141C455.917 323.332 456.021 323.504 456.176 323.623C456.331 323.741 456.524 323.798 456.718 323.781C458.412 323.609 461.403 323.633 462.363 325.022C463.144 326.185 462.363 328.144 461.582 329.603C459.318 333.592 441.968 347.095 420.316 361.713C401.577 374.295 377.371 389.203 365.339 393.293L365.846 394.752Z" fill="black"/>
</g>
<path d="M367.142 387.041C369.196 396.274 372.397 404.532 378.277 410.558C378.277 410.558 374.06 414.226 369.688 412.275C366.369 410.784 358.944 396.758 360.544 388.758C363.082 387.072 365.307 386.362 367.142 387.041Z" fill="#2F2E41"/>
<g opacity="0.3">
<path d="M367.142 387.041C369.196 396.274 372.397 404.532 378.277 410.558C378.277 410.558 374.06 414.226 369.688 412.275C366.369 410.784 358.944 396.758 360.544 388.758C363.082 387.072 365.307 386.362 367.142 387.041Z" fill="black"/>
</g>
<path d="M363.996 313.057L362.122 339.812C362.122 339.812 330.288 335.27 314.664 331.282C309.697 330.149 304.884 328.424 300.328 326.146C291.739 321.564 284.547 313.587 285.078 298.048C285.385 292.117 286.434 286.249 288.202 280.58C299.57 241.726 318.654 209.101 318.654 209.101C343.163 219.591 341.102 237.043 341.102 237.043C334.075 255.682 318.654 295.386 318.654 295.386C327.555 306.344 363.996 313.057 363.996 313.057Z" fill="#F27900"/>
<g opacity="0.2">
<path d="M318.576 296.221C318.422 296.22 318.271 296.176 318.139 296.096C315.437 294.426 308.058 292.685 307.988 292.67C307.786 292.608 307.615 292.472 307.509 292.289C307.404 292.106 307.371 291.889 307.419 291.684C307.466 291.478 307.59 291.298 307.765 291.179C307.941 291.061 308.154 291.014 308.363 291.046C311.372 291.749 314.328 292.662 317.21 293.778C316.573 292.47 315.75 291.26 314.766 290.188C314.641 290.02 314.583 289.811 314.605 289.602C314.627 289.394 314.726 289.202 314.884 289.063C315.041 288.925 315.244 288.85 315.454 288.855C315.664 288.859 315.864 288.942 316.015 289.087C317.975 291.32 319.084 293.341 319.404 295.253C319.43 295.411 319.41 295.573 319.347 295.72C319.283 295.867 319.178 295.992 319.044 296.081C318.906 296.173 318.743 296.222 318.576 296.221V296.221Z" fill="black"/>
</g>
<g opacity="0.2">
<path d="M300.328 326.161C291.739 321.58 284.547 313.603 285.078 298.063C291.911 301.622 303.818 310.286 300.328 326.161Z" fill="black"/>
</g>
<g opacity="0.2">
<path d="M343.976 308.967H343.765C328 304.908 318.419 296.401 317.998 296.042C317.864 295.917 317.774 295.753 317.74 295.573C317.707 295.393 317.731 295.207 317.81 295.043C329.054 272.947 336.175 255.401 340.204 239.822C340.259 239.609 340.396 239.426 340.586 239.314C340.776 239.202 341.002 239.17 341.215 239.225C341.429 239.28 341.611 239.417 341.723 239.606C341.835 239.796 341.868 240.022 341.813 240.235V240.235C337.815 255.768 330.749 273.251 319.614 295.183C326.866 300.895 335.229 305.031 344.171 307.328C344.363 307.382 344.53 307.503 344.641 307.669C344.752 307.836 344.799 308.036 344.775 308.235C344.75 308.433 344.655 308.616 344.507 308.75C344.359 308.885 344.168 308.962 343.968 308.967H343.976Z" fill="black"/>
</g>
<path d="M364.901 184.671L393.183 188.706C411.547 186.872 417.388 179.575 420.402 164.144C421.66 157.603 421.331 150.855 419.441 144.467C419.051 138.668 417.731 133.657 414.983 130.348C402.576 115.394 391.644 115.979 391.644 115.979C386.093 113.434 367.744 111.686 355.649 126.375C355.266 126.703 347.887 134.516 346.185 150.922C344.553 166.532 354.993 186.505 364.901 184.671Z" fill="#2F2E41"/>
<path d="M352.174 131.979C352.051 131.98 351.93 131.947 351.823 131.886C351.654 131.792 351.529 131.635 351.475 131.449C351.421 131.264 351.442 131.064 351.534 130.894C355.462 123.442 362.06 117.747 370.008 114.949C373.447 113.699 377.086 113.091 380.744 113.153C380.926 113.18 381.092 113.273 381.208 113.416C381.324 113.558 381.383 113.739 381.372 113.923C381.361 114.106 381.282 114.279 381.15 114.407C381.018 114.535 380.842 114.608 380.659 114.613C380.479 114.613 362.63 113.778 352.822 131.597C352.755 131.71 352.661 131.804 352.548 131.871C352.434 131.938 352.306 131.975 352.174 131.979V131.979Z" fill="#F27900"/>
<path d="M367.127 178.81C367.127 178.81 349.09 168.725 352.635 147.722C356.18 126.719 370.016 114.09 391.215 120.178C391.215 120.155 389.162 180.855 367.127 178.81Z" fill="#2F2E41"/>
<path d="M417.287 140.245C417.287 140.245 419.129 158.275 415.842 160.881C412.555 163.488 409.338 156.362 409.338 156.362C409.338 156.362 413.82 140.448 417.287 140.245Z" fill="#2F2E41"/>
<path d="M408.987 162.52C408.987 162.52 414.366 157.837 416.147 163.582C417.927 169.326 414.312 180.012 407.612 177.186L408.987 162.52Z" fill="#C08771"/>
<path d="M393.3 188.527L391.082 203.427C391.082 203.427 382.696 214.58 361.56 195.505C363.964 189.44 366.916 182.189 365.971 176.203C367.289 177.35 368.694 178.393 370.172 179.325C370.711 179.668 371.296 180.035 371.921 180.41C377.395 183.727 385.796 188.004 393.3 188.527Z" fill="#C08771"/>
<path d="M393.3 188.527L392.23 195.505C386.069 193.163 375.403 187.996 370.141 179.309C370.679 179.653 371.265 180.019 371.89 180.394C377.394 183.727 385.796 188.004 393.3 188.527Z" fill="#B97460"/>
<path d="M413.562 163.199C413.328 164.76 413.099 166.215 412.875 167.563C411.181 177.834 409.627 183.376 406.769 185.569C392.316 196.652 366.822 177.061 366.003 176.429C365.924 175.235 365.862 174.088 365.823 172.886C365.496 163.708 366.548 154.534 368.946 145.669C369.355 141.265 371.162 137.107 374.101 133.802C377.041 130.497 380.961 128.217 385.289 127.296C394.502 125.415 401.772 130.418 406.269 132.58C413.055 135.827 416.154 145.677 414.249 158.774C413.999 160.265 413.781 161.763 413.562 163.199Z" fill="#C08771"/>
<path d="M372.428 170.466C372.319 170.638 369.375 175.391 366.002 176.413C365.916 175.211 365.854 174.025 365.815 172.862C368.197 172.683 370.485 171.854 372.428 170.466V170.466Z" fill="#2F2E41"/>
<path d="M371.101 158.446C371.101 158.446 365.768 148.518 359.842 154.817C354.961 160.007 360.24 176.554 369.211 172.128L371.101 158.446Z" fill="#C08771"/>
<path d="M387.608 167.547C385.73 166.837 384.105 165.587 382.938 163.955C381.771 162.322 381.115 160.38 381.052 158.374C380.989 156.369 381.522 154.39 382.584 152.687C383.647 150.984 385.19 149.635 387.019 148.809C388.849 147.983 390.882 147.718 392.862 148.047C394.842 148.376 396.68 149.284 398.144 150.658C399.608 152.031 400.631 153.807 401.085 155.761C401.539 157.716 401.403 159.761 400.694 161.638V161.685C399.734 164.196 397.817 166.222 395.364 167.321C392.91 168.42 390.121 168.501 387.608 167.547V167.547ZM394.307 150.009C392.709 149.398 390.966 149.274 389.297 149.654C387.629 150.033 386.111 150.899 384.934 152.141C383.758 153.383 382.977 154.946 382.689 156.632C382.401 158.317 382.62 160.051 383.317 161.613C384.015 163.174 385.16 164.494 386.608 165.405C388.056 166.316 389.742 166.778 391.452 166.731C393.163 166.685 394.821 166.132 396.217 165.144C397.613 164.155 398.685 162.775 399.297 161.178V161.178C400.115 159.036 400.049 156.658 399.113 154.565C398.178 152.472 396.449 150.836 394.307 150.017V150.009Z" fill="white"/>
<path d="M382.08 155.832C381.985 155.824 381.893 155.8 381.806 155.761C378.439 154.268 374.641 154.062 371.133 155.184C371.043 155.219 370.947 155.237 370.851 155.235C370.754 155.233 370.659 155.213 370.57 155.174C370.482 155.136 370.402 155.08 370.335 155.011C370.268 154.942 370.215 154.86 370.18 154.77V154.77C370.119 154.585 370.129 154.384 370.209 154.207C370.288 154.029 370.431 153.888 370.609 153.81C374.487 152.539 378.699 152.759 382.423 154.427C382.511 154.465 382.591 154.521 382.657 154.591C382.724 154.661 382.775 154.744 382.81 154.834C382.844 154.924 382.86 155.02 382.856 155.116C382.853 155.212 382.83 155.307 382.79 155.394V155.394C382.725 155.527 382.624 155.638 382.498 155.716C382.372 155.793 382.227 155.833 382.08 155.832V155.832Z" fill="white"/>
<path d="M410.009 170.076C408.133 169.363 406.509 168.11 405.345 166.476C404.181 164.841 403.527 162.898 403.467 160.892C403.408 158.887 403.944 156.908 405.009 155.207C406.074 153.506 407.62 152.159 409.451 151.336C411.282 150.513 413.316 150.252 415.296 150.584C417.275 150.917 419.112 151.828 420.573 153.204C422.035 154.58 423.055 156.358 423.505 158.314C423.956 160.27 423.816 162.315 423.104 164.191V164.191C422.63 165.437 421.917 166.577 421.002 167.547C420.088 168.518 418.992 169.298 417.776 169.845C416.56 170.391 415.248 170.693 413.916 170.732C412.583 170.772 411.256 170.549 410.009 170.076V170.076ZM416.709 152.546C415.112 151.938 413.37 151.817 411.704 152.198C410.038 152.579 408.523 153.445 407.349 154.687C406.176 155.929 405.397 157.491 405.111 159.175C404.825 160.859 405.045 162.59 405.743 164.15C406.441 165.709 407.586 167.026 409.033 167.936C410.48 168.845 412.164 169.304 413.872 169.257C415.581 169.21 417.237 168.657 418.631 167.669C420.025 166.681 421.095 165.302 421.706 163.707C422.113 162.646 422.306 161.516 422.275 160.38C422.244 159.244 421.989 158.126 421.525 157.089C421.061 156.052 420.396 155.117 419.57 154.338C418.743 153.558 417.771 152.949 416.709 152.546V152.546Z" fill="white"/>
<path d="M400.202 157.408C400.086 157.351 399.989 157.261 399.921 157.151C399.826 156.982 399.798 156.783 399.841 156.594C399.884 156.405 399.996 156.239 400.156 156.128C400.952 155.674 401.867 155.469 402.782 155.54C403.696 155.611 404.568 155.954 405.286 156.526C405.427 156.651 405.516 156.824 405.534 157.012C405.552 157.2 405.498 157.387 405.382 157.537C405.267 157.686 405.099 157.785 404.913 157.815C404.727 157.845 404.536 157.803 404.38 157.697C403.901 157.313 403.32 157.079 402.709 157.024C402.098 156.968 401.484 157.094 400.944 157.385C400.832 157.45 400.706 157.486 400.576 157.49C400.447 157.494 400.318 157.466 400.202 157.408Z" fill="white"/>
<path d="M405.629 123.394C408.685 124.745 411.429 126.712 413.692 129.171C415.954 131.629 417.685 134.528 418.778 137.685C420.128 141.689 421.261 146.965 415.654 146.27C400.296 144.405 392.081 128.483 392.081 128.483C392.081 128.483 389.106 143.156 377.035 141.345C364.964 139.535 365.323 130.465 372.21 125.322C377.761 121.161 391.98 117.267 405.629 123.394Z" fill="#2F2E41"/>
<path d="M377.473 139.691C377.473 139.691 370.61 147.051 373.069 154.981C375.529 162.911 375.7 169.256 373.132 173.518C373.132 173.518 372.468 165.166 369.415 158.844C366.908 153.654 364.566 149.697 366.378 143.702C367.619 139.589 370.625 135.64 377.473 139.691Z" fill="#2F2E41"/>
<path d="M339.642 358.88L332.552 345.409C332.15 344.64 331.954 343.781 331.983 342.914C332.013 342.047 332.266 341.202 332.719 340.463C333.172 339.723 333.809 339.113 334.568 338.693C335.327 338.272 336.182 338.056 337.05 338.064L448.449 339.266L445.17 356.515L339.642 358.88Z" fill="#A7A9AC"/>
<path d="M443.218 355.087H343.546C342.538 355.108 341.562 354.73 340.831 354.036C340.1 353.342 339.673 352.387 339.642 351.38C339.623 351.167 339.623 350.952 339.642 350.74L346.443 289.181C346.594 287.997 347.165 286.907 348.052 286.107C348.939 285.308 350.083 284.854 351.276 284.826H450.979C451.986 284.809 452.959 285.188 453.69 285.881C454.42 286.575 454.848 287.527 454.883 288.533C454.899 288.749 454.899 288.965 454.883 289.181L448.09 350.74C447.936 351.929 447.359 353.022 446.464 353.821C445.569 354.619 444.417 355.069 443.218 355.087V355.087Z" fill="#D1D3D4"/>
<path d="M342.055 357.749H341.953C341.731 357.719 341.53 357.604 341.392 357.427C341.255 357.25 341.193 357.026 341.219 356.804L349.496 290.875C349.535 290.664 349.653 290.476 349.826 290.349C349.999 290.222 350.214 290.166 350.427 290.192C350.64 290.218 350.835 290.324 350.972 290.488C351.11 290.653 351.179 290.864 351.167 291.078L342.89 357.015C342.864 357.218 342.764 357.404 342.611 357.539C342.457 357.674 342.259 357.748 342.055 357.749V357.749Z" fill="#BCBEC0"/>
<path d="M390.551 321.057C390.35 323.374 391.078 325.677 392.574 327.458C394.071 329.239 396.213 330.353 398.531 330.556H398.688C401.057 330.678 403.379 329.869 405.158 328.301C406.937 326.732 408.031 324.53 408.206 322.165C408.409 319.85 407.685 317.549 406.191 315.767C404.698 313.986 402.558 312.871 400.241 312.667H400.038C397.673 312.546 395.355 313.357 393.582 314.926C391.808 316.495 390.72 318.696 390.551 321.057V321.057Z" fill="#BCBEC0"/>
<path d="M443.702 360.449H342.648C341.677 360.449 340.746 360.063 340.059 359.377C339.372 358.69 338.986 357.759 338.986 356.788C338.975 356.622 338.975 356.455 338.986 356.289L339.947 349.264H448.449L447.356 357.288C447.231 358.167 446.793 358.972 446.121 359.553C445.449 360.134 444.59 360.452 443.702 360.449V360.449Z" fill="#D1D3D4"/>
<path d="M370.469 340.585L369.751 344.097H373.077L372.702 348.281H368.853L368.072 352.105H363.668L364.449 348.289H361.724L360.943 352.105H356.539L357.32 348.289H353.97L354.345 344.113H358.194L358.921 340.601H355.61L355.977 336.417H359.834L360.615 332.601H365.019L364.238 336.425H366.963L367.744 332.608H372.155L371.375 336.425H374.709L374.334 340.609L370.469 340.585ZM366.065 340.585H363.34L362.614 344.097H365.339L366.065 340.585Z" fill="#A7A9AC"/>
<path d="M562.948 409.683C562.948 409.683 554.398 396.259 533.652 384.083C518.996 375.497 510.454 351.138 510.454 351.138C510.454 351.138 538.563 352.355 550.736 369.44C562.909 386.526 562.948 409.683 562.948 409.683Z" fill="#F27900"/>
<path d="M563.034 410.042C562.942 410.042 562.854 410.011 562.782 409.954C562.709 409.898 562.658 409.819 562.636 409.73C558.685 394.838 550.041 384.036 543.49 377.597C539.469 373.564 534.97 370.038 530.091 367.099C529.997 367.042 529.929 366.951 529.9 366.845C529.87 366.739 529.883 366.626 529.935 366.529C529.961 366.482 529.996 366.439 530.039 366.405C530.081 366.371 530.13 366.346 530.182 366.331C530.234 366.316 530.289 366.311 530.343 366.317C530.397 366.323 530.45 366.339 530.497 366.365V366.365C535.439 369.347 539.999 372.919 544.076 377.004C550.705 383.513 559.442 394.44 563.44 409.52C563.454 409.572 563.458 409.627 563.45 409.681C563.443 409.736 563.425 409.788 563.397 409.835C563.37 409.882 563.333 409.923 563.29 409.956C563.246 409.989 563.196 410.013 563.143 410.027V410.027L563.034 410.042Z" fill="#2F2E41"/>
<path d="M559.262 409.379C559.262 409.379 556.818 404.493 545.832 405.718C534.846 406.944 528.748 413.04 509.212 402.058C509.212 402.058 523.86 389.851 539.734 392.294C555.608 394.737 556.818 400.832 559.262 409.379Z" fill="#F27900"/>
<path d="M559.325 409.793C559.255 409.793 559.185 409.775 559.124 409.741C559.062 409.706 559.011 409.657 558.973 409.598C558.919 409.519 554.007 401.792 546.106 400.364C532.293 397.859 522.892 402.269 522.798 402.315C522.695 402.364 522.576 402.37 522.468 402.331C522.361 402.292 522.273 402.212 522.224 402.109C522.176 402.005 522.17 401.886 522.209 401.779C522.248 401.671 522.328 401.584 522.431 401.535C522.533 401.488 532.16 396.961 546.254 399.521C554.523 401.02 559.473 408.801 559.676 409.129C559.717 409.192 559.74 409.265 559.743 409.34C559.746 409.415 559.729 409.489 559.693 409.555C559.657 409.62 559.603 409.675 559.538 409.713C559.474 409.751 559.4 409.77 559.325 409.769V409.793Z" fill="#2F2E41"/>
<path d="M564.057 408.193C564.057 408.193 563.104 402.823 572.646 397.266C582.187 391.708 590.721 392.934 599.826 372.469C599.826 372.469 580.789 371.423 569.522 382.857C558.255 394.292 560.886 399.888 564.057 408.193Z" fill="#F27900"/>
<path d="M564.01 408.645C563.905 408.646 563.804 408.606 563.728 408.535C563.651 408.464 563.604 408.367 563.596 408.263C563.596 407.873 562.885 398.678 568.617 392.536C578.392 382.069 588.824 379.954 588.918 379.938C588.97 379.927 589.024 379.926 589.077 379.935C589.13 379.945 589.18 379.965 589.225 379.994C589.27 380.023 589.309 380.06 589.339 380.104C589.369 380.148 589.391 380.198 589.402 380.251V380.251C589.413 380.304 589.414 380.359 589.404 380.412C589.394 380.466 589.374 380.517 589.344 380.563C589.314 380.609 589.276 380.648 589.231 380.679C589.186 380.71 589.135 380.731 589.082 380.742V380.742C588.98 380.742 578.798 382.834 569.226 393.09C563.76 398.967 564.408 408.083 564.416 408.177C564.421 408.231 564.416 408.286 564.4 408.339C564.384 408.391 564.358 408.439 564.323 408.481C564.288 408.524 564.245 408.558 564.197 408.584C564.148 408.609 564.095 408.625 564.041 408.63V408.63L564.01 408.645Z" fill="#2F2E41"/>
<path d="M576.159 407.888H547.683C546.575 407.888 545.676 408.786 545.676 409.894V412.821C545.676 413.929 546.575 414.827 547.683 414.827H576.159C577.268 414.827 578.166 413.929 578.166 412.821V409.894C578.166 408.786 577.268 407.888 576.159 407.888Z" fill="#2F2E41"/>
<path d="M562.042 474.621C540.179 474.621 526.328 471.148 528.561 455.78C529.974 446.024 537.587 436.47 542.959 430.804C543.74 430.023 544.427 429.243 545.067 428.65C547.058 426.683 548.401 425.528 548.401 425.528L548.464 425.176L548.846 423.022L549.284 420.54L550.283 414.866L550.634 412.883L562.042 412.392L573.95 412.883L574.223 414.866L574.652 417.988L575.34 423.03L575.636 425.184L575.683 425.535C575.683 425.535 577.026 426.675 579.017 428.657C579.665 429.29 580.376 430.016 581.133 430.812C586.505 436.494 594.11 446.047 595.531 455.788C597.765 471.109 583.874 474.621 562.042 474.621Z" fill="#2F2E41"/>
<g opacity="0.2">
<path d="M575.636 425.137H548.464L548.846 422.983H575.34L575.636 425.137Z" fill="black"/>
</g>
<g opacity="0.2">
<path d="M581.133 430.749H542.928C543.709 429.969 544.396 429.227 545.036 428.595H578.986C579.665 429.227 580.407 429.953 581.133 430.749Z" fill="black"/>
</g>
<g opacity="0.2">
<path d="M574.652 417.941L549.284 420.501L550.283 414.827H574.223L574.652 417.941Z" fill="black"/>
</g>
<path d="M87.173 364.25L94.5439 440.818L100.97 440.092L91.0927 363.79C91.0301 363.276 90.7667 362.808 90.36 362.487C89.9533 362.167 89.4363 362.021 88.922 362.08V362.08C88.4044 362.141 87.9313 362.403 87.6043 362.808C87.2772 363.214 87.1224 363.732 87.173 364.25V364.25Z" fill="#2F2E41"/>
<path d="M189.999 364.25L182.628 440.818L176.194 440.092L186.095 363.79C186.159 363.275 186.424 362.807 186.832 362.487C187.24 362.167 187.758 362.021 188.273 362.08V362.08C188.788 362.143 189.258 362.406 189.581 362.812C189.904 363.218 190.054 363.734 189.999 364.25Z" fill="#2F2E41"/>
<path d="M178.106 438.554H77.5607C76.267 438.554 75.2183 439.603 75.2183 440.896V475.941C75.2183 477.234 76.267 478.282 77.5607 478.282H178.106C179.4 478.282 180.449 477.234 180.449 475.941V440.896C180.449 439.603 179.4 438.554 178.106 438.554Z" fill="#F27900"/>
<path opacity="0.2" d="M178.106 438.554H77.5607C76.267 438.554 75.2183 439.603 75.2183 440.896V475.941C75.2183 477.234 76.267 478.282 77.5607 478.282H178.106C179.4 478.282 180.449 477.234 180.449 475.941V440.896C180.449 439.603 179.4 438.554 178.106 438.554Z" fill="black"/>
<path d="M180.551 443.456H75.117C73.944 443.456 72.9932 444.406 72.9932 445.579V471.273C72.9932 472.446 73.944 473.396 75.117 473.396H180.551C181.724 473.396 182.675 472.446 182.675 471.273V445.579C182.675 444.406 181.724 443.456 180.551 443.456Z" fill="#F27900"/>
<path d="M233.295 438.554H132.749C131.455 438.554 130.407 439.603 130.407 440.896V475.941C130.407 477.234 131.455 478.282 132.749 478.282H233.295C234.589 478.282 235.637 477.234 235.637 475.941V440.896C235.637 439.603 234.589 438.554 233.295 438.554Z" fill="#F27900"/>
<path d="M235.731 443.456H130.297C129.124 443.456 128.173 444.406 128.173 445.579V471.273C128.173 472.446 129.124 473.396 130.297 473.396H235.731C236.904 473.396 237.855 472.446 237.855 471.273V445.579C237.855 444.406 236.904 443.456 235.731 443.456Z" fill="#F27900"/>
<path opacity="0.2" d="M235.731 443.456H130.297C129.124 443.456 128.173 444.406 128.173 445.579V471.273C128.173 472.446 129.124 473.396 130.297 473.396H235.731C236.904 473.396 237.855 472.446 237.855 471.273V445.579C237.855 444.406 236.904 443.456 235.731 443.456Z" fill="black"/>
<path d="M226.08 450.02H139.011C137.601 450.02 136.458 451.163 136.458 452.572V463.554C136.458 464.964 137.601 466.106 139.011 466.106H226.08C227.49 466.106 228.633 464.964 228.633 463.554V452.572C228.633 451.163 227.49 450.02 226.08 450.02Z" fill="#2F2E41"/>
<path d="M221.918 462.555C220.676 462.555 219.484 462.061 218.606 461.183C217.727 460.305 217.233 459.114 217.233 457.872C217.24 457.292 217.351 456.719 217.561 456.178C218.03 455.023 218.937 454.1 220.083 453.61C220.178 453.575 220.282 453.577 220.375 453.616C220.468 453.656 220.542 453.73 220.581 453.823C220.621 453.916 220.622 454.02 220.586 454.115C220.55 454.209 220.479 454.285 220.388 454.328C219.553 454.673 218.864 455.297 218.437 456.093C218.011 456.89 217.874 457.809 218.05 458.695C218.226 459.581 218.704 460.378 219.402 460.951C220.1 461.524 220.976 461.837 221.879 461.837C222.783 461.837 223.658 461.524 224.357 460.951C225.055 460.378 225.533 459.581 225.709 458.695C225.885 457.809 225.748 456.89 225.321 456.093C224.895 455.297 224.206 454.673 223.371 454.328V454.328C223.274 454.29 223.197 454.215 223.156 454.12C223.115 454.025 223.114 453.917 223.152 453.821C223.19 453.725 223.265 453.648 223.36 453.607C223.456 453.566 223.563 453.564 223.66 453.602C224.5 453.956 225.219 454.547 225.729 455.303C226.238 456.059 226.516 456.948 226.527 457.859C226.539 458.771 226.284 459.666 225.794 460.435C225.304 461.204 224.6 461.813 223.769 462.188C223.184 462.438 222.554 462.563 221.918 462.555V462.555Z" fill="#F27900"/>
<path d="M221.879 455.819C221.776 455.819 221.676 455.778 221.603 455.705C221.53 455.632 221.489 455.532 221.489 455.429V452.26C221.489 452.156 221.53 452.057 221.603 451.984C221.676 451.911 221.776 451.87 221.879 451.87C221.981 451.874 222.079 451.916 222.151 451.988C222.223 452.061 222.266 452.158 222.27 452.26V455.429C222.266 455.531 222.223 455.628 222.151 455.701C222.079 455.773 221.981 455.815 221.879 455.819V455.819Z" fill="#F27900"/>
<path d="M137.637 339.594C151.02 339.805 162.217 344.886 171.017 355.048C171.566 355.655 171.855 356.453 171.821 357.27C171.787 358.087 171.434 358.859 170.837 359.419L170.736 359.505C170.118 360.03 169.318 360.288 168.51 360.224C167.702 360.159 166.952 359.777 166.426 359.161L166.379 359.099C163.235 355.387 159.414 352.307 155.119 350.021C148.516 346.514 141.01 345.072 133.576 345.882C126.143 346.692 119.124 349.717 113.432 354.564C111.84 355.975 110.331 357.476 108.911 359.06C108.653 359.379 108.335 359.645 107.974 359.842C107.614 360.038 107.218 360.162 106.81 360.205C106.402 360.249 105.989 360.211 105.595 360.095C105.201 359.979 104.834 359.786 104.515 359.528L104.444 359.466C104.138 359.193 103.888 358.863 103.709 358.494C103.53 358.124 103.425 357.724 103.401 357.314C103.377 356.905 103.434 356.494 103.569 356.107C103.704 355.719 103.914 355.362 104.187 355.056L104.234 355.009C111.284 346.641 121.227 341.232 132.085 339.859C132.96 339.734 133.842 339.649 134.732 339.602L137.637 339.594Z" fill="#2F2E41"/>
<path d="M138.738 352.02C147.21 352.238 155.174 355.844 161.436 363.095C161.778 363.354 162.064 363.68 162.274 364.054C162.484 364.428 162.616 364.841 162.659 365.268C162.703 365.695 162.658 366.126 162.527 366.534C162.397 366.943 162.183 367.32 161.9 367.643C161.618 367.965 161.271 368.226 160.883 368.409C160.495 368.592 160.073 368.693 159.644 368.705C159.215 368.718 158.788 368.642 158.39 368.483C157.992 368.323 157.631 368.083 157.329 367.778C157.102 367.589 156.907 367.365 156.751 367.115C153.63 363.336 149.43 360.6 144.711 359.27C134.865 356.609 126.346 359.029 119.21 366.295C118.944 366.568 118.702 366.857 118.429 367.138C117.863 367.643 117.132 367.924 116.374 367.93C115.615 367.936 114.88 367.665 114.307 367.169C113.733 366.673 113.359 365.985 113.256 365.234C113.152 364.483 113.326 363.72 113.744 363.087C116.499 359.826 119.899 357.168 123.731 355.282C128.134 353.097 132.78 352.082 138.738 352.02Z" fill="#2F2E41"/>
<path d="M152.675 373.203C152.668 373.834 152.47 374.448 152.106 374.964C151.743 375.48 151.232 375.874 150.64 376.094C150.048 376.313 149.403 376.349 148.791 376.195C148.179 376.041 147.627 375.705 147.21 375.232C145.933 373.725 144.331 372.527 142.525 371.727C140.06 370.675 137.322 370.443 134.715 371.066C132.108 371.689 129.771 373.133 128.048 375.185C127.664 375.668 127.14 376.022 126.548 376.198C125.956 376.374 125.324 376.363 124.738 376.168C123.954 375.916 123.302 375.364 122.923 374.633C122.545 373.902 122.47 373.052 122.715 372.266C122.838 371.877 123.037 371.516 123.301 371.204C126.476 367.449 131.001 365.093 135.899 364.643C140.797 364.193 145.675 365.687 149.482 368.801C150.372 369.544 151.192 370.367 151.934 371.259C152.312 371.847 152.619 372.479 152.847 373.14L152.675 373.203Z" fill="#2F2E41"/>
<path d="M137.621 389.461C136.386 389.47 135.176 389.113 134.143 388.434C133.111 387.756 132.303 386.787 131.822 385.649C131.34 384.512 131.207 383.257 131.439 382.044C131.671 380.831 132.258 379.714 133.125 378.835C133.992 377.955 135.1 377.352 136.31 377.102C137.52 376.852 138.777 376.966 139.922 377.43C141.067 377.894 142.048 378.687 142.742 379.709C143.436 380.73 143.812 381.935 143.821 383.17V383.302C143.815 384.94 143.158 386.509 141.996 387.664C140.834 388.818 139.26 389.465 137.621 389.461Z" fill="#2F2E41"/>
<path d="M417.404 62.6234H91.3032V63.4039H417.404V62.6234Z" fill="#2F2E41"/>
<path d="M485.038 19.2741H349.77V20.0546H485.038V19.2741Z" fill="#2F2E41"/>
<path d="M108.914 41.6177L98.6528 51.0462L99.1812 51.6208L109.442 42.1924L108.914 41.6177Z" fill="#2F2E41"/>
<path d="M99.6167 41.2327L99.042 41.7611L108.478 52.0148L109.052 51.4864L99.6167 41.2327Z" fill="#2F2E41"/>
<path d="M127.588 51.9461H116.797V41.3781H127.588V51.9461ZM117.578 51.1656H126.807V42.1586H117.578V51.1656Z" fill="#2F2E41"/>
<path d="M145.562 50.2836H134.99V51.0641H145.562V50.2836Z" fill="#2F2E41"/>
<path d="M12.5395 84.0015L6.48633 89.5635L6.7981 89.9025L12.8513 84.3405L12.5395 84.0015Z" fill="#2F2E41"/>
<path d="M7.05634 83.7542L6.71729 84.0659L12.2836 90.1147L12.6227 89.803L7.05634 83.7542Z" fill="#2F2E41"/>
<path d="M23.5438 90.0817H17.1802V83.8376H23.5438V90.0817ZM17.6409 89.6212H23.1066V84.3059H17.6409V89.6212Z" fill="#2F2E41"/>
<path d="M34.1396 89.106H27.9087V89.5665H34.1396V89.106Z" fill="#2F2E41"/>
<path d="M362.991 7.0328L356.604 12.9012L356.932 13.2574L363.318 7.38906L362.991 7.0328Z" fill="#2F2E41"/>
<path d="M357.217 6.7792L356.86 7.10681L362.733 13.4888L363.09 13.1612L357.217 6.7792Z" fill="#2F2E41"/>
<path d="M374.631 13.4672H367.916V6.88748H374.631V13.4672ZM368.384 12.9832H374.123V7.3792H368.384V12.9832Z" fill="#2F2E41"/>
<path d="M385.812 12.4369H379.237V12.9208H385.812V12.4369Z" fill="#2F2E41"/>
</svg>
