<svg width="552" height="572" viewBox="0 0 552 572" fill="none" xmlns="http://www.w3.org/2000/svg">
<path d="M415.048 139.379C412.752 132.778 410.196 126.223 407.398 119.851C401.822 107.17 400.542 95.1522 392.709 84.5474" stroke="#E48900" stroke-opacity="0.62" stroke-width="7.24" stroke-miterlimit="10"/>
<path d="M374.555 72.3923C367.815 65.2881 361.511 57.6519 350.057 51.9489C325.852 39.9369 294.901 38.7186 255.395 55.707" stroke="#E48900" stroke-opacity="0.62" stroke-width="7.24" stroke-miterlimit="10"/>
<path d="M89.3035 537.954C51.0223 481.881 38.6409 418.487 45.0386 353.65" stroke="#E48900" stroke-opacity="0.62" stroke-width="7.24" stroke-miterlimit="10"/>
<path d="M436.588 261.913V262.605C436.213 275.189 447.435 327.356 479.263 343.926C511.092 360.497 533.784 433.233 462.024 461.77C390.264 490.307 394.172 537.955 394.172 537.955" stroke="#E48900" stroke-opacity="0.62" stroke-width="7.24" stroke-miterlimit="10"/>
<path d="M255.388 109.567V47.9392C255.378 43.7054 253.75 39.648 250.861 36.6542C247.972 33.6604 244.056 31.9738 239.971 31.9633H43.017C38.9312 31.9738 35.0156 33.6604 32.1265 36.6542C29.2374 39.648 27.6098 43.7054 27.5996 47.9392V337.714C27.6069 341.946 29.2346 346.002 32.1253 348.991C35.016 351.98 38.9333 353.658 43.017 353.656H239.971C241.881 353.669 243.776 353.291 245.546 352.546" stroke="black" stroke-width="7.24" stroke-linecap="round" stroke-linejoin="round"/>
<path d="M234.7 41.7275H48.29C40.6837 41.7275 34.5176 48.1171 34.5176 55.9989V329.649C34.5176 337.531 40.6837 343.921 48.29 343.921H234.7C242.307 343.921 248.473 337.531 248.473 329.649V55.9989C248.473 48.1171 242.307 41.7275 234.7 41.7275Z" fill="#FFEDBF"/>
<path d="M231.328 65.1107H54.0032C50.1986 65.1107 47.1143 68.3071 47.1143 72.2493V114.554C47.1143 118.497 50.1986 121.693 54.0032 121.693H231.328C235.132 121.693 238.217 118.497 238.217 114.554V72.2493C238.217 68.3071 235.132 65.1107 231.328 65.1107Z" fill="#E48900" fill-opacity="0.62"/>
<path d="M141.496 88.9403C144.614 88.9403 147.143 86.3205 147.143 83.0887C147.143 79.8569 144.614 77.2372 141.496 77.2372C138.377 77.2372 135.849 79.8569 135.849 83.0887C135.849 86.3205 138.377 88.9403 141.496 88.9403Z" fill="#FFEDBF"/>
<path d="M125.711 109.567C125.711 105.229 127.374 101.07 130.333 98.0031C133.293 94.936 137.307 93.2131 141.493 93.2131C145.678 93.2131 149.693 94.936 152.652 98.0031C155.612 101.07 157.274 105.229 157.274 109.567H125.711Z" fill="#FFEDBF"/>
<path d="M142.643 182.319C136.622 182.316 130.736 184.163 125.729 187.627C120.722 191.09 116.819 196.015 114.514 201.778C112.209 207.541 111.605 213.883 112.778 220.002C113.952 226.12 116.85 231.741 121.107 236.152C125.364 240.563 130.788 243.567 136.693 244.783C142.598 246 148.718 245.373 154.279 242.985C159.841 240.596 164.593 236.551 167.936 231.363C171.279 226.174 173.061 220.075 173.058 213.837C173.053 205.479 169.847 197.465 164.145 191.555C158.441 185.646 150.708 182.324 142.643 182.319ZM142.643 237.752C141.465 237.752 140.335 237.267 139.502 236.404C138.67 235.541 138.202 234.371 138.202 233.15C138.202 231.93 138.67 230.759 139.502 229.897C140.335 229.033 141.465 228.548 142.643 228.548C143.821 228.548 144.95 229.033 145.783 229.897C146.615 230.759 147.083 231.93 147.083 233.15C147.083 234.371 146.615 235.541 145.783 236.404C144.95 237.267 143.821 237.752 142.643 237.752ZM148.278 202.288C147.323 209.118 146.518 216.319 144.58 222.96C144.105 224.539 141.213 224.539 140.716 222.96C139.327 217.962 138.262 212.873 137.525 207.728C136.929 203.987 134.815 197.935 136.841 194.286C138.602 191.042 143.609 190.642 146.501 192.341C150.095 194.48 148.692 198.913 148.278 202.311V202.288Z" fill="#E48900"/>
<path d="M66.2227 146.953H214.816" stroke="white" stroke-width="7.24" stroke-miterlimit="10"/>
<path d="M66.2227 162.105H214.816" stroke="white" stroke-width="7.24" stroke-miterlimit="10"/>
<path d="M66.2227 259.705H214.816" stroke="white" stroke-width="7.24" stroke-miterlimit="10"/>
<path d="M100.74 274.039H180.3" stroke="white" stroke-width="7.24" stroke-miterlimit="10"/>
<path d="M82.0107 367.91C82.0107 367.91 108.452 259.036 190.804 232.444L224.278 224.167C224.278 224.167 229.571 199.668 227.623 197.094C225.674 194.52 221.672 189.246 214.342 190.39C207.011 191.534 188.061 191.9 183.209 167.893C178.357 143.887 196.286 86.8239 242.88 78.2896C289.474 69.7554 290.562 105.208 290.562 105.208L256.338 187.387L261.648 253.682L262.316 352.438L82.0107 367.91Z" fill="white"/>
<path d="M366.595 283.804C366.043 283.969 358.999 286.092 356.228 291.148C355.701 289.99 354.867 289.012 353.823 288.327C352.779 287.643 351.568 287.28 350.333 287.281H267.616C266.144 287.278 264.715 287.794 263.563 288.743C262.411 289.691 261.603 291.017 261.273 292.504L244.984 364.879C243.88 364.656 242.776 364.518 241.628 364.404L203.186 354.463C201.537 354.034 199.793 354.257 198.295 355.09C196.796 355.922 195.651 357.304 195.083 358.964C194.827 359.709 194.7 360.496 194.708 361.287C194.708 363.083 195.365 364.812 196.547 366.127C197.729 367.441 199.348 368.242 201.078 368.368L219.255 369.581C201.746 378.121 180.444 394.388 162.664 409.335C145.364 381.267 161.599 353.204 173.809 338.092C172.236 321.435 164.265 282.762 124.493 283.815C138.194 265.608 155.278 250.004 176.447 239.559C248.958 322.843 331.913 254.752 333.674 253.287C346.079 261.673 357.18 271.967 366.595 283.815" fill="#2E2E2E"/>
<path d="M359.06 522.717V537.108H119.597V516.722C128.925 517.294 138.74 515.006 147.666 510.836C158.965 505.505 168.725 497.222 177.071 487.773C185.655 477.992 190.369 464.43 195.839 452.635C204.053 434.874 214.933 422.222 232.199 416.862L231.095 421.781C230.874 422.772 230.87 423.801 231.086 424.793C231.301 425.784 231.729 426.713 232.339 427.509C232.948 428.306 233.723 428.95 234.606 429.393C235.489 429.836 236.457 430.068 237.438 430.07H320.569C318.913 444.942 311.93 526.166 359.06 522.734" fill="#2E2E2E"/>
<path d="M320.607 144.218C320.54 151.913 319.572 159.57 317.725 167.023C316.883 170.557 315.074 173.763 312.517 176.258C309.959 178.753 306.762 180.431 303.307 181.089C303.169 175.895 301.038 171.336 297.787 168.505C298.084 164.108 298.042 159.693 297.66 155.303C297.445 152.403 297.108 149.698 296.755 147.267C296.545 145.883 296.24 144.516 295.844 143.177C294.735 141.942 293.427 140.914 291.98 140.139C286.863 137.154 276.331 133.979 256.818 138.647C253.632 139.403 250.634 140.842 248.019 142.874C247.961 142.911 247.909 142.958 247.864 143.011C246.103 144.693 243.862 146.82 241.544 147.924C239.143 149.068 236.637 149.114 234.533 146.409C234.478 146.351 234.451 146.3 234.401 146.243C233.297 144.75 232.243 142.811 230.294 142.427C226.187 141.627 224.189 145.859 223.67 149.417C223.217 152.706 224.15 155.606 225.514 158.369C226.656 160.615 228.148 162.651 229.93 164.392C230.387 164.851 230.806 165.348 231.183 165.879C231.012 165.911 230.843 165.959 230.68 166.022C230.303 166.154 229.934 166.311 229.576 166.492C224.608 168.808 221.07 174.614 220.993 181.409C220.993 181.621 212.663 181.495 211.609 181.409C207.546 181.02 203.544 179.808 200.685 176.633C192.57 167.624 192.609 154.256 195.943 143.8C199.101 133.876 203.119 124.186 208.385 115.257C219.795 95.9353 237.498 81.6811 259.909 80.3998C265.284 80.1201 270.671 80.4461 275.978 81.3722C278.489 81.7823 280.972 82.3555 283.413 83.0882C306.26 93.4185 320.761 116.836 320.629 144.218" fill="#2E2E2E"/>
<path d="M307.375 364.496C304.676 371.674 298.251 375.781 293.023 373.648C287.796 371.514 285.742 364.009 288.436 356.831C291.13 349.652 297.561 345.54 302.788 347.679C308.016 349.818 310.075 357.323 307.375 364.501" fill="#FFEDBF"/>
<path d="M321.265 428.605C321.265 428.605 306.604 534.511 365.248 522.774C423.572 511.088 445.647 265.214 276.823 229.852" stroke="black" stroke-width="7.24" stroke-miterlimit="10"/>
<path d="M183.96 326.646C183.96 326.646 136.643 367.996 162.14 409.352" stroke="black" stroke-width="7.24" stroke-miterlimit="10"/>
<path d="M322.33 399.187C321.518 399.239 320.359 398.678 319.57 398.455C318.569 398.181 317.577 397.887 316.595 397.574C310.83 395.715 305.406 392.869 300.548 389.154C299.444 388.337 297.479 387.81 296.132 388.348C295.382 388.633 294.72 389.121 294.215 389.763C293.71 390.403 293.381 391.173 293.262 391.992C292.848 394.943 294.857 397.832 297.048 399.725C299.648 401.979 302.347 404.055 305.499 405.405C308.541 406.671 311.68 407.671 314.883 408.397C316.335 408.745 317.809 408.969 319.25 409.352" stroke="black" stroke-width="7.24" stroke-miterlimit="10"/>
<path d="M340.49 370.536C341.086 373.796 341.523 377.183 341.224 380.494C340.976 383.297 340.005 386.569 336.996 387.25C336.424 387.406 335.831 387.463 335.241 387.416C323.914 386.723 314.579 382.668 303.92 374.683C293.261 366.698 289.508 385.088 299.245 388.348" stroke="black" stroke-width="7.24" stroke-miterlimit="10"/>
<path d="M299.654 401.944C299.393 401.721 299.144 401.482 298.909 401.229C293.604 395.481 292.644 407.029 298.214 410.427L298.931 410.868C299.307 411.033 299.71 411.228 300.107 411.44C300.295 411.491 300.504 411.577 300.698 411.634C305.732 413.922 311.092 415.386 316.369 416.879C311.147 415.112 305.942 413.373 300.698 411.634C300.245 411.44 299.814 411.245 299.362 411.022C299.223 410.962 299.079 410.916 298.931 410.885C298.837 410.841 298.734 410.822 298.631 410.833C298.528 410.842 298.43 410.88 298.346 410.942C298.22 411.049 298.128 411.192 298.081 411.354C297.226 413.482 297.921 416.164 299.014 418.069C300.162 420.082 302.133 421.633 304.076 422.737C309.303 425.774 315.38 427.57 321.248 428.645C322.337 428.879 323.452 428.954 324.56 428.868" stroke="black" stroke-width="7.24" stroke-miterlimit="10"/>
<path d="M371.895 441.973C371.895 441.973 353.906 410.204 351.902 382.582C350.676 365.485 345.83 361.864 342.363 361.618" stroke="black" stroke-width="7.24" stroke-miterlimit="10"/>
<path d="M333.686 388.968L337.186 372.26L339.052 363.337L352.885 297.18C353.09 296.195 353.08 295.175 352.855 294.194C352.63 293.213 352.196 292.298 351.586 291.513C350.974 290.729 350.202 290.096 349.325 289.661C348.447 289.227 347.487 289.001 346.515 289H263.792C262.32 288.999 260.892 289.514 259.74 290.463C258.588 291.412 257.78 292.737 257.45 294.222L241.16 366.604L229.27 419.416L228.166 424.364C227.946 425.355 227.945 426.383 228.161 427.374C228.377 428.365 228.807 429.293 229.416 430.088C230.026 430.884 230.801 431.527 231.683 431.97C232.566 432.413 233.533 432.644 234.514 432.646H317.64" stroke="black" stroke-width="7.24" stroke-miterlimit="10"/>
<path d="M234.434 144.504C234.434 144.504 238.811 125.268 263.53 122.717C288.248 120.166 294.442 139.305 294.442 139.305L293.663 141.233C293.663 141.233 261.167 127.722 243.221 147.004C243.221 147.004 236.758 150.041 234.434 144.516" fill="#FFEDBF"/>
<path d="M241.103 364.403L202.656 354.451C201.739 354.216 200.784 354.181 199.854 354.348C198.923 354.515 198.036 354.881 197.249 355.423C196.462 355.965 195.793 356.671 195.283 357.495C194.773 358.319 194.435 359.244 194.289 360.211C194.143 361.179 194.193 362.167 194.435 363.113C194.677 364.059 195.107 364.943 195.697 365.708C196.286 366.472 197.023 367.102 197.86 367.556C198.697 368.01 199.616 368.279 200.558 368.345L218.736 369.586" stroke="black" stroke-width="7.24" stroke-miterlimit="10"/>
<path d="M333.177 253.259C333.177 253.259 249.201 323.752 175.929 239.559" stroke="black" stroke-width="7.24" stroke-miterlimit="10"/>
<path d="M173.295 338.081C171.722 321.424 163.757 282.722 123.952 283.804" stroke="black" stroke-width="7.24" stroke-miterlimit="10"/>
<path d="M366.091 283.792C366.091 283.792 358.59 285.931 355.714 291.159" stroke="black" stroke-width="7.24" stroke-miterlimit="10"/>
<path d="M61.3389 537.966H417.881" stroke="black" stroke-width="7.24" stroke-miterlimit="10"/>
<path d="M297.788 168.528C301.149 171.457 303.308 176.239 303.308 181.65C303.308 190.63 297.285 197.895 289.844 197.895C289.002 197.89 288.163 197.788 287.344 197.592C296.01 190.728 297.766 168.528 297.766 168.528" fill="#FFEDBF"/>
<path d="M248.765 204.776C252.943 206.93 257.515 208.141 262.177 208.327C266.84 208.513 271.488 207.672 275.813 205.857C300.201 195.304 299.268 164.198 296.734 147.29C296.532 145.918 296.245 144.562 295.873 143.229V143.2C293.075 133.533 285.772 125.657 276.15 123.42C257.515 119.056 240.474 130.004 233.403 144.745" stroke="black" stroke-width="7.24" stroke-miterlimit="10"/>
<path d="M296.103 143.532C296.103 143.532 296.026 143.418 295.866 143.229V143.2C294.21 141.267 284.622 132.041 256.867 138.67C253.683 139.424 250.686 140.865 248.074 142.897C248.013 142.934 247.957 142.98 247.908 143.034" stroke="black" stroke-width="7.24" stroke-miterlimit="10"/>
<path d="M222.126 190.39H208.398C198.489 190.39 190.634 180.987 187.217 172.161C182.415 159.748 185.49 147.044 189.812 134.981C193.433 124.885 198.037 115.075 204.092 106.295C217.649 86.6466 238.117 75.5155 261.644 77.5747C263.73 77.7577 265.807 78.0243 267.876 78.3755C299.467 83.6836 320.768 111.054 320.608 144.201C320.542 151.901 319.575 159.565 317.727 167.024C316.877 170.555 315.066 173.758 312.509 176.252C309.951 178.746 306.756 180.425 303.303 181.09" stroke="black" stroke-width="7.24" stroke-miterlimit="10"/>
<path d="M231.195 165.88C230.816 165.348 230.398 164.849 229.942 164.387C228.158 162.648 226.666 160.615 225.526 158.37C224.162 155.607 223.229 152.707 223.682 149.418C224.19 145.883 226.188 141.627 230.306 142.428C232.254 142.817 233.292 144.75 234.413 146.243C238.674 151.963 244.542 146.215 248.141 142.76" stroke="black" stroke-width="7.24" stroke-miterlimit="10"/>
<path d="M297.788 168.528C301.149 171.457 303.308 176.239 303.308 181.65C303.308 190.63 297.285 197.895 289.844 197.895C289.002 197.89 288.163 197.788 287.344 197.592" stroke="black" stroke-width="7.24" stroke-miterlimit="10"/>
<path d="M268.979 179.551C271.993 181.65 279.274 183.372 277.811 177.148C276.056 169.775 273.694 154.022 288.161 152.821C288.161 152.821 294.532 153.102 297.678 155.344" stroke="black" stroke-width="7.24" stroke-miterlimit="10"/>
<path d="M274.427 191.877C274.427 191.877 267.14 195.881 263.53 187.902" stroke="black" stroke-width="7.24" stroke-miterlimit="10"/>
<path d="M259.651 163.591C259.369 166.125 260.324 168.316 261.787 168.493C263.25 168.671 264.663 166.777 264.95 164.226C265.237 161.675 264.271 159.507 262.814 159.33C261.356 159.153 259.932 161.046 259.651 163.591Z" fill="black"/>
<path d="M283.376 165.085C283.095 167.613 284.05 169.81 285.513 169.987C286.975 170.164 288.389 168.271 288.67 165.72C288.952 163.169 287.997 160.995 286.539 160.824C285.082 160.652 283.658 162.54 283.376 165.085Z" fill="black"/>
<path d="M268.979 154.44C268.979 154.44 264.519 147.313 254.412 154.074" stroke="black" stroke-width="7.24" stroke-miterlimit="10"/>
<path d="M276.817 205.388V244.925" stroke="black" stroke-width="7.24" stroke-miterlimit="10"/>
<path d="M125.979 441.973C125.979 441.973 141.706 426.529 162.13 409.369C179.91 394.423 201.234 378.126 218.749 369.592C220.99 368.511 223.165 367.544 225.279 366.732C230.323 364.74 235.738 363.957 241.116 364.444C242.241 364.54 243.362 364.696 244.472 364.913" stroke="black" stroke-width="7.24" stroke-miterlimit="10"/>
<path d="M232.581 417.691C215.309 423.051 204.429 435.703 196.221 453.464C190.762 465.259 186.036 478.821 177.453 488.602C169.112 498.046 159.353 506.334 148.053 511.665C127.552 521.332 102.309 520.588 88.9893 499.567C79.9807 485.313 76.4368 467.604 74.6373 450.947C71.5461 421.998 81.3055 340.397 123.953 283.797C137.654 265.59 154.744 249.986 175.907 239.542C190.762 232.231 207.553 227.45 226.586 226.094L231.919 197.591" stroke="black" stroke-width="7.24" stroke-miterlimit="10"/>
<path d="M359.44 523.677V537.966" stroke="black" stroke-width="7.24" stroke-miterlimit="10"/>
<path d="M119.979 518.575V537.966" stroke="black" stroke-width="7.24" stroke-miterlimit="10"/>
<path d="M247.881 181.65C247.934 185.938 246.464 190.097 243.752 193.336C242.232 194.065 240.576 194.442 238.9 194.44C231.465 194.44 225.437 187.176 225.437 178.195C225.383 173.907 226.856 169.75 229.571 166.515C231.091 165.782 232.747 165.404 234.424 165.405C241.859 165.405 247.881 172.675 247.881 181.65Z" fill="#FFEDBF"/>
<path d="M234.434 197.895C241.861 197.895 247.881 190.622 247.881 181.65C247.881 172.678 241.861 165.405 234.434 165.405C227.007 165.405 220.987 172.678 220.987 181.65C220.987 190.622 227.007 197.895 234.434 197.895Z" stroke="black" stroke-width="7.24" stroke-miterlimit="10"/>
<path d="M394.304 39.6853C386.02 37.1263 377.19 37.1703 368.93 39.8118C360.669 42.4532 353.35 47.5736 347.899 54.5252C342.447 61.4769 339.107 69.9476 338.301 78.8663C337.495 87.7849 339.26 96.751 343.371 104.631C347.483 112.51 353.757 118.95 361.4 123.134C369.043 127.319 377.712 129.06 386.311 128.14C394.91 127.219 403.052 123.677 409.708 117.961C416.363 112.245 421.234 104.612 423.704 96.0274C427.015 84.5159 425.778 72.1132 420.265 61.5467C414.752 50.9807 405.413 43.1169 394.304 39.6853ZM372.346 116.013C371.542 115.764 370.793 115.354 370.142 114.806C369.491 114.257 368.951 113.581 368.552 112.816C368.153 112.051 367.904 111.213 367.818 110.348C367.732 109.483 367.811 108.609 368.051 107.776C368.291 106.943 368.687 106.167 369.217 105.493C369.746 104.818 370.398 104.258 371.136 103.845C372.627 103.011 374.377 102.824 376 103.326C377.624 103.828 378.988 104.978 379.793 106.523C380.599 108.067 380.779 109.881 380.295 111.563C379.81 113.245 378.7 114.659 377.21 115.494C375.719 116.328 373.969 116.515 372.346 116.013ZM394.426 69.7154C394.334 69.9442 394.245 70.1673 394.161 70.3846C390.579 79.5149 386.124 88.2511 380.863 96.4621C379.588 98.4641 375.592 97.2286 375.581 94.8262C375.655 87.3605 376.208 79.9079 377.237 72.5182C377.877 67.1185 377.38 57.875 381.592 53.7222C385.329 50.0042 392.378 51.6001 395.701 55.1694C399.372 59.1334 396.192 65.3625 394.409 69.7154H394.426Z" fill="#E48900"/>
<path d="M424.544 299.385C421.511 302.58 419.461 306.635 418.653 311.038C417.845 315.44 418.314 319.993 420.003 324.119C421.692 328.244 424.524 331.759 428.14 334.217C431.757 336.675 435.995 337.966 440.32 337.928C444.645 337.89 448.862 336.523 452.436 334.001C456.012 331.479 458.785 327.915 460.405 323.759C462.025 319.604 462.42 315.044 461.539 310.657C460.658 306.269 458.541 302.251 455.456 299.11C451.321 294.9 445.742 292.564 439.945 292.616C434.148 292.667 428.609 295.102 424.544 299.385ZM451.967 327.315C451.373 327.942 450.563 328.298 449.715 328.306C448.867 328.313 448.051 327.971 447.446 327.355C446.842 326.74 446.498 325.9 446.491 325.021C446.483 324.143 446.814 323.297 447.408 322.67C447.702 322.36 448.052 322.113 448.439 321.943C448.826 321.773 449.24 321.684 449.66 321.68C450.08 321.677 450.497 321.759 450.886 321.922C451.275 322.085 451.629 322.325 451.928 322.63C452.228 322.936 452.467 323.298 452.631 323.699C452.795 324.1 452.881 324.529 452.884 324.965C452.888 325.4 452.809 325.831 452.652 326.235C452.494 326.638 452.262 327.005 451.967 327.315ZM437.262 306.466C440.171 310.413 443.334 314.474 445.619 318.844C446.171 319.896 444.708 321.441 443.682 320.88C440.511 319.1 437.459 317.101 434.546 314.897C432.393 313.342 428.33 311.403 427.547 308.503C426.834 305.917 429.164 303.063 431.466 302.376C434.292 301.541 435.793 304.533 437.262 306.466Z" fill="#FFEDBF"/>
<path d="M510.269 117.918C512.447 115.141 513.782 111.757 514.104 108.195C514.426 104.633 513.722 101.051 512.08 97.9029C510.438 94.7552 507.933 92.1829 504.88 90.5104C501.827 88.8385 498.364 88.1418 494.929 88.509C491.495 88.8762 488.242 90.2908 485.583 92.573C482.924 94.8559 480.977 97.9041 479.99 101.333C479.002 104.762 479.018 108.417 480.036 111.836C481.053 115.256 483.026 118.286 485.705 120.543C487.484 122.042 489.531 123.164 491.729 123.843C493.926 124.523 496.231 124.747 498.512 124.503C500.793 124.259 503.005 123.552 505.023 122.422C507.04 121.292 508.823 119.762 510.269 117.918ZM486.439 97.8463C486.651 97.5763 486.911 97.3527 487.206 97.1874C487.501 97.0221 487.824 96.9185 488.158 96.8825C488.491 96.8465 488.828 96.8791 489.149 96.9786C489.47 97.0775 489.77 97.2411 490.03 97.4602C490.291 97.6793 490.507 97.9493 490.666 98.2547C490.826 98.5602 490.926 98.8954 490.96 99.2408C490.995 99.5863 490.964 99.9353 490.868 100.268C490.772 100.601 490.614 100.911 490.403 101.181C489.976 101.726 489.358 102.072 488.684 102.145C488.011 102.217 487.338 102.009 486.812 101.567C486.287 101.125 485.952 100.484 485.882 99.7865C485.812 99.0887 486.013 98.3909 486.439 97.8463ZM499.649 113.29C497.049 110.379 494.25 107.416 492.103 104.098C491.584 103.303 492.655 101.965 493.494 102.331C496.152 103.505 498.732 104.862 501.216 106.392C503.038 107.462 506.411 108.68 507.244 110.934C507.995 112.93 506.35 115.384 504.567 116.082C502.365 116.963 500.951 114.703 499.649 113.256V113.29Z" fill="#FFEDBF"/>
<path d="M336.72 237.203C342.881 248.071 342.599 255.81 340.998 268.354C340.358 273.13 345.32 276.362 349.344 273.959C384.899 252.795 418.085 269.532 460.479 259.156C476.045 255.369 495.453 247.522 508.756 234.903C513.171 228.111 515.529 220.109 515.53 211.92C515.53 177.6 470.266 149.738 414.441 149.738C378.667 149.738 347.236 161.178 329.268 178.413C329.268 178.413 329.268 178.413 329.218 178.464C324.658 185.54 322.152 193.273 322.152 201.344C322.125 213.659 330.963 227.01 336.72 237.203Z" fill="#E48900" fill-opacity="0.62"/>
<path d="M322.286 201.344C322.286 201.63 322.286 201.916 322.286 202.213C322.485 214.225 328.303 225.419 335.192 235.103C339.807 241.578 345.282 248.774 343.985 256.714C343.433 260.214 341.529 263.389 341.054 266.901C340.579 270.413 342.384 274.795 345.807 274.978C347.982 275.092 349.831 273.49 351.553 272.118C361.738 263.938 374.975 260.878 387.847 260.34C400.72 259.802 413.576 261.564 426.454 261.942C445.023 262.514 463.885 260.088 481.036 252.71C496.404 246.109 510.485 235.275 519.731 220.803C528.817 206.595 523.446 185.963 513.753 173.608C504.667 162.013 491.502 154.594 478 149.366C441.684 135.318 400.234 135.638 364.42 151.031C353.789 155.607 343.505 161.556 335.534 170.164C327.767 178.55 322.369 189.727 322.286 201.344Z" stroke="black" stroke-width="7.24" stroke-miterlimit="10"/>
<path d="M471.292 215.015C478.993 215.015 485.236 208.546 485.236 200.566C485.236 192.586 478.993 186.117 471.292 186.117C463.591 186.117 457.349 192.586 457.349 200.566C457.349 208.546 463.591 215.015 471.292 215.015Z" fill="white"/>
<path d="M426.193 215.015C433.894 215.015 440.136 208.546 440.136 200.566C440.136 192.586 433.894 186.117 426.193 186.117C418.492 186.117 412.249 192.586 412.249 200.566C412.249 208.546 418.492 215.015 426.193 215.015Z" fill="white"/>
<path d="M380.217 215.015C387.918 215.015 394.16 208.546 394.16 200.566C394.16 192.586 387.918 186.117 380.217 186.117C372.516 186.117 366.273 192.586 366.273 200.566C366.273 208.546 372.516 215.015 380.217 215.015Z" fill="white"/>
</svg>
