<svg width="375" height="280" viewBox="0 0 375 280" fill="none" xmlns="http://www.w3.org/2000/svg">
<path d="M375 245.55H0V245.737H375V245.55Z" fill="#EBEBEB"/>
<path d="M64.1842 252.69H39.3442V252.877H64.1842V252.69Z" fill="#EBEBEB"/>
<path d="M134.873 250.657H108.998V250.845H134.873V250.657Z" fill="#EBEBEB"/>
<path d="M98.6246 256.312H57.0596V256.5H98.6246V256.312Z" fill="#EBEBEB"/>
<path d="M336.622 257.002H304.23V257.19H336.622V257.002Z" fill="#EBEBEB"/>
<path d="M294.997 252.315H277.822V252.503H294.997V252.315Z" fill="#EBEBEB"/>
<path d="M216.982 255.323H146.722V255.51H216.982V255.323Z" fill="#EBEBEB"/>
<path d="M177.75 212.1H32.9322C31.7977 212.098 30.7104 211.646 29.9089 210.843C29.1074 210.04 28.6572 208.952 28.6572 207.817V4.245C28.6671 3.11702 29.1216 2.03848 29.9221 1.24366C30.7225 0.448844 31.8042 0.00193229 32.9322 0H177.75C178.886 0 179.975 0.451191 180.778 1.25432C181.581 2.05744 182.032 3.14671 182.032 4.2825V207.817C182.032 208.953 181.581 210.043 180.778 210.846C179.975 211.649 178.886 212.1 177.75 212.1V212.1ZM32.9322 0.150001C31.8475 0.151987 30.8078 0.584299 30.0415 1.35204C29.2751 2.11979 28.8447 3.16024 28.8447 4.245V207.817C28.8447 208.902 29.2751 209.943 30.0415 210.71C30.8078 211.478 31.8475 211.91 32.9322 211.912H177.75C178.835 211.91 179.876 211.478 180.643 210.711C181.411 209.943 181.843 208.903 181.845 207.817V4.245C181.843 3.15955 181.411 2.11912 180.643 1.35159C179.876 0.584055 178.835 0.151983 177.75 0.150001H32.9322Z" fill="#EBEBEB"/>
<path d="M339.982 212.1H195.157C194.022 212.098 192.934 211.646 192.132 210.843C191.329 210.041 190.877 208.953 190.875 207.817V4.245C190.887 3.11633 191.343 2.03781 192.145 1.24319C192.946 0.448581 194.029 0.00191122 195.157 0H339.982C341.109 0.00390337 342.189 0.451687 342.988 1.2463C343.787 2.0409 344.24 3.11831 344.25 4.245V207.817C344.25 208.951 343.801 210.038 343.001 210.84C342.201 211.643 341.116 212.096 339.982 212.1V212.1ZM195.157 0.150001C194.072 0.151983 193.032 0.584055 192.264 1.35159C191.497 2.11912 191.064 3.15955 191.062 4.245V207.817C191.064 208.903 191.497 209.943 192.264 210.711C193.032 211.478 194.072 211.91 195.157 211.912H339.982C341.068 211.91 342.108 211.478 342.876 210.711C343.643 209.943 344.076 208.903 344.077 207.817V4.245C344.076 3.15955 343.643 2.11912 342.876 1.35159C342.108 0.584055 341.068 0.151983 339.982 0.150001H195.157Z" fill="#EBEBEB"/>
<path d="M99.2033 195.645H110.611V151.447H99.2033V195.645Z" fill="#E6E6E6"/>
<path d="M68.2871 195.638H106.14L111.855 143.91H74.0021L68.2871 195.638Z" fill="#F0F0F0"/>
<path d="M64.1841 195.638H103.282L108.997 143.91H69.8991L64.1841 195.638Z" fill="#F5F5F5"/>
<path d="M100.462 191.565L105.277 147.983H72.7271L67.9121 191.565H100.462Z" fill="white"/>
<path d="M93.7507 180.998L93.9532 179.228C95.1607 168.293 88.3282 158.55 79.4632 158.55L79.2682 160.328C78.0607 171.255 84.8857 180.998 93.7507 180.998V180.998Z" fill="#F5F5F5"/>
<path d="M80.797 109.395L305.084 109.395V28.05L80.797 28.05V109.395Z" fill="#E6E6E6"/>
<path d="M76.7177 109.395L303.18 109.395V28.05L76.7177 28.05V109.395Z" fill="#F0F0F0"/>
<path d="M80.797 116.978L305.084 116.978V109.395L80.797 109.395V116.978Z" fill="#E6E6E6"/>
<path d="M69.9149 116.978L296.377 116.978V109.395L69.9149 109.395V116.978Z" fill="#F0F0F0"/>
<path d="M297.464 103.687V33.7649L82.4244 33.7649V103.687L297.464 103.687Z" fill="#FAFAFA"/>
<path d="M274.47 103.687L246.518 33.7649H221.985L249.938 103.687H274.47Z" fill="white"/>
<path d="M153.33 103.687L125.377 33.7649H100.837L128.79 103.687H153.33Z" fill="white"/>
<path d="M244.665 103.687L216.713 33.7649H207.143L235.095 103.687H244.665Z" fill="white"/>
<path d="M83.1533 103.687V33.7649H82.4258V103.687H83.1533Z" fill="#E6E6E6"/>
<path d="M43.0355 245.55H76.6655V195.637H43.0355L43.0355 245.55Z" fill="#E6E6E6"/>
<path d="M46.4172 245.55H43.0347V235.928H49.9647L46.4172 245.55Z" fill="#F0F0F0"/>
<path d="M137.287 245.55H170.917V195.637H137.287V245.55Z" fill="#E6E6E6"/>
<path d="M43.0352 239.647H140.243V195.645H43.0352V239.647Z" fill="#F0F0F0"/>
<path d="M136.86 245.55H140.243V235.928H133.312L136.86 245.55Z" fill="#F0F0F0"/>
<path d="M45.6597 216.15H137.617V198.39H45.6597V216.15Z" fill="#E6E6E6"/>
<path d="M85.5004 210H97.7629C100.399 210 103.008 209.462 105.429 208.42C107.851 207.378 110.035 205.854 111.848 203.94H71.4229C73.2341 205.854 75.4166 207.379 77.8371 208.421C80.2576 209.463 82.8651 210 85.5004 210V210Z" fill="#F0F0F0"/>
<path d="M45.6597 236.775H137.617V219.015H45.6597V236.775Z" fill="#E6E6E6"/>
<path d="M85.5004 230.595H97.7629C100.399 230.595 103.008 230.057 105.429 229.016C107.851 227.974 110.035 226.449 111.848 224.535H71.4229C73.2341 226.449 75.4166 227.974 77.8371 229.016C80.2576 230.058 82.8651 230.595 85.5004 230.595V230.595Z" fill="#F0F0F0"/>
<path d="M258.689 174.84C258.656 174.68 258.569 174.536 258.442 174.434C258.314 174.331 258.155 174.276 257.992 174.277H230.999C230.837 174.276 230.679 174.332 230.553 174.434C230.427 174.537 230.341 174.68 230.309 174.84L220.709 245.55H222.157L231.562 175.695H257.407L266.812 245.55H268.267L258.689 174.84Z" fill="#F0F0F0"/>
<path d="M310.981 174.84C310.947 174.68 310.86 174.536 310.733 174.434C310.605 174.331 310.446 174.276 310.283 174.277H283.283C283.12 174.276 282.961 174.331 282.833 174.434C282.706 174.536 282.619 174.68 282.585 174.84L273 245.55H274.448L283.853 175.695H309.705L319.111 245.55H320.558L310.981 174.84Z" fill="#F0F0F0"/>
<path d="M311.752 168.877H226.807C222.75 168.877 219.457 170.827 219.457 173.242V173.392C219.457 174.27 220.657 174.982 222.135 174.982H316.417C317.917 174.982 319.102 174.27 319.102 173.392V173.25C319.102 170.827 315.81 168.877 311.752 168.877Z" fill="#E0E0E0"/>
<path d="M316.95 133.875H260.782L252.645 167.048H308.812L316.95 133.875Z" fill="#E6E6E6"/>
<path d="M308.812 167.047L308.58 168.877H252.412L252.637 167.047H308.812Z" fill="#E6E6E6"/>
<path d="M315.225 133.875H259.058L250.913 167.048H307.08L315.225 133.875Z" fill="#F0F0F0"/>
<path d="M305.895 165.525L313.29 135.39H260.243L252.848 165.525H305.895Z" fill="white"/>
<path d="M292.448 167.047L292.223 168.877H230.371L230.596 167.047H292.448Z" fill="#F0F0F0"/>
<path d="M134.085 193.605H134.947C134.947 191.813 134.947 187.275 135.045 176.873C135.195 158.01 135.495 156.863 135.495 156.863L133.425 165.57C132.12 175.208 133.807 184.898 134.085 193.605Z" fill="#E6E6E6"/>
<path d="M132.368 164.25C129.368 160.702 123.03 159.667 116.513 158.782C113.955 158.437 123.263 164.28 127.763 168.427C131.28 171.652 133.53 172.545 134.513 175.755C135 171.75 134.933 167.325 132.368 164.25Z" fill="#E6E6E6"/>
<path d="M136.313 170.61C139.313 167.063 145.65 166.035 152.168 165.15C154.725 164.805 145.418 170.648 140.918 174.795C137.4 178.02 135.143 178.913 134.168 182.123C133.665 178.118 133.748 173.67 136.313 170.61Z" fill="#E6E6E6"/>
<path d="M135.037 156C137.287 151.755 142.89 147.75 149.19 146.25C151.665 145.658 143.46 154.08 140.34 159.518C137.917 163.733 134.7 168.698 134.205 172.268C133.447 165.233 132.81 160.268 135.037 156Z" fill="#E6E6E6"/>
<path d="M134.775 195.637C132.12 195.637 129.915 194.31 129.765 192.6L129.322 189.69H140.25L139.807 192.6C139.635 194.31 137.437 195.637 134.775 195.637Z" fill="#F0F0F0"/>
<path d="M140.933 190.808H128.618L128.265 187.56H141.285L140.933 190.808Z" fill="#F0F0F0"/>
<path d="M187.5 279.42C267.811 279.42 332.917 275.619 332.917 270.93C332.917 266.241 267.811 262.44 187.5 262.44C107.188 262.44 42.082 266.241 42.082 270.93C42.082 275.619 107.188 279.42 187.5 279.42Z" fill="#F5F5F5"/>
<path d="M233.46 258.735L227.76 257.34L229.462 243.765L235.17 245.16L233.46 258.735Z" fill="#FFB573"/>
<path d="M283.139 264.938H277.267L272.699 251.34H278.564L283.139 264.938Z" fill="#FFB573"/>
<path d="M276.488 264.255H283.643C283.759 264.255 283.872 264.294 283.963 264.367C284.054 264.439 284.118 264.539 284.145 264.652L285.308 269.902C285.335 270.03 285.333 270.161 285.302 270.288C285.271 270.414 285.212 270.532 285.129 270.632C285.046 270.733 284.941 270.813 284.823 270.867C284.705 270.921 284.575 270.948 284.445 270.945C282.143 270.907 280.463 270.772 277.56 270.772C275.775 270.772 270.398 270.96 267.93 270.96C265.463 270.96 265.148 268.522 266.153 268.297C270.653 267.315 274.088 265.95 275.535 264.645C275.794 264.401 276.133 264.262 276.488 264.255V264.255Z" fill="#263238"/>
<path d="M228 256.695L234.225 258.195C234.338 258.224 234.438 258.29 234.509 258.382C234.579 258.475 234.617 258.588 234.615 258.705L234.502 264.052C234.501 264.182 234.47 264.309 234.412 264.424C234.354 264.539 234.271 264.64 234.168 264.718C234.065 264.796 233.946 264.85 233.819 264.875C233.693 264.9 233.562 264.896 233.437 264.862C231.187 264.277 227.985 263.362 225.187 262.665C221.887 261.855 218.992 261.337 215.122 260.415C212.782 259.845 212.707 257.317 213.742 257.347C218.437 257.46 222.112 258.247 226.545 256.807C227.01 256.638 227.514 256.599 228 256.695V256.695Z" fill="#263238"/>
<path d="M256.418 88.4554C256.013 89.6704 255.623 90.7054 255.18 91.8229C254.738 92.9404 254.295 93.9904 253.823 95.0629C252.885 97.2079 251.843 99.3079 250.703 101.393C249.549 103.501 248.271 105.54 246.878 107.498C245.421 109.573 243.746 111.486 241.883 113.205C241.38 113.648 240.878 114.09 240.315 114.503C240.015 114.72 239.798 114.9 239.43 115.133C239.082 115.367 238.721 115.582 238.35 115.778C236.793 116.606 235.051 117.026 233.288 117C231.669 116.965 230.075 116.603 228.6 115.935C227.328 115.355 226.129 114.625 225.03 113.76C223.081 112.187 221.341 110.37 219.855 108.353C219.105 107.393 218.475 106.388 217.845 105.353C217.206 104.335 216.623 103.284 216.098 102.203L219.848 99.8779C220.493 100.628 221.235 101.468 221.955 102.233C222.675 102.998 223.455 103.733 224.205 104.483C225.645 105.865 227.232 107.085 228.938 108.12C230.52 109.058 232.133 109.523 233.13 109.365C233.616 109.292 234.078 109.107 234.48 108.825C234.598 108.748 234.711 108.662 234.818 108.57C234.915 108.495 235.125 108.308 235.268 108.18C235.612 107.889 235.94 107.578 236.25 107.25C238.8 104.58 240.998 100.943 242.91 97.2079C243.878 95.3254 244.77 93.3829 245.64 91.4329C246.068 90.4504 246.488 89.4604 246.885 88.4704C247.283 87.4804 247.688 86.4454 248.025 85.5454L256.418 88.4554Z" fill="#FFB573"/>
<path d="M258.802 85.5675C260.054 91.035 248.062 105.03 248.062 105.03L237.277 97.14C239.663 92.5951 242.533 88.3205 245.834 84.39C250.777 78.8475 257.414 79.5675 258.802 85.5675Z" fill="#7435DC"/>
<path opacity="0.2" d="M246.75 94.7398C245.588 97.0484 244.586 99.434 243.75 101.88L248.062 105.03C248.062 105.03 255.187 96.7272 257.872 90.4047C254.632 87.6222 249.57 89.2048 246.75 94.7398Z" fill="black"/>
<path d="M220.424 100.71L217.687 97.0425L213.044 102.517C213.044 102.517 215.857 105.337 219.337 104.235L220.424 100.71Z" fill="#FFB573"/>
<path d="M211.575 95.0251L210.038 101.31L213.045 102.518L217.688 97.0426L211.575 95.0251Z" fill="#FFB573"/>
<path opacity="0.2" d="M229.462 243.765L228.585 250.77L234.292 252.158L235.17 245.16L229.462 243.765Z" fill="black"/>
<path opacity="0.2" d="M278.572 251.34H272.699L275.054 258.353H280.927L278.572 251.34Z" fill="black"/>
<path d="M285.067 84.7501C282.94 90.9626 281.281 97.3253 280.102 103.785C279.254 108.285 278.602 112.598 278.182 116.535C277.102 125.715 276.854 132.75 276.427 135.113L245.309 130.92C243.202 97.3201 252.434 80.6701 252.434 80.6701C254.935 80.3645 257.453 80.2167 259.972 80.2276C260.504 80.2276 261.044 80.2276 261.592 80.2651C266.032 80.6032 270.45 81.1967 274.822 82.0426C275.654 82.2001 276.494 82.3726 277.304 82.5601C281.444 83.4976 285.067 84.7501 285.067 84.7501Z" fill="#7435DC"/>
<path opacity="0.2" d="M262.058 89.04C256.358 88.29 253.808 89.94 253.35 92.04C251.52 100.23 257.85 107.857 257.85 107.857C257.85 107.857 267.143 102.225 268.973 94.035C269.445 91.935 267.75 89.7675 262.058 89.04Z" fill="black"/>
<path d="M258.488 105C256.928 102.592 254.213 97.4998 255.368 92.2498C255.586 91.2973 257.791 90.5848 261.593 91.0723C265.396 91.5598 267.166 92.7823 266.956 93.7348C265.793 98.9998 261.001 103.132 258.488 105Z" fill="white"/>
<path opacity="0.2" d="M280.103 103.785C279.255 108.285 278.603 112.598 278.183 116.535L273.975 106.8L280.103 103.785Z" fill="black"/>
<path d="M275.52 66.9602C274.11 71.1002 272.227 78.7877 274.822 82.0277C273.331 83.2258 271.599 84.0891 269.745 84.5588C267.89 85.0286 265.957 85.0939 264.075 84.7502C260.422 84.1802 260.587 81.5927 261.592 80.2877C266.49 79.7927 266.842 76.2527 266.467 72.8327L275.52 66.9602Z" fill="#FFB573"/>
<path opacity="0.2" d="M271.83 69.345L266.468 72.795C266.568 73.5908 266.598 74.3939 266.558 75.195C268.41 75.195 271.17 73.5225 271.613 71.655C271.822 70.904 271.896 70.1218 271.83 69.345V69.345Z" fill="black"/>
<path d="M264.75 50.3247C260.205 49.9572 258.63 60.9072 261.465 63.0072C264.3 65.1072 273.263 50.9997 264.75 50.3247Z" fill="#263238"/>
<path d="M276.892 60.6226C275.76 66.3376 275.392 69.7426 272.077 72.3076C267.097 76.1626 260.34 72.5701 259.74 66.6301C259.2 61.2826 261.142 52.8376 267.09 51.3001C268.4 50.9553 269.778 50.9514 271.091 51.2888C272.403 51.6262 273.608 52.2937 274.59 53.2278C275.573 54.1619 276.3 55.3317 276.703 56.626C277.105 57.9202 277.171 59.296 276.892 60.6226V60.6226Z" fill="#FFB573"/>
<path d="M275.722 66.2176C272.91 67.9726 270.532 50.4226 278.01 52.7176C290.152 56.4751 279.075 64.1326 275.722 66.2176Z" fill="#263238"/>
<path d="M275.737 55.9723C274.035 53.8723 263.685 55.1398 258.915 52.0123C254.145 48.8848 257.167 42.0073 265.897 43.1173C261.832 43.5898 262.575 46.9798 265.365 46.9498C268.155 46.9198 274.575 43.4623 277.365 46.4098C281.257 50.5048 283.207 48.0748 285.15 50.3998C288 53.7448 279.427 60.5398 275.737 55.9723Z" fill="#263238"/>
<path d="M278.633 67.3277C278.168 67.8848 277.597 68.3446 276.953 68.6805C276.31 69.0164 275.606 69.2219 274.883 69.2852C272.948 69.4502 272.34 67.6277 273.188 65.9927C273.938 64.4927 275.873 62.6627 277.688 63.2702C279.503 63.8777 279.75 65.9327 278.633 67.3277Z" fill="#FFB573"/>
<path d="M226.77 248.925L236.43 251.25C236.43 251.25 242.655 218.348 245.543 200.25C246.42 194.753 248.378 187.148 250.748 179.025C253.748 168.795 257.37 157.755 260.318 149.123C263.43 140.025 265.763 133.59 265.763 133.59L245.31 130.838C245.31 130.838 229.725 178.68 228 196.5C226.14 215.048 226.77 248.925 226.77 248.925Z" fill="#263238"/>
<path opacity="0.2" d="M250.748 179.085C253.748 168.855 257.37 157.815 260.318 149.182L258.48 144.45C252.99 150.18 250.418 168.84 250.748 179.085Z" fill="black"/>
<path d="M256.343 132.383C256.343 132.383 255.33 182.685 256.71 199.83C258.21 218.58 272.295 256.995 272.295 256.995H283.05C283.05 256.995 275.873 221.858 273.675 203.625C271.17 182.85 276.42 135.09 276.42 135.09L256.343 132.383Z" fill="#263238"/>
<path d="M271.012 257.227H283.672V253.447L269.52 253.2L271.012 257.227Z" fill="#FF9640"/>
<path d="M225.502 248.858L237.007 251.67L237.914 247.95L225.104 244.613L225.502 248.858Z" fill="#FF9640"/>
<path d="M267.93 61.0578C267.87 61.5228 267.57 61.8678 267.262 61.8078C266.955 61.7478 266.752 61.3503 266.82 60.8853C266.887 60.4203 267.18 60.0678 267.487 60.1353C267.795 60.2028 267.99 60.5853 267.93 61.0578Z" fill="#263238"/>
<path d="M262.628 60.3376C262.56 60.8101 262.26 61.1551 261.953 61.0876C261.645 61.0201 261.45 60.6301 261.518 60.1576C261.585 59.6851 261.878 59.3401 262.185 59.4076C262.493 59.4751 262.688 59.8726 262.628 60.3376Z" fill="#263238"/>
<path d="M264.278 60.8022C263.528 62.1752 262.592 63.4372 261.495 64.5522C261.783 64.8296 262.129 65.0405 262.507 65.1701C262.885 65.2997 263.287 65.3448 263.685 65.3022L264.278 60.8022Z" fill="#ED893E"/>
<path d="M265.5 66.75C265.294 66.7494 265.088 66.7344 264.885 66.705C264.866 66.7032 264.848 66.6976 264.832 66.6886C264.816 66.6795 264.802 66.6672 264.79 66.6524C264.779 66.6377 264.771 66.6207 264.767 66.6027C264.762 66.5846 264.762 66.5658 264.765 66.5475C264.767 66.5297 264.774 66.5126 264.783 66.4972C264.793 66.4818 264.805 66.4685 264.82 66.458C264.834 66.4475 264.851 66.4401 264.869 66.4361C264.886 66.4322 264.904 66.4318 264.922 66.435C265.504 66.5257 266.1 66.4779 266.66 66.2954C267.221 66.113 267.73 65.8011 268.147 65.385C268.174 65.3602 268.208 65.3464 268.245 65.3464C268.281 65.3464 268.316 65.3602 268.342 65.385C268.355 65.3976 268.366 65.4127 268.373 65.4295C268.38 65.4463 268.384 65.4643 268.384 65.4825C268.384 65.5007 268.38 65.5188 268.373 65.5355C268.366 65.5523 268.355 65.5674 268.342 65.58C267.972 65.9574 267.53 66.2557 267.041 66.4569C266.552 66.658 266.028 66.7577 265.5 66.75V66.75Z" fill="#263238"/>
<path d="M269.797 59.5652C269.748 59.5656 269.699 59.5525 269.657 59.5274C269.615 59.5023 269.58 59.4661 269.557 59.4227C269.392 59.1147 269.158 58.8494 268.873 58.6476C268.588 58.4458 268.26 58.3132 267.914 58.2602C267.878 58.2583 267.842 58.2492 267.809 58.2334C267.776 58.2177 267.747 58.1956 267.722 58.1684C267.698 58.1413 267.679 58.1095 267.667 58.0751C267.655 58.0407 267.65 58.0041 267.652 57.9677C267.658 57.8948 267.691 57.8268 267.746 57.778C267.8 57.7291 267.871 57.7031 267.944 57.7052C268.382 57.7619 268.801 57.9221 269.164 58.1725C269.528 58.4229 269.827 58.7563 270.037 59.1452C270.055 59.1771 270.067 59.2124 270.072 59.249C270.077 59.2857 270.075 59.3229 270.065 59.3585C270.055 59.3942 270.038 59.4275 270.015 59.4565C269.992 59.4856 269.964 59.5098 269.932 59.5277C269.89 59.5504 269.844 59.5633 269.797 59.5652V59.5652Z" fill="#263238"/>
<path d="M260.588 58.2077C260.532 58.2069 260.478 58.1914 260.43 58.1627C260.37 58.1203 260.328 58.0558 260.314 57.9829C260.3 57.9101 260.315 57.8347 260.355 57.7727C260.592 57.4002 260.914 57.0895 261.295 56.8664C261.676 56.6434 262.105 56.5144 262.545 56.4902C262.619 56.4902 262.69 56.5195 262.742 56.5715C262.794 56.6236 262.823 56.6941 262.823 56.7677C262.823 56.8413 262.794 56.9119 262.742 56.964C262.69 57.016 262.619 57.0452 262.545 57.0452C262.196 57.0655 261.856 57.1702 261.555 57.3505C261.255 57.5307 261.003 57.7811 260.82 58.0802C260.795 58.1192 260.761 58.1513 260.72 58.1735C260.68 58.1958 260.634 58.2076 260.588 58.2077V58.2077Z" fill="#263238"/>
<path d="M274.545 265.283C274.144 265.312 273.745 265.207 273.412 264.983C273.306 264.891 273.224 264.775 273.174 264.644C273.125 264.513 273.108 264.371 273.127 264.233C273.126 264.151 273.149 264.07 273.191 264C273.233 263.93 273.294 263.873 273.367 263.835C274.012 263.505 275.91 264.668 276.12 264.803C276.145 264.816 276.164 264.837 276.176 264.863C276.189 264.889 276.192 264.917 276.187 264.945C276.182 264.972 276.17 264.997 276.151 265.017C276.133 265.037 276.109 265.051 276.082 265.058C275.58 265.19 275.064 265.266 274.545 265.283V265.283ZM273.675 264.068C273.615 264.054 273.554 264.054 273.495 264.068C273.466 264.084 273.442 264.108 273.426 264.137C273.411 264.167 273.403 264.199 273.405 264.233C273.39 264.325 273.4 264.42 273.433 264.508C273.466 264.596 273.521 264.674 273.592 264.735C274.248 265.036 274.994 265.073 275.677 264.84C275.066 264.455 274.386 264.193 273.675 264.068V264.068Z" fill="#FF9640"/>
<path d="M276.052 265.073H275.985C275.377 264.743 274.2 263.453 274.327 262.823C274.347 262.719 274.402 262.626 274.482 262.559C274.563 262.492 274.665 262.455 274.77 262.455C274.876 262.444 274.983 262.454 275.085 262.484C275.186 262.515 275.281 262.567 275.362 262.635C276.045 263.198 276.18 264.885 276.187 264.96C276.189 264.985 276.185 265.009 276.174 265.032C276.164 265.054 276.148 265.073 276.127 265.088C276.102 265.09 276.076 265.084 276.052 265.073ZM274.867 262.695H274.8C274.62 262.695 274.605 262.8 274.597 262.838C274.522 263.228 275.272 264.195 275.88 264.653C275.839 263.984 275.596 263.343 275.182 262.815C275.096 262.738 274.984 262.695 274.867 262.695V262.695Z" fill="#FF9640"/>
<path d="M227.205 257.34C226.238 257.303 224.55 257.13 224.055 256.418C223.985 256.315 223.94 256.196 223.924 256.072C223.909 255.949 223.923 255.823 223.965 255.705C223.987 255.631 224.027 255.564 224.082 255.51C224.138 255.457 224.206 255.418 224.28 255.398C225.068 255.173 227.07 256.898 227.28 257.1C227.299 257.121 227.313 257.147 227.32 257.174C227.326 257.202 227.325 257.231 227.318 257.258C227.308 257.28 227.292 257.299 227.272 257.314C227.252 257.328 227.229 257.337 227.205 257.34V257.34ZM224.393 255.653H224.333C224.304 255.66 224.277 255.675 224.256 255.696C224.235 255.717 224.22 255.744 224.213 255.773C224.184 255.851 224.175 255.934 224.185 256.016C224.195 256.099 224.226 256.177 224.273 256.245C224.55 256.643 225.473 256.928 226.785 256.995C225.983 256.388 224.858 255.615 224.393 255.653Z" fill="#FF9640"/>
<path d="M227.205 257.34C227.174 257.352 227.139 257.352 227.108 257.34C226.493 256.86 225.435 255.293 225.69 254.678C225.758 254.528 225.908 254.37 226.29 254.423C226.428 254.439 226.561 254.484 226.68 254.555C226.799 254.626 226.901 254.722 226.98 254.835C227.565 255.585 227.34 257.183 227.333 257.25C227.328 257.274 227.317 257.296 227.301 257.315C227.286 257.333 227.265 257.347 227.243 257.355L227.205 257.34ZM226.103 254.67C225.983 254.67 225.96 254.738 225.953 254.76C225.795 255.135 226.485 256.328 227.085 256.92C227.174 256.255 227.062 255.579 226.763 254.978C226.703 254.895 226.627 254.824 226.54 254.771C226.452 254.718 226.354 254.684 226.253 254.67H226.103Z" fill="#FF9640"/>
<path d="M288.315 91.5827C288.217 92.6927 288.112 93.6452 287.97 94.6577C287.827 95.6702 287.677 96.6527 287.512 97.6577C287.175 99.6452 286.762 101.618 286.282 103.583C285.802 105.548 285.255 107.513 284.587 109.463C283.937 111.448 283.165 113.392 282.277 115.283L281.58 116.715L281.535 116.805L281.437 116.985L281.235 117.345C281.09 117.579 280.933 117.804 280.762 118.02C280.438 118.433 280.071 118.81 279.667 119.145C278.98 119.71 278.205 120.159 277.372 120.473C276.696 120.724 275.998 120.915 275.287 121.043C273.005 121.378 270.683 121.347 268.41 120.953C264.37 120.283 260.428 119.12 256.672 117.488L257.925 113.25C259.747 113.49 261.675 113.73 263.505 113.88C265.335 114.03 267.195 114.165 268.957 114.15C270.534 114.192 272.109 114.016 273.637 113.625C274.222 113.453 274.59 113.153 274.492 113.16C274.453 113.172 274.417 113.192 274.387 113.22L274.32 113.295L274.282 113.34V113.265L274.755 112.05C275.978 108.649 276.938 105.159 277.627 101.61C278.017 99.8027 278.325 97.9727 278.64 96.1502C278.795 95.2352 278.937 94.3202 279.067 93.4052L279.435 90.7202L288.315 91.5827Z" fill="#FFB573"/>
<path d="M289.395 88.0802C292.672 92.6327 288.885 106.665 288.885 106.665L273.48 107.16C273.48 107.16 274.732 97.9127 277.012 91.0202C279.487 83.5202 285.412 82.5677 289.395 88.0802Z" fill="#7435DC"/>
<path d="M258.645 113.422L253.238 110.917V118.417C253.238 118.417 258.315 119.535 259.2 116.917L258.645 113.422Z" fill="#FFB573"/>
<path d="M248.453 111.997L248.723 118.2L253.208 118.41L253.238 110.917L248.453 111.997Z" fill="#FFB573"/>
<path d="M227.64 161.198H84.3005C82.4316 161.165 80.6411 160.441 79.2751 159.165C77.9092 157.89 77.0649 156.152 76.9055 154.29L70.5005 62.8801C70.4251 61.9952 70.5357 61.1043 70.8251 60.2647C71.1145 59.4251 71.5764 58.6553 72.181 58.0048C72.7856 57.3542 73.5196 56.8374 74.3358 56.4874C75.1521 56.1374 76.0325 55.9621 76.9205 55.9726H220.231C222.099 56.0065 223.889 56.7311 225.254 58.0066C226.62 59.2822 227.465 61.0184 227.626 62.8801L234.06 154.29C234.136 155.175 234.025 156.066 233.736 156.906C233.447 157.745 232.985 158.515 232.38 159.165C231.775 159.816 231.041 160.333 230.225 160.683C229.409 161.033 228.529 161.208 227.64 161.198V161.198Z" fill="#263238"/>
<path d="M268.642 235.8H107.13C102.847 235.8 98.5275 233.033 97.545 229.68L78.84 166.11C78.0375 163.395 80.505 161.198 84.3 161.198H227.64C231.442 161.198 235.785 163.395 237.307 166.11L273 229.68C274.875 233.033 272.925 235.8 268.642 235.8Z" fill="#263238"/>
<path d="M229.365 161.198H86.0327C84.1633 161.167 82.3718 160.444 81.0055 159.167C79.6392 157.891 78.7954 156.153 78.6377 154.29L72.1952 62.88C72.121 61.9954 72.2323 61.105 72.5222 60.2659C72.812 59.4267 73.2739 58.6574 73.8783 58.0071C74.4827 57.3569 75.2162 56.84 76.0319 56.4896C76.8476 56.1393 77.7274 55.9632 78.6152 55.9725H221.955C223.824 56.0047 225.615 56.7287 226.981 58.0047C228.347 59.2806 229.191 61.0177 229.35 62.88L235.793 154.29C235.867 155.175 235.755 156.066 235.465 156.906C235.175 157.746 234.712 158.515 234.107 159.166C233.502 159.816 232.767 160.333 231.951 160.683C231.134 161.033 230.254 161.208 229.365 161.198Z" fill="#FF9640"/>
<path d="M87.2031 155.445C86.465 155.429 85.7586 155.142 85.219 154.639C84.6793 154.135 84.3443 153.45 84.2781 152.715L78.0606 64.4549C78.0313 64.1058 78.0753 63.7545 78.1898 63.4234C78.3043 63.0924 78.4867 62.7889 78.7255 62.5325C78.9642 62.2762 79.2539 62.0725 79.5759 61.9347C79.898 61.7969 80.2453 61.728 80.5956 61.7324H220.786C221.521 61.7495 222.225 62.0363 222.763 62.5382C223.301 63.0402 223.635 63.7223 223.703 64.4549L229.921 152.715C229.95 153.064 229.906 153.416 229.791 153.747C229.677 154.079 229.495 154.383 229.256 154.64C229.017 154.897 228.728 155.101 228.406 155.24C228.084 155.378 227.736 155.448 227.386 155.445H87.2031Z" fill="white"/>
<path opacity="0.2" d="M151.293 59.7859C151.688 59.3778 151.652 58.704 151.214 58.2809C150.776 57.8579 150.102 57.8458 149.708 58.2539C149.313 58.6621 149.349 59.3359 149.787 59.7589C150.225 60.182 150.899 60.1941 151.293 59.7859Z" fill="black"/>
<path d="M270.375 235.8H108.855C104.573 235.8 100.26 233.033 99.2703 229.68L80.5653 166.11C79.7703 163.395 82.2303 161.198 86.0328 161.198H229.365C233.168 161.198 237.51 163.395 239.033 166.11L274.718 229.68C276.6 233.033 274.658 235.8 270.375 235.8Z" fill="#FF9640"/>
<path opacity="0.2" d="M100.155 201.847C98.55 201.847 96.9375 200.857 96.57 199.657L86.715 167.25C86.385 166.177 87.3525 165.3 88.8675 165.3H230.025C230.771 165.299 231.507 165.475 232.172 165.814C232.837 166.153 233.412 166.645 233.85 167.25L251.737 199.672C252.397 200.872 251.632 201.862 250.027 201.862L100.155 201.847Z" fill="black"/>
<path opacity="0.2" d="M164.82 230.145C164.342 230.146 163.873 230.017 163.463 229.771C163.053 229.525 162.719 229.172 162.495 228.75L154.245 207.63C153.967 206.918 154.507 206.333 155.452 206.333H198.577C199.042 206.332 199.5 206.451 199.905 206.679C200.311 206.906 200.652 207.233 200.895 207.63L210.697 228.75C211.057 229.5 210.547 230.145 209.572 230.145H164.82Z" fill="black"/>
<path d="M83.5577 142.447L87.0977 135.427H98.7902L102.083 140.497L105.375 145.56L102.818 150.622L100.388 155.445H100.65L103.028 150.735L105.585 145.672H117.278L120.57 150.742L123.623 155.445H123.908L120.75 150.615L117.458 145.545L120.015 140.49L122.573 135.427H134.25L137.543 140.497L140.835 145.56L138.285 150.622L135.848 155.445H136.11L138.495 150.735L141.045 145.672H152.738L156.03 150.742L159.083 155.445H159.368L156.233 150.615L153 145.545L155.55 140.49L158.108 135.427H169.793L173.085 140.497L176.378 145.56L173.828 150.622L171.39 155.445H171.653L174 150.75L176.55 145.687H188.25L191.543 150.757L194.595 155.46H194.88L191.745 150.63L188.453 145.56L191.003 140.505L193.56 135.442H205.253L208.545 140.512L211.838 145.575L209.25 150.622L206.813 155.445H207.083L209.46 150.735L212.01 145.672H223.725L227.018 150.742L229.418 154.432L229.568 154.23L227.25 150.615L223.958 145.545L226.508 140.49L228.758 135.99V135.532L226.32 140.362L223.763 145.425H212.025L208.733 140.355L205.44 135.292L207.998 130.23L210.548 125.175H222.24L228.683 135.082L228.645 134.595L222.443 125.047L227.295 115.432V114.967L222.263 124.935H210.54L207.248 119.872L203.955 114.802L206.513 109.747L209.07 104.685H220.755L227.25 114.682L227.213 114.195L220.965 104.572L225.855 94.8899V94.4324L220.785 104.467H209.063L205.77 99.3974L202.5 94.3349L205.05 89.2724L207.608 84.2174H219.3L225.825 94.2599V93.7724L219.525 84.0899L224.453 74.3399V73.8824L219.263 83.9999H207.578L204.285 78.9299L201 73.8449L203.55 68.7824L206.1 63.7499H217.793L221.085 68.8124L224.363 73.8674V73.3799L221.25 68.6699L217.958 63.5999L218.903 61.7324H218.64L217.755 63.4874H206.093L204.945 61.7324H204.668L205.89 63.6149L203.333 68.6774L200.783 73.7324H189.09L185.798 68.6699L182.505 63.5999L183.45 61.7324H183.188L182.295 63.4874H170.61L169.5 61.7324H169.223L170.445 63.6149L167.888 68.6774L165.338 73.7324H153.608L150.315 68.6699L147 63.5999L147.945 61.7324H147.683L146.79 63.4874H135.12L133.98 61.7324H133.695L134.925 63.6149L132.368 68.6774L129.818 73.7324H118.125L114.833 68.6699L111.54 63.5999L112.485 61.7324H112.223L111.33 63.4874H99.6377L98.4977 61.7324H98.2502L99.4802 63.6149L96.9227 68.6774L94.3652 73.7324H82.6427L78.2402 66.9824V67.4699L82.4102 73.8824L79.1477 80.3399L79.1852 80.7974L82.6202 73.9949H94.3127L97.5977 79.0574L100.89 84.1274L98.3402 89.1824L95.7827 94.2449H84.1202L80.8352 89.1749L79.6802 87.3974V87.8849L80.6027 89.3024L83.8952 94.3649L81.3377 99.4274L80.5877 100.927V101.385L81.5027 99.5699L84.0602 94.5074H95.7452L99.0377 99.5774L102.33 104.64L99.7802 109.702L97.2227 114.757H85.6052L82.3127 109.695L81.1127 107.85V108.33L82.0802 109.83L85.3727 114.892L82.8152 119.947L82.0652 121.492V121.95L83.0177 120.06L85.5752 115.005H97.2602L100.553 120.067L103.845 125.137L101.295 130.192L98.7377 135.255H87.0902L82.5527 128.25L82.5902 128.737L86.8952 135.36L83.5277 142.027L83.5577 142.447ZM134.25 135.195H122.573L119.25 130.125L115.965 125.062L118.515 120L121.073 114.945H132.758L136.05 120.007L139.343 125.077L136.793 130.132L134.25 135.195ZM185.25 104.445H173.573L170.25 99.3974L166.958 94.3349L169.515 89.2724L172.073 84.2174H183.758L187.05 89.2799L190.343 94.3424L187.793 99.4049L185.25 104.445ZM185.25 104.677L188.543 109.747L191.835 114.81L189.285 119.865L186.75 124.95H175.058L171.75 119.887L168.458 114.817L171.015 109.762L173.565 104.7L185.25 104.677ZM170.063 99.5024L173.355 104.565L170.798 109.627L168.24 114.682H156.578L153.285 109.62L150 104.572L152.55 99.5174L155.108 94.4549H166.8L170.063 99.5024ZM156.375 114.832L153.818 119.887L151.268 124.95H139.575L136.283 119.887L132.99 114.817L135.548 109.762L138.098 104.7H149.79L153.083 109.77L156.375 114.832ZM152.34 99.4049L149.783 104.467H138.09L134.798 99.3974L131.505 94.3349L134.063 89.2724L136.613 84.2174H148.305L151.598 89.2799L154.89 94.3424L152.34 99.4049ZM134.603 99.5249L137.888 104.587L135.338 109.65L132.75 114.705H121.095L117.803 109.642L114.51 104.572L117.06 99.5174L119.618 94.4549H131.31L134.603 99.5249ZM155.303 140.377L152.753 145.44H141.06L137.768 140.37L134.475 135.307L137.033 130.245L139.583 125.19H151.275L154.568 130.252L157.86 135.322L155.303 140.377ZM169.748 135.195H158.063L154.77 130.125L151.5 125.062L154.05 120L156.608 114.945H168.3L171.593 120.007L174.878 125.077L172.328 130.132L169.748 135.195ZM190.748 140.377L188.198 145.44H176.543L173.25 140.37L169.958 135.307L172.515 130.245L175.065 125.19H186.75L190.043 130.252L193.335 135.322L190.748 140.377ZM207.053 120L210.345 125.07L207.788 130.125L205.23 135.187H193.545L190.253 130.117L186.96 125.055L189.51 119.992L192.068 114.937H203.76L207.053 120ZM205.553 99.5174L208.845 104.58L206.288 109.642L203.738 114.697H192.06L188.768 109.635L185.475 104.565L188.033 99.5099L190.583 94.4474H202.275L205.553 99.5174ZM189.053 73.9649H200.745L204.038 79.0274L207.33 84.0974L204.773 89.1524L202.223 94.2149H190.575L187.283 89.1449L183.99 84.0824L186.548 79.0199L189.053 73.9649ZM168.053 68.7749L170.61 63.7199H182.303L185.588 68.7824L188.88 73.8524L186.33 78.9074L183.75 83.9999H172.088L168.803 78.9299L165.51 73.8674L168.053 68.7749ZM153.608 73.9649H165.3L168.593 79.0274L171.885 84.0974L169.328 89.1524L166.778 94.2149H155.093L151.8 89.1449L148.5 84.0899L151.05 79.0274L153.608 73.9649ZM132.608 68.7749L135.165 63.7199H146.85L150.143 68.7824L153.435 73.8524L150.885 78.9074L148.298 83.9999H136.605L133.313 78.9299L130.02 73.8674L132.608 68.7749ZM118.163 73.9649H129.825L133.118 79.0274L136.41 84.0974L133.853 89.1524L131.295 94.2149H119.61L116.318 89.1449L113.025 84.0824L115.575 79.0199L118.163 73.9649ZM97.8602 78.8999L94.5677 73.8374L97.1252 68.7749L99.6752 63.7199H111.368L114.66 68.7824L117.953 73.8524L115.395 78.9074L112.845 83.9699H101.123L97.8602 78.8999ZM99.3602 99.3899L96.0002 94.3349L98.5577 89.2724L101.108 84.2174H112.8L116.093 89.2799L119.385 94.3424L116.828 99.4049L114.278 104.467H102.608L99.3602 99.3899ZM100.86 119.88L97.5002 114.817L100.058 109.762L102.608 104.7H114.3L117.593 109.77L120.885 114.832L118.328 119.887L115.778 124.95H104.093L100.86 119.88ZM101.61 130.237L104.168 125.182H115.86L119.153 130.245L122.445 135.315L119.888 140.37L117.338 145.432H105.578L102.285 140.362L99.0002 135.307L101.61 130.237Z" fill="#E0E0E0"/>
<path d="M88.4247 155.445L83.9922 148.628L84.0222 149.115L88.1397 155.445H88.4247Z" fill="#E0E0E0"/>
<path d="M183.87 146.138H132C130.958 146.123 129.959 145.717 129.202 145C128.444 144.283 127.984 143.308 127.913 142.268L125.925 106.583C125.892 106.084 125.963 105.584 126.132 105.114C126.301 104.644 126.565 104.214 126.908 103.851C127.25 103.488 127.665 103.199 128.124 103.003C128.583 102.807 129.078 102.708 129.578 102.713H181.463C182.505 102.727 183.503 103.133 184.259 103.85C185.015 104.568 185.473 105.543 185.543 106.583L187.5 142.268C187.533 142.764 187.464 143.262 187.296 143.73C187.129 144.199 186.866 144.628 186.526 144.991C186.186 145.354 185.774 145.643 185.317 145.84C184.861 146.037 184.368 146.139 183.87 146.138V146.138Z" fill="#FF9640"/>
<path opacity="0.2" d="M129.57 102.75C129.071 102.746 128.576 102.845 128.116 103.041C127.657 103.237 127.243 103.525 126.9 103.888C126.557 104.252 126.293 104.682 126.124 105.152C125.955 105.622 125.885 106.122 125.918 106.62L127.905 142.305C127.977 143.345 128.437 144.321 129.194 145.038C129.951 145.755 130.95 146.161 131.993 146.175H157.928L155.513 102.75H129.57Z" fill="black"/>
<path opacity="0.2" d="M152.663 135.9L153.263 124.56C152.361 123.995 151.606 123.225 151.059 122.313C150.511 121.4 150.187 120.372 150.113 119.31C150.057 118.493 150.171 117.672 150.448 116.901C150.726 116.13 151.16 115.425 151.724 114.831C152.288 114.237 152.97 113.766 153.725 113.449C154.481 113.131 155.294 112.974 156.113 112.988C157.802 113.011 159.421 113.668 160.65 114.827C161.879 115.987 162.629 117.565 162.751 119.25C162.815 120.272 162.614 121.293 162.166 122.213C161.717 123.133 161.038 123.921 160.193 124.5L162.046 135.84L152.663 135.9Z" fill="black"/>
<path d="M161.775 119.25C161.681 117.813 161.047 116.465 160.001 115.475C158.956 114.485 157.575 113.926 156.135 113.91C155.445 113.902 154.761 114.037 154.126 114.307C153.491 114.577 152.919 114.975 152.445 115.476C151.972 115.978 151.607 116.572 151.375 117.222C151.143 117.871 151.047 118.562 151.095 119.25C151.16 120.251 151.489 121.218 152.047 122.051C152.605 122.885 153.374 123.556 154.275 123.998L153.705 134.888H160.905L159.127 123.998C159.981 123.547 160.685 122.859 161.155 122.016C161.625 121.174 161.84 120.213 161.775 119.25V119.25Z" fill="#263238"/>
<path d="M180.113 100.155H173.25L172.83 92.7073C172.508 87.9007 170.388 83.3917 166.891 80.0783C163.394 76.7648 158.777 74.8901 153.96 74.8273C151.651 74.8045 149.363 75.2592 147.238 76.1629C145.113 77.0666 143.198 78.3997 141.612 80.0786C140.027 81.7575 138.806 83.746 138.026 85.9192C137.245 88.0924 136.923 90.4035 137.078 92.7073L137.49 100.155H130.628L130.215 92.7073C129.998 89.5182 130.443 86.3187 131.521 83.3097C132.6 80.3008 134.29 77.5475 136.484 75.223C138.678 72.8986 141.329 71.0531 144.271 69.8027C147.213 68.5524 150.381 67.924 153.578 67.9573C167.22 67.9573 178.935 79.0573 179.7 92.7073L180.113 100.155Z" fill="#FF9640"/>
</svg>
