<svg width="508" height="426" viewBox="0 0 508 426" fill="none" xmlns="http://www.w3.org/2000/svg">
<path d="M490.946 403.981C490.946 403.981 473.761 430.062 381.726 418.877C381.726 418.877 358.182 416.804 326.508 409.573C326.508 409.573 267.156 396.992 208.302 409.096C208.302 409.096 79.4918 447.53 50.8528 407.022C50.8528 407.022 40.5598 390.072 28.2346 383.097C27.2507 382.554 26.2376 382.064 25.1999 381.632C22.3039 380.376 19.5275 378.861 16.9048 377.104C10.4537 372.745 5.55059 366.452 2.89976 359.131C1.88328 356.377 1.18743 353.515 0.825969 350.601C-1.24782 333.644 -1.24783 299.344 23.5547 264.836C31.6413 254.16 40.6484 244.214 50.4726 235.112C55.7222 230.351 60.577 225.173 64.9891 219.627C74.8742 207.143 89.7156 185.907 91.0636 169.614C91.1189 168.868 91.1258 168.135 91.1189 167.395C91.0567 155.125 92.059 39.8503 152.123 49.5487C152.123 49.5487 173.269 52.8046 189.403 57.9683C189.403 57.9683 231.017 73.4526 267.785 38.2949C267.785 38.2949 327.787 -20.0962 357.138 7.32629C357.138 7.32629 370.493 15.5247 382.328 32.0183C392.227 46.0066 398.006 62.4904 399.008 79.598C400.183 97.6953 406.322 138.155 437.276 156.266C437.276 156.266 486.183 170.548 472.213 246.061C472.213 246.061 462.432 290.834 492.709 321.575C492.709 321.575 504.599 338.642 507.336 359.159C509.431 373.98 506.61 390.667 490.946 403.981Z" fill="#F27900"/>
<path opacity="0.7" d="M490.946 403.981C490.946 403.981 473.761 430.062 381.726 418.877C381.726 418.877 358.182 416.804 326.508 409.573C326.508 409.573 267.156 396.992 208.302 409.096C208.302 409.096 79.4918 447.53 50.8528 407.022C50.8528 407.022 40.5598 390.072 28.2346 383.097C27.2507 382.554 26.2376 382.064 25.1999 381.632C22.3039 380.376 19.5275 378.861 16.9048 377.104C10.4537 372.745 5.55059 366.452 2.89976 359.131C1.88328 356.377 1.18743 353.515 0.825969 350.601C-1.24782 333.644 -1.24783 299.344 23.5547 264.836C31.6413 254.16 40.6484 244.214 50.4726 235.112C55.7222 230.351 60.577 225.173 64.9891 219.627C74.8742 207.143 89.7156 185.907 91.0636 169.614C91.1189 168.868 91.1258 168.135 91.1189 167.395C91.0567 155.125 92.059 39.8503 152.123 49.5487C152.123 49.5487 173.269 52.8046 189.403 57.9683C189.403 57.9683 231.017 73.4526 267.785 38.2949C267.785 38.2949 327.787 -20.0962 357.138 7.32629C357.138 7.32629 370.493 15.5247 382.328 32.0183C392.227 46.0066 398.006 62.4904 399.008 79.598C400.183 97.6953 406.322 138.155 437.276 156.266C437.276 156.266 486.183 170.548 472.213 246.061C472.213 246.061 462.432 290.834 492.709 321.575C492.709 321.575 504.599 338.642 507.336 359.159C509.431 373.98 506.61 390.667 490.946 403.981Z" fill="white"/>
<path opacity="0.2" d="M490.946 403.981C490.946 403.981 473.761 430.062 381.726 418.877C381.726 418.877 358.182 416.804 326.508 409.573C326.508 409.573 267.156 396.992 208.302 409.096C208.302 409.096 79.4915 447.53 50.8524 407.022C50.8524 407.022 40.5595 390.072 28.2342 383.097C27.2504 382.554 26.2373 382.064 25.1996 381.632C22.3035 380.376 19.5271 378.861 16.9044 377.104C10.4534 372.745 5.55024 366.452 2.89941 359.131H507.439C509.43 373.98 506.61 390.667 490.946 403.981Z" fill="black"/>
<path d="M322.132 396.522C359.454 396.522 389.71 391.384 389.71 385.047C389.71 378.709 359.454 373.572 322.132 373.572C284.81 373.572 254.554 378.709 254.554 385.047C254.554 391.384 284.81 396.522 322.132 396.522Z" fill="#BCBEC0"/>
<path d="M321.566 393.031C354.799 393.031 381.74 389.435 381.74 384.998C381.74 380.562 354.799 376.966 321.566 376.966C288.332 376.966 261.391 380.562 261.391 384.998C261.391 389.435 288.332 393.031 321.566 393.031Z" fill="#D1D3D4"/>
<path d="M131.82 360.507V364.986L132.622 373.461L142.072 370.855L142.722 362C142.722 362 133.5 360.873 131.82 360.507Z" fill="#F9B499"/>
<path d="M178.681 360.148L180.533 372.646L188.524 375.189L192.008 373.461L190.64 359.117L178.681 360.148Z" fill="#F9B499"/>
<path d="M140.061 213.503C133.001 210.123 126.248 206.138 119.876 201.592C112.023 192.682 128.606 159.494 128.606 159.494C134.551 145.669 157.204 142.676 157.204 142.676H165.817C169.488 141.597 179.96 143.948 179.96 143.948C197.436 141.328 210.57 172.773 210.57 172.773L228.038 159.847L233.45 165.259C230.485 172.594 215.643 188.493 215.643 188.493C204.404 195.136 193.005 180.93 192.431 180.198L142.66 186.937L141.436 181.525C140.745 184.49 135.319 192.703 135.319 192.703L141.637 197.638" fill="black"/>
<path d="M144.671 146.098C144.671 146.098 156.188 166.296 142.597 186.917L139.106 223.775L134.212 288.754L126.871 359.318C126.871 359.318 140.496 363.341 152.724 361.765C152.724 361.765 165.644 266.917 166.169 256.962C166.169 256.962 169.488 352.682 170.365 361.419C170.365 361.419 188.179 364.558 197.263 360.541L195.189 268.666L192.914 208.754L192.396 180.17C192.396 180.17 187.156 151.828 179.995 143.948L175.619 143.111L178.246 156.003C178.246 156.003 177.72 168.577 166.017 167.879C166.017 167.879 158.683 169.628 154.84 158.45L149.102 144.563L144.671 146.098Z" fill="#F27900"/>
<path opacity="0.2" d="M141.367 181.504L142.591 186.917C142.591 186.917 150.388 177.301 149.109 162.114C149.109 162.114 145.383 176.79 141.367 181.504Z" fill="black"/>
<path opacity="0.2" d="M214.267 188.811C214.308 188.802 214.352 188.809 214.388 188.83C214.425 188.85 214.453 188.884 214.467 188.924C214.48 188.964 214.479 189.008 214.462 189.047C214.446 189.086 214.416 189.117 214.378 189.136C203.553 194.12 192.949 180.91 192.396 180.205C192.396 180.205 193.398 162.052 192.458 159.653C194.967 164.889 196.568 170.513 197.193 176.285C197.262 177.032 197.473 177.76 197.815 178.428C199.46 181.58 205.039 190.539 214.267 188.811Z" fill="black"/>
<path d="M139.922 215.044C142.155 215.162 144.381 215.279 146.606 215.342C148.832 215.404 151.058 215.507 153.291 215.542C157.743 215.618 162.194 215.666 166.639 215.48C171.084 215.293 175.536 215.113 179.946 214.574C180.499 214.512 181.059 214.464 181.605 214.388L183.25 214.132C184.349 213.952 185.462 213.828 186.541 213.565C187.619 213.302 188.725 213.143 189.804 212.874L193.018 211.961C188.83 213.552 184.471 214.647 180.029 215.224C175.599 215.836 171.138 216.202 166.667 216.323C162.201 216.434 157.729 216.406 153.27 216.192C148.812 215.977 144.353 215.625 139.922 215.044Z" fill="white"/>
<path d="M139.584 218.68C141.838 218.881 144.091 219.088 146.351 219.233C148.612 219.378 150.859 219.558 153.119 219.676C157.633 219.911 162.154 220.111 166.668 220.077C171.181 220.125 175.694 219.911 180.182 219.434C182.422 219.206 184.646 218.834 186.839 218.321C189.047 217.84 191.178 217.056 193.171 215.991C191.246 217.203 189.148 218.117 186.949 218.701C184.755 219.313 182.522 219.775 180.265 220.084C175.758 220.656 171.218 220.935 166.675 220.92C162.133 220.885 157.598 220.699 153.084 220.326C148.57 219.952 144.05 219.42 139.584 218.68Z" fill="white"/>
<path d="M130.147 360.148L131.765 342.513L133.445 324.886L136.901 289.632L140.516 254.377L142.348 236.771C142.97 230.902 143.627 225.019 144.146 219.157C143.337 230.909 142.224 242.66 141.139 254.412L137.682 289.666L134.025 324.886L132.118 342.486L130.147 360.148Z" fill="white"/>
<path d="M194.394 361.516L193.599 343.543L192.894 325.564L191.608 289.604L190.509 253.638L190.025 235.651L189.631 217.664L190.426 235.637L191.131 253.617L192.417 289.576L193.516 325.543L194 343.53L194.394 361.516Z" fill="white"/>
<path opacity="0.2" d="M166.17 256.963L165.326 246.02L170.856 248.225C170.856 248.225 173.22 285.553 168.174 312.478L166.17 256.963Z" fill="black"/>
<path d="M389.711 47.6891H236.589V361.523H389.711V47.6891Z" fill="black"/>
<path d="M381.873 56H247V354.274H381.873V56Z" fill="white"/>
<path d="M409.84 47.6892L345.939 21.2276L342.628 385.102L409.84 361.516V47.6892Z" fill="#F27900"/>
<path opacity="0.2" d="M350.454 32.6819L349.755 105.873L406.349 119.671V54.5189L350.454 32.6819Z" fill="white"/>
<path opacity="0.2" d="M349.756 117.223L348.532 192.336L406.868 195.481V129.279L349.756 117.223Z" fill="white"/>
<path opacity="0.2" d="M348.532 203.168L348.006 280.721L406.169 273.733L406.867 205.781L348.532 203.168Z" fill="white"/>
<path opacity="0.2" d="M348.006 292.77L406.867 282.989V352.509L348.006 372.245V292.77Z" fill="white"/>
<path d="M358.224 179.582H357.111C355.393 179.582 354 180.975 354 182.693V216.123C354 217.841 355.393 219.233 357.111 219.233H358.224C359.942 219.233 361.334 217.841 361.334 216.123V182.693C361.334 180.975 359.942 179.582 358.224 179.582Z" fill="black"/>
<path opacity="0.4" d="M358.224 179.582H357.111C355.393 179.582 354 180.975 354 182.693V216.123C354 217.841 355.393 219.233 357.111 219.233H358.224C359.942 219.233 361.334 217.841 361.334 216.123V182.693C361.334 180.975 359.942 179.582 358.224 179.582Z" fill="black"/>
<path d="M129.076 121.053C129.076 121.053 118.748 123.701 111.338 116.816C105.808 111.652 113.543 105.997 117.774 103.488C121.385 101.392 124.685 98.8 127.576 95.7874C133.929 89.0614 140.904 77.6831 132.781 64.9224C132.781 64.9224 121.659 40.0369 85.3881 45.567C85.3881 45.567 45.6749 50.3367 55.7398 90.0499C55.7398 90.0499 63.4128 112.226 93.3307 121.523C93.3307 121.551 114.483 127.668 129.076 121.053Z" fill="#F27900"/>
<path d="M117.733 67.2935L116.129 64.9432C116.444 64.6951 116.706 64.3856 116.898 64.0335C117.09 63.6813 117.209 63.2938 117.247 62.8945C117.285 62.4951 117.242 62.0921 117.12 61.71C116.998 61.3278 116.799 60.9744 116.537 60.6712L115.935 59.9799C115.443 59.4104 114.753 59.0493 114.005 58.9698C113.257 58.8902 112.506 59.0981 111.905 59.5513L89.8401 76.2177C86.6948 78.9828 82.3191 78.3468 82.3191 78.3468C81.7579 78.2446 81.189 78.1914 80.6186 78.1878C78.6277 78.1864 76.6811 78.7756 75.025 79.8807C73.3689 80.9858 72.0778 82.5572 71.315 84.3962C70.5522 86.2352 70.3519 88.2591 70.7394 90.2119C71.127 92.1647 72.085 93.9588 73.4923 95.3671C74.8997 96.7753 76.693 97.7346 78.6456 98.1235C80.5982 98.5124 82.6222 98.3135 84.4617 97.5519C86.3012 96.7904 87.8735 95.5003 88.9798 93.845C90.086 92.1897 90.6765 90.2435 90.6765 88.2526C90.6765 87.9485 90.6765 87.6581 90.635 87.3678H90.6765V87.3125C90.7029 86.5385 90.8985 85.7797 91.2496 85.0894C91.6007 84.3991 92.0988 83.7941 92.7088 83.317L106.603 72.4365L108.359 74.5725C108.632 74.8864 109.015 75.0845 109.429 75.1266C109.843 75.1687 110.258 75.0515 110.589 74.799C110.92 74.5464 111.142 74.1774 111.21 73.7668C111.279 73.3563 111.189 72.935 110.958 72.5886L109.486 70.5148L113.682 66.7266L115.279 68.9732C115.516 69.2601 115.852 69.4479 116.221 69.4997C116.59 69.5515 116.965 69.4636 117.272 69.2532C117.579 69.0428 117.797 68.7252 117.882 68.3626C117.967 68 117.914 67.6187 117.733 67.2935ZM77.8466 94.5708C77.0072 94.5708 76.1866 94.3218 75.4886 93.8555C74.7906 93.3891 74.2466 92.7262 73.9253 91.9506C73.6041 91.1751 73.5201 90.3217 73.6838 89.4984C73.8476 88.675 74.2518 87.9188 74.8454 87.3252C75.439 86.7316 76.1953 86.3274 77.0186 86.1636C77.8419 85.9998 78.6953 86.0839 79.4709 86.4051C80.2464 86.7264 80.9093 87.2704 81.3757 87.9684C81.8421 88.6663 82.091 89.4869 82.091 90.3264C82.091 91.4521 81.6438 92.5316 80.8478 93.3276C80.0519 94.1236 78.9723 94.5708 77.8466 94.5708V94.5708Z" fill="white"/>
<path d="M175.593 221.542H177.618V219.192C177.619 218.242 177.433 217.301 177.07 216.423C176.707 215.545 176.174 214.747 175.503 214.075C174.831 213.402 174.034 212.869 173.156 212.505C172.278 212.142 171.338 211.954 170.388 211.954H158.961C157.023 211.954 155.165 212.724 153.794 214.094C152.424 215.465 151.654 217.323 151.654 219.261V221.542H153.825C153.825 220.576 154.016 219.62 154.388 218.728C154.76 217.837 155.305 217.028 155.992 216.348C156.678 215.669 157.493 215.132 158.388 214.77C159.283 214.407 160.242 214.225 161.208 214.235L168.438 214.305C170.343 214.326 172.163 215.099 173.502 216.454C174.842 217.808 175.593 219.637 175.593 221.542V221.542Z" fill="black"/>
<path d="M151.654 216.171L155.491 217.332C156.098 217.51 156.621 217.9 156.963 218.431C157.71 219.641 159.611 221.66 163.42 219.814C164.189 219.432 164.889 218.925 165.493 218.314C166.8 217.007 168.521 214.809 164.512 215.355C163.766 215.328 163.03 215.186 162.327 214.934C162.067 214.827 161.852 214.634 161.719 214.387C161.586 214.139 161.544 213.853 161.598 213.578C161.653 213.302 161.802 213.055 162.02 212.877C162.237 212.699 162.51 212.603 162.791 212.604H165.334C165.4 212.605 165.465 212.587 165.521 212.552C165.577 212.517 165.622 212.467 165.651 212.407C165.679 212.347 165.69 212.281 165.681 212.215C165.673 212.15 165.646 212.088 165.604 212.037C164.913 211.166 162.998 209.715 158.228 211.173L155.878 209.507C154.941 211.994 153.503 214.262 151.654 216.171V216.171Z" fill="#F9B499"/>
<path d="M141.263 197.376L155.78 208.726C155.857 208.784 155.915 208.864 155.947 208.955C155.979 209.046 155.983 209.144 155.96 209.238C154.791 213.648 151.086 216.766 150.146 217.533C150.08 217.583 150.003 217.617 149.921 217.63C149.839 217.643 149.755 217.636 149.676 217.609C146.413 216.413 142.722 214.802 139.791 213.413" fill="black"/>
<path d="M166.162 217.602C165.772 217.75 165.362 217.839 164.946 217.865C164.533 217.896 164.118 217.882 163.708 217.823C163.291 217.762 162.886 217.638 162.506 217.457C162.106 217.284 161.774 216.985 161.559 216.607C161.92 216.759 162.298 216.871 162.685 216.938C163.059 217.014 163.432 217.083 163.819 217.132C164.61 217.236 165.393 217.393 166.162 217.602V217.602Z" fill="#F7A48B"/>
<path d="M164.006 219.503C163.72 219.633 163.408 219.694 163.094 219.683C162.791 219.678 162.491 219.632 162.202 219.544C161.606 219.372 161.088 218.998 160.736 218.487C161.03 218.521 161.321 218.577 161.607 218.653C161.884 218.722 162.14 218.805 162.409 218.881C162.956 219.048 163.49 219.256 164.006 219.503V219.503Z" fill="#F7A48B"/>
<path d="M187.758 225.593L187.378 232.637L187.254 234.842L186.238 253.617C186.201 254.261 185.922 254.867 185.456 255.313C184.991 255.76 184.373 256.013 183.728 256.022L146.324 256.41H146.213C145.586 256.419 144.979 256.192 144.512 255.772C144.046 255.353 143.755 254.774 143.697 254.149L141.444 231.33L141.098 227.757C141.02 226.97 141.107 226.175 141.355 225.424C141.602 224.673 142.005 223.983 142.535 223.397C143.066 222.81 143.714 222.342 144.436 222.021C145.159 221.701 145.941 221.535 146.732 221.535H183.887C184.412 221.534 184.932 221.639 185.414 221.845C185.897 222.05 186.333 222.352 186.695 222.732C187.057 223.112 187.338 223.561 187.521 224.053C187.704 224.545 187.785 225.069 187.758 225.593V225.593Z" fill="#F27900"/>
<path opacity="0.2" d="M187.758 225.593L187.378 232.637L187.254 234.842L186.238 253.617C186.201 254.261 185.922 254.867 185.456 255.313C184.991 255.76 184.373 256.013 183.728 256.022L146.324 256.41H146.213C145.586 256.419 144.979 256.192 144.512 255.772C144.046 255.353 143.755 254.774 143.697 254.149L141.444 231.33L141.098 227.757C141.02 226.97 141.107 226.175 141.355 225.424C141.602 224.673 142.005 223.983 142.535 223.397C143.066 222.81 143.714 222.342 144.436 222.021C145.159 221.701 145.941 221.535 146.732 221.535H183.887C184.412 221.534 184.932 221.639 185.414 221.845C185.897 222.05 186.333 222.352 186.695 222.732C187.057 223.112 187.338 223.561 187.521 224.053C187.704 224.545 187.785 225.069 187.758 225.593V225.593Z" fill="white"/>
<path opacity="0.2" d="M187.37 231.33V234.87H149.897C148.579 234.847 147.298 235.301 146.288 236.148C145.12 237.185 144.076 238.997 144.567 242.142L146.316 256.437H146.205C145.578 256.447 144.971 256.219 144.504 255.8C144.037 255.381 143.746 254.801 143.689 254.177L141.442 231.33H187.37Z" fill="white"/>
<path d="M165.325 237.407C167.123 237.407 168.581 235.506 168.581 233.162C168.581 230.818 167.123 228.918 165.325 228.918C163.527 228.918 162.069 230.818 162.069 233.162C162.069 235.506 163.527 237.407 165.325 237.407Z" fill="white"/>
<path d="M165.327 234.448C165.739 234.448 166.073 233.872 166.073 233.162C166.073 232.452 165.739 231.877 165.327 231.877C164.914 231.877 164.58 232.452 164.58 233.162C164.58 233.872 164.914 234.448 165.327 234.448Z" fill="#F27900"/>
<path d="M133.763 366.984C133.763 366.984 132.07 362.954 130.148 366.984C130.148 366.984 127.736 373.136 128.219 377.208L151.854 381.936C151.854 381.936 159.513 382.586 156.907 376.558C154.417 374.091 151.234 372.441 147.782 371.83C146.664 371.412 145.648 370.759 144.803 369.916C143.958 369.074 143.302 368.06 142.881 366.943C142.844 366.848 142.78 366.767 142.696 366.709C142.612 366.652 142.513 366.622 142.411 366.622C142.31 366.622 142.21 366.652 142.126 366.709C142.043 366.767 141.978 366.848 141.941 366.943C140.994 369.245 138.678 372.417 133.763 366.984Z" fill="black"/>
<path d="M182.532 370.758C182.532 370.758 179.981 367.212 179.006 371.574C179.006 371.574 178.038 378.107 179.435 381.943L203.518 381.252C203.518 381.252 211.122 380.167 207.238 374.878C204.253 373.037 200.779 372.145 197.276 372.321C196.094 372.166 194.958 371.76 193.945 371.129C192.933 370.498 192.068 369.657 191.408 368.664C191.351 368.579 191.27 368.513 191.175 368.475C191.08 368.437 190.976 368.429 190.877 368.451C190.777 368.474 190.686 368.526 190.617 368.601C190.548 368.676 190.503 368.77 190.488 368.871C190.087 371.325 188.511 374.941 182.532 370.758Z" fill="black"/>
<path d="M245.195 170.617C245.055 170.252 244.841 169.919 244.568 169.64C244.294 169.36 243.967 169.139 243.605 168.991C243.243 168.843 242.854 168.77 242.463 168.777C242.072 168.785 241.687 168.872 241.331 169.034L236.838 171.059C236.652 171.148 236.44 171.166 236.241 171.11C236.043 171.054 235.872 170.928 235.759 170.755L229.586 161.402L234.066 158.278C234.638 157.882 235.035 157.281 235.174 156.599C235.313 155.918 235.184 155.209 234.812 154.621C234.441 154.033 233.857 153.611 233.182 153.444C232.507 153.276 231.793 153.376 231.19 153.722L226.801 156.225L209.865 129.957C204.48 123.583 206.747 115.157 206.747 115.157C208.296 111.398 208.665 107.257 207.805 103.283C206.946 99.3092 204.899 95.6907 201.935 92.9075C198.972 90.1243 195.232 88.308 191.212 87.6995C187.192 87.091 183.083 87.7191 179.428 89.5005C175.774 91.2818 172.747 94.1322 170.75 97.6735C168.753 101.215 167.88 105.28 168.247 109.329C168.613 113.378 170.203 117.219 172.803 120.344C175.404 123.469 178.893 125.729 182.809 126.825C192.604 129.473 194.767 133.309 194.767 133.309L227.381 183.543C228.237 184.892 229.514 185.92 231.014 186.467C232.514 187.015 234.153 187.051 235.676 186.571C236.142 186.433 236.583 186.223 236.983 185.949C238.115 185.276 239.033 184.296 239.63 183.122C240.965 180.453 240.273 177.46 240.038 176.624C240.017 176.555 240.021 176.48 240.048 176.413C240.076 176.346 240.126 176.291 240.19 176.257L243.93 174.184C244.537 173.843 244.999 173.294 245.232 172.638C245.465 171.982 245.452 171.264 245.195 170.617V170.617ZM183.527 111.403C181.701 111.404 179.914 110.864 178.395 109.85C176.875 108.836 175.69 107.394 174.99 105.707C174.29 104.019 174.106 102.162 174.462 100.37C174.817 98.5783 175.696 96.9321 176.988 95.6399C178.279 94.3476 179.925 93.4673 181.716 93.1104C183.508 92.7535 185.365 92.936 187.053 93.6348C188.741 94.3336 190.184 95.5173 191.199 97.0362C192.214 98.5551 192.756 100.341 192.756 102.168C192.756 104.616 191.784 106.964 190.053 108.696C188.323 110.427 185.976 111.401 183.527 111.403V111.403Z" fill="#F27900"/>
<path opacity="0.2" d="M239.602 183.087C239.005 184.261 238.087 185.241 236.955 185.914C236.554 186.189 236.113 186.399 235.648 186.537C234.125 187.017 232.486 186.98 230.986 186.433C229.486 185.885 228.209 184.857 227.353 183.509L194.739 133.275C194.739 133.275 192.575 129.438 182.78 126.791C180.099 126.049 177.601 124.756 175.446 122.996C173.291 121.236 171.526 119.047 170.263 116.568C169.001 114.089 168.268 111.374 168.112 108.596C167.955 105.818 168.379 103.038 169.356 100.433C169.356 100.433 167.282 123.784 185.006 124.737C185.006 124.737 190.806 124.198 196.44 132.984L226.973 179.99C228.258 181.988 230.253 183.425 232.555 184.011C234.858 184.597 237.297 184.289 239.381 183.149L239.581 183.032L239.602 183.087Z" fill="black"/>
<path d="M226.773 156.225C226.773 156.225 222.929 154.441 221.153 151.745C220.76 151.132 220.536 150.427 220.502 149.7C220.468 148.973 220.626 148.25 220.961 147.604C221.295 146.957 221.793 146.41 222.406 146.017C223.018 145.624 223.723 145.399 224.45 145.365C226.504 145.255 228.535 145.834 230.222 147.01C230.222 147.01 233.678 149.409 233.416 153.536C233.416 153.536 232.393 153.017 230.354 154.185L226.773 156.225Z" fill="#F9B499"/>
<path d="M338.564 21.2276H345.94L342.628 385.102H335.405L338.564 21.2276Z" fill="#F27900"/>
<path opacity="0.4" d="M338.564 21.2276H345.94L342.628 385.102H335.405L338.564 21.2276Z" fill="black"/>
<path d="M359.917 179.582H358.804C357.086 179.582 355.693 180.975 355.693 182.693V216.123C355.693 217.841 357.086 219.233 358.804 219.233H359.917C361.635 219.233 363.028 217.841 363.028 216.123V182.693C363.028 180.975 361.635 179.582 359.917 179.582Z" fill="black"/>
<path opacity="0.4" d="M359.537 206.604C361.049 206.604 362.274 203.057 362.274 198.682C362.274 194.307 361.049 190.76 359.537 190.76C358.025 190.76 356.799 194.307 356.799 198.682C356.799 203.057 358.025 206.604 359.537 206.604Z" fill="black"/>
<path d="M158.034 134.049L157.225 142.683C157.129 143.544 157.378 144.409 157.917 145.088C159.175 146.609 161.712 149.001 164.643 148.026C165.332 147.83 165.95 147.44 166.425 146.904C166.901 146.367 167.213 145.706 167.325 144.998V135.798L158.034 134.049Z" fill="#F9B499"/>
<path d="M161.745 147.618C161.745 147.618 156.623 142.544 159.886 141.155C159.886 141.155 166.052 138.943 167.338 135.798L158.033 134.049L157.225 142.683C157.225 142.683 157.19 145.814 161.745 147.618Z" fill="#F7A48B"/>
<path d="M163.258 138.079C169.351 138.079 174.291 132.106 174.291 124.738C174.291 117.369 169.351 111.396 163.258 111.396C157.165 111.396 152.226 117.369 152.226 124.738C152.226 132.106 157.165 138.079 163.258 138.079Z" fill="#F9B499"/>
<path d="M167.455 117.064C162.789 119.574 159.533 117.88 159.533 117.88C154.756 116.601 154.293 118.813 154.293 118.813C155.226 123.583 153.139 124.026 153.139 124.026L148.666 124.717C148.666 124.717 141.982 117.666 148.666 114.832C148.666 114.832 148.376 106.765 157.535 108.071C157.535 108.071 162.547 102.334 168.872 107.926C168.872 107.926 180.879 108.458 173.932 121.323C173.932 121.343 171.996 114.604 167.455 117.064Z" fill="black"/>
<path d="M153.122 129.007C154.375 128.283 154.634 126.386 153.701 124.769C152.767 123.153 150.995 122.428 149.742 123.152C148.488 123.875 148.229 125.773 149.163 127.389C150.096 129.006 151.869 129.73 153.122 129.007Z" fill="#F9B499"/>
</svg>
