<svg width="1440" height="506" viewBox="0 0 1440 506" fill="none" xmlns="http://www.w3.org/2000/svg">
<path d="M-0.5 0H1440V499.836C1440 499.836 1361.55 496.5 1289.6 475C1217.65 453.5 1150.7 481.46 1063.76 491C976.822 500.54 896.877 480.08 758.973 456.697C621.069 433.314 510.646 474.234 340.764 500.54C170.882 526.846 -0.5 428.5 -0.5 428.5V0Z" fill="url(#paint0_linear_1527_32)"/>
<path opacity="0.3" d="M1006.11 405.677C1006.11 405.677 1006.28 392.367 1022.21 394.167C1024.98 394.239 1027.69 394.921 1030.17 396.163C1032.64 397.406 1034.81 399.18 1036.52 401.357C1036.52 401.357 1047.52 390.207 1056.67 405.677C1058.06 404.922 1059.66 404.679 1061.21 404.992C1062.76 405.304 1064.15 406.153 1065.13 407.387C1065.13 407.387 1067.64 411.977 1062.97 414.677C1062.97 414.677 1059.97 428.677 1044.84 419.677C1044.84 419.677 1042.36 428.747 1024.31 429.237C1020.68 429.336 1017.09 428.46 1013.92 426.702C1010.74 424.943 1008.09 422.366 1006.25 419.237L1006.11 418.987C1006.11 418.987 995.59 419.767 997.16 411.637C997.16 411.647 997.65 407.117 1006.11 405.677Z" fill="white"/>
<path d="M1064.39 168.035C1063.62 172.455 1059.89 177.775 1046.39 177.775C1046.39 177.775 1050.83 188.325 1039.21 189.555C1039.21 189.555 1025.75 191.995 1019.21 178.845C1019.21 178.845 1007.13 190.165 993.825 181.605C990.844 180.167 988.307 177.948 986.485 175.185C986.485 175.185 967.685 194.185 958.485 180.685C958.485 180.685 945.955 191.235 940.295 179.155C940.295 179.155 935.915 177.905 936.675 174.255C936.761 173.836 936.898 173.429 937.085 173.045C936.345 172.419 935.784 171.608 935.46 170.694C935.137 169.78 935.063 168.797 935.245 167.845C935.439 166.879 935.852 165.97 936.452 165.188C937.052 164.406 937.822 163.772 938.705 163.335C940.697 162.225 942.957 161.687 945.235 161.78C947.513 161.874 949.721 162.595 951.615 163.865C951.615 163.865 958.335 136.505 983.255 136.355C983.255 136.355 996.865 134.675 1008.79 147.815C1008.79 147.815 1015.67 139.255 1028.67 142.305C1028.67 142.305 1040.29 145.525 1042.12 158.215C1042.12 158.215 1052.32 151.985 1059.94 157.525C1060.19 157.705 1060.44 157.895 1060.68 158.105C1062.04 159.237 1063.09 160.69 1063.75 162.333C1064.41 163.975 1064.65 165.756 1064.46 167.515C1064.45 167.685 1064.42 167.865 1064.39 168.035Z" fill="#0071F2"/>
<path opacity="0.3" d="M1064.39 168.035C1063.62 172.455 1059.89 177.775 1046.39 177.775C1046.39 177.775 1050.83 188.325 1039.21 189.555C1039.21 189.555 1025.75 191.995 1019.21 178.845C1019.21 178.845 1007.13 190.165 993.825 181.605C990.844 180.167 988.307 177.948 986.485 175.185C986.485 175.185 967.685 194.185 958.485 180.685C958.485 180.685 945.955 191.235 940.295 179.155C940.295 179.155 935.915 177.905 936.675 174.255C936.761 173.836 936.898 173.429 937.085 173.045C936.345 172.419 935.784 171.608 935.46 170.694C935.137 169.78 935.063 168.797 935.245 167.845C935.439 166.879 935.852 165.97 936.452 165.188C937.052 164.406 937.822 163.772 938.705 163.335C940.697 162.225 942.957 161.687 945.235 161.78C947.513 161.874 949.721 162.595 951.615 163.865C951.615 163.865 958.335 136.505 983.255 136.355C983.255 136.355 996.865 134.675 1008.79 147.815C1008.79 147.815 1015.67 139.255 1028.67 142.305C1028.67 142.305 1040.29 145.525 1042.12 158.215C1042.12 158.215 1052.32 151.985 1059.94 157.525C1060.19 157.705 1060.44 157.895 1060.68 158.105C1062.04 159.237 1063.09 160.69 1063.75 162.333C1064.41 163.975 1064.65 165.756 1064.46 167.515C1064.45 167.685 1064.42 167.865 1064.39 168.035Z" fill="white"/>
<path d="M1058.65 182.965C1067.19 195.785 1047.58 199.665 1047.58 199.665C1026.99 203.355 1020.2 189.735 1020.2 189.735C999.025 201.545 986.985 185.295 986.985 185.295C975.725 207.435 953.985 195.585 953.985 195.585C948.835 202.675 943.295 203.355 939.055 202.265C936.447 201.545 934.082 200.134 932.211 198.18C930.339 196.226 929.031 193.802 928.425 191.165C925.735 180.165 936.685 174.255 936.685 174.255C935.925 177.905 940.305 179.155 940.305 179.155C945.965 191.235 958.495 180.685 958.495 180.685C967.675 194.135 986.495 175.185 986.495 175.185C988.317 177.948 990.854 180.167 993.835 181.605C1007.14 190.165 1019.22 178.845 1019.22 178.845C1025.79 191.995 1039.22 189.555 1039.22 189.555C1050.84 188.325 1046.4 177.775 1046.4 177.775C1059.88 177.775 1063.61 172.455 1064.4 168.035C1070.92 177.755 1058.65 182.965 1058.65 182.965Z" fill="#0071F2"/>
<path opacity="0.4" d="M1058.65 182.965C1067.19 195.785 1047.58 199.665 1047.58 199.665C1026.99 203.355 1020.2 189.735 1020.2 189.735C999.025 201.545 986.985 185.295 986.985 185.295C975.725 207.435 953.985 195.585 953.985 195.585C948.835 202.675 943.295 203.355 939.055 202.265C936.447 201.545 934.082 200.134 932.211 198.18C930.339 196.226 929.031 193.802 928.425 191.165C925.735 180.165 936.685 174.255 936.685 174.255C935.925 177.905 940.305 179.155 940.305 179.155C945.965 191.235 958.495 180.685 958.495 180.685C967.675 194.135 986.495 175.185 986.495 175.185C988.317 177.948 990.854 180.167 993.835 181.605C1007.14 190.165 1019.22 178.845 1019.22 178.845C1025.79 191.995 1039.22 189.555 1039.22 189.555C1050.84 188.325 1046.4 177.775 1046.4 177.775C1059.88 177.775 1063.61 172.455 1064.4 168.035C1070.92 177.755 1058.65 182.965 1058.65 182.965Z" fill="white"/>
<path d="M1059.95 157.525C1052.33 151.985 1042.13 158.215 1042.13 158.215C1040.3 145.525 1028.68 142.305 1028.68 142.305C1015.68 139.305 1008.8 147.815 1008.8 147.815C996.875 134.675 983.265 136.355 983.265 136.355C958.345 136.505 951.625 163.865 951.625 163.865C949.731 162.595 947.523 161.874 945.245 161.78C942.967 161.687 940.707 162.225 938.715 163.335C937.832 163.772 937.062 164.406 936.462 165.188C935.862 165.97 935.449 166.879 935.255 167.845C935.255 167.845 932.025 160.445 945.615 158.495C945.615 158.495 946.405 134.415 968.735 129.175C968.735 129.175 985.435 124.175 1004.08 134.805C1004.84 135.205 1005.71 135.359 1006.57 135.245C1007.32 135.177 1008.05 134.961 1008.72 134.609C1009.39 134.257 1009.98 133.777 1010.47 133.195C1012.4 130.925 1018.11 126.015 1029.26 129.875C1032.97 131.169 1036.33 133.296 1039.1 136.094C1041.86 138.892 1043.94 142.286 1045.19 146.015C1045.21 146.1 1045.23 146.183 1045.27 146.265C1045.27 146.265 1058.93 146.455 1059.95 157.525Z" fill="white"/>
<path d="M1410.77 423.908C1434.27 415.983 1440 388 1440 388V371.5L1436.71 366C1436.71 366 1433.12 382.143 1417.83 376.154C1417.83 376.154 1427.63 400.293 1408.98 406C1408.98 406 1392.85 412.534 1381.92 389.676C1381.92 389.676 1370.09 419.068 1352.35 395.655C1352.35 395.655 1352.23 426.963 1327.61 418.433C1327.61 418.433 1314.59 413.17 1311.84 393.759C1311.84 393.759 1307.66 412.988 1293.56 406.454C1293.56 406.454 1280.9 403.913 1279.46 375.246C1279.46 375.246 1267.2 379.249 1258.46 370.618C1252.1 385.017 1256.46 393.759 1256.46 393.759C1267.4 419.875 1288.46 408.108 1288.46 408.108C1296.31 430.644 1313.07 435.685 1313.07 435.685C1352.07 446.938 1370.45 413.502 1370.45 413.502C1375.36 419.114 1381.83 423.108 1389.02 424.964C1396.21 426.819 1403.79 426.452 1410.77 423.908Z" fill="#66AAF7"/>
<path d="M1417.54 376.193C1432.83 382.123 1436.42 366.123 1436.42 366.123L1440 360.5L1439.5 332C1439.62 325.16 1439.5 320.5 1439.5 320.5C1436.95 321.978 1431.36 324.717 1429.65 327.115C1427.94 329.514 1426.76 332.251 1426.19 335.143C1404.96 312.983 1392.29 339.073 1392.29 339.073C1395.44 322.053 1389.68 310.283 1383.44 302.913C1377.13 295.393 1369.21 291.443 1361.13 291.043C1330.04 289.503 1314.38 330.293 1314.38 330.293C1309.25 315.893 1297.83 317.293 1297.83 317.293C1282.9 321.863 1284.06 339.073 1284.06 339.073C1273.19 332.343 1263.63 334.273 1263.63 334.273C1258.89 334.743 1255.77 336.563 1253.77 338.823C1252.7 340.03 1251.85 341.414 1251.27 342.913C1250.12 345.965 1249.78 349.259 1250.27 352.483C1251.55 361.483 1254.56 367.163 1258.17 370.703C1266.91 379.293 1279.17 375.293 1279.17 375.293C1280.61 403.723 1293.27 406.243 1293.27 406.243C1307.37 412.723 1311.55 393.653 1311.55 393.653C1314.32 412.903 1327.32 418.123 1327.32 418.123C1351.94 426.583 1352.06 395.533 1352.06 395.533C1369.8 418.753 1381.63 389.603 1381.63 389.603C1392.56 412.273 1408.69 405.793 1408.69 405.793C1427.34 400.133 1417.54 376.193 1417.54 376.193Z" fill="#177EF3"/>
<path opacity="0.3" d="M1417.49 374.193C1432.78 380.123 1439.45 364.019 1439.45 364.019V329.263C1439.57 322.423 1436.07 319.233 1436.07 319.233C1433.52 320.711 1431.31 322.717 1429.6 325.115C1427.89 327.514 1426.71 330.251 1426.14 333.143C1404.91 310.983 1392.24 337.073 1392.24 337.073C1395.39 320.053 1389.63 308.283 1383.39 300.913C1377.08 293.393 1369.16 289.443 1361.08 289.043C1329.99 287.503 1314.33 328.293 1314.33 328.293C1309.2 313.893 1297.78 315.293 1297.78 315.293C1282.85 319.863 1284.01 337.073 1284.01 337.073C1273.14 330.343 1263.58 332.273 1263.58 332.273C1258.84 332.743 1255.72 334.563 1253.72 336.823C1252.65 338.03 1251.81 339.414 1251.22 340.913C1250.07 343.965 1249.73 347.259 1250.22 350.483C1251.5 359.483 1254.51 365.163 1258.12 368.703C1266.86 377.293 1279.12 373.293 1279.12 373.293C1280.56 401.723 1293.22 404.243 1293.22 404.243C1307.32 410.723 1311.5 391.653 1311.5 391.653C1314.27 410.903 1327.27 416.123 1327.27 416.123C1351.89 424.583 1352.01 393.533 1352.01 393.533C1369.75 416.753 1381.58 387.603 1381.58 387.603C1392.51 410.273 1408.64 403.793 1408.64 403.793C1427.29 398.133 1417.49 374.193 1417.49 374.193Z" fill="#4C9CF6"/>
<path d="M1436.12 321.47C1433.57 322.956 1431.38 324.967 1429.67 327.369C1427.97 329.771 1426.8 332.509 1426.24 335.4C1405.01 313.24 1392.34 339.33 1392.34 339.33C1395.49 322.33 1389.73 310.54 1383.49 303.17C1377.13 295.65 1369.26 291.7 1361.18 291.3C1330.09 289.76 1314.43 330.55 1314.43 330.55C1309.3 316.15 1297.88 317.55 1297.88 317.55C1282.95 322.12 1284.11 339.33 1284.11 339.33C1273.24 332.6 1263.68 334.53 1263.68 334.53C1258.94 335 1255.84 336.82 1253.82 339.08C1254.02 338.67 1261.03 324.53 1273.24 326.98C1273.24 326.98 1270.24 313.17 1280.17 302.79C1285.66 297.04 1292.46 294.68 1299.08 296.13C1303.78 297.13 1309.39 300.13 1314.08 307.55C1314.08 307.55 1328.81 261.85 1374.5 274.08C1374.5 274.08 1398.2 280.92 1406.09 317.27C1406.11 317.24 1422.4 298.65 1436.12 321.47Z" fill="white"/>
<path d="M1408.99 257.574L1403.65 253.004L1414.76 241.504L1418.36 244.324L1408.99 257.574Z" fill="#965F4A"/>
<path d="M1403.65 253.004C1401.4 251.861 1399.02 251.008 1396.56 250.464C1396.56 250.464 1385.78 249.954 1386.9 244.814C1386.9 244.814 1387.07 239.144 1394.02 224.374C1394.02 224.374 1403.52 195.214 1415.39 201.734C1415.39 201.734 1421.03 204.074 1417.16 210.024C1416.68 210.734 1416.31 211.508 1416.06 212.324C1415.06 215.624 1412.84 224.254 1413.69 231.864C1413.57 233.92 1413.33 235.967 1412.97 237.994C1412.88 238.446 1412.9 238.913 1413.04 239.354C1413.17 239.794 1413.42 240.193 1413.75 240.514L1414.75 241.514L1403.65 253.004Z" fill="#AFAFAF"/>
<path opacity="0.2" d="M1403.65 253.004C1401.4 251.861 1399.02 251.008 1396.56 250.464C1396.56 250.464 1385.78 249.954 1386.9 244.814C1386.9 244.814 1387.07 239.144 1394.02 224.374C1394.02 224.374 1403.52 195.214 1415.39 201.734C1415.39 201.734 1421.03 204.074 1417.16 210.024C1416.68 210.734 1416.31 211.508 1416.06 212.324C1415.06 215.624 1412.84 224.254 1413.69 231.864C1413.57 233.92 1413.33 235.967 1412.97 237.994C1412.88 238.446 1412.9 238.913 1413.04 239.354C1413.17 239.794 1413.42 240.193 1413.75 240.514L1414.75 241.514L1403.65 253.004Z" fill="white"/>
<path d="M1388.86 248.554C1390 244.154 1391.29 239.784 1392.69 235.454C1394.09 231.124 1395.6 226.824 1397.32 222.594C1398.18 220.484 1399.15 218.404 1400.19 216.384C1401.2 214.32 1402.33 212.317 1403.57 210.384C1404.79 208.452 1406.16 206.617 1407.66 204.894C1408.42 204.044 1409.25 203.255 1410.14 202.534C1411.03 201.802 1412.05 201.236 1413.14 200.864C1411.07 201.827 1409.28 203.283 1407.91 205.104C1406.47 206.849 1405.16 208.701 1404 210.644C1402.83 212.584 1401.71 214.564 1400.72 216.644C1399.73 218.724 1398.72 220.734 1397.92 222.844C1396.16 227.024 1394.66 231.324 1393.17 235.614C1392.42 237.754 1391.7 239.914 1390.99 242.074C1390.28 244.234 1389.59 246.394 1388.86 248.554Z" fill="white"/>
<path d="M1406.09 228.494L1413.6 230.834" stroke="white" stroke-miterlimit="10"/>
<path d="M1406.87 224.564L1413.55 226.534" stroke="white" stroke-miterlimit="10"/>
<path d="M1408.19 220.524L1413.86 222.784" stroke="white" stroke-miterlimit="10"/>
<path d="M1409.38 217.044L1414.5 218.754" stroke="white" stroke-miterlimit="10"/>
<path d="M1411.29 213.764L1415.37 214.854" stroke="white" stroke-miterlimit="10"/>
<path d="M1261.14 238.674C1261.14 238.674 1260.05 231.044 1285.96 222.804C1285.96 222.804 1316.2 212.224 1344.11 210.564L1397.28 206.904L1401.6 226.164L1341.45 236.904L1309.86 250.444C1309.86 250.444 1333.78 260.444 1341.76 269.384L1318.5 316.564C1318.5 316.564 1290.28 300.904 1266.69 278.684L1207.21 291.684L1150 269.154L1154.32 249.364L1206.5 263.754L1247.7 252.434L1256.16 239.704L1261.14 238.674Z" fill="#7435DC"/>
<path d="M1239.48 249.604L1249.5 253.004L1257.9 261.244V245.084L1261.14 238.674L1246.08 231.204L1241.91 227.954L1239.48 249.604Z" fill="#965F4A"/>
<path d="M1214.66 236.504C1215.53 237.318 1216.22 238.295 1216.71 239.38C1217.2 240.464 1217.47 241.635 1217.5 242.824C1217.5 242.824 1217.34 251.224 1222.35 246.534C1222.35 246.534 1229.79 258.014 1234.96 254.614C1237.39 253.395 1239.73 251.998 1241.96 250.434L1245.22 233.154L1237.71 228.454L1235.32 218.574L1221.58 222.804L1214.66 236.504Z" fill="#965F4A"/>
<path d="M1234.17 255.014C1238.5 250.664 1241.84 245.428 1243.95 239.664L1241.95 250.434C1239.54 252.255 1236.93 253.791 1234.17 255.014V255.014Z" fill="#773522"/>
<path opacity="0.1" d="M1258.6 270.014L1261.14 279.894L1266.69 278.684L1258.6 270.014Z" fill="black"/>
<path opacity="0.1" d="M1309.89 250.444L1301.28 255.244L1323.38 256.824L1309.89 250.444Z" fill="black"/>
<path d="M1339.39 237.794C1339.39 237.794 1364.64 250.234 1369.26 256.794C1369.26 256.794 1372.78 268.224 1367.72 273.504C1367.72 273.504 1353.03 268.934 1341.79 269.354C1341.79 269.354 1336.09 261.854 1309.89 250.414L1339.39 237.794Z" fill="#58469F"/>
<path opacity="0.2" d="M1339.39 237.794C1339.39 237.794 1364.64 250.234 1369.26 256.794C1369.26 256.794 1372.78 268.224 1367.72 273.504C1367.72 273.504 1353.03 268.934 1341.79 269.354C1341.79 269.354 1336.09 261.854 1309.89 250.414L1339.39 237.794Z" fill="black"/>
<path d="M1326.54 243.304C1330.23 244.644 1333.9 246.044 1337.54 247.454L1340.29 248.514C1341.2 248.874 1342.12 249.224 1343.03 249.624C1344.84 250.42 1346.58 251.367 1348.24 252.454C1351.55 254.652 1354.41 257.466 1356.66 260.744C1357.77 262.382 1358.69 264.14 1359.41 265.984C1360.1 267.831 1360.56 269.755 1360.79 271.714C1360.11 267.851 1358.56 264.193 1356.26 261.014C1353.98 257.856 1351.15 255.144 1347.89 253.014C1346.27 251.931 1344.57 250.985 1342.8 250.184C1341.02 249.404 1339.16 248.714 1337.37 247.934C1333.76 246.394 1330.14 244.904 1326.54 243.304Z" fill="white"/>
<path d="M1318.58 316.554C1318.58 316.554 1369.76 339.834 1410.76 341.414L1439.5 343V245L1424.48 235.684L1407.86 259.214L1433.23 286.434C1433.23 286.434 1395.36 280.714 1367.77 273.534C1367.77 273.534 1351.96 268.434 1341.84 269.374L1318.58 316.554Z" fill="#2F2E41"/>
<path opacity="0.2" d="M1428 285.5C1428 285.5 1434 290.5 1440 292C1437.5 290 1439.72 292.025 1433 286.5L1428 285.5Z" fill="black"/>
<path opacity="0.2" d="M1352.15 311.49C1353.37 311.969 1391.6 329.779 1439.5 330.5L1439.5 322L1352.15 311.49Z" fill="#262534"/>
<path d="M1331.95 261.744C1331.95 261.744 1320.22 290.844 1301.28 305.854L1311.18 312.214C1311.18 312.214 1332.03 280.404 1333.86 262.974L1331.95 261.744Z" fill="#58469F"/>
<path opacity="0.2" d="M1331.95 261.744C1331.95 261.744 1320.22 290.844 1301.28 305.854L1311.18 312.214C1311.18 312.214 1332.03 280.404 1333.86 262.974L1331.95 261.744Z" fill="black"/>
<path opacity="0.2" d="M1318.53 316.564L1346.27 269.314L1341.79 269.384L1318.53 316.564Z" fill="black"/>
<path d="M1353.59 270.144C1353.59 270.144 1350.3 295.074 1343.67 304.854C1343.67 304.854 1364.67 283.214 1369.47 273.984L1376.47 275.704C1376.47 275.704 1368.47 291.704 1340.12 314.264L1332.35 322.264L1323.15 318.544C1323.15 318.544 1350.36 295.844 1347.15 269.274C1347.21 269.314 1351.5 269.684 1353.59 270.144Z" fill="#58469F"/>
<path opacity="0.2" d="M1353.59 270.144C1353.59 270.144 1350.3 295.074 1343.67 304.854C1343.67 304.854 1364.67 283.214 1369.47 273.984L1376.47 275.704C1376.47 275.704 1368.47 291.704 1340.12 314.264L1332.35 322.264L1323.15 318.544C1323.15 318.544 1350.36 295.844 1347.15 269.274C1347.21 269.314 1351.5 269.684 1353.59 270.144Z" fill="black"/>
<path d="M1397.86 209.354C1397.86 209.354 1402.86 204.944 1404.86 199.544C1405.25 198.487 1405.44 197.37 1405.44 196.244C1405.44 192.844 1405.68 184.244 1406.89 183.864C1406.89 183.864 1408.21 178.434 1411.02 180.184C1411.02 180.184 1414.48 175.814 1415.39 183.864C1415.52 191.092 1415.23 198.321 1414.52 205.514C1414.52 205.514 1422.06 200.134 1424.52 202.934C1424.52 202.934 1426.97 203.684 1419.62 209.354C1419.62 209.354 1407.51 219.204 1400.36 220.524L1397.86 209.354Z" fill="#965F4A"/>
<path d="M1214.66 236.504C1214.66 236.504 1212.02 239.294 1209.41 238.504C1210.46 238.106 1211.37 237.411 1212.04 236.504C1212.04 236.504 1205.31 237.434 1205.31 232.774C1205.85 232.917 1206.43 232.888 1206.95 232.693C1207.48 232.498 1207.93 232.146 1208.25 231.684C1208.25 231.684 1201.51 233.174 1202.32 223.994C1202.32 223.994 1202.72 227.914 1205.02 227.914C1204.24 226.37 1203.96 224.624 1204.21 222.914C1204.21 222.914 1207.71 225.344 1210.82 223.594C1210.82 223.594 1203.67 217.784 1210.55 212.124C1210.55 212.124 1213.55 208.884 1219.19 213.064C1219.19 213.064 1218.65 209.284 1221.34 207.804C1221.34 207.804 1219.05 212.394 1221.34 212.934C1221.34 212.934 1221.61 207.124 1227.55 207.264C1228.81 207.292 1230.04 207.641 1231.13 208.278C1232.21 208.915 1233.12 209.819 1233.76 210.904C1233.91 210.506 1233.97 210.078 1233.94 209.653C1233.9 209.227 1233.76 208.816 1233.54 208.451C1233.32 208.086 1233.02 207.776 1232.66 207.546C1232.3 207.316 1231.89 207.172 1231.47 207.124C1231.47 207.124 1234.84 205.644 1235.38 210.774C1235.38 210.774 1240.08 208.614 1241.92 211.444C1241.92 211.444 1243.75 212.254 1243.48 216.444C1244.51 216.479 1245.52 216.716 1246.45 217.142C1247.39 217.567 1248.23 218.173 1248.93 218.924C1249.63 219.676 1250.18 220.558 1250.54 221.52C1250.9 222.483 1251.07 223.507 1251.03 224.534C1251.03 224.534 1251.2 231.924 1245.18 233.154L1237.67 228.454C1237.67 228.454 1231.33 232.224 1228.5 226.154C1227.47 227.61 1225.97 228.669 1224.26 229.154C1223.17 229.35 1222.12 229.707 1221.14 230.214C1218.86 231.434 1215.25 233.764 1214.66 236.504Z" fill="#2F2E41"/>
<path d="M1406.87 183.864V196.144" stroke="#773522" stroke-miterlimit="10"/>
<path d="M1411 180.184V197.494" stroke="#773522" stroke-miterlimit="10"/>
<path d="M1244.14 233.972C1246.14 233.032 1246.77 230.155 1245.54 227.546C1244.31 224.937 1241.7 223.584 1239.7 224.524C1237.7 225.464 1237.07 228.341 1238.3 230.95C1239.53 233.559 1242.14 234.912 1244.14 233.972Z" fill="#965F4A"/>
<path d="M1119.86 256.947C1121.38 261.208 1126.23 262.999 1129.14 261C1130.03 260.391 1133.65 256.5 1133.65 253.5C1138.05 244.625 1143.68 231.158 1143.68 231.158C1141.15 231.436 1135.71 230.928 1134.19 226.666C1132.28 221.34 1125.6 222.603 1121.08 220.464C1117.47 218.753 1117.16 226.56 1117.02 229.051C1116.87 231.542 1113.13 234.839 1112.74 238.09C1112.35 241.342 1106.55 245 1107.55 249C1108.4 252.398 1110.24 252 1112.74 253.5C1114.97 253.079 1118.34 252.686 1119.86 256.947Z" fill="#D9D9D9"/>
<g filter="url(#filter0_d_1527_32)">
<path d="M1153.05 254.24C1153.05 254.24 1148.24 249.992 1146.32 244.79C1145.95 243.772 1145.76 242.696 1145.76 241.611C1145.76 238.336 1145.53 230.052 1144.37 229.686C1144.37 229.686 1143.1 224.455 1140.4 226.141C1140.4 226.141 1137.08 221.931 1136.2 229.686C1136.07 236.648 1136.35 243.611 1137.04 250.541C1137.04 250.541 1129.79 245.358 1127.43 248.056C1127.43 248.056 1125.07 248.778 1132.14 254.24C1132.14 254.24 1143.77 263.728 1150.65 265L1153.05 254.24Z" fill="#965F4A"/>
</g>
<path d="M1144.05 228V240.28" stroke="#773522" stroke-miterlimit="10"/>
<path d="M1140.05 225V242.31" stroke="#773522" stroke-miterlimit="10"/>
<path opacity="0.2" d="M7.9725 297.153C4.15863 301.352 -0.468149 304.734 -5.6275 307.093C-5.6275 307.093 11.2725 302.903 18.9125 295.093L7.9725 297.153Z" fill="black"/>
<path d="M58.4825 274.682L52.9125 273.622C53.2925 267.412 41.9125 235.222 41.9125 235.222C37.5925 225.132 34.2025 224.482 32.4725 225.122C32.4725 225.122 35.2725 219.262 43.0825 225.392C43.0825 225.392 49.9525 229.942 54.3825 245.872C54.5198 246.353 54.5533 246.858 54.4809 247.353C54.4085 247.847 54.2318 248.321 53.9625 248.742C52.9231 250.238 52.161 251.908 51.7125 253.672C51.6858 253.859 51.7037 254.049 51.7649 254.228C51.8261 254.406 51.9288 254.567 52.0646 254.698C52.2003 254.829 52.3652 254.926 52.5457 254.98C52.7261 255.035 52.917 255.046 53.1025 255.012L56.5325 254.382C56.9021 254.313 57.2845 254.374 57.6133 254.557C57.9421 254.74 58.1966 255.032 58.3325 255.382C59.9825 259.882 64.9925 274.712 58.4825 274.682Z" fill="#2F2E41"/>
<path d="M38.6325 276.623L28.0325 264.033L29.3425 261.243C29.3425 261.243 27.8325 259.903 29.3425 254.143C29.7298 252.692 29.9841 251.209 30.1025 249.713C30.5125 244.453 31.3825 232.263 31.2425 226.953C31.2309 226.556 31.3445 226.166 31.567 225.837C31.7896 225.509 32.1099 225.259 32.4825 225.123C34.2125 224.483 37.6025 225.123 41.9225 235.223C41.9225 235.223 53.3125 267.413 52.9225 273.623C52.9125 273.623 45.6925 277.823 38.6325 276.623Z" fill="#7435DC"/>
<path opacity="0.2" d="M38.6325 276.623L28.0325 264.033L29.3425 261.243C29.3425 261.243 27.8325 259.903 29.3425 254.143C29.7298 252.692 29.9841 251.209 30.1025 249.713C30.5125 244.453 31.3825 232.263 31.2425 226.953C31.2309 226.556 31.3445 226.166 31.567 225.837C31.7896 225.509 32.1099 225.259 32.4825 225.123C34.2125 224.483 37.6025 225.123 41.9225 235.223C41.9225 235.223 53.3125 267.413 52.9225 273.623C52.9125 273.623 45.6925 277.823 38.6325 276.623Z" fill="white"/>
<path d="M20.5625 265.452L29.3425 261.242C29.3425 261.242 28.7925 263.242 32.6325 262.952C36.4725 262.662 38.9225 264.952 38.3925 269.622C38.3925 269.622 36.8325 274.262 38.5925 276.622L31.9225 280.422L20.5625 265.452Z" fill="#F9B499"/>
<path d="M42.3725 243.223C42.3725 243.223 30.1625 238.123 22.8825 231.533C22.0456 230.776 21.1343 230.106 20.1625 229.533C18.2325 228.353 15.2125 226.043 17.2525 224.003C17.2525 224.003 18.5125 220.943 26.7925 226.163C26.7925 226.163 23.5325 198.993 29.1225 201.513C29.1225 201.513 31.1225 199.893 32.7325 202.413C32.7325 202.413 34.0825 201.513 33.8525 206.553C33.8525 206.553 35.4725 204.343 36.1225 207.293C36.2906 208.122 36.3143 208.975 36.1925 209.813C35.7925 212.713 34.9225 221.603 38.6625 224.003L46.1125 229.823C46.1125 229.823 44.1125 234.073 42.3725 243.223Z" fill="#F9B499"/>
<path d="M33.8525 206.522C33.8525 206.522 33.0825 217.522 35.1925 221.332" stroke="#F7A48B" stroke-miterlimit="10"/>
<path d="M29.1225 201.482C29.1225 201.482 28.2625 216.342 30.2925 222.602" stroke="#F7A48B" stroke-miterlimit="10"/>
<path d="M32.7325 202.383C32.7325 202.383 30.7325 208.913 32.7325 222.093" stroke="#F7A48B" stroke-miterlimit="10"/>
<path d="M37.7425 241.072L42.3725 243.222C42.3725 243.222 44.1825 233.352 46.1125 229.792C46.1125 229.792 40.2125 235.122 37.7425 241.072Z" fill="#F7A48B"/>
<path d="M57.0023 298C57.0023 298 56.3202 280.243 78.2806 273.066C78.2806 273.066 98.2145 266.11 104.926 263L128 271.979C116.643 277.154 105.768 283.336 95.5058 290.45C95.5058 290.45 83.8986 289.806 57.0023 298Z" fill="#7435DC"/>
<path opacity="0.2" d="M57.0023 298C57.0023 298 56.3202 280.243 78.2806 273.066C78.2806 273.066 98.2145 266.11 104.926 263L128 271.979C116.643 277.154 105.768 283.336 95.5058 290.45C95.5058 290.45 83.8986 289.806 57.0023 298Z" fill="black"/>
<path d="M191.062 275.266L231.606 286.215L295 277.834L286.514 299.125L229.479 312.653L171.502 300.927C171.502 300.927 139.704 329.654 118.941 337L96.3818 290.605C96.3818 290.605 118.219 275.564 128.871 272.339L90.875 257.747L37 247.265C37 247.265 38.0833 232.494 43.2291 229L107.125 233.569C107.125 233.569 148.812 243.234 162.083 248.072C163.946 249.519 166.203 250.382 168.563 250.55C170.499 250.72 172.367 251.337 174.02 252.352C175.945 253.576 178.032 255.477 178.594 258.145C177.091 260.613 176.378 263.476 176.548 266.354C176.718 269.233 177.764 271.993 179.546 274.27C179.546 274.27 182.937 279.496 191.062 275.266Z" fill="#7435DC"/>
<path d="M200 269.123V257.661C200.649 257 201.136 256.197 201.421 255.314C201.707 254.432 201.783 253.494 201.645 252.577L205.946 250.288C205.946 250.288 206.035 251.851 208.464 250.975C209.792 250.25 211.258 249.814 212.766 249.695C214.274 249.577 215.79 249.779 217.215 250.288C217.215 250.288 227.591 251.681 231 248C231 248 230.366 256.517 224.806 260.447C224.806 260.447 221.892 262.606 221.892 264.427C221.892 264.427 222.259 268.228 221.526 270.068C221.471 270.232 221.374 270.378 221.246 270.492C221.118 270.607 220.962 270.686 220.794 270.722C220.627 270.759 220.452 270.75 220.289 270.698C220.125 270.647 219.977 270.553 219.861 270.427L218.721 269.342C218.417 269.055 218.035 268.866 217.624 268.799C217.212 268.731 216.79 268.789 216.412 268.964C215.455 269.482 214.609 270.186 213.924 271.034L207.978 275.64C207.633 275.907 207.2 276.033 206.766 275.993C206.332 275.952 205.929 275.748 205.639 275.421L200 269.123Z" fill="#F9B499"/>
<path d="M200 258C200 258 198.817 259.895 193.827 260.153C193.827 260.153 191.769 259.935 189.362 262.436C188.683 263.179 187.871 263.797 186.965 264.262C185.339 265.055 182.849 265.73 180.956 263.954C180.956 263.954 178.775 262.297 178.158 258.119C178.158 258.119 172.705 265.423 179.135 274.195C179.135 274.195 182.685 279.781 190.946 275.187C190.946 275.187 196.09 269.015 200 269.402V258Z" fill="#F9B499"/>
<path d="M200 258C200 258 198.558 260.023 193.907 260.195C193.907 260.195 189.947 268.883 193.44 273C193.44 273 197.583 269.045 200 269.622V258Z" fill="#F7A48B"/>
<path d="M186.997 222.111C186.266 220.413 185.044 218.972 183.488 217.97C181.933 216.968 180.113 216.451 178.261 216.485C178.261 216.485 171.2 217.18 168.254 216.485C168.254 216.485 170.372 218.307 177.626 217.552C179.218 217.325 180.839 217.656 182.215 218.487C183.59 219.318 184.635 220.598 185.171 222.111C185.171 222.111 186.856 226.75 193.625 227.454C193.625 227.454 184.889 232.416 180.934 228.39C180.934 228.39 180.379 220.259 172.481 223.218C170.945 224.119 169.127 224.418 167.382 224.057C165.637 223.696 164.089 222.701 163.039 221.265C163.039 221.265 158.267 213.979 152.114 213.064C151.172 212.913 150.207 213.031 149.33 213.405C148.454 213.779 147.701 214.394 147.16 215.177C146.061 216.827 145.284 219.565 147.019 223.691C147.202 224.126 147.494 224.507 147.867 224.798C148.623 225.391 150.005 226.921 150.136 230.151C150.136 230.151 150.136 237.025 156.512 237.538C156.512 237.538 160.446 237.95 160.123 242.57C160.123 242.57 157.995 248.93 167.941 250.218C167.941 250.218 175.598 250.369 178.029 257.896C178.029 257.896 179.29 267.044 185.575 264.578C186.815 264.194 187.927 263.481 188.793 262.515C188.793 262.515 191.123 259.697 193.393 259.959C193.393 259.959 201.09 260.241 201.16 253.076L205.861 251.586C205.861 251.586 205.861 252.301 208.524 251.194C209.787 250.454 211.194 249.993 212.651 249.842C214.107 249.691 215.58 249.853 216.968 250.318C216.968 250.318 227.933 251.727 231 248.004C231 248.004 230.314 225.351 201.937 226.871C198.493 227.091 195.044 226.531 191.849 225.23C190.263 224.663 188.845 223.708 187.723 222.453" fill="#2F2E41"/>
<path opacity="0.1" d="M171 300.688C171 300.688 178.258 294.393 180 290L177.081 302L171 300.688Z" fill="black"/>
<path opacity="0.1" d="M115 279L137 278.191L128.711 272C124.024 274.063 119.447 276.399 115 279V279Z" fill="black"/>
<path d="M64 296C64.0723 293.366 64.8438 290.797 66.2366 288.553C67.6417 286.305 69.5302 284.392 71.767 282.953C72.8672 282.217 74.0267 281.573 75.2336 281.026C75.8436 280.763 76.4739 280.551 77.094 280.309C77.7065 280.06 78.3348 279.851 78.9748 279.684L80.8962 279.179C81.2215 279.098 81.5367 278.998 81.9128 278.937L82.9294 278.776C84.2307 278.543 85.5421 278.372 86.8027 278.089C91.9407 277.036 97.0013 275.64 101.95 273.912C106.935 272.268 111.664 269.942 116 267C113.925 268.612 111.703 270.028 109.361 271.228C107.003 272.398 104.583 273.438 102.113 274.376C97.1643 276.18 92.092 277.63 86.9349 278.715C85.6336 278.987 84.3324 279.149 83.0413 279.371L82.0246 279.522C81.6993 279.583 81.3943 279.684 81.0792 279.754L79.1781 280.239C78.5471 280.395 77.9287 280.597 77.3279 280.844C76.7179 281.066 76.0978 281.278 75.498 281.52C74.3162 282.056 73.1716 282.67 72.0719 283.357C69.8542 284.718 67.9659 286.547 66.5415 288.715C65.075 290.885 64.1994 293.395 64 296Z" fill="white"/>
<path d="M109.224 342.062C115.601 339.228 119 337.362 119 337.362L96.361 290.862C81.9589 290.503 57.7107 298.316 57.7107 298.316L4.46735 308.434L33.5 280.5L16 257.5L0.5 269.5V362.948H34.8907C39.0419 362.866 43.1765 362.401 47.2411 361.561C58.3498 359.251 69.3331 356.384 80.1486 352.969L80.7576 352.769C83.7788 351.776 86.6249 350.841 89.3209 349.905C93.5952 348.409 97.4472 346.942 100.857 345.585C104.045 344.307 106.841 343.11 109.224 342.062Z" fill="#2F2E41"/>
<path opacity="0.2" d="M8.9725 308.153C5.15863 312.352 5.65935 313.641 0.5 316C0.5 316 12.2725 313.903 19.9125 306.093L8.9725 308.153Z" fill="black"/>
<path opacity="0.2" d="M55.5138 328.287C55.5138 328.287 6.14478 348.047 1.29462 348.359C1.29462 348.359 1.29462 344.359 1.29462 337.859L1.2946 335.859C1.54503 336.087 13.6968 343.319 55.5138 328.287Z" fill="black"/>
<path d="M109 342.112C106.624 343.158 103.838 344.353 100.66 345.629C98.4545 340.229 93.8735 328.485 92.1493 320.605C92.1493 320.605 91.7083 339.124 89.1421 349.942C86.2751 350.938 83.2378 351.934 80 353C83.4082 344.632 90.6758 325.487 91.5479 312.447L90.2748 291.289C90.2748 291.289 93.2821 291.06 96.1791 291C96.1791 291 95.3972 317.896 102.344 329.222L109 342.112Z" fill="#7435DC"/>
<path opacity="0.2" d="M109 342.112C106.624 343.158 103.838 344.353 100.66 345.629C98.4545 340.229 93.8735 328.485 92.1493 320.605C92.1493 320.605 91.7083 339.124 89.1421 349.942C86.2751 350.938 83.2378 351.934 80 353C83.4082 344.632 90.6758 325.487 91.5479 312.447L90.2748 291.289C90.2748 291.289 93.2821 291.06 96.1791 291C96.1791 291 95.3972 317.896 102.344 329.222L109 342.112Z" fill="black"/>
<path d="M102 286.22C102 286.22 114.047 321.343 133.177 330L140 325.51C140 325.51 114.587 317.135 105.646 284L102 286.22Z" fill="#7435DC"/>
<path opacity="0.2" d="M102 286.22C102 286.22 114.047 321.343 133.177 330L140 325.51C140 325.51 114.587 317.135 105.646 284L102 286.22Z" fill="black"/>
<path d="M206.583 250.892C208.241 248.631 208.29 245.856 206.693 244.692C205.096 243.529 202.457 244.418 200.8 246.679C199.142 248.94 199.093 251.716 200.69 252.879C202.287 254.042 204.926 253.153 206.583 250.892Z" fill="#F9B499"/>
<path d="M261.355 173.552C261.355 173.552 264.491 160.613 279.671 165.912C282.362 166.597 284.867 167.866 287.01 169.628C289.152 171.39 290.877 173.601 292.063 176.104C292.063 176.104 305.31 167.68 310.808 184.798C312.333 184.369 313.96 184.49 315.403 185.139C316.847 185.788 318.015 186.924 318.701 188.347C318.701 188.347 320.132 193.38 314.962 194.974C314.962 194.974 308.904 207.956 296.113 195.816C296.113 195.816 291.664 204.107 273.899 200.57C270.328 199.859 267.012 198.207 264.298 195.786C261.584 193.365 259.57 190.263 258.466 186.804L258.385 186.529C258.385 186.529 247.921 184.949 251.271 177.372C251.269 177.382 252.759 173.075 261.355 173.552Z" fill="#0071F2"/>
<path opacity="0.3" d="M260.941 173.3C260.941 173.3 263.851 160.308 279.121 165.342C281.823 165.98 284.351 167.206 286.524 168.93C288.696 170.654 290.46 172.836 291.69 175.318C291.69 175.318 304.788 166.665 310.584 183.685C312.1 183.23 313.729 183.322 315.184 183.946C316.639 184.57 317.826 185.685 318.538 187.096C318.538 187.096 320.056 192.104 314.915 193.787C314.915 193.787 309.084 206.872 296.084 194.956C296.084 194.956 291.779 203.323 273.956 200.095C270.373 199.446 267.029 197.852 264.273 195.479C261.517 193.105 259.449 190.039 258.284 186.599L258.199 186.326C258.199 186.326 247.709 184.928 250.926 177.294C250.924 177.304 252.338 172.971 260.941 173.3Z" fill="white"/>
<path d="M287.801 412.293C299.257 409.648 295.749 399.578 295.749 399.578C310.65 386.087 294.234 373.135 294.22 373.107C280.098 371.722 271.771 378.264 271.771 378.264L259.08 380.881C236.652 365.375 223.267 383.631 223.267 383.631C226.599 371.729 220.517 363.493 213.922 358.329C207.148 353.137 198.892 350.231 190.351 350.03C157.498 348.952 140.963 377.495 140.963 377.495C135.54 367.411 123.474 368.398 123.474 368.398C107.703 371.589 108.931 383.631 108.931 383.631C102.107 380.813 94.7053 379.663 87.3449 380.28C82.343 380.608 79.0317 381.882 76.9271 383.463C75.8658 384.232 74.9671 385.202 74.2824 386.318C73.089 388.335 72.7103 390.729 73.2231 393.015C74.556 399.312 77.755 403.294 81.5713 405.771C90.7964 411.782 103.754 408.983 103.754 408.983C105.269 428.911 118.647 430.675 118.647 430.675C133.548 435.209 137.967 421.858 137.967 421.858C140.865 435.328 154.622 438.988 154.622 438.988C180.628 444.872 180.761 423.181 180.761 423.181C199.499 439.428 212 419.024 212 419.024C223.547 434.894 240.588 430.36 240.588 430.36C260.28 426.392 249.932 409.648 249.932 409.648C266.088 413.797 269.877 402.601 269.877 402.601C277.825 415.693 287.801 412.293 287.801 412.293Z" fill="#2787F4"/>
<path d="M270 381.533C260.65 385.295 259.539 391.257 259.539 391.257C237.042 375.788 223.65 394 223.65 394C226.989 382.133 220.894 373.91 214.286 368.758C207.496 363.579 199.223 360.679 190.664 360.479C157.742 359.404 141.172 387.878 141.172 387.878C135.737 377.819 123.645 378.803 123.645 378.803C107.841 381.986 109.072 394 109.072 394C102.233 391.188 94.8159 390.042 87.4398 390.656C82.4273 390.984 79.1442 392.255 77 393.832C77.2179 393.546 84.6348 383.676 97.5563 385.379C97.5563 385.379 94.3786 375.746 104.903 368.5C110.741 364.489 117.894 362.827 124.918 363.851C130.976 364.64 136.584 367.451 140.82 371.823C140.82 371.823 156.42 339.914 204.795 348.452C204.795 348.452 229.886 353.226 238.231 378.601C238.223 378.601 255.469 365.631 270 381.533Z" fill="#2787F4"/>
<path d="M350.17 414.292C348.219 418.967 342.688 425.933 327.656 419.397C327.656 419.397 321.88 426.906 309.999 430.326C304.838 431.822 299.426 432.238 294.099 431.546C288.771 430.855 283.642 429.072 279.029 426.307C275.363 424.162 272.177 421.281 269.667 417.846C269.667 417.846 267.414 437.589 242.584 443.124C215.832 449.118 199.965 435.876 199.965 435.876C199.965 435.876 180.539 459.236 139.372 451.388C139.372 451.388 121.651 447.863 113.356 432.103C113.356 432.103 91.1092 440.332 79.5436 422.062C79.5436 422.062 74.9328 415.956 81.649 405.887C90.8776 411.923 103.84 409.123 103.84 409.123C105.356 429.17 118.739 430.982 118.739 430.982C133.645 435.551 138.066 422.098 138.066 422.098C140.965 435.671 154.727 439.359 154.727 439.359C180.742 445.317 180.876 423.43 180.876 423.43C199.621 439.803 212.127 419.242 212.127 419.242C223.678 435.234 240.725 430.665 240.725 430.665C260.424 426.667 250.073 409.793 250.073 409.793C266.214 413.975 270.025 402.693 270.025 402.693C277.976 415.885 287.956 412.459 287.956 412.459C299.444 409.793 295.907 399.646 295.907 399.646C310.813 386.066 294.391 373 294.391 373C294.391 373 312.041 372.866 314.68 395.049C314.68 395.049 320.842 384.543 332.274 390.508C332.274 390.508 338.646 394.704 334.246 402.876C334.246 402.876 346.927 398.166 350.387 406.888C351.274 409.291 351.196 411.946 350.17 414.292V414.292Z" fill="#0071F2"/>
<path opacity="0.4" d="M350.17 414.292C348.219 418.967 342.688 425.933 327.656 419.397C327.656 419.397 321.88 426.906 309.999 430.326C304.838 431.822 299.426 432.238 294.099 431.546C288.771 430.855 283.642 429.072 279.029 426.307C275.363 424.162 272.177 421.281 269.667 417.846C269.667 417.846 267.414 437.589 242.584 443.124C215.832 449.118 199.965 435.876 199.965 435.876C199.965 435.876 180.539 459.236 139.372 451.388C139.372 451.388 121.651 447.863 113.356 432.103C113.356 432.103 91.1092 440.332 79.5436 422.062C79.5436 422.062 74.9328 415.956 81.649 405.887C90.8776 411.923 103.84 409.123 103.84 409.123C105.356 429.17 118.739 430.982 118.739 430.982C133.645 435.551 138.066 422.098 138.066 422.098C140.965 435.671 154.727 439.359 154.727 439.359C180.742 445.317 180.876 423.43 180.876 423.43C199.621 439.803 212.127 419.242 212.127 419.242C223.678 435.234 240.725 430.665 240.725 430.665C260.424 426.667 250.073 409.793 250.073 409.793C266.214 413.975 270.025 402.693 270.025 402.693C277.976 415.885 287.956 412.459 287.956 412.459C299.444 409.793 295.907 399.646 295.907 399.646C310.813 386.066 294.391 373 294.391 373C294.391 373 312.041 372.866 314.68 395.049C314.68 395.049 320.842 384.543 332.274 390.508C332.274 390.508 338.646 394.704 334.246 402.876C334.246 402.876 346.927 398.166 350.387 406.888C351.274 409.291 351.196 411.946 350.17 414.292V414.292Z" fill="white"/>
<path d="M324.385 263.822C322.609 259.658 316.364 258 314.851 260.319C313.338 262.639 302.041 290.96 302.041 290.96C304.557 290.534 310.034 290.724 311.81 294.889C314.029 300.095 320.648 298.444 325.3 300.315C329.021 301.811 328.866 294 328.866 291.505C328.866 289.009 332.416 285.5 332.62 282.231C332.824 278.962 336.562 272.494 337.875 269.248C338.927 266.651 335.212 266.919 333.224 267.377C331.017 267.928 326.161 267.987 324.385 263.822Z" fill="#D9D9D9"/>
<g filter="url(#filter1_d_1527_32)">
<path d="M285.611 295.909C285.611 295.909 298.556 296.162 307.654 293.165C308.7 292.821 309.779 292.583 310.874 292.455C313.065 292.163 316.675 291.296 315.637 288.689C315.637 288.689 315.696 285.482 306.233 286.873C306.233 286.873 319.726 264.052 313.728 264.1C313.728 264.1 312.563 261.881 310.137 263.486C310.137 263.486 309.275 262.16 307.522 266.72C307.522 266.72 306.927 264.126 305.196 266.488C304.723 267.158 304.37 267.905 304.153 268.696C303.384 271.424 300.708 279.649 296.417 280.314L287.466 282.562C287.466 282.562 287.608 287.113 285.611 295.909Z" fill="#F9B499"/>
</g>
<path d="M307.69 266.175C307.69 266.175 303.961 276.242 300.892 278.954" stroke="#F7A48B" stroke-miterlimit="10"/>
<path d="M313.996 263.676C313.996 263.676 308.583 277.93 304.346 283.083" stroke="#F7A48B" stroke-miterlimit="10"/>
<path d="M310.347 263.397C310.347 263.397 310.272 270.318 302.619 281.019" stroke="#F7A48B" stroke-miterlimit="10"/>
<defs>
<filter id="filter0_d_1527_32" x="1120.05" y="221" width="34" height="48" filterUnits="userSpaceOnUse" color-interpolation-filters="sRGB">
<feFlood flood-opacity="0" result="BackgroundImageFix"/>
<feColorMatrix in="SourceAlpha" type="matrix" values="0 0 0 0 0 0 0 0 0 0 0 0 0 0 0 0 0 0 127 0" result="hardAlpha"/>
<feOffset dx="-3"/>
<feGaussianBlur stdDeviation="2"/>
<feComposite in2="hardAlpha" operator="out"/>
<feColorMatrix type="matrix" values="0 0 0 0 0 0 0 0 0 0 0 0 0 0 0 0 0 0 0.25 0"/>
<feBlend mode="normal" in2="BackgroundImageFix" result="effect1_dropShadow_1527_32"/>
<feBlend mode="normal" in="SourceGraphic" in2="effect1_dropShadow_1527_32" result="shape"/>
</filter>
<filter id="filter1_d_1527_32" x="284.611" y="258.903" width="38.209" height="41.0106" filterUnits="userSpaceOnUse" color-interpolation-filters="sRGB">
<feFlood flood-opacity="0" result="BackgroundImageFix"/>
<feColorMatrix in="SourceAlpha" type="matrix" values="0 0 0 0 0 0 0 0 0 0 0 0 0 0 0 0 0 0 127 0" result="hardAlpha"/>
<feOffset dx="3"/>
<feGaussianBlur stdDeviation="2"/>
<feComposite in2="hardAlpha" operator="out"/>
<feColorMatrix type="matrix" values="0 0 0 0 0 0 0 0 0 0 0 0 0 0 0 0 0 0 0.25 0"/>
<feBlend mode="normal" in2="BackgroundImageFix" result="effect1_dropShadow_1527_32"/>
<feBlend mode="normal" in="SourceGraphic" in2="effect1_dropShadow_1527_32" result="shape"/>
</filter>
<linearGradient id="paint0_linear_1527_32" x1="720.5" y1="27.1923" x2="721.885" y2="613.594" gradientUnits="userSpaceOnUse">
<stop stop-color="#FB9701"/>
<stop offset="1" stop-color="#FFED63"/>
</linearGradient>
</defs>
</svg>
