<svg width="351" height="293" viewBox="0 0 351 293" fill="none" xmlns="http://www.w3.org/2000/svg">
<path opacity="0.2" d="M7.9725 137.153C4.15863 141.352 -0.468149 144.734 -5.6275 147.093C-5.6275 147.093 11.2725 142.903 18.9125 135.093L7.9725 137.153Z" fill="black"/>
<path d="M58.4825 114.682L52.9125 113.622C53.2925 107.412 41.9125 75.2224 41.9125 75.2224C37.5925 65.1324 34.2025 64.4824 32.4725 65.1224C32.4725 65.1224 35.2725 59.2624 43.0825 65.3924C43.0825 65.3924 49.9525 69.9424 54.3825 85.8724C54.5198 86.3533 54.5533 86.8578 54.4809 87.3526C54.4085 87.8473 54.2318 88.3211 53.9625 88.7425C52.9231 90.2376 52.161 91.9075 51.7125 93.6724C51.6858 93.8591 51.7037 94.0494 51.7649 94.2277C51.8261 94.4061 51.9288 94.5673 52.0646 94.6982C52.2003 94.8291 52.3652 94.9258 52.5457 94.9804C52.7261 95.0351 52.917 95.046 53.1025 95.0124L56.5325 94.3824C56.9021 94.3126 57.2845 94.3744 57.6133 94.5571C57.9421 94.7397 58.1966 95.0317 58.3325 95.3824C59.9825 99.8824 64.9925 114.712 58.4825 114.682Z" fill="#2F2E41"/>
<path d="M38.6325 116.623L28.0325 104.033L29.3425 101.243C29.3425 101.243 27.8325 99.9026 29.3425 94.1426C29.7298 92.692 29.9841 91.2092 30.1025 89.7126C30.5125 84.4526 31.3825 72.2626 31.2425 66.9526C31.2309 66.556 31.3445 66.1658 31.567 65.8374C31.7896 65.5089 32.1099 65.2588 32.4825 65.1225C34.2125 64.4825 37.6025 65.1225 41.9225 75.2225C41.9225 75.2225 53.3125 107.413 52.9225 113.623C52.9125 113.623 45.6925 117.823 38.6325 116.623Z" fill="#7435DC"/>
<path opacity="0.2" d="M38.6325 116.623L28.0325 104.033L29.3425 101.243C29.3425 101.243 27.8325 99.9026 29.3425 94.1426C29.7298 92.692 29.9841 91.2092 30.1025 89.7126C30.5125 84.4526 31.3825 72.2626 31.2425 66.9526C31.2309 66.556 31.3445 66.1658 31.567 65.8374C31.7896 65.5089 32.1099 65.2588 32.4825 65.1225C34.2125 64.4825 37.6025 65.1225 41.9225 75.2225C41.9225 75.2225 53.3125 107.413 52.9225 113.623C52.9125 113.623 45.6925 117.823 38.6325 116.623Z" fill="white"/>
<path d="M20.5625 105.452L29.3425 101.242C29.3425 101.242 28.7925 103.242 32.6325 102.952C36.4725 102.662 38.9225 104.952 38.3925 109.622C38.3925 109.622 36.8325 114.262 38.5925 116.622L31.9225 120.422L20.5625 105.452Z" fill="#F9B499"/>
<path d="M42.3725 83.2226C42.3725 83.2226 30.1625 78.1226 22.8825 71.5326C22.0456 70.7759 21.1343 70.1059 20.1625 69.5326C18.2325 68.3526 15.2125 66.0426 17.2525 64.0026C17.2525 64.0026 18.5125 60.9426 26.7925 66.1626C26.7925 66.1626 23.5325 38.9926 29.1225 41.5126C29.1225 41.5126 31.1225 39.8926 32.7325 42.4126C32.7325 42.4126 34.0825 41.5126 33.8525 46.5526C33.8525 46.5526 35.4725 44.3426 36.1225 47.2926C36.2906 48.1223 36.3143 48.9748 36.1925 49.8126C35.7925 52.7126 34.9225 61.6026 38.6625 64.0026L46.1125 69.8226C46.1125 69.8226 44.1125 74.0726 42.3725 83.2226Z" fill="#F9B499"/>
<path d="M33.8525 46.5225C33.8525 46.5225 33.0825 57.5225 35.1925 61.3325" stroke="#F7A48B" stroke-miterlimit="10"/>
<path d="M29.1225 41.4824C29.1225 41.4824 28.2625 56.3424 30.2925 62.6024" stroke="#F7A48B" stroke-miterlimit="10"/>
<path d="M32.7325 42.3826C32.7325 42.3826 30.7325 48.9126 32.7325 62.0926" stroke="#F7A48B" stroke-miterlimit="10"/>
<path d="M37.7425 81.0725L42.3725 83.2225C42.3725 83.2225 44.1825 73.3525 46.1125 69.7925C46.1125 69.7925 40.2125 75.1225 37.7425 81.0725Z" fill="#F7A48B"/>
<path d="M57.0023 138C57.0023 138 56.3202 120.243 78.2806 113.066C78.2806 113.066 98.2145 106.11 104.926 103L128 111.979C116.643 117.154 105.768 123.336 95.5058 130.45C95.5058 130.45 83.8986 129.806 57.0023 138Z" fill="#7435DC"/>
<path opacity="0.2" d="M57.0023 138C57.0023 138 56.3202 120.243 78.2806 113.066C78.2806 113.066 98.2145 106.11 104.926 103L128 111.979C116.643 117.154 105.768 123.336 95.5058 130.45C95.5058 130.45 83.8986 129.806 57.0023 138Z" fill="black"/>
<path d="M191.062 115.266L231.606 126.215L295 117.834L286.514 139.125L229.479 152.653L171.502 140.927C171.502 140.927 139.704 169.654 118.941 177L96.3818 130.605C96.3818 130.605 118.219 115.564 128.871 112.339L90.875 97.7469L37 87.2654C37 87.2654 38.0833 72.4938 43.2291 69L107.125 73.5688C107.125 73.5688 148.812 83.2341 162.083 88.0717C163.946 89.519 166.203 90.382 168.563 90.5502C170.499 90.7199 172.367 91.3369 174.02 92.3519C175.945 93.5762 178.032 95.4774 178.594 98.1451C177.091 100.613 176.378 103.476 176.548 106.354C176.718 109.233 177.764 111.993 179.546 114.27C179.546 114.27 182.937 119.496 191.062 115.266Z" fill="#7435DC"/>
<path d="M200 109.123V97.6612C200.649 97.0004 201.136 96.1968 201.421 95.3142C201.707 94.4317 201.783 93.4944 201.645 92.5769L205.946 90.2885C205.946 90.2885 206.035 91.8506 208.464 90.975C209.792 90.2497 211.258 89.8137 212.766 89.6954C214.274 89.5771 215.79 89.7792 217.215 90.2885C217.215 90.2885 227.591 91.6814 231 88C231 88 230.366 96.517 224.806 100.447C224.806 100.447 221.892 102.606 221.892 104.427C221.892 104.427 222.259 108.228 221.526 110.068C221.471 110.232 221.374 110.378 221.246 110.492C221.118 110.607 220.962 110.686 220.794 110.722C220.627 110.759 220.452 110.75 220.289 110.698C220.125 110.647 219.977 110.553 219.861 110.427L218.721 109.342C218.417 109.055 218.035 108.866 217.624 108.799C217.212 108.731 216.79 108.789 216.412 108.964C215.455 109.482 214.609 110.186 213.924 111.034L207.978 115.64C207.633 115.907 207.2 116.033 206.766 115.993C206.332 115.952 205.929 115.748 205.639 115.421L200 109.123Z" fill="#F9B499"/>
<path d="M200 98C200 98 198.817 99.8953 193.827 100.153C193.827 100.153 191.769 99.935 189.362 102.436C188.683 103.179 187.871 103.797 186.965 104.262C185.339 105.055 182.849 105.73 180.956 103.954C180.956 103.954 178.775 102.297 178.158 98.1191C178.158 98.1191 172.705 105.423 179.135 114.195C179.135 114.195 182.685 119.781 190.946 115.187C190.946 115.187 196.09 109.015 200 109.402V98Z" fill="#F9B499"/>
<path d="M200 98C200 98 198.558 100.023 193.907 100.195C193.907 100.195 189.947 108.883 193.44 113C193.44 113 197.583 109.045 200 109.622V98Z" fill="#F7A48B"/>
<path d="M186.997 62.1106C186.266 60.4133 185.044 58.9717 183.488 57.9698C181.933 56.9679 180.113 56.451 178.261 56.4852C178.261 56.4852 171.2 57.1796 168.254 56.4852C168.254 56.4852 170.372 58.3067 177.626 57.5519C179.218 57.3252 180.839 57.6555 182.215 58.4866C183.59 59.3176 184.635 60.5982 185.171 62.1106C185.171 62.1106 186.856 66.7499 193.625 67.4543C193.625 67.4543 184.889 72.4156 180.934 68.3902C180.934 68.3902 180.379 60.259 172.481 63.2176C170.945 64.1187 169.127 64.4179 167.382 64.0571C165.637 63.6963 164.089 62.7013 163.039 61.2653C163.039 61.2653 158.267 53.9794 152.114 53.0636C151.172 52.9128 150.207 53.0313 149.33 53.4054C148.454 53.7794 147.701 54.3937 147.16 55.1769C146.061 56.8273 145.284 59.5646 147.019 63.6906C147.202 64.1256 147.494 64.5067 147.867 64.7976C148.623 65.3913 150.005 66.9209 150.136 70.1513C150.136 70.1513 150.136 77.0246 156.512 77.5378C156.512 77.5378 160.446 77.9504 160.123 82.5695C160.123 82.5695 157.995 88.9296 167.941 90.2177C167.941 90.2177 175.598 90.3687 178.029 97.8961C178.029 97.8961 179.29 107.044 185.575 104.578C186.815 104.194 187.927 103.481 188.793 102.515C188.793 102.515 191.123 99.6974 193.393 99.9591C193.393 99.9591 201.09 100.241 201.16 93.0757L205.861 91.5863C205.861 91.5863 205.861 92.3008 208.524 91.1939C209.787 90.4541 211.194 89.9931 212.651 89.8421C214.107 89.691 215.58 89.8534 216.968 90.3183C216.968 90.3183 227.933 91.7272 231 88.0038C231 88.0038 230.314 65.351 201.937 66.8706C198.493 67.0915 195.044 66.5306 191.849 65.2303C190.263 64.6628 188.845 63.7079 187.723 62.4528" fill="#2F2E41"/>
<path opacity="0.1" d="M171 140.688C171 140.688 178.258 134.393 180 130L177.081 142L171 140.688Z" fill="black"/>
<path opacity="0.1" d="M115 119L137 118.191L128.711 112C124.024 114.063 119.447 116.399 115 119V119Z" fill="black"/>
<path d="M64 136C64.0723 133.366 64.8438 130.797 66.2366 128.553C67.6417 126.305 69.5302 124.392 71.767 122.953C72.8672 122.217 74.0267 121.573 75.2336 121.026C75.8436 120.763 76.4739 120.551 77.094 120.309C77.7065 120.06 78.3348 119.851 78.9748 119.684L80.8962 119.179C81.2215 119.098 81.5367 118.998 81.9128 118.937L82.9294 118.776C84.2307 118.543 85.5421 118.372 86.8027 118.089C91.9407 117.036 97.0013 115.64 101.95 113.912C106.935 112.268 111.664 109.942 116 107C113.925 108.612 111.703 110.028 109.361 111.228C107.003 112.398 104.583 113.438 102.113 114.376C97.1643 116.18 92.092 117.63 86.9349 118.715C85.6336 118.987 84.3324 119.149 83.0413 119.371L82.0246 119.522C81.6993 119.583 81.3943 119.684 81.0792 119.754L79.1781 120.239C78.5471 120.395 77.9287 120.597 77.3279 120.844C76.7179 121.066 76.0978 121.278 75.498 121.52C74.3162 122.056 73.1716 122.67 72.0719 123.357C69.8542 124.718 67.9659 126.547 66.5415 128.715C65.075 130.885 64.1994 133.395 64 136Z" fill="white"/>
<path d="M109.224 182.062C115.601 179.228 119 177.362 119 177.362L96.361 130.862C81.9589 130.503 57.7107 138.316 57.7107 138.316L4.46735 148.434L33.5 120.5L16 97.5L0.5 109.5V202.948H34.8907C39.0419 202.866 43.1765 202.401 47.2411 201.561C58.3498 199.251 69.3331 196.384 80.1486 192.969L80.7576 192.769C83.7788 191.776 86.6249 190.841 89.3209 189.905C93.5952 188.409 97.4472 186.942 100.857 185.585C104.045 184.307 106.841 183.11 109.224 182.062Z" fill="#2F2E41"/>
<path opacity="0.2" d="M8.9725 148.153C5.15863 152.352 5.65935 153.641 0.5 156C0.5 156 12.2725 153.903 19.9125 146.093L8.9725 148.153Z" fill="black"/>
<path opacity="0.2" d="M55.5138 168.287C55.5138 168.287 6.14478 188.047 1.29462 188.359C1.29462 188.359 1.29462 184.359 1.29462 177.859L1.2946 175.859C1.54503 176.087 13.6968 183.319 55.5138 168.287Z" fill="black"/>
<path d="M109 182.112C106.624 183.158 103.838 184.353 100.66 185.629C98.4545 180.229 93.8735 168.485 92.1493 160.605C92.1493 160.605 91.7083 179.124 89.1421 189.942C86.2751 190.938 83.2378 191.934 80 193C83.4082 184.632 90.6758 165.487 91.5479 152.447L90.2748 131.289C90.2748 131.289 93.2821 131.06 96.1791 131C96.1791 131 95.3972 157.896 102.344 169.222L109 182.112Z" fill="#7435DC"/>
<path opacity="0.2" d="M109 182.112C106.624 183.158 103.838 184.353 100.66 185.629C98.4545 180.229 93.8735 168.485 92.1493 160.605C92.1493 160.605 91.7083 179.124 89.1421 189.942C86.2751 190.938 83.2378 191.934 80 193C83.4082 184.632 90.6758 165.487 91.5479 152.447L90.2748 131.289C90.2748 131.289 93.2821 131.06 96.1791 131C96.1791 131 95.3972 157.896 102.344 169.222L109 182.112Z" fill="black"/>
<path d="M102 126.22C102 126.22 114.047 161.343 133.177 170L140 165.51C140 165.51 114.587 157.135 105.646 124L102 126.22Z" fill="#7435DC"/>
<path opacity="0.2" d="M102 126.22C102 126.22 114.047 161.343 133.177 170L140 165.51C140 165.51 114.587 157.135 105.646 124L102 126.22Z" fill="black"/>
<path d="M206.583 90.892C208.241 88.6313 208.29 85.8555 206.693 84.6922C205.096 83.5288 202.457 84.4184 200.8 86.6791C199.142 88.9398 199.093 91.7156 200.69 92.8789C202.287 94.0423 204.926 93.1527 206.583 90.892Z" fill="#F9B499"/>
<path d="M261.355 13.5523C261.355 13.5523 264.491 0.613455 279.671 5.9115C282.362 6.59683 284.867 7.86571 287.01 9.62761C289.152 11.3895 290.877 13.601 292.063 16.1042C292.063 16.1042 305.31 7.68013 310.808 24.7978C312.333 24.3693 313.96 24.4902 315.403 25.1393C316.847 25.7884 318.015 26.9241 318.701 28.3466C318.701 28.3466 320.132 33.3799 314.962 34.9736C314.962 34.9736 308.904 47.9556 296.113 35.8159C296.113 35.8159 291.664 44.1071 273.899 40.5701C270.328 39.859 267.012 38.207 264.298 35.786C261.584 33.365 259.57 30.2634 258.466 26.8037L258.385 26.5288C258.385 26.5288 247.921 24.9495 251.271 17.3723C251.269 17.3821 252.759 13.0745 261.355 13.5523Z" fill="#0071F2"/>
<path opacity="0.3" d="M260.941 13.2996C260.941 13.2996 263.851 0.308264 279.121 5.34191C281.823 5.9804 284.351 7.20558 286.524 8.93001C288.696 10.6544 290.46 12.8356 291.69 15.3179C291.69 15.3179 304.788 6.66503 310.584 23.6846C312.1 23.2297 313.729 23.3224 315.184 23.9463C316.639 24.5702 317.826 25.6854 318.538 27.0958C318.538 27.0958 320.056 32.1035 314.915 33.7867C314.915 33.7867 309.084 46.872 296.084 34.9562C296.084 34.9562 291.779 43.3234 273.956 40.0955C270.373 39.4465 267.029 37.8523 264.273 35.4788C261.517 33.1053 259.449 30.0391 258.284 26.5992L258.199 26.3258C258.199 26.3258 247.709 24.9283 250.926 17.2941C250.924 17.3039 252.338 12.9712 260.941 13.2996Z" fill="white"/>
<path d="M287.801 252.293C299.257 249.648 295.749 239.578 295.749 239.578C310.65 226.087 294.234 213.135 294.22 213.107C280.098 211.722 271.771 218.264 271.771 218.264L259.08 220.881C236.652 205.375 223.267 223.631 223.267 223.631C226.599 211.729 220.517 203.493 213.922 198.329C207.148 193.137 198.892 190.231 190.351 190.03C157.498 188.952 140.963 217.495 140.963 217.495C135.54 207.411 123.474 208.398 123.474 208.398C107.703 211.589 108.931 223.631 108.931 223.631C102.107 220.813 94.7053 219.663 87.3449 220.28C82.343 220.608 79.0317 221.882 76.9271 223.463C75.8658 224.232 74.9671 225.202 74.2824 226.318C73.089 228.335 72.7103 230.729 73.2231 233.015C74.556 239.312 77.755 243.294 81.5713 245.771C90.7964 251.782 103.754 248.983 103.754 248.983C105.269 268.911 118.647 270.675 118.647 270.675C133.548 275.209 137.967 261.858 137.967 261.858C140.865 275.328 154.622 278.988 154.622 278.988C180.628 284.872 180.761 263.181 180.761 263.181C199.499 279.428 212 259.024 212 259.024C223.547 274.894 240.588 270.36 240.588 270.36C260.28 266.392 249.932 249.648 249.932 249.648C266.088 253.797 269.877 242.601 269.877 242.601C277.825 255.693 287.801 252.293 287.801 252.293Z" fill="#2787F4"/>
<path d="M270 221.533C260.65 225.295 259.539 231.257 259.539 231.257C237.042 215.788 223.65 234 223.65 234C226.989 222.133 220.894 213.91 214.286 208.758C207.496 203.579 199.223 200.679 190.664 200.479C157.742 199.404 141.172 227.878 141.172 227.878C135.737 217.819 123.645 218.803 123.645 218.803C107.841 221.986 109.072 234 109.072 234C102.233 231.188 94.8159 230.042 87.4398 230.656C82.4273 230.984 79.1442 232.255 77 233.832C77.2179 233.546 84.6348 223.676 97.5563 225.379C97.5563 225.379 94.3786 215.746 104.903 208.5C110.741 204.489 117.894 202.827 124.918 203.851C130.976 204.64 136.584 207.451 140.82 211.823C140.82 211.823 156.42 179.914 204.795 188.452C204.795 188.452 229.886 193.226 238.231 218.601C238.223 218.601 255.469 205.631 270 221.533Z" fill="#2787F4"/>
<path d="M350.17 254.292C348.219 258.967 342.688 265.933 327.656 259.397C327.656 259.397 321.88 266.906 309.999 270.326C304.838 271.822 299.426 272.238 294.099 271.546C288.771 270.855 283.642 269.072 279.029 266.307C275.363 264.162 272.177 261.281 269.667 257.846C269.667 257.846 267.414 277.589 242.584 283.124C215.832 289.118 199.965 275.876 199.965 275.876C199.965 275.876 180.539 299.236 139.372 291.388C139.372 291.388 121.651 287.863 113.356 272.103C113.356 272.103 91.1092 280.332 79.5436 262.062C79.5436 262.062 74.9328 255.956 81.649 245.887C90.8776 251.923 103.84 249.123 103.84 249.123C105.356 269.17 118.739 270.982 118.739 270.982C133.645 275.551 138.066 262.098 138.066 262.098C140.965 275.671 154.727 279.359 154.727 279.359C180.742 285.317 180.876 263.43 180.876 263.43C199.621 279.803 212.127 259.242 212.127 259.242C223.678 275.234 240.725 270.665 240.725 270.665C260.424 266.667 250.073 249.793 250.073 249.793C266.214 253.975 270.025 242.693 270.025 242.693C277.976 255.885 287.956 252.459 287.956 252.459C299.444 249.793 295.907 239.646 295.907 239.646C310.813 226.066 294.391 213 294.391 213C294.391 213 312.041 212.866 314.68 235.049C314.68 235.049 320.842 224.543 332.274 230.508C332.274 230.508 338.646 234.704 334.246 242.876C334.246 242.876 346.927 238.166 350.387 246.888C351.274 249.291 351.196 251.946 350.17 254.292V254.292Z" fill="#0071F2"/>
<path opacity="0.4" d="M350.17 254.292C348.219 258.967 342.688 265.933 327.656 259.397C327.656 259.397 321.88 266.906 309.999 270.326C304.838 271.822 299.426 272.238 294.099 271.546C288.771 270.855 283.642 269.072 279.029 266.307C275.363 264.162 272.177 261.281 269.667 257.846C269.667 257.846 267.414 277.589 242.584 283.124C215.832 289.118 199.965 275.876 199.965 275.876C199.965 275.876 180.539 299.236 139.372 291.388C139.372 291.388 121.651 287.863 113.356 272.103C113.356 272.103 91.1092 280.332 79.5436 262.062C79.5436 262.062 74.9328 255.956 81.649 245.887C90.8776 251.923 103.84 249.123 103.84 249.123C105.356 269.17 118.739 270.982 118.739 270.982C133.645 275.551 138.066 262.098 138.066 262.098C140.965 275.671 154.727 279.359 154.727 279.359C180.742 285.317 180.876 263.43 180.876 263.43C199.621 279.803 212.127 259.242 212.127 259.242C223.678 275.234 240.725 270.665 240.725 270.665C260.424 266.667 250.073 249.793 250.073 249.793C266.214 253.975 270.025 242.693 270.025 242.693C277.976 255.885 287.956 252.459 287.956 252.459C299.444 249.793 295.907 239.646 295.907 239.646C310.813 226.066 294.391 213 294.391 213C294.391 213 312.041 212.866 314.68 235.049C314.68 235.049 320.842 224.543 332.274 230.508C332.274 230.508 338.646 234.704 334.246 242.876C334.246 242.876 346.927 238.166 350.387 246.888C351.274 249.291 351.196 251.946 350.17 254.292V254.292Z" fill="white"/>
<path d="M324.385 103.822C322.609 99.6576 316.364 98 314.851 100.319C313.338 102.639 302.041 130.96 302.041 130.96C304.557 130.534 310.034 130.724 311.81 134.889C314.029 140.095 320.648 138.444 325.3 140.315C329.021 141.811 328.866 134 328.866 131.505C328.866 129.009 332.416 125.5 332.62 122.231C332.824 118.962 336.562 112.494 337.875 109.248C338.927 106.651 335.212 106.919 333.224 107.377C331.017 107.928 326.161 107.987 324.385 103.822Z" fill="#D9D9D9"/>
<g filter="url(#filter0_d_1526_10)">
<path d="M285.611 135.909C285.611 135.909 298.556 136.162 307.654 133.165C308.7 132.821 309.779 132.583 310.874 132.455C313.065 132.163 316.675 131.296 315.637 128.689C315.637 128.689 315.696 125.482 306.233 126.873C306.233 126.873 319.726 104.052 313.728 104.1C313.728 104.1 312.563 101.881 310.137 103.486C310.137 103.486 309.275 102.16 307.522 106.72C307.522 106.72 306.927 104.126 305.196 106.488C304.723 107.158 304.37 107.905 304.153 108.696C303.384 111.424 300.708 119.649 296.417 120.314L287.466 122.562C287.466 122.562 287.608 127.113 285.611 135.909Z" fill="#F9B499"/>
</g>
<path d="M307.69 106.175C307.69 106.175 303.961 116.242 300.892 118.954" stroke="#F7A48B" stroke-miterlimit="10"/>
<path d="M313.996 103.676C313.996 103.676 308.583 117.93 304.346 123.083" stroke="#F7A48B" stroke-miterlimit="10"/>
<path d="M310.347 103.397C310.347 103.397 310.272 110.318 302.619 121.019" stroke="#F7A48B" stroke-miterlimit="10"/>
<defs>
<filter id="filter0_d_1526_10" x="284.611" y="98.9033" width="38.209" height="41.0106" filterUnits="userSpaceOnUse" color-interpolation-filters="sRGB">
<feFlood flood-opacity="0" result="BackgroundImageFix"/>
<feColorMatrix in="SourceAlpha" type="matrix" values="0 0 0 0 0 0 0 0 0 0 0 0 0 0 0 0 0 0 127 0" result="hardAlpha"/>
<feOffset dx="3"/>
<feGaussianBlur stdDeviation="2"/>
<feComposite in2="hardAlpha" operator="out"/>
<feColorMatrix type="matrix" values="0 0 0 0 0 0 0 0 0 0 0 0 0 0 0 0 0 0 0.25 0"/>
<feBlend mode="normal" in2="BackgroundImageFix" result="effect1_dropShadow_1526_10"/>
<feBlend mode="normal" in="SourceGraphic" in2="effect1_dropShadow_1526_10" result="shape"/>
</filter>
</defs>
</svg>
