<svg width="336" height="238" viewBox="0 0 336 238" fill="none" xmlns="http://www.w3.org/2000/svg">
<path d="M306.768 223.908C330.268 215.983 336 188 336 188V171.5L332.708 166C332.708 166 329.118 182.143 313.828 176.154C313.828 176.154 323.628 200.293 304.978 206C304.978 206 288.848 212.534 277.918 189.676C277.918 189.676 266.088 219.068 248.348 195.655C248.348 195.655 248.228 226.963 223.608 218.433C223.608 218.433 210.588 213.17 207.838 193.759C207.838 193.759 203.658 212.988 189.558 206.454C189.558 206.454 176.898 203.913 175.458 175.246C175.458 175.246 163.198 179.249 154.458 170.618C148.098 185.017 152.458 193.759 152.458 193.759C163.398 219.875 184.458 208.108 184.458 208.108C192.308 230.644 209.068 235.685 209.068 235.685C248.068 246.938 266.448 213.502 266.448 213.502C271.358 219.114 277.829 223.108 285.019 224.964C292.21 226.819 299.787 226.452 306.768 223.908Z" fill="#66AAF7"/>
<path d="M313.536 176.193C328.826 182.123 332.416 166.123 332.416 166.123L336 160.5L335.5 132C335.62 125.16 335.5 120.5 335.5 120.5C332.95 121.978 327.362 124.717 325.649 127.115C323.937 129.514 322.756 132.251 322.186 135.143C300.956 112.983 288.286 139.073 288.286 139.073C291.436 122.053 285.676 110.283 279.436 102.913C273.126 95.3925 265.206 91.4425 257.126 91.0425C226.036 89.5025 210.376 130.293 210.376 130.293C205.246 115.893 193.826 117.293 193.826 117.293C178.896 121.863 180.056 139.073 180.056 139.073C169.186 132.343 159.626 134.273 159.626 134.273C154.886 134.743 151.766 136.563 149.766 138.823C148.701 140.03 147.855 141.414 147.266 142.913C146.121 145.965 145.776 149.259 146.266 152.483C147.546 161.483 150.556 167.163 154.166 170.703C162.906 179.293 175.166 175.293 175.166 175.293C176.606 203.723 189.266 206.243 189.266 206.243C203.366 212.723 207.546 193.653 207.546 193.653C210.316 212.903 223.316 218.123 223.316 218.123C247.936 226.583 248.056 195.533 248.056 195.533C265.796 218.753 277.626 189.603 277.626 189.603C288.556 212.273 304.686 205.793 304.686 205.793C323.336 200.133 313.536 176.193 313.536 176.193Z" fill="#177EF3"/>
<path opacity="0.3" d="M313.487 174.193C328.777 180.123 335.45 164.019 335.45 164.019V129.263C335.57 122.423 332.067 119.233 332.067 119.233C329.517 120.711 327.312 122.717 325.6 125.115C323.887 127.514 322.707 130.251 322.137 133.143C300.907 110.983 288.237 137.073 288.237 137.073C291.387 120.053 285.627 108.283 279.387 100.913C273.077 93.3925 265.157 89.4425 257.077 89.0425C225.987 87.5025 210.327 128.293 210.327 128.293C205.197 113.893 193.777 115.293 193.777 115.293C178.847 119.863 180.007 137.073 180.007 137.073C169.137 130.343 159.577 132.273 159.577 132.273C154.837 132.743 151.717 134.563 149.717 136.823C148.651 138.03 147.805 139.414 147.217 140.913C146.071 143.965 145.727 147.259 146.217 150.483C147.497 159.483 150.507 165.163 154.117 168.703C162.857 177.293 175.117 173.293 175.117 173.293C176.557 201.723 189.217 204.243 189.217 204.243C203.317 210.723 207.497 191.653 207.497 191.653C210.267 210.903 223.267 216.123 223.267 216.123C247.887 224.583 248.007 193.533 248.007 193.533C265.747 216.753 277.577 187.603 277.577 187.603C288.507 210.273 304.637 203.793 304.637 203.793C323.287 198.133 313.487 174.193 313.487 174.193Z" fill="#4C9CF6"/>
<path d="M332.116 121.47C329.574 122.956 327.377 124.967 325.673 127.369C323.97 129.771 322.798 132.509 322.236 135.4C301.006 113.24 288.336 139.33 288.336 139.33C291.486 122.33 285.726 110.54 279.486 103.17C273.126 95.6499 265.256 91.6998 257.176 91.2998C226.086 89.7598 210.426 130.55 210.426 130.55C205.296 116.15 193.876 117.55 193.876 117.55C178.946 122.12 180.106 139.33 180.106 139.33C169.236 132.6 159.676 134.53 159.676 134.53C154.936 135 151.836 136.82 149.816 139.08C150.016 138.67 157.026 124.53 169.236 126.98C169.236 126.98 166.236 113.17 176.166 102.79C181.656 97.0399 188.456 94.6799 195.076 96.1299C199.776 97.1299 205.386 100.13 210.076 107.55C210.076 107.55 224.806 61.8498 270.496 74.0798C270.496 74.0798 294.196 80.9198 302.086 117.27C302.106 117.24 318.396 98.6498 332.116 121.47Z" fill="white"/>
<path d="M299.649 53.0039C297.403 51.8614 295.02 51.008 292.559 50.4639C292.559 50.4639 281.779 49.9539 282.899 44.8139C282.899 44.8139 283.069 39.1439 290.019 24.3739C290.019 24.3739 299.519 -4.78609 311.389 1.73391C311.389 1.73391 317.029 4.07392 313.159 10.0239C312.684 10.7335 312.313 11.5083 312.059 12.3239C311.059 15.6239 308.839 24.2539 309.689 31.8639C309.575 33.9201 309.334 35.9673 308.969 37.9939C308.877 38.4457 308.9 38.9135 309.036 39.354C309.172 39.7945 309.418 40.1934 309.749 40.5139L310.749 41.5139L299.649 53.0039Z" fill="#AFAFAF"/>
<path opacity="0.2" d="M299.649 53.0039C297.403 51.8614 295.02 51.008 292.559 50.4639C292.559 50.4639 281.779 49.9539 282.899 44.8139C282.899 44.8139 283.069 39.1439 290.019 24.3739C290.019 24.3739 299.519 -4.78609 311.389 1.73391C311.389 1.73391 317.029 4.07392 313.159 10.0239C312.684 10.7335 312.313 11.5083 312.059 12.3239C311.059 15.6239 308.839 24.2539 309.689 31.8639C309.575 33.9201 309.334 35.9673 308.969 37.9939C308.877 38.4457 308.9 38.9135 309.036 39.354C309.172 39.7945 309.418 40.1934 309.749 40.5139L310.749 41.5139L299.649 53.0039Z" fill="white"/>
<path d="M284.859 48.554C285.999 44.154 287.289 39.784 288.689 35.454C290.089 31.124 291.599 26.824 293.319 22.594C294.179 20.484 295.149 18.404 296.189 16.384C297.199 14.3202 298.327 12.3168 299.569 10.384C300.79 8.45217 302.157 6.61677 303.659 4.89401C304.424 4.04446 305.253 3.25545 306.139 2.53403C307.031 1.80214 308.047 1.23648 309.139 0.864014C307.074 1.82705 305.278 3.28318 303.909 5.10403C302.467 6.84883 301.16 8.70082 299.999 10.644C298.829 12.584 297.709 14.564 296.719 16.644C295.729 18.724 294.719 20.734 293.919 22.844C292.159 27.024 290.659 31.324 289.169 35.614C288.419 37.754 287.699 39.914 286.989 42.074C286.279 44.234 285.589 46.394 284.859 48.554Z" fill="white"/>
<path d="M157.139 38.674C157.139 38.674 156.049 31.044 181.959 22.804C181.959 22.804 212.199 12.2241 240.109 10.5641L293.279 6.90405L297.599 26.1641L237.449 36.9041L205.859 50.4441C205.859 50.4441 229.779 60.4441 237.759 69.3841L214.499 116.564C214.499 116.564 186.279 100.904 162.689 78.6841L103.209 91.6841L45.9993 69.1541L50.3193 49.364L102.499 63.7541L143.699 52.4341L152.159 39.704L157.139 38.674Z" fill="#7435DC"/>
<path d="M135.479 49.6041L145.499 53.0041L153.899 61.2441V45.0841L157.139 38.6741L142.079 31.2041L137.909 27.9541L135.479 49.6041Z" fill="#965F4A"/>
<path d="M110.659 36.504C111.527 37.3175 112.224 38.2949 112.712 39.3797C113.199 40.4645 113.467 41.6351 113.499 42.824C113.499 42.824 113.339 51.224 118.349 46.534C118.349 46.534 125.789 58.014 130.959 54.614C133.392 53.3951 135.732 51.998 137.959 50.434L141.219 33.154L133.709 28.4539L131.319 18.574L117.579 22.804L110.659 36.504Z" fill="#965F4A"/>
<path d="M130.169 55.014C134.5 50.6644 137.837 45.4275 139.949 39.6641L137.949 50.4341C135.54 52.2546 132.93 53.7914 130.169 55.014Z" fill="#773522"/>
<path opacity="0.1" d="M154.599 70.0139L157.139 79.8939L162.689 78.6839L154.599 70.0139Z" fill="black"/>
<path opacity="0.1" d="M205.889 50.4441L197.279 55.2441L219.379 56.8241L205.889 50.4441Z" fill="black"/>
<path d="M235.389 37.7942C235.389 37.7942 260.639 50.2342 265.259 56.7942C265.259 56.7942 268.779 68.2242 263.719 73.5042C263.719 73.5042 249.029 68.9342 237.789 69.3542C237.789 69.3542 232.089 61.8542 205.889 50.4142L235.389 37.7942Z" fill="#58469F"/>
<path opacity="0.2" d="M235.389 37.7942C235.389 37.7942 260.639 50.2342 265.259 56.7942C265.259 56.7942 268.779 68.2242 263.719 73.5042C263.719 73.5042 249.029 68.9342 237.789 69.3542C237.789 69.3542 232.089 61.8542 205.889 50.4142L235.389 37.7942Z" fill="black"/>
<path d="M222.539 43.304C226.229 44.644 229.899 46.0439 233.539 47.4539L236.289 48.5139C237.199 48.8739 238.119 49.224 239.029 49.624C240.842 50.4201 242.585 51.3667 244.239 52.4539C247.552 54.6519 250.41 57.4663 252.659 60.744C253.769 62.3822 254.692 64.1399 255.409 65.9839C256.101 67.8306 256.564 69.7549 256.789 71.714C256.106 67.8512 254.557 64.1932 252.259 61.0139C249.984 57.8561 247.147 55.1442 243.889 53.0139C242.274 51.9313 240.571 50.9847 238.799 50.184C237.019 49.404 235.159 48.714 233.369 47.934C229.759 46.394 226.139 44.904 222.539 43.304Z" fill="white"/>
<path d="M214.579 116.554C214.579 116.554 265.759 139.834 306.759 141.414L335.5 143V45L320.479 35.684L303.859 59.214L329.229 86.434C329.229 86.434 291.359 80.714 263.769 73.534C263.769 73.534 247.959 68.434 237.839 69.374L214.579 116.554Z" fill="#2F2E41"/>
<path opacity="0.2" d="M248.151 111.49C249.367 111.969 287.598 129.779 335.5 130.5L335.5 122L248.151 111.49Z" fill="#262534"/>
<path d="M227.949 61.7441C227.949 61.7441 216.219 90.8442 197.279 105.854L207.179 112.214C207.179 112.214 228.029 80.4042 229.859 62.9742L227.949 61.7441Z" fill="#58469F"/>
<path opacity="0.2" d="M227.949 61.7441C227.949 61.7441 216.219 90.8442 197.279 105.854L207.179 112.214C207.179 112.214 228.029 80.4042 229.859 62.9742L227.949 61.7441Z" fill="black"/>
<path opacity="0.2" d="M214.529 116.564L242.269 69.314L237.789 69.384L214.529 116.564Z" fill="black"/>
<path d="M249.589 70.1442C249.589 70.1442 246.299 95.0742 239.669 104.854C239.669 104.854 260.669 83.2142 265.469 73.9842L272.469 75.7042C272.469 75.7042 264.469 91.7042 236.119 114.264L228.349 122.264L219.149 118.544C219.149 118.544 246.359 95.8442 243.149 69.2742C243.209 69.3142 247.499 69.6842 249.589 70.1442Z" fill="#58469F"/>
<path opacity="0.2" d="M249.589 70.1442C249.589 70.1442 246.299 95.0742 239.669 104.854C239.669 104.854 260.669 83.2142 265.469 73.9842L272.469 75.7042C272.469 75.7042 264.469 91.7042 236.119 114.264L228.349 122.264L219.149 118.544C219.149 118.544 246.359 95.8442 243.149 69.2742C243.209 69.3142 247.499 69.6842 249.589 70.1442Z" fill="black"/>
<path d="M110.659 36.5042C110.659 36.5042 108.019 39.2942 105.409 38.5042C106.461 38.1061 107.375 37.4113 108.039 36.5042C108.039 36.5042 101.309 37.4342 101.309 32.7742C101.852 32.9166 102.425 32.8884 102.951 32.6933C103.477 32.4983 103.931 32.1459 104.249 31.6842C104.249 31.6842 97.5093 33.1742 98.3193 23.9942C98.3193 23.9942 98.7193 27.9142 101.019 27.9142C100.242 26.3703 99.959 24.6245 100.209 22.9142C100.209 22.9142 103.709 25.3442 106.819 23.5942C106.819 23.5942 99.6693 17.7842 106.549 12.1242C106.549 12.1242 109.549 8.88416 115.189 13.0642C115.189 13.0642 114.649 9.28415 117.339 7.80415C117.339 7.80415 115.049 12.3942 117.339 12.9342C117.339 12.9342 117.609 7.12414 123.549 7.26414C124.809 7.29217 126.04 7.64122 127.127 8.27821C128.213 8.9152 129.12 9.81904 129.759 10.9042C129.914 10.506 129.974 10.0778 129.937 9.65254C129.9 9.22724 129.765 8.81618 129.544 8.45103C129.323 8.08588 129.021 7.77638 128.661 7.54634C128.301 7.31629 127.894 7.17186 127.469 7.12416C127.469 7.12416 130.839 5.64415 131.379 10.7742C131.379 10.7742 136.079 8.61416 137.919 11.4442C137.919 11.4442 139.749 12.2542 139.479 16.4442C140.506 16.479 141.517 16.716 142.452 17.1415C143.388 17.5671 144.23 18.1728 144.931 18.9242C145.632 19.6755 146.179 20.5577 146.539 21.5203C146.899 22.4829 147.065 23.5071 147.029 24.5342C147.029 24.5342 147.199 31.9242 141.179 33.1542L133.669 28.4541C133.669 28.4541 127.329 32.2242 124.499 26.1542C123.471 27.6098 121.974 28.6686 120.259 29.1542C119.172 29.3499 118.121 29.7071 117.139 30.2142C114.859 31.4342 111.249 33.7642 110.659 36.5042Z" fill="#2F2E41"/>
<path d="M140.142 33.9722C142.141 33.0323 142.767 30.1553 141.541 27.5463C140.314 24.9374 137.699 23.5843 135.7 24.5242C133.701 25.4641 133.074 28.3411 134.301 30.95C135.527 33.559 138.142 34.9121 140.142 33.9722Z" fill="#965F4A"/>
<path d="M15.8588 56.9471C17.3824 61.2083 22.2323 62.9994 25.1409 60.9997C26.0266 60.3908 29.6493 56.5 29.6493 53.5C34.0538 44.6254 39.6793 31.1579 39.6793 31.1579C37.1505 31.4363 31.712 30.9278 30.1884 26.6665C28.2838 21.3399 21.6014 22.6029 17.0819 20.4641C13.4663 18.7531 13.1641 26.5601 13.0182 29.0511C12.8724 31.5422 9.13467 34.8387 8.74075 38.0901C8.34683 41.3416 2.5495 45 3.5495 49C4.39911 52.3985 6.24076 52 8.74076 53.5C10.9682 53.079 14.3351 52.6858 15.8588 56.9471Z" fill="#D9D9D9"/>
<g filter="url(#filter0_d_1526_11)">
<path d="M49.0496 54.24C49.0496 54.24 44.2441 49.9919 42.3218 44.7901C41.9492 43.772 41.7604 42.6956 41.7644 41.6112C41.7644 38.336 41.5337 30.0517 40.3707 29.6856C40.3707 29.6856 39.1021 24.4549 36.4014 26.1407C36.4014 26.1407 33.0759 21.9311 32.2013 29.6856C32.0743 36.6478 32.3535 43.6114 33.0375 50.5409C33.0375 50.5409 25.7907 45.3584 23.4264 48.0556C23.4264 48.0556 21.0716 48.7781 28.1358 54.24C28.1358 54.24 39.7749 63.7285 46.6468 65L49.0496 54.24Z" fill="#965F4A"/>
</g>
<path d="M40.0496 28V40.28" stroke="#773522" stroke-miterlimit="10"/>
<path d="M36.0496 25V42.31" stroke="#773522" stroke-miterlimit="10"/>
<defs>
<filter id="filter0_d_1526_11" x="16.0496" y="21" width="34" height="48" filterUnits="userSpaceOnUse" color-interpolation-filters="sRGB">
<feFlood flood-opacity="0" result="BackgroundImageFix"/>
<feColorMatrix in="SourceAlpha" type="matrix" values="0 0 0 0 0 0 0 0 0 0 0 0 0 0 0 0 0 0 127 0" result="hardAlpha"/>
<feOffset dx="-3"/>
<feGaussianBlur stdDeviation="2"/>
<feComposite in2="hardAlpha" operator="out"/>
<feColorMatrix type="matrix" values="0 0 0 0 0 0 0 0 0 0 0 0 0 0 0 0 0 0 0.25 0"/>
<feBlend mode="normal" in2="BackgroundImageFix" result="effect1_dropShadow_1526_11"/>
<feBlend mode="normal" in="SourceGraphic" in2="effect1_dropShadow_1526_11" result="shape"/>
</filter>
</defs>
</svg>
